<svg xmlns="http://www.w3.org/2000/svg" width="53.066" height="64" viewBox="0 0 53.066 64">
  <g id="组_4412" data-name="组 4412" transform="translate(-232 -912)">
    <path id="路径_13703" data-name="路径 13703" d="M822.785,357.961v22.3a33.627,33.627,0,0,0,3.1,12.5c3.987,8.68,10.987,14.715,20.806,17.947,9.818-3.232,16.818-9.266,20.806-17.947a33.646,33.646,0,0,0,3.1-12.507v-22.3l-23.91-5.867Zm24.3.4h0l16.875,4.141a1.344,1.344,0,0,1,1.078,1.265V381.33a23.956,23.956,0,0,1-2.218,9.081c-2.038,4.47-6.405,10.413-15.635,13.335v0a1.593,1.593,0,0,1-.978,0c-9.229-2.922-13.6-8.865-15.635-13.335a23.962,23.962,0,0,1-2.218-9.081V363.763a1.344,1.344,0,0,1,1.078-1.265l16.875-4.141a1.634,1.634,0,0,1,.776,0Zm0,0" transform="translate(-588.163 562.577)" fill="#f0efff"/>
    <path id="路径_13704" data-name="路径 13704" d="M871.449,429.327a20.994,20.994,0,0,0,2.161,8.179c2.727,5.588,7.485,9.489,14.146,11.6,6.7-2.126,11.47-6.056,14.189-11.691a20.748,20.748,0,0,0,2.117-8.091V412.761l-16.306-3.781-16.307,3.781v16.566Zm4.295-1.791a1.744,1.744,0,0,1,2.17-.276l5.228,3.26,14.7-10.586a1.755,1.755,0,0,1,2.187.148,1.177,1.177,0,0,1-.175,1.849L884.217,433.19a1.726,1.726,0,0,1-1.006.313,1.752,1.752,0,0,1-.921-.256l-6.219-3.878a1.185,1.185,0,0,1-.327-1.834Zm0,0" transform="translate(-629.223 514.579)" fill="#f86584"/>
    <path id="路径_13705" data-name="路径 13705" d="M855.777,396.07a1.356,1.356,0,0,0-1.113,1.265V414.9a23.326,23.326,0,0,0,2.289,9.081c2.1,4.47,6.61,10.413,16.135,13.335a1.695,1.695,0,0,0,1.009,0v0c9.525-2.922,14.032-8.865,16.136-13.335a23.329,23.329,0,0,0,2.289-9.081V397.335a1.356,1.356,0,0,0-1.113-1.265l-17.416-4.141h0a1.733,1.733,0,0,0-.8,0Zm33.719,2.265V414.9a21.179,21.179,0,0,1-2.065,8.091c-2.651,5.635-7.305,9.566-13.838,11.692-6.5-2.114-11.137-6.016-13.8-11.6a21.413,21.413,0,0,1-2.106-8.179V398.335l15.9-3.781Zm0,0" transform="translate(-615.06 529.005)" fill="#3f3d56"/>
    <path id="路径_13706" data-name="路径 13706" d="M858,341.273l-25.083-6.227h0a1.591,1.591,0,0,0-.767,0l-25.083,6.227A1.339,1.339,0,0,0,806,342.538v23.3a35.713,35.713,0,0,0,3.243,13.406,34.86,34.86,0,0,0,7.738,10.979,38.636,38.636,0,0,0,15.069,8.7,1.556,1.556,0,0,0,.966,0v0a38.64,38.64,0,0,0,15.069-8.7,34.846,34.846,0,0,0,7.738-10.979,35.715,35.715,0,0,0,3.243-13.406v-23.3A1.341,1.341,0,0,0,858,341.273Zm-1.833,24.565a33.978,33.978,0,0,1-3.069,12.507c-3.942,8.68-10.861,14.715-20.566,17.946-9.705-3.232-16.625-9.266-20.566-17.946a33.962,33.962,0,0,1-3.069-12.505v-22.3l23.635-5.867,23.635,5.867Zm0,0" transform="translate(-574 577)" fill="#3f3d56"/>
    <path id="路径_13707" data-name="路径 13707" d="M-6051.912-4876.13l-10.663,8.745v7.714l13.605,5.935,14.242-13.648v-8.745Z" transform="translate(6307 5807)" fill="#f86584"/>
    <path id="路径_13708" data-name="路径 13708" d="M-6058.888-4868.632l5.217,5.217,11.97-11.97" transform="translate(6309 5811.903)" fill="none" stroke="#fff" stroke-linecap="round" stroke-linejoin="round" stroke-width="2"/>
  </g>
</svg>
