<svg xmlns="http://www.w3.org/2000/svg" width="82.521" height="71.171" viewBox="0 0 82.521 71.171">
  <g id="组_4415" data-name="组 4415" transform="translate(-1323 -919.828)">
    <g id="组_4403" data-name="组 4403" transform="translate(631.521 15)">
      <g id="组_4380" data-name="组 4380" transform="translate(-9 22.217)">
        <path id="路径_13583" data-name="路径 13583" d="M104.29,79.708,86.029,69.165V48.08L104.29,37.537,122.55,48.08V69.166Zm-16.3-11.677,16.3,9.409,16.3-9.408V49.214l-16.3-9.409-16.3,9.409Z" transform="translate(614.45 874.075)" fill="#3f3d56"/>
        <path id="路径_13584" data-name="路径 13584" d="M108.37,144.994,90.6,134.734l.982-1.7,16.787,9.692,16.787-9.692.982,1.7Z" transform="translate(610.37 788.838)" fill="#3f3d56"/>
        <rect id="矩形_3686" data-name="矩形 3686" width="1.965" height="19.953" transform="translate(717.758 932.697)" fill="#3f3d56"/>
        <path id="路径_13592" data-name="路径 13592" d="M154.6,88.7l10.893-6.29,10.893,6.29-10.893,6.29Z" transform="translate(553.245 834.026)" fill="#f86584"/>
      </g>
      <g id="组_4381" data-name="组 4381" transform="translate(37 -6.783)">
        <path id="路径_13583-2" data-name="路径 13583" d="M104.29,79.708,86.029,69.165V48.08L104.29,37.537,122.55,48.08V69.166Zm-16.3-11.677,16.3,9.409,16.3-9.408V49.214l-16.3-9.409-16.3,9.409Z" transform="translate(614.45 874.075)" fill="#3f3d56"/>
        <path id="路径_13584-2" data-name="路径 13584" d="M108.37,144.994,90.6,134.734l.982-1.7,16.787,9.692,16.787-9.692.982,1.7Z" transform="translate(610.37 788.838)" fill="#3f3d56"/>
        <rect id="矩形_3686-2" data-name="矩形 3686" width="1.965" height="19.953" transform="translate(717.758 932.697)" fill="#3f3d56"/>
        <path id="路径_13592-2" data-name="路径 13592" d="M154.6,88.7l10.893-6.29,10.893,6.29-10.893,6.29Z" transform="translate(553.245 834.026)" fill="#6c63ff"/>
      </g>
      <path id="路径_13593" data-name="路径 13593" d="M-3438.521-5207.807l65.874,38.263" transform="translate(4139 6129)" fill="none" stroke="#3f3d56" stroke-width="2" stroke-dasharray="4"/>
    </g>
  </g>
</svg>
