<svg xmlns="http://www.w3.org/2000/svg" xmlns:xlink="http://www.w3.org/1999/xlink" width="78" height="78" viewBox="0 0 78 78">
  <defs>
    <filter id="椭圆_1077" x="0" y="0" width="78" height="78" filterUnits="userSpaceOnUse">
      <feOffset dy="3" input="SourceAlpha"/>
      <feGaussianBlur stdDeviation="3" result="blur"/>
      <feFlood flood-opacity="0.161"/>
      <feComposite operator="in" in2="blur"/>
      <feComposite in="SourceGraphic"/>
    </filter>
  </defs>
  <g id="组_4591" data-name="组 4591" transform="translate(-278 -1031)">
    <g transform="matrix(1, 0, 0, 1, 278, 1031)" filter="url(#椭圆_1077)">
      <circle id="椭圆_1077-2" data-name="椭圆 1077" cx="30" cy="30" r="30" transform="translate(9 6)" fill="#fff"/>
    </g>
    <g id="组_4590" data-name="组 4590" transform="translate(-4239.166 -1302.731)">
      <g id="组_4589" data-name="组 4589" transform="translate(4526.166 2339.731)">
        <path id="路径_12365" data-name="路径 12365" d="M4527.052,2362.526a29.993,29.993,0,1,1,21.908,36.32,29.989,29.989,0,0,1-21.908-36.32" transform="translate(-4526.166 -2339.731)" fill="#df130d"/>
      </g>
      <path id="路径_12366" data-name="路径 12366" d="M4601.318,2403.021l-1.4,1.694-2.042-.816,1.169,1.858-1.4,1.689,2.133-.542,1.174,1.858.138-2.194,2.133-.542-2.042-.813Zm8.13-4.611-2.2,0-.673-2.09-.682,2.092-2.2,0,1.775,1.291-.682,2.09,1.779-1.291,1.775,1.293-.678-2.093Zm-3.579-8.047.334,2.171,1.007-1.958,2.166.351-1.55-1.555,1-1.957-1.961.995-1.546-1.555.334,2.168-1.957.993Zm-4.537-10.063-1.4,1.694-2.037-.811,1.169,1.854-1.4,1.691,2.128-.543,1.174,1.858.143-2.2,2.129-.542-2.038-.811ZM4586,2389.962l-2.062-6.346-2.066,6.346h-6.675l5.4,3.927-2.061,6.351,5.4-3.927,5.4,3.927-2.062-6.351,5.4-3.927Z" transform="translate(-41.58 -34.405)" fill="#ffcd00"/>
    </g>
  </g>
</svg>
