<svg xmlns="http://www.w3.org/2000/svg" xmlns:xlink="http://www.w3.org/1999/xlink" width="78" height="77.999" viewBox="0 0 78 77.999">
  <defs>
    <filter id="路径_11994" x="0" y="0" width="78" height="77.999" filterUnits="userSpaceOnUse">
      <feOffset dy="3" input="SourceAlpha"/>
      <feGaussianBlur stdDeviation="3" result="blur"/>
      <feFlood flood-opacity="0.161"/>
      <feComposite operator="in" in2="blur"/>
      <feComposite in="SourceGraphic"/>
    </filter>
  </defs>
  <g id="组_4488" data-name="组 4488" transform="translate(-1166 -1018)">
    <g transform="matrix(1, 0, 0, 1, 1166, 1018)" filter="url(#路径_11994)">
      <path id="路径_11994-2" data-name="路径 11994" d="M-1011.452,2278.425a29.988,29.988,0,0,1,36.319-21.908,29.989,29.989,0,0,1,21.909,36.319,29.991,29.991,0,0,1-36.321,21.908,29.988,29.988,0,0,1-21.907-36.319" transform="translate(1021.34 -2249.63)" fill="#fff"/>
    </g>
    <path id="路径_11995" data-name="路径 11995" d="M-920.493,2359.464a15.811,15.811,0,0,1,19.149-11.551,15.811,15.811,0,0,1,11.551,19.149,15.812,15.812,0,0,1-19.15,11.551,15.811,15.811,0,0,1-11.55-19.149" transform="translate(2109.843 -1309.497)" fill="#df130d"/>
  </g>
</svg>
