<svg xmlns="http://www.w3.org/2000/svg" xmlns:xlink="http://www.w3.org/1999/xlink" width="78" height="78" viewBox="0 0 78 78">
  <defs>
    <filter id="椭圆_1077" x="0" y="0" width="78" height="78" filterUnits="userSpaceOnUse">
      <feOffset dy="3" input="SourceAlpha"/>
      <feGaussianBlur stdDeviation="3" result="blur"/>
      <feFlood flood-opacity="0.161"/>
      <feComposite operator="in" in2="blur"/>
      <feComposite in="SourceGraphic"/>
    </filter>
  </defs>
  <g id="组_4490" data-name="组 4490" transform="translate(-718 -1033)">
    <g transform="matrix(1, 0, 0, 1, 718, 1033)" filter="url(#椭圆_1077)">
      <circle id="椭圆_1077-2" data-name="椭圆 1077" cx="30" cy="30" r="30" transform="translate(9 6)" fill="#fff"/>
    </g>
    <path id="路径_11996" data-name="路径 11996" d="M-1969.055,2107.744a30,30,0,0,1,30-30,30,30,0,0,1,30,30" transform="translate(2696.055 -1038.744)" fill="#c91315"/>
    <g id="组_4489" data-name="组 4489" transform="translate(741.912 1046.294)">
      <path id="路径_11988" data-name="路径 11988" d="M-910,1792.864a8.964,8.964,0,0,1,7.246-8.8,9,9,0,0,0-1.715-.165,8.961,8.961,0,0,0-8.961,8.961,8.961,8.961,0,0,0,8.961,8.961,9.021,9.021,0,0,0,1.715-.165A8.964,8.964,0,0,1-910,1792.864Z" transform="translate(913.428 -1783.903)" fill="#fff"/>
      <g id="组_4485" data-name="组 4485" transform="translate(6.822 1.742)">
        <g id="组_4484" data-name="组 4484">
          <path id="路径_11989" data-name="路径 11989" d="M-832.535,1797.958l1.191-.865h-1.472l-.455-1.4-.455,1.4H-835.2l1.191.865-.455,1.4,1.191-.865,1.191.865Z" transform="translate(839.933 -1795.692)" fill="#fff"/>
          <path id="路径_11990" data-name="路径 11990" d="M-864.586,1822.014l1.191-.865h-1.472l-.455-1.4-.455,1.4h-1.472l1.191.865-.455,1.4,1.191-.865,1.191.865Z" transform="translate(867.249 -1816.195)" fill="#fff"/>
          <path id="路径_11991" data-name="路径 11991" d="M-801.083,1822.014l1.191-.865h-1.472l-.455-1.4-.455,1.4h-1.472l1.191.865-.455,1.4,1.191-.865,1.191.865Z" transform="translate(813.128 -1816.195)" fill="#fff"/>
          <path id="路径_11992" data-name="路径 11992" d="M-814.129,1860.874l1.191-.865h-1.472l-.455-1.4-.455,1.4h-1.472l1.191.865-.455,1.4,1.191-.865,1.191.865Z" transform="translate(824.246 -1849.314)" fill="#fff"/>
          <path id="路径_11993" data-name="路径 11993" d="M-851.54,1860.874l1.191-.865h-1.472l-.455-1.4-.455,1.4H-854.2l1.191.865-.455,1.4,1.191-.865,1.191.865Z" transform="translate(856.131 -1849.314)" fill="#fff"/>
        </g>
      </g>
    </g>
  </g>
</svg>
