<svg xmlns="http://www.w3.org/2000/svg" xmlns:xlink="http://www.w3.org/1999/xlink" width="78" height="78" viewBox="0 0 78 78">
  <defs>
    <filter id="椭圆_1077" x="0" y="0" width="78" height="78" filterUnits="userSpaceOnUse">
      <feOffset dy="3" input="SourceAlpha"/>
      <feGaussianBlur stdDeviation="3" result="blur"/>
      <feFlood flood-opacity="0.161"/>
      <feComposite operator="in" in2="blur"/>
      <feComposite in="SourceGraphic"/>
    </filter>
  </defs>
  <g id="组_4492" data-name="组 4492" transform="translate(-270 -1030)">
    <g transform="matrix(1, 0, 0, 1, 270, 1030)" filter="url(#椭圆_1077)">
      <circle id="椭圆_1077-2" data-name="椭圆 1077" cx="30" cy="30" r="30" transform="translate(9 6)" fill="#fff"/>
    </g>
    <g id="组_4491" data-name="组 4491" transform="translate(1782.609 -707.714)">
      <path id="路径_11985" data-name="路径 11985" d="M-1502.723,1766.508a29.989,29.989,0,0,1,36.32-21.908,29.989,29.989,0,0,1,21.909,36.319,29.991,29.991,0,0,1-36.322,21.909,29.988,29.988,0,0,1-21.908-36.32" transform="translate(0 0)" fill="#f6f6f6"/>
      <path id="路径_11986" data-name="路径 11986" d="M-1441.276,1764.241h-23.236v4.592h24.711a29.977,29.977,0,0,0-1.475-4.592m-5.931-9.189h-17.305v4.6h20.866a30.126,30.126,0,0,0-3.56-4.6m-43.474,41.343h43.33a29.793,29.793,0,0,0,3.613-4.592h-50.551a30.087,30.087,0,0,0,3.607,4.592m28.87-49.863c-.9-.223-1.8-.4-2.7-.538v4.465h11.794a29.944,29.944,0,0,0-9.093-3.927m22.712,26.893h-25.413v4.6h25.4a29.828,29.828,0,0,0,.016-4.6m-57.594,13.785h55.355a30.212,30.212,0,0,0,1.435-4.359c.02-.079.037-.158.056-.238H-1498.2a30.023,30.023,0,0,0,1.5,4.6m20.471,17.55a30.156,30.156,0,0,0,5.314.824h3.817a30,30,0,0,0,14.119-4.6h-32.1a29.946,29.946,0,0,0,8.853,3.773" transform="translate(-4.591 -1.935)" fill="#df130d"/>
      <path id="路径_11987" data-name="路径 11987" d="M-1471.368,1774.546l-.648-.472-.65.472.247-.761-.647-.472h.8l.249-.761.245.761h.8l-.647.472Zm-3.186-24.173.247.766-.647-.472-.649.472.249-.766-.649-.468h.8l.25-.765.247.765h.8Zm0,6.906.247.761-.647-.472-.649.472.249-.761-.649-.472h.8l.25-.761.247.761h.8Zm-.059,6.766.247.761-.649-.473-.648.473.247-.761-.65-.472h.8l.248-.761.247.761h.8Zm.188,7.449-.649-.473-.647.473.247-.761-.649-.473h.8l.247-.761.247.761h.8l-.649.473Zm-3.189-17.775.25.761-.647-.468-.652.468.249-.761-.648-.472h.8l.25-.761.245.761h.8Zm0,6.692.25.761-.647-.472-.652.472.249-.761-.648-.472h.8l.25-.761.245.761h.8Zm0,6.84.25.765-.647-.472-.652.472.249-.765-.648-.468h.8l.25-.766.245.766h.8Zm.25,7.3-.647-.472-.652.472.249-.761-.648-.472h.8l.25-.761.245.761h.8l-.648.472Zm-3.188-24.173.249.766-.649-.472-.65.472.249-.766-.647-.468h.8l.247-.765.247.765h.8Zm0,6.906.249.761-.649-.472-.65.472.249-.761-.647-.472h.8l.247-.761.247.761h.8Zm-.057,6.766.247.761-.65-.473-.647.473.247-.761-.649-.472h.8l.249-.761.247.761h.8Zm.186,7.449-.647-.473-.649.473.247-.761-.648-.473h.8l.249-.761.247.761h.8l-.647.473Zm-3.186-24.462.247.761-.647-.472-.65.472.247-.761-.647-.472h.8l.247-.761.247.761h.8Zm0,6.687.247.761-.647-.468-.65.468.247-.761-.647-.472h.8l.247-.761.247.761h.8Zm0,6.692.247.761-.647-.472-.65.472.247-.761-.647-.472h.8l.247-.761.247.761h.8Zm0,6.84.247.765-.647-.472-.65.472.247-.765-.647-.468h.8l.247-.766.247.766h.8Zm.247,7.3-.647-.472-.65.472.247-.761-.647-.472h.8l.247-.761.247.761h.8l-.649.472Zm-3.186-24.413.249.765-.652-.472-.647.472.249-.765-.649-.468h.8l.247-.761.249.761h.8Zm0,6.906.249.761-.652-.468-.647.468.249-.761-.649-.472h.8l.247-.761.249.761h.8Zm-.061,6.766.25.761-.648-.473-.652.473.249-.761-.647-.472h.8l.249-.761.245.761h.8Zm.19,7.453-.649-.473-.647.473.248-.765-.65-.468h.8l.249-.761.247.761h.8l-.648.468Zm-3.186-17.538.25.761-.648-.468-.651.468.249-.761-.647-.472h.8l.251-.761.245.761h.8Zm0,6.692.25.761-.648-.472-.651.472.249-.761-.647-.472h.8l.251-.761.245.761h.8Zm0,6.84.25.765-.648-.472-.651.472.249-.765-.647-.468h.8l.251-.766.245.766h.8Zm.25,7.3-.648-.472-.651.472.249-.761-.647-.472h.8l.251-.761.245.761h.8l-.647.472Zm-3.188-17.573.247.761-.647-.472-.65.472.25-.761-.649-.472h.8l.247-.761.247.761h.8Zm-.059,6.766.247.761-.647-.472-.65.472.247-.761-.647-.472h.8l.25-.761.245.761h.8Zm.186,7.448-.647-.472-.648.472.247-.761-.65-.472h.8l.247-.761.249.761h.8l-.649.472Zm14.157-24.628.25-.761.245.761h.8l-.648.472.25.761-.647-.472-.652.472.249-.761-.648-.472Zm6,20.224.249-.766.245.766h.8l-.647.468.247.765-.648-.472-.65.472.247-.765-.647-.468Zm0-6.845.249-.761.245.761h.8l-.647.472.247.761-.648-.472-.65.472.247-.761-.647-.472Zm0-6.692.249-.761.245.761h.8l-.647.472.247.761-.648-.468-.65.468.247-.761-.647-.472Zm0-6.687.249-.761.245.761h.8l-.647.472.247.761-.648-.472-.65.472.247-.761-.647-.472Zm-23.338,13.851.247.761-.649-.472-.647.472.247-.761-.649-.472h.8l.25-.761.247.761h.8Zm0,6.84.247.765-.649-.472-.647.472.247-.765-.649-.468h.8l.25-.766.247.766h.8Zm.247,7.3-.649-.472-.647.472.247-.761-.65-.472h.8l.249-.761.247.761h.8l-.648.472Zm-3.249-10.925.249.761-.649-.472-.648.472.248-.761-.65-.473h.8l.247-.761.249.761h.8Zm.189,7.448-.647-.472-.652.472.25-.761-.648-.472h.8l.249-.761.245.761h.8l-.65.472Zm-2.938,3.477-.648-.472-.649.472.247-.761-.647-.472h.8l.247-.761.249.761h.8l-.647.472Zm32.259-30.344c-.295-.045-2.481-.285-2.775-.321l-5.392.2a30.07,30.07,0,0,0-15.147,6.412l.111.34-.281-.2a29.964,29.964,0,0,0-2.819,2.619h.443l-.648.472.247.761-.649-.468-.259.187q-.907,1.045-1.72,2.179h.09l-.188.136q-.2.278-.388.561l.174.536-.357-.258a29.951,29.951,0,0,0-4.061,9.3c-.011.044-.021.089-.031.134h.5l.247-.766.249.766h.8l-.647.468.247.765-.648-.472-.649.472.247-.765-.386-.28a29.947,29.947,0,0,0-.713,9.3h34.408Z" transform="translate(-0.01 -0.142)" fill="#00285e"/>
    </g>
  </g>
</svg>
