<svg xmlns="http://www.w3.org/2000/svg" width="133" height="70" viewBox="0 0 133 70">
  <g id="组_4550" data-name="组 4550" transform="translate(-1176 -378)">
    <rect id="矩形_3884" data-name="矩形 3884" width="133" height="70" transform="translate(1176 378)" fill="#f7f8f9"/>
    <g id="kubernetes-ar21_1_" data-name="kubernetes-ar21 (1)" transform="translate(1190.844 416.753)">
      <path id="路径_13629" data-name="路径 13629" d="M16.035-17.751a1.871,1.871,0,0,0-.719.191L5.592-12.919a1.846,1.846,0,0,0-1,1.251L2.205-1.25A1.831,1.831,0,0,0,2.459.171q.05.076.1.147l6.727,8.36a1.863,1.863,0,0,0,1.449.686H21.525a1.863,1.863,0,0,0,1.453-.692L29.7.308a1.831,1.831,0,0,0,.358-1.56l-2.4-10.43a1.846,1.846,0,0,0-1-1.251l-9.717-4.628a1.871,1.871,0,0,0-.9-.191Z" fill="#326ce5"/>
      <path id="路径_13630" data-name="路径 13630" d="M16.627-13.734a.616.616,0,0,0-.572.646v.164a4.851,4.851,0,0,0,.08.553,5.433,5.433,0,0,1,.057,1.056.635.635,0,0,1-.191.3l-.013.248a7.568,7.568,0,0,0-1.051.162,7.48,7.48,0,0,0-3.8,2.17l-.21-.149a.46.46,0,0,1-.345-.034A5.431,5.431,0,0,1,9.8-9.324a4.845,4.845,0,0,0-.381-.406l-.13-.1a.692.692,0,0,0-.4-.153.561.561,0,0,0-.463.206.616.616,0,0,0,.143.858l.12.1a4.847,4.847,0,0,0,.482.282,5.429,5.429,0,0,1,.871.6.646.646,0,0,1,.116.336l.191.166A7.524,7.524,0,0,0,9.156-2.192l-.244.071a.807.807,0,0,1-.25.252A5.431,5.431,0,0,1,7.619-1.7a4.866,4.866,0,0,0-.559.044l-.153.038H6.889a.583.583,0,0,0-.475.39.583.583,0,0,0,.137.6.583.583,0,0,0,.6.144h.011L7.318-.5A4.86,4.86,0,0,0,7.84-.694a5.436,5.436,0,0,1,1.014-.3.643.643,0,0,1,.334.118l.254-.044a7.568,7.568,0,0,0,3.354,4.2l-.107.223a.572.572,0,0,1,.051.328,5.682,5.682,0,0,1-.526.953,4.872,4.872,0,0,0-.313.465l-.076.156a.583.583,0,1,0,1.051.5l.072-.149a4.853,4.853,0,0,0,.168-.534,4.12,4.12,0,0,1,.45-1.045.471.471,0,0,1,.25-.122l.133-.238a7.526,7.526,0,0,0,5.368.013l.114.223a.46.46,0,0,1,.3.179,5.427,5.427,0,0,1,.4.978,4.864,4.864,0,0,0,.17.534l.072.149a.583.583,0,1,0,1.051-.5l-.076-.156a4.849,4.849,0,0,0-.313-.463,5.434,5.434,0,0,1-.515-.923.456.456,0,0,1,.059-.349,2,2,0,0,1-.1-.235,7.568,7.568,0,0,0,3.341-4.21l.248.044a.46.46,0,0,1,.326-.12,5.436,5.436,0,0,1,1.014.3,4.86,4.86,0,0,0,.522.2c.042.011.1.019.153.032h.011a.583.583,0,0,0,.6-.144.583.583,0,0,0,.137-.6.583.583,0,0,0-.477-.39l-.172-.038a4.866,4.866,0,0,0-.559-.044,5.429,5.429,0,0,1-1.043-.172.652.652,0,0,1-.252-.252l-.235-.069a7.555,7.555,0,0,0-1.211-5.234l.206-.191a.46.46,0,0,1,.109-.33,5.429,5.429,0,0,1,.866-.608,4.863,4.863,0,0,0,.482-.282l.128-.1a.585.585,0,0,0,.273-.562.585.585,0,0,0-.389-.488.585.585,0,0,0-.608.14l-.13.1a4.867,4.867,0,0,0-.381.406,5.446,5.446,0,0,1-.763.719.648.648,0,0,1-.353.038l-.221.158a7.627,7.627,0,0,0-4.834-2.332c0-.076-.011-.217-.013-.259a.46.46,0,0,1-.191-.29,5.442,5.442,0,0,1,.067-1.054,4.852,4.852,0,0,0,.08-.553v-.166a.616.616,0,0,0-.572-.646ZM15.9-9.223l-.172,3.051h-.013a.513.513,0,0,1-.29.44.513.513,0,0,1-.525-.047L12.4-7.552a5.991,5.991,0,0,1,2.885-1.571,6.129,6.129,0,0,1,.618-.1Zm1.457,0a6.041,6.041,0,0,1,3.484,1.68L18.36-5.781a.513.513,0,0,1-.539.063.513.513,0,0,1-.294-.456ZM11.486-6.4l2.288,2.04v.013a.513.513,0,0,1,.162.5.513.513,0,0,1-.365.38v.01l-2.937.845a5.989,5.989,0,0,1,.85-3.791Zm10.264,0a6.1,6.1,0,0,1,.875,3.779l-2.94-.847v-.011a.513.513,0,0,1-.365-.38.513.513,0,0,1,.162-.5L21.752-6.4ZM16.158-4.2h.934l.572.725-.21.908-.839.4-.843-.4-.2-.91Zm3,2.479a.511.511,0,0,1,.118,0L22.3-1.21A6,6,0,0,1,19.88,1.841L18.709-1a.515.515,0,0,1,.037-.473.515.515,0,0,1,.408-.242Zm-5.086.013a.513.513,0,0,1,.422.234.513.513,0,0,1,.041.481v.011L13.37,1.825a6.022,6.022,0,0,1-2.406-3.017l3-.511a.519.519,0,0,1,.1,0ZM16.608-.476a.517.517,0,0,1,.469.269h.011l1.48,2.67a6.134,6.134,0,0,1-.591.166,6.014,6.014,0,0,1-3.282-.17l1.476-2.67a.513.513,0,0,1,.437-.257Z" transform="translate(-0.494 -0.47)" fill="#fff" stroke="#fff" stroke-width="0.054"/>
      <path id="路径_13631" data-name="路径 13631" d="M40.467-2.5l.563-.614q.29-.32.563-.633l.515-.595q.24-.282.414-.492h2.189q-.656.753-1.278,1.436T42.067-1.99a8.494,8.494,0,0,1,.763.8q.395.463.763.953t.679.992q.309.5.519.9H42.673q-.191-.324-.45-.713T41.689.178Q41.4-.2,41.09-.571a5.028,5.028,0,0,0-.624-.606V1.671H38.625v-9.3l1.842-.3V-2.5ZM51.2,1.441a10.232,10.232,0,0,1-1.211.254,9.956,9.956,0,0,1-1.556.118,3.7,3.7,0,0,1-1.379-.223,2.1,2.1,0,0,1-.871-.624,2.431,2.431,0,0,1-.458-.953,5.148,5.148,0,0,1-.135-1.224V-4.835h1.842v3.394a2.634,2.634,0,0,0,.235,1.285.934.934,0,0,0,.877.395q.191,0,.419-.019T49.36.176V-4.838H51.2Zm7.776-3.028a4.109,4.109,0,0,1-.229,1.409A2.977,2.977,0,0,1,58.088.9a2.906,2.906,0,0,1-1.062.686,3.991,3.991,0,0,1-1.434.24q-.334,0-.7-.031t-.717-.08q-.353-.05-.673-.118t-.572-.143V-7.63l1.842-.3v3.242a3.455,3.455,0,0,1,.643-.21,3.3,3.3,0,0,1,.717-.074,2.935,2.935,0,0,1,1.224.24,2.4,2.4,0,0,1,.89.686,3.081,3.081,0,0,1,.543,1.07,4.874,4.874,0,0,1,.187,1.386ZM57.1-1.637q0-1.779-1.31-1.779a2.174,2.174,0,0,0-.563.074,1.6,1.6,0,0,0-.452.191V.192q.133.025.343.044t.458.019a1.323,1.323,0,0,0,1.144-.519A2.256,2.256,0,0,0,57.1-1.637Zm2.988.1a3.972,3.972,0,0,1,.265-1.514,3.242,3.242,0,0,1,.7-1.081,2.9,2.9,0,0,1,1-.646A3.114,3.114,0,0,1,63.2-5a2.87,2.87,0,0,1,2.187.847,3.5,3.5,0,0,1,.8,2.49q0,.16-.011.353t-.025.339H61.978a1.222,1.222,0,0,0,.532.9,2.136,2.136,0,0,0,1.26.334,5.32,5.32,0,0,0,1-.093,3.747,3.747,0,0,0,.8-.229l.248,1.495a2.55,2.55,0,0,1-.395.149,5.191,5.191,0,0,1-.549.13q-.305.057-.648.1a6.5,6.5,0,0,1-.692.036A4.1,4.1,0,0,1,62,1.586,2.971,2.971,0,0,1,60.925.874,2.818,2.818,0,0,1,60.3-.2a4.233,4.233,0,0,1-.21-1.34Zm4.325-.706a1.907,1.907,0,0,0-.08-.458,1.144,1.144,0,0,0-.21-.395,1.121,1.121,0,0,0-.358-.284,1.169,1.169,0,0,0-.538-.111,1.238,1.238,0,0,0-.532.1,1.1,1.1,0,0,0-.37.278,1.245,1.245,0,0,0-.229.4,2.63,2.63,0,0,0-.118.463h2.435Zm7.116-.963q-.248-.061-.572-.13A3.6,3.6,0,0,0,70.24-3.4a3.342,3.342,0,0,0-.414.031,2.441,2.441,0,0,0-.364.069V1.652H67.62V-4.493a11.085,11.085,0,0,1,1.159-.324,6.731,6.731,0,0,1,1.5-.154q.149,0,.358.019t.42.05q.21.031.42.076a1.993,1.993,0,0,1,.358.1Zm1.3-1.407a10.3,10.3,0,0,1,1.211-.254,9.963,9.963,0,0,1,1.558-.118,3.8,3.8,0,0,1,1.382.217,2.073,2.073,0,0,1,.871.612,2.387,2.387,0,0,1,.458.938,5,5,0,0,1,.135,1.211V1.666H76.6V-1.786a2.47,2.47,0,0,0-.235-1.259.958.958,0,0,0-.877-.37q-.191,0-.42.019t-.395.044V1.664H72.829V-4.613ZM79.8-1.538a3.974,3.974,0,0,1,.265-1.514,3.242,3.242,0,0,1,.7-1.081,2.9,2.9,0,0,1,.988-.646A3.116,3.116,0,0,1,82.9-5a2.87,2.87,0,0,1,2.187.847,3.5,3.5,0,0,1,.8,2.49q0,.16-.013.353t-.025.339H81.675a1.222,1.222,0,0,0,.532.9,2.136,2.136,0,0,0,1.26.334,5.322,5.322,0,0,0,1-.093,3.749,3.749,0,0,0,.8-.229l.248,1.495a2.552,2.552,0,0,1-.395.149,5.19,5.19,0,0,1-.549.13q-.305.057-.648.1a6.5,6.5,0,0,1-.692.036A4.1,4.1,0,0,1,81.7,1.586,2.971,2.971,0,0,1,80.623.874,2.818,2.818,0,0,1,80-.2a4.235,4.235,0,0,1-.2-1.335Zm4.325-.706a1.907,1.907,0,0,0-.08-.458,1.144,1.144,0,0,0-.21-.395,1.121,1.121,0,0,0-.358-.284,1.169,1.169,0,0,0-.538-.111,1.236,1.236,0,0,0-.532.1,1.1,1.1,0,0,0-.37.278,1.243,1.243,0,0,0-.229.4,2.621,2.621,0,0,0-.118.463H84.12Zm3.137-4.214,1.842-.3v1.907H91.31v1.525H89.1v2.288a1.819,1.819,0,0,0,.2.927.876.876,0,0,0,.82.343A3.52,3.52,0,0,0,90.735.18a3.146,3.146,0,0,0,.572-.154l.259,1.434a5.213,5.213,0,0,1-.742.235,4.325,4.325,0,0,1-1,.1,3.3,3.3,0,0,1-1.247-.2,1.956,1.956,0,0,1-.791-.572,2.113,2.113,0,0,1-.414-.883,5.211,5.211,0,0,1-.118-1.144V-6.457Zm5.034,4.92a3.974,3.974,0,0,1,.265-1.514,3.242,3.242,0,0,1,.7-1.081,2.9,2.9,0,0,1,1-.646A3.116,3.116,0,0,1,95.4-5a2.87,2.87,0,0,1,2.187.847,3.486,3.486,0,0,1,.8,2.485q0,.16-.013.353t-.025.339H94.178a1.222,1.222,0,0,0,.534.9,2.136,2.136,0,0,0,1.26.334,5.322,5.322,0,0,0,1-.093,3.749,3.749,0,0,0,.8-.229l.248,1.495a2.552,2.552,0,0,1-.395.149,5.19,5.19,0,0,1-.549.13q-.305.057-.648.1a6.5,6.5,0,0,1-.692.036A4.1,4.1,0,0,1,94.2,1.58,2.971,2.971,0,0,1,93.128.869,2.818,2.818,0,0,1,92.491-.2a4.235,4.235,0,0,1-.2-1.335Zm4.328-.706a1.908,1.908,0,0,0-.08-.458,1.144,1.144,0,0,0-.21-.395,1.121,1.121,0,0,0-.358-.284,1.169,1.169,0,0,0-.538-.111,1.236,1.236,0,0,0-.532.1,1.1,1.1,0,0,0-.379.276,1.243,1.243,0,0,0-.229.4,2.622,2.622,0,0,0-.118.463ZM101.678.34a1.836,1.836,0,0,0,.717-.1.381.381,0,0,0,.21-.381.469.469,0,0,0-.273-.381A5.176,5.176,0,0,0,101.5-.9a8.409,8.409,0,0,1-.786-.334,2.305,2.305,0,0,1-.6-.414,1.672,1.672,0,0,1-.381-.572,2.124,2.124,0,0,1-.135-.8,1.737,1.737,0,0,1,.679-1.445A2.942,2.942,0,0,1,102.147-5a6,6,0,0,1,1.144.1,5.309,5.309,0,0,1,.866.229l-.32,1.434a6.781,6.781,0,0,0-.7-.191,3.8,3.8,0,0,0-.847-.086q-.866,0-.866.482a.5.5,0,0,0,.036.191.421.421,0,0,0,.149.166,2.08,2.08,0,0,0,.3.174,5.065,5.065,0,0,0,.488.206,7.558,7.558,0,0,1,1,.442,2.393,2.393,0,0,1,.624.471,1.457,1.457,0,0,1,.32.561,2.488,2.488,0,0,1,.093.715,1.647,1.647,0,0,1-.723,1.455,3.634,3.634,0,0,1-2.044.5,5.877,5.877,0,0,1-1.44-.149,5.817,5.817,0,0,1-.8-.248l.309-1.495a6.02,6.02,0,0,0,.963.29,4.679,4.679,0,0,0,.969.1Z" transform="translate(-4.267 -1.15)"/>
    </g>
  </g>
</svg>
