<svg xmlns="http://www.w3.org/2000/svg" width="133" height="70" viewBox="0 0 133 70">
  <g id="组_4555" data-name="组 4555" transform="translate(-534 -386)">
    <rect id="矩形_3603" data-name="矩形 3603" width="133" height="70" transform="translate(534 386)" fill="#fff"/>
    <g id="kubernetes-ar21_1_" data-name="kubernetes-ar21 (1)" transform="translate(548.843 424.753)">
      <path id="路径_13646" data-name="路径 13646" d="M16.316-17.751a1.908,1.908,0,0,0-.733.195L5.661-12.822a1.883,1.883,0,0,0-1.025,1.276L2.206-.916A1.868,1.868,0,0,0,2.465.533q.051.078.107.15L9.435,9.211a1.9,1.9,0,0,0,1.478.7h11A1.9,1.9,0,0,0,23.4,9.206L30.256.673a1.868,1.868,0,0,0,.366-1.591L28.175-11.559a1.883,1.883,0,0,0-1.025-1.276l-9.914-4.721A1.908,1.908,0,0,0,16.316-17.751Z" transform="translate(0 0)" fill="#326ce5"/>
      <path id="路径_13647" data-name="路径 13647" d="M16.834-13.734a.628.628,0,0,0-.584.659v.167a4.95,4.95,0,0,0,.082.564,5.542,5.542,0,0,1,.058,1.078.648.648,0,0,1-.195.307l-.014.253a7.721,7.721,0,0,0-1.072.165,7.632,7.632,0,0,0-3.879,2.214l-.214-.152a.469.469,0,0,1-.352-.035,5.54,5.54,0,0,1-.8-.722,4.943,4.943,0,0,0-.389-.414l-.132-.105a.706.706,0,0,0-.412-.156.572.572,0,0,0-.473.21.628.628,0,0,0,.146.875l.123.1a4.945,4.945,0,0,0,.492.288,5.538,5.538,0,0,1,.889.615.659.659,0,0,1,.119.342l.195.169a7.676,7.676,0,0,0-1.21,5.354l-.249.072a.823.823,0,0,1-.255.257,5.54,5.54,0,0,1-1.064.175,4.965,4.965,0,0,0-.57.045l-.156.039H6.9a.6.6,0,0,0-.485.4.6.6,0,0,0,.14.611.6.6,0,0,0,.609.147h.012l.161-.019A4.959,4.959,0,0,0,7.87-.43,5.546,5.546,0,0,1,8.9-.734a.656.656,0,0,1,.34.121L9.5-.658a7.721,7.721,0,0,0,3.422,4.28l-.109.228a.584.584,0,0,1,.053.335,5.8,5.8,0,0,1-.537.973,4.97,4.97,0,0,0-.319.475l-.078.16a.6.6,0,1,0,1.072.508l.074-.152a4.951,4.951,0,0,0,.171-.545,4.2,4.2,0,0,1,.459-1.066.48.48,0,0,1,.255-.125l.136-.243a7.678,7.678,0,0,0,5.476.014l.117.228a.469.469,0,0,1,.3.183,5.536,5.536,0,0,1,.407,1,4.962,4.962,0,0,0,.173.545l.074.152a.6.6,0,1,0,1.072-.508l-.078-.16a4.947,4.947,0,0,0-.319-.473,5.544,5.544,0,0,1-.525-.942.465.465,0,0,1,.06-.356,2.038,2.038,0,0,1-.1-.239,7.721,7.721,0,0,0,3.408-4.3l.253.045a.469.469,0,0,1,.333-.123,5.546,5.546,0,0,1,1.035.3,4.959,4.959,0,0,0,.533.206c.043.012.105.019.156.033h.012A.6.6,0,0,0,27.1-.367a.6.6,0,0,0,.14-.611.6.6,0,0,0-.487-.4l-.175-.039a4.965,4.965,0,0,0-.57-.045,5.538,5.538,0,0,1-1.064-.175.665.665,0,0,1-.257-.257l-.239-.07A7.708,7.708,0,0,0,23.215-7.3l.21-.195a.469.469,0,0,1,.111-.337,5.539,5.539,0,0,1,.883-.621,4.962,4.962,0,0,0,.492-.288l.13-.105a.6.6,0,0,0,.278-.573.6.6,0,0,0-.4-.5.6.6,0,0,0-.621.143l-.132.105a4.965,4.965,0,0,0-.389.414A5.556,5.556,0,0,1,23-8.521a.661.661,0,0,1-.36.039l-.226.161A7.781,7.781,0,0,0,17.486-10.7c0-.078-.012-.222-.014-.265a.469.469,0,0,1-.195-.3,5.552,5.552,0,0,1,.068-1.076,4.949,4.949,0,0,0,.082-.564v-.169a.628.628,0,0,0-.584-.659Zm-.743,4.6-.175,3.113H15.9a.523.523,0,0,1-.3.449.523.523,0,0,1-.535-.048L12.519-7.428a6.112,6.112,0,0,1,2.943-1.6,6.253,6.253,0,0,1,.63-.1Zm1.486,0a6.163,6.163,0,0,1,3.554,1.714L18.6-5.62a.523.523,0,0,1-.55.065.523.523,0,0,1-.3-.465ZM11.589-6.254l2.334,2.082v.014a.523.523,0,0,1,.166.511.523.523,0,0,1-.372.388v.01l-3,.862a6.11,6.11,0,0,1,.868-3.867Zm10.472,0A6.225,6.225,0,0,1,22.954-2.4l-3-.864v-.012a.523.523,0,0,1-.372-.388.523.523,0,0,1,.166-.511l2.315-2.074ZM16.355-4.008h.953l.584.739-.214.926-.856.412-.86-.412-.2-.928Zm3.06,2.529a.521.521,0,0,1,.121,0l3.089.521a6.118,6.118,0,0,1-2.473,3.113L18.958-.739A.525.525,0,0,1,19-1.222a.525.525,0,0,1,.416-.247Zm-5.188.014a.523.523,0,0,1,.431.239.523.523,0,0,1,.042.491v.012L13.511,2.14A6.143,6.143,0,0,1,11.056-.938l3.062-.521a.529.529,0,0,1,.1,0ZM16.814-.208a.527.527,0,0,1,.479.274H17.3l1.51,2.724a6.258,6.258,0,0,1-.6.169,6.136,6.136,0,0,1-3.348-.173L16.369.062A.523.523,0,0,1,16.814-.2Z" transform="translate(-0.419 -0.398)" fill="#fff" stroke="#fff" stroke-width="0.054"/>
      <path id="路径_13648" data-name="路径 13648" d="M40.5-2.393l.574-.626q.3-.327.574-.646l.525-.607q.245-.288.422-.5h2.233q-.669.768-1.3,1.465T42.136-1.87a8.664,8.664,0,0,1,.778.815q.4.473.778.973T44.385.93q.315.506.529.922H42.755q-.195-.331-.459-.728T41.751.342q-.292-.389-.611-.765a5.13,5.13,0,0,0-.636-.619V1.865H38.625V-7.622l1.879-.3v5.535ZM51.456,1.63a10.439,10.439,0,0,1-1.235.259,10.157,10.157,0,0,1-1.587.121,3.772,3.772,0,0,1-1.406-.228,2.14,2.14,0,0,1-.889-.636,2.48,2.48,0,0,1-.467-.973,5.253,5.253,0,0,1-.138-1.249v-3.7h1.879v3.463A2.687,2.687,0,0,0,47.852,0a.953.953,0,0,0,.895.4q.195,0,.428-.019t.4-.045V-4.776h1.879ZM59.39-1.459a4.192,4.192,0,0,1-.233,1.438,3.037,3.037,0,0,1-.675,1.1,2.965,2.965,0,0,1-1.084.7,4.072,4.072,0,0,1-1.463.245q-.34,0-.712-.031t-.731-.082q-.36-.051-.687-.121t-.584-.146V-7.624l1.879-.3V-4.62a3.525,3.525,0,0,1,.656-.214,3.367,3.367,0,0,1,.731-.076,2.994,2.994,0,0,1,1.249.245,2.447,2.447,0,0,1,.908.7A3.144,3.144,0,0,1,59.2-2.873a4.973,4.973,0,0,1,.191,1.414ZM57.473-1.51q0-1.815-1.336-1.815a2.218,2.218,0,0,0-.574.076,1.632,1.632,0,0,0-.461.195V.356q.136.025.35.045t.467.019a1.35,1.35,0,0,0,1.167-.529,2.3,2.3,0,0,0,.385-1.4Zm3.048.1a4.052,4.052,0,0,1,.27-1.545,3.307,3.307,0,0,1,.712-1.1,2.961,2.961,0,0,1,1.015-.659A3.177,3.177,0,0,1,63.7-4.943a2.928,2.928,0,0,1,2.231.864,3.566,3.566,0,0,1,.817,2.541q0,.163-.012.36t-.025.346H62.45a1.247,1.247,0,0,0,.543.92,2.179,2.179,0,0,0,1.286.34,5.427,5.427,0,0,0,1.015-.1A3.823,3.823,0,0,0,66.107.1l.253,1.525a2.6,2.6,0,0,1-.4.152,5.3,5.3,0,0,1-.56.132q-.311.058-.661.1a6.629,6.629,0,0,1-.706.037,4.179,4.179,0,0,1-1.556-.265,3.031,3.031,0,0,1-1.1-.726,2.875,2.875,0,0,1-.642-1.091,4.319,4.319,0,0,1-.214-1.368Zm4.412-.72a1.945,1.945,0,0,0-.082-.467,1.167,1.167,0,0,0-.214-.4,1.144,1.144,0,0,0-.366-.29,1.193,1.193,0,0,0-.549-.113,1.263,1.263,0,0,0-.543.107,1.123,1.123,0,0,0-.377.284,1.27,1.27,0,0,0-.233.41,2.683,2.683,0,0,0-.121.473h2.484Zm7.26-.982q-.253-.062-.584-.132a3.671,3.671,0,0,0-.731-.07,3.41,3.41,0,0,0-.422.031,2.491,2.491,0,0,0-.372.07V1.846H68.206v-6.27a11.307,11.307,0,0,1,1.183-.331,6.867,6.867,0,0,1,1.531-.158q.152,0,.366.019t.428.051q.214.031.428.078a2.033,2.033,0,0,1,.366.107Zm1.323-1.436a10.506,10.506,0,0,1,1.235-.259,10.165,10.165,0,0,1,1.589-.121,3.871,3.871,0,0,1,1.41.222,2.115,2.115,0,0,1,.889.624,2.436,2.436,0,0,1,.467.957,5.1,5.1,0,0,1,.138,1.235V1.86H77.365V-1.662a2.52,2.52,0,0,0-.239-1.284.977.977,0,0,0-.895-.377q-.195,0-.428.019t-.4.045V1.858H73.521v-6.4Zm7.11,3.138a4.054,4.054,0,0,1,.27-1.545,3.307,3.307,0,0,1,.712-1.1,2.963,2.963,0,0,1,1.008-.659A3.179,3.179,0,0,1,83.8-4.943a2.928,2.928,0,0,1,2.231.864,3.566,3.566,0,0,1,.817,2.541q0,.163-.014.36t-.025.346h-4.26a1.247,1.247,0,0,0,.543.92,2.179,2.179,0,0,0,1.286.34,5.429,5.429,0,0,0,1.015-.1A3.825,3.825,0,0,0,86.2.1l.253,1.525a2.6,2.6,0,0,1-.4.152,5.3,5.3,0,0,1-.56.132q-.311.058-.661.1a6.629,6.629,0,0,1-.706.037,4.179,4.179,0,0,1-1.556-.265,3.031,3.031,0,0,1-1.1-.726,2.875,2.875,0,0,1-.638-1.1,4.321,4.321,0,0,1-.208-1.362Zm4.412-.72a1.945,1.945,0,0,0-.082-.467,1.167,1.167,0,0,0-.214-.4,1.144,1.144,0,0,0-.366-.29,1.192,1.192,0,0,0-.549-.113,1.261,1.261,0,0,0-.543.107,1.122,1.122,0,0,0-.377.284,1.268,1.268,0,0,0-.233.41,2.673,2.673,0,0,0-.121.473h2.484Zm3.2-4.3,1.879-.3v1.945h2.257v1.556H90.119V-.9a1.856,1.856,0,0,0,.208.945.894.894,0,0,0,.837.35,3.591,3.591,0,0,0,.624-.056,3.21,3.21,0,0,0,.584-.158l.265,1.463a5.318,5.318,0,0,1-.757.239,4.412,4.412,0,0,1-1.021.1,3.362,3.362,0,0,1-1.272-.208,2,2,0,0,1-.807-.584,2.156,2.156,0,0,1-.422-.9A5.317,5.317,0,0,1,88.236-.87V-6.428Zm5.136,5.019a4.054,4.054,0,0,1,.27-1.545,3.307,3.307,0,0,1,.712-1.1,2.963,2.963,0,0,1,1.015-.659,3.179,3.179,0,0,1,1.179-.228,2.928,2.928,0,0,1,2.231.864A3.557,3.557,0,0,1,99.6-1.545q0,.163-.014.36t-.025.346H95.3a1.247,1.247,0,0,0,.545.92,2.179,2.179,0,0,0,1.286.34,5.429,5.429,0,0,0,1.015-.1A3.824,3.824,0,0,0,98.96.093l.253,1.525a2.6,2.6,0,0,1-.4.152,5.3,5.3,0,0,1-.56.132q-.311.058-.661.1a6.629,6.629,0,0,1-.706.037,4.179,4.179,0,0,1-1.556-.265,3.031,3.031,0,0,1-1.1-.726,2.875,2.875,0,0,1-.65-1.091,4.321,4.321,0,0,1-.206-1.362Zm4.416-.72a1.945,1.945,0,0,0-.082-.467A1.167,1.167,0,0,0,97.5-3a1.144,1.144,0,0,0-.366-.29,1.192,1.192,0,0,0-.549-.113,1.261,1.261,0,0,0-.543.107,1.123,1.123,0,0,0-.387.282,1.269,1.269,0,0,0-.233.41,2.675,2.675,0,0,0-.121.473ZM102.952.508a1.874,1.874,0,0,0,.731-.1A.389.389,0,0,0,103.9.017a.479.479,0,0,0-.278-.389,5.281,5.281,0,0,0-.844-.389,8.58,8.58,0,0,1-.8-.34,2.352,2.352,0,0,1-.611-.422,1.706,1.706,0,0,1-.389-.584,2.167,2.167,0,0,1-.138-.819,1.772,1.772,0,0,1,.693-1.475,3,3,0,0,1,1.9-.545,6.116,6.116,0,0,1,1.167.107,5.417,5.417,0,0,1,.883.233l-.327,1.463a6.919,6.919,0,0,0-.712-.195,3.879,3.879,0,0,0-.864-.088q-.883,0-.883.492a.508.508,0,0,0,.037.195.43.43,0,0,0,.152.169,2.122,2.122,0,0,0,.309.177,5.171,5.171,0,0,0,.5.21,7.712,7.712,0,0,1,1.021.451,2.441,2.441,0,0,1,.636.481,1.486,1.486,0,0,1,.327.572,2.538,2.538,0,0,1,.1.73,1.681,1.681,0,0,1-.737,1.484,3.708,3.708,0,0,1-2.085.506,6,6,0,0,1-1.469-.152,5.933,5.933,0,0,1-.813-.253l.315-1.525a6.141,6.141,0,0,0,.982.3,4.774,4.774,0,0,0,.988.1Z" transform="translate(-3.616 -0.974)"/>
    </g>
  </g>
</svg>
