<svg xmlns="http://www.w3.org/2000/svg" width="113" height="70" viewBox="0 0 113 70">
  <g id="组_4554" data-name="组 4554" transform="translate(-391 -386)">
    <rect id="矩形_3602" data-name="矩形 3602" width="113" height="70" transform="translate(391 386)" fill="#fff"/>
    <g id="组_4280" data-name="组 4280" transform="translate(-2710.719 -2434.16)">
      <g id="组_4278" data-name="组 4278" transform="translate(3121.719 2841.16)">
        <path id="路径_13508" data-name="路径 13508" d="M3121.719,2848.159v14l12.124,7,12.124-7v-14l-12.124-7Z" transform="translate(-3121.719 -2841.16)" fill="#e30c34"/>
        <path id="路径_13509" data-name="路径 13509" d="M3162.032,2878.254l-8.052,4.649v4.648l4.027-2.325v9.36l4.025,2.321h0v-14l4.025-2.324Z" transform="translate(-3149.916 -2873.58)" fill="#fff"/>
        <path id="路径_13510" data-name="路径 13510" d="M3250.023,2917.576v9.33l4.042-2.333v-9.333Z" transform="translate(-3233.859 -2905.907)" fill="#fff"/>
      </g>
      <g id="组_4279" data-name="组 4279" transform="translate(3150.009 2848.134)">
        <path id="路径_13511" data-name="路径 13511" d="M3353.421,2910.574h-2.894v-11.652h-4.263v-2.411h11.266v2.411h-4.109Z" transform="translate(-3346.264 -2896.511)" fill="#172d72"/>
        <path id="路径_13512" data-name="路径 13512" d="M3453.7,2898.922H3451v-2.411h2.7Zm0,11.652H3451v-10.417h2.7Z" transform="translate(-3437.802 -2896.511)" fill="#172d72"/>
        <path id="路径_13513" data-name="路径 13513" d="M3495.4,2906.041v-9.53h2.894v9.53c0,1.7.869,2.508,2.682,2.508s2.682-.81,2.682-2.508v-9.53h2.894v9.53c0,3.974-3.2,4.977-5.575,4.977S3495.4,2910.015,3495.4,2906.041Z" transform="translate(-3476.611 -2896.511)" fill="#172d72"/>
        <path id="路径_13514" data-name="路径 13514" d="M3611.3,2910.574H3608.4v-14.063h6.212c2.932,0,4.534,1.543,4.534,4.36,0,2.855-1.659,4.688-4.244,4.688H3611.3Zm2.7-7.427c1.543,0,2.257-.675,2.257-2.1,0-1.447-.714-2.122-2.257-2.122h-2.7v4.225Z" transform="translate(-3575.375 -2896.511)" fill="#172d72"/>
      </g>
    </g>
  </g>
</svg>
