<svg xmlns="http://www.w3.org/2000/svg" width="112" height="70" viewBox="0 0 112 70">
  <g id="组_4521" data-name="组 4521" transform="translate(-393 -375)">
    <g id="组_4518" data-name="组 4518" transform="translate(2)">
      <rect id="矩形_3602" data-name="矩形 3602" width="112" height="70" transform="translate(391 375)" fill="#f7f8f9"/>
      <g id="组_4280" data-name="组 4280" transform="translate(413.719 397.135)">
        <g id="组_4278" data-name="组 4278">
          <path id="路径_13508" data-name="路径 13508" d="M3121.719,2847.592v12.865l11.042,6.432,11.042-6.432v-12.865l-11.042-6.432Z" transform="translate(-3121.719 -2841.16)" fill="#e30c34"/>
          <path id="路径_13509" data-name="路径 13509" d="M3161.314,2878.254l-7.334,4.272v4.271l3.668-2.137v8.6l3.666,2.132h0v-12.869l3.666-2.135Z" transform="translate(-3150.278 -2873.959)" fill="#fff"/>
          <path id="路径_13510" data-name="路径 13510" d="M3250.023,2917.386v8.574l3.681-2.144v-8.575Z" transform="translate(-3235.301 -2906.664)" fill="#fff"/>
        </g>
        <g id="组_4279" data-name="组 4279" transform="translate(25.766 6.408)">
          <path id="路径_13511" data-name="路径 13511" d="M3352.783,2909.434h-2.636v-10.707h-3.883v-2.216h10.261v2.216h-3.742Z" transform="translate(-3346.264 -2896.511)" fill="#172d72"/>
          <path id="路径_13512" data-name="路径 13512" d="M3453.457,2898.727H3451v-2.216h2.46Zm0,10.707H3451v-9.573h2.46Z" transform="translate(-3438.979 -2896.511)" fill="#172d72"/>
          <path id="路径_13513" data-name="路径 13513" d="M3495.4,2905.268v-8.757h2.635v8.757c0,1.56.791,2.3,2.442,2.3s2.442-.744,2.442-2.3v-8.757h2.635v8.757c0,3.652-2.917,4.574-5.078,4.574S3495.4,2908.92,3495.4,2905.268Z" transform="translate(-3478.288 -2896.511)" fill="#172d72"/>
          <path id="路径_13514" data-name="路径 13514" d="M3611.038,2909.434H3608.4v-12.923h5.658c2.671,0,4.129,1.418,4.129,4.006,0,2.624-1.511,4.308-3.865,4.308h-3.286Zm2.46-6.824c1.406,0,2.056-.621,2.056-1.933,0-1.329-.65-1.95-2.056-1.95h-2.46v3.883Z" transform="translate(-3578.322 -2896.511)" fill="#172d72"/>
        </g>
      </g>
    </g>
  </g>
</svg>
