<svg id="undraw_Filing_system_re_56h6" xmlns="http://www.w3.org/2000/svg" width="365.136" height="224.758" viewBox="0 0 365.136 224.758">
  <path id="Path_133" data-name="Path 133" d="M170.6,619.129a60.751,60.751,0,0,0,2.838,16.794c.038.126.081.25.122.377h10.591c-.011-.113-.023-.239-.034-.377-.706-8.118,3.328-56.939,8.2-65.388C191.885,571.22,169.776,593.334,170.6,619.129Z" transform="translate(-152.712 -411.925)" fill="#6c63ff"/>
  <path id="Path_134" data-name="Path 134" d="M159.381,683.418c.089.126.181.252.275.377H167.6c-.06-.107-.13-.234-.211-.377-1.312-2.369-5.2-9.451-8.8-16.794-3.874-7.89-7.431-16.08-7.131-19.044C151.363,648.249,148.682,668.628,159.381,683.418Z" transform="translate(-140.701 -459.421)" fill="#6c63ff"/>
  <path id="路径_29" data-name="路径 29" d="M774.616,265.233a5.532,5.532,0,0,0,8.07,2.611l15.334,12.3.949-10.171-14.707-10.121a5.562,5.562,0,0,0-9.647,5.381Z" transform="translate(-524.816 -218.986)" fill="#9f616a"/>
  <path id="路径_30" data-name="路径 30" d="M693.573,123.947l-5.723-4.044-6.492,7.5,7.551,4.475Z" transform="translate(-420.026 -73.915)" fill="#6c63ff"/>
  <path id="路径_31" data-name="路径 31" d="M818.08,270.2l19.287,7.421,18.567-12.158a9.443,9.443,0,0,1,12.2,14.214l-.166.184-28.557,15.31-31.192-14.25Z" transform="translate(-545.787 -222.913)" fill="#3f3d56"/>
  <path id="路径_32" data-name="路径 32" d="M372.738,354.3H171.76L179.047,212H210.5l29,20.328H380.025Z" transform="translate(-105.882 -130.688)" fill="#e5e5e5"/>
  <path id="路径_33" data-name="路径 33" d="M503.138,339.425,386.975,291.586a1.659,1.659,0,0,1-.9-2.164l52.635-127.809a1.659,1.659,0,0,1,2.164-.9l116.163,47.839a1.659,1.659,0,0,1,.9,2.164L505.3,338.524a1.659,1.659,0,0,1-2.164.9Z" transform="translate(-285.48 -159.211)" fill="#fff"/>
  <path id="路径_34" data-name="路径 34" d="M503.138,339.425,386.975,291.586a1.659,1.659,0,0,1-.9-2.164l52.635-127.809a1.659,1.659,0,0,1,2.164-.9l116.163,47.839a1.659,1.659,0,0,1,.9,2.164L505.3,338.524a1.659,1.659,0,0,1-2.164.9Zm-62.517-178.1a1,1,0,0,0-1.3.541L386.687,289.675a1,1,0,0,0,.541,1.3L503.39,338.812a1,1,0,0,0,1.3-.541l52.635-127.809a1,1,0,0,0-.541-1.3Z" transform="translate(-285.48 -159.211)" fill="#3f3d56"/>
  <path id="路径_35" data-name="路径 35" d="M566.076,255.364,537.265,243.5a1.659,1.659,0,0,1-.9-2.164l11.865-28.811a1.659,1.659,0,0,1,2.164-.9L579.2,223.488a1.659,1.659,0,0,1,.9,2.164l-11.865,28.811A1.659,1.659,0,0,1,566.076,255.364ZM550.14,212.236a1,1,0,0,0-1.3.541l-11.865,28.811a1,1,0,0,0,.541,1.3l28.811,11.865a1,1,0,0,0,1.3-.541L579.492,225.4a1,1,0,0,0-.541-1.3Z" transform="translate(-378.126 -190.596)" fill="#f2f2f2"/>
  <path id="路径_36" data-name="路径 36" d="M540.88,256.18l-28.811-11.865a1.493,1.493,0,0,1-.811-1.947l11.865-28.811a1.493,1.493,0,0,1,1.947-.811l28.811,11.865a1.493,1.493,0,0,1,.811,1.947l-11.865,28.811A1.493,1.493,0,0,1,540.88,256.18Z" transform="translate(-362.658 -191.296)" fill="#6c63ff"/>
  <path id="路径_37" data-name="路径 37" d="M587.04,364.49l-90.11-37.11a1.492,1.492,0,0,1,1.136-2.758l90.11,37.11a1.492,1.492,0,0,1-1.136,2.758Z" transform="translate(-353.325 -260.262)" fill="#ccc"/>
  <path id="路径_38" data-name="路径 38" d="M555.077,380.3l-68.349-28.148a1.492,1.492,0,1,1,1.136-2.758l68.349,28.148a1.492,1.492,0,1,1-1.136,2.758Z" transform="translate(-347.036 -275.533)" fill="#ccc"/>
  <path id="路径_39" data-name="路径 39" d="M704.548,306.333,664.7,289.924a1.492,1.492,0,0,1,1.136-2.758l39.845,16.409a1.492,1.492,0,0,1-1.136,2.758Z" transform="translate(-456.749 -237.171)" fill="#ccc"/>
  <path id="路径_40" data-name="路径 40" d="M684.4,327.01,654.5,314.7a1.492,1.492,0,0,1,1.136-2.758l29.9,12.314a1.492,1.492,0,1,1-1.136,2.758Z" transform="translate(-450.46 -252.443)" fill="#ccc"/>
  <path id="路径_41" data-name="路径 41" d="M566.636,414.035l-90.11-37.11a1.492,1.492,0,1,1,1.136-2.758l90.11,37.11a1.492,1.492,0,0,1-1.136,2.758Z" transform="translate(-340.746 -290.804)" fill="#ccc"/>
  <path id="路径_42" data-name="路径 42" d="M534.673,429.846,466.324,401.7a1.492,1.492,0,0,1,1.136-2.758l68.349,28.148a1.492,1.492,0,1,1-1.136,2.758Z" transform="translate(-334.457 -306.075)" fill="#ccc"/>
  <path id="路径_43" data-name="路径 43" d="M546.232,463.58l-90.11-37.11a1.492,1.492,0,1,1,1.136-2.758l90.11,37.11a1.492,1.492,0,1,1-1.136,2.758Z" transform="translate(-328.168 -321.346)" fill="#ccc"/>
  <path id="路径_44" data-name="路径 44" d="M536.03,488.353l-90.11-37.11a1.492,1.492,0,1,1,1.136-2.758l90.11,37.11a1.492,1.492,0,0,1-1.136,2.759Z" transform="translate(-321.879 -336.617)" fill="#ccc"/>
  <path id="路径_45" data-name="路径 45" d="M566.764,537.361a32.49,32.49,0,0,0,5.406-.165,11.685,11.685,0,0,0,4.715-1.3,4.481,4.481,0,0,0,2.233-3.389,3.154,3.154,0,0,0-1.908-3.2,3.762,3.762,0,0,0-3.817.535,4.97,4.97,0,0,0-1.707,3.97c.074,3.07,2.5,6.1,5.2,7.379,3.038,1.438,7.187.216,7.965-3.326.162-.737-.842-.993-1.261-.519a3.345,3.345,0,0,0,4.669,4.775l-1.129-.465a8.051,8.051,0,0,0,5.537,5.849,7.467,7.467,0,0,0,2.06.314,8.8,8.8,0,0,1,2.531.693l5.847,1.9c.86.28,1.406-1.025.539-1.308l-5.3-1.725c-.882-.287-1.763-.583-2.648-.863a15.69,15.69,0,0,0-1.985-.209,6.631,6.631,0,0,1-5.185-4.85A.716.716,0,0,0,587.4,541a1.936,1.936,0,1,1-2.693-2.782l-1.261-.519c-.5,2.285-3.289,3.143-5.3,2.482a8.027,8.027,0,0,1-4.848-5.141,4.147,4.147,0,0,1,.3-3.3,2.471,2.471,0,0,1,2.589-1.268,1.773,1.773,0,0,1,1.515,1.945,3.172,3.172,0,0,1-1.766,2.4,11.464,11.464,0,0,1-4.183,1,30.222,30.222,0,0,1-4.823.137c-.9-.045-1.084,1.358-.172,1.4Z" transform="translate(-396.573 -386.331)" fill="#6c63ff"/>
  <path id="路径_46" data-name="路径 46" d="M372.738,257.328V369.707H171.76V237h31.451l29,20.328Z" transform="translate(-105.882 -146.1)" fill="#fff"/>
  <rect id="矩形_3627" data-name="矩形 3627" width="82.079" height="6.52" transform="translate(78.151 202.512)" fill="#6c63ff"/>
  <rect id="矩形_3628" data-name="矩形 3628" width="41.039" height="6.52" transform="translate(78.151 189.855)" fill="#6c63ff"/>
  <path id="路径_47" data-name="路径 47" d="M496.5,526.474H294.76V393h31.955l29,20.328H496.5Zm-200.978-.767H495.738V414.1H355.475l-29-20.328H295.527Z" transform="translate(-229.266 -302.483)" fill="#3f3d56"/>
  <path id="路径_48" data-name="路径 48" d="M877.946,506.477l-6.8,2.43-12.611-25.074,10.037-3.587Z" transform="translate(-529.248 -296.05)" fill="#9f616a"/>
  <path id="路径_49" data-name="路径 49" d="M985.63,714.879l-.1-.277a9.074,9.074,0,0,1,5.485-11.585l13.393-4.786,3.15,8.813Z" transform="translate(-654.769 -490.644)" fill="#2f2e41"/>
  <path id="路径_50" data-name="路径 50" d="M776.719,521.4H769.5l-3.435-27.855H776.72Z" transform="translate(-472.242 -304.249)" fill="#9f616a"/>
  <path id="路径_51" data-name="路径 51" d="M885.223,726.382H861.937v-.294A9.064,9.064,0,0,1,871,717.024h14.223Z" transform="translate(-578.905 -502.229)" fill="#2f2e41"/>
  <path id="路径_52" data-name="路径 52" d="M935.2,249.212l-3.141-6.206s-11.7,2.931-12.764,9.712Z" transform="translate(-614.261 -210.019)" fill="#6c63ff"/>
  <path id="路径_53" data-name="路径 53" d="M798.353,285.3l-8.541,47.663,22.679,40.107-13.548,5.3L775.969,339.5l-2.945-10.6-1.767,55.371-12.219-.371-5.6-51.7,8.985-48.065Z" transform="translate(-464.458 -175.151)" fill="#2f2e41"/>
  <path id="路径_54" data-name="路径 54" d="M925.563,302.659l-.3-27.95c0-11.845-7.8-20.576-8.877-21.384a5.1,5.1,0,0,0-2.711-3.331c-2.6-1.178-5.777.236-5.911.3l-9.535,3.575-.045.131c-.1.3-9.722,31.868-12.137,39.791-.344,1.137-.542,1.787-.542,1.787s.037,1.832.1,4.681c.213,9.8.718,31.618.92,32.534,0,0,17.611,2.67,24.584,2.67a78.58,78.58,0,0,0,20.692-2.442l.288-.06Z" transform="translate(-593.436 -214.039)" fill="#3f3d56"/>
  <circle id="椭圆_10" data-name="椭圆 10" cx="12.89" cy="12.89" r="12.89" transform="translate(290.548 13.014) rotate(-28.663)" fill="#9f616a"/>
  <path id="路径_55" data-name="路径 55" d="M902.9,367.885l-17.29,3.515c-.067-2.849-.1-4.681-.1-4.681s.2-.651.542-1.787Z" transform="translate(-593.436 -285.18)" opacity="0.2"/>
  <path id="路径_56" data-name="路径 56" d="M794.2,347.263a5.532,5.532,0,0,0,8.367-1.392l19.273,3.872-3.834-9.468L800.3,338.049a5.562,5.562,0,0,0-6.092,9.214Z" transform="translate(-535.937 -268.243)" fill="#9f616a"/>
  <path id="路径_57" data-name="路径 57" d="M718.008,184.779l-6.942-.959-2.315,9.645,8.763.5Z" transform="translate(-436.913 -113.317)" fill="#6c63ff"/>
  <path id="路径_58" data-name="路径 58" d="M844.542,296.01l20.54-2.279,10.9-19.334a9.443,9.443,0,0,1,17.365,7.015l-.063.24-18.318,26.727-34.252,1.689Z" transform="translate(-565.82 -226.406)" fill="#3f3d56"/>
  <path id="路径_59" data-name="路径 59" d="M915.2,186.335l-10.7.384c-.652.023-2.422-7.015-2.654-8.475a3.985,3.985,0,0,0-4.157-3.224c-.8.076-2.82-1.421-4.9-3.192a7.859,7.859,0,0,1,.6-12.523q.178-.117.35-.213A19.039,19.039,0,0,1,902.823,157a17,17,0,0,1,8.286,1.671c4.5,2.417,6.892,7.7,7.1,12.8s-1.425,10.091-3.281,14.848" transform="translate(-596.182 -157)" fill="#2f2e41"/>
  <path id="路径_60" data-name="路径 60" d="M488.752,741.767H124.384a.384.384,0,0,1,0-.767H488.752a.384.384,0,1,1,0,.767Z" transform="translate(-124 -517.009)" fill="#cbcbcb"/>
</svg>
