<svg xmlns="http://www.w3.org/2000/svg" width="34" height="30.222" viewBox="0 0 34 30.222">
  <path id="Icon_awesome-bullhorn" data-name="Icon awesome-bullhorn" d="M34,14.167a3.761,3.761,0,0,0-1.889-3.254V1.889A1.908,1.908,0,0,0,30.222,0a1.884,1.884,0,0,0-1.179.414L24.024,4.43a14.327,14.327,0,0,1-8.913,3.126H3.778A3.777,3.777,0,0,0,0,11.333V17a3.777,3.777,0,0,0,3.778,3.778H5.767a14.344,14.344,0,0,0-.129,1.889,14.953,14.953,0,0,0,1.509,6.549,1.852,1.852,0,0,0,1.676,1.007h4.385a1.877,1.877,0,0,0,1.529-2.984,7.517,7.517,0,0,1-1.544-4.571,7.143,7.143,0,0,1,.26-1.889h1.657A14.324,14.324,0,0,1,24.023,23.9l5.019,4.016a1.888,1.888,0,0,0,3.068-1.475V17.421A3.762,3.762,0,0,0,34,14.167Zm-5.667,8.348-1.951-1.561A18.11,18.11,0,0,0,15.111,17V11.333A18.11,18.11,0,0,0,26.382,7.38l1.951-1.561Z" fill="#6e77a3"/>
</svg>
