<svg xmlns="http://www.w3.org/2000/svg" width="514.583" height="487.038" viewBox="0 0 514.583 487.038">
  <g id="Group_2474" data-name="Group 2474" transform="translate(-142.999 -6892)">
    <circle id="Ellipse_510" data-name="Ellipse 510" cx="6.813" cy="6.813" r="6.813" transform="translate(315.445 6892)" fill="#e6e6e6"/>
    <circle id="Ellipse_511" data-name="Ellipse 511" cx="6.813" cy="6.813" r="6.813" transform="translate(349.934 6892)" fill="#e6e6e6"/>
    <circle id="Ellipse_512" data-name="Ellipse 512" cx="6.813" cy="6.813" r="6.813" transform="translate(384.423 6892)" fill="#e6e6e6"/>
    <circle id="Ellipse_513" data-name="Ellipse 513" cx="6.813" cy="6.813" r="6.813" transform="translate(418.912 6892)" fill="#e6e6e6"/>
    <circle id="Ellipse_514" data-name="Ellipse 514" cx="6.813" cy="6.813" r="6.813" transform="translate(453.401 6892)" fill="#e6e6e6"/>
    <circle id="Ellipse_520" data-name="Ellipse 520" cx="6.813" cy="6.813" r="6.813" transform="translate(315.445 6926.922)" fill="#e6e6e6"/>
    <circle id="Ellipse_521" data-name="Ellipse 521" cx="6.813" cy="6.813" r="6.813" transform="translate(349.934 6926.922)" fill="#e6e6e6"/>
    <circle id="Ellipse_522" data-name="Ellipse 522" cx="6.813" cy="6.813" r="6.813" transform="translate(384.423 6926.922)" fill="#e6e6e6"/>
    <circle id="Ellipse_523" data-name="Ellipse 523" cx="6.813" cy="6.813" r="6.813" transform="translate(418.912 6926.922)" fill="#e6e6e6"/>
    <circle id="Ellipse_524" data-name="Ellipse 524" cx="6.813" cy="6.813" r="6.813" transform="translate(453.401 6926.922)" fill="#e6e6e6"/>
    <circle id="Ellipse_530" data-name="Ellipse 530" cx="6.813" cy="6.813" r="6.813" transform="translate(315.445 6961.844)" fill="#e6e6e6"/>
    <circle id="Ellipse_531" data-name="Ellipse 531" cx="6.813" cy="6.813" r="6.813" transform="translate(349.934 6961.844)" fill="#e6e6e6"/>
    <circle id="Ellipse_532" data-name="Ellipse 532" cx="6.813" cy="6.813" r="6.813" transform="translate(384.423 6961.844)" fill="#e6e6e6"/>
    <circle id="Ellipse_533" data-name="Ellipse 533" cx="6.813" cy="6.813" r="6.813" transform="translate(418.912 6961.844)" fill="#e6e6e6"/>
    <circle id="Ellipse_534" data-name="Ellipse 534" cx="6.813" cy="6.813" r="6.813" transform="translate(453.401 6961.844)" fill="#e6e6e6"/>
    <circle id="Ellipse_540" data-name="Ellipse 540" cx="6.813" cy="6.813" r="6.813" transform="translate(315.445 6996.766)" fill="#e6e6e6"/>
    <circle id="Ellipse_541" data-name="Ellipse 541" cx="6.813" cy="6.813" r="6.813" transform="translate(349.934 6996.766)" fill="#e6e6e6"/>
    <circle id="Ellipse_542" data-name="Ellipse 542" cx="6.813" cy="6.813" r="6.813" transform="translate(384.423 6996.766)" fill="#e6e6e6"/>
    <circle id="Ellipse_543" data-name="Ellipse 543" cx="6.813" cy="6.813" r="6.813" transform="translate(418.912 6996.766)" fill="#e6e6e6"/>
    <circle id="Ellipse_544" data-name="Ellipse 544" cx="6.813" cy="6.813" r="6.813" transform="translate(453.401 6996.766)" fill="#e6e6e6"/>
    <g id="Group_2470" data-name="Group 2470">
      <circle id="Ellipse_509" data-name="Ellipse 509" cx="6.813" cy="6.813" r="6.813" transform="translate(280.955 6892)" fill="#e6e6e6"/>
      <circle id="Ellipse_519" data-name="Ellipse 519" cx="6.813" cy="6.813" r="6.813" transform="translate(280.955 6926.922)" fill="#e6e6e6"/>
      <circle id="Ellipse_529" data-name="Ellipse 529" cx="6.813" cy="6.813" r="6.813" transform="translate(280.955 6961.844)" fill="#e6e6e6"/>
      <g id="Group_2468" data-name="Group 2468">
        <circle id="Ellipse_505" data-name="Ellipse 505" cx="6.813" cy="6.813" r="6.813" transform="translate(142.999 6892)" fill="#e6e6e6"/>
        <circle id="Ellipse_506" data-name="Ellipse 506" cx="6.813" cy="6.813" r="6.813" transform="translate(177.488 6892)" fill="#e6e6e6"/>
        <circle id="Ellipse_507" data-name="Ellipse 507" cx="6.813" cy="6.813" r="6.813" transform="translate(211.977 6892)" fill="#e6e6e6"/>
        <circle id="Ellipse_508" data-name="Ellipse 508" cx="6.813" cy="6.813" r="6.813" transform="translate(246.466 6892)" fill="#e6e6e6"/>
        <circle id="Ellipse_515" data-name="Ellipse 515" cx="6.813" cy="6.813" r="6.813" transform="translate(142.999 6926.922)" fill="#e6e6e6"/>
        <circle id="Ellipse_516" data-name="Ellipse 516" cx="6.813" cy="6.813" r="6.813" transform="translate(177.488 6926.922)" fill="#e6e6e6"/>
        <circle id="Ellipse_517" data-name="Ellipse 517" cx="6.813" cy="6.813" r="6.813" transform="translate(211.977 6926.922)" fill="#e6e6e6"/>
        <circle id="Ellipse_518" data-name="Ellipse 518" cx="6.813" cy="6.813" r="6.813" transform="translate(246.466 6926.922)" fill="#6c63ff"/>
        <circle id="Ellipse_525" data-name="Ellipse 525" cx="6.813" cy="6.813" r="6.813" transform="translate(142.999 6961.844)" fill="#e6e6e6"/>
        <circle id="Ellipse_526" data-name="Ellipse 526" cx="6.813" cy="6.813" r="6.813" transform="translate(177.488 6961.844)" fill="#e6e6e6"/>
        <circle id="Ellipse_527" data-name="Ellipse 527" cx="6.813" cy="6.813" r="6.813" transform="translate(211.977 6961.844)" fill="#e6e6e6"/>
        <circle id="Ellipse_528" data-name="Ellipse 528" cx="6.813" cy="6.813" r="6.813" transform="translate(246.466 6961.844)" fill="#e6e6e6"/>
        <circle id="Ellipse_535" data-name="Ellipse 535" cx="6.813" cy="6.813" r="6.813" transform="translate(142.999 6996.766)" fill="#e6e6e6"/>
        <circle id="Ellipse_536" data-name="Ellipse 536" cx="6.813" cy="6.813" r="6.813" transform="translate(177.488 6996.766)" fill="#e6e6e6"/>
        <circle id="Ellipse_537" data-name="Ellipse 537" cx="6.813" cy="6.813" r="6.813" transform="translate(211.977 6996.766)" fill="#e6e6e6"/>
        <circle id="Ellipse_538" data-name="Ellipse 538" cx="6.813" cy="6.813" r="6.813" transform="translate(246.466 6996.766)" fill="#e6e6e6"/>
      </g>
      <circle id="Ellipse_539" data-name="Ellipse 539" cx="6.813" cy="6.813" r="6.813" transform="translate(280.955 6996.766)" fill="#e6e6e6"/>
      <circle id="Ellipse_545" data-name="Ellipse 545" cx="6.813" cy="6.813" r="6.813" transform="translate(142.999 7031.688)" fill="#e6e6e6"/>
      <circle id="Ellipse_546" data-name="Ellipse 546" cx="6.813" cy="6.813" r="6.813" transform="translate(177.488 7031.688)" fill="#6c63ff"/>
      <circle id="Ellipse_547" data-name="Ellipse 547" cx="6.813" cy="6.813" r="6.813" transform="translate(211.977 7031.688)" fill="#e6e6e6"/>
      <circle id="Ellipse_548" data-name="Ellipse 548" cx="6.813" cy="6.813" r="6.813" transform="translate(246.466 7031.688)" fill="#e6e6e6"/>
      <circle id="Ellipse_549" data-name="Ellipse 549" cx="6.813" cy="6.813" r="6.813" transform="translate(280.955 7031.688)" fill="#e6e6e6"/>
    </g>
    <circle id="Ellipse_550" data-name="Ellipse 550" cx="6.813" cy="6.813" r="6.813" transform="translate(315.445 7031.688)" fill="#e6e6e6"/>
    <circle id="Ellipse_551" data-name="Ellipse 551" cx="6.813" cy="6.813" r="6.813" transform="translate(349.934 7031.688)" fill="#e6e6e6"/>
    <circle id="Ellipse_552" data-name="Ellipse 552" cx="6.813" cy="6.813" r="6.813" transform="translate(384.423 7031.688)" fill="#e6e6e6"/>
    <circle id="Ellipse_553" data-name="Ellipse 553" cx="6.813" cy="6.813" r="6.813" transform="translate(418.912 7031.688)" fill="#e6e6e6"/>
    <circle id="Ellipse_554" data-name="Ellipse 554" cx="6.813" cy="6.813" r="6.813" transform="translate(453.401 7031.688)" fill="#e6e6e6"/>
    <circle id="Ellipse_555" data-name="Ellipse 555" cx="6.813" cy="6.813" r="6.813" transform="translate(142.999 7066.61)" fill="#e6e6e6"/>
    <circle id="Ellipse_556" data-name="Ellipse 556" cx="6.813" cy="6.813" r="6.813" transform="translate(177.488 7066.61)" fill="#e6e6e6"/>
    <circle id="Ellipse_557" data-name="Ellipse 557" cx="6.813" cy="6.813" r="6.813" transform="translate(211.977 7066.61)" fill="#e6e6e6"/>
    <circle id="Ellipse_558" data-name="Ellipse 558" cx="6.813" cy="6.813" r="6.813" transform="translate(246.466 7066.61)" fill="#e6e6e6"/>
    <circle id="Ellipse_559" data-name="Ellipse 559" cx="6.813" cy="6.813" r="6.813" transform="translate(280.955 7066.61)" fill="#e6e6e6"/>
    <circle id="Ellipse_560" data-name="Ellipse 560" cx="6.813" cy="6.813" r="6.813" transform="translate(315.445 7066.61)" fill="#e6e6e6"/>
    <circle id="Ellipse_561" data-name="Ellipse 561" cx="6.813" cy="6.813" r="6.813" transform="translate(349.934 7066.61)" fill="#e6e6e6"/>
    <circle id="Ellipse_562" data-name="Ellipse 562" cx="6.813" cy="6.813" r="6.813" transform="translate(384.423 7066.61)" fill="#e6e6e6"/>
    <circle id="Ellipse_563" data-name="Ellipse 563" cx="6.813" cy="6.813" r="6.813" transform="translate(418.912 7066.61)" fill="#e6e6e6"/>
    <circle id="Ellipse_564" data-name="Ellipse 564" cx="6.813" cy="6.813" r="6.813" transform="translate(453.401 7066.61)" fill="#e6e6e6"/>
    <circle id="Ellipse_565" data-name="Ellipse 565" cx="6.813" cy="6.813" r="6.813" transform="translate(142.999 7101.532)" fill="#e6e6e6"/>
    <circle id="Ellipse_566" data-name="Ellipse 566" cx="6.813" cy="6.813" r="6.813" transform="translate(177.488 7101.532)" fill="#e6e6e6"/>
    <circle id="Ellipse_567" data-name="Ellipse 567" cx="6.813" cy="6.813" r="6.813" transform="translate(211.977 7101.532)" fill="#6c63ff"/>
    <circle id="Ellipse_568" data-name="Ellipse 568" cx="6.813" cy="6.813" r="6.813" transform="translate(246.466 7101.532)" fill="#e6e6e6"/>
    <circle id="Ellipse_569" data-name="Ellipse 569" cx="6.813" cy="6.813" r="6.813" transform="translate(280.955 7101.532)" fill="#e6e6e6"/>
    <circle id="Ellipse_570" data-name="Ellipse 570" cx="6.813" cy="6.813" r="6.813" transform="translate(315.445 7101.532)" fill="#e6e6e6"/>
    <circle id="Ellipse_571" data-name="Ellipse 571" cx="6.813" cy="6.813" r="6.813" transform="translate(349.934 7101.532)" fill="#e6e6e6"/>
    <circle id="Ellipse_572" data-name="Ellipse 572" cx="6.813" cy="6.813" r="6.813" transform="translate(384.423 7101.532)" fill="#e6e6e6"/>
    <circle id="Ellipse_573" data-name="Ellipse 573" cx="6.813" cy="6.813" r="6.813" transform="translate(418.912 7101.532)" fill="#e6e6e6"/>
    <circle id="Ellipse_574" data-name="Ellipse 574" cx="6.813" cy="6.813" r="6.813" transform="translate(453.401 7101.532)" fill="#e6e6e6"/>
    <circle id="Ellipse_575" data-name="Ellipse 575" cx="6.813" cy="6.813" r="6.813" transform="translate(142.999 7136.454)" fill="#e6e6e6"/>
    <circle id="Ellipse_576" data-name="Ellipse 576" cx="6.813" cy="6.813" r="6.813" transform="translate(177.488 7136.454)" fill="#e6e6e6"/>
    <circle id="Ellipse_577" data-name="Ellipse 577" cx="6.813" cy="6.813" r="6.813" transform="translate(211.977 7136.454)" fill="#e6e6e6"/>
    <circle id="Ellipse_578" data-name="Ellipse 578" cx="6.813" cy="6.813" r="6.813" transform="translate(246.466 7136.454)" fill="#e6e6e6"/>
    <circle id="Ellipse_579" data-name="Ellipse 579" cx="6.813" cy="6.813" r="6.813" transform="translate(280.955 7136.454)" fill="#e6e6e6"/>
    <circle id="Ellipse_580" data-name="Ellipse 580" cx="6.813" cy="6.813" r="6.813" transform="translate(315.445 7136.454)" fill="#e6e6e6"/>
    <circle id="Ellipse_581" data-name="Ellipse 581" cx="6.813" cy="6.813" r="6.813" transform="translate(349.934 7136.454)" fill="#e6e6e6"/>
    <circle id="Ellipse_582" data-name="Ellipse 582" cx="6.813" cy="6.813" r="6.813" transform="translate(384.423 7136.454)" fill="#e6e6e6"/>
    <circle id="Ellipse_583" data-name="Ellipse 583" cx="6.813" cy="6.813" r="6.813" transform="translate(418.912 7136.454)" fill="#e6e6e6"/>
    <circle id="Ellipse_584" data-name="Ellipse 584" cx="6.813" cy="6.813" r="6.813" transform="translate(453.401 7136.454)" fill="#e6e6e6"/>
    <circle id="Ellipse_585" data-name="Ellipse 585" cx="6.813" cy="6.813" r="6.813" transform="translate(142.999 7171.376)" fill="#e6e6e6"/>
    <circle id="Ellipse_586" data-name="Ellipse 586" cx="6.813" cy="6.813" r="6.813" transform="translate(177.488 7171.376)" fill="#e6e6e6"/>
    <circle id="Ellipse_587" data-name="Ellipse 587" cx="6.813" cy="6.813" r="6.813" transform="translate(211.977 7171.376)" fill="#e6e6e6"/>
    <circle id="Ellipse_588" data-name="Ellipse 588" cx="6.813" cy="6.813" r="6.813" transform="translate(246.466 7171.376)" fill="#e6e6e6"/>
    <circle id="Ellipse_589" data-name="Ellipse 589" cx="6.813" cy="6.813" r="6.813" transform="translate(280.955 7171.376)" fill="#e6e6e6"/>
    <circle id="Ellipse_590" data-name="Ellipse 590" cx="6.813" cy="6.813" r="6.813" transform="translate(315.445 7171.376)" fill="#e6e6e6"/>
    <circle id="Ellipse_591" data-name="Ellipse 591" cx="6.813" cy="6.813" r="6.813" transform="translate(349.934 7171.376)" fill="#e6e6e6"/>
    <circle id="Ellipse_592" data-name="Ellipse 592" cx="6.813" cy="6.813" r="6.813" transform="translate(384.423 7171.376)" fill="#e6e6e6"/>
    <circle id="Ellipse_593" data-name="Ellipse 593" cx="6.813" cy="6.813" r="6.813" transform="translate(418.912 7171.376)" fill="#e6e6e6"/>
    <circle id="Ellipse_594" data-name="Ellipse 594" cx="6.813" cy="6.813" r="6.813" transform="translate(453.401 7171.376)" fill="#e6e6e6"/>
    <circle id="Ellipse_595" data-name="Ellipse 595" cx="6.813" cy="6.813" r="6.813" transform="translate(142.999 7206.298)" fill="#e6e6e6"/>
    <circle id="Ellipse_596" data-name="Ellipse 596" cx="6.813" cy="6.813" r="6.813" transform="translate(177.488 7206.298)" fill="#e6e6e6"/>
    <circle id="Ellipse_597" data-name="Ellipse 597" cx="6.813" cy="6.813" r="6.813" transform="translate(211.977 7206.298)" fill="#e6e6e6"/>
    <circle id="Ellipse_598" data-name="Ellipse 598" cx="6.813" cy="6.813" r="6.813" transform="translate(246.466 7206.298)" fill="#e6e6e6"/>
    <circle id="Ellipse_599" data-name="Ellipse 599" cx="6.813" cy="6.813" r="6.813" transform="translate(280.955 7206.298)" fill="#e6e6e6"/>
    <circle id="Ellipse_600" data-name="Ellipse 600" cx="6.813" cy="6.813" r="6.813" transform="translate(315.445 7206.298)" fill="#e6e6e6"/>
    <circle id="Ellipse_601" data-name="Ellipse 601" cx="6.813" cy="6.813" r="6.813" transform="translate(349.934 7206.298)" fill="#e6e6e6"/>
    <circle id="Ellipse_602" data-name="Ellipse 602" cx="6.813" cy="6.813" r="6.813" transform="translate(384.423 7206.298)" fill="#e6e6e6"/>
    <circle id="Ellipse_603" data-name="Ellipse 603" cx="6.813" cy="6.813" r="6.813" transform="translate(418.912 7206.298)" fill="#e6e6e6"/>
    <circle id="Ellipse_604" data-name="Ellipse 604" cx="6.813" cy="6.813" r="6.813" transform="translate(453.401 7206.298)" fill="#e6e6e6"/>
    <g id="Group_2471" data-name="Group 2471" transform="translate(350 331)">
      <circle id="Ellipse_509-2" data-name="Ellipse 509" cx="6.813" cy="6.813" r="6.813" transform="translate(280.955 6892)" fill="#e6e6e6"/>
      <circle id="Ellipse_519-2" data-name="Ellipse 519" cx="6.813" cy="6.813" r="6.813" transform="translate(280.955 6926.922)" fill="#e6e6e6"/>
      <circle id="Ellipse_529-2" data-name="Ellipse 529" cx="6.813" cy="6.813" r="6.813" transform="translate(280.955 6961.844)" fill="#e6e6e6"/>
      <g id="Group_2468-2" data-name="Group 2468">
        <circle id="Ellipse_505-2" data-name="Ellipse 505" cx="6.813" cy="6.813" r="6.813" transform="translate(142.999 6892)" fill="#e6e6e6"/>
        <circle id="Ellipse_506-2" data-name="Ellipse 506" cx="6.813" cy="6.813" r="6.813" transform="translate(177.488 6892)" fill="#e6e6e6"/>
        <circle id="Ellipse_507-2" data-name="Ellipse 507" cx="6.813" cy="6.813" r="6.813" transform="translate(211.977 6892)" fill="#e6e6e6"/>
        <circle id="Ellipse_508-2" data-name="Ellipse 508" cx="6.813" cy="6.813" r="6.813" transform="translate(246.466 6892)" fill="#e6e6e6"/>
        <circle id="Ellipse_515-2" data-name="Ellipse 515" cx="6.813" cy="6.813" r="6.813" transform="translate(142.999 6926.922)" fill="#e6e6e6"/>
        <circle id="Ellipse_516-2" data-name="Ellipse 516" cx="6.813" cy="6.813" r="6.813" transform="translate(177.488 6926.922)" fill="#e6e6e6"/>
        <circle id="Ellipse_517-2" data-name="Ellipse 517" cx="6.813" cy="6.813" r="6.813" transform="translate(211.977 6926.922)" fill="#e6e6e6"/>
        <circle id="Ellipse_518-2" data-name="Ellipse 518" cx="6.813" cy="6.813" r="6.813" transform="translate(246.466 6926.922)" fill="#6c63ff"/>
        <circle id="Ellipse_525-2" data-name="Ellipse 525" cx="6.813" cy="6.813" r="6.813" transform="translate(142.999 6961.844)" fill="#e6e6e6"/>
        <circle id="Ellipse_526-2" data-name="Ellipse 526" cx="6.813" cy="6.813" r="6.813" transform="translate(177.488 6961.844)" fill="#e6e6e6"/>
        <circle id="Ellipse_527-2" data-name="Ellipse 527" cx="6.813" cy="6.813" r="6.813" transform="translate(211.977 6961.844)" fill="#e6e6e6"/>
        <circle id="Ellipse_528-2" data-name="Ellipse 528" cx="6.813" cy="6.813" r="6.813" transform="translate(246.466 6961.844)" fill="#e6e6e6"/>
        <circle id="Ellipse_535-2" data-name="Ellipse 535" cx="6.813" cy="6.813" r="6.813" transform="translate(142.999 6996.766)" fill="#e6e6e6"/>
        <circle id="Ellipse_536-2" data-name="Ellipse 536" cx="6.813" cy="6.813" r="6.813" transform="translate(177.488 6996.766)" fill="#e6e6e6"/>
        <circle id="Ellipse_537-2" data-name="Ellipse 537" cx="6.813" cy="6.813" r="6.813" transform="translate(211.977 6996.766)" fill="#e6e6e6"/>
        <circle id="Ellipse_538-2" data-name="Ellipse 538" cx="6.813" cy="6.813" r="6.813" transform="translate(246.466 6996.766)" fill="#e6e6e6"/>
      </g>
      <circle id="Ellipse_539-2" data-name="Ellipse 539" cx="6.813" cy="6.813" r="6.813" transform="translate(280.955 6996.766)" fill="#e6e6e6"/>
      <circle id="Ellipse_545-2" data-name="Ellipse 545" cx="6.813" cy="6.813" r="6.813" transform="translate(142.999 7031.688)" fill="#e6e6e6"/>
      <circle id="Ellipse_546-2" data-name="Ellipse 546" cx="6.813" cy="6.813" r="6.813" transform="translate(177.488 7031.688)" fill="#6c63ff"/>
      <circle id="Ellipse_547-2" data-name="Ellipse 547" cx="6.813" cy="6.813" r="6.813" transform="translate(211.977 7031.688)" fill="#e6e6e6"/>
      <circle id="Ellipse_548-2" data-name="Ellipse 548" cx="6.813" cy="6.813" r="6.813" transform="translate(246.466 7031.688)" fill="#e6e6e6"/>
      <circle id="Ellipse_549-2" data-name="Ellipse 549" cx="6.813" cy="6.813" r="6.813" transform="translate(280.955 7031.688)" fill="#e6e6e6"/>
    </g>
    <g id="Group_2472" data-name="Group 2472">
      <path id="Path_10444" data-name="Path 10444" d="M362.991,546H608.206V203.447H362.991Z" transform="translate(-65.805 6759.061)" fill="#fff"/>
      <g id="Group_2404" data-name="Group 2404" transform="translate(-438 1741)">
        <path id="Path_10445" data-name="Path 10445" d="M553.649,257.643a1.723,1.723,0,0,1,1.723,1.723v3.446a1.723,1.723,0,0,1-1.723,1.723h-136.1a1.723,1.723,0,0,1-1.723-1.723v-3.446a1.723,1.723,0,0,1,1.723-1.723h136.1" transform="translate(372.195 5018.061)" fill="#e6e6e6"/>
        <path id="Path_10446" data-name="Path 10446" d="M553.649,274.009a1.723,1.723,0,0,1,1.723,1.723v3.446a1.723,1.723,0,0,1-1.723,1.723h-136.1a1.723,1.723,0,0,1-1.723-1.723v-3.446a1.723,1.723,0,0,1,1.723-1.723h136.1" transform="translate(372.195 5018.061)" fill="#e6e6e6"/>
        <path id="Path_10447" data-name="Path 10447" d="M553.649,290.376a1.723,1.723,0,0,1,1.723,1.723v3.446a1.723,1.723,0,0,1-1.723,1.723h-136.1a1.723,1.723,0,0,1-1.723-1.723V292.1a1.723,1.723,0,0,1,1.723-1.723h136.1" transform="translate(372.195 5018.061)" fill="#6c63ff"/>
        <path id="Path_10448" data-name="Path 10448" d="M553.649,307.1a1.723,1.723,0,0,1,1.723,1.723v3.446a1.723,1.723,0,0,1-1.723,1.723h-136.1a1.723,1.723,0,0,1-1.723-1.723v-3.446a1.723,1.723,0,0,1,1.723-1.723h136.1" transform="translate(372.195 5018.061)" fill="#e6e6e6"/>
        <path id="Path_10449" data-name="Path 10449" d="M553.649,323.467a1.723,1.723,0,0,1,1.723,1.723v3.446a1.723,1.723,0,0,1-1.723,1.723h-136.1a1.723,1.723,0,0,1-1.723-1.723V325.19a1.723,1.723,0,0,1,1.723-1.723h136.1" transform="translate(372.195 5018.061)" fill="#e6e6e6"/>
        <path id="Path_10450" data-name="Path 10450" d="M553.649,339.834a1.723,1.723,0,0,1,1.723,1.723V345a1.723,1.723,0,0,1-1.723,1.723h-136.1A1.723,1.723,0,0,1,415.825,345v-3.446a1.723,1.723,0,0,1,1.723-1.723h136.1" transform="translate(372.195 5018.061)" fill="#e6e6e6"/>
        <path id="Path_10451" data-name="Path 10451" d="M418.417,394.89a2,2,0,0,0-2,2v92.916a2,2,0,0,0,2,2H552.548a2,2,0,0,0,2-2V396.89a2,2,0,0,0-2-2Z" transform="translate(372.195 5018.061)" fill="#6c63ff"/>
      </g>
      <path id="Path_10452" data-name="Path 10452" d="M277.241,161.182l-1.408-.374L306.56,45.221H484.785v1.457H307.679Z" transform="translate(143 6892)" fill="#3f3d56"/>
      <path id="Path_10453" data-name="Path 10453" d="M708.153,194.179a15.291,15.291,0,1,1,15.291-15.291A15.291,15.291,0,0,1,708.153,194.179Zm0-29.126a13.835,13.835,0,1,0,13.835,13.835,13.835,13.835,0,0,0-13.835-13.835Z" transform="translate(-65.862 6759.061)" fill="#3f3d56"/>
      <circle id="Ellipse_605" data-name="Ellipse 605" cx="5.825" cy="5.825" r="5.825" transform="translate(636.522 6932.124)" fill="#6c63ff"/>
      <path id="Path_10454" data-name="Path 10454" d="M272.477,356.941l1.407.376L242.937,472.845,64.712,472.5l0-1.457,177.105.34Z" transform="translate(143 6892)" fill="#3f3d56"/>
      <path id="Path_10455" data-name="Path 10455" d="M258.985,589.4a15.291,15.291,0,1,1-15.32,15.262,15.291,15.291,0,0,1,15.32-15.262Zm-.056,29.125a13.835,13.835,0,1,0-13.808-13.861A13.835,13.835,0,0,0,258.929,618.521Z" transform="translate(-65.805 6759.061)" fill="#3f3d56"/>
      <circle id="Ellipse_606" data-name="Ellipse 606" cx="5.825" cy="5.825" r="5.825" transform="translate(187.325 7357.922)" fill="#6c63ff"/>
    </g>
  </g>
</svg>
