<svg xmlns="http://www.w3.org/2000/svg" width="34" height="27.196" viewBox="0 0 34 27.196">
  <path id="Icon_awesome-code" data-name="Icon awesome-code" d="M14.815,27.172l-3.24-.94a.638.638,0,0,1-.436-.792L18.39.463a.638.638,0,0,1,.792-.436l3.24.94a.638.638,0,0,1,.436.792L15.606,26.736a.637.637,0,0,1-.792.436Zm-6.056-5.96,2.311-2.465a.637.637,0,0,0-.042-.914L6.215,13.6l4.813-4.234a.633.633,0,0,0,.042-.914L8.759,5.987a.638.638,0,0,0-.9-.027L.2,13.132a.633.633,0,0,0,0,.93l7.655,7.177a.633.633,0,0,0,.9-.027Zm17.381.032L33.8,14.067a.633.633,0,0,0,0-.93L26.14,5.955a.643.643,0,0,0-.9.027L22.927,8.447a.637.637,0,0,0,.042.914L27.782,13.6l-4.813,4.234a.633.633,0,0,0-.042.914l2.311,2.465a.638.638,0,0,0,.9.032Z" transform="translate(0.002 -0.003)" fill="#6e77a3"/>
</svg>
