<svg xmlns="http://www.w3.org/2000/svg" width="779.029" height="403.81" viewBox="0 0 779.029 403.81">
  <g id="Group_2427" data-name="Group 2427" transform="translate(-1005.046 -613)">
    <g id="Group_2415" data-name="Group 2415" transform="translate(19195 -17)" opacity="0.1">
      <path id="Path_10487" data-name="Path 10487" d="M260.926,256.166a25.776,25.776,0,0,0-1.685-6.45,2.92,2.92,0,0,0-1.484-1.828,3.058,3.058,0,0,0-1.473-.016l-7.562,1.157a2.9,2.9,0,0,0-1.725.67c-.985,1.036-.015,2.7-.045,4.132a3.884,3.884,0,0,1-3.01,3.343,11.377,11.377,0,0,1-4.782-.059l-10.573-1.643a17.433,17.433,0,0,0,8-5.338c1.391-1.648,2.132-4.726.121-5.506a4.937,4.937,0,0,0-1.836-.147c-4.79.037-8.56-3.962-13.045-5.647a14.423,14.423,0,0,0-16.233,4.839l5.632.272a2.5,2.5,0,0,1,1.5.4c1.234,1.014-.3,2.962-.126,4.55.226,2.063,2.966,2.5,5.031,2.712s4.685,1.887,3.692,3.709c-10.38,3.575-20.942-6.989-31.843-5.688-2.759.329-5.364,1.413-8.058,2.094-16.455,4.163-33.466-6.945-50.275-4.592a63.843,63.843,0,0,0-10.975,2.894c-2.288.751-4.674,1.563-6.336,3.305s-2.295,4.721-.72,6.543a36.825,36.825,0,0,1-12.905-1.227,7.23,7.23,0,0,1,3.717,6.372A76.569,76.569,0,0,0,84.311,271a33.038,33.038,0,0,0,4.06,5.408l-8.58,5.512a4.9,4.9,0,0,1,2.712,7.151c3.006-1.337,4.868-4.8,8.082-5.5,2.106-.459,4.248.4,6.245,1.211s4.193,1.594,6.261.986,3.593-3.288,2.279-5a106.984,106.984,0,0,1,27.176-4.246,3.408,3.408,0,0,1,2.058.391c1.2.831.883,2.627.818,4.083s1.071,3.371,2.373,2.715c-1.532,1.328-.222,3.829,1.247,5.226s3.241,3.324,2.341,5.141c-.235.474-.633.854-.859,1.332-.667,1.412.392,3.059,1.641,4s2.779,1.593,3.646,2.892.474,3.572-1.078,3.754l-4.41-5.6a11.48,11.48,0,0,0-2.979,5.645,11.844,11.844,0,0,1,1.465,16.2c-2,2.35-4.845,3.778-7.328,5.611s-4.78,4.444-4.774,7.53c.011,5.332-.425,10.286,1.573,15.229a234.6,234.6,0,0,0,12.736,26.572c1.26,2.253,2.888,4.723,5.441,5.111q-4.839-11.78-8.712-23.926c1.682.007,3.625.14,4.611,1.5.816,1.128.641,2.662.895,4.031a12.487,12.487,0,0,0,1.593,3.744l15.4,27.44c1.277,2.275,2.742,4.716,5.182,5.638,1.56.589,3.366.478,4.8,1.326,1.126.665,1.884,1.844,3.032,2.471,3.245,1.77,7.757-1.625,10.79.489a30.369,30.369,0,0,1,2.218,2.256c2.8,2.425,7.4.8,10.628,2.612,2.084,1.166,3.164,3.5,4.275,5.612,2.784,5.294,7.289,10.48,13.255,10.9,1.874.132,3.789-.223,5.621.194s3.635,2.016,3.341,3.871c-.5,3.181,1.068,6.665.646,9.858-.769,5.817-9.019,8.373-9.728,14.2a32.95,32.95,0,0,1-.216,3.84c-.372,1.53-1.521,2.775-1.929,4.3-.774,2.882,1.291,5.75,3.559,7.688s4.973,3.61,6.213,6.324c1.311,2.868.667,6.213,1.093,9.338.931,6.822,6.823,11.879,12.886,15.14,1.848.993,3.831,1.955,5.027,3.679,1.561,2.25,1.405,5.215,1.926,7.9,1.276,6.583,6.818,12.007,6.975,18.71.112,4.765-2.537,9.087-4.119,13.583a31.676,31.676,0,0,0,2.587,26.271,42.069,42.069,0,0,1,3.436,6.049c1.494,3.866,1.009,8.261,2.387,12.17,1.821,5.168,6.826,9.437,6.347,14.9,2.272,4.718,7.289,7.036,12.334,8.441l9.042,2.517a11.617,11.617,0,0,0,5.3.619c1.763-.349,3.445-1.813,3.4-3.609-4.434-1-9.01-2.063-12.665-4.765s-6.159-7.513-4.772-11.842c.643-2.007,2.011-4.325.71-5.983-.745-.95-2.106-1.2-2.946-2.064-1.31-1.351-.86-3.621.082-5.251s2.3-3.086,2.683-4.929a5.143,5.143,0,0,0-2.411-5.351,12.784,12.784,0,0,0,4.475-2.871,4.363,4.363,0,0,0,.795-4.944c2.749.349,5.995.519,7.8-1.584,1.441-1.679,1.342-4.19.773-6.329s-1.532-4.216-1.562-6.428a117.14,117.14,0,0,0,19-.644,12.323,12.323,0,0,0-5.778-7.237c2.856-.483,5.459-3.9,6.361-6.656a17.125,17.125,0,0,0,.115-8.594,4.612,4.612,0,0,1-.085-2.252,4.388,4.388,0,0,1,2.26-2.186l14.178-8.143a8.259,8.259,0,0,0,2.267-1.674c1.485-1.745,1.265-4.379.5-6.541s-1.979-4.194-2.272-6.467c-.876-6.8,6.4-11.674,8.855-18.073a27.231,27.231,0,0,0,1.347-7.923c.2-2.882.215-6.229-2-8.086-2.121-1.78-5.435-1.383-7.654-3.039-2.035-1.518-2.737-4.466-4.96-5.693-2.019-1.114-4.55-.405-6.8-.929-3.953-.922-6.441-5.478-10.478-5.9-2.278-.238-4.856.876-6.723-.451-1.645-1.169-1.711-3.519-2.024-5.512a15.394,15.394,0,0,0-12.425-12.465c-2.349-.377-4.905-.234-6.9-1.524-2.023-1.307-2.951-3.754-4.54-5.564-2.561-2.917-6.6-3.953-10.374-4.842l-15.371-3.614c-2.729-.641-6.246-.982-7.71,1.409a11.048,11.048,0,0,0-.912,2.869,8.883,8.883,0,0,1-8.354,6.288,9.879,9.879,0,0,0-5.826-4.508,36.294,36.294,0,0,1-4.714-1.122,6.621,6.621,0,0,1-2.873-9.185,8.242,8.242,0,0,0-1.408-9.914c-2.614-2.347-6.4-2.914-9.9-2.679-.918-2,.617-4.263,2.271-5.719s3.663-2.887,4.023-5.061c.567-3.419-3.8-6.016-7.109-5s-5.427,4.237-6.825,7.409a21.812,21.812,0,0,1-2.749,5.271c-1.265,1.534-3.3,2.633-5.229,2.141-2.728-.7-3.781-3.938-4.385-6.688a43.494,43.494,0,0,1-1.455-11.2c.17-3.773,1.442-7.648,4.224-10.2,4.534-4.163,11.49-3.755,17.609-3.091a4.472,4.472,0,0,1,.458-5.907,6.716,6.716,0,0,1,6.088-1.5,8.388,8.388,0,0,1,4.716,2.82c1.739,2.12,2.233,4.983,3.548,7.389s4.27,4.459,6.689,3.168c2.089-1.115,2.421-4.013,1.9-6.323s-1.625-4.557-1.436-6.918c.359-4.5,5.029-7.216,9.15-9.072s8.84-4.35,9.492-8.822a8.044,8.044,0,0,1,.489-2.564,5.03,5.03,0,0,1,1.845-1.735c12.027-7.948,24.254-15.993,38-20.336.715-.226.8.025,1.528-.152,1.02-.59.344-2.22-.634-2.877s-2.285-1.161-2.533-2.313c-.182-.847.316-1.678.446-2.534a3.164,3.164,0,0,0-4.154-3.206c-1.1-1.462,1.081-3.161,2.847-3.648A77.321,77.321,0,0,1,293.4,299.92a2.926,2.926,0,0,1,1.848.314c.923.639.8,2.105.151,3.017a17.754,17.754,0,0,1-2.486,2.257,6.786,6.786,0,0,0-1.76,6.825c2.868,1.459,5.986,2.961,9.162,2.447s6-4.083,4.5-6.933c-1.39-2.654-5.567-3.253-6.285-6.162-.841-3.406,3.981-6.435,2.895-9.771-.476-1.461-1.932-2.321-3.049-3.376a9.161,9.161,0,0,1-2-10.158,11.558,11.558,0,0,1-10.137-3.172c-2.425-2.447-4.359-6.307-7.8-6.2-3.16.1-5.881,3.787-8.835,2.662-.727-.277-1.493-.84-2.2-.51a1.816,1.816,0,0,0-.82,1.361c-.751,3.589.541,7.679-1.416,10.781-2.129,3.375-7.053,3.843-9.634,6.887-1.4,1.652-1.944,3.879-3.231,5.62s-4.021,2.849-5.566,1.331a7.672,7.672,0,0,0-2.084-9.329,20.473,20.473,0,0,0-4.6-2.239,27.3,27.3,0,0,1-5.143-2.866,5.066,5.066,0,0,1-1.888-2.02,4.6,4.6,0,0,1,.129-3.195,13.062,13.062,0,0,1,10.395-8.616c2.058-.28,4.452-.181,5.814-1.749.72-.83,1.1-2.084,2.144-2.421a3.163,3.163,0,0,1,1.98.244l7.68,2.7a5.39,5.39,0,0,0,2.736.452,1.855,1.855,0,0,0,1.6-1.949c-.245-1.275-2.208-1.887-2.029-3.174a2.119,2.119,0,0,1,.643-1.08,27.458,27.458,0,0,1,21.777-8.6c.969,1.592-.564,3.477-1.839,4.836s-2.3,3.787-.758,4.834a4.23,4.23,0,0,0,2.045.461,17.855,17.855,0,0,1,5.443,1.651q3.981,1.732,7.809,3.791a9.9,9.9,0,0,1,.2-5.029c.638-1.573,2.45-2.807,4.034-2.195,1.526.591,2.308,2.611,3.934,2.8,2.169.247,3.024-2.957,2.118-4.942s-2.7-3.648-2.849-5.826c-.1-1.469.458-3.291-.715-4.18a3.194,3.194,0,0,0-1.384-.485l-29.3-5.391c-1.74-.32-4.253-.075-4.331,1.693-.043.986.838,1.962.448,2.869-.417.968-1.785.88-2.782,1.222a3.8,3.8,0,0,0-2.174,4,11.12,11.12,0,0,0,1.835,4.5C265.717,257.109,262.832,256.963,260.926,256.166Z" transform="translate(-18269.746 410.651)" fill="#3f3d56"/>
      <path id="Path_10488" data-name="Path 10488" d="M286.546,228.89a9.487,9.487,0,0,0-10.421,3.121,2.087,2.087,0,0,0-.484,2.2c.579.986,2.054.6,3.142.244a7.908,7.908,0,0,1,4.963-.118c1.021.351,1.935.97,2.961,1.308a2.982,2.982,0,0,0,3.04-.444,3.958,3.958,0,0,0,.749-2.84,2.284,2.284,0,0,0-.582-1.877,2.984,2.984,0,0,0-1.346-.4,4.636,4.636,0,0,1-2.713-1.585" transform="translate(-18318.744 413.056)" fill="#3f3d56"/>
      <path id="Path_10489" data-name="Path 10489" d="M303.487,225.126a2.413,2.413,0,0,0-2.333,3.4,9.782,9.782,0,0,0,3.9.254,3.334,3.334,0,0,0,2.726-2.5,6.276,6.276,0,0,1-4.444-.849" transform="translate(-18325.119 413.879)" fill="#3f3d56"/>
      <path id="Path_10490" data-name="Path 10490" d="M348.279,217.506a44.866,44.866,0,0,0-10,3.4,7.514,7.514,0,0,1,4.8,7.547,3.931,3.931,0,0,0,.046,1.866c.367.89,1.432,1.225,2.367,1.453a15.609,15.609,0,0,0,5.193.663,5.29,5.29,0,0,0,4.3-2.627,18.727,18.727,0,0,1,.894-2.113c2.243-3.416,8.906.714,11.315-2.587.848-1.163.771-2.914,1.877-3.835a4.215,4.215,0,0,1,1.929-.736,135.473,135.473,0,0,1,14.654-2.087c2.331-.2,5.369-1.04,5.388-3.379a40.591,40.591,0,0,0-25.893,3.483c-2.886,1.446-6.7,4.487-9.484,2.57-1.041-.718-.989-2.65-2.422-3.457C351.773,216.84,349.834,217.175,348.279,217.506Z" transform="translate(-18334.469 416.587)" fill="#3f3d56"/>
      <path id="Path_10491" data-name="Path 10491" d="M389.433,222.728l4.121.792A5.34,5.34,0,0,0,388,229.307c3.859,1.289,8.066.035,12.132.206s8.795,3.075,8.1,7.084c-.21,1.212-.91,2.424-.546,3.6a13.4,13.4,0,0,0,1.392,2.167c.854,1.581.172,3.58-.907,5.017s-2.529,2.583-3.476,4.11c-2.355,3.8-1.017,8.708.386,12.951a11.417,11.417,0,0,0,2.2,4.384c2.079,2.21,5.466,2.4,8.5,2.447,2.208.032,4.737-.077,6.134-1.788,1.823-2.233.548-5.718,1.748-8.339,1.09-2.381,3.867-3.4,6.383-4.126,4.609-1.327,9.307-2.455,13.665-4.46,5.411-2.489,10.468-6.368,16.416-6.688a22.534,22.534,0,0,0,4.986-.35c1.607-.457,3.134-1.847,3.012-3.513-.1-1.424-1.309-2.47-2.25-3.543s-1.681-2.724-.815-3.86l15.589-2.912c-1.105-3.012-1.966-6.978.573-8.938.916-.707,2.143-.99,2.923-1.845,1.33-1.457.661-3.968-.874-5.207s-3.61-1.527-5.576-1.69a149.6,149.6,0,0,0-20.559.183l-40.164,2.2c-2.7.148-5.807-.078-8.279.842-2.093.778-3.581,2.207-5.974,2.709C398.293,220.874,393.431,220.247,389.433,222.728Z" transform="translate(-18346.912 416.734)" fill="#3f3d56"/>
      <path id="Path_10492" data-name="Path 10492" d="M487.842,268.184a1.658,1.658,0,0,0-1.2.272,1.514,1.514,0,0,0-.391.925,6.108,6.108,0,0,0,.887,4.372,4.281,4.281,0,0,0,3.919,1.879c1.856-.237,3.223-1.82,4.929-2.592,2.629-1.19,13.8-3.044,6.071-7.217-2.662-1.438-4.382-.169-6.48.779A14.744,14.744,0,0,1,487.842,268.184Z" transform="translate(-18371.496 403.851)" fill="#3f3d56"/>
      <path id="Path_10493" data-name="Path 10493" d="M577.864,221.71a4.41,4.41,0,0,0-2.146,1.868,1.884,1.884,0,0,0,.707,2.5,2.813,2.813,0,0,0,1.052.167l3.667.11c1.558.047,3.5.378,3.923,1.88.311,1.115-.385,2.547.455,3.344a2.365,2.365,0,0,0,1.247.487,8.5,8.5,0,0,0,3.7.119c2.668-.716,1.266-2.344,2.107-3.794,1.286-2.219,1.063-.876,3.329-2.147,1.673-.939,3.835-2.643,2.439-5.036C595.91,217.043,581.448,219.922,577.864,221.71Z" transform="translate(-18393.865 415.396)" fill="#3f3d56"/>
      <path id="Path_10494" data-name="Path 10494" d="M669.739,219.667l-2.13.284a85.776,85.776,0,0,0-14.256,2.73,23.726,23.726,0,0,0,6.243,1.532,19.175,19.175,0,0,1,3.5.5c2.043.608,4.1,2.178,6.075,1.374,1.224-.5,1.623-1.773,2.637-2.448.7-.466,3.355-1.221,3.651-1.692C677.856,218.139,671.583,219.42,669.739,219.667Z" transform="translate(-18413.359 415.347)" fill="#3f3d56"/>
      <path id="Path_10495" data-name="Path 10495" d="M684.414,232.053a39.935,39.935,0,0,0-7.858,5.755c-1,.941-2.022,2.11-1.932,3.48.121,1.821,2.06,2.877,3.741,3.589l6.807,2.882c.826-1.164.07-2.771-.784-3.915s-1.868-2.467-1.491-3.844c.43-1.571,2.346-2.106,3.952-2.377,2.617-.441,9.676-.406,8.827-4.623C694.678,228.033,687.041,230.585,684.414,232.053Z" transform="translate(-18418.684 412.639)" fill="#3f3d56"/>
      <path id="Path_10496" data-name="Path 10496" d="M685.7,598.333a6.5,6.5,0,0,0,.411,5.724,5.8,5.8,0,0,0,5.953,2.057,10.724,10.724,0,0,0,5.527-3.554,19.034,19.034,0,0,0,3.179-4.875,38.058,38.058,0,0,0,2.356-8.622l2.114-11.1c.472-2.48.454-10.084-4.1-7.607-1.245.677-4.129,6.02-5.434,7.536-2.352,2.731-2.663,5.381-3.9,8.689C690.256,590.728,687.139,594.182,685.7,598.333Z" transform="translate(-18421.344 327.559)" fill="#3f3d56"/>
      <path id="Path_10497" data-name="Path 10497" d="M1004.862,682.909a33.24,33.24,0,0,1-4.332-2.062,36.516,36.516,0,0,0-2.2,11.968l10.207-5.776c1.535-.869,3.276-2.076,3.243-3.84a1.215,1.215,0,0,0-.564-1.1,1.377,1.377,0,0,0-.716-.084,17.277,17.277,0,0,0-4.321,1.389,5.274,5.274,0,0,1-4.407.023" transform="translate(-18499.738 299.772)" fill="#3f3d56"/>
      <path id="Path_10498" data-name="Path 10498" d="M1073.346,686.98a22.087,22.087,0,0,0-3.273,1.175c-2.342,1.192-3.936,3.455-6.043,5.025a23.975,23.975,0,0,1-6.829,3.129,1.637,1.637,0,0,0,.382,2.412,4.734,4.734,0,0,0,2.7.606c2.476.055,5.085.078,7.254-1.118a22.874,22.874,0,0,0,3.415-2.711,36.164,36.164,0,0,1,8.6-4.861,9.867,9.867,0,0,0,3-1.791c1.894-1.866,2.028-4.746-.7-5.381C1079.63,682.951,1075.448,686.3,1073.346,686.98Z" transform="translate(-18514.379 299.13)" fill="#3f3d56"/>
      <path id="Path_10499" data-name="Path 10499" d="M1107.59,665.111a8.514,8.514,0,0,0-2.6-6.976c-.028,2.569-.106,5.307-1.551,7.431-1.03,1.514-2.644,2.537-3.772,3.979s-1.629,3.728-.306,4.993a4.959,4.959,0,0,0,2.939,1.012c2.634.31,5.683.483,7.53-1.42,1.008-1.039,1.5-2.577,2.729-3.341a3.32,3.32,0,0,0,1.2-.857c.508-.807-.3-1.871-1.207-2.162s-1.909-.154-2.822-.43-1.75-1.3-1.282-2.133" transform="translate(-18524.834 305.459)" fill="#3f3d56"/>
      <path id="Path_10500" data-name="Path 10500" d="M1040.4,538.81a11.842,11.842,0,0,1-4.225.249c-2.345-.431-4.17-2.2-6.063-3.648a26.744,26.744,0,0,0-15.626-5.46c-5.144-.1-10.337,1.3-15.389.324a6.07,6.07,0,0,0,3.577,4.032c1.676.819,3.526,1.23,5.211,2.032a12.441,12.441,0,0,1,6.026,6.269,17.7,17.7,0,0,0,1.706,3.75c1.68,2.26,4.863,2.756,7.673,2.571,3.663-.241,7.489-1.294,10.9.07,2.607,1.044,4.473,3.326,6.65,5.1s5.243,3.091,7.742,1.811a12.8,12.8,0,0,1-8.856-12.316c2.452.225,9.513.138,9.132-4.027C1048.537,536.038,1042.509,538.429,1040.4,538.81Z" transform="translate(-18499.93 337.556)" fill="#3f3d56"/>
      <path id="Path_10501" data-name="Path 10501" d="M986.961,576.052c.435-2.387,2.816-4.5,2.074-6.806-.513-1.6-2.366-2.387-4.043-2.426s-3.326.46-5,.507a24.368,24.368,0,0,0-3.276.047c-3.33.547-5.383,4.038-8.521,5.279-1.908.755-4.052.61-6.037,1.132-4.505,1.184-7.356,5.441-10.5,8.874a37.489,37.489,0,0,1-19.028,11.1c-2.562.593-5.315.973-7.351,2.636-2.7,2.2-3.36,5.98-3.96,9.41a155.409,155.409,0,0,1-7.566,27.774l10.7,1.366a14.542,14.542,0,0,0,6.1-.089,17.708,17.708,0,0,0,4.013-2.138,40.062,40.062,0,0,1,15.652-5.65,16.616,16.616,0,0,1,8.367.586c2.629,1.041,4.884,3.4,5.1,6.222a6.572,6.572,0,0,1,6.568,1.6,11.417,11.417,0,0,1,3.136,6.26c.282,1.464.564,3.217,1.922,3.831,1.108.5,2.379-.039,3.591-.136,4.113-.329,7.526,4.466,11.568,3.641,4.335-.886,5.4-7.379,9.629-8.679,2.429-.747,5.836.161,7-2.1,1.025-1.992-1.02-4.29-.809-6.52.26-2.746,3.5-3.911,6-5.083,8.609-4.039,12.694-15.626,8.522-24.171-2.472-5.063-7.335-9.049-8.233-14.611-.691-4.279,1-9.27-1.733-12.638-1.388-1.714-3.738-2.659-4.564-4.7-.52-1.287-.311-2.747-.591-4.107s-1.466-2.782-2.809-2.429c-3.9,1.023-5.141,13.062-7.227,15.987C992.473,584.459,985.962,581.53,986.961,576.052Z" transform="translate(-18478.557 329.036)" fill="#3f3d56"/>
      <path id="Path_10502" data-name="Path 10502" d="M913.472,547.679a6.274,6.274,0,0,0-4.062-.208c-1.276.534-2.021,2.407-1,3.337,8.012-.312,16.073-.622,24.018.466,9.153,1.254,18.211,4.359,27.4,3.445a139.465,139.465,0,0,0-15.986-3.71l-9-1.719a69.609,69.609,0,0,0-7.308-1.129C922.406,547.738,918.52,549.095,913.472,547.679Z" transform="translate(-18477.102 333.234)" fill="#3f3d56"/>
      <path id="Path_10503" data-name="Path 10503" d="M923.459,507.386c-.665-.056-1.489-.1-1.833.469-.329.546.048,1.268-.129,1.881-.242.837-1.338,1.051-2.2.937a4.217,4.217,0,0,0-2.563.03,2.172,2.172,0,0,0-.84,2.468,6.353,6.353,0,0,0,1.482,2.362,24.123,24.123,0,0,0,3.844,3.856c2.754,2.033,6.484,3.012,8.219,5.963a3.957,3.957,0,0,0,1.1,1.477c.833.527,1.918.126,2.815-.283l3.142-1.436a3.57,3.57,0,0,0,1.469-1c.718-.974.277-2.359-.326-3.409s-1.374-2.135-1.245-3.339c.231-2.145,2.989-2.966,4.123-4.8s.4-4.234.531-6.4c.154-2.539,1.749-5.841-.817-7.738-2.181-1.612-4.266-.123-5.832,1.657C931.092,503.829,929.53,507.893,923.459,507.386Z" transform="translate(-18479.068 345.622)" fill="#3f3d56"/>
      <path id="Path_10504" data-name="Path 10504" d="M951.275,457.54c1.073,2.054,3.309,3.28,4.479,5.28,1.268,2.168,1.124,4.97,2.5,7.072,1.411,2.156,4.252,3.3,5.043,5.754.864,2.678-1.1,5.932.466,8.272a3.472,3.472,0,0,0,5.093.468,3.736,3.736,0,0,0-.154-5.213c-.925-.844-2.254-1.208-3.027-2.194a4.6,4.6,0,0,1-.784-1.909,12.5,12.5,0,0,1,.2-5.989,2.665,2.665,0,0,0,.151-1.567c-.348-1.011-1.717-1.083-2.678-1.552-2.182-1.065-2.129-4.145-1.748-6.543-.254,1.6-5.941-1.119-6.537-2.023-1.183-1.8-.539-5.262-.773-7.248C950.948,451.379,949.963,455.029,951.275,457.54Z" transform="translate(-18487.809 357.536)" fill="#3f3d56"/>
      <path id="Path_10505" data-name="Path 10505" d="M873.3,501.535c-1.05-1.175-2.631-2.4-4.038-1.7a2.556,2.556,0,0,0-.948,3.152,6.939,6.939,0,0,0,2.29,2.73c2.933,2.419,6.091,4.6,8.65,7.414,4.579,5.032,7,11.822,11.984,16.457a6.721,6.721,0,0,0,3.774,2.042,2.933,2.933,0,0,0,3.247-2.241,4.273,4.273,0,0,0-1.506-3.143c-1.934-2.1-4.052-4.041-5.878-6.239a5.244,5.244,0,0,1-1.5-3.138c-.009-1.184,1.07-2.423,2.217-2.13-1.395-.357-2.429-2.68-4.477-3.117-1.711-.365-2.125.694-4.161-.179C879.071,509.781,876.024,504.579,873.3,501.535Z" transform="translate(-18467.137 345.146)" fill="#3f3d56"/>
      <path id="Path_10506" data-name="Path 10506" d="M989.893,349.068a32.154,32.154,0,0,1-3.281-1.172c-2.883-.866-6.7,1.254-6.314,4.24.255,1.984,2.1,3.321,3.121,5.042,1.512,2.552,1.109,5.789.314,8.647a6.759,6.759,0,0,1-1.091,2.46,8.333,8.333,0,0,1-2.584,1.859,34.562,34.562,0,0,0-10.112,8.591,2.476,2.476,0,0,0-.611,1.151c-.138,1.008.876,1.743,1.449,2.583,1.273,1.868.353,4.381.479,6.638a1.877,1.877,0,0,0,.791,1.647c.767.39,1.676-.272,2.092-1.026,1.38-2.5.34-6.512,2.929-7.717.49-.228,1.083-.324,1.41-.754.518-.682.018-1.693.281-2.508.394-1.224,2.069-1.279,3.354-1.225a19.038,19.038,0,0,0,6.54-.871,4.353,4.353,0,0,0,2.165-1.254,4.711,4.711,0,0,0,.551-3.566,48.344,48.344,0,0,0-5.712-17.428c2.274.29,4.747.542,6.709-.643,1.1-.664,2.416-2.648,1.871-4C993.382,347.627,991.825,349.425,989.893,349.068Z" transform="translate(-18492.473 383.187)" fill="#3f3d56"/>
      <path id="Path_10507" data-name="Path 10507" d="M576.706,389.088a8.756,8.756,0,0,1,.061,4.4c-.478,1.405-1.983,2.58-3.4,2.149-1.1-.334-1.739-1.443-2.522-2.288-4.354-4.7-14.177-1.979-16.867-7.794-1.1-2.373-.352-5.217-1.1-7.722a6.873,6.873,0,0,0-6.96-4.728,14.3,14.3,0,0,0-4.005,1.2,100.992,100.992,0,0,1-26.537,6.637,21.8,21.8,0,0,0-5.1.928c-3.739,1.355-6.294,4.822-8.112,8.359s-3.16,7.367-5.6,10.509c-2.562,3.3-6.151,5.615-9.5,8.117a9.692,9.692,0,0,0-3.134,3.285,10.275,10.275,0,0,0-.629,4.881l.684,20.122c.088,2.588.2,5.269,1.357,7.585,1.447,2.892,4.3,4.787,6.287,7.342a14.38,14.38,0,0,1,2.983,9.183c-.042,1.332-.175,2.908.863,3.744a3.8,3.8,0,0,0,2.122.61l27.22,2.228c4.788.392,10.095,1.036,13.221,4.684,1.475,1.722,2.661,4.2,4.92,4.382a18.28,18.28,0,0,0,2.882-.4c2.446-.194,4.595,1.663,5.951,3.708a16.449,16.449,0,0,1,2.642,10.555c-.222,2.333-.945,4.6-1.1,6.938-.593,8.9,6.948,16.625,7.094,25.54.086,5.244-2.4,10.143-4.83,14.792,3.917,5.934.71,13.836,2.269,20.773,1.479,6.581,6.967,11.734,8.334,18.339.626,3.024.662,6.745,3.329,8.3a7.587,7.587,0,0,0,3.767.754,49.656,49.656,0,0,0,22.612-5.148c3.3-1.636,6.714-4.079,7.29-7.715.464-2.932-1.022-6.211.491-8.765,1.783-3.01,6.352-2.771,8.976-5.085,4.257-3.754.937-10.914,2.662-16.322,1.55-4.861,6.887-7.443,9.532-11.805a20.981,20.981,0,0,0,2.215-6,85.63,85.63,0,0,0,2.254-15.312,91.779,91.779,0,0,1,.693-9.379c2.852-17.719,20.369-29.584,26.057-46.606.543-1.626.8-3.791-.648-4.711a4.142,4.142,0,0,0-2.754-.288l-12.548,1.582a8.638,8.638,0,0,1-4.642-.267c-1.431-.647-2.457-2.458-1.7-3.833,2.131-3.86-2.253-8.738-4.2-12.695A187.325,187.325,0,0,0,610.932,403.6a3.075,3.075,0,0,1-.818-1.776l3.561.119c-1.2-4.314-3.186-9.034-7.377-10.612-2.361-.889-4.977-.582-7.5-.444C591.585,391.282,583.849,390.193,576.706,389.088Z" transform="translate(-18370.773 376.83)" fill="#3f3d56"/>
      <path id="Path_10508" data-name="Path 10508" d="M606.53,255c1.888,2.005,4,4.132,6.737,4.481,4.826.617,8.3-4.373,10.505-8.708a4.255,4.255,0,0,0,4.44,3.936,8.766,8.766,0,0,0,3.34-1.306,65.79,65.79,0,0,1,31.168-8.057,3.366,3.366,0,0,1,2.57-3.7c2.215-.439,4.211,1.476,5.28,3.466s1.735,4.3,3.433,5.785,4.985,1.424,5.656-.732c.644-2.07-1.513-3.836-3.305-5.057s-3.681-3.48-2.474-5.281c9.155-2.027,18.367-4.061,27.736-4.464a11.614,11.614,0,0,0,4.669-.8,3.629,3.629,0,0,0,2.18-3.837,10.572,10.572,0,0,1-11.033-4.162c13-1.073,26.825-1.987,38.345,4.13,1.382,2.968-5.663,5.437-3.778,8.114.6.854,1.806.954,2.85.973,8.005.149,16.057.294,23.972-.914,2.893-.442,5.814-1.065,8.718-.707,4.837.6,8.974,3.824,13.733,4.876a7.348,7.348,0,0,0,5.741-.684c1.633-1.127,2.335-3.692,1-5.156,4.481-4.391,11.917-3.3,17.828-1.2s11.511,5.493,17.767,5.961c4.486.336,9.035-.871,13.468-.1,2.786.482,5.378,1.721,8.1,2.483,5.149,1.44,10.6,1.136,15.943,1.205a111.708,111.708,0,0,1,39.809,7.91,11.835,11.835,0,0,1,4.425,2.615,4.339,4.339,0,0,1,.988,4.761l-13.1-1.914c1.234,2.429,4.427,2.843,7.019,3.681s5.281,3.7,3.723,5.937c-2.809-.894-5.355,1.914-6.774,4.5s-3.148,5.679-6.092,5.837c-2.636.141-5.825-2.1-7.543-.1a51.443,51.443,0,0,1,6.061,9.69c1.7,3.537,2.907,7.993.612,11.175a2.9,2.9,0,0,1-1.549,1.2c-1.874.474-3.092-1.818-4.435-3.208-1.693-1.751-4.255-2.247-6.548-3.068s-4.709-2.437-4.889-4.866c-.112-1.511.686-2.916,1.274-4.313a16.619,16.619,0,0,0,1.263-7.454,8.466,8.466,0,0,0-2.176-5.616c-1.473-1.433-4.015-1.887-5.6-.575-.738.612-1.329,1.592-2.287,1.628-1.692.065-2.992-2.886-4.354-1.879a4.626,4.626,0,0,1-.629,3.094c-4.063,3.534-10.306,2.039-15.544,3.287a29.178,29.178,0,0,0-7.092,3.1,4.563,4.563,0,0,0-2.027,1.7,3.138,3.138,0,0,0,1.22,3.743,9.681,9.681,0,0,0,4.021,1.373c6.386,1.21,12.866,3.082,17.908,7.184s8.349,10.883,6.753,17.184L852.966,300.1q.717,7.579.814,15.2a6.834,6.834,0,0,1-.4,2.924c-.9,1.983-3.331,2.65-5.464,3.088a4.28,4.28,0,0,0-3.285,5.483c.758,2.469,2.647,4.395,4.376,6.313s3.432,4.1,3.658,6.672-1.715,5.473-4.292,5.295c-1.953-.136-3.4-1.884-4.236-3.656s-1.329-3.746-2.581-5.252c-3.789-4.557-12.3-2.6-15.7-7.463a7.677,7.677,0,0,0-1.588,7.306c1.579-.989,3.741-.07,4.928,1.366s1.746,3.278,2.678,4.892c1.257,2.177,3.258,4.107,3.434,6.615a21.611,21.611,0,0,0,.048,2.845c.312,1.52,1.6,2.611,2.487,3.881,2.072,2.956,1.97,7.016.634,10.369s-3.735,6.155-6.112,8.872a107.018,107.018,0,0,1-13.308,13.4,13.982,13.982,0,0,0-3.778,3.8c-.875,1.572-.919,3.779.425,4.974-.962.048-2.686.521-3.648.569a84.807,84.807,0,0,1-.22-11.6c-3.795-1.822-7.881,3.058-7.391,7.239s3.514,7.537,5.667,11.154c1.575,2.645,2.745,5.73,2.219,8.763s-3.233,5.832-6.3,5.564c-4.878-.426-6.919-7.429-11.749-8.23a1.974,1.974,0,0,0-1.271.126c-.717.394-.842,1.353-.882,2.17-.2,4.01-.369,8.179,1.2,11.876,2.29,5.408,8.206,9.951,6.965,15.691-6.685-3.107-10.161-10.6-11.739-17.805s-1.841-14.761-4.67-21.568c-2.148,2.753-6.663.477-8.625-2.411-1.861-2.738-3.006-5.906-4.811-8.681s-4.571-5.26-7.878-5.413c-3.467-.16-6.474,2.219-9.119,4.468-2.175,1.849-4.407,3.77-5.678,6.326-1.85,3.719-1.366,8.1-1.455,12.255-.1,4.489-1.048,9.226-4.107,12.512s-8.707,4.431-12.082,1.469c-1.762-1.546-2.615-3.857-3.375-6.074a297.36,297.36,0,0,1-9.137-32.616c-.567,2.519-2.779,5.766-4.892,4.282a4.381,4.381,0,0,1-1.127-1.452c-3.942-6.681-11.241-10.688-18.617-13.091s-15.135-3.523-22.429-6.164a56.812,56.812,0,0,1-11.635-5.8,9.151,9.151,0,0,0-.559,9.36,7.456,7.456,0,0,0,8.413,3.521c1.62-.517,2.987-1.642,4.594-2.2s3.764-.283,4.466,1.266c.673,1.482-.344,3.275.16,4.822.768,2.357,4.322,2.538,5.565,4.683.925,1.6.164,3.714-1.156,5a20.931,20.931,0,0,1-4.694,2.89c-5.229,2.908-8.948,7.872-13.518,11.734s-11.018,6.682-16.465,4.2c1.3-6.574-6.533-11.4-7.974-17.945-.474-2.154-.228-4.442-.905-6.541-.98-3.039-3.677-5.129-5.889-7.432a29.169,29.169,0,0,1-8-21.222c.12-2.7.616-5.454,0-8.09s-2.8-5.188-5.5-5.069c-6.178.273-13.96.732-17.2-4.534-1.157-1.88-1.66-4.632.012-6.072,1.18-1.016,2.921-.92,4.471-.768l13.919,1.369c3.255.32,6.775.585,9.568-1.117s4-6.22,1.417-8.222c-1.89-1.463-5.276-1.384-5.826-3.71-.458-1.937,1.687-4.135.529-5.754-.83-1.161-2.7-.839-3.829.031s-1.952,2.143-3.218,2.8c-2.221,1.156-4.875.056-7.264-.692s-5.593-.811-6.752,1.408c-1.3,2.482,1.15,5.735-.137,8.222-1.7,3.288-7.461,1.416-9.849,4.245-2.741,3.246,1.865,8.086.941,12.232a7.614,7.614,0,0,1-7.5-.421,7.286,7.286,0,0,1-3.149-6.784c.229-1.865,1.2-3.769.55-5.532-.527-1.425-1.958-2.274-3.288-3.008L567.321,315.8c-1.256,2.33.332,5.218,2.317,6.967s4.473,3.068,5.777,5.37a7.049,7.049,0,0,1-2.652,9.294,1.627,1.627,0,0,1-1.341.234,1.87,1.87,0,0,1-.87-1.169c-2.387-6.107-5.97-12.129-11.7-15.319s-13.96-2.534-17.717,2.84c-.892,1.277-1.491,2.732-2.268,4.081-4.13,7.17-12.983,10.566-21.254,10.344a4.221,4.221,0,0,1-2.319-.545c-1.337-.923-1.277-2.882-1.072-4.494l.868-6.84c.174-1.373.427-2.892,1.514-3.749,1.532-1.209,3.743-.446,5.694-.474a7.216,7.216,0,0,0,6.55-5.055,8.133,8.133,0,0,0-2.264-8.088c-.894-.84-2.095-1.9-1.622-3.028a2.5,2.5,0,0,1,1.755-1.182c3.505-1.018,7.209-1.285,10.656-2.486s6.789-3.658,7.606-7.216c.25-1.09.364-2.411,1.343-2.951a4.028,4.028,0,0,1,1.552-.317,7.554,7.554,0,0,0,6.48-7.875c1.652-1.154,3.966-.305,5.564.922s3.009,2.85,4.953,3.379c3.624.986,7.126-2.222,10.881-2.237,1.579-.006,3.214.552,4.7.017,1.506-.543,2.406-2.042,3.562-3.15s3.184-1.783,4.252-.59l-.909-6.733a13.237,13.237,0,0,0,10.772-1.948l-11.748-3.969a2.553,2.553,0,0,1-1.1-.587c-.854-.92-.006-2.353.689-3.4,1.661-2.5,1.94-6.621-.792-7.866-1.865-.85-4.006.17-5.8,1.168l-8.574,4.781c-.273,1.63,1.721,2.554,2.956,3.651a4.956,4.956,0,0,1-3.232,8.659,6.175,6.175,0,0,1,1.1,5.235l-5.769.415a2.5,2.5,0,0,1-1.871-.365c-.617-.548-.533-1.508-.676-2.321-.345-1.962-2.266-3.337-4.226-3.689a14.865,14.865,0,0,0-5.907.546,3.525,3.525,0,0,1-2.539-.059,2.535,2.535,0,0,1-1-1.268c-.851-2.064-.056-4.489,1.311-6.254a34.708,34.708,0,0,1,4.918-4.524,28.667,28.667,0,0,0,8.524-13.221c3.176-1.331,6.464-3.139,9.64-4.469A29.5,29.5,0,0,1,589.9,243.2l10.755.205c3.184.061,6.455.139,9.4,1.353s5.532,3.84,5.735,7.018a2.154,2.154,0,0,1-.69,1.97,2.541,2.541,0,0,1-1.36.306C610.766,254.152,609.5,254.892,606.53,255Z" transform="translate(-18378.494 413.715)" fill="#3f3d56"/>
      <path id="Path_10509" data-name="Path 10509" d="M520.038,308.534a3.147,3.147,0,0,0,.858-3.165,5.887,5.887,0,0,0-6.1,1.151,10.278,10.278,0,0,0-1.633,2.159c-1.413,2.306-2.663,5.06-1.844,7.638a2.17,2.17,0,0,0,.993,1.358,2.611,2.611,0,0,0,1.157.181,38.8,38.8,0,0,0,4.658-.287c.949-.116,2.051-.384,2.418-1.267.482-1.161-.685-2.474-.345-3.684a4.025,4.025,0,0,1,.994-1.423,1.881,1.881,0,0,0,.586-1.58c-.137-.568-1.007-.89-1.32-.4" transform="translate(-18377.73 393.886)" fill="#3f3d56"/>
      <path id="Path_10510" data-name="Path 10510" d="M531.85,295.649a13.031,13.031,0,0,0-4.221-.265,1.841,1.841,0,0,0-.9.2,1.5,1.5,0,0,0-.554.8,3.987,3.987,0,0,0,2.322,4.886,4.99,4.99,0,0,1,1.44.578c1.194.926.433,2.819.659,4.313.254,1.678,1.878,3.086,1.58,4.756-.235,1.316-1.64,2.358-1.414,3.675.237,1.38,1.988,1.794,3.383,1.9a4.255,4.255,0,0,0,2.4-.275,3.712,3.712,0,0,0,1.512-2.19,14.041,14.041,0,0,0,.707-5.286,5.013,5.013,0,0,0-.6-2.333,13.028,13.028,0,0,0-1.393-1.6C534.1,301.716,536.914,297.076,531.85,295.649Z" transform="translate(-18381.471 396.303)" fill="#3f3d56"/>
    </g>
    <g id="Group_2416" data-name="Group 2416">
      <g id="Group_2417" data-name="Group 2417" transform="translate(0 1)">
        <g id="Rectangle_2720" data-name="Rectangle 2720" transform="translate(1274 645)" fill="#fff" stroke="#3f3d56" stroke-width="1">
          <rect width="143" height="39" rx="3" stroke="none"/>
          <rect x="0.5" y="0.5" width="142" height="38" rx="2.5" fill="none"/>
        </g>
        <g id="Rectangle_2723" data-name="Rectangle 2723" transform="translate(1466 714)" fill="#fff" stroke="#3f3d56" stroke-width="1">
          <rect width="127" height="68" rx="3" stroke="none"/>
          <rect x="0.5" y="0.5" width="126" height="67" rx="2.5" fill="none"/>
        </g>
      </g>
      <g id="Group_2418" data-name="Group 2418">
        <circle id="Ellipse_619" data-name="Ellipse 619" cx="10.421" cy="10.421" r="10.421" transform="translate(1287.145 652.771)" fill="#6c63ff"/>
        <path id="Path_10514" data-name="Path 10514" d="M401.494,192.745a1.737,1.737,0,0,0,0,3.474h81.879a1.737,1.737,0,1,0,0-3.474Z" transform="translate(920.139 463.499)" fill="#e6e6e6"/>
        <path id="Path_10515" data-name="Path 10515" d="M401.494,210.718a1.737,1.737,0,0,0,0,3.474h35.233a1.737,1.737,0,0,0,0-3.474Z" transform="translate(920.139 455.947)" fill="#e6e6e6"/>
        <path id="Path_10524" data-name="Path 10524" d="M320.254,299.265a87.525,87.525,0,0,1,37.053-16.75,86.259,86.259,0,0,1,40.893,2.1,87.238,87.238,0,0,1,19.083,8.269,111.048,111.048,0,0,1,16.977,12.649c5.392,4.726,10.607,9.661,16.235,14.11a90.957,90.957,0,0,0,56.593,19.908q2.549,0,5.1-.14c.92-.051.926-1.489,0-1.438a89.49,89.49,0,0,1-58.5-17.678c-5.834-4.362-11.161-9.35-16.6-14.184A128.383,128.383,0,0,0,420.416,293.1a88.05,88.05,0,0,0-97.213,2.216c-1.35.939-2.668,1.919-3.965,2.929-.729.568.295,1.578,1.017,1.017Z" transform="translate(954.078 427.024)" fill="#3f3d56"/>
        <circle id="Ellipse_620" data-name="Ellipse 620" cx="7.471" cy="7.471" r="7.471" transform="translate(1266.097 718.296)" fill="#3f3d56"/>
        <circle id="Ellipse_621" data-name="Ellipse 621" cx="7.471" cy="7.471" r="7.471" transform="translate(1544.048 817.495)" fill="#3f3d56"/>
        <circle id="Ellipse_622" data-name="Ellipse 622" cx="10.421" cy="10.421" r="10.421" transform="translate(1478.77 725.907)" fill="#6c63ff"/>
        <path id="Path_10526" data-name="Path 10526" d="M731.987,318.883a1.737,1.737,0,1,0,0,3.474h65.644a1.737,1.737,0,0,0,0-3.474Z" transform="translate(781.271 410.498)" fill="#e6e6e6"/>
        <path id="Path_10527" data-name="Path 10527" d="M731.987,336.856a1.737,1.737,0,1,0,0,3.474H767.22a1.737,1.737,0,1,0,0-3.474Z" transform="translate(781.271 402.946)" fill="#e6e6e6"/>
        <path id="Path_10528" data-name="Path 10528" d="M676.215,365.589c-1.321,0-2.4.779-2.4,1.737s1.075,1.737,2.4,1.737h96.732c1.321,0,2.4-.779,2.4-1.737s-1.075-1.737-2.4-1.737Z" transform="translate(804.983 390.873)" fill="#e6e6e6"/>
        <path id="Path_10529" data-name="Path 10529" d="M676.215,383.562c-1.321,0-2.4.779-2.4,1.737s1.075,1.737,2.4,1.737h96.732c1.321,0,2.4-.779,2.4-1.737s-1.075-1.737-2.4-1.737Z" transform="translate(804.983 383.321)" fill="#e6e6e6"/>
        <path id="Path_10530" data-name="Path 10530" d="M638.782,488.987c6.878-2.984,14.557-.382,21.039,2.367,3.339,1.416,6.642,2.928,10.1,4.046a57.547,57.547,0,0,0,8.9,2.11,62.91,62.91,0,0,0,18.287.112,63.851,63.851,0,0,0,17.648-5.132,59.677,59.677,0,0,0,15.274-9.986q.868-.784,1.7-1.6c.662-.649-.355-1.665-1.017-1.017a57.979,57.979,0,0,1-14.9,10.518,62.417,62.417,0,0,1-17.311,5.561,61.135,61.135,0,0,1-18.242.315,57.413,57.413,0,0,1-8.932-1.942,94.479,94.479,0,0,1-9.858-3.829c-6.543-2.81-13.813-5.562-21-3.624a17.526,17.526,0,0,0-2.412.861c-.847.367-.115,1.606.726,1.241Z" transform="translate(820.168 342.936)" fill="#3f3d56"/>
        <path id="Path_10533" data-name="Path 10533" d="M827.953,443.474l-10.944,5.557c-3.906,1.984-7.676,1.645-9.12-2.492h0a7.237,7.237,0,0,1,5.5-9.5l10.4-1.942,44.547-14.78,26.985-19.134,9.892,15.76-31.18,16.825Z" transform="translate(748.819 375.916)" fill="#ffb8b8"/>
        <path id="Path_10534" data-name="Path 10534" d="M807.74,694.4l-8.374-1.4.931-15.816h8.839Z" transform="translate(820.119 309.457)" fill="#ffb8b8"/>
        <path id="Path_10535" data-name="Path 10535" d="M943.532,668.639l-8.1,2.528-6.3-14.538,7.89-3.983Z" transform="translate(765.594 319.769)" fill="#ffb8b8"/>
        <path id="Path_10536" data-name="Path 10536" d="M995.872,632.5l-10.234,4.187-48.844-64.195-15.351,75.359-10.234-1.861c-6.565-64.969-11.918-131.238-5.35-162.58l37.912-1.628,17.212,54.891,8.373,37.214Z" transform="translate(708.741 342.052)" fill="#2f2e41"/>
        <path id="Path_10537" data-name="Path 10537" d="M915.539,800.4h0a7.347,7.347,0,0,1-4.555-.484l-4.974-2.238c-4.171-.214-7.011.617-9.333-2.414a6.086,6.086,0,0,1-.711-6.135h0a6.128,6.128,0,0,1,5-3.641l6.832-4.305.359,3.227c3.122,1.769,6.83,1,10.758-.717l2.144,7.505a7.347,7.347,0,0,1-5.525,9.2Z" transform="translate(711.859 216.248)" fill="#2f2e41"/>
        <path id="Path_10538" data-name="Path 10538" d="M1060.69,775.527h0a7.348,7.348,0,0,1-4.465,1.021l-5.431-.5c-4.014,1.152-6.431,2.86-9.611.748a6.086,6.086,0,0,1-2.664-5.572h0a6.128,6.128,0,0,1,3.551-5.069l5.064-6.29,1.387,2.936c3.528.659,6.786-1.267,9.942-4.172l4.465,6.4a7.347,7.347,0,0,1-2.237,10.5Z" transform="translate(651.751 225.725)" fill="#2f2e41"/>
        <circle id="Ellipse_623" data-name="Ellipse 623" cx="16.746" cy="16.746" r="16.746" transform="translate(1621.811 724.283)" fill="#ffb8b8"/>
        <path id="Path_10539" data-name="Path 10539" d="M849.694,295.675l-21.864-4.652-2.791-18.142,15.351-3.256Z" transform="translate(809.331 480.708)" fill="#ffb8b8"/>
        <path id="Path_10540" data-name="Path 10540" d="M945.9,442.928H906.826l8.808-22.113c-.64-7.609,2.585-13.205,7.2-18.077l5.856-14.7c9.461-6.227,16.594-5.762,24.189,2.326C961.885,403.113,955.651,422.28,945.9,442.928Z" transform="translate(707.077 383.229)" fill="#6c63ff"/>
        <path id="Path_10541" data-name="Path 10541" d="M933.808,509.176,932.7,521.4c-.4,4.363-2.688,7.376-6.959,6.4h0a7.237,7.237,0,0,1-5.119-9.712l3.885-9.842,11.164-45.588-1.861-33.028h18.607l-2.326,35.354Z" transform="translate(701.494 363.964)" fill="#ffb8b8"/>
        <path id="Path_10542" data-name="Path 10542" d="M962.723,414.388h-21.4l1.5-13.959a9.683,9.683,0,0,1,9.192-9.276h0a9.683,9.683,0,0,1,10.159,9.292Z" transform="translate(692.581 380.137)" fill="#6c63ff"/>
        <circle id="Ellipse_624" data-name="Ellipse 624" cx="6.295" cy="6.295" r="6.295" transform="translate(1652.989 711.221)" fill="#2f2e41"/>
        <path id="Path_10543" data-name="Path 10543" d="M973.329,291.455a6.29,6.29,0,0,1,6.292-5.883c-.13-.016-.259-.036-.391-.045a6.295,6.295,0,1,0-.808,12.563c.132.009.263.005.394.005A6.29,6.29,0,0,1,973.329,291.455Z" transform="translate(679.469 424.519)" fill="#2f2e41"/>
        <path id="Path_10544" data-name="Path 10544" d="M947.69,299.148c-5.614-4.657-21.715,1.262-22.754,4.393C917.344,304.575,911.6,309,911.6,316.88h0c4.513,1.849,9.646,1.621,15.2,0,8.845,7.208,9.451,16.27,4.072,26.678l6.618.132,8.2-11.989.392,12.161,15.17-.3V326.13a36.435,36.435,0,0,0-3.89-16.693C954.993,304.844,951.324,302.163,947.69,299.148Z" transform="translate(705.073 419.514)" fill="#2f2e41"/>
        <ellipse id="Ellipse_625" data-name="Ellipse 625" cx="3.01" cy="4.214" rx="3.01" ry="4.214" transform="translate(1635.626 741.025)" fill="#ffb8b8"/>
        <path id="Path_10545" data-name="Path 10545" d="M296.282,337.129s1.812-31.362,11.219-24.236-4.108,27.145-4.108,27.145Z" transform="translate(963.618 413.458)" fill="#ffb9b9"/>
        <path id="Path_10546" data-name="Path 10546" d="M230.789,515.9s20.9,23.458,9.2,25.07-16.289-22.1-16.289-22.1Z" transform="translate(994.114 327.715)" fill="#ffb9b9"/>
        <path id="Path_10547" data-name="Path 10547" d="M177.418,324.305h0A13.761,13.761,0,0,1,187.543,335.7l6.647,47.308,9.318,37.737s4.659,4.193,2.8,6.522,2.329,12.113,2.329,12.113l-11.647,3.727s-1.4-9.784-3.727-10.249c-2.047-.409-24.964-61.628-30.488-76.458-.762-2.045-1.193-3.208-1.193-3.208S162.51,321.976,177.418,324.305Z" transform="translate(1020.218 408.272)" fill="#575a89"/>
        <path id="Path_10548" data-name="Path 10548" d="M186.11,749.885l7.154,12.678c5.54,11.828.617,13.977-12.967,8.114l-3.1-14.97Z" transform="translate(1013.654 229.398)" fill="#ffb9b9"/>
        <path id="Path_10549" data-name="Path 10549" d="M187.286,775.533s3.4-5.529,4.624-4.6,6.295,4.936,6.295,4.936l6.6,6.321s22.3,2.357,8.129,10.169-22,1.335-22,1.335-19.843,1.032-19.523-4.5,6.719-14.295,6.719-14.295S186.2,780.3,187.286,775.533Z" transform="translate(1016.087 220.599)" fill="#2f2e41"/>
        <path id="Path_10550" data-name="Path 10550" d="M137.815,495.117l6.707,81.153s.224,48.513,7.378,57.9,7.378,14.084,7.378,14.084l14.755-7.6s-7.6-12.666-6.036-14.6a10.807,10.807,0,0,0,2.012-4.174L165.984,571.8l7.6-87.189Z" transform="translate(1030.203 340.862)" fill="#2f2e41"/>
        <path id="Path_10551" data-name="Path 10551" d="M155.551,766.85" transform="translate(1022.751 222.27)" fill="none" stroke="#3f3d56" stroke-miterlimit="10" stroke-width="1"/>
        <path id="Path_10552" data-name="Path 10552" d="M37.52,663.2l-6.26,16.543-14.2-5.935,7.489-12.4Z" transform="translate(1148.83 316.087)" fill="#ffb9b9"/>
        <path id="Path_10553" data-name="Path 10553" d="M136.994,765.547s5.324-3.328,5.99-2,3.328,6.988,3.328,6.988l2.995,8.319s18.3,11.647,2.662,12.312-19.633-8.319-19.633-8.319S114.7,775.2,117.361,770.538s11.98-9.491,11.98-9.491S134,769.207,136.994,765.547Z" transform="translate(1038.913 224.708)" fill="#2f2e41"/>
        <path id="Path_10554" data-name="Path 10554" d="M194.6,501.5l3.577,74.67s-32.64,67.516-36.217,69.3a8.98,8.98,0,0,0-4.471,5.365l-19.673-4.918,8.943-14.308,19.673-47.842s3.13-1.341,4.024-5.813,2.683-4.471-1.788-5.365a5.554,5.554,0,0,1-4.471-5.365L149.44,499.262Z" transform="translate(1030.203 334.706)" fill="#2f2e41"/>
        <circle id="Ellipse_626" data-name="Ellipse 626" cx="17.885" cy="17.885" r="17.885" transform="translate(1188.188 715.96) rotate(-80.783)" fill="#ffb9b9"/>
        <path id="Path_10555" data-name="Path 10555" d="M178.265,272.159s-1.341,22.8-3.13,25.039,18.779,1.789,18.779,1.789-1.341-19.226,0-21.015S178.265,272.159,178.265,272.159Z" transform="translate(1014.568 430.131)" fill="#ffb9b9"/>
        <path id="Path_10556" data-name="Path 10556" d="M194.644,423.906s-50.525-4.47-59.912,0c0,0,3.456-12.82,2.563-14.159-.649-.98,1.142-37.5.58-58.561-.319-11.886-3.061-23.494,4.911-32.319,2.714-3,5.74-5.514,8.935-6.743,0,0-.893-8.494,3.577-8.941,0,0,16.994-1.792,23.251,3.577,2,1.7,3.259,6.9,3.392,11.376-3.1,15.226-2,32.122.841,49.65.174,1.113.365,2.232.557,3.351C186.352,388.52,190.91,406.442,194.644,423.906Z" transform="translate(1031.499 417.216)" fill="#575a89"/>
        <path id="Path_10557" data-name="Path 10557" d="M183.408,255.746a23.817,23.817,0,0,1,4.491.62,11.368,11.368,0,0,0,12.151-8.476,6.5,6.5,0,0,1,.621-2.025c.827-1.35,2.711-1.608,4.263-1.3s3.025,1.037,4.606,1.12a7.053,7.053,0,0,0,6.087-3.445,11.682,11.682,0,0,0,1.494-7.056l-1.17,1.228a5.945,5.945,0,0,1-.53-3.231,3.749,3.749,0,0,0-3.552.909c-1.032.11-.253-1.914-1.02-2.614a1.774,1.774,0,0,0-1.248-.233c-2.2.021-3.972-1.658-5.7-3.01a24.23,24.23,0,0,0-10.234-4.668,13.464,13.464,0,0,0-7.467.362,15.95,15.95,0,0,0-5.043,3.577c-3.681,3.54-6.941,7.7-8.472,12.571a21.161,21.161,0,0,0-.1,12.271c.617,2.083,2.477,9.216,5.2,9.382C181.2,261.94,179.15,256,183.408,255.746Z" transform="translate(1015.955 450.695)" fill="#2f2e41"/>
        <path id="Path_10558" data-name="Path 10558" d="M195.574,328.181l6.408.686s6.29,12.2,5.833,14.748-1.452,1,1.379,5.072,10.864,14.6,11.859,16.144,28.114-19.146,26.428-25.346c0,0,8.565,6.145,12.235,6.963,0,0-27.949,36.655-31.844,41.346s-7.029,3.728-12.382.946-32.431-30.524-32.431-30.524Z" transform="translate(1011.192 406.591)" fill="#575a89"/>
        <path id="Path_10559" data-name="Path 10559" d="M202.422,403.12l-22.271-22.271,5.636-1.838,16.078,20.757C202.039,400.882,202.231,402,202.422,403.12Z" transform="translate(1012.414 385.233)" opacity="0.1" style="isolation: isolate"/>
        <g id="Group_2422" data-name="Group 2422" transform="translate(269 -3388.244)">
          <g id="Group_1275" data-name="Group 1275" transform="translate(1023 4123.148)">
            <rect id="Rectangle_2036" data-name="Rectangle 2036" width="47" height="13" transform="translate(0 42.095)" fill="#3f3d56"/>
            <ellipse id="Ellipse_223" data-name="Ellipse 223" cx="23.5" cy="5" rx="23.5" ry="5" transform="translate(0 36.095)" fill="#6c63ff"/>
            <ellipse id="Ellipse_224" data-name="Ellipse 224" cx="23.5" cy="5" rx="23.5" ry="5" transform="translate(0 51.095)" fill="#3f3d56"/>
            <rect id="Rectangle_2036-2" data-name="Rectangle 2036" width="47" height="15" transform="translate(0 22.095)" fill="#3f3d56"/>
            <ellipse id="Ellipse_223-2" data-name="Ellipse 223" cx="23.5" cy="5" rx="23.5" ry="5" transform="translate(0 18.095)" fill="#6c63ff"/>
            <ellipse id="Ellipse_224-2" data-name="Ellipse 224" cx="23.5" cy="5.5" rx="23.5" ry="5.5" transform="translate(0 32.095)" fill="#3f3d56"/>
            <rect id="Rectangle_2036-3" data-name="Rectangle 2036" width="47" height="13" transform="translate(0 6.095)" fill="#3f3d56"/>
            <ellipse id="Ellipse_223-3" data-name="Ellipse 223" cx="23.5" cy="5" rx="23.5" ry="5" transform="translate(0 0.095)" fill="#6c63ff"/>
            <ellipse id="Ellipse_224-3" data-name="Ellipse 224" cx="23.5" cy="5.5" rx="23.5" ry="5.5" transform="translate(0 14.095)" fill="#3f3d56"/>
          </g>
          <g id="Group_1276" data-name="Group 1276" transform="translate(1041.552 4142.143)">
            <rect id="Rectangle_2037" data-name="Rectangle 2037" width="2.513" height="2.513" transform="translate(3.613)" fill="#ff6584" opacity="0.8"/>
            <rect id="Rectangle_2038" data-name="Rectangle 2038" width="2.513" height="2.513" transform="translate(7.225)" fill="#ff6584"/>
            <rect id="Rectangle_2039" data-name="Rectangle 2039" width="2.513" height="2.513" fill="#ff6584" opacity="0.4"/>
          </g>
          <g id="Group_1277" data-name="Group 1277" transform="translate(1041.552 4160.172)">
            <rect id="Rectangle_2037-2" data-name="Rectangle 2037" width="2.513" height="2.513" transform="translate(3.613)" fill="#ff6584" opacity="0.8"/>
            <rect id="Rectangle_2038-2" data-name="Rectangle 2038" width="2.513" height="2.513" transform="translate(7.225)" fill="#ff6584"/>
            <rect id="Rectangle_2039-2" data-name="Rectangle 2039" width="2.513" height="2.513" fill="#ff6584" opacity="0.4"/>
          </g>
          <g id="Group_1278" data-name="Group 1278" transform="translate(1041.552 4178.351)">
            <rect id="Rectangle_2037-3" data-name="Rectangle 2037" width="2.513" height="2.513" transform="translate(3.613 0)" fill="#ff6584" opacity="0.8"/>
            <rect id="Rectangle_2038-3" data-name="Rectangle 2038" width="2.513" height="2.513" transform="translate(7.225 0)" fill="#ff6584"/>
            <rect id="Rectangle_2039-3" data-name="Rectangle 2039" width="2.513" height="2.513" transform="translate(0 0)" fill="#ff6584" opacity="0.4"/>
          </g>
        </g>
      </g>
    </g>
    <g id="Group_2420" data-name="Group 2420" transform="translate(390 -3322.244)">
      <g id="Group_1275-2" data-name="Group 1275" transform="translate(1023 4123.148)">
        <rect id="Rectangle_2036-4" data-name="Rectangle 2036" width="47" height="13" transform="translate(0 42.095)" fill="#3f3d56"/>
        <ellipse id="Ellipse_223-4" data-name="Ellipse 223" cx="23.5" cy="5" rx="23.5" ry="5" transform="translate(0 36.095)" fill="#6c63ff"/>
        <ellipse id="Ellipse_224-4" data-name="Ellipse 224" cx="23.5" cy="5" rx="23.5" ry="5" transform="translate(0 51.095)" fill="#3f3d56"/>
        <rect id="Rectangle_2036-5" data-name="Rectangle 2036" width="47" height="15" transform="translate(0 22.095)" fill="#3f3d56"/>
        <ellipse id="Ellipse_223-5" data-name="Ellipse 223" cx="23.5" cy="5" rx="23.5" ry="5" transform="translate(0 18.095)" fill="#6c63ff"/>
        <ellipse id="Ellipse_224-5" data-name="Ellipse 224" cx="23.5" cy="5.5" rx="23.5" ry="5.5" transform="translate(0 32.095)" fill="#3f3d56"/>
        <rect id="Rectangle_2036-6" data-name="Rectangle 2036" width="47" height="13" transform="translate(0 6.095)" fill="#3f3d56"/>
        <ellipse id="Ellipse_223-6" data-name="Ellipse 223" cx="23.5" cy="5" rx="23.5" ry="5" transform="translate(0 0.095)" fill="#6c63ff"/>
        <ellipse id="Ellipse_224-6" data-name="Ellipse 224" cx="23.5" cy="5.5" rx="23.5" ry="5.5" transform="translate(0 14.095)" fill="#3f3d56"/>
      </g>
      <g id="Group_1276-2" data-name="Group 1276" transform="translate(1041.552 4142.143)">
        <rect id="Rectangle_2037-4" data-name="Rectangle 2037" width="2.513" height="2.513" transform="translate(3.613)" fill="#ff6584" opacity="0.8"/>
        <rect id="Rectangle_2038-4" data-name="Rectangle 2038" width="2.513" height="2.513" transform="translate(7.225)" fill="#ff6584"/>
        <rect id="Rectangle_2039-4" data-name="Rectangle 2039" width="2.513" height="2.513" fill="#ff6584" opacity="0.4"/>
      </g>
      <g id="Group_1277-2" data-name="Group 1277" transform="translate(1041.552 4160.172)">
        <rect id="Rectangle_2037-5" data-name="Rectangle 2037" width="2.513" height="2.513" transform="translate(3.613)" fill="#ff6584" opacity="0.8"/>
        <rect id="Rectangle_2038-5" data-name="Rectangle 2038" width="2.513" height="2.513" transform="translate(7.225)" fill="#ff6584"/>
        <rect id="Rectangle_2039-5" data-name="Rectangle 2039" width="2.513" height="2.513" fill="#ff6584" opacity="0.4"/>
      </g>
      <g id="Group_1278-2" data-name="Group 1278" transform="translate(1041.552 4178.351)">
        <rect id="Rectangle_2037-6" data-name="Rectangle 2037" width="2.513" height="2.513" transform="translate(3.613 0)" fill="#ff6584" opacity="0.8"/>
        <rect id="Rectangle_2038-6" data-name="Rectangle 2038" width="2.513" height="2.513" transform="translate(7.225 0)" fill="#ff6584"/>
        <rect id="Rectangle_2039-6" data-name="Rectangle 2039" width="2.513" height="2.513" transform="translate(0 0)" fill="#ff6584" opacity="0.4"/>
      </g>
    </g>
    <g id="Group_2421" data-name="Group 2421" transform="translate(477 -3510.244)">
      <g id="Group_1275-3" data-name="Group 1275" transform="translate(1023 4123.148)">
        <rect id="Rectangle_2036-7" data-name="Rectangle 2036" width="47" height="13" transform="translate(0 42.095)" fill="#3f3d56"/>
        <ellipse id="Ellipse_223-7" data-name="Ellipse 223" cx="23.5" cy="5" rx="23.5" ry="5" transform="translate(0 36.095)" fill="#6c63ff"/>
        <ellipse id="Ellipse_224-7" data-name="Ellipse 224" cx="23.5" cy="5" rx="23.5" ry="5" transform="translate(0 51.095)" fill="#3f3d56"/>
        <rect id="Rectangle_2036-8" data-name="Rectangle 2036" width="47" height="15" transform="translate(0 22.095)" fill="#3f3d56"/>
        <ellipse id="Ellipse_223-8" data-name="Ellipse 223" cx="23.5" cy="5" rx="23.5" ry="5" transform="translate(0 18.095)" fill="#6c63ff"/>
        <ellipse id="Ellipse_224-8" data-name="Ellipse 224" cx="23.5" cy="5.5" rx="23.5" ry="5.5" transform="translate(0 32.095)" fill="#3f3d56"/>
        <rect id="Rectangle_2036-9" data-name="Rectangle 2036" width="47" height="13" transform="translate(0 6.095)" fill="#3f3d56"/>
        <ellipse id="Ellipse_223-9" data-name="Ellipse 223" cx="23.5" cy="5" rx="23.5" ry="5" transform="translate(0 0.095)" fill="#6c63ff"/>
        <ellipse id="Ellipse_224-9" data-name="Ellipse 224" cx="23.5" cy="5.5" rx="23.5" ry="5.5" transform="translate(0 14.095)" fill="#3f3d56"/>
      </g>
      <g id="Group_1276-3" data-name="Group 1276" transform="translate(1041.552 4142.143)">
        <rect id="Rectangle_2037-7" data-name="Rectangle 2037" width="2.513" height="2.513" transform="translate(3.613)" fill="#ff6584" opacity="0.8"/>
        <rect id="Rectangle_2038-7" data-name="Rectangle 2038" width="2.513" height="2.513" transform="translate(7.225)" fill="#ff6584"/>
        <rect id="Rectangle_2039-7" data-name="Rectangle 2039" width="2.513" height="2.513" fill="#ff6584" opacity="0.4"/>
      </g>
      <g id="Group_1277-3" data-name="Group 1277" transform="translate(1041.552 4160.172)">
        <rect id="Rectangle_2037-8" data-name="Rectangle 2037" width="2.513" height="2.513" transform="translate(3.613)" fill="#ff6584" opacity="0.8"/>
        <rect id="Rectangle_2038-8" data-name="Rectangle 2038" width="2.513" height="2.513" transform="translate(7.225)" fill="#ff6584"/>
        <rect id="Rectangle_2039-8" data-name="Rectangle 2039" width="2.513" height="2.513" fill="#ff6584" opacity="0.4"/>
      </g>
      <g id="Group_1278-3" data-name="Group 1278" transform="translate(1041.552 4178.351)">
        <rect id="Rectangle_2037-9" data-name="Rectangle 2037" width="2.513" height="2.513" transform="translate(3.613 0)" fill="#ff6584" opacity="0.8"/>
        <rect id="Rectangle_2038-9" data-name="Rectangle 2038" width="2.513" height="2.513" transform="translate(7.225 0)" fill="#ff6584"/>
        <rect id="Rectangle_2039-9" data-name="Rectangle 2039" width="2.513" height="2.513" transform="translate(0 0)" fill="#ff6584" opacity="0.4"/>
      </g>
    </g>
    <path id="Path_10560" data-name="Path 10560" d="M-15454.633,666.74c9.639-15.324,44.8-34.6,82.41-22.434" transform="translate(16872)" fill="none" stroke="#707070" stroke-width="1"/>
  </g>
</svg>
