<svg xmlns="http://www.w3.org/2000/svg" width="34" height="34" viewBox="0 0 34 34">
  <path id="Icon_ionic-ios-help-buoy" data-name="Icon ionic-ios-help-buoy" d="M20.375,3.375a17,17,0,1,0,17,17A17,17,0,0,0,20.375,3.375ZM24.837,6.35A14.749,14.749,0,0,1,34.4,15.913l-7.258.49a7.848,7.848,0,0,0-2.771-2.779ZM9.971,9.971A14.607,14.607,0,0,1,15.913,6.35l.466,7.274a8.028,8.028,0,0,0-2.771,2.771l-7.266-.482A14.769,14.769,0,0,1,9.971,9.971ZM15.913,34.4A14.749,14.749,0,0,1,6.35,24.837l7.274-.466a7.913,7.913,0,0,0,2.763,2.762Zm4.463-8.467a5.558,5.558,0,1,1,5.558-5.558A5.563,5.563,0,0,1,20.375,25.933Zm10.4,4.847A14.66,14.66,0,0,1,24.837,34.4l-.482-7.266a7.873,7.873,0,0,0,2.787-2.8l7.258.49A14.635,14.635,0,0,1,30.779,30.779Z" transform="translate(-3.375 -3.375)" fill="#6e77a3"/>
</svg>
