<svg xmlns="http://www.w3.org/2000/svg" xmlns:xlink="http://www.w3.org/1999/xlink" width="529.734" height="443.187" viewBox="0 0 529.734 443.187">
  <defs>
    <linearGradient id="linear-gradient" x1="0.5" y1="1" x2="0.5" gradientUnits="objectBoundingBox">
      <stop offset="0" stop-color="gray" stop-opacity="0.251"/>
      <stop offset="0.535" stop-color="gray" stop-opacity="0.122"/>
      <stop offset="1" stop-color="gray" stop-opacity="0.102"/>
    </linearGradient>
  </defs>
  <g id="Group_2461" data-name="Group 2461" transform="translate(-1736 -1378)">
    <circle id="Ellipse_627" data-name="Ellipse 627" cx="92.889" cy="92.889" r="92.889" transform="translate(1780.846 1389.026)" fill="url(#linear-gradient)"/>
    <circle id="Ellipse_628" data-name="Ellipse 628" cx="87.157" cy="87.157" r="87.157" transform="translate(1786.579 1394.759)" fill="#ff5252"/>
    <rect id="Rectangle_2724" data-name="Rectangle 2724" width="8.312" height="80.749" transform="translate(1995.581 1378)" fill="#6c63ff"/>
    <rect id="Rectangle_2725" data-name="Rectangle 2725" width="236.31" height="121.124" transform="translate(1883.364 1453.999)" fill="#464353"/>
    <g id="Group_2423" data-name="Group 2423" transform="translate(1903.801 1481.915)" opacity="0.5">
      <rect id="Rectangle_2726" data-name="Rectangle 2726" width="45.395" height="36.208" fill="#fff"/>
      <rect id="Rectangle_2727" data-name="Rectangle 2727" width="45.395" height="36.208" transform="translate(75.118)" fill="#fff"/>
      <rect id="Rectangle_2728" data-name="Rectangle 2728" width="45.395" height="36.208" transform="translate(150.236)" fill="#fff"/>
    </g>
    <path id="Path_10561" data-name="Path 10561" d="M691.029,353.785c.033,130.2-105.52,235.749-235.716,235.716H172.1V353.785Z" transform="translate(1574.706 1188.681)" fill="#464353"/>
    <path id="Path_10562" data-name="Path 10562" d="M691.029,353.785a236.588,236.588,0,0,1-4.673,46.906H172.1V353.785Z" transform="translate(1574.706 1188.681)" fill="#6c63ff"/>
    <path id="Path_10563" data-name="Path 10563" d="M637.948,604.785a237.111,237.111,0,0,1-51.555,46.906H172.1V604.785Z" transform="translate(1574.706 1086.711)" fill="#6c63ff"/>
    <g id="Group_2424" data-name="Group 2424" transform="translate(1768.396 1616.748)" opacity="0.5">
      <rect id="Rectangle_2729" data-name="Rectangle 2729" width="48.306" height="38.53" fill="#fff"/>
      <rect id="Rectangle_2730" data-name="Rectangle 2730" width="48.306" height="38.53" transform="translate(79.935)" fill="#fff"/>
      <rect id="Rectangle_2731" data-name="Rectangle 2731" width="48.306" height="38.53" transform="translate(159.87)" fill="#fff"/>
    </g>
    <g id="Group_2425" data-name="Group 2425" transform="translate(2006.477 1616.748)" opacity="0.5">
      <rect id="Rectangle_2732" data-name="Rectangle 2732" width="48.306" height="38.53" fill="#fff"/>
      <rect id="Rectangle_2733" data-name="Rectangle 2733" width="48.306" height="38.53" transform="translate(79.935)" fill="#fff"/>
      <rect id="Rectangle_2734" data-name="Rectangle 2734" width="48.306" height="38.53" transform="translate(159.87)" fill="#fff"/>
    </g>
    <rect id="Rectangle_2735" data-name="Rectangle 2735" width="444.378" height="6.357" rx="3.179" transform="translate(1736 1773.507)" fill="#6c63ff"/>
    <rect id="Rectangle_2736" data-name="Rectangle 2736" width="164.655" height="6.357" rx="3.179" transform="translate(1736 1785.586)" fill="#6c63ff"/>
    <rect id="Rectangle_2737" data-name="Rectangle 2737" width="164.655" height="6.357" rx="3.179" transform="translate(1862.511 1800.208)" fill="#6c63ff"/>
    <rect id="Rectangle_2738" data-name="Rectangle 2738" width="164.655" height="6.357" rx="3.179" transform="translate(1999.829 1814.83)" fill="#6c63ff"/>
    <rect id="Rectangle_2739" data-name="Rectangle 2739" width="29.244" height="6.357" rx="3.179" transform="translate(2197.542 1773.507)" fill="#6c63ff"/>
    <rect id="Rectangle_2740" data-name="Rectangle 2740" width="29.244" height="6.357" rx="3.179" transform="translate(2030.345 1785.586)" fill="#6c63ff"/>
    <rect id="Rectangle_2741" data-name="Rectangle 2741" width="29.244" height="6.357" rx="3.179" transform="translate(1777.958 1800.208)" fill="#6c63ff"/>
    <rect id="Rectangle_2742" data-name="Rectangle 2742" width="29.244" height="6.357" rx="3.179" transform="translate(2060.224 1800.208)" fill="#6c63ff"/>
    <rect id="Rectangle_2743" data-name="Rectangle 2743" width="164.655" height="6.357" rx="3.179" transform="translate(1759.522 1814.83)" fill="#6c63ff"/>
    <path id="Path_10564" data-name="Path 10564" d="M602.254,76.785s78.968,2.969,90.843,0c0,0-7.719,14.844,0,23.75s-5.937,16.625-5.937,16.625H598.1Z" transform="translate(1401.64 1301.215)" fill="#6c63ff"/>
  </g>
</svg>
