<svg xmlns="http://www.w3.org/2000/svg" width="704.134" height="450.353" viewBox="0 0 704.134 450.353">
  <g id="Group_2412" data-name="Group 2412" transform="translate(-400.856 -3209.587)">
    <g id="Group_2406" data-name="Group 2406" transform="translate(641.286 3297.214)">
      <rect id="Rectangle_2704" data-name="Rectangle 2704" width="42.26" height="42.26" transform="translate(129.27 36.599) rotate(150)" fill="#ff6584"/>
      <path id="Path_10456" data-name="Path 10456" d="M909.106,480.684l-22.064-38.216L925.258,420.4l22.064,38.216Zm-19.514-37.532,20.2,34.982,34.982-20.2-20.2-34.982Z" transform="translate(-800.499 -415.326)" fill="#2f2e41"/>
      <circle id="Ellipse_607" data-name="Ellipse 607" cx="17.735" cy="17.735" r="17.735" transform="translate(56.636 132.581)" fill="#d0cde1"/>
      <path id="Path_10457" data-name="Path 10457" d="M886.669,593.337a18.669,18.669,0,1,1,18.669-18.669,18.668,18.668,0,0,1-18.669,18.669Zm0-35.47a16.8,16.8,0,1,0,16.8,16.8A16.8,16.8,0,0,0,886.669,557.867Z" transform="translate(-799.231 -424.353)" fill="#2f2e41"/>
      <rect id="Rectangle_2705" data-name="Rectangle 2705" width="186.685" height="174.551" transform="translate(7.035 182.127)" fill="#6c63ff"/>
      <rect id="Rectangle_2706" data-name="Rectangle 2706" width="39.204" height="184.897" transform="translate(80.774 177.385)" fill="#3f3d56"/>
      <path id="Path_10475" data-name="Path 10475" d="M1039.689,590.433c-1,16.466-23.246,28.508-23.246,28.508s-20.616-14.654-19.612-31.12,23.246-28.508,23.246-28.508S1040.693,573.968,1039.689,590.433Z" transform="translate(-807.806 -424.573)" fill="#3f3d56"/>
      <path id="Path_10476" data-name="Path 10476" d="M1041.789,644.633c-16.469-.952-28.581-23.157-28.581-23.157s14.59-20.661,31.059-19.709,28.581,23.157,28.581,23.157S1058.258,645.585,1041.789,644.633Z" transform="translate(-808.898 -427.397)" fill="#3f3d56"/>
      <path id="Path_10477" data-name="Path 10477" d="M885.647,562.641v60.934L825.04,543.58h46.167Z" transform="translate(-691.927 -361.453)" opacity="0.1"/>
      <rect id="Rectangle_2707" data-name="Rectangle 2707" width="224.022" height="38.27" transform="translate(138.931 106.354) rotate(52.85)" fill="#6c63ff"/>
      <rect id="Rectangle_2708" data-name="Rectangle 2708" width="40.137" height="40.137" transform="translate(194.625 175.997) rotate(52.85)" fill="#3f3d56"/>
      <rect id="Rectangle_2709" data-name="Rectangle 2709" width="42.26" height="42.26" transform="matrix(-0.966, -0.259, 0.259, -0.966, 59.94, 105.84)" fill="#d0cde1"/>
      <path id="Path_10478" data-name="Path 10478" d="M836.95,531.038l-42.623-11.421,11.421-42.624,42.623,11.421ZM796.613,518.3l39.017,10.455,10.455-39.018-39.017-10.455Z" transform="translate(-794.326 -419.093)" fill="#2f2e41"/>
    </g>
    <g id="Group_2407" data-name="Group 2407" transform="translate(514.318 3235.651)" opacity="0.5">
      <rect id="Rectangle_2710" data-name="Rectangle 2710" width="3.108" height="17.614" transform="translate(7.253 0)" fill="#47e6b1"/>
      <rect id="Rectangle_2711" data-name="Rectangle 2711" width="3.108" height="17.614" transform="translate(17.614 7.253) rotate(90)" fill="#47e6b1"/>
    </g>
    <g id="Group_2408" data-name="Group 2408" transform="translate(538.923 3642.326)" opacity="0.5">
      <rect id="Rectangle_2712" data-name="Rectangle 2712" width="3.108" height="17.614" transform="translate(7.262 0)" fill="#47e6b1"/>
      <rect id="Rectangle_2713" data-name="Rectangle 2713" width="3.108" height="17.614" transform="translate(17.614 7.253) rotate(90)" fill="#47e6b1"/>
    </g>
    <g id="Group_2409" data-name="Group 2409" transform="translate(505.618 3437.729)" opacity="0.5">
      <rect id="Rectangle_2714" data-name="Rectangle 2714" width="3.108" height="17.614" transform="translate(7.253)" fill="#47e6b1"/>
      <rect id="Rectangle_2715" data-name="Rectangle 2715" width="3.108" height="17.614" transform="translate(17.614 7.253) rotate(90)" fill="#47e6b1"/>
    </g>
    <g id="Group_2410" data-name="Group 2410" transform="translate(1000.334 3634.681)" opacity="0.5">
      <rect id="Rectangle_2716" data-name="Rectangle 2716" width="3.108" height="17.614" transform="translate(7.253)" fill="#47e6b1"/>
      <rect id="Rectangle_2717" data-name="Rectangle 2717" width="3.108" height="17.614" transform="translate(17.614 7.253) rotate(90)" fill="#47e6b1"/>
    </g>
    <g id="Group_2411" data-name="Group 2411" transform="translate(890.283 3362.989)" opacity="0.5">
      <rect id="Rectangle_2718" data-name="Rectangle 2718" width="3.108" height="17.614" transform="translate(7.262 0)" fill="#47e6b1"/>
      <rect id="Rectangle_2719" data-name="Rectangle 2719" width="3.108" height="17.614" transform="translate(17.614 7.253) rotate(90)" fill="#47e6b1"/>
    </g>
    <path id="Path_10479" data-name="Path 10479" d="M344.584,558.8a3.808,3.808,0,0,1-2.119-4.6,1.866,1.866,0,0,0,.084-.42h0a1.867,1.867,0,0,0-3.426-1.269h0a1.866,1.866,0,0,0-.215.373,3.808,3.808,0,0,1-4.6,2.119,1.864,1.864,0,0,0-.42-.084h0a1.867,1.867,0,0,0-1.269,3.426h0a1.869,1.869,0,0,0,.373.215,3.808,3.808,0,0,1,2.119,4.6,1.869,1.869,0,0,0-.084.42h0a1.867,1.867,0,0,0,3.426,1.269h0a1.866,1.866,0,0,0,.215-.373,3.808,3.808,0,0,1,4.6-2.119,1.867,1.867,0,0,0,.42.084h0a1.867,1.867,0,0,0,1.269-3.426h0A1.872,1.872,0,0,0,344.584,558.8Z" transform="translate(107.837 3030.004)" fill="#4d8af0" opacity="0.5"/>
    <path id="Path_10480" data-name="Path 10480" d="M328.085,738.149a3.808,3.808,0,0,1-2.119-4.6,1.865,1.865,0,0,0,.084-.42h0a1.867,1.867,0,0,0-3.426-1.27h0a1.871,1.871,0,0,0-.215.373,3.808,3.808,0,0,1-4.592,2.128,1.868,1.868,0,0,0-.42-.084h0a1.867,1.867,0,0,0-1.269,3.426h0a1.874,1.874,0,0,0,.373.215,3.808,3.808,0,0,1,2.119,4.6,1.87,1.87,0,0,0-.084.42h0a1.867,1.867,0,0,0,3.426,1.27h0a1.87,1.87,0,0,0,.215-.373,3.808,3.808,0,0,1,4.6-2.119,1.86,1.86,0,0,0,.42.084h0a1.867,1.867,0,0,0,1.269-3.426h0a1.867,1.867,0,0,0-.383-.224Z" transform="translate(85.6 2747.371)" fill="#4d8af0" opacity="0.5"/>
    <path id="Path_10481" data-name="Path 10481" d="M935.085,341.149a3.808,3.808,0,0,1-2.119-4.6,1.871,1.871,0,0,0,.084-.42h0a1.867,1.867,0,0,0-3.426-1.269h0a1.871,1.871,0,0,0-.215.373,3.808,3.808,0,0,1-4.592,2.128,1.864,1.864,0,0,0-.42-.084h0a1.867,1.867,0,0,0-1.269,3.426h0a1.87,1.87,0,0,0,.373.215,3.808,3.808,0,0,1,2.119,4.6,1.864,1.864,0,0,0-.084.42h0a1.867,1.867,0,0,0,3.426,1.269h0a1.868,1.868,0,0,0,.215-.373,3.808,3.808,0,0,1,4.6-2.119,1.866,1.866,0,0,0,.42.084h0a1.867,1.867,0,0,0,1.269-3.426h0A1.869,1.869,0,0,0,935.085,341.149Z" transform="translate(110.529 3066.896)" fill="#4d8af0" opacity="0.5"/>
    <path id="Path_10482" data-name="Path 10482" d="M907.614,530.489a3.808,3.808,0,0,1-2.119-4.6,1.87,1.87,0,0,0,.084-.42h0a1.867,1.867,0,0,0-3.426-1.269h0a1.871,1.871,0,0,0-.215.373,3.808,3.808,0,0,1-4.6,2.119,1.866,1.866,0,0,0-.42-.084h0a1.867,1.867,0,0,0-1.269,3.426h0a1.863,1.863,0,0,0,.373.215,3.808,3.808,0,0,1,2.119,4.6,1.867,1.867,0,0,0-.084.42h0a1.867,1.867,0,0,0,3.426,1.269h0a1.871,1.871,0,0,0,.215-.373,3.808,3.808,0,0,1,4.6-2.119,1.87,1.87,0,0,0,.42.084h0a1.867,1.867,0,0,0,1.269-3.426h0A1.864,1.864,0,0,0,907.614,530.489Z" transform="translate(70.354 2988.018)" fill="#4d8af0" opacity="0.5"/>
    <path id="Path_10484" data-name="Path 10484" d="M992.3,645.209a3.809,3.809,0,0,1-2.119-4.6,1.864,1.864,0,0,0,.084-.42h0a1.867,1.867,0,0,0-3.426-1.269h0a1.863,1.863,0,0,0-.215.373,3.808,3.808,0,0,1-4.6,2.119,1.866,1.866,0,0,0-.42-.084h0a1.867,1.867,0,0,0-1.269,3.426h0a1.86,1.86,0,0,0,.373.215,3.808,3.808,0,0,1,2.119,4.6,1.874,1.874,0,0,0-.084.42h0a1.867,1.867,0,0,0,3.426,1.269h0a1.866,1.866,0,0,0,.215-.373,3.808,3.808,0,0,1,4.6-2.119,1.868,1.868,0,0,0,.42.084h0a1.867,1.867,0,0,0,1.269-3.426h0A1.86,1.86,0,0,0,992.3,645.209Z" transform="translate(-261.049 2571.54)" fill="#4d8af0" opacity="0.5"/>
    <circle id="Ellipse_608" data-name="Ellipse 608" cx="6.217" cy="6.217" r="6.217" transform="translate(555.939 3525.583)" fill="#f55f44" opacity="0.5"/>
    <circle id="Ellipse_609" data-name="Ellipse 609" cx="6.217" cy="6.217" r="6.217" transform="translate(1010.676 3290.648)" fill="#f55f44" opacity="0.5"/>
    <circle id="Ellipse_610" data-name="Ellipse 610" cx="7.001" cy="7.001" r="7.001" transform="translate(849.427 3239.338)" fill="#f55f44" opacity="0.5"/>
    <circle id="Ellipse_611" data-name="Ellipse 611" cx="7.001" cy="7.001" r="7.001" transform="translate(542.33 3340.148)" fill="#f55f44" opacity="0.5"/>
    <circle id="Ellipse_612" data-name="Ellipse 612" cx="6.217" cy="6.217" r="6.217" transform="translate(1092.557 3519.572)" fill="#f55f44" opacity="0.5"/>
    <circle id="Ellipse_613" data-name="Ellipse 613" cx="7.001" cy="7.001" r="7.001" transform="translate(627.505 3269.497)" fill="#47e6b1" opacity="0.5"/>
    <path id="Path_10485" data-name="Path 10485" d="M992.3,645.209a3.809,3.809,0,0,1-2.119-4.6,1.864,1.864,0,0,0,.084-.42h0a1.867,1.867,0,0,0-3.426-1.269h0a1.863,1.863,0,0,0-.215.373,3.808,3.808,0,0,1-4.6,2.119,1.866,1.866,0,0,0-.42-.084h0a1.867,1.867,0,0,0-1.269,3.426h0a1.86,1.86,0,0,0,.373.215,3.808,3.808,0,0,1,2.119,4.6,1.874,1.874,0,0,0-.084.42h0a1.867,1.867,0,0,0,3.426,1.269h0a1.866,1.866,0,0,0,.215-.373,3.808,3.808,0,0,1,4.6-2.119,1.868,1.868,0,0,0,.42.084h0a1.867,1.867,0,0,0,1.269-3.426h0A1.86,1.86,0,0,0,992.3,645.209Z" transform="translate(-564.413 2716.221)" fill="#4d8af0" opacity="0.5"/>
  </g>
</svg>
