<svg xmlns="http://www.w3.org/2000/svg" width="337" height="227" viewBox="0 0 337 227">
  <g id="组_3683" data-name="组 3683" transform="translate(-952 -824)">
    <rect id="矩形_3060" data-name="矩形 3060" width="337" height="226" transform="translate(952 824)" fill="#fff"/>
    <g id="组_3681" data-name="组 3681" transform="translate(953 826.203)">
      <g id="组_1866" data-name="组 1866" transform="translate(140.927 0)">
        <path id="路径_10064" data-name="路径 10064" d="M177.182,421.3a17.968,17.968,0,0,1,6.243-3.253c6.367-1.822,12.954-.058,19.323,1.647a72.543,72.543,0,0,0,10.5,2.264,25.941,25.941,0,0,0,15.147-2.536,17.922,17.922,0,0,0,9.289-11.833,13.75,13.75,0,0,0,.251-1.856q-.713.439-1.43.866c-5.032,2.988-12.1,5.782-17.22,2.121a8.868,8.868,0,0,1-3.5-6.442,9.89,9.89,0,0,1,2.479-7.683,9.335,9.335,0,0,1,.956-.878,11.67,11.67,0,0,1,13.662-.194,13.976,13.976,0,0,1,5.469,11.49,102.3,102.3,0,0,0,8.611-6.038l.24.307a102.693,102.693,0,0,1-8.865,6.2,14.135,14.135,0,0,1-.273,2.186,18.316,18.316,0,0,1-9.488,12.1,26.328,26.328,0,0,1-15.374,2.579,72.835,72.835,0,0,1-10.559-2.276c-6.609-1.769-12.852-3.441-19.115-1.649a17.929,17.929,0,0,0-6.206,31.287l-.242.306a18.23,18.23,0,0,1,.1-28.715Zm60.779-16.039a13.6,13.6,0,0,0-5.3-11.419c-4.325-3.082-10.655-2.623-14.109,1.022a9.5,9.5,0,0,0-2.374,7.378,8.479,8.479,0,0,0,3.335,6.162c4.945,3.538,11.863.789,16.795-2.14Q237.138,405.767,237.961,405.256Z" transform="translate(-170.168 -351.001)" fill="#3f3d56"/>
        <path id="路径_10065" data-name="路径 10065" d="M546.5,234.574h89.132c16.885,0,30.573-9.624,30.573-26.509h0c0-16.885-13.688-23.922-30.573-23.922H607.645c-33.77,0-61.145,16.661-61.145,50.431Z" transform="translate(-473.131 -184.143)" fill="#3f3d56"/>
        <path id="路径_10066" data-name="路径 10066" d="M671.849,247.373h-74.18v-.195c0-13.262,5.167-24.188,14.943-31.6,9.027-6.842,21.478-10.459,36.007-10.459h23.231c7.409,0,13.653,1.628,18.056,4.708,4.987,3.489,7.516,8.651,7.516,15.344a20.438,20.438,0,0,1-7.5,16.409C685.343,245.317,678.927,247.373,671.849,247.373Zm-73.79-.39h73.79c15.062,0,25.182-8.764,25.182-21.809,0-12.5-9.179-19.662-25.182-19.662H648.618C624.228,205.512,598.17,216.412,598.059,246.983Z" transform="translate(-514.324 -201.032)" fill="#6c63ff"/>
        <g id="组_1863" data-name="组 1863" transform="translate(126.778 14.24)">
          <path id="路径_10041" data-name="路径 10041" d="M434.073,261.137H413.027a.255.255,0,1,1,0-.511h21.045a.255.255,0,1,1,0,.511Z" transform="translate(-412.721 -260.626)" fill="#f2f2f2"/>
          <path id="路径_10042" data-name="路径 10042" d="M542.939,285.9h-33.1a.255.255,0,0,1,0-.511h33.1a.255.255,0,0,1,0,.511Z" transform="translate(-498.55 -282.583)" fill="#f2f2f2"/>
          <path id="路径_10043" data-name="路径 10043" d="M434.973,310.669H413.928a.255.255,0,0,1,0-.511h21.045a.255.255,0,0,1,0,.511Z" transform="translate(-413.52 -304.539)" fill="#f2f2f2"/>
          <path id="路径_10044" data-name="路径 10044" d="M637.151,311.119H616.107a.255.255,0,1,1,0-.511h21.045a.255.255,0,1,1,0,.511Z" transform="translate(-592.763 -304.938)" fill="#f2f2f2"/>
          <path id="路径_10045" data-name="路径 10045" d="M435.423,335.434H414.378a.255.255,0,1,1,0-.511h21.045a.255.255,0,1,1,0,.511Z" transform="translate(-413.918 -326.495)" fill="#f2f2f2"/>
          <path id="路径_10046" data-name="路径 10046" d="M435.874,360.2H414.829a.255.255,0,0,1,0-.511h21.045a.255.255,0,1,1,0,.511Z" transform="translate(-414.318 -348.452)" fill="#f2f2f2"/>
          <path id="路径_10047" data-name="路径 10047" d="M637.443,261.587h-6.027a.255.255,0,1,1,0-.511h6.027a.255.255,0,1,1,0,.511Z" transform="translate(-606.336 -261.025)" fill="#f2f2f2"/>
          <path id="路径_10048" data-name="路径 10048" d="M637.443,335.434h-6.027a.255.255,0,1,1,0-.511h6.027a.255.255,0,1,1,0,.511Z" transform="translate(-606.336 -326.495)" fill="#f2f2f2"/>
          <path id="路径_10049" data-name="路径 10049" d="M637.444,359.75h-6.027a.255.255,0,1,1,0-.511h6.027a.255.255,0,1,1,0,.511Z" transform="translate(-606.336 -348.052)" fill="#f2f2f2"/>
          <path id="路径_10050" data-name="路径 10050" d="M726.6,359.75h-6.028a.255.255,0,0,1,0-.511H726.6a.255.255,0,1,1,0,.511Z" transform="translate(-685.379 -348.052)" fill="#f2f2f2"/>
          <path id="路径_10051" data-name="路径 10051" d="M418.6,285.9h-6.027a.255.255,0,1,1,0-.511H418.6a.255.255,0,1,1,0,.511Z" transform="translate(-412.322 -282.583)" fill="#f2f2f2"/>
        </g>
        <g id="组_1865" data-name="组 1865" transform="translate(126.778 28.658)">
          <path id="路径_10041-2" data-name="路径 10041" d="M434.073,261.137H413.027a.255.255,0,1,1,0-.511h21.045a.255.255,0,1,1,0,.511Z" transform="translate(-412.721 -260.626)" fill="#f2f2f2"/>
          <path id="路径_10042-2" data-name="路径 10042" d="M542.939,285.9h-33.1a.255.255,0,0,1,0-.511h33.1a.255.255,0,0,1,0,.511Z" transform="translate(-498.55 -282.583)" fill="#f2f2f2"/>
          <path id="路径_10043-2" data-name="路径 10043" d="M434.973,310.669H413.928a.255.255,0,0,1,0-.511h21.045a.255.255,0,0,1,0,.511Z" transform="translate(-413.52 -304.539)" fill="#f2f2f2"/>
          <path id="路径_10044-2" data-name="路径 10044" d="M637.151,311.119H616.107a.255.255,0,1,1,0-.511h21.045a.255.255,0,1,1,0,.511Z" transform="translate(-592.763 -304.938)" fill="#f2f2f2"/>
          <path id="路径_10045-2" data-name="路径 10045" d="M435.423,335.434H414.378a.255.255,0,1,1,0-.511h21.045a.255.255,0,1,1,0,.511Z" transform="translate(-413.918 -326.495)" fill="#f2f2f2"/>
          <path id="路径_10046-2" data-name="路径 10046" d="M435.874,360.2H414.829a.255.255,0,0,1,0-.511h21.045a.255.255,0,1,1,0,.511Z" transform="translate(-414.318 -348.452)" fill="#f2f2f2"/>
          <path id="路径_10047-2" data-name="路径 10047" d="M637.443,261.587h-6.027a.255.255,0,1,1,0-.511h6.027a.255.255,0,1,1,0,.511Z" transform="translate(-606.336 -261.025)" fill="#f2f2f2"/>
          <path id="路径_10048-2" data-name="路径 10048" d="M637.443,335.434h-6.027a.255.255,0,1,1,0-.511h6.027a.255.255,0,1,1,0,.511Z" transform="translate(-606.336 -326.495)" fill="#f2f2f2"/>
          <path id="路径_10049-2" data-name="路径 10049" d="M637.444,359.75h-6.027a.255.255,0,1,1,0-.511h6.027a.255.255,0,1,1,0,.511Z" transform="translate(-606.336 -348.052)" fill="#f2f2f2"/>
          <path id="路径_10050-2" data-name="路径 10050" d="M726.6,359.75h-6.028a.255.255,0,0,1,0-.511H726.6a.255.255,0,1,1,0,.511Z" transform="translate(-685.379 -348.052)" fill="#f2f2f2"/>
          <path id="路径_10051-2" data-name="路径 10051" d="M418.6,285.9h-6.027a.255.255,0,1,1,0-.511H418.6a.255.255,0,1,1,0,.511Z" transform="translate(-412.322 -282.583)" fill="#f2f2f2"/>
        </g>
        <g id="组_1864" data-name="组 1864" transform="translate(96.182 20.521)">
          <path id="路径_10062" data-name="路径 10062" d="M451.828,401.13l-4.814,4.754,4.814,4.754,1.083-1.083-3.641-3.641,3.671-3.671Z" transform="translate(-447.014 -401.13)" fill="#6c63ff"/>
          <path id="路径_10063" data-name="路径 10063" d="M609.78,401.13l4.814,4.754-4.814,4.754-1.083-1.083,3.641-3.641-3.671-3.671Z" transform="translate(-593.609 -401.13)" fill="#6c63ff"/>
          <circle id="椭圆_467" data-name="椭圆 467" cx="1.08" cy="1.08" r="1.08" transform="translate(5.743 3.627)" fill="#6c63ff"/>
          <circle id="椭圆_468" data-name="椭圆 468" cx="1.08" cy="1.08" r="1.08" transform="translate(9.342 3.627)" fill="#6c63ff"/>
          <ellipse id="椭圆_469" data-name="椭圆 469" cx="1.44" cy="1.08" rx="1.44" ry="1.08" transform="translate(12.94 3.627)" fill="#6c63ff"/>
        </g>
      </g>
      <g id="undraw_site_content_ihgn" transform="translate(0 13.844)">
        <path id="路径_9968" data-name="路径 9968" d="M314.45,89.356c.407-.461.828-.921,1.252-1.365l.444.424c-.419.438-.834.892-1.236,1.347Z" transform="translate(-224.67 -73.852)" fill="#3f3d56"/>
        <path id="路径_9969" data-name="路径 9969" d="M330.181,43.472c.938-.832,1.921-1.635,2.924-2.385l.368.491c-.989.741-1.959,1.533-2.884,2.354Zm6.035-4.52c1.061-.665,2.164-1.294,3.277-1.87l.282.545c-1.1.567-2.186,1.188-3.233,1.844Zm6.7-3.461c1.155-.48,2.346-.919,3.54-1.3l.189.584c-1.178.38-2.353.813-3.493,1.287Zm7.315-1.719-.141-.6c1.221-.287,2.467-.527,3.7-.713l.091.607C352.664,33.252,351.435,33.489,350.23,33.773Zm7.354-1.106-.041-.612c1.25-.084,2.519-.116,3.771-.1l-.01.614c-1.236-.02-2.487.012-3.72.095Zm7.436.119.061-.611c1.247.124,2.5.3,3.738.529l-.111.6c-1.217-.224-2.457-.4-3.687-.522Zm23,80.864c.98-.751,1.942-1.553,2.858-2.383l.412.455c-.929.842-1.9,1.655-2.9,2.416ZM372.338,34.133l.16-.592c1.209.328,2.419.71,3.6,1.137l-.209.577C374.725,34.833,373.53,34.456,372.338,34.133Zm21.193,74.522c.844-.9,1.661-1.852,2.428-2.821l.481.381c-.778.982-1.606,1.944-2.461,2.859Zm-14.2-71.991.255-.558c1.139.522,2.271,1.1,3.364,1.71l-.3.535C381.575,37.745,380.458,37.178,379.334,36.663Zm18.814,66.16c.686-1.029,1.337-2.1,1.936-3.18l.537.3c-.607,1.1-1.267,2.18-1.962,3.223ZM385.823,40.3l.343-.509c1.039.7,2.061,1.452,3.039,2.235l-.384.479C387.856,41.735,386.847,40.993,385.823,40.3Zm15.93,56.013c.508-1.127.976-2.289,1.39-3.453l.578.206c-.42,1.18-.894,2.358-1.409,3.5ZM391.628,44.95l.421-.446c.911.861,1.8,1.77,2.632,2.7l-.457.41C393.4,46.7,392.527,45.8,391.628,44.95Zm12.617,44.356c.317-1.2.588-2.42.805-3.635l.6.108c-.22,1.232-.495,2.471-.816,3.684Zm-7.654-38.821.489-.371c.756,1,1.479,2.04,2.15,3.1l-.518.329C398.051,52.5,397.337,51.47,396.591,50.485Zm8.961,31.5c.116-1.23.181-2.481.194-3.718l.614.007c-.013,1.253-.079,2.521-.2,3.769Zm-4.979-25.22.544-.285c.58,1.108,1.122,2.256,1.61,3.411l-.565.239c-.481-1.14-1.016-2.272-1.588-3.366Zm5.057,17.781c-.089-1.23-.231-2.474-.422-3.7l.606-.095c.194,1.24.338,2.5.428,3.748Zm-2.164-10.93.583-.192c.391,1.188.738,2.413,1.031,3.629l-.6.144C404.2,65.993,403.852,64.786,403.467,63.613Z" transform="translate(-236.432 -31.952)" fill="#3f3d56"/>
        <path id="路径_9970" data-name="路径 9970" d="M541.012,365.285c.524-.306,1.049-.627,1.56-.954l.331.517c-.518.332-1.05.657-1.581.968Z" transform="translate(-394.068 -280.469)" fill="#3f3d56"/>
        <path id="路径_9972" data-name="路径 9972" d="M762.5,555.158v60.806h78.215V555.158Zm68,16.261h-6.058v-6.058H830.5Z" transform="translate(-559.674 -423.149)" fill="#3f3d56"/>
        <rect id="矩形_2482" data-name="矩形 2482" width="5.046" height="6.56" transform="translate(76.168 108.039)" fill="#3f3d56"/>
        <rect id="矩形_2483" data-name="矩形 2483" width="5.046" height="6.56" transform="translate(156.685 147.838) rotate(45)" fill="#3f3d56"/>
        <rect id="矩形_2484" data-name="矩形 2484" width="5.046" height="6.56" transform="translate(141.799 33.29) rotate(45)" fill="#3f3d56"/>
        <path id="路径_9973" data-name="路径 9973" d="M781.327,717.576c-.279.548-.573,1.1-.874,1.633l-.535-.3c.3-.529.587-1.071.862-1.611Z" transform="translate(-572.697 -544.38)" fill="#3f3d56"/>
        <path id="路径_9974" data-name="路径 9974" d="M526.024,577.6c-.7,1.039-1.455,2.061-2.24,3.037l-.479-.384c.774-.963,1.517-1.971,2.209-3Zm-4.724,5.878c-.863.908-1.775,1.791-2.71,2.625l-.408-.458c.923-.822,1.823-1.694,2.674-2.589Zm-5.629,5.016c-1,.752-2.044,1.473-3.1,2.143l-.328-.519c1.047-.661,2.078-1.372,3.063-2.114Zm-6.659,3.482.284.544c-1.112.582-2.259,1.124-3.41,1.611l-.239-.565C506.784,593.085,507.916,592.55,509.013,591.976Zm-6.849,2.9.192.583c-1.19.392-2.411.738-3.629,1.03l-.143-.6C499.786,595.6,500.99,595.26,502.164,594.874Zm-7.232,1.732.093.607c-1.239.19-2.5.33-3.752.416l-.042-.612c1.234-.085,2.48-.223,3.7-.41Zm-42.364-72.618c-.763.971-1.5,1.986-2.177,3.019l-.512-.338c.691-1.047,1.433-2.076,2.207-3.06Zm34.94,73.131-.008.614c-1.252-.017-2.52-.087-3.768-.207l.059-.611C485.022,597.032,486.273,597.1,487.508,597.118ZM448.47,530.194c-.593,1.084-1.149,2.206-1.651,3.335l-.561-.25c.509-1.145,1.073-2.282,1.674-3.38ZM480.1,596.4l-.109.6c-1.233-.222-2.472-.5-3.683-.821l.158-.593C477.663,595.913,478.885,596.185,480.1,596.4ZM445.446,536.99c-.409,1.167-.774,2.365-1.085,3.561l-.594-.155c.316-1.212.686-2.427,1.1-3.609Zm27.467,57.5-.206.578c-1.18-.42-2.357-.894-3.5-1.41l.252-.559C470.588,593.608,471.749,594.076,472.913,594.491Zm-29.342-50.3c-.213,1.218-.377,2.46-.489,3.691l-.611-.055c.114-1.248.28-2.506.5-3.741Zm22.564,47.242-.3.537c-1.1-.608-2.18-1.268-3.22-1.963l.341-.51C463.985,590.179,465.054,590.831,466.135,591.43ZM442.9,551.6c-.01,1.238.031,2.49.123,3.721l-.612.045c-.093-1.248-.135-2.517-.125-3.772Zm17.056,35.7-.382.48c-.98-.779-1.94-1.609-2.852-2.466l.42-.447C458.04,585.714,458.986,586.533,459.953,587.3Zm-16.5-28.285c.194,1.22.441,2.448.736,3.649l-.6.146c-.3-1.218-.549-2.462-.746-3.7Zm11.086,23.193-.456.411c-.837-.93-1.647-1.907-2.407-2.9l.488-.372C452.912,580.329,453.711,581.293,454.537,582.21Zm-9.315-15.968c.392,1.17.838,2.34,1.327,3.477l-.564.242c-.5-1.153-.948-2.339-1.345-3.524Zm4.811,10.05-.517.331c-.674-1.054-1.314-2.154-1.9-3.259l.542-.287C448.736,574.168,449.368,575.253,450.033,576.293Z" transform="translate(-320.249 -399.56)" fill="#3f3d56"/>
        <path id="路径_9975" data-name="路径 9975" d="M492.706,507.273c-.431.427-.86.868-1.274,1.312l-.449-.418c.419-.45.854-.9,1.291-1.33Z" transform="translate(-356.663 -387.02)" fill="#3f3d56"/>
        <g id="组_1868" data-name="组 1868" transform="translate(26.036 130.242)">
          <g id="组_1867" data-name="组 1867" transform="translate(0 0)">
            <path id="路径_9976" data-name="路径 9976" d="M1019.572,377a17.965,17.965,0,0,1-1.9-7.108c-.434-4.343-.155-11.663,3.641-21.875a44.112,44.112,0,0,0-1.748-35.108l.437-.253a38.738,38.738,0,0,1,3.655,10.356,45.177,45.177,0,0,1-1.871,25.182c-7.18,19.312-1.842,28.454-1.787,28.544Z" transform="translate(-1004.474 -305.213)" fill="#3f3d56"/>
            <circle id="椭圆_451" data-name="椭圆 451" cx="3.28" cy="3.28" r="3.28" transform="translate(9.006)" fill="#6c63ff"/>
            <circle id="椭圆_452" data-name="椭圆 452" cx="3.28" cy="3.28" r="3.28" transform="translate(19.351 12.111)" fill="#3f3d56"/>
            <circle id="椭圆_453" data-name="椭圆 453" cx="3.28" cy="3.28" r="3.28" transform="translate(12.286 20.185)" fill="#6c63ff"/>
            <circle id="椭圆_454" data-name="椭圆 454" cx="3.28" cy="3.28" r="3.28" transform="translate(20.865 26.997)" fill="#6c63ff"/>
            <circle id="椭圆_455" data-name="椭圆 455" cx="3.28" cy="3.28" r="3.28" transform="translate(9.763 37.594)" fill="#3f3d56"/>
            <path id="路径_9977" data-name="路径 9977" d="M1031.945,526.287s-3.28-8.074,6.56-14.129Z" transform="translate(-1014.864 -454.379)" fill="#3f3d56"/>
            <path id="路径_9978" data-name="路径 9978" d="M978.85,542.35s-1.493-8.586-13.046-8.512Z" transform="translate(-965.804 -470.589)" fill="#3f3d56"/>
          </g>
        </g>
        <path id="路径_9979" data-name="路径 9979" d="M595.011,752.809a3.028,3.028,0,1,1,3.028-3.028A3.028,3.028,0,0,1,595.011,752.809Zm0-5.551a2.523,2.523,0,1,0,2.523,2.523A2.523,2.523,0,0,0,595.011,747.259Z" transform="translate(-432.18 -566.404)" fill="#2f2e41"/>
        <path id="路径_9980" data-name="路径 9980" d="M721.05,112.284H716.07V107.3h4.981Zm-4.6-.383h4.215v-4.215h-4.215Z" transform="translate(-524.958 -88.291)" fill="#3f3d56"/>
        <path id="路径_9981" data-name="路径 9981" d="M187.387,657.262l-3.4-3.642,3.642-3.4,3.4,3.642Zm-2.856-3.624,2.875,3.082,3.082-2.875-2.875-3.082Z" transform="translate(-112.24 -494.229)" fill="#2f2e41"/>
        <path id="路径_9982" data-name="路径 9982" d="M334.566,407.338h-90.28V370.9h75.1Z" transform="translate(-140.544 -277.316)" fill="#efefef"/>
        <path id="路径_9983" data-name="路径 9983" d="M427.752,415.84H326.017V371.115H409.3l.07.171Zm-101.184-.552H426.927l-17.994-43.621H326.569Z" transform="translate(-233.318 -285.541)" fill="#3f3d56"/>
        <rect id="矩形_2485" data-name="矩形 2485" width="45.002" height="4.141" transform="translate(118.65 99.377)" fill="#6c63ff"/>
        <rect id="矩形_2486" data-name="矩形 2486" width="45.002" height="4.141" transform="translate(118.65 107.936)" fill="#6c63ff"/>
        <rect id="矩形_2487" data-name="矩形 2487" width="45.002" height="4.141" transform="translate(118.65 116.495)" fill="#6c63ff"/>
        <path id="路径_9984" data-name="路径 9984" d="M201.049,139.078H125.5V93.158h58.711l.061.165Zm-75.044-.5h74.322L183.859,93.662H126Z" transform="translate(-83.393 -77.715)" fill="#3f3d56"/>
        <circle id="椭圆_456" data-name="椭圆 456" cx="4.542" cy="4.542" r="4.542" transform="translate(112.753 56.569)" fill="#6c63ff"/>
        <rect id="矩形_2534" data-name="矩形 2534" width="333.273" height="0.565" transform="translate(0 201.946)" fill="#3f3d56"/>
        <circle id="椭圆_457" data-name="椭圆 457" cx="4.542" cy="4.542" r="4.542" transform="translate(188.95 125.701)" fill="#6c63ff"/>
        <circle id="椭圆_458" data-name="椭圆 458" cx="7.642" cy="7.642" r="7.642" transform="translate(218.417 52.847)" fill="#a0616a"/>
        <path id="路径_9986" data-name="路径 9986" d="M828.575,284.32s2.547,5.732-.955,7.96,5.731,11.463,5.731,11.463l10.189-10.826s-5.413-3.5-4.458-9.234Z" transform="translate(-607.77 -220.17)" fill="#a0616a"/>
        <path id="路径_9987" data-name="路径 9987" d="M734.175,382.121l-2.229,12.737s-3.821,7.642-3.821,14.329-.637,7.96-.637,7.96-6.368,12.737-1.91,13.373,6.368-13.055,6.368-13.055S738,402.5,738,397.723l4.139-10.508Z" transform="translate(-530.883 -293.771)" fill="#a0616a"/>
        <path id="路径_9988" data-name="路径 9988" d="M923.748,384.645l.637,11.145s2.229,5.731.637,15.921l-1.274,9.871s2.866,11.145,0,11.463-6.368-7.005-4.458-11.145v-3.5s-1.911-14.965-1.274-17.513l-2.229-12.1Z" transform="translate(-674.285 -295.658)" fill="#a0616a"/>
        <path id="路径_9989" data-name="路径 9989" d="M657.776,696.609l3.184,8.279,7.005-1.274-4.458-8.916Z" transform="translate(-449.708 -519.421)" fill="#a0616a"/>
        <path id="路径_9990" data-name="路径 9990" d="M774.836,728.773l-.955,12.1h7.96l-.318-10.508Z" transform="translate(-536.518 -544.898)" fill="#a0616a"/>
        <path id="路径_9991" data-name="路径 9991" d="M744.143,469.991l-.955,4.776s-1.91,1.592-1.91,3.184a3.224,3.224,0,0,1-.637,2.229s-.318,0-.637.637a3.938,3.938,0,0,1-.637.955s-18.786,19.1-14.647,28.657,12.1,28.976,12.1,28.976,9.234-2.866,9.234-5.095l-8.916-25.155,17.831-18.468L769.3,510.111s-2.866,34.071-.955,34.389,12.418,2.547,12.737,1.592,1.911-43.3,1.274-44.9-9.871-20.7-9.871-20.7,1.592-1.911.637-2.547-2.547-6.687-2.547-6.687S745.735,467.125,744.143,469.991Z" transform="translate(-530.98 -358.715)" fill="#2f2e41"/>
        <path id="路径_9992" data-name="路径 9992" d="M804.893,318.7l-6.418-3.958s-3.771.137-4.726,1.093-6.687,3.5-6.687,3.5,1.273,38.21,3.821,36.936.637-2.229,2.547-1.274,24.518,1.274,24.836,1.274.637-.637.637-.637l1.274-19.423,4.139-16.239-12.255-5.639Z" transform="translate(-578.038 -243.091)" fill="#d0cde1"/>
        <path id="路径_9993" data-name="路径 9993" d="M769.07,332.9h-2.547s-3.5.955-5.095,6.05-2.229,7.324-1.592,7.96,9.234,5.413,9.234,5.413Z" transform="translate(-557.499 -256.97)" fill="#d0cde1"/>
        <path id="路径_9994" data-name="路径 9994" d="M910.444,335.426l4.458.318s5.731,13.374,4.139,14.01-10.826,5.413-10.826,4.458S910.444,335.426,910.444,335.426Z" transform="translate(-668.624 -258.858)" fill="#d0cde1"/>
        <path id="路径_9995" data-name="路径 9995" d="M757.388,747.8l-2.6-.955-6,7.96s-11.145,7.96-.955,7.642c0,0,7.961-1.274,8.6-3.5,0,0,9.234-2.547,9.234-4.139s-2.122-5.836-2.812-5.943S759.3,750.027,757.388,747.8Z" transform="translate(-545.499 -566.471)" fill="#2f2e41"/>
        <path id="路径_9996" data-name="路径 9996" d="M902.531,794.695s-7.741-.126-7.691.1-2.18,5.317-1.861,7.227,3.184,4.458,2.547,5.731,1.91,5.095,7.005,5.413,4.458-5.413,4.458-5.413l-2.547-6.05Z" transform="translate(-657.208 -602.223)" fill="#2f2e41"/>
        <path id="路径_9997" data-name="路径 9997" d="M824.028,230.847a14.488,14.488,0,0,1-1.2.915,11.364,11.364,0,0,0-1.441,1.431l-.493.552a2.532,2.532,0,0,0-.847,1.634c.007.233.078.46.106.692.111.92-.451,1.931.012,2.733.134.232.341.413.488.637a1.49,1.49,0,0,1,.235.97,1.19,1.19,0,0,0,1.061-.9,9.037,9.037,0,0,0,.211-1.475,1.582,1.582,0,0,1,.736-1.232c.954-.467,2.049.748,3.067.445.711-.211,1.086-1.093,1.812-1.24a2.581,2.581,0,0,1,1.5.422c.484.219,1.135.32,1.477-.086.226-.269.25-.7.551-.882.36-.219.81.086,1.083.407s.573.714.994.7c.558-.015.986-.759,1.516-.583.6.2.323,1.157.686,1.672.307.436.95.41,1.478.338a.529.529,0,0,0,.551-.707l-.221-2.926a1.413,1.413,0,0,0-.13-.584c-.153-.278-.471-.419-.688-.652-.455-.49-.433-1.348-1-1.7-.294-.185-.678-.179-.969-.368-.374-.241-.494-.725-.756-1.084a2.309,2.309,0,0,0-1.662-.818c-.633-.065-1.272.013-1.907-.007a19.815,19.815,0,0,0-3.885-.193C825.272,229.145,824.8,230.107,824.028,230.847Z" transform="translate(-602.655 -179.203)" fill="#2f2e41"/>
      </g>
      <path id="路径_10039" data-name="路径 10039" d="M140,338h83.255v27.331H220.1v7.148l-7.148-7.148H140Z" transform="translate(-92.848 -299.934)" fill="#efefef"/>
      <rect id="矩形_2530" data-name="矩形 2530" width="63.913" height="2.523" transform="translate(54.72 42.166)" fill="#6c63ff"/>
      <rect id="矩形_2531" data-name="矩形 2531" width="31.956" height="2.523" transform="translate(54.72 47.002)" fill="#6c63ff"/>
      <ellipse id="椭圆_465" data-name="椭圆 465" cx="3.574" cy="3.574" rx="3.574" ry="3.574" transform="translate(54.72 53.309)" fill="#6c63ff"/>
    </g>
  </g>
</svg>
