<svg xmlns="http://www.w3.org/2000/svg" width="613.959" height="413.222" viewBox="0 0 613.959 413.222">
  <g id="Group_1869" data-name="Group 1869" transform="translate(-15142.049 -6805.127)">
    <g id="Group_1866" data-name="Group 1866" transform="translate(15401.101 6805.127)">
      <path id="Path_10064" data-name="Path 10064" d="M183.062,446.346a33.032,33.032,0,0,1,11.476-5.979c11.7-3.349,23.811-.107,35.52,3.027a133.365,133.365,0,0,0,19.3,4.163c10.33,1.155,19.958-.457,27.843-4.661,8.862-4.725,15.245-12.857,17.076-21.751a25.259,25.259,0,0,0,.461-3.412q-1.31.808-2.629,1.591c-9.249,5.493-22.25,10.629-31.655,3.9a16.3,16.3,0,0,1-6.427-11.841,18.181,18.181,0,0,1,4.557-14.123,17.193,17.193,0,0,1,1.758-1.613c6.813-5.439,17.569-5.732,25.113-.357,6.389,4.552,10.174,12.778,10.052,21.121a188.075,188.075,0,0,0,15.828-11.1l.441.565a188.759,188.759,0,0,1-16.3,11.4,25.985,25.985,0,0,1-.5,4.017c-1.873,9.1-8.393,17.414-17.44,22.239-8.014,4.273-17.786,5.913-28.26,4.741a133.9,133.9,0,0,1-19.41-4.183c-12.149-3.252-23.625-6.325-35.138-3.031a32.957,32.957,0,0,0-11.409,57.511l-.445.562a33.509,33.509,0,0,1,.18-52.783Zm111.723-29.482c.271-8.271-3.422-16.487-9.742-20.99-7.951-5.665-19.586-4.821-25.934,1.879a17.456,17.456,0,0,0-4.364,13.562,15.587,15.587,0,0,0,6.131,11.327c9.09,6.5,21.806,1.451,30.872-3.933Q293.272,417.8,294.785,416.863Z" transform="translate(-170.168 -317.131)" fill="#3f3d56"/>
      <path id="Path_10065" data-name="Path 10065" d="M546.5,276.845H710.341c31.038,0,56.2-17.69,56.2-48.728h0c0-31.038-25.161-43.974-56.2-43.974H658.9c-62.075,0-112.4,30.627-112.4,92.7Z" transform="translate(-411.633 -184.143)" fill="#3f3d56"/>
      <path id="Path_10066" data-name="Path 10066" d="M734.027,282.787H597.669v-.358c0-24.378,9.5-44.463,27.468-58.083,16.594-12.577,39.481-19.225,66.187-19.225h42.7c13.62,0,25.1,2.993,33.191,8.654,9.168,6.413,13.816,15.9,13.816,28.206,0,12.365-4.77,22.8-13.795,30.163C758.832,279.008,747.037,282.787,734.027,282.787Zm-135.641-.717H734.027c27.688,0,46.29-16.111,46.29-40.089,0-22.97-16.872-36.143-46.29-36.143h-42.7C646.491,205.838,598.591,225.876,598.386,282.071Z" transform="translate(-444.465 -197.604)" fill="#6c63ff"/>
      <g id="Group_1863" data-name="Group 1863" transform="translate(233.043 26.176)">
        <path id="Path_10041" data-name="Path 10041" d="M451.927,261.565H413.242a.469.469,0,0,1,0-.939h38.685a.469.469,0,1,1,0,.939Z" transform="translate(-412.678 -260.626)" fill="#f2f2f2"/>
        <path id="Path_10042" data-name="Path 10042" d="M570.9,286.331H510.053a.469.469,0,1,1,0-.939H570.9a.469.469,0,0,1,0,.939Z" transform="translate(-489.302 -280.228)" fill="#f2f2f2"/>
        <path id="Path_10043" data-name="Path 10043" d="M452.827,311.1H414.142a.469.469,0,1,1,0-.939h38.685a.469.469,0,0,1,0,.939Z" transform="translate(-413.391 -299.829)" fill="#f2f2f2"/>
        <path id="Path_10044" data-name="Path 10044" d="M655.005,311.547H616.321a.469.469,0,1,1,0-.939h38.685a.469.469,0,1,1,0,.939Z" transform="translate(-573.41 -300.186)" fill="#f2f2f2"/>
        <path id="Path_10045" data-name="Path 10045" d="M453.277,335.862H414.592a.469.469,0,1,1,0-.939h38.685a.469.469,0,1,1,0,.939Z" transform="translate(-413.747 -319.431)" fill="#f2f2f2"/>
        <path id="Path_10046" data-name="Path 10046" d="M453.728,360.628H415.043a.469.469,0,0,1,0-.939h38.685a.469.469,0,1,1,0,.939Z" transform="translate(-414.104 -339.032)" fill="#f2f2f2"/>
        <path id="Path_10047" data-name="Path 10047" d="M642.71,262.016H631.63a.469.469,0,1,1,0-.939H642.71a.469.469,0,1,1,0,.939Z" transform="translate(-585.528 -260.983)" fill="#f2f2f2"/>
        <path id="Path_10048" data-name="Path 10048" d="M642.71,335.862H631.63a.469.469,0,1,1,0-.939H642.71a.469.469,0,1,1,0,.939Z" transform="translate(-585.528 -319.431)" fill="#f2f2f2"/>
        <path id="Path_10049" data-name="Path 10049" d="M642.71,360.178H631.63a.469.469,0,1,1,0-.939h11.08a.469.469,0,0,1,0,.939Z" transform="translate(-585.528 -338.676)" fill="#f2f2f2"/>
        <path id="Path_10050" data-name="Path 10050" d="M731.867,360.178h-11.08a.469.469,0,1,1,0-.939h11.08a.469.469,0,1,1,0,.939Z" transform="translate(-656.093 -338.676)" fill="#f2f2f2"/>
        <path id="Path_10051" data-name="Path 10051" d="M423.871,286.331h-11.08a.469.469,0,1,1,0-.939h11.08a.469.469,0,0,1,0,.939Z" transform="translate(-412.322 -280.228)" fill="#f2f2f2"/>
      </g>
      <g id="Group_1865" data-name="Group 1865" transform="translate(233.043 52.68)">
        <path id="Path_10041-2" data-name="Path 10041" d="M451.927,261.565H413.242a.469.469,0,0,1,0-.939h38.685a.469.469,0,1,1,0,.939Z" transform="translate(-412.678 -260.626)" fill="#f2f2f2"/>
        <path id="Path_10042-2" data-name="Path 10042" d="M570.9,286.331H510.053a.469.469,0,1,1,0-.939H570.9a.469.469,0,0,1,0,.939Z" transform="translate(-489.302 -280.228)" fill="#f2f2f2"/>
        <path id="Path_10043-2" data-name="Path 10043" d="M452.827,311.1H414.142a.469.469,0,1,1,0-.939h38.685a.469.469,0,0,1,0,.939Z" transform="translate(-413.391 -299.829)" fill="#f2f2f2"/>
        <path id="Path_10044-2" data-name="Path 10044" d="M655.005,311.547H616.321a.469.469,0,1,1,0-.939h38.685a.469.469,0,1,1,0,.939Z" transform="translate(-573.41 -300.186)" fill="#f2f2f2"/>
        <path id="Path_10045-2" data-name="Path 10045" d="M453.277,335.862H414.592a.469.469,0,1,1,0-.939h38.685a.469.469,0,1,1,0,.939Z" transform="translate(-413.747 -319.431)" fill="#f2f2f2"/>
        <path id="Path_10046-2" data-name="Path 10046" d="M453.728,360.628H415.043a.469.469,0,0,1,0-.939h38.685a.469.469,0,1,1,0,.939Z" transform="translate(-414.104 -339.032)" fill="#f2f2f2"/>
        <path id="Path_10047-2" data-name="Path 10047" d="M642.71,262.016H631.63a.469.469,0,1,1,0-.939H642.71a.469.469,0,1,1,0,.939Z" transform="translate(-585.528 -260.983)" fill="#f2f2f2"/>
        <path id="Path_10048-2" data-name="Path 10048" d="M642.71,335.862H631.63a.469.469,0,1,1,0-.939H642.71a.469.469,0,1,1,0,.939Z" transform="translate(-585.528 -319.431)" fill="#f2f2f2"/>
        <path id="Path_10049-2" data-name="Path 10049" d="M642.71,360.178H631.63a.469.469,0,1,1,0-.939h11.08a.469.469,0,0,1,0,.939Z" transform="translate(-585.528 -338.676)" fill="#f2f2f2"/>
        <path id="Path_10050-2" data-name="Path 10050" d="M731.867,360.178h-11.08a.469.469,0,1,1,0-.939h11.08a.469.469,0,1,1,0,.939Z" transform="translate(-656.093 -338.676)" fill="#f2f2f2"/>
        <path id="Path_10051-2" data-name="Path 10051" d="M423.871,286.331h-11.08a.469.469,0,1,1,0-.939h11.08a.469.469,0,0,1,0,.939Z" transform="translate(-412.322 -280.228)" fill="#f2f2f2"/>
      </g>
      <g id="Group_1864" data-name="Group 1864" transform="translate(176.801 37.721)">
        <path id="Path_10062" data-name="Path 10062" d="M455.864,401.13l-8.85,8.739,8.85,8.739,1.991-1.991-6.693-6.693,6.748-6.748Z" transform="translate(-447.014 -401.13)" fill="#6c63ff"/>
        <path id="Path_10063" data-name="Path 10063" d="M610.714,401.13l8.85,8.739-8.85,8.739-1.991-1.991,6.693-6.693-6.748-6.748Z" transform="translate(-580.987 -401.13)" fill="#6c63ff"/>
        <circle id="Ellipse_467" data-name="Ellipse 467" cx="2" cy="2" r="2" transform="translate(10.51 7.279)" fill="#6c63ff"/>
        <circle id="Ellipse_468" data-name="Ellipse 468" cx="2" cy="2" r="2" transform="translate(17.51 7.279)" fill="#6c63ff"/>
        <ellipse id="Ellipse_469" data-name="Ellipse 469" cx="2.5" cy="2" rx="2.5" ry="2" transform="translate(23.51 7.279)" fill="#6c63ff"/>
      </g>
    </g>
    <g id="undraw_site_content_ihgn" transform="translate(15189.907 6830.577)">
      <path id="Path_9968" data-name="Path 9968" d="M314.45,90.5c.747-.848,1.522-1.692,2.3-2.509l.816.779c-.77.806-1.534,1.639-2.271,2.476Z" transform="translate(-197.275 -62.001)" fill="#3f3d56"/>
      <path id="Path_9969" data-name="Path 9969" d="M330.181,53.128c1.724-1.53,3.532-3.005,5.374-4.385l.677.9c-1.817,1.362-3.6,2.817-5.3,4.326Zm11.094-8.309c1.951-1.223,3.978-2.379,6.025-3.437l.518,1c-2.019,1.043-4.019,2.183-5.943,3.39Zm12.313-6.362c2.123-.883,4.312-1.689,6.507-2.4l.347,1.074c-2.166.7-4.326,1.494-6.42,2.365ZM367.034,35.3l-.258-1.1c2.245-.528,4.536-.969,6.808-1.312L373.752,34C371.51,34.342,369.25,34.777,367.034,35.3Zm13.518-2.033-.075-1.126c2.3-.154,4.63-.213,6.932-.177l-.018,1.128c-2.271-.036-4.572.022-6.838.174Zm13.668.219.112-1.122c2.292.228,4.6.555,6.871.972l-.2,1.11c-2.236-.412-4.517-.735-6.778-.959ZM436.5,182.128c1.8-1.38,3.57-2.854,5.254-4.381l.758.836c-1.708,1.548-3.5,3.042-5.326,4.441ZM407.673,35.96l.3-1.089c2.222.6,4.447,1.305,6.615,2.09l-.384,1.061C412.061,37.248,409.865,36.554,407.673,35.96ZM446.63,172.947c1.551-1.659,3.053-3.4,4.463-5.185l.885.7c-1.43,1.806-2.952,3.574-4.524,5.255Zm-26.1-132.334.47-1.026c2.094.959,4.174,2.016,6.183,3.143l-.552.984C424.653,42.6,422.6,41.558,420.534,40.612Zm34.583,121.615c1.26-1.892,2.457-3.858,3.558-5.846l.987.547c-1.116,2.014-2.329,4.007-3.606,5.924ZM432.461,47.3l.63-.935c1.909,1.287,3.789,2.669,5.587,4.108l-.7.881C436.2,49.935,434.345,48.571,432.461,47.3Zm29.282,102.964c.935-2.072,1.795-4.208,2.556-6.348l1.063.378c-.772,2.17-1.643,4.334-2.591,6.434Zm-18.61-94.42.775-.82c1.674,1.583,3.3,3.253,4.837,4.966l-.84.753C446.39,59.055,444.784,57.406,443.133,55.845Zm23.192,81.535c.583-2.2,1.081-4.448,1.48-6.682l1.111.2c-.4,2.264-.909,4.543-1.5,6.773ZM452.256,66.019l.9-.681c1.39,1.835,2.72,3.75,3.952,5.692l-.953.6C454.938,69.719,453.627,67.829,452.256,66.019Zm16.471,57.9c.212-2.261.332-4.561.356-6.834l1.128.012c-.024,2.3-.146,4.635-.361,6.928Zm-9.152-46.359,1-.523c1.067,2.037,2.062,4.147,2.959,6.271l-1.039.439c-.885-2.095-1.867-4.176-2.919-6.186Zm9.3,32.684c-.164-2.261-.425-4.549-.776-6.8l1.115-.174c.356,2.28.621,4.6.786,6.89ZM464.895,90.15l1.072-.352c.718,2.184,1.357,4.435,1.9,6.671l-1.1.264c-.531-2.208-1.162-4.427-1.87-6.583Z" transform="translate(-205.71 -31.952)" fill="#3f3d56"/>
      <path id="Path_9970" data-name="Path 9970" d="M541.012,366.085c.963-.563,1.927-1.153,2.867-1.755l.609.95c-.952.61-1.93,1.208-2.906,1.779Z" transform="translate(-318.76 -210.177)" fill="#3f3d56"/>
      <path id="Path_9972" data-name="Path 9972" d="M762.5,555.158V666.931H906.275V555.158Zm125,29.891H876.365V573.913H887.5Z" transform="translate(-437.524 -312.5)" fill="#3f3d56"/>
      <rect id="Rectangle_2482" data-name="Rectangle 2482" width="9.276" height="12.059" transform="translate(92.153 198.597)" fill="#3f3d56"/>
      <rect id="Rectangle_2483" data-name="Rectangle 2483" width="9.276" height="12.059" transform="translate(240.159 271.756) rotate(45)" fill="#3f3d56"/>
      <rect id="Rectangle_2484" data-name="Rectangle 2484" width="9.276" height="12.059" transform="translate(212.796 61.194) rotate(45)" fill="#3f3d56"/>
      <path id="Path_9973" data-name="Path 9973" d="M782.508,717.809c-.513,1.007-1.054,2.017-1.606,3l-.984-.552c.546-.972,1.079-1.968,1.585-2.962Z" transform="translate(-446.864 -399.441)" fill="#3f3d56"/>
      <path id="Path_9974" data-name="Path 9974" d="M596.216,622.857c-1.29,1.91-2.675,3.788-4.117,5.582l-.88-.706c1.422-1.77,2.789-3.623,4.061-5.507Zm-8.682,10.8c-1.586,1.669-3.263,3.293-4.982,4.825l-.751-.842c1.7-1.512,3.35-3.113,4.915-4.76Zm-10.347,9.221c-1.837,1.382-3.757,2.707-5.707,3.938l-.6-.954c1.925-1.214,3.819-2.522,5.631-3.886Zm-12.24,6.4.523,1c-2.044,1.069-4.153,2.065-6.269,2.961l-.44-1.039C560.848,651.32,562.929,650.337,564.946,649.282Zm-12.589,5.326.353,1.072c-2.187.72-4.432,1.357-6.671,1.893l-.263-1.1C547.985,655.946,550.2,655.318,552.357,654.608Zm-13.294,3.183.171,1.115c-2.277.349-4.6.606-6.9.765l-.078-1.126c2.269-.156,4.558-.41,6.8-.754ZM461.189,524.305c-1.4,1.784-2.749,3.651-4,5.549l-.942-.622c1.27-1.924,2.634-3.816,4.056-5.625Zm64.227,134.429-.015,1.128c-2.3-.032-4.632-.16-6.927-.381l.108-1.123C520.846,658.576,523.145,658.7,525.416,658.734ZM453.657,535.715c-1.09,1.992-2.112,4.055-3.036,6.131l-1.031-.459c.936-2.1,1.972-4.2,3.077-6.214ZM511.8,657.422l-.2,1.111c-2.267-.409-4.544-.916-6.77-1.508l.29-1.09C507.319,656.518,509.566,657.019,511.8,657.422ZM448.1,548.206c-.751,2.145-1.422,4.348-1.995,6.546l-1.092-.284c.58-2.228,1.26-4.46,2.021-6.634Zm50.49,105.7-.378,1.063c-2.169-.772-4.333-1.644-6.432-2.592l.464-1.028C494.313,652.282,496.448,653.142,498.588,653.9Zm-53.937-92.465c-.391,2.239-.693,4.522-.9,6.784l-1.124-.1c.209-2.293.515-4.607.911-6.876Zm41.477,86.839-.547.986c-2.015-1.117-4.006-2.331-5.919-3.609l.627-.938C482.176,645.979,484.141,647.176,486.129,648.279Zm-42.715-73.22c-.019,2.276.057,4.577.226,6.84l-1.125.084c-.171-2.294-.248-4.626-.229-6.933Zm31.351,65.631-.7.883c-1.8-1.432-3.566-2.957-5.242-4.533l.773-.822C471.247,637.772,472.987,639.276,474.765,640.689ZM444.43,588.7c.356,2.243.811,4.5,1.352,6.709l-1.1.268c-.549-2.238-1.01-4.526-1.371-6.8Zm20.379,42.633-.838.755c-1.539-1.708-3.028-3.505-4.424-5.339l.9-.683C461.822,627.872,463.29,629.644,464.809,631.33Zm-17.123-29.352c.72,2.15,1.541,4.3,2.44,6.392l-1.037.445c-.911-2.12-1.743-4.3-2.473-6.479Zm8.843,18.475-.951.607c-1.238-1.937-2.416-3.959-3.493-5.991l1-.528C454.145,616.548,455.307,618.541,456.529,620.453Z" transform="translate(-265.82 -295.583)" fill="#3f3d56"/>
      <path id="Path_9975" data-name="Path 9975" d="M494.15,507.639c-.793.784-1.581,1.6-2.341,2.412l-.825-.769c.771-.827,1.57-1.65,2.374-2.445Z" transform="translate(-291.934 -286.59)" fill="#3f3d56"/>
      <g id="Group_1868" data-name="Group 1868" transform="translate(0 239.411)">
        <g id="Group_1867" data-name="Group 1867" transform="translate(0 0)">
          <path id="Path_9976" data-name="Path 9976" d="M1021.29,430.933c-.106-.174-2.616-4.364-3.486-13.066-.8-7.983-.285-21.439,6.694-40.21,13.221-35.559-3.047-64.25-3.213-64.536l.8-.466a71.222,71.222,0,0,1,6.719,19.036,83.047,83.047,0,0,1-3.439,46.289c-13.2,35.5-3.386,52.3-3.285,52.469Z" transform="translate(-993.536 -298.975)" fill="#3f3d56"/>
          <circle id="Ellipse_451" data-name="Ellipse 451" cx="6.029" cy="6.029" r="6.029" transform="translate(16.556)" fill="#6c63ff"/>
          <circle id="Ellipse_452" data-name="Ellipse 452" cx="6.029" cy="6.029" r="6.029" transform="translate(35.571 22.262)" fill="#3f3d56"/>
          <circle id="Ellipse_453" data-name="Ellipse 453" cx="6.029" cy="6.029" r="6.029" transform="translate(22.585 37.103)" fill="#6c63ff"/>
          <circle id="Ellipse_454" data-name="Ellipse 454" cx="6.029" cy="6.029" r="6.029" transform="translate(38.354 49.626)" fill="#6c63ff"/>
          <circle id="Ellipse_455" data-name="Ellipse 455" cx="6.029" cy="6.029" r="6.029" transform="translate(17.947 69.105)" fill="#3f3d56"/>
          <path id="Path_9977" data-name="Path 9977" d="M1032.385,538.13s-6.029-14.841,12.058-25.972Z" transform="translate(-1000.988 -405.95)" fill="#3f3d56"/>
          <path id="Path_9978" data-name="Path 9978" d="M989.785,549.486S987.041,533.7,965.8,533.839Z" transform="translate(-965.804 -417.575)" fill="#3f3d56"/>
        </g>
      </g>
      <path id="Path_9979" data-name="Path 9979" d="M597.549,757.885a5.565,5.565,0,1,1,5.565-5.565,5.565,5.565,0,0,1-5.565,5.565Zm0-10.2a4.638,4.638,0,1,0,4.638,4.638A4.638,4.638,0,0,0,597.549,747.682Z" transform="translate(-346.091 -415.236)" fill="#2f2e41"/>
      <path id="Path_9980" data-name="Path 9980" d="M725.225,116.458H716.07V107.3h9.156Zm-8.451-.7h7.747v-7.747h-7.747Z" transform="translate(-412.628 -72.356)" fill="#3f3d56"/>
      <path id="Path_9981" data-name="Path 9981" d="M190.235,663.163l-6.245-6.7,6.7-6.245,6.245,6.7Zm-5.25-6.661,5.284,5.665,5.665-5.284-5.284-5.665Z" transform="translate(-99.957 -363.475)" fill="#2f2e41"/>
      <path id="Path_9982" data-name="Path 9982" d="M410.238,437.885H244.286V370.9h138.04Z" transform="translate(-101.447 -198.878)" fill="#efefef"/>
      <path id="Path_9983" data-name="Path 9983" d="M513.027,453.329H326.017V371.115h153.1l.129.314Zm-185.995-1.015H511.51L478.434,372.13h-151.4Z" transform="translate(-203.477 -213.815)" fill="#3f3d56"/>
      <rect id="Rectangle_2485" data-name="Rectangle 2485" width="82.722" height="7.612" transform="translate(170.244 182.675)" fill="#6c63ff"/>
      <rect id="Rectangle_2486" data-name="Rectangle 2486" width="82.722" height="7.612" transform="translate(170.244 198.407)" fill="#6c63ff"/>
      <rect id="Rectangle_2487" data-name="Rectangle 2487" width="82.722" height="7.612" transform="translate(170.244 214.14)" fill="#6c63ff"/>
      <path id="Path_9984" data-name="Path 9984" d="M264.373,177.568H125.5V93.158H233.423l.112.3Zm-137.946-.928H263.045l-30.27-82.555H126.428Z" transform="translate(-95.958 -64.771)" fill="#3f3d56"/>
      <circle id="Ellipse_456" data-name="Ellipse 456" cx="8.348" cy="8.348" r="8.348" transform="translate(159.403 103.984)" fill="#6c63ff"/>
      <rect id="Rectangle_2534" data-name="Rectangle 2534" width="556.981" height="1.039" transform="translate(-47.858 371.216)" fill="#3f3d56"/>
      <circle id="Ellipse_457" data-name="Ellipse 457" cx="8.348" cy="8.348" r="8.348" transform="translate(299.468 231.063)" fill="#6c63ff"/>
      <circle id="Ellipse_458" data-name="Ellipse 458" cx="14.047" cy="14.047" r="14.047" transform="translate(353.634 97.142)" fill="#a0616a"/>
      <path id="Path_9986" data-name="Path 9986" d="M830.041,284.854s4.682,10.536-1.756,14.633,10.536,21.071,10.536,21.071l18.73-19.9s-9.95-6.438-8.194-16.974Z" transform="translate(-472.017 -166.933)" fill="#a0616a"/>
      <path id="Path_9987" data-name="Path 9987" d="M742.708,382.121l-4.1,23.412s-7.024,14.047-7.024,26.339-1.171,14.633-1.171,14.633-11.706,23.412-3.512,24.583,11.706-24,11.706-24,11.121-27.51,11.121-36.289l7.609-19.315Z" transform="translate(-416.877 -219.716)" fill="#a0616a"/>
      <path id="Path_9988" data-name="Path 9988" d="M930.42,384.645l1.171,20.486s4.1,10.536,1.171,29.266l-2.341,18.145s5.268,20.486,0,21.071-11.706-12.877-8.194-20.486v-6.438s-3.512-27.51-2.341-32.192l-4.1-22.242Z" transform="translate(-519.718 -221.07)" fill="#a0616a"/>
      <path id="Path_9989" data-name="Path 9989" d="M657.776,698.211l5.853,15.218,12.877-2.341L668.312,694.7Z" transform="translate(-323.164 -372.505)" fill="#a0616a"/>
      <path id="Path_9990" data-name="Path 9990" d="M775.637,728.773l-1.756,22.242h14.633l-.585-19.315Z" transform="translate(-385.421 -390.775)" fill="#a0616a"/>
      <path id="Path_9991" data-name="Path 9991" d="M760.923,470.838l-1.756,8.78s-3.512,2.927-3.512,5.853-1.171,4.1-1.171,4.1-.585,0-1.171,1.171a7.243,7.243,0,0,1-1.171,1.756s-34.533,35.119-26.924,52.678,22.242,53.263,22.242,53.263,16.974-5.268,16.974-9.365l-16.389-46.24,32.777-33.948,26.339,35.7s-5.268,62.628-1.756,63.214,22.827,4.682,23.412,2.926,3.512-79.6,2.341-82.529-18.145-38.045-18.145-38.045,2.927-3.512,1.171-4.682-4.683-12.292-4.683-12.292S763.849,465.57,760.923,470.838Z" transform="translate(-416.946 -266.291)" fill="#2f2e41"/>
      <path id="Path_9992" data-name="Path 9992" d="M819.839,322.363l-11.8-7.276s-6.932.253-8.688,2.008-12.292,6.438-12.292,6.438,2.341,70.237,7.024,67.9,1.171-4.1,4.682-2.341,45.069,2.341,45.654,2.341,1.171-1.171,1.171-1.171l2.341-35.7,7.609-29.851L833.016,314.34Z" transform="translate(-450.694 -183.371)" fill="#d0cde1"/>
      <path id="Path_9993" data-name="Path 9993" d="M777.015,332.9h-4.682s-6.438,1.756-9.365,11.121-4.1,13.462-2.927,14.633,16.974,9.95,16.974,9.95Z" transform="translate(-435.965 -193.325)" fill="#d0cde1"/>
      <path id="Path_9994" data-name="Path 9994" d="M912.312,335.426l8.194.585s10.536,24.583,7.609,25.754-19.9,9.95-19.9,8.194S912.312,335.426,912.312,335.426Z" transform="translate(-515.658 -194.678)" fill="#d0cde1"/>
      <path id="Path_9995" data-name="Path 9995" d="M768.994,748.6l-4.773-1.756-11.031,14.633s-20.486,14.633-1.756,14.047c0,0,14.633-2.341,15.8-6.438,0,0,16.974-4.683,16.974-7.609s-3.9-10.728-5.17-10.925S772.506,752.7,768.994,748.6Z" transform="translate(-427.359 -415.284)" fill="#2f2e41"/>
      <path id="Path_9996" data-name="Path 9996" d="M910.564,794.725s-14.229-.231-14.138.177-4.006,9.773-3.421,13.285,5.853,8.194,4.682,10.536,3.512,9.365,12.877,9.95,8.194-9.95,8.194-9.95L914.076,807.6Z" transform="translate(-507.471 -440.924)" fill="#2f2e41"/>
      <path id="Path_9997" data-name="Path 9997" d="M827.417,232.485a26.583,26.583,0,0,1-2.2,1.681,20.89,20.89,0,0,0-2.649,2.631l-.906,1.014a4.655,4.655,0,0,0-1.556,3c.012.429.144.846.2,1.272.2,1.691-.828,3.549.022,5.025.246.427.626.76.9,1.171a2.738,2.738,0,0,1,.433,1.783,2.188,2.188,0,0,0,1.951-1.651A16.634,16.634,0,0,0,824,245.7a2.909,2.909,0,0,1,1.353-2.264c1.753-.859,3.766,1.374,5.637.818,1.307-.389,2-2.008,3.331-2.28a4.745,4.745,0,0,1,2.765.776c.889.4,2.087.589,2.715-.157.416-.494.46-1.286,1.012-1.622.661-.4,1.489.158,1.99.748s1.054,1.312,1.828,1.291c1.027-.029,1.813-1.4,2.787-1.071,1.1.366.594,2.126,1.261,3.074.564.8,1.745.754,2.716.622a.973.973,0,0,0,1.013-1.3L852,238.961a2.6,2.6,0,0,0-.238-1.073c-.282-.512-.867-.771-1.265-1.2-.836-.9-.8-2.478-1.835-3.133-.54-.34-1.246-.33-1.782-.676-.687-.444-.909-1.332-1.39-1.993a4.246,4.246,0,0,0-3.055-1.5c-1.163-.12-2.337.025-3.506-.013-2.377-.078-4.753-.746-7.141-.355C829.7,229.357,828.828,231.125,827.417,232.485Z" transform="translate(-468.348 -137.554)" fill="#2f2e41"/>
    </g>
    <path id="Path_10039" data-name="Path 10039" d="M140,338H293.038v50.24h-5.8v13.14L274.1,388.24H140Z" transform="translate(15088.725 6537.101)" fill="#efefef"/>
    <rect id="Rectangle_2530" data-name="Rectangle 2530" width="117.484" height="4.638" transform="translate(15242.636 6882.636)" fill="#6c63ff"/>
    <rect id="Rectangle_2531" data-name="Rectangle 2531" width="58.742" height="4.638" transform="translate(15242.636 6891.525)" fill="#6c63ff"/>
    <ellipse id="Ellipse_465" data-name="Ellipse 465" cx="6.57" cy="6.57" rx="6.57" ry="6.57" transform="translate(15242.636 6903.119)" fill="#6c63ff"/>
  </g>
</svg>
