<svg xmlns="http://www.w3.org/2000/svg" width="337" height="226" viewBox="0 0 337 226">
  <g id="组_3530" data-name="组 3530" transform="translate(-1579.311 -1340)">
    <rect id="矩形_3060" data-name="矩形 3060" width="337" height="226" transform="translate(1579.31 1340)" fill="#fff"/>
    <g id="组_3155" data-name="组 3155" transform="translate(1588.061 1345.223)">
      <g id="组_1866" data-name="组 1866" transform="translate(135.15 0)">
        <path id="路径_10064" data-name="路径 10064" d="M176.895,420.07a17.234,17.234,0,0,1,5.987-3.119c6.106-1.747,12.423-.056,18.531,1.579a69.578,69.578,0,0,0,10.071,2.172,24.878,24.878,0,0,0,14.526-2.432,17.187,17.187,0,0,0,8.909-11.347,13.182,13.182,0,0,0,.24-1.78q-.683.422-1.371.83c-4.825,2.866-11.608,5.545-16.514,2.034a8.5,8.5,0,0,1-3.353-6.177,9.485,9.485,0,0,1,2.377-7.368,8.974,8.974,0,0,1,.917-.842,11.191,11.191,0,0,1,13.1-.186,13.4,13.4,0,0,1,5.244,11.019,98.106,98.106,0,0,0,8.258-5.79l.23.295a98.481,98.481,0,0,1-8.5,5.945,13.559,13.559,0,0,1-.262,2.1,17.566,17.566,0,0,1-9.1,11.6,25.248,25.248,0,0,1-14.744,2.474,69.857,69.857,0,0,1-10.126-2.182c-6.338-1.7-12.325-3.3-18.332-1.581a17.194,17.194,0,0,0-5.952,30l-.232.293a17.482,17.482,0,0,1,.094-27.537Zm58.287-15.381a13.045,13.045,0,0,0-5.082-10.951c-4.148-2.956-10.218-2.515-13.53.98a9.107,9.107,0,0,0-2.277,7.075,8.132,8.132,0,0,0,3.2,5.909c4.743,3.393,11.376.757,16.106-2.052Q234.392,405.178,235.182,404.689Z" transform="translate(-170.168 -352.657)" fill="#3f3d56"/>
        <path id="路径_10065" data-name="路径 10065" d="M546.5,232.506h85.478c16.193,0,29.319-9.229,29.319-25.422h0c0-16.193-13.127-22.942-29.319-22.942H605.138c-32.385,0-58.638,15.978-58.638,48.363Z" transform="translate(-476.139 -184.143)" fill="#3f3d56"/>
        <path id="路径_10066" data-name="路径 10066" d="M668.808,245.641H597.669v-.187c0-12.718,4.955-23.2,14.33-30.3,8.657-6.561,20.6-10.03,34.531-10.03h22.278c7.106,0,13.093,1.561,17.316,4.515,4.783,3.346,7.208,8.3,7.208,14.715a19.6,19.6,0,0,1-7.2,15.736C681.749,243.669,675.6,245.641,668.808,245.641Zm-70.765-.374h70.765c14.445,0,24.15-8.405,24.15-20.915,0-11.983-8.8-18.856-24.15-18.856H646.53C623.14,205.5,598.15,215.949,598.043,245.267Z" transform="translate(-517.741 -201.199)" fill="#6c63ff"/>
        <g id="组_1863" data-name="组 1863" transform="translate(121.581 13.656)">
          <path id="路径_10041" data-name="路径 10041" d="M433.2,261.116H413.017a.245.245,0,0,1,0-.49H433.2a.245.245,0,1,1,0,.49Z" transform="translate(-412.723 -260.626)" fill="#f2f2f2"/>
          <path id="路径_10042" data-name="路径 10042" d="M541.572,285.882H509.829a.245.245,0,1,1,0-.49h31.743a.245.245,0,1,1,0,.49Z" transform="translate(-499.003 -282.698)" fill="#f2f2f2"/>
          <path id="路径_10043" data-name="路径 10043" d="M434.1,310.648H413.918a.245.245,0,1,1,0-.49H434.1a.245.245,0,1,1,0,.49Z" transform="translate(-413.526 -304.769)" fill="#f2f2f2"/>
          <path id="路径_10044" data-name="路径 10044" d="M636.278,311.1H616.1a.245.245,0,1,1,0-.49h20.182a.245.245,0,1,1,0,.49Z" transform="translate(-593.709 -305.171)" fill="#f2f2f2"/>
          <path id="路径_10045" data-name="路径 10045" d="M434.55,335.413H414.368a.245.245,0,1,1,0-.49H434.55a.245.245,0,1,1,0,.49Z" transform="translate(-413.927 -326.841)" fill="#f2f2f2"/>
          <path id="路径_10046" data-name="路径 10046" d="M435,360.179H414.818a.245.245,0,0,1,0-.49H435a.245.245,0,1,1,0,.49Z" transform="translate(-414.328 -348.912)" fill="#f2f2f2"/>
          <path id="路径_10047" data-name="路径 10047" d="M637.186,261.566h-5.78a.245.245,0,1,1,0-.49h5.78a.245.245,0,1,1,0,.49Z" transform="translate(-607.354 -261.028)" fill="#f2f2f2"/>
          <path id="路径_10048" data-name="路径 10048" d="M637.186,335.413h-5.78a.245.245,0,1,1,0-.49h5.78a.245.245,0,1,1,0,.49Z" transform="translate(-607.354 -326.841)" fill="#f2f2f2"/>
          <path id="路径_10049" data-name="路径 10049" d="M637.186,359.729h-5.78a.245.245,0,1,1,0-.49h5.78a.245.245,0,1,1,0,.49Z" transform="translate(-607.354 -348.511)" fill="#f2f2f2"/>
          <path id="路径_10050" data-name="路径 10050" d="M726.343,359.729h-5.78a.245.245,0,1,1,0-.49h5.78a.245.245,0,1,1,0,.49Z" transform="translate(-686.811 -348.511)" fill="#f2f2f2"/>
          <path id="路径_10051" data-name="路径 10051" d="M418.347,285.882h-5.78a.245.245,0,1,1,0-.49h5.78a.245.245,0,0,1,0,.49Z" transform="translate(-412.322 -282.698)" fill="#f2f2f2"/>
        </g>
        <g id="组_1865" data-name="组 1865" transform="translate(121.581 27.483)">
          <path id="路径_10041-2" data-name="路径 10041" d="M433.2,261.116H413.017a.245.245,0,0,1,0-.49H433.2a.245.245,0,1,1,0,.49Z" transform="translate(-412.723 -260.626)" fill="#f2f2f2"/>
          <path id="路径_10042-2" data-name="路径 10042" d="M541.572,285.882H509.829a.245.245,0,1,1,0-.49h31.743a.245.245,0,1,1,0,.49Z" transform="translate(-499.003 -282.698)" fill="#f2f2f2"/>
          <path id="路径_10043-2" data-name="路径 10043" d="M434.1,310.648H413.918a.245.245,0,1,1,0-.49H434.1a.245.245,0,1,1,0,.49Z" transform="translate(-413.526 -304.769)" fill="#f2f2f2"/>
          <path id="路径_10044-2" data-name="路径 10044" d="M636.278,311.1H616.1a.245.245,0,1,1,0-.49h20.182a.245.245,0,1,1,0,.49Z" transform="translate(-593.709 -305.171)" fill="#f2f2f2"/>
          <path id="路径_10045-2" data-name="路径 10045" d="M434.55,335.413H414.368a.245.245,0,1,1,0-.49H434.55a.245.245,0,1,1,0,.49Z" transform="translate(-413.927 -326.841)" fill="#f2f2f2"/>
          <path id="路径_10046-2" data-name="路径 10046" d="M435,360.179H414.818a.245.245,0,0,1,0-.49H435a.245.245,0,1,1,0,.49Z" transform="translate(-414.328 -348.912)" fill="#f2f2f2"/>
          <path id="路径_10047-2" data-name="路径 10047" d="M637.186,261.566h-5.78a.245.245,0,1,1,0-.49h5.78a.245.245,0,1,1,0,.49Z" transform="translate(-607.354 -261.028)" fill="#f2f2f2"/>
          <path id="路径_10048-2" data-name="路径 10048" d="M637.186,335.413h-5.78a.245.245,0,1,1,0-.49h5.78a.245.245,0,1,1,0,.49Z" transform="translate(-607.354 -326.841)" fill="#f2f2f2"/>
          <path id="路径_10049-2" data-name="路径 10049" d="M637.186,359.729h-5.78a.245.245,0,1,1,0-.49h5.78a.245.245,0,1,1,0,.49Z" transform="translate(-607.354 -348.511)" fill="#f2f2f2"/>
          <path id="路径_10050-2" data-name="路径 10050" d="M726.343,359.729h-5.78a.245.245,0,1,1,0-.49h5.78a.245.245,0,1,1,0,.49Z" transform="translate(-686.811 -348.511)" fill="#f2f2f2"/>
          <path id="路径_10051-2" data-name="路径 10051" d="M418.347,285.882h-5.78a.245.245,0,1,1,0-.49h5.78a.245.245,0,0,1,0,.49Z" transform="translate(-412.322 -282.698)" fill="#f2f2f2"/>
        </g>
        <g id="组_1864" data-name="组 1864" transform="translate(92.239 19.68)">
          <path id="路径_10062" data-name="路径 10062" d="M451.631,401.13l-4.617,4.559,4.617,4.559,1.039-1.039-3.492-3.492,3.52-3.521Z" transform="translate(-447.014 -401.13)" fill="#6c63ff"/>
          <path id="路径_10063" data-name="路径 10063" d="M609.735,401.13l4.617,4.559-4.617,4.559L608.7,409.21l3.492-3.492-3.52-3.521Z" transform="translate(-594.226 -401.13)" fill="#6c63ff"/>
          <circle id="椭圆_467" data-name="椭圆 467" cx="1.5" cy="1.5" r="1.5" transform="translate(4.86 3.097)" fill="#6c63ff"/>
          <circle id="椭圆_468" data-name="椭圆 468" cx="1.5" cy="1.5" r="1.5" transform="translate(8.86 3.097)" fill="#6c63ff"/>
          <ellipse id="椭圆_469" data-name="椭圆 469" cx="1" cy="1.5" rx="1" ry="1.5" transform="translate(12.86 3.097)" fill="#6c63ff"/>
        </g>
      </g>
      <g id="undraw_site_content_ihgn" transform="translate(0 13.277)">
        <path id="路径_9968" data-name="路径 9968" d="M314.45,89.3c.39-.443.794-.883,1.2-1.309l.426.406c-.4.42-.8.855-1.185,1.292Z" transform="translate(-228.351 -74.432)" fill="#3f3d56"/>
        <path id="路径_9969" data-name="路径 9969" d="M330.181,43c.9-.8,1.843-1.568,2.8-2.288l.353.471c-.948.71-1.879,1.47-2.766,2.257Zm5.788-4.335c1.018-.638,2.076-1.241,3.143-1.793l.27.523c-1.053.544-2.1,1.139-3.1,1.769Zm6.424-3.319c1.107-.461,2.249-.881,3.395-1.251l.181.56c-1.13.364-2.257.78-3.349,1.234Zm7.015-1.648-.135-.573c1.171-.276,2.366-.506,3.552-.684l.088.582C351.743,33.2,350.564,33.426,349.408,33.7Zm7.052-1.06-.039-.587c1.2-.08,2.415-.111,3.616-.092l-.009.589c-1.185-.019-2.385.012-3.568.091Zm7.131.114.058-.586c1.2.119,2.4.289,3.585.507l-.107.579c-1.167-.215-2.357-.383-3.536-.5ZM385.649,110.3c.94-.72,1.862-1.489,2.741-2.286l.4.436c-.891.808-1.826,1.587-2.779,2.317ZM370.61,34.043l.154-.568c1.159.314,2.32.681,3.451,1.09l-.2.553C372.9,34.715,371.753,34.353,370.61,34.043Zm20.324,71.467c.809-.865,1.593-1.776,2.329-2.705l.462.365c-.746.942-1.54,1.865-2.36,2.742ZM377.319,36.47l.245-.535c1.093.5,2.178,1.052,3.226,1.639l-.288.513C379.468,37.508,378.4,36.964,377.319,36.47Zm18.042,63.448c.658-.987,1.282-2.013,1.856-3.05l.515.285c-.582,1.051-1.215,2.091-1.881,3.091ZM383.541,39.96l.329-.488c1,.671,1.977,1.392,2.915,2.143l-.368.459C385.492,41.334,384.524,40.622,383.541,39.96Zm15.277,53.717c.488-1.081.936-2.2,1.333-3.312l.555.2c-.4,1.132-.857,2.261-1.352,3.357Zm-9.709-49.26.4-.428c.873.826,1.723,1.7,2.524,2.591l-.438.393C390.808,46.092,389.971,45.232,389.109,44.417Zm12.1,42.538c.3-1.148.564-2.32.772-3.486l.58.1c-.211,1.181-.474,2.37-.783,3.533Zm-7.34-37.23.469-.355c.725.957,1.419,1.957,2.062,2.97l-.5.315C395.268,51.655,394.584,50.67,393.869,49.725Zm8.593,30.206c.111-1.18.173-2.379.186-3.565l.588.006c-.013,1.2-.076,2.418-.188,3.614Zm-4.775-24.186.521-.273c.557,1.063,1.076,2.164,1.544,3.271l-.542.229c-.462-1.093-.974-2.179-1.523-3.228Zm4.85,17.052c-.085-1.18-.222-2.373-.4-3.546l.582-.091c.186,1.189.324,2.4.41,3.595Zm-2.075-10.482.559-.184c.375,1.139.708,2.314.989,3.48l-.572.138c-.277-1.152-.606-2.31-.976-3.434Z" transform="translate(-240.276 -31.952)" fill="#3f3d56"/>
        <path id="路径_9970" data-name="路径 9970" d="M541.012,365.246c.5-.294,1.006-.6,1.5-.915l.318.5c-.5.318-1.007.63-1.516.928Z" transform="translate(-400.093 -283.907)" fill="#3f3d56"/>
        <path id="路径_9972" data-name="路径 9972" d="M762.5,555.158v58.313h75.009V555.158Zm65.214,15.594H821.9v-5.809h5.809Z" transform="translate(-567.989 -428.561)" fill="#3f3d56"/>
        <rect id="矩形_2482" data-name="矩形 2482" width="4.839" height="6.291" transform="translate(73.045 103.61)" fill="#3f3d56"/>
        <rect id="矩形_2483" data-name="矩形 2483" width="4.839" height="6.291" transform="translate(150.261 141.777) rotate(45)" fill="#3f3d56"/>
        <rect id="矩形_2484" data-name="矩形 2484" width="4.839" height="6.291" transform="translate(135.985 31.926) rotate(45)" fill="#3f3d56"/>
        <path id="路径_9973" data-name="路径 9973" d="M781.269,717.564c-.268.526-.55,1.052-.838,1.566l-.514-.288c.285-.507.563-1.027.827-1.545Z" transform="translate(-581.192 -551.469)" fill="#3f3d56"/>
        <path id="路径_9974" data-name="路径 9974" d="M522.591,575.387c-.673,1-1.4,1.976-2.148,2.912l-.459-.368c.742-.924,1.455-1.89,2.119-2.873Zm-4.53,5.637c-.828.871-1.7,1.718-2.6,2.517l-.392-.44c.885-.789,1.748-1.624,2.564-2.483Zm-5.4,4.81c-.958.721-1.96,1.412-2.978,2.055l-.314-.5c1-.634,1.992-1.316,2.938-2.027Zm-6.386,3.339.273.521c-1.066.558-2.167,1.078-3.27,1.545l-.229-.542C504.139,590.236,505.225,589.723,506.277,589.173Zm-6.568,2.779.184.559c-1.141.375-2.312.708-3.48.988l-.137-.572C497.428,592.65,498.583,592.322,499.709,591.952Zm-6.936,1.66.089.582c-1.188.182-2.4.316-3.6.4l-.04-.587C490.407,593.924,491.6,593.792,492.773,593.612Zm-40.627-69.641c-.732.931-1.434,1.9-2.088,2.895l-.491-.324c.662-1,1.374-1.991,2.116-2.934ZM485.654,594.1l-.008.588c-1.2-.017-2.417-.083-3.614-.2l.056-.586C483.27,594.022,484.469,594.088,485.654,594.1Zm-37.437-64.18c-.569,1.039-1.1,2.116-1.584,3.2l-.538-.239c.489-1.1,1.029-2.189,1.605-3.242Zm30.335,63.5-.1.579c-1.183-.213-2.371-.478-3.532-.787l.151-.569C476.212,592.948,477.385,593.21,478.552,593.42Zm-33.235-56.979c-.392,1.119-.742,2.268-1.041,3.415l-.57-.148c.3-1.162.658-2.327,1.055-3.461Zm26.341,55.144-.2.554c-1.132-.4-2.261-.858-3.356-1.352l.242-.536C469.427,590.738,470.541,591.187,471.658,591.585Zm-28.139-48.24c-.2,1.168-.362,2.359-.469,3.539l-.586-.053c.109-1.2.269-2.4.475-3.587Zm21.639,45.3-.285.515c-1.051-.583-2.09-1.216-3.088-1.883l.327-.489C463.1,587.45,464.12,588.075,465.158,588.65Zm-22.285-38.2c-.01,1.187.03,2.388.118,3.568l-.587.044c-.089-1.2-.129-2.414-.119-3.617Zm16.356,34.24-.366.461c-.94-.747-1.86-1.543-2.735-2.365l.4-.429C457.394,583.168,458.3,583.953,459.229,584.69ZM443.4,557.565c.186,1.17.423,2.348.705,3.5l-.572.14c-.286-1.168-.527-2.361-.715-3.548Zm10.632,22.242-.437.394c-.8-.891-1.58-1.829-2.308-2.785l.468-.356C452.476,578,453.242,578.928,454.035,579.807ZM445.1,564.495c.376,1.122.8,2.244,1.273,3.335l-.541.232c-.475-1.106-.909-2.243-1.29-3.38Zm4.613,9.638-.5.317c-.646-1.011-1.26-2.065-1.822-3.125l.52-.276C448.471,572.1,449.078,573.135,449.715,574.133Z" transform="translate(-325.252 -404.645)" fill="#3f3d56"/>
        <path id="路径_9975" data-name="路径 9975" d="M492.635,507.255c-.414.409-.825.832-1.222,1.258l-.431-.4c.4-.432.819-.861,1.238-1.275Z" transform="translate(-362.169 -391.932)" fill="#3f3d56"/>
        <g id="组_1868" data-name="组 1868" transform="translate(24.968 124.903)">
          <g id="组_1867" data-name="组 1867" transform="translate(0 0)">
            <path id="路径_9976" data-name="路径 9976" d="M1019.488,374.362a17.229,17.229,0,0,1-1.819-6.816c-.416-4.165-.149-11.185,3.492-20.978a42.306,42.306,0,0,0-1.676-33.669l.419-.243a37.154,37.154,0,0,1,3.506,9.931,43.327,43.327,0,0,1-1.794,24.15c-6.885,18.52-1.766,27.287-1.714,27.374Z" transform="translate(-1005.009 -305.518)" fill="#3f3d56"/>
            <circle id="椭圆_451" data-name="椭圆 451" cx="3.146" cy="3.146" r="3.146" transform="translate(8.637)" fill="#6c63ff"/>
            <circle id="椭圆_452" data-name="椭圆 452" cx="3.146" cy="3.146" r="3.146" transform="translate(18.558 11.614)" fill="#3f3d56"/>
            <circle id="椭圆_453" data-name="椭圆 453" cx="3.146" cy="3.146" r="3.146" transform="translate(11.783 19.357)" fill="#6c63ff"/>
            <circle id="椭圆_454" data-name="椭圆 454" cx="3.146" cy="3.146" r="3.146" transform="translate(20.01 25.89)" fill="#6c63ff"/>
            <circle id="椭圆_455" data-name="椭圆 455" cx="3.146" cy="3.146" r="3.146" transform="translate(9.363 36.053)" fill="#3f3d56"/>
            <path id="路径_9977" data-name="路径 9977" d="M1031.923,525.708s-3.146-7.743,6.291-13.55Z" transform="translate(-1015.543 -456.748)" fill="#3f3d56"/>
            <path id="路径_9978" data-name="路径 9978" d="M978.315,542s-1.432-8.234-12.512-8.163Z" transform="translate(-965.804 -473.182)" fill="#3f3d56"/>
          </g>
        </g>
        <path id="路径_9979" data-name="路径 9979" d="M594.887,752.561a2.9,2.9,0,1,1,2.9-2.9A2.9,2.9,0,0,1,594.887,752.561Zm0-5.323a2.42,2.42,0,1,0,2.42,2.42A2.42,2.42,0,0,0,594.887,747.238Z" transform="translate(-438.731 -573.799)" fill="#2f2e41"/>
        <path id="路径_9980" data-name="路径 9980" d="M720.846,112.079H716.07V107.3h4.777Zm-4.409-.367h4.042V107.67h-4.042Z" transform="translate(-532.793 -89.071)" fill="#3f3d56"/>
        <path id="路径_9981" data-name="路径 9981" d="M187.248,656.974l-3.258-3.493,3.493-3.258,3.258,3.493Zm-2.739-3.475,2.757,2.956,2.956-2.757-2.757-2.956Z" transform="translate(-115.181 -500.624)" fill="#2f2e41"/>
        <path id="路径_9982" data-name="路径 9982" d="M330.865,405.844H244.286V370.895H316.3Z" transform="translate(-144.797 -281.152)" fill="#efefef"/>
        <path id="路径_9983" data-name="路径 9983" d="M423.581,414.007H326.017V371.115h79.872l.067.164Zm-97.035-.53H422.79l-17.256-41.833H326.546Z" transform="translate(-237.119 -289.05)" fill="#3f3d56"/>
        <rect id="矩形_2485" data-name="矩形 2485" width="43.157" height="3.971" transform="translate(113.786 95.303)" fill="#6c63ff"/>
        <rect id="矩形_2486" data-name="矩形 2486" width="43.157" height="3.971" transform="translate(113.786 103.511)" fill="#6c63ff"/>
        <rect id="矩形_2487" data-name="矩形 2487" width="43.157" height="3.971" transform="translate(113.786 111.719)" fill="#6c63ff"/>
        <path id="路径_9984" data-name="路径 9984" d="M197.951,137.2H125.5V93.158h56.3l.058.159Zm-71.968-.484h71.275L181.467,93.642H125.984Z" transform="translate(-85.12 -78.348)" fill="#3f3d56"/>
        <circle id="椭圆_456" data-name="椭圆 456" cx="4.355" cy="4.355" r="4.355" transform="translate(108.13 54.249)" fill="#6c63ff"/>
        <rect id="矩形_2534" data-name="矩形 2534" width="290.582" height="0.542" transform="translate(0 193.666)" fill="#3f3d56"/>
        <circle id="椭圆_457" data-name="椭圆 457" cx="4.355" cy="4.355" r="4.355" transform="translate(181.203 120.547)" fill="#6c63ff"/>
        <circle id="椭圆_458" data-name="椭圆 458" cx="7.329" cy="7.329" r="7.329" transform="translate(209.462 50.68)" fill="#a0616a"/>
        <path id="路径_9986" data-name="路径 9986" d="M828.5,284.294s2.443,5.5-.916,7.634,5.5,10.993,5.5,10.993l9.772-10.382s-5.191-3.359-4.275-8.855Z" transform="translate(-616.751 -222.774)" fill="#a0616a"/>
        <path id="路径_9987" data-name="路径 9987" d="M733.757,382.121l-2.138,12.214s-3.664,7.329-3.664,13.741-.611,7.634-.611,7.634-6.107,12.214-1.832,12.825,6.107-12.52,6.107-12.52,5.8-14.352,5.8-18.932l3.97-10.077Z" transform="translate(-538.8 -297.393)" fill="#a0616a"/>
        <path id="路径_9988" data-name="路径 9988" d="M923.421,384.645l.611,10.688s2.137,5.5.611,15.268l-1.221,9.466s2.748,10.688,0,10.993-6.107-6.718-4.275-10.688v-3.359s-1.832-14.352-1.221-16.795l-2.138-11.6Z" transform="translate(-684.186 -299.306)" fill="#a0616a"/>
        <path id="路径_9989" data-name="路径 9989" d="M657.776,696.531l3.054,7.939,6.718-1.221-4.275-8.55Z" transform="translate(-458.238 -526.607)" fill="#a0616a"/>
        <path id="路径_9990" data-name="路径 9990" d="M774.8,728.773l-.916,11.6h7.634L781.21,730.3Z" transform="translate(-546.25 -552.437)" fill="#a0616a"/>
        <path id="路径_9991" data-name="路径 9991" d="M743.322,469.95l-.916,4.58s-1.832,1.527-1.832,3.054a3.092,3.092,0,0,1-.611,2.137s-.305,0-.611.611a3.78,3.78,0,0,1-.611.916S720.725,499.57,724.7,508.731s11.6,27.788,11.6,27.788,8.856-2.748,8.856-4.886l-8.55-24.124L753.7,489.8l13.741,18.627S764.7,541.1,766.53,541.4s11.909,2.443,12.214,1.527,1.832-41.529,1.221-43.056-9.466-19.849-9.466-19.849,1.527-1.832.611-2.443-2.443-6.413-2.443-6.413S744.849,467.2,743.322,469.95Z" transform="translate(-538.898 -363.236)" fill="#2f2e41"/>
        <path id="路径_9992" data-name="路径 9992" d="M804.162,318.526l-6.155-3.8s-3.617.132-4.533,1.048-6.413,3.359-6.413,3.359,1.221,36.643,3.664,35.422.611-2.138,2.443-1.221,23.513,1.221,23.818,1.221.611-.611.611-.611l1.221-18.627,3.97-15.573-11.753-5.408Z" transform="translate(-586.608 -246.012)" fill="#d0cde1"/>
        <path id="路径_9993" data-name="路径 9993" d="M768.682,332.9h-2.443s-3.359.916-4.886,5.8-2.138,7.023-1.527,7.634,8.856,5.191,8.856,5.191Z" transform="translate(-565.785 -260.083)" fill="#d0cde1"/>
        <path id="路径_9994" data-name="路径 9994" d="M910.353,335.426l4.275.305s5.5,12.825,3.97,13.436-10.382,5.191-10.382,4.275S910.353,335.426,910.353,335.426Z" transform="translate(-678.447 -261.997)" fill="#d0cde1"/>
        <path id="路径_9995" data-name="路径 9995" d="M756.821,747.759l-2.49-.916-5.755,7.634s-10.688,7.634-.916,7.329c0,0,7.634-1.221,8.245-3.359,0,0,8.856-2.443,8.856-3.97s-2.035-5.6-2.7-5.7S758.653,749.9,756.821,747.759Z" transform="translate(-553.619 -573.866)" fill="#2f2e41"/>
        <path id="路径_9996" data-name="路径 9996" d="M902.138,794.693s-7.424-.121-7.376.092-2.09,5.1-1.785,6.931,3.054,4.275,2.443,5.5,1.832,4.886,6.718,5.191,4.275-5.191,4.275-5.191l-2.443-5.8Z" transform="translate(-666.873 -610.112)" fill="#2f2e41"/>
        <path id="路径_9997" data-name="路径 9997" d="M823.862,230.767a13.868,13.868,0,0,1-1.146.877,10.9,10.9,0,0,0-1.382,1.373l-.473.529a2.429,2.429,0,0,0-.812,1.567c.006.224.075.441.1.664.107.882-.432,1.852.012,2.621.128.223.327.4.468.611a1.428,1.428,0,0,1,.226.93,1.142,1.142,0,0,0,1.018-.861,8.667,8.667,0,0,0,.2-1.415,1.517,1.517,0,0,1,.706-1.181c.915-.448,1.965.717,2.941.427.682-.2,1.041-1.048,1.738-1.189a2.475,2.475,0,0,1,1.443.4c.464.21,1.089.307,1.416-.082.217-.258.24-.671.528-.846.345-.21.777.082,1.038.39s.55.685.953.673c.536-.015.946-.728,1.454-.559.574.191.31,1.109.658,1.6.294.418.911.393,1.417.324a.508.508,0,0,0,.529-.678l-.212-2.806a1.356,1.356,0,0,0-.124-.56c-.147-.267-.452-.4-.66-.625-.436-.47-.415-1.293-.958-1.634-.282-.177-.65-.172-.93-.352-.359-.231-.474-.695-.725-1.04a2.215,2.215,0,0,0-1.594-.785c-.607-.063-1.219.013-1.829-.007a19,19,0,0,0-3.726-.185C825.055,229.135,824.6,230.057,823.862,230.767Z" transform="translate(-611.565 -181.241)" fill="#2f2e41"/>
      </g>
      <path id="路径_10039" data-name="路径 10039" d="M140,338h79.841v26.21h-3.024v6.855l-6.855-6.855H140Z" transform="translate(-94.78 -301.494)" fill="#efefef"/>
      <rect id="矩形_2530" data-name="矩形 2530" width="61.292" height="2.419" transform="translate(52.477 40.437)" fill="#6c63ff"/>
      <rect id="矩形_2531" data-name="矩形 2531" width="30.646" height="2.419" transform="translate(52.477 45.075)" fill="#6c63ff"/>
      <ellipse id="椭圆_465" data-name="椭圆 465" cx="3.428" cy="3.428" rx="3.428" ry="3.428" transform="translate(52.477 51.123)" fill="#6c63ff"/>
    </g>
  </g>
</svg>
