<svg xmlns="http://www.w3.org/2000/svg" width="669.648" height="331.1"><g data-name="Group 1933"><g data-name="Group 1579" transform="translate(-507 -4277)"><ellipse data-name="Ellipse 238" cx="334.824" cy="26.868" rx="334.824" ry="26.868" transform="translate(507 4554.364)" fill="#f7f8f9"/><g data-name="Group 1275" transform="translate(576 4400)"><path data-name="Rectangle 2036" fill="#3f3d56" d="M0 123h139v42H0z"/><ellipse data-name="Ellipse 223" cx="69.5" cy="14.5" rx="69.5" ry="14.5" transform="translate(0 108)" fill="#6c63ff"/><ellipse data-name="Ellipse 224" cx="69.5" cy="15" rx="69.5" ry="15" transform="translate(0 151)" fill="#3f3d56"/><path data-name="Rectangle 2036" fill="#3f3d56" d="M0 68h139v42H0z"/><ellipse data-name="Ellipse 223" cx="69.5" cy="15.5" rx="69.5" ry="15.5" transform="translate(0 53)" fill="#6c63ff"/><ellipse data-name="Ellipse 224" cx="69.5" cy="16" rx="69.5" ry="16" transform="translate(0 96)" fill="#3f3d56"/><path data-name="Rectangle 2036" fill="#3f3d56" d="M0 16h139v42H0z"/><ellipse data-name="Ellipse 223" cx="69.5" cy="15.5" rx="69.5" ry="15.5" fill="#6c63ff"/><ellipse data-name="Ellipse 224" cx="69.5" cy="15.5" rx="69.5" ry="15.5" transform="translate(0 43)" fill="#3f3d56"/></g><g data-name="Group 1276" fill="#ff6584"><path data-name="Rectangle 2037" opacity=".8" d="M641.575 4456.546h7.435v7.435h-7.435z"/><path data-name="Rectangle 2038" d="M652.263 4456.546h7.435v7.435h-7.435z"/><path data-name="Rectangle 2039" opacity=".4" d="M630.887 4456.546h7.435v7.435h-7.435z"/></g><g data-name="Group 1277" fill="#ff6584"><path data-name="Rectangle 2037" opacity=".8" d="M641.575 4509.885h7.435v7.435h-7.435z"/><path data-name="Rectangle 2038" d="M652.263 4509.885h7.435v7.435h-7.435z"/><path data-name="Rectangle 2039" opacity=".4" d="M630.887 4509.885h7.435v7.435h-7.435z"/></g><g data-name="Group 1278" fill="#ff6584"><path data-name="Rectangle 2037" opacity=".8" d="M641.575 4563.666h7.435v7.435h-7.435z"/><path data-name="Rectangle 2038" d="M652.263 4563.666h7.435v7.435h-7.435z"/><path data-name="Rectangle 2039" opacity=".4" d="M630.887 4563.666h7.435v7.435h-7.435z"/></g><g data-name="Group 1275" transform="translate(772.737 4400)"><path data-name="Rectangle 2036" fill="#3f3d56" d="M.263 123h138v42h-138z"/><ellipse data-name="Ellipse 223" cx="69" cy="14.5" rx="69" ry="14.5" transform="translate(.263 108)" fill="#6c63ff"/><ellipse data-name="Ellipse 224" cx="69" cy="15" rx="69" ry="15" transform="translate(.263 151)" fill="#3f3d56"/><path data-name="Rectangle 2036" fill="#3f3d56" d="M.263 68h138v42h-138z"/><ellipse data-name="Ellipse 223" cx="69" cy="15.5" rx="69" ry="15.5" transform="translate(.263 53)" fill="#6c63ff"/><ellipse data-name="Ellipse 224" cx="69" cy="16" rx="69" ry="16" transform="translate(.263 96)" fill="#3f3d56"/><path data-name="Rectangle 2036" fill="#3f3d56" d="M.263 16h138v42h-138z"/><ellipse data-name="Ellipse 223" cx="69" cy="15.5" rx="69" ry="15.5" transform="translate(.263)" fill="#6c63ff"/><ellipse data-name="Ellipse 224" cx="69" cy="15.5" rx="69" ry="15.5" transform="translate(.263 43)" fill="#3f3d56"/></g><g data-name="Group 1276" fill="#ff6584"><path data-name="Rectangle 2037" opacity=".8" d="M838.312 4456.546h7.435v7.435h-7.435z"/><path data-name="Rectangle 2038" d="M849 4456.546h7.435v7.435H849z"/><path data-name="Rectangle 2039" opacity=".4" d="M827.624 4456.546h7.435v7.435h-7.435z"/></g><g data-name="Group 1277" fill="#ff6584"><path data-name="Rectangle 2037" opacity=".8" d="M838.312 4509.885h7.435v7.435h-7.435z"/><path data-name="Rectangle 2038" d="M849 4509.885h7.435v7.435H849z"/><path data-name="Rectangle 2039" opacity=".4" d="M827.624 4509.885h7.435v7.435h-7.435z"/></g><g data-name="Group 1278" fill="#ff6584"><path data-name="Rectangle 2037" opacity=".8" d="M838.312 4563.666h7.435v7.435h-7.435z"/><path data-name="Rectangle 2038" d="M849 4563.666h7.435v7.435H849z"/><path data-name="Rectangle 2039" opacity=".4" d="M827.624 4563.666h7.435v7.435h-7.435z"/></g><path data-name="Line 89" fill="none" stroke="#707070" stroke-dasharray="6" d="M645.5 4400.5v-96"/><path data-name="Line 90" fill="none" stroke="#707070" stroke-dasharray="6" d="M841.5 4400.5v-96"/><path data-name="Line 91" fill="none" stroke="#707070" stroke-dasharray="6" d="M1038.5 4400.5v-96"/><path data-name="Line 92" fill="none" stroke="#707070" d="M547.5 4304.5h600"/><g data-name="Ellipse 239" transform="translate(618 4277)" fill="#fff" stroke="#707070"><circle cx="27.5" cy="27.5" r="27.5" stroke="none"/><circle cx="27.5" cy="27.5" r="27" fill="none"/></g><g data-name="Group 1304" transform="translate(-21 122)"><g data-name="Ellipse 240" transform="translate(639 4155)" fill="#fff" stroke="#707070"><circle cx="27.5" cy="27.5" r="27.5" stroke="none"/><circle cx="27.5" cy="27.5" r="27" fill="none"/></g><circle data-name="Ellipse 241" cx="21.5" cy="21.5" r="21.5" transform="translate(645 4161)" fill="#6c63ff"/><g data-name="Group 1303" fill="none" stroke="#fff" stroke-width="2"><path data-name="Line 93" d="M656.5 4182.5h20"/><path data-name="Line 94" d="M666.5 4172.5v20"/></g></g><g data-name="Group 1305" transform="translate(175 122)"><g data-name="Ellipse 240" transform="translate(639 4155)" fill="#fff" stroke="#707070"><circle cx="27.5" cy="27.5" r="27.5" stroke="none"/><circle cx="27.5" cy="27.5" r="27" fill="none"/></g><circle data-name="Ellipse 241" cx="21.5" cy="21.5" r="21.5" transform="translate(645 4161)" fill="#6c63ff"/><g data-name="Group 1303" fill="none" stroke="#fff" stroke-width="2"><path data-name="Line 93" d="M656.5 4182.5h20"/><path data-name="Line 94" d="M666.5 4172.5v20"/></g></g><g data-name="Group 1306" transform="translate(372 122)"><g data-name="Ellipse 240" transform="translate(639 4155)" fill="#fff" stroke="#707070"><circle cx="27.5" cy="27.5" r="27.5" stroke="none"/><circle cx="27.5" cy="27.5" r="27" fill="none"/></g><circle data-name="Ellipse 241" cx="21.5" cy="21.5" r="21.5" transform="translate(645 4161)" fill="#6c63ff"/><g data-name="Group 1303" fill="none" stroke="#fff" stroke-width="2"><path data-name="Line 93" d="M656.5 4182.5h20"/><path data-name="Line 94" d="M666.5 4172.5v20"/></g></g><g data-name="Group 1382"><g data-name="Group 1275" transform="translate(969.474 4400)"><path data-name="Rectangle 2036" fill="#3f3d56" d="M-.474 123h139v42h-139z"/><ellipse data-name="Ellipse 223" cx="69.5" cy="14.5" rx="69.5" ry="14.5" transform="translate(-.474 108)" fill="#6c63ff"/><ellipse data-name="Ellipse 224" cx="69.5" cy="15" rx="69.5" ry="15" transform="translate(-.474 151)" fill="#3f3d56"/><path data-name="Rectangle 2036" fill="#3f3d56" d="M-.474 68h139v42h-139z"/><ellipse data-name="Ellipse 223" cx="69.5" cy="15.5" rx="69.5" ry="15.5" transform="translate(-.474 53)" fill="#6c63ff"/><ellipse data-name="Ellipse 224" cx="69.5" cy="16" rx="69.5" ry="16" transform="translate(-.474 96)" fill="#3f3d56"/><path data-name="Rectangle 2036" fill="#3f3d56" d="M-.474 16h139v42h-139z"/><ellipse data-name="Ellipse 223" cx="69.5" cy="15.5" rx="69.5" ry="15.5" transform="translate(-.474)" fill="#6c63ff"/><ellipse data-name="Ellipse 224" cx="69.5" cy="15.5" rx="69.5" ry="15.5" transform="translate(-.474 43)" fill="#3f3d56"/></g><g data-name="Group 1276" fill="#ff6584"><path data-name="Rectangle 2037" opacity=".8" d="M1035.048 4456.546h7.435v7.435h-7.435z"/><path data-name="Rectangle 2038" d="M1045.736 4456.546h7.435v7.435h-7.435z"/><path data-name="Rectangle 2039" opacity=".4" d="M1024.36 4456.546h7.435v7.435h-7.435z"/></g><g data-name="Group 1277" fill="#ff6584"><path data-name="Rectangle 2037" opacity=".8" d="M1035.048 4509.885h7.435v7.435h-7.435z"/><path data-name="Rectangle 2038" d="M1045.736 4509.885h7.435v7.435h-7.435z"/><path data-name="Rectangle 2039" opacity=".4" d="M1024.36 4509.885h7.435v7.435h-7.435z"/></g><g data-name="Group 1278" fill="#ff6584"><path data-name="Rectangle 2037" opacity=".8" d="M1035.048 4563.666h7.435v7.435h-7.435z"/><path data-name="Rectangle 2038" d="M1045.736 4563.666h7.435v7.435h-7.435z"/><path data-name="Rectangle 2039" opacity=".4" d="M1024.36 4563.666h7.435v7.435h-7.435z"/></g></g></g></g></svg>