<svg xmlns="http://www.w3.org/2000/svg" width="176.738" height="180.959" viewBox="0 0 176.738 180.959">
  <defs>
    <style>
      .cls-1, .cls-2 {
        fill: #083863;
        stroke: #083863;
      }

      .cls-2 {
        stroke-width: 0.5px;
      }
    </style>
  </defs>
  <g id="editing的副本" transform="translate(0.5 0.25)">
    <path id="Path_184" data-name="Path 184" class="cls-1" d="M161.094,64H137.662v5.858h23.432a8.787,8.787,0,0,1,8.787,8.787v73.224H5.858V78.645a8.787,8.787,0,0,1,8.787-8.787H38.077V64H14.645A14.662,14.662,0,0,0,0,78.645v87.869a14.662,14.662,0,0,0,14.645,14.645h49.4l-2.2,17.574H58.579a5.858,5.858,0,0,0-5.858,5.858l.663,10.328H47.526v5.858h82.011v-5.858H123.68l-.663-10.328a5.858,5.858,0,0,0-5.858-5.858h-3.272l-2.2-17.574h49.4a14.662,14.662,0,0,0,14.645-14.645V78.645A14.662,14.662,0,0,0,161.094,64ZM117.822,214.919H59.242l-.663-10.328h58.579Zm-9.839-16.186H67.755l2.2-17.574h35.834ZM161.094,175.3H14.645a8.787,8.787,0,0,1-8.787-8.787v-8.787H169.881v8.787A8.787,8.787,0,0,1,161.094,175.3Zm0,0" transform="translate(0 -40.568)"/>
    <path id="Path_185" data-name="Path 185" class="cls-1" d="M424,336h5.858v5.858H424Zm0,0" transform="translate(-268.764 -212.983)"/>
    <path id="Path_186" data-name="Path 186" class="cls-2" d="M200.248,166.648a2.929,2.929,0,0,0,2.537-4.394,20.471,20.471,0,0,0-34.544-1.464H137.415a20.471,20.471,0,0,0-34.544,1.464,2.929,2.929,0,0,0,2.537,4.394h10.16l1.954,5.858-1.954,5.858h-10.16a2.929,2.929,0,0,0-2.537,4.393,20.471,20.471,0,0,0,34.544,1.465h30.826a20.471,20.471,0,0,0,34.544-1.465,2.929,2.929,0,0,0-2.537-4.393h-10.16l-1.954-5.858,1.954-5.858Zm-17.979,6.783,2.929,8.787a2.932,2.932,0,0,0,2.777,2h5.829a14.6,14.6,0,0,1-21.427-4.394,2.928,2.928,0,0,0-2.533-1.464H135.811a2.928,2.928,0,0,0-2.533,1.464,14.6,14.6,0,0,1-21.427,4.394h5.829a2.932,2.932,0,0,0,2.777-2l2.929-8.787a2.868,2.868,0,0,0,0-1.851l-2.929-8.787a2.932,2.932,0,0,0-2.777-2h-5.829a14.6,14.6,0,0,1,21.427,4.393,2.928,2.928,0,0,0,2.533,1.464h34.035a2.928,2.928,0,0,0,2.533-1.464,14.6,14.6,0,0,1,21.427-4.393h-5.829a2.932,2.932,0,0,0-2.777,2l-2.929,8.787A2.868,2.868,0,0,0,182.27,173.431Zm0,0" transform="translate(-64.959 -96.352)"/>
    <path id="Path_187" data-name="Path 187" class="cls-2" d="M111.881,34.717a40.964,40.964,0,0,0-1.924,4.687L98.513,41.039A2.927,2.927,0,0,0,96,43.935V55.651h5.858V46.475l10.749-1.536a2.926,2.926,0,0,0,2.4-2.079,34.977,34.977,0,0,1,2.892-7.029,2.93,2.93,0,0,0-.226-3.166l-6.5-8.673L120,15.157l8.673,6.517a2.929,2.929,0,0,0,3.166.226,35.107,35.107,0,0,1,7.031-2.89,2.935,2.935,0,0,0,2.079-2.4l1.526-10.752h12.494L156.5,16.6a2.931,2.931,0,0,0,2.081,2.4,35.217,35.217,0,0,1,7.029,2.892,2.928,2.928,0,0,0,3.161-.22l8.673-6.5,8.833,8.833-6.507,8.667a2.93,2.93,0,0,0-.226,3.166,34.99,34.99,0,0,1,2.89,7.031,2.932,2.932,0,0,0,2.4,2.079l10.749,1.535v9.167h5.858V43.935a2.93,2.93,0,0,0-2.513-2.9L187.48,39.4a40.962,40.962,0,0,0-1.924-4.687l6.929-9.232a2.929,2.929,0,0,0-.269-3.829L179.786,9.229a2.93,2.93,0,0,0-3.826-.272l-9.237,6.923a40.71,40.71,0,0,0-4.687-1.924L160.409,2.516A2.93,2.93,0,0,0,157.508,0H139.935a2.929,2.929,0,0,0-2.9,2.516L135.4,13.957a40.705,40.705,0,0,0-4.687,1.924l-9.232-6.923a2.93,2.93,0,0,0-3.826.272L105.226,21.657a2.929,2.929,0,0,0-.269,3.829Zm0,0" transform="translate(-60.852 0)"/>
    <path id="Path_188" data-name="Path 188" class="cls-1" d="M232,32h5.858v5.858H232Zm0,0" transform="translate(-147.06 -20.284)"/>
    <path id="Path_189" data-name="Path 189" class="cls-1" d="M155.152,63.29l4.142-4.142,4.142,4.142-4.142,4.143Zm0,0" transform="translate(-98.348 -37.493)"/>
    <path id="Path_190" data-name="Path 190" class="cls-1" d="M302.227,63.294l4.142-4.142,4.143,4.142-4.143,4.143Zm0,0" transform="translate(-191.575 -37.495)"/>
    <path id="Path_191" data-name="Path 191" class="cls-1" d="M176,103.432h5.858a17.574,17.574,0,1,1,35.148,0h5.858a23.432,23.432,0,0,0-46.864,0Zm0,0" transform="translate(-111.563 -50.71)"/>
  </g>
</svg>
