<svg xmlns="http://www.w3.org/2000/svg" xmlns:xlink="http://www.w3.org/1999/xlink" width="750" height="550" viewBox="0 0 750 550">
  <defs>
    <clipPath id="clip-path">
      <rect id="Rectangle_2648" data-name="Rectangle 2648" width="750" height="550" transform="translate(3192 2631)" fill="none" stroke="#707070" stroke-width="1"/>
    </clipPath>
  </defs>
  <g id="Mask_Group_21" data-name="Mask Group 21" transform="translate(-3192 -2631)" clip-path="url(#clip-path)">
    <g id="Group_2228" data-name="Group 2228" transform="translate(1626.881 -2053.558)">
      <path id="Path_10381" data-name="Path 10381" d="M364.948,69.315c-40.269-1.4-78.622-14.4-115.252-28.622s-72.9-29.978-112.2-37.519c-25.28-4.847-54.188-5.531-74.559,8.02C43.335,24.261,37,46.754,33.591,67.648c-2.557,15.717-4.063,32.262,2.955,46.977,4.872,10.217,13.527,18.8,19.512,28.584,20.819,34.047,6.1,76.059-16.451,109.279-10.578,15.6-22.86,30.488-31.03,47.076s-11.946,35.621-4.8,52.558c7.087,16.8,23.967,29.393,42.254,38.26,37.133,18.044,80.887,23.165,123.577,26.083,94.464,6.465,189.437,3.665,284.15.865,35.055-1.039,70.26-2.091,104.749-7.51,19.145-3.005,38.919-7.784,52.819-19.288,17.646-14.641,22.02-39.429,10.2-57.791-19.836-30.793-74.665-38.44-88.547-71.486-7.635-18.193.205-38.453,11.293-55.327,23.793-36.188,63.67-67.939,65.774-109.3,1.443-28.41-17.727-56.864-47.369-70.31C531.6,12.228,488.518,14,465.609,37.321,441.977,61.307,400.488,70.56,364.948,69.315Z" transform="translate(1565.119 4850.209) rotate(-17)" fill="#f7f8f9"/>
      <path id="Path_10382" data-name="Path 10382" d="M0,0C17.884,23.567,49.576,16.183,67.369,15.541s61.22,7.971,68.239,47.138" transform="matrix(0.995, -0.105, 0.105, 0.995, 1958.624, 4944.317)" fill="none" stroke="#3f3d56" stroke-width="1"/>
      <g id="Group_2215" data-name="Group 2215" transform="translate(1643.272 4801.498)">
        <rect id="Rectangle_2605" data-name="Rectangle 2605" width="101.726" height="20.259" transform="translate(31.087 101.726) rotate(-90)" fill="#3351ff"/>
        <rect id="Rectangle_2606" data-name="Rectangle 2606" width="62.439" height="20.259" transform="translate(62.175 101.726) rotate(-90)" fill="#ff6584"/>
        <rect id="Rectangle_2607" data-name="Rectangle 2607" width="78.575" height="20.259" transform="translate(0 101.726) rotate(-90)" fill="#6c63ff"/>
      </g>
      <g id="Group_2217" data-name="Group 2217" transform="translate(1776.909 4803.289)">
        <path id="Path_10383" data-name="Path 10383" d="M5.283,0a49.857,49.857,0,0,0,44.56,72.193V26.377Z" transform="translate(105.338 72.202) rotate(180)" fill="#3f3d56"/>
        <path id="Path_10384" data-name="Path 10384" d="M0,0V102.24A51.12,51.12,0,0,0,51.12,51.12,51.12,51.12,0,0,0,0,0Z" transform="translate(51.12 102.24) rotate(180)" fill="#6c63ff"/>
        <path id="Path_10385" data-name="Path 10385" d="M41.988,0A46.962,46.962,0,0,0,0,25.912L41.988,50.755Z" transform="translate(97.483 101.99) rotate(180)" fill="#ff6584"/>
        <g id="Group_2216" data-name="Group 2216" transform="translate(72.07 14.381)">
          <path id="Path_10386" data-name="Path 10386" d="M437.647,169.764l-.354-.341L463.676,144h45.957v.483H463.883Z" transform="translate(-437.293 -144)" fill="#2f2e41"/>
        </g>
      </g>
      <g id="Group_2220" data-name="Group 2220" transform="translate(1643.306 4943.459)">
        <rect id="Rectangle_2608" data-name="Rectangle 2608" width="10.634" height="24.167" transform="translate(29.001)" fill="#3351ff"/>
        <rect id="Rectangle_2609" data-name="Rectangle 2609" width="10.634" height="10.634" fill="#6c63ff"/>
        <rect id="Rectangle_2610" data-name="Rectangle 2610" width="10.634" height="24.167" transform="translate(0 14.5)" fill="#dcdfe8"/>
        <rect id="Rectangle_2611" data-name="Rectangle 2611" width="10.634" height="11.6" transform="translate(29.001 27.067)" fill="#dcdfe8"/>
        <rect id="Rectangle_2612" data-name="Rectangle 2612" width="10.634" height="17.4" transform="translate(14.5)" fill="#ff6584"/>
        <rect id="Rectangle_2613" data-name="Rectangle 2613" width="10.634" height="17.4" transform="translate(14.5 21.267)" fill="#dcdfe8"/>
        <g id="Group_2218" data-name="Group 2218" transform="translate(42.534)">
          <rect id="Rectangle_2614" data-name="Rectangle 2614" width="10.634" height="24.167" transform="translate(29.001)" fill="#dcdfe8"/>
          <rect id="Rectangle_2615" data-name="Rectangle 2615" width="11.6" height="10.634" transform="translate(0)" fill="#dcdfe8"/>
          <rect id="Rectangle_2616" data-name="Rectangle 2616" width="11.6" height="24.167" transform="translate(0 14.5)" fill="#dcdfe8"/>
          <rect id="Rectangle_2617" data-name="Rectangle 2617" width="10.634" height="11.6" transform="translate(29.001 27.067)" fill="#dcdfe8"/>
          <rect id="Rectangle_2618" data-name="Rectangle 2618" width="10.634" height="17.4" transform="translate(14.5)" fill="#dcdfe8"/>
          <rect id="Rectangle_2619" data-name="Rectangle 2619" width="10.634" height="17.4" transform="translate(14.5 21.267)" fill="#dcdfe8"/>
        </g>
        <g id="Group_2219" data-name="Group 2219" transform="translate(0 41.568)">
          <rect id="Rectangle_2620" data-name="Rectangle 2620" width="10.634" height="24.167" transform="translate(29.001 0)" fill="#dcdfe8"/>
          <rect id="Rectangle_2621" data-name="Rectangle 2621" width="10.634" height="11.6" transform="translate(0 0)" fill="#dcdfe8"/>
          <rect id="Rectangle_2622" data-name="Rectangle 2622" width="10.634" height="24.167" transform="translate(0 14.5)" fill="#dcdfe8"/>
          <rect id="Rectangle_2623" data-name="Rectangle 2623" width="10.634" height="10.634" transform="translate(29.001 28.034)" fill="#dcdfe8"/>
          <rect id="Rectangle_2624" data-name="Rectangle 2624" width="10.634" height="17.4" transform="translate(14.5 0)" fill="#dcdfe8"/>
          <rect id="Rectangle_2625" data-name="Rectangle 2625" width="10.634" height="17.4" transform="translate(14.5 21.267)" fill="#dcdfe8"/>
        </g>
        <rect id="Rectangle_2626" data-name="Rectangle 2626" width="10.634" height="24.167" transform="translate(71.535 41.568)" fill="#dcdfe8"/>
        <rect id="Rectangle_2627" data-name="Rectangle 2627" width="11.6" height="11.6" transform="translate(42.534 41.568)" fill="#dcdfe8"/>
        <rect id="Rectangle_2628" data-name="Rectangle 2628" width="11.6" height="24.167" transform="translate(42.534 56.068)" fill="#3351ff"/>
        <rect id="Rectangle_2629" data-name="Rectangle 2629" width="10.634" height="10.634" transform="translate(71.535 69.602)" fill="#6c63ff"/>
        <rect id="Rectangle_2630" data-name="Rectangle 2630" width="10.634" height="17.4" transform="translate(57.035 41.568)" fill="#dcdfe8"/>
        <rect id="Rectangle_2631" data-name="Rectangle 2631" width="10.634" height="17.4" transform="translate(57.035 62.835)" fill="#ff6584"/>
      </g>
      <g id="Group_2225" data-name="Group 2225" transform="translate(2120.853 4954.093)">
        <g id="Group_2221" data-name="Group 2221" transform="translate(0)">
          <rect id="Rectangle_2632" data-name="Rectangle 2632" width="134.37" height="40.601" transform="translate(0 118.903)" fill="#3f3d56"/>
          <ellipse id="Ellipse_486" data-name="Ellipse 486" cx="67.185" cy="14.017" rx="67.185" ry="14.017" transform="translate(0 104.403)" fill="#6c63ff"/>
          <ellipse id="Ellipse_487" data-name="Ellipse 487" cx="67.185" cy="14.5" rx="67.185" ry="14.5" transform="translate(0 145.971)" fill="#3f3d56"/>
          <rect id="Rectangle_2633" data-name="Rectangle 2633" width="134.37" height="40.601" transform="translate(0 65.735)" fill="#3f3d56"/>
          <ellipse id="Ellipse_488" data-name="Ellipse 488" cx="67.185" cy="14.984" rx="67.185" ry="14.984" transform="translate(0 51.235)" fill="#6c63ff"/>
          <ellipse id="Ellipse_489" data-name="Ellipse 489" cx="67.185" cy="15.467" rx="67.185" ry="15.467" transform="translate(0 92.803)" fill="#3f3d56"/>
          <rect id="Rectangle_2634" data-name="Rectangle 2634" width="134.37" height="40.601" transform="translate(0 15.467)" fill="#3f3d56"/>
          <ellipse id="Ellipse_490" data-name="Ellipse 490" cx="67.185" cy="14.984" rx="67.185" ry="14.984" fill="#6c63ff"/>
          <ellipse id="Ellipse_491" data-name="Ellipse 491" cx="67.185" cy="14.984" rx="67.185" ry="14.984" transform="translate(0 41.568)" fill="#3f3d56"/>
        </g>
        <g id="Group_2222" data-name="Group 2222" transform="translate(53.517 54.663)">
          <rect id="Rectangle_2635" data-name="Rectangle 2635" width="7.187" height="7.187" transform="translate(10.332)" fill="#ff6584" opacity="0.8"/>
          <rect id="Rectangle_2636" data-name="Rectangle 2636" width="7.187" height="7.187" transform="translate(20.664)" fill="#ff6584"/>
          <rect id="Rectangle_2637" data-name="Rectangle 2637" width="7.187" height="7.187" fill="#ff6584" opacity="0.4"/>
        </g>
        <g id="Group_2223" data-name="Group 2223" transform="translate(53.517 106.225)">
          <rect id="Rectangle_2638" data-name="Rectangle 2638" width="7.187" height="7.187" transform="translate(10.332)" fill="#ff6584" opacity="0.8"/>
          <rect id="Rectangle_2639" data-name="Rectangle 2639" width="7.187" height="7.187" transform="translate(20.664)" fill="#ff6584"/>
          <rect id="Rectangle_2640" data-name="Rectangle 2640" width="7.187" height="7.187" fill="#ff6584" opacity="0.4"/>
        </g>
        <g id="Group_2224" data-name="Group 2224" transform="translate(53.517 158.214)">
          <rect id="Rectangle_2641" data-name="Rectangle 2641" width="7.187" height="7.187" transform="translate(10.332 0)" fill="#ff6584" opacity="0.8"/>
          <rect id="Rectangle_2642" data-name="Rectangle 2642" width="7.187" height="7.187" transform="translate(20.664 0)" fill="#ff6584"/>
          <rect id="Rectangle_2643" data-name="Rectangle 2643" width="7.187" height="7.187" transform="translate(0 0)" fill="#ff6584" opacity="0.4"/>
        </g>
      </g>
      <g id="Rectangle_2644" data-name="Rectangle 2644" transform="translate(1585.305 4762.688)" fill="none" stroke="#3f3d56" stroke-width="1" stroke-dasharray="6">
        <rect width="401.178" height="300.642" stroke="none"/>
        <rect x="0.5" y="0.5" width="400.178" height="299.642" fill="none"/>
      </g>
      <g id="Group_2226" data-name="Group 2226" transform="translate(1784.643 4943.46)">
        <path id="Path_10387" data-name="Path 10387" d="M-7339.793,11623.9v80.53h121.887" transform="translate(7339.793 -11623.896)" fill="none" stroke="#3f3d56" stroke-width="1"/>
        <path id="Path_10388" data-name="Path 10388" d="M-7318.5,11675.755l29.637-20.96,35.794,8.36,33.831-23.558" transform="translate(7335.217 -11629.354)" fill="none" stroke="#3f3d56" stroke-width="1"/>
        <circle id="Ellipse_492" data-name="Ellipse 492" cx="5.8" cy="5.8" r="5.8" transform="translate(11.401 40.6)" fill="#3351ff"/>
        <circle id="Ellipse_493" data-name="Ellipse 493" cx="5.8" cy="5.8" r="5.8" transform="translate(41.368 20.3)" fill="#3351ff"/>
        <circle id="Ellipse_494" data-name="Ellipse 494" cx="5.8" cy="5.8" r="5.8" transform="translate(77.136 28.033)" fill="#3351ff"/>
        <circle id="Ellipse_495" data-name="Ellipse 495" cx="5.8" cy="5.8" r="5.8" transform="translate(110.003 5.799)" fill="#3351ff"/>
      </g>
      <line id="Line_202" data-name="Line 202" x2="106.336" transform="translate(1630.256 4903.342)" fill="none" stroke="#3f3d56" stroke-width="1"/>
      <path id="Path_10389" data-name="Path 10389" d="M395.664,344.417l-11.736-12.583L396.511,320.1l11.736,12.583ZM385.8,331.9l9.931,10.647,10.647-9.931-9.931-10.647Z" transform="translate(1906.872 4721.226)" fill="#6c63ff"/>
      <g id="Group_2227" data-name="Group 2227" transform="translate(2070.639 5126.055) rotate(-14)">
        <path id="Polygon_8" data-name="Polygon 8" d="M16.434,0,32.868,28.034H0Z" transform="translate(0 8.7)" fill="#2e2fff"/>
        <g id="Polygon_9" data-name="Polygon 9" transform="translate(0 0)" fill="none">
          <path d="M21.267,0,42.534,36.734H0Z" stroke="none"/>
          <path d="M 21.26724815368652 1.995872497558594 L 1.734451293945312 35.73434066772461 L 40.80004501342773 35.73434066772461 L 21.26724815368652 1.995872497558594 M 21.26724815368652 0 L 42.53449630737305 36.73434066772461 L 0 36.73434066772461 L 21.26724815368652 0 Z" stroke="none" fill="#2e2fff"/>
        </g>
      </g>
      <ellipse id="Ellipse_496" data-name="Ellipse 496" cx="7.864" cy="7.864" rx="7.864" ry="7.864" transform="translate(2152.33 4909.472)" fill="#ff6584"/>
      <rect id="Rectangle_2645" data-name="Rectangle 2645" width="15.467" height="4.833" transform="translate(1906.247 4827.457)" fill="#6c63ff"/>
      <rect id="Rectangle_2646" data-name="Rectangle 2646" width="15.467" height="4.833" transform="translate(1906.247 4839.057)" fill="#ff6584"/>
      <rect id="Rectangle_2647" data-name="Rectangle 2647" width="15.467" height="4.833" transform="translate(1906.247 4850.657)" fill="#dcdfe8"/>
    </g>
  </g>
</svg>
