<svg xmlns="http://www.w3.org/2000/svg" width="197.037" height="174.231" viewBox="0 0 197.037 174.231">
  <defs>
    <style>
      .cls-1 {
        fill: #3333ce;
        opacity: 0.2;
      }

      .cls-2 {
        fill: #f2f2f2;
      }

      .cls-3 {
        fill: #083863;
      }
    </style>
  </defs>
  <g id="_007-cloud-3" data-name="007-cloud-3" transform="translate(26.236 3.434)">
    <path id="Path_10735" data-name="Path 10735" class="cls-1" d="M149.833,67.869a28.465,28.465,0,0,1-3.558,56.681H39.532a28.465,28.465,0,0,1-3.558-56.681V67.62A28.465,28.465,0,0,1,64.438,39.155H68a28.465,28.465,0,0,1,56.93,0V39.4A28.465,28.465,0,0,1,149.833,67.62v.249Z" transform="translate(-37.497 -14.124)"/>
    <circle id="Ellipse_640" data-name="Ellipse 640" class="cls-2" cx="10.674" cy="10.674" r="10.674" transform="translate(78.29 42.705)"/>
    <g id="Group_3008" data-name="Group 3008" transform="translate(0.012 0)">
      <path id="Path_10739" data-name="Path 10739" class="cls-3" d="M219.442,342.4a3.557,3.557,0,0,0-2.515-1.042H188.462a7.116,7.116,0,0,0-7.116,7.116v42.7a7.116,7.116,0,0,0,7.116,7.116h35.581a7.116,7.116,0,0,0,7.116-7.116V355.589a3.559,3.559,0,0,0-1.042-2.515ZM188.462,391.17v-42.7h24.907v7.116a3.558,3.558,0,0,0,3.558,3.558h7.116V391.17Z" transform="translate(-120.858 -227.49)"/>
      <path id="Path_10740" data-name="Path 10740" class="cls-3" d="M400.775,342.4a3.557,3.557,0,0,0-2.515-1.042H369.8a7.116,7.116,0,0,0-7.116,7.116v42.7a7.116,7.116,0,0,0,7.116,7.116h35.581a7.116,7.116,0,0,0,7.116-7.116V355.589a3.559,3.559,0,0,0-1.042-2.515ZM369.8,391.17v-42.7H394.7v7.116a3.558,3.558,0,0,0,3.558,3.558h7.116V391.17Z" transform="translate(-241.703 -227.49)"/>
      <path id="Path_10741" data-name="Path 10741" class="cls-3" d="M38.109,342.4a3.557,3.557,0,0,0-2.515-1.042H7.128a7.116,7.116,0,0,0-7.116,7.116v42.7a7.116,7.116,0,0,0,7.116,7.116H42.709a7.116,7.116,0,0,0,7.116-7.116V355.589a3.559,3.559,0,0,0-1.042-2.515ZM7.128,391.17v-42.7H32.035v7.116a3.558,3.558,0,0,0,3.558,3.558h7.116V391.17Z" transform="translate(-0.012 -227.49)"/>
      <path id="Path_10742" data-name="Path 10742" class="cls-3" d="M145.777,57.731A32.065,32.065,0,0,0,120.87,29.267a32.023,32.023,0,0,0-63.729-.794h-.2A32.069,32.069,0,0,0,25.036,57.731,32.052,32.052,0,0,0,.012,88.961v3.558H7.128V88.961a24.907,24.907,0,0,1,21.8-24.69,3.8,3.8,0,0,0,3.1-3.775A24.935,24.935,0,0,1,56.942,35.589H60.5a3.558,3.558,0,0,0,3.558-3.558,24.907,24.907,0,0,1,49.813.092,3.558,3.558,0,0,0,3.113,3.683,24.906,24.906,0,0,1,21.793,24.782,3.558,3.558,0,0,0,3.113,3.683,24.906,24.906,0,0,1,21.793,24.69v3.558H170.8V88.961A32.05,32.05,0,0,0,145.777,57.731Z" transform="translate(-0.012 0)"/>
      <path id="Path_10743" data-name="Path 10743" class="cls-3" d="M231.135,49.806V42.69a17.812,17.812,0,0,0-17.79,17.79h7.116A10.674,10.674,0,0,1,231.135,49.806Z" transform="translate(-142.183 -28.45)"/>
      <path id="Path_10744" data-name="Path 10744" class="cls-3" d="M42.678,405.357H56.911v7.116H42.678Z" transform="translate(-28.446 -270.141)"/>
      <path id="Path_10745" data-name="Path 10745" class="cls-3" d="M42.678,448.023H64.027v7.116H42.678Z" transform="translate(-28.446 -298.575)"/>
      <path id="Path_10746" data-name="Path 10746" class="cls-3" d="M224.012,405.357h14.233v7.116H224.012Z" transform="translate(-149.292 -270.141)"/>
      <path id="Path_10747" data-name="Path 10747" class="cls-3" d="M224.012,448.023h21.349v7.116H224.012Z" transform="translate(-149.292 -298.575)"/>
      <path id="Path_10748" data-name="Path 10748" class="cls-3" d="M405.345,405.357h14.233v7.116H405.345Z" transform="translate(-270.137 -270.141)"/>
      <path id="Path_10749" data-name="Path 10749" class="cls-3" d="M405.345,448.023h21.349v7.116H405.345Z" transform="translate(-270.137 -298.575)"/>
      <path id="Path_10750" data-name="Path 10750" class="cls-3" d="M74.67,248.93v7.116h7.116V248.93a3.256,3.256,0,0,1,3.558-3.558H131.6A10.375,10.375,0,0,0,142.274,235.3q.009-.3,0-.607V224.023h-7.116v10.632a3.267,3.267,0,0,1-3.558,3.6H85.344A10.375,10.375,0,0,0,74.67,248.323q-.009.3,0,.607Z" transform="translate(-49.763 -149.295)"/>
      <path id="Path_10751" data-name="Path 10751" class="cls-3" d="M337.825,284.471v-7.116a10.375,10.375,0,0,0-10.068-10.674q-.3-.009-.607,0H288.012V273.8h39.1a3.267,3.267,0,0,1,3.6,3.558v7.116Z" transform="translate(-191.943 -177.721)"/>
      <path id="Path_10752" data-name="Path 10752" class="cls-3" d="M181.345,135.147h14.738a14.165,14.165,0,0,0,27.454,0h14.738v-7.116H223.537a14.165,14.165,0,0,0-27.454,0H181.345Zm28.465-10.674a7.116,7.116,0,1,1-7.116,7.116A7.116,7.116,0,0,1,209.81,124.473Z" transform="translate(-120.857 -78.21)"/>
    </g>
  </g>
</svg>
