<svg id="_019-server-3" data-name="019-server-3" xmlns="http://www.w3.org/2000/svg" width="166.228" height="166.228" viewBox="0 0 166.228 166.228">
  <defs>
    <style>
      .cls-1 {
        fill: #d9eef7;
      }

      .cls-2 {
        fill: #f2f2f2;
      }

      .cls-3 {
        fill: #3333ce;
        opacity: 0.2;
      }

      .cls-4 {
        fill: #083863;
      }
    </style>
  </defs>
  <g id="Group_3010" data-name="Group 3010" transform="translate(3.463 148.912)">
    <path id="Path_10753" data-name="Path 10753" class="cls-1" d="M472.518,458.667v13.852H458.666V458.667Z" transform="translate(-313.217 -458.667)"/>
    <path id="Path_10754" data-name="Path 10754" class="cls-1" d="M24.519,465.592v6.926H10.667V458.666H24.519v6.926Z" transform="translate(-10.667 -458.666)"/>
  </g>
  <g id="Group_3011" data-name="Group 3011" transform="translate(20.778 17.315)">
    <path id="Path_10756" data-name="Path 10756" class="cls-2" d="M192,53.333h83.114V74.111H192Z" transform="translate(-150.443 -53.333)"/>
    <circle id="Ellipse_641" data-name="Ellipse 641" class="cls-2" cx="10.389" cy="10.389" r="10.389" transform="translate(76.188 62.335)"/>
    <path id="Path_10757" data-name="Path 10757" class="cls-2" d="M64,245.333h65.8v20.778H64Z" transform="translate(-64 -182.998)"/>
  </g>
  <g id="Group_3013" data-name="Group 3013" transform="translate(3.463 3.463)">
    <path id="Path_10760" data-name="Path 10760" class="cls-3" d="M93.781,237.3V216.519h-65.8V237.3Zm10.389-10.389a10.389,10.389,0,1,0,10.389-10.389A10.389,10.389,0,0,0,104.17,226.908Zm48.483,24.242H17.593a6.947,6.947,0,0,1-6.926-6.926V209.593a6.947,6.947,0,0,1,6.926-6.926H163.042a6.947,6.947,0,0,1,6.926,6.926v34.631a6.947,6.947,0,0,1-6.926,6.926Z" transform="translate(-10.667 -140.332)"/>
    <path id="Path_10761" data-name="Path 10761" class="cls-3" d="M163.042,10.667H17.593a6.947,6.947,0,0,0-6.926,6.926V52.224a6.947,6.947,0,0,0,6.926,6.926H163.042a6.947,6.947,0,0,0,6.926-6.926V17.593A6.947,6.947,0,0,0,163.042,10.667ZM152.653,45.3H69.539V24.519h83.114Z" transform="translate(-10.667 -10.667)"/>
  </g>
  <g id="Group_3014" data-name="Group 3014">
    <path id="Path_10762" data-name="Path 10762" class="cls-4" d="M155.838,55.409A10.389,10.389,0,0,0,166.228,45.02V10.389A10.389,10.389,0,0,0,155.838,0H10.389A10.389,10.389,0,0,0,0,10.389V45.02A10.389,10.389,0,0,0,10.389,55.409h3.463v6.926H10.389A10.389,10.389,0,0,0,0,72.725v34.631a10.389,10.389,0,0,0,10.389,10.389h6.926v6.926a3.463,3.463,0,0,0,3.463,3.463H79.651v17.315H69.261a3.463,3.463,0,0,0-3.463,3.463v13.852a3.463,3.463,0,0,0,3.463,3.463h27.7a3.463,3.463,0,0,0,3.463-3.463V148.912a3.463,3.463,0,0,0-3.463-3.463H86.577V128.134h58.872a3.463,3.463,0,0,0,3.463-3.463v-6.926h6.926a10.389,10.389,0,0,0,10.389-10.389V72.725a10.389,10.389,0,0,0-10.389-10.389h-3.463V55.409h3.463ZM93.5,159.3H72.725v-6.926H93.5ZM6.926,45.02V10.389a3.463,3.463,0,0,1,3.463-3.463H155.838a3.463,3.463,0,0,1,3.463,3.463V45.02a3.463,3.463,0,0,1-3.463,3.463H10.389A3.463,3.463,0,0,1,6.926,45.02Zm135.06,76.187H24.242v-3.463H141.986v3.463ZM159.3,72.725v34.631a3.463,3.463,0,0,1-3.463,3.463H10.389a3.463,3.463,0,0,1-3.463-3.463V72.725a3.463,3.463,0,0,1,3.463-3.463H155.838A3.463,3.463,0,0,1,159.3,72.725ZM145.449,62.335H20.778V55.409H145.449Z"/>
    <path id="Path_10763" data-name="Path 10763" class="cls-4" d="M53.333,42.667h6.926v27.7H53.333Z" transform="translate(-36.018 -28.815)"/>
    <path id="Path_10764" data-name="Path 10764" class="cls-4" d="M394.667,234.667h6.926v27.7h-6.926Z" transform="translate(-266.533 -158.479)"/>
    <path id="Path_10765" data-name="Path 10765" class="cls-4" d="M96,42.667h6.926V56.519H96Z" transform="translate(-64.832 -28.815)"/>
    <path id="Path_10766" data-name="Path 10766" class="cls-4" d="M138.667,42.667h6.926V56.519h-6.926Z" transform="translate(-93.647 -28.815)"/>
    <path id="Path_10767" data-name="Path 10767" class="cls-4" d="M96,106.667h6.926v6.926H96Z" transform="translate(-64.832 -72.036)"/>
    <path id="Path_10768" data-name="Path 10768" class="cls-4" d="M437.333,245.333h6.926v6.926h-6.926Z" transform="translate(-295.347 -165.682)"/>
    <path id="Path_10769" data-name="Path 10769" class="cls-4" d="M437.333,288h6.926v6.926h-6.926Z" transform="translate(-295.347 -194.497)"/>
    <path id="Path_10770" data-name="Path 10770" class="cls-4" d="M138.667,106.667h6.926v6.926h-6.926Z" transform="translate(-93.647 -72.036)"/>
    <path id="Path_10771" data-name="Path 10771" class="cls-4" d="M267.91,42.667H184.8a3.463,3.463,0,0,0-3.463,3.463V66.909a3.463,3.463,0,0,0,3.463,3.463H267.91a3.463,3.463,0,0,0,3.463-3.463V46.13A3.463,3.463,0,0,0,267.91,42.667Zm-3.463,20.778H188.259V49.593h76.188V63.445Z" transform="translate(-122.461 -28.815)"/>
    <path id="Path_10772" data-name="Path 10772" class="cls-4" d="M56.8,262.371h65.8v-6.926H60.259V241.593h62.335v-6.926H56.8a3.463,3.463,0,0,0-3.463,3.463v20.778A3.463,3.463,0,0,0,56.8,262.371Z" transform="translate(-36.018 -158.479)"/>
    <path id="Path_10773" data-name="Path 10773" class="cls-4" d="M301.852,262.371A13.852,13.852,0,1,0,288,248.518,13.853,13.853,0,0,0,301.852,262.371Zm0-20.778a6.926,6.926,0,1,1-6.926,6.926A6.926,6.926,0,0,1,301.852,241.592Z" transform="translate(-194.497 -158.479)"/>
    <path id="Path_10774" data-name="Path 10774" class="cls-4" d="M20.778,451.463A3.463,3.463,0,0,0,17.315,448H3.463A3.463,3.463,0,0,0,0,451.463v13.852a3.463,3.463,0,0,0,3.463,3.463H17.316a3.463,3.463,0,0,0,3.463-3.463v-3.463H58.872v-6.926H20.778Zm-6.926,10.389H6.926v-6.926h6.926v6.926Z" transform="translate(0 -302.551)"/>
    <path id="Path_10775" data-name="Path 10775" class="cls-4" d="M386.076,448H372.224a3.463,3.463,0,0,0-3.463,3.463v3.463H330.667v6.926h38.094v3.463a3.463,3.463,0,0,0,3.463,3.463h13.852a3.463,3.463,0,0,0,3.463-3.463V451.463A3.464,3.464,0,0,0,386.076,448Zm-3.463,13.852h-6.926v-6.926h6.926Z" transform="translate(-223.312 -302.551)"/>
  </g>
</svg>
