<svg xmlns="http://www.w3.org/2000/svg" width="90.239" height="70.19"><g data-name="Group 3103" transform="translate(163.016 1637.776)"><circle data-name="Ellipse 74" cx="30.235" cy="30.235" r="30.235" transform="translate(-133.246 -1628.072)" fill="#d3d3e8"/><g fill="#083863"><path data-name="Path 10646" d="M-92.909-1632.536a5.456 5.456 0 00-5.157-5.158c-5.626-.307-16.635-.008-27.162 5.437a53.324 53.324 0 00-15.571 12.912l-.165.2-10.279.794a5.426 5.426 0 00-4.135 2.433l-7.013 10.608a3.759 3.759 0 002.56 5.787l8.66 1.341c-.031.168-.061.337-.089.5a5.453 5.453 0 001.529 4.743l12.062 12.068a5.466 5.466 0 003.858 1.6 5.375 5.375 0 00.885-.073c.168-.028.337-.059.5-.089l1.347 8.657a3.755 3.755 0 005.787 2.56l10.607-7.013a5.425 5.425 0 002.433-4.135l.794-10.279.2-.165a53.319 53.319 0 0012.913-15.568c5.445-10.527 5.744-21.536 5.437-27.162zm-24.044 53.881l-10.146 6.708-1.307-8.44a46.066 46.066 0 0012.571-5.989l-.517 6.7a1.34 1.34 0 01-.6 1.021zm-17.808-5.121l-12.062-12.066a1.333 1.333 0 01-.38-1.157 35.375 35.375 0 011.606-6.109l18.1 18.1a35.524 35.524 0 01-6.105 1.61 1.333 1.333 0 01-1.159-.378zm-16.166-30.474l6.7-.517a46.063 46.063 0 00-5.989 12.572l-8.44-1.308 6.708-10.146a1.34 1.34 0 011.021-.601zm37.036 21.289a47.147 47.147 0 01-9.519 6.226l-20.457-20.458a47.963 47.963 0 016.226-9.518 49.075 49.075 0 0114.3-11.893c9.661-5 19.84-5.266 25.048-4.983a1.349 1.349 0 011.277 1.275c.284 5.208.014 15.387-4.983 25.048a49.075 49.075 0 01-11.892 14.303z"/><path data-name="Path 10647" d="M-114.94-1605.389a10.273 10.273 0 10-7.27-3.007 10.252 10.252 0 007.27 3.007zm-4.362-14.639a6.169 6.169 0 11-1.807 4.362 6.149 6.149 0 011.811-4.362z"/><path data-name="Path 10648" d="M-160.918-1579.933a2.049 2.049 0 001.454-.6l6.714-6.714a2.056 2.056 0 10-2.908-2.908l-6.718 6.711a2.056 2.056 0 001.454 3.51z"/><path data-name="Path 10649" d="M-146.598-1584.004a2.056 2.056 0 00-2.908 0l-12.91 12.908a2.056 2.056 0 102.908 2.908l12.908-12.907a2.056 2.056 0 00.002-2.909z"/><path data-name="Path 10650" d="M-143.354-1577.851l-6.714 6.714a2.056 2.056 0 102.908 2.908l6.714-6.714a2.056 2.056 0 10-2.908-2.908z"/></g></g></svg>