<svg xmlns="http://www.w3.org/2000/svg" width="513.049" height="490"><g data-name="Group 1935"><g data-name="Group 1344" transform="translate(-591 -5314)"><g data-name="Group 1313" transform="translate(0 134)"><path data-name="Rectangle 2062" fill="#f7f8f9" d="M609 5180h314v390H609z"/><path data-name="Rectangle 2063" fill="none" stroke="#3f3d56" d="M596 5193h314v390H596z"/><path data-name="Rectangle 2044" fill="#3351ff" d="M744 5356h15v14h-15z"/><path data-name="Rectangle 2045" fill="#ff6584" d="M744 5386h15v15h-15z"/><path data-name="Rectangle 2047" fill="#3351ff" d="M820.123 5400.378v-105.231h20.957v105.231z"/><path data-name="Rectangle 2048" fill="#ff6584" d="M852.282 5400.378v-64.59h20.957v64.59z"/><path data-name="Path 5544" d="M637.012 5453.972a54.785 54.785 0 0048.965 79.329v-50.345z" fill="#6c63ff"/><path data-name="Line 87" fill="none" stroke="#d0cde1" d="M873.238 5400.923H631.569"/><path data-name="Line 88" fill="none" stroke="#d0cde1" d="M873.238 5554.052H631.569"/><ellipse data-name="Ellipse 236" cx="5.5" cy="5" rx="5.5" ry="5" transform="translate(863 5483)" fill="#6c63ff"/><g data-name="Group 1298" fill="#3351ff"><path data-name="Rectangle 2068" d="M770 5450h6v6h-6z"/><path data-name="Rectangle 2076" d="M770 5461h6v6h-6z"/><path data-name="Rectangle 2077" d="M770 5472h6v6h-6z"/></g><path data-name="Rectangle 2078" fill="#6c63ff" d="M744 5324h15v15h-15z"/><path data-name="Rectangle 2079" fill="#6c63ff" d="M787.965 5400.378v-81.282h20.957v81.282z"/><g data-name="Group 1295" fill="#3f3d56"><path data-name="Rectangle 2067" d="M781 5452h33v2h-33z"/><path data-name="Rectangle 2069" d="M781 5463h33v2h-33z"/><path data-name="Rectangle 2071" d="M781 5474h33v3h-33z"/></g><g data-name="Group 1296"><path data-name="Rectangle 2064" fill="#c9cedd" d="M631 5223h243v6H631z"/><path data-name="Rectangle 2065" fill="#c9cedd" d="M631 5246h243v7H631z"/><path data-name="Rectangle 2066" fill="#c9cedd" d="M631 5268h120v7H631z"/><path data-name="Path 5542" d="M690.296 5423.504v110.132a55.066 55.066 0 100-110.132z" fill="#dcdfe8"/><path data-name="Path 5543" d="M685.644 5423.504a50.315 50.315 0 00-44.986 27.763l44.986 26.617z" fill="#dcdfe8"/><path data-name="Rectangle 2073" fill="#c9cedd" d="M632 5339h80v2h-80z"/><path data-name="Rectangle 2074" fill="#c9cedd" d="M632 5357h80v3h-80z"/><path data-name="Rectangle 2075" fill="#c9cedd" d="M632 5376h80v3h-80z"/></g><path data-name="Path 5636" d="M671.606 5498.681l-.469-.469 34.951-34.951h60.882v.664h-60.607z" fill="#2f2e41"/></g><g data-name="Group 1314" transform="translate(0 135)"><path data-name="Path 5206" d="M1085.413 5582.928a131.609 131.609 0 10-225.948 0z" fill="#3f3d56"/><path data-name="Line 81" fill="none" stroke="#6c63ff" stroke-linecap="round" stroke-miterlimit="10" stroke-width="4" d="M972 5507l57.5-42.5"/><g data-name="Group 1241" transform="translate(864.851 5398.42)" fill="#6c63ff"><circle data-name="Ellipse 126" cx="6" cy="6" r="6" transform="translate(.149 122.58)"/><circle data-name="Ellipse 127" cx="6.35" cy="6.35" r="6.35" transform="translate(3.949 67.75)"/><circle data-name="Ellipse 128" cx="6.35" cy="6.35" r="6.35" transform="translate(35.467 22.529)"/><circle data-name="Ellipse 129" cx="6.35" cy="6.35" r="6.35" transform="translate(85.774)"/><circle data-name="Ellipse 130" cx="6.35" cy="6.35" r="6.35" transform="translate(140.498 6.599)"/><circle data-name="Ellipse 131" cx="6.35" cy="6.35" r="6.35" transform="translate(184.008 40.44)"/><circle data-name="Ellipse 132" cx="6.35" cy="6.35" r="6.35" transform="translate(203.873 91.857)"/><circle data-name="Ellipse 133" cx="6.35" cy="6.35" r="6.35" transform="translate(194.42 146.162)"/></g><ellipse data-name="Ellipse 151" cx="13" cy="12.5" rx="13" ry="12.5" transform="translate(959 5495)" fill="#6c63ff"/></g><ellipse data-name="Ellipse 261" cx="256.5" cy="20" rx="256.5" ry="20" transform="translate(591 5764)" fill="#f7f8f9"/></g></g></svg>