<svg xmlns="http://www.w3.org/2000/svg" xmlns:xlink="http://www.w3.org/1999/xlink" viewBox="0 0 131.21 104.13"><defs><style>.cls-1{fill:none;}.cls-2{clip-path:url(#clip-path);}.cls-3{fill:#2e2fff;}.cls-4{isolation:isolate;}.cls-5{fill:#fff;}</style><clipPath id="clip-path" transform="translate(-52.65 -7.67)"><rect class="cls-1" width="224" height="128"/></clipPath></defs><g id="图层_2" data-name="图层 2"><g id="图层_1-2" data-name="图层 1"><g class="cls-2"><g id="蒙版组_99" data-name="蒙版组 99"><g id="组_3854" data-name="组 3854"><path id="路径_12431" data-name="路径 12431" class="cls-3" d="M166.4,46a73.62,73.62,0,0,0-11-4.41,77.21,77.21,0,0,1-8.67-3.35A40.35,40.35,0,0,1,129,21.82c-3.85-6.71-10.43-12.91-18.8-14C96.91,6.11,77.85,18,78.12,32c.22,9.79,11,16,10.3,25.13-.68,8.6-10.85,12.68-18.32,14.4-8.3,1.92-15.31,8-17.06,16.29A19.52,19.52,0,0,0,60,106.92c6.1,4.83,14.8,5.72,22.67,4.19,7.37-1.4,13.27-5.27,20.18-7.72,5.66-2,12.46-1.54,18.34-.62,9.91,1.55,19.65,4.88,29.76,4.26,22.08-1.3,37.93-21.2,31.5-41.86A33.36,33.36,0,0,0,166.4,46Z" transform="translate(-52.65 -7.67)"/><g class="cls-4"><g class="cls-4"><path class="cls-5" d="M84.9,43.44c-1.85,0-3,1-3,3.66v4H76.37v-3.6c0-5.94,3-9.33,8.69-9.33s8.69,3.39,8.69,9.33c0,12.19-12.66,16.37-11.55,22.89h11v5.3H76.37V71.1c0-10.91,11.55-12.71,11.55-23.42C87.92,44.34,86.76,43.44,84.9,43.44Z" transform="translate(-52.65 -7.67)"/><path class="cls-5" d="M99.53,47.47c0-5.94,3.13-9.33,8.85-9.33s8.85,3.39,8.85,9.33V66.76c0,5.93-3.13,9.33-8.85,9.33s-8.85-3.4-8.85-9.33Zm5.83,19.66c0,2.65,1.17,3.66,3,3.66s3-1,3-3.66v-20c0-2.65-1.16-3.66-3-3.66s-3,1-3,3.66Z" transform="translate(-52.65 -7.67)"/><path class="cls-5" d="M123.17,47.47c0-5.94,3.12-9.33,8.85-9.33s8.85,3.39,8.85,9.33V66.76c0,5.93-3.13,9.33-8.85,9.33s-8.85-3.4-8.85-9.33ZM129,67.13c0,2.65,1.16,3.66,3,3.66s3-1,3-3.66v-20c0-2.65-1.17-3.66-3-3.66s-3,1-3,3.66Z" transform="translate(-52.65 -7.67)"/><path class="cls-5" d="M157.72,55.05h7.1v4.13h-7.1v7.26h-4.13V59.18h-7.1V55.05h7.1V47.89h4.13Z" transform="translate(-52.65 -7.67)"/></g></g></g></g></g></g></g></svg>