<svg xmlns="http://www.w3.org/2000/svg" xmlns:xlink="http://www.w3.org/1999/xlink" viewBox="0 0 143.1 94.05"><defs><style>.cls-1{fill:none;}.cls-2{clip-path:url(#clip-path);}.cls-3{fill:#6c35d5;}.cls-4{isolation:isolate;}.cls-5{fill:#fff;}</style><clipPath id="clip-path" transform="translate(-41.93 -17.64)"><rect class="cls-1" width="224" height="128.59"/></clipPath></defs><g id="图层_2" data-name="图层 2"><g id="图层_1-2" data-name="图层 1"><g class="cls-2"><path id="路径_6305" data-name="路径 6305" class="cls-3" d="M121.28,102.11c8.7-6.84,11.59-16.59,23.51-18.47,1.14-.18,36.7-2.26,40-29.07A32.86,32.86,0,0,0,156.17,18c-21.68-2.66-35.92,12.4-39.56,15.83-.34.31-.67.62-1,1-.67.65-1.28,1.31-1.92,2-.91,1-1.83,2.06-2.7,3.15-1.07,1.31-2.13,2.61-3.2,3.89l-.62.77c-.79.93-1.58,1.86-2.39,2.78-.31.35-.61.69-1,1-.64.65-1.27,1.31-1.94,2h0a8.09,8.09,0,0,1-.76.67c-.06.08-.16.12-.22.2l-.53.47a1.86,1.86,0,0,0-.26.23l-.55.43c-.09,0-.16.12-.26.17s-.48.35-.74.52c0,0-.06,0-.06,0-.29.2-.54.38-.83.55a.56.56,0,0,1-.19.09c-.21.15-.44.27-.66.42-.07,0-.16.09-.22.14l-.66.36a.94.94,0,0,1-.22.12c-.28.14-.56.29-.84.4l0,0-.93.42h0c-.31.13-.59.25-.89.35a.77.77,0,0,1-.16.07l-.79.29a.83.83,0,0,0-.15,0A25.49,25.49,0,0,1,89,57.1s0,0-.06,0L88,57.3s-.06,0-.09,0l-1,.14a28.53,28.53,0,0,1-10.45-.73C67,54.28,51,48.18,44.28,57,30.54,74.77,79.77,134.78,121.28,102.11Z" transform="translate(-41.93 -17.64)"/><g class="cls-4"><g class="cls-4"><path class="cls-5" d="M81.32,38.21v5L72.9,74.61H67.18l8.37-31.2H64.16v-5.2Z" transform="translate(-41.93 -17.64)"/><path class="cls-5" d="M87.25,47c0-5.83,3.07-9.15,8.69-9.15s8.68,3.32,8.68,9.15V65.88c0,5.82-3.07,9.15-8.68,9.15s-8.69-3.33-8.69-9.15ZM93,66.24c0,2.6,1.15,3.59,3,3.59s3-1,3-3.59V46.58c0-2.6-1.14-3.58-3-3.58s-3,1-3,3.58Z" transform="translate(-41.93 -17.64)"/><path class="cls-5" d="M110.44,47c0-5.83,3.07-9.15,8.69-9.15s8.68,3.32,8.68,9.15V65.88c0,5.82-3.07,9.15-8.68,9.15s-8.69-3.33-8.69-9.15Zm5.72,19.29c0,2.6,1.15,3.59,3,3.59s3-1,3-3.59V46.58c0-2.6-1.14-3.58-3-3.58s-3,1-3,3.58Z" transform="translate(-41.93 -17.64)"/><path class="cls-5" d="M144.35,54.38h7v4.06h-7v7.12h-4.06V58.44h-7V54.38h7v-7h4.06Z" transform="translate(-41.93 -17.64)"/></g></g></g></g></g></svg>