<svg xmlns="http://www.w3.org/2000/svg" xmlns:xlink="http://www.w3.org/1999/xlink" viewBox="0 0 148.24 106.72"><defs><style>.cls-1{fill:none;}.cls-2{clip-path:url(#clip-path);}.cls-3{fill:#4716a5;}.cls-4{isolation:isolate;}.cls-5{fill:#fff;}</style><clipPath id="clip-path" transform="translate(-34.21 -11.68)"><rect class="cls-1" width="224" height="127"/></clipPath></defs><g id="图层_2" data-name="图层 2"><g id="图层_1-2" data-name="图层 1"><g class="cls-2"><g id="蒙版组_98" data-name="蒙版组 98"><g id="组_3853" data-name="组 3853"><path id="路径_12430" data-name="路径 12430" class="cls-3" d="M96.19,28.92c-6.54,8.74-6.81,18.78-17.7,23.62-1,.46-34.41,11.53-30.7,37.94a32.45,32.45,0,0,0,36.64,27.61c21.35-3,31.08-21,33.68-25.2.23-.38.47-.77.7-1.17.47-.8.88-1.58,1.32-2.39.61-1.22,1.22-2.44,1.77-3.7.69-1.52,1.37-3,2.06-4.52.13-.31.27-.59.4-.9.51-1.08,1-2.17,1.57-3.26.2-.41.4-.81.63-1.22.44-.79.88-1.58,1.35-2.37h0a9.17,9.17,0,0,1,.55-.83c0-.09.12-.16.17-.25l.38-.58a1.81,1.81,0,0,0,.19-.29l.42-.55c.07-.07.12-.16.2-.23s.37-.45.57-.68c0,0,.05,0,.05-.07.22-.26.42-.49.65-.73a.67.67,0,0,1,.15-.14l.53-.56c0-.07.12-.14.17-.2l.54-.51.17-.17c.24-.21.47-.41.7-.59l0,0,.78-.63h0c.26-.21.49-.39.76-.57l.13-.1c.24-.15.45-.33.69-.48l.13-.07a22.45,22.45,0,0,1,2.6-1.5s0,0,.05,0c.28-.12.57-.28.85-.4,0,0,0,0,.08,0l.9-.39a28.26,28.26,0,0,1,10.16-2c9.67-.08,26.52,1.64,30.64-8.45C189.7,31.81,127.42-12.84,96.19,28.92Z" transform="translate(-34.21 -11.68)"/><g id="_20" data-name=" 20" class="cls-4"><g class="cls-4"><path class="cls-5" d="M42.74,44.91c-1.86,0-3,1-3,3.65v4H34.21v-3.6c0-5.94,3-9.33,8.69-9.33s8.69,3.39,8.69,9.33c0,12.18-12.67,16.37-11.56,22.89h11v5.3H34.21V72.57c0-10.92,11.55-12.72,11.55-23.42C45.76,45.81,44.59,44.91,42.74,44.91Z" transform="translate(-34.21 -11.68)"/><path class="cls-5" d="M57.37,48.94c0-5.94,3.12-9.33,8.84-9.33s8.86,3.39,8.86,9.33V68.22c0,5.94-3.13,9.33-8.86,9.33s-8.84-3.39-8.84-9.33ZM63.2,68.6c0,2.65,1.16,3.65,3,3.65s3-1,3-3.65v-20c0-2.64-1.17-3.65-3-3.65s-3,1-3,3.65Z" transform="translate(-34.21 -11.68)"/><path class="cls-5" d="M81.48,77.13V71.51H87.1v5l-2.55,5.88H82.17l1.54-5.3Z" transform="translate(-34.21 -11.68)"/><path class="cls-5" d="M93.51,48.94c0-5.94,3.13-9.33,8.85-9.33s8.85,3.39,8.85,9.33V68.22c0,5.94-3.13,9.33-8.85,9.33s-8.85-3.39-8.85-9.33ZM99.34,68.6c0,2.65,1.17,3.65,3,3.65s3-1,3-3.65v-20c0-2.64-1.16-3.65-3-3.65s-3,1-3,3.65Z" transform="translate(-34.21 -11.68)"/><path class="cls-5" d="M117.15,48.94c0-5.94,3.13-9.33,8.85-9.33s8.85,3.39,8.85,9.33V68.22c0,5.94-3.13,9.33-8.85,9.33s-8.85-3.39-8.85-9.33ZM123,68.6c0,2.65,1.16,3.65,3,3.65s3-1,3-3.65v-20c0-2.64-1.17-3.65-3-3.65s-3,1-3,3.65Z" transform="translate(-34.21 -11.68)"/><path class="cls-5" d="M140.79,48.94c0-5.94,3.12-9.33,8.85-9.33s8.85,3.39,8.85,9.33V68.22c0,5.94-3.13,9.33-8.85,9.33s-8.85-3.39-8.85-9.33Zm5.83,19.66c0,2.65,1.16,3.65,3,3.65s3-1,3-3.65v-20c0-2.64-1.17-3.65-3-3.65s-3,1-3,3.65Z" transform="translate(-34.21 -11.68)"/><path class="cls-5" d="M175.34,56.51h7.1v4.14h-7.1v7.26h-4.13V60.65h-7.1V56.51h7.1V49.36h4.13Z" transform="translate(-34.21 -11.68)"/></g></g></g></g></g></g></g></svg>