<svg xmlns="http://www.w3.org/2000/svg" xmlns:xlink="http://www.w3.org/1999/xlink" viewBox="0 0 216.9 122.68"><defs><style>.cls-1{fill:none;}.cls-2{clip-path:url(#clip-path);}.cls-3{fill:#f15a24;}.cls-4{fill:#fff;}</style><clipPath id="clip-path" transform="translate(-3.96 -2.65)"><rect class="cls-1" width="224" height="128"/></clipPath></defs><g id="图层_2" data-name="图层 2"><g id="图层_1-2" data-name="图层 1"><g class="cls-2"><path id="路径_6303" data-name="路径 6303" class="cls-3" d="M77.21,103c10.26,4.1,25.29-9.37,32.87,0,.73.89,20.29,30.61,45.12,20.07C171.89,116,187.81,92.65,180.73,76c-8.53-20.08-36.81-20.81-41.59-22.26-.43-.13-.87-.26-1.33-.38-.89-.25-1.77-.44-2.68-.66-1.35-.28-2.7-.56-4.08-.76l-5-.83-1-.15c-1.19-.22-2.39-.44-3.6-.68-.45-.1-.9-.19-1.36-.31-.88-.22-1.76-.44-2.66-.7h0a7.72,7.72,0,0,1-1-.32c-.1,0-.19-.07-.29-.09s-.44-.16-.66-.22l-.33-.12-.65-.26c-.09-.06-.19-.08-.28-.13-.26-.11-.54-.25-.82-.38,0,0,0,0-.07,0-.32-.15-.6-.29-.89-.45a.45.45,0,0,1-.17-.11l-.7-.37-.23-.12-.64-.39a1,1,0,0,1-.22-.13c-.26-.17-.52-.34-.76-.52l0,0L109,45h0c-.27-.2-.51-.38-.75-.59l-.14-.1c-.21-.2-.43-.35-.64-.55-.05,0-.06-.07-.11-.11a24.24,24.24,0,0,1-2.15-2.15s0,0,0,0c-.19-.24-.42-.49-.61-.72,0,0-.05,0-.07-.07l-.61-.78a28.44,28.44,0,0,1-4.6-9.41C96.62,21,93.89,4.11,83,2.73,60.69-.26,28.21,83.41,77.21,103Z" transform="translate(-3.96 -2.65)"/><path class="cls-4" d="M13,46.35c-2,0-3.19,1.07-3.19,3.87v4.2H4V50.61c0-6.27,3.14-9.86,9.19-9.86s9.18,3.59,9.18,9.86C22.33,63.49,9,67.91,10.12,74.8H21.77v5.6H4V75.58C4,64.05,16.17,62.14,16.17,50.83,16.17,47.3,14.94,46.35,13,46.35Z" transform="translate(-3.96 -2.65)"/><path class="cls-4" d="M28.44,50.61c0-6.27,3.3-9.86,9.35-9.86s9.35,3.59,9.35,9.86V71c0,6.27-3.3,9.86-9.35,9.86S28.44,77.26,28.44,71ZM34.6,71.38c0,2.8,1.23,3.87,3.19,3.87S41,74.18,41,71.38V50.22c0-2.8-1.23-3.87-3.19-3.87s-3.19,1.07-3.19,3.87Z" transform="translate(-3.96 -2.65)"/><path class="cls-4" d="M53.92,80.4V74.46h5.93v5.32L57.16,86H54.64l1.63-5.6Z" transform="translate(-3.96 -2.65)"/><path class="cls-4" d="M66.63,50.61c0-6.27,3.3-9.86,9.35-9.86s9.35,3.59,9.35,9.86V71c0,6.27-3.3,9.86-9.35,9.86S66.63,77.26,66.63,71Zm6.16,20.77c0,2.8,1.23,3.87,3.19,3.87s3.19-1.07,3.19-3.87V50.22c0-2.8-1.23-3.87-3.19-3.87s-3.19,1.07-3.19,3.87Z" transform="translate(-3.96 -2.65)"/><path class="cls-4" d="M91.6,50.61c0-6.27,3.31-9.86,9.35-9.86s9.36,3.59,9.36,9.86V71c0,6.27-3.31,9.86-9.36,9.86S91.6,77.26,91.6,71Zm6.16,20.77c0,2.8,1.23,3.87,3.19,3.87s3.2-1.07,3.2-3.87V50.22c0-2.8-1.24-3.87-3.2-3.87s-3.19,1.07-3.19,3.87Z" transform="translate(-3.96 -2.65)"/><path class="cls-4" d="M116.58,50.61c0-6.27,3.3-9.86,9.35-9.86s9.35,3.59,9.35,9.86V71c0,6.27-3.3,9.86-9.35,9.86s-9.35-3.59-9.35-9.86Zm6.16,20.77c0,2.8,1.23,3.87,3.19,3.87s3.19-1.07,3.19-3.87V50.22c0-2.8-1.23-3.87-3.19-3.87s-3.19,1.07-3.19,3.87Z" transform="translate(-3.96 -2.65)"/><path class="cls-4" d="M153.09,58.62h7.5V63h-7.5v7.68h-4.37V63h-7.5V58.62h7.5V51.06h4.37Z" transform="translate(-3.96 -2.65)"/><path class="cls-4" d="M194.67,72.57,194,70.39a32.62,32.62,0,0,0,7-12.15l1.94.93a34,34,0,0,1-2.87,6.38V85.16h-2.14V68.77A41.56,41.56,0,0,1,194.67,72.57Zm24.22-11.28v1.82c-4.18,4.18-7,7.2-8.62,9a23.29,23.29,0,0,0-3.62,5.17,6.93,6.93,0,0,0-.82,2.81,2.08,2.08,0,0,0,.53,1.42,3.18,3.18,0,0,0,2.32.64h7.74a2.13,2.13,0,0,0,1.92-1,13.9,13.9,0,0,0,.52-4.82l2,.61c0,3-.29,4.93-.87,5.86a3.24,3.24,0,0,1-2.93,1.36H208.3a5,5,0,0,1-3.51-1,4.5,4.5,0,0,1-1-3,8,8,0,0,1,.81-3.22,23.15,23.15,0,0,1,4-5.68c1.77-2.12,4.18-4.76,7.25-7.89H204.24v-2Z" transform="translate(-3.96 -2.65)"/></g></g></g></svg>