<svg xmlns="http://www.w3.org/2000/svg" width="1680" height="720" viewBox="0 0 1680 720">
  <g id="组_3794" data-name="组 3794" transform="translate(0 -2244)">
    <rect id="矩形_3305" data-name="矩形 3305" width="1680" height="720" transform="translate(0 2244)" fill="#4716a5"/>
    <path id="路径_11991" data-name="路径 11991" d="M351.233,79.779c-47.831,48.187-58.182,109.76-129.392,130.106C215.059,211.848,0,251.112,0,416.912,0,528.279,90.307,618.586,201.673,618.586c134.033,0,209.526-102.443,229.158-126,1.785-2.142,3.569-4.283,5.354-6.6,3.569-4.462,6.782-8.924,10.173-13.564,4.819-6.96,9.637-13.921,14.1-21.238,5.533-8.745,11.065-17.49,16.6-26.057,1.071-1.785,2.142-3.391,3.213-5.176,4.1-6.247,8.21-12.493,12.493-18.74,1.606-2.32,3.212-4.64,5-6.96,3.391-4.462,6.782-8.924,10.351-13.385h0a50.841,50.841,0,0,1,4.1-4.64c.357-.535.892-.892,1.249-1.428.892-1.071,1.963-2.142,2.856-3.213a11.554,11.554,0,0,0,1.428-1.606l3.034-3.034c.535-.357.892-.892,1.428-1.249,1.249-1.249,2.677-2.5,4.1-3.748.179-.178.357-.178.357-.357,1.606-1.428,3.034-2.677,4.64-3.926a3.735,3.735,0,0,1,1.071-.714c1.249-1.071,2.5-1.963,3.748-3.034.357-.357.892-.714,1.249-1.071l3.748-2.677a7.562,7.562,0,0,1,1.249-.892c1.606-1.071,3.213-2.142,4.819-3.034l.179-.178,5.354-3.212h0c1.785-1.071,3.391-1.963,5.176-2.856.357-.179.535-.357.892-.535,1.606-.714,3.034-1.606,4.64-2.32.357-.178.535-.178.892-.357a146.023,146.023,0,0,1,17.312-6.96c.178,0,.178,0,.357-.178,1.785-.535,3.748-1.249,5.533-1.785.178,0,.357-.178.535-.178l5.89-1.606a175.535,175.535,0,0,1,64.25-3.391c59.61,7.853,161.874,33.017,195.962-25.522C924.485,178.474,579.677-150.272,351.233,79.779Z" transform="translate(409.195 2295.316)" fill="#6c35d5"/>
  </g>
</svg>
