<svg xmlns="http://www.w3.org/2000/svg" xmlns:xlink="http://www.w3.org/1999/xlink" width="414" height="760" viewBox="0 0 414 760">
  <defs>
    <clipPath id="clip-path">
      <rect id="矩形_3354" data-name="矩形 3354" width="414" height="760" transform="translate(-629 -9959)" fill="#172d72"/>
    </clipPath>
  </defs>
  <g id="蒙版组_101" data-name="蒙版组 101" transform="translate(629 9959)" clip-path="url(#clip-path)">
    <g id="组_3856" data-name="组 3856">
      <rect id="矩形_3353" data-name="矩形 3353" width="414" height="760" transform="translate(-629 -9959)" fill="#172d72"/>
      <path id="路径_12433" data-name="路径 12433" d="M556.263,268.642c-11.856-13.672-25.84-25.24-39.672-36.808-10.944-9.014-21.736-18.179-31.464-28.395-26.3-27.493-43.32-62.649-49.552-99.908-5.928-35.456-24.168-73.015-57.912-91.044-53.656-28.7-152.456-7.061-172.825,54.536-14.136,43.118,21.888,87.588,4.864,126.2-16.112,36.508-65.36,38.16-99.56,33.8-38-4.808-77.064,10.817-97.128,44.02-17.176,28.395-17.176,66.1-.152,94.5,18.392,30.8,53.808,48.527,89.376,54.386,33.288,5.559,64.144-1.953,97.128-1.653,27.056.15,55.024,13.071,78.432,26.442,39.52,22.536,75.544,52.583,119.168,65.954,95.3,29.446,192.889-32.3,197.449-132.81A158.331,158.331,0,0,0,556.263,268.642Z" transform="matrix(0.978, 0.208, -0.208, 0.978, -647.923, -9887.809)" fill="#2e2fff"/>
    </g>
  </g>
</svg>
