<svg xmlns="http://www.w3.org/2000/svg" xmlns:xlink="http://www.w3.org/1999/xlink" width="414" height="760" viewBox="0 0 414 760">
  <defs>
    <linearGradient id="linear-gradient" x1="0.406" y1="0.949" x2="0.652" y2="-0.224" gradientUnits="objectBoundingBox">
      <stop offset="0" stop-color="#0c042e"/>
      <stop offset="0.33" stop-color="#211b39"/>
      <stop offset="1" stop-color="#575757"/>
    </linearGradient>
    <clipPath id="clip-path">
      <rect id="矩形_3403" data-name="矩形 3403" width="414" height="760" transform="translate(4547 -10426)" fill="#172d72"/>
    </clipPath>
    <clipPath id="clip-path-2">
      <rect id="矩形_3396" data-name="矩形 3396" width="450" height="760" transform="translate(-20 0)" fill="url(#linear-gradient)"/>
    </clipPath>
  </defs>
  <g id="蒙版组_105" data-name="蒙版组 105" transform="translate(-4547 10426)" clip-path="url(#clip-path)">
    <g id="组_3973" data-name="组 3973" transform="translate(-18)">
      <g id="组_3972" data-name="组 3972" transform="translate(-165 33)">
        <g id="组_3970" data-name="组 3970" transform="translate(581.423 242)">
          <g id="组_3962" data-name="组 3962" transform="translate(4149 -10701)">
            <rect id="矩形_3395" data-name="矩形 3395" width="414" height="760" transform="translate(0 0)" fill="#1f1b2f"/>
            <g id="组_3961" data-name="组 3961" transform="translate(2 0)" clip-path="url(#clip-path-2)">
              <path id="路径_12504" data-name="路径 12504" d="M15.185,79.26C41.151,41.492,79.134,34.835,125.237,36.208c39.448,1.175,82.206,10.378,118.438-2.3C279.8,21.268,304.609-1.815,343.739-.115c52.462,2.279,75.5,38.158,72.781,73.147-3.774,48.513-52.6,72.793-101.39,69.724-40.37-2.54-83.125-5.991-118.872,16.178-32.925,20.418-54.715,65.419-100.8,66.413C43.2,226.474-32.843,149.11,15.185,79.26Z" transform="matrix(0.839, 0.545, -0.545, 0.839, 29.411, -24.691)" fill="#27223c" opacity="0.5" style="mix-blend-mode: color-dodge;isolation: isolate"/>
              <path id="路径_12505" data-name="路径 12505" d="M15.183,79.318c25.944-37.791,63.9-44.449,109.97-43.071,39.42,1.18,82.149,10.395,118.354-2.288C279.6,21.315,304.394-1.782,343.5-.076c52.425,2.287,75.454,38.194,72.738,73.207-3.766,48.547-52.559,72.839-101.31,69.762-40.342-2.546-83.066-6-118.786,16.177-32.9,20.429-54.669,65.459-100.716,66.449C43.2,226.639-32.8,149.212,15.183,79.318Z" transform="matrix(-0.407, -0.914, 0.914, -0.407, 188.68, 676.715)" fill="#221d36" opacity="0.5" style="mix-blend-mode: color-dodge;isolation: isolate"/>
              <path id="路径_12506" data-name="路径 12506" d="M200.357,22.948c-28.045,7.485-24.874,40.925-55.731,63.863-28.048,24.151-73.42,9.372-73.42,9.372s-19.159,73.126,45.132,47.838c59.039,2.392,114.733-17.533,125.884-61.4S228.4,15.462,200.357,22.948Z" transform="matrix(0.899, 0.438, -0.438, 0.899, -84.458, 435.646)" fill="#2e2fff"/>
              <path id="路径_12507" data-name="路径 12507" d="M218.015,83.826c3.5-16.343,18.463-24.084,20.572-41.312,4.593-37.507-35.113-57.661-53.4-29.011-9.3,14.573-12.82,32.752-23.937,46.067-11.282,13.512-28.313,15.417-42.268,25.16-25.646,17.9-33.07,50.987-64.162,64.477-71.709,31.112-68.792,71.237-16.3,73.195,43.919,1.638,55.825-53.934,112.215-53.15C242.452,170.529,210.4,119.375,218.015,83.826Z" transform="translate(301.716 216.632) rotate(-3)" fill="#f15a24"/>
              <path id="路径_12508" data-name="路径 12508" d="M217.954,83.784c3.5-16.347,18.466-24.094,20.579-41.325,4.6-37.515-35.092-57.662-53.385-29-9.3,14.578-12.826,32.761-23.944,46.082-11.283,13.517-28.312,15.428-42.267,25.176-25.646,17.914-33.077,51-64.168,64.506-71.7,31.136-68.8,71.268-16.321,73.212,43.91,1.627,55.829-53.959,112.209-53.189C242.364,170.5,210.331,119.34,217.954,83.784Z" transform="translate(322.722 -37.677) rotate(24)" fill="#6c35d5"/>
            </g>
          </g>
          <g id="组_3964" data-name="组 3964" transform="translate(4516.951 -10556.549)">
            <path id="路径_12509" data-name="路径 12509" d="M2124.253,507.135l-4.63-4.63,4.63-4.63-1.467-1.467-4.629,4.63-4.63-4.63-1.467,1.466,4.63,4.63-4.63,4.63,1.467,1.467,4.63-4.63,4.629,4.63Z" transform="translate(-2112.061 -496.409)" fill="#fff"/>
            <g id="组_3963" data-name="组 3963" transform="translate(3.793 20.623)">
              <path id="路径_12510" data-name="路径 12510" d="M1016.167,409.915l-2.3-2.3a2.266,2.266,0,0,1,.212-3.391l1.8-1.4a3.025,3.025,0,0,0,.283-4.527l-2.3-2.3a2.266,2.266,0,0,1,.212-3.391l1.8-1.4a3.025,3.025,0,0,0,.283-4.527l-2.3-2.3a2.265,2.265,0,0,1,.212-3.391l1.8-1.4a3.026,3.026,0,0,0,.283-4.528l-2.3-2.3a2.266,2.266,0,0,1,.212-3.391l1.8-1.4a3.025,3.025,0,0,0,.282-4.527l-2.3-2.3a2.266,2.266,0,0,1,.212-3.391l1.8-1.4a3.025,3.025,0,0,0,.282-4.527l-2.3-2.3a2.266,2.266,0,0,1,.212-3.391l1.8-1.4a3.025,3.025,0,0,0,.282-4.528l-2.3-2.3-.537.537,2.3,2.295a2.265,2.265,0,0,1-.212,3.391l-1.8,1.4a3.025,3.025,0,0,0-.283,4.527l2.3,2.3a2.265,2.265,0,0,1-.212,3.391l-1.8,1.4a3.025,3.025,0,0,0-.283,4.527l2.3,2.3a2.265,2.265,0,0,1-.212,3.391l-1.8,1.4a3.025,3.025,0,0,0-.283,4.527l2.3,2.3a2.265,2.265,0,0,1-.212,3.391l-1.8,1.4a3.025,3.025,0,0,0-.283,4.527l2.3,2.3a2.266,2.266,0,0,1-.212,3.391l-1.8,1.4a3.025,3.025,0,0,0-.283,4.527l2.3,2.3a2.266,2.266,0,0,1-.212,3.391l-1.8,1.4a3.025,3.025,0,0,0-.283,4.527l2.3,2.3.537-.537Z" transform="translate(-1012.449 -337.941)" fill="#fff"/>
            </g>
          </g>
          <g id="组_3965" data-name="组 3965" transform="translate(4239.195 -10549) rotate(90)">
            <path id="路径_12511" data-name="路径 12511" d="M50.524.6a.6.6,0,1,1,.6.6A.6.6,0,0,1,50.524.6ZM56.84.6a.6.6,0,1,1,.6.6A.6.6,0,0,1,56.84.6Zm6.316,0a.6.6,0,1,1,.6.6A.6.6,0,0,1,63.155.6ZM25.262,8.729a.6.6,0,1,1,.6.6A.6.6,0,0,1,25.262,8.729Zm6.315,0a.6.6,0,1,1,.6.6A.6.6,0,0,1,31.577,8.729Zm6.316,0a.6.6,0,1,1,.6.6A.6.6,0,0,1,37.893,8.729Zm6.316,0a.6.6,0,1,1,.6.6A.6.6,0,0,1,44.208,8.729Zm6.316,0a.6.6,0,1,1,.6.6A.6.6,0,0,1,50.524,8.729Zm6.316,0a.6.6,0,1,1,.6.6A.6.6,0,0,1,56.84,8.729Zm6.316,0a.6.6,0,1,1,.6.6A.6.6,0,0,1,63.155,8.729Zm6.316,0a.6.6,0,1,1,.6.6A.6.6,0,0,1,69.471,8.729Zm6.316,0a.6.6,0,1,1,.6.6A.6.6,0,0,1,75.786,8.729Zm6.316,0a.6.6,0,1,1,.6.6A.6.6,0,0,1,82.1,8.729Zm6.316,0a.6.6,0,1,1,.6.6A.6.6,0,0,1,88.418,8.729ZM18.947,16.858a.6.6,0,1,1,.6.6A.6.6,0,0,1,18.947,16.858Zm6.316,0a.6.6,0,1,1,.6.6A.6.6,0,0,1,25.262,16.858Zm6.315,0a.6.6,0,1,1,.6.6A.6.6,0,0,1,31.577,16.858Zm6.316,0a.6.6,0,1,1,.6.6A.6.6,0,0,1,37.893,16.858Zm6.316,0a.6.6,0,1,1,.6.6A.6.6,0,0,1,44.208,16.858Zm6.316,0a.6.6,0,1,1,.6.6A.6.6,0,0,1,50.524,16.858Zm6.316,0a.6.6,0,1,1,.6.6A.6.6,0,0,1,56.84,16.858Zm6.316,0a.6.6,0,1,1,.6.6A.6.6,0,0,1,63.155,16.858Zm6.316,0a.6.6,0,1,1,.6.6A.6.6,0,0,1,69.471,16.858Zm6.316,0a.6.6,0,1,1,.6.6A.6.6,0,0,1,75.786,16.858Zm6.316,0a.6.6,0,1,1,.6.6A.6.6,0,0,1,82.1,16.858Zm6.316,0a.6.6,0,1,1,.6.6A.6.6,0,0,1,88.418,16.858Zm6.316,0a.6.6,0,1,1,.6.6A.6.6,0,0,1,94.733,16.858ZM6.316,24.987a.6.6,0,1,1,.6.6A.6.6,0,0,1,6.316,24.987Zm6.316,0a.6.6,0,1,1,.6.6A.6.6,0,0,1,12.631,24.987Zm6.316,0a.6.6,0,1,1,.6.6A.6.6,0,0,1,18.947,24.987Zm6.316,0a.6.6,0,1,1,.6.6A.6.6,0,0,1,25.262,24.987Zm6.315,0a.6.6,0,1,1,.6.6A.6.6,0,0,1,31.577,24.987Zm6.316,0a.6.6,0,1,1,.6.6A.6.6,0,0,1,37.893,24.987Zm6.316,0a.6.6,0,1,1,.6.6A.6.6,0,0,1,44.208,24.987Zm6.316,0a.6.6,0,1,1,.6.6A.6.6,0,0,1,50.524,24.987Zm6.316,0a.6.6,0,1,1,.6.6A.6.6,0,0,1,56.84,24.987Zm6.316,0a.6.6,0,1,1,.6.6A.6.6,0,0,1,63.155,24.987Zm6.316,0a.6.6,0,1,1,.6.6A.6.6,0,0,1,69.471,24.987Zm6.316,0a.6.6,0,1,1,.6.6A.6.6,0,0,1,75.786,24.987Zm6.316,0a.6.6,0,1,1,.6.6A.6.6,0,0,1,82.1,24.987Zm6.316,0a.6.6,0,1,1,.6.6A.6.6,0,0,1,88.418,24.987Zm6.316,0a.6.6,0,1,1,.6.6A.6.6,0,0,1,94.733,24.987Zm6.316,0a.6.6,0,1,1,.6.6A.6.6,0,0,1,101.049,24.987ZM6.316,33.116a.6.6,0,1,1,.6.6A.6.6,0,0,1,6.316,33.116Zm6.316,0a.6.6,0,1,1,.6.6A.6.6,0,0,1,12.631,33.116Zm6.316,0a.6.6,0,1,1,.6.6A.6.6,0,0,1,18.947,33.116Zm6.316,0a.6.6,0,1,1,.6.6A.6.6,0,0,1,25.262,33.116Zm6.315,0a.6.6,0,1,1,.6.6A.6.6,0,0,1,31.577,33.116Zm6.316,0a.6.6,0,1,1,.6.6A.6.6,0,0,1,37.893,33.116Zm6.316,0a.6.6,0,1,1,.6.6A.6.6,0,0,1,44.208,33.116Zm6.316,0a.6.6,0,1,1,.6.6A.6.6,0,0,1,50.524,33.116Zm6.316,0a.6.6,0,1,1,.6.6A.6.6,0,0,1,56.84,33.116Zm6.316,0a.6.6,0,1,1,.6.6A.6.6,0,0,1,63.155,33.116Zm6.316,0a.6.6,0,1,1,.6.6A.6.6,0,0,1,69.471,33.116Zm6.316,0a.6.6,0,1,1,.6.6A.6.6,0,0,1,75.786,33.116Zm6.316,0a.6.6,0,1,1,.6.6A.6.6,0,0,1,82.1,33.116Zm6.316,0a.6.6,0,1,1,.6.6A.6.6,0,0,1,88.418,33.116Zm6.316,0a.6.6,0,1,1,.6.6A.6.6,0,0,1,94.733,33.116Zm6.316,0a.6.6,0,1,1,.6.6A.6.6,0,0,1,101.049,33.116Zm6.316,0a.6.6,0,1,1,.6.6A.6.6,0,0,1,107.364,33.116ZM0,41.245a.6.6,0,1,1,.6.6A.6.6,0,0,1,0,41.245Zm6.316,0a.6.6,0,1,1,.6.6A.6.6,0,0,1,6.316,41.245Zm6.316,0a.6.6,0,1,1,.6.6A.6.6,0,0,1,12.631,41.245Zm6.316,0a.6.6,0,1,1,.6.6A.6.6,0,0,1,18.947,41.245Zm6.316,0a.6.6,0,1,1,.6.6A.6.6,0,0,1,25.262,41.245Zm6.315,0a.6.6,0,1,1,.6.6A.6.6,0,0,1,31.577,41.245Zm6.316,0a.6.6,0,1,1,.6.6A.6.6,0,0,1,37.893,41.245Zm6.316,0a.6.6,0,1,1,.6.6A.6.6,0,0,1,44.208,41.245Zm6.316,0a.6.6,0,1,1,.6.6A.6.6,0,0,1,50.524,41.245Zm6.316,0a.6.6,0,1,1,.6.6A.6.6,0,0,1,56.84,41.245Zm6.316,0a.6.6,0,1,1,.6.6A.6.6,0,0,1,63.155,41.245Zm6.316,0a.6.6,0,1,1,.6.6A.6.6,0,0,1,69.471,41.245Zm6.316,0a.6.6,0,1,1,.6.6A.6.6,0,0,1,75.786,41.245Zm6.316,0a.6.6,0,1,1,.6.6A.6.6,0,0,1,82.1,41.245Zm6.316,0a.6.6,0,1,1,.6.6A.6.6,0,0,1,88.418,41.245Zm6.316,0a.6.6,0,1,1,.6.6A.6.6,0,0,1,94.733,41.245Zm6.316,0a.6.6,0,1,1,.6.6A.6.6,0,0,1,101.049,41.245Zm6.316,0a.6.6,0,1,1,.6.6A.6.6,0,0,1,107.364,41.245Zm6.316,0a.6.6,0,1,1,.6.6A.6.6,0,0,1,113.68,41.245ZM0,49.373a.6.6,0,1,1,.6.6A.6.6,0,0,1,0,49.373Zm6.316,0a.6.6,0,1,1,.6.6A.6.6,0,0,1,6.316,49.373Zm6.316,0a.6.6,0,1,1,.6.6A.6.6,0,0,1,12.631,49.373Zm6.316,0a.6.6,0,1,1,.6.6A.6.6,0,0,1,18.947,49.373Zm6.316,0a.6.6,0,1,1,.6.6A.6.6,0,0,1,25.262,49.373Zm6.315,0a.6.6,0,1,1,.6.6A.6.6,0,0,1,31.577,49.373Zm6.316,0a.6.6,0,1,1,.6.6A.6.6,0,0,1,37.893,49.373Zm6.316,0a.6.6,0,1,1,.6.6A.6.6,0,0,1,44.208,49.373Zm6.316,0a.6.6,0,1,1,.6.6A.6.6,0,0,1,50.524,49.373Zm6.316,0a.6.6,0,1,1,.6.6A.6.6,0,0,1,56.84,49.373Zm6.316,0a.6.6,0,1,1,.6.6A.6.6,0,0,1,63.155,49.373Zm6.316,0a.6.6,0,1,1,.6.6A.6.6,0,0,1,69.471,49.373Zm6.316,0a.6.6,0,1,1,.6.6A.6.6,0,0,1,75.786,49.373Zm6.316,0a.6.6,0,1,1,.6.6A.6.6,0,0,1,82.1,49.373Zm6.316,0a.6.6,0,1,1,.6.6A.6.6,0,0,1,88.418,49.373Zm6.316,0a.6.6,0,1,1,.6.6A.6.6,0,0,1,94.733,49.373Zm6.316,0a.6.6,0,1,1,.6.6A.6.6,0,0,1,101.049,49.373Zm6.316,0a.6.6,0,1,1,.6.6A.6.6,0,0,1,107.364,49.373Zm6.316,0a.6.6,0,1,1,.6.6A.6.6,0,0,1,113.68,49.373ZM0,57.5a.6.6,0,1,1,.6.6A.6.6,0,0,1,0,57.5Zm6.316,0a.6.6,0,1,1,.6.6A.6.6,0,0,1,6.316,57.5Zm6.316,0a.6.6,0,1,1,.6.6A.6.6,0,0,1,12.631,57.5Zm6.316,0a.6.6,0,1,1,.6.6A.6.6,0,0,1,18.947,57.5Zm6.316,0a.6.6,0,1,1,.6.6A.6.6,0,0,1,25.262,57.5Zm6.315,0a.6.6,0,1,1,.6.6A.6.6,0,0,1,31.577,57.5Zm6.316,0a.6.6,0,1,1,.6.6A.6.6,0,0,1,37.893,57.5Zm6.316,0a.6.6,0,1,1,.6.6A.6.6,0,0,1,44.208,57.5Zm6.316,0a.6.6,0,1,1,.6.6A.6.6,0,0,1,50.524,57.5Zm6.316,0a.6.6,0,1,1,.6.6A.6.6,0,0,1,56.84,57.5Zm6.316,0a.6.6,0,1,1,.6.6A.6.6,0,0,1,63.155,57.5Zm6.316,0a.6.6,0,1,1,.6.6A.6.6,0,0,1,69.471,57.5Zm6.316,0a.6.6,0,1,1,.6.6A.6.6,0,0,1,75.786,57.5Zm6.316,0a.6.6,0,1,1,.6.6A.6.6,0,0,1,82.1,57.5Zm6.316,0a.6.6,0,1,1,.6.6A.6.6,0,0,1,88.418,57.5Zm6.316,0a.6.6,0,1,1,.6.6A.6.6,0,0,1,94.733,57.5Zm6.316,0a.6.6,0,1,1,.6.6A.6.6,0,0,1,101.049,57.5Zm6.316,0a.6.6,0,1,1,.6.6A.6.6,0,0,1,107.364,57.5Zm6.316,0a.6.6,0,1,1,.6.6A.6.6,0,0,1,113.68,57.5ZM0,65.632a.6.6,0,1,1,.6.6A.6.6,0,0,1,0,65.632Zm6.316,0a.6.6,0,1,1,.6.6A.6.6,0,0,1,6.316,65.632Zm6.316,0a.6.6,0,1,1,.6.6A.6.6,0,0,1,12.631,65.632Zm6.316,0a.6.6,0,1,1,.6.6A.6.6,0,0,1,18.947,65.632Zm6.316,0a.6.6,0,1,1,.6.6A.6.6,0,0,1,25.262,65.632Zm6.315,0a.6.6,0,1,1,.6.6A.6.6,0,0,1,31.577,65.632Zm6.316,0a.6.6,0,1,1,.6.6A.6.6,0,0,1,37.893,65.632Zm6.316,0a.6.6,0,1,1,.6.6A.6.6,0,0,1,44.208,65.632Zm6.316,0a.6.6,0,1,1,.6.6A.6.6,0,0,1,50.524,65.632Zm6.316,0a.6.6,0,1,1,.6.6A.6.6,0,0,1,56.84,65.632Zm6.316,0a.6.6,0,1,1,.6.6A.6.6,0,0,1,63.155,65.632Zm6.316,0a.6.6,0,1,1,.6.6A.6.6,0,0,1,69.471,65.632Zm6.316,0a.6.6,0,1,1,.6.6A.6.6,0,0,1,75.786,65.632Zm6.316,0a.6.6,0,1,1,.6.6A.6.6,0,0,1,82.1,65.632Zm6.316,0a.6.6,0,1,1,.6.6A.6.6,0,0,1,88.418,65.632Zm6.316,0a.6.6,0,1,1,.6.6A.6.6,0,0,1,94.733,65.632Zm6.316,0a.6.6,0,1,1,.6.6A.6.6,0,0,1,101.049,65.632Zm6.316,0a.6.6,0,1,1,.6.6A.6.6,0,0,1,107.364,65.632Zm6.316,0a.6.6,0,1,1,.6.6A.6.6,0,0,1,113.68,65.632ZM0,73.761a.6.6,0,1,1,.6.6A.6.6,0,0,1,0,73.761Zm6.316,0a.6.6,0,1,1,.6.6A.6.6,0,0,1,6.316,73.761Zm6.316,0a.6.6,0,1,1,.6.6A.6.6,0,0,1,12.631,73.761Zm6.316,0a.6.6,0,1,1,.6.6A.6.6,0,0,1,18.947,73.761Zm6.316,0a.6.6,0,1,1,.6.6A.6.6,0,0,1,25.262,73.761Zm6.315,0a.6.6,0,1,1,.6.6A.6.6,0,0,1,31.577,73.761Zm6.316,0a.6.6,0,1,1,.6.6A.6.6,0,0,1,37.893,73.761Zm6.316,0a.6.6,0,1,1,.6.6A.6.6,0,0,1,44.208,73.761Zm6.316,0a.6.6,0,1,1,.6.6A.6.6,0,0,1,50.524,73.761Zm6.316,0a.6.6,0,1,1,.6.6A.6.6,0,0,1,56.84,73.761Zm6.316,0a.6.6,0,1,1,.6.6A.6.6,0,0,1,63.155,73.761Zm6.316,0a.6.6,0,1,1,.6.6A.6.6,0,0,1,69.471,73.761Zm6.316,0a.6.6,0,1,1,.6.6A.6.6,0,0,1,75.786,73.761Zm6.316,0a.6.6,0,1,1,.6.6A.6.6,0,0,1,82.1,73.761Zm6.316,0a.6.6,0,1,1,.6.6A.6.6,0,0,1,88.418,73.761Zm6.316,0a.6.6,0,1,1,.6.6A.6.6,0,0,1,94.733,73.761Zm6.316,0a.6.6,0,1,1,.6.6A.6.6,0,0,1,101.049,73.761Zm6.316,0a.6.6,0,1,1,.6.6A.6.6,0,0,1,107.364,73.761Zm6.316,0a.6.6,0,1,1,.6.6A.6.6,0,0,1,113.68,73.761ZM0,81.89a.6.6,0,1,1,.6.6A.6.6,0,0,1,0,81.89Zm6.316,0a.6.6,0,1,1,.6.6A.6.6,0,0,1,6.316,81.89Zm6.316,0a.6.6,0,1,1,.6.6A.6.6,0,0,1,12.631,81.89Zm6.316,0a.6.6,0,1,1,.6.6A.6.6,0,0,1,18.947,81.89Zm6.316,0a.6.6,0,1,1,.6.6A.6.6,0,0,1,25.262,81.89Zm6.315,0a.6.6,0,1,1,.6.6A.6.6,0,0,1,31.577,81.89Zm6.316,0a.6.6,0,1,1,.6.6A.6.6,0,0,1,37.893,81.89Zm6.316,0a.6.6,0,1,1,.6.6A.6.6,0,0,1,44.208,81.89Zm6.316,0a.6.6,0,1,1,.6.6A.6.6,0,0,1,50.524,81.89Zm6.316,0a.6.6,0,1,1,.6.6A.6.6,0,0,1,56.84,81.89Zm6.316,0a.6.6,0,1,1,.6.6A.6.6,0,0,1,63.155,81.89Zm6.316,0a.6.6,0,1,1,.6.6A.6.6,0,0,1,69.471,81.89Zm6.316,0a.6.6,0,1,1,.6.6A.6.6,0,0,1,75.786,81.89Zm6.316,0a.6.6,0,1,1,.6.6A.6.6,0,0,1,82.1,81.89Zm6.316,0a.6.6,0,1,1,.6.6A.6.6,0,0,1,88.418,81.89Zm6.316,0a.6.6,0,1,1,.6.6A.6.6,0,0,1,94.733,81.89Zm6.316,0a.6.6,0,1,1,.6.6A.6.6,0,0,1,101.049,81.89Zm6.316,0a.6.6,0,1,1,.6.6A.6.6,0,0,1,107.364,81.89Zm6.316,0a.6.6,0,1,1,.6.6A.6.6,0,0,1,113.68,81.89ZM6.316,90.019a.6.6,0,1,1,.6.6A.6.6,0,0,1,6.316,90.019Zm6.316,0a.6.6,0,1,1,.6.6A.6.6,0,0,1,12.631,90.019Zm6.316,0a.6.6,0,1,1,.6.6A.6.6,0,0,1,18.947,90.019Zm6.316,0a.6.6,0,1,1,.6.6A.6.6,0,0,1,25.262,90.019Zm6.315,0a.6.6,0,1,1,.6.6A.6.6,0,0,1,31.577,90.019Zm6.316,0a.6.6,0,1,1,.6.6A.6.6,0,0,1,37.893,90.019Zm6.316,0a.6.6,0,1,1,.6.6A.6.6,0,0,1,44.208,90.019Zm6.316,0a.6.6,0,1,1,.6.6A.6.6,0,0,1,50.524,90.019Zm6.316,0a.6.6,0,1,1,.6.6A.6.6,0,0,1,56.84,90.019Zm6.316,0a.6.6,0,1,1,.6.6A.6.6,0,0,1,63.155,90.019Zm6.316,0a.6.6,0,1,1,.6.6A.6.6,0,0,1,69.471,90.019Zm6.316,0a.6.6,0,1,1,.6.6A.6.6,0,0,1,75.786,90.019Zm6.316,0a.6.6,0,1,1,.6.6A.6.6,0,0,1,82.1,90.019Zm6.316,0a.6.6,0,1,1,.6.6A.6.6,0,0,1,88.418,90.019Zm6.316,0a.6.6,0,1,1,.6.6A.6.6,0,0,1,94.733,90.019Zm6.316,0a.6.6,0,1,1,.6.6A.6.6,0,0,1,101.049,90.019Zm6.316,0a.6.6,0,1,1,.6.6A.6.6,0,0,1,107.364,90.019Z" transform="translate(5.787 0)" fill="none"/>
            <path id="路径_12512" data-name="路径 12512" d="M1.2.6a.6.6,0,1,0-.6.6A.6.6,0,0,0,1.2.6Z" transform="translate(56.311 0)" fill="#fff"/>
            <path id="路径_12513" data-name="路径 12513" d="M1.2.6a.6.6,0,1,0-.6.6A.6.6,0,0,0,1.2.6Z" transform="translate(62.627 0)" fill="#fff"/>
            <path id="路径_12514" data-name="路径 12514" d="M0,.564A.6.6,0,1,0,1.006.125C.8.083.6.04.4,0A.6.6,0,0,0,0,.564Z" transform="translate(75.258 0.036)" fill="#fff"/>
            <path id="路径_12515" data-name="路径 12515" d="M1.2.6a.6.6,0,1,0-.6.6A.6.6,0,0,0,1.2.6Z" transform="translate(68.942 0)" fill="#fff"/>
            <path id="路径_12516" data-name="路径 12516" d="M0,.581A.6.6,0,1,0,.742,0C.576.033.41.066.245.1A.6.6,0,0,0,0,.581Z" transform="translate(49.995 0.019)" fill="#fff"/>
            <path id="路径_12517" data-name="路径 12517" d="M1.2.6a.6.6,0,1,0-.6.6A.6.6,0,0,0,1.2.6Z" transform="translate(87.889 8.13)" fill="#fff"/>
            <path id="路径_12518" data-name="路径 12518" d="M1.2.6a.6.6,0,1,0-.6.6A.6.6,0,0,0,1.2.6Z" transform="translate(81.573 8.13)" fill="#fff"/>
            <path id="路径_12519" data-name="路径 12519" d="M1.2.6a.6.6,0,1,0-.6.6A.6.6,0,0,0,1.2.6Z" transform="translate(94.205 8.13)" fill="#fff"/>
            <path id="路径_12520" data-name="路径 12520" d="M1.2.6a.6.6,0,1,0-.6.6A.6.6,0,0,0,1.2.6Z" transform="translate(43.68 8.13)" fill="#fff"/>
            <path id="路径_12521" data-name="路径 12521" d="M1.2.6a.6.6,0,1,0-.6.6A.6.6,0,0,0,1.2.6Z" transform="translate(37.364 8.13)" fill="#fff"/>
            <path id="路径_12522" data-name="路径 12522" d="M1.2.6a.6.6,0,1,0-.6.6A.6.6,0,0,0,1.2.6Z" transform="translate(56.311 8.13)" fill="#fff"/>
            <path id="路径_12523" data-name="路径 12523" d="M1.2.6a.6.6,0,1,0-.6.6A.6.6,0,0,0,1.2.6Z" transform="translate(49.995 8.13)" fill="#fff"/>
            <path id="路径_12524" data-name="路径 12524" d="M1.2.6a.6.6,0,1,0-.6.6A.6.6,0,0,0,1.2.6Z" transform="translate(75.258 8.13)" fill="#fff"/>
            <path id="路径_12525" data-name="路径 12525" d="M1.2.6a.6.6,0,1,0-.6.6A.6.6,0,0,0,1.2.6Z" transform="translate(31.049 8.13)" fill="#fff"/>
            <path id="路径_12526" data-name="路径 12526" d="M1.2.6a.6.6,0,1,0-.6.6A.6.6,0,0,0,1.2.6Z" transform="translate(62.627 8.13)" fill="#fff"/>
            <path id="路径_12527" data-name="路径 12527" d="M1.2.6a.6.6,0,1,0-.6.6A.6.6,0,0,0,1.2.6Z" transform="translate(68.942 8.13)" fill="#fff"/>
            <path id="路径_12528" data-name="路径 12528" d="M1.2.6a.6.6,0,1,0-.6.6A.6.6,0,0,0,1.2.6Z" transform="translate(75.258 16.258)" fill="#fff"/>
            <path id="路径_12529" data-name="路径 12529" d="M1.2.6a.6.6,0,1,0-.6.6A.6.6,0,0,0,1.2.6Z" transform="translate(62.627 16.258)" fill="#fff"/>
            <path id="路径_12530" data-name="路径 12530" d="M1.2.6a.6.6,0,1,0-.6.6A.6.6,0,0,0,1.2.6Z" transform="translate(68.942 16.258)" fill="#fff"/>
            <path id="路径_12531" data-name="路径 12531" d="M1.2.6a.6.6,0,1,0-.6.6A.6.6,0,0,0,1.2.6Z" transform="translate(94.205 16.258)" fill="#fff"/>
            <path id="路径_12532" data-name="路径 12532" d="M1.2.6a.6.6,0,1,0-.6.6A.6.6,0,0,0,1.2.6Z" transform="translate(81.573 16.258)" fill="#fff"/>
            <path id="路径_12533" data-name="路径 12533" d="M1.2.6a.6.6,0,1,0-.6.6A.6.6,0,0,0,1.2.6Z" transform="translate(56.311 16.258)" fill="#fff"/>
            <path id="路径_12534" data-name="路径 12534" d="M1.2.6a.6.6,0,1,0-.6.6A.6.6,0,0,0,1.2.6Z" transform="translate(87.889 16.258)" fill="#fff"/>
            <path id="路径_12535" data-name="路径 12535" d="M1.2.6a.6.6,0,1,0-.6.6A.6.6,0,0,0,1.2.6Z" transform="translate(37.364 16.258)" fill="#fff"/>
            <path id="路径_12536" data-name="路径 12536" d="M.6.995A.6.6,0,0,0,1.006.833C.725.552.439.275.152,0A.6.6,0,0,0,.6.995Z" transform="translate(106.836 16.462)" fill="#fff"/>
            <path id="路径_12537" data-name="路径 12537" d="M1.2.6a.6.6,0,1,0-.6.6A.6.6,0,0,0,1.2.6Z" transform="translate(24.734 16.258)" fill="#fff"/>
            <path id="路径_12538" data-name="路径 12538" d="M.474,1.064A.6.6,0,0,0,.847,0Q.42.411,0,.828A.6.6,0,0,0,.474,1.064Z" transform="translate(18.543 16.392)" fill="#fff"/>
            <path id="路径_12539" data-name="路径 12539" d="M1.2.6a.6.6,0,1,0-.6.6A.6.6,0,0,0,1.2.6Z" transform="translate(100.52 16.258)" fill="#fff"/>
            <path id="路径_12540" data-name="路径 12540" d="M1.2.6a.6.6,0,1,0-.6.6A.6.6,0,0,0,1.2.6Z" transform="translate(43.68 16.258)" fill="#fff"/>
            <path id="路径_12541" data-name="路径 12541" d="M1.2.6a.6.6,0,1,0-.6.6A.6.6,0,0,0,1.2.6Z" transform="translate(49.995 16.258)" fill="#fff"/>
            <path id="路径_12542" data-name="路径 12542" d="M1.2.6a.6.6,0,1,0-.6.6A.6.6,0,0,0,1.2.6Z" transform="translate(31.049 16.258)" fill="#fff"/>
            <path id="路径_12543" data-name="路径 12543" d="M1.2.6a.6.6,0,1,0-.6.6A.6.6,0,0,0,1.2.6Z" transform="translate(75.258 24.387)" fill="#fff"/>
            <path id="路径_12544" data-name="路径 12544" d="M1.2.6a.6.6,0,1,0-.6.6A.6.6,0,0,0,1.2.6Z" transform="translate(62.627 24.387)" fill="#fff"/>
            <path id="路径_12545" data-name="路径 12545" d="M1.2.6a.6.6,0,1,0-.6.6A.6.6,0,0,0,1.2.6Z" transform="translate(68.942 24.387)" fill="#fff"/>
            <path id="路径_12546" data-name="路径 12546" d="M1.2.6a.6.6,0,1,0-.6.6A.6.6,0,0,0,1.2.6Z" transform="translate(87.889 24.387)" fill="#fff"/>
            <path id="路径_12547" data-name="路径 12547" d="M1.2.6a.6.6,0,1,0-.6.6A.6.6,0,0,0,1.2.6Z" transform="translate(106.836 24.387)" fill="#fff"/>
            <path id="路径_12548" data-name="路径 12548" d="M1.2.6a.6.6,0,1,0-.6.6A.6.6,0,0,0,1.2.6Z" transform="translate(100.52 24.387)" fill="#fff"/>
            <path id="路径_12549" data-name="路径 12549" d="M1.2.6a.6.6,0,1,0-.6.6A.6.6,0,0,0,1.2.6Z" transform="translate(94.205 24.387)" fill="#fff"/>
            <path id="路径_12550" data-name="路径 12550" d="M1.2.6a.6.6,0,1,0-.6.6A.6.6,0,0,0,1.2.6Z" transform="translate(81.573 24.387)" fill="#fff"/>
            <path id="路径_12551" data-name="路径 12551" d="M1.2.6a.6.6,0,1,0-.6.6A.6.6,0,0,0,1.2.6Z" transform="translate(12.103 24.387)" fill="#fff"/>
            <path id="路径_12552" data-name="路径 12552" d="M1.2.6a.6.6,0,1,0-.6.6A.6.6,0,0,0,1.2.6Z" transform="translate(18.418 24.387)" fill="#fff"/>
            <path id="路径_12553" data-name="路径 12553" d="M1.2.6a.6.6,0,1,0-.6.6A.6.6,0,0,0,1.2.6Z" transform="translate(43.68 24.387)" fill="#fff"/>
            <path id="路径_12554" data-name="路径 12554" d="M1.2.6a.6.6,0,1,0-.6.6A.6.6,0,0,0,1.2.6Z" transform="translate(49.995 24.387)" fill="#fff"/>
            <path id="路径_12555" data-name="路径 12555" d="M1.2.6a.6.6,0,1,0-.6.6A.6.6,0,0,0,1.2.6Z" transform="translate(37.364 24.387)" fill="#fff"/>
            <path id="路径_12556" data-name="路径 12556" d="M1.2.6a.6.6,0,1,0-.6.6A.6.6,0,0,0,1.2.6Z" transform="translate(24.734 24.387)" fill="#fff"/>
            <path id="路径_12557" data-name="路径 12557" d="M1.2.6a.6.6,0,1,0-.6.6A.6.6,0,0,0,1.2.6Z" transform="translate(31.049 24.387)" fill="#fff"/>
            <path id="路径_12558" data-name="路径 12558" d="M1.2.6a.6.6,0,1,0-.6.6A.6.6,0,0,0,1.2.6Z" transform="translate(56.311 24.387)" fill="#fff"/>
            <path id="路径_12559" data-name="路径 12559" d="M0,.6A.6.6,0,1,0,1.2.6.659.659,0,0,0,1.191.523Q1.022.29.852.057A.6.6,0,0,0,0,.6Z" transform="translate(113.151 24.387)" fill="#fff"/>
            <path id="路径_12560" data-name="路径 12560" d="M1.2.6a.6.6,0,1,0-.6.6A.6.6,0,0,0,1.2.6Z" transform="translate(37.364 32.517)" fill="#fff"/>
            <path id="路径_12561" data-name="路径 12561" d="M1.2.6a.6.6,0,1,0-.6.6A.6.6,0,0,0,1.2.6Z" transform="translate(43.68 32.517)" fill="#fff"/>
            <path id="路径_12562" data-name="路径 12562" d="M1.2.6a.6.6,0,1,0-.6.6A.6.6,0,0,0,1.2.6Z" transform="translate(49.995 32.517)" fill="#fff"/>
            <path id="路径_12563" data-name="路径 12563" d="M1.2.6a.6.6,0,1,0-.6.6A.6.6,0,0,0,1.2.6Z" transform="translate(56.311 32.517)" fill="#fff"/>
            <path id="路径_12564" data-name="路径 12564" d="M1.2.6a.6.6,0,1,0-.6.6A.6.6,0,0,0,1.2.6Z" transform="translate(12.103 32.517)" fill="#fff"/>
            <path id="路径_12565" data-name="路径 12565" d="M1.2.6a.6.6,0,1,0-.6.6A.6.6,0,0,0,1.2.6Z" transform="translate(24.734 32.517)" fill="#fff"/>
            <path id="路径_12566" data-name="路径 12566" d="M1.2.6a.6.6,0,1,0-.6.6A.6.6,0,0,0,1.2.6Z" transform="translate(31.049 32.517)" fill="#fff"/>
            <path id="路径_12567" data-name="路径 12567" d="M1.2.6a.6.6,0,1,0-.6.6A.6.6,0,0,0,1.2.6Z" transform="translate(18.418 32.517)" fill="#fff"/>
            <path id="路径_12568" data-name="路径 12568" d="M1.2.6a.6.6,0,1,0-.6.6A.6.6,0,0,0,1.2.6Z" transform="translate(94.205 32.517)" fill="#fff"/>
            <path id="路径_12569" data-name="路径 12569" d="M1.2.6a.6.6,0,1,0-.6.6A.6.6,0,0,0,1.2.6Z" transform="translate(100.52 32.517)" fill="#fff"/>
            <path id="路径_12570" data-name="路径 12570" d="M1.2.6a.6.6,0,1,0-.6.6A.6.6,0,0,0,1.2.6Z" transform="translate(87.889 32.517)" fill="#fff"/>
            <path id="路径_12571" data-name="路径 12571" d="M1.2.6a.6.6,0,1,0-.6.6A.6.6,0,0,0,1.2.6Z" transform="translate(62.627 32.517)" fill="#fff"/>
            <path id="路径_12572" data-name="路径 12572" d="M1.2.6a.6.6,0,1,0-.6.6A.6.6,0,0,0,1.2.6Z" transform="translate(68.942 32.517)" fill="#fff"/>
            <path id="路径_12573" data-name="路径 12573" d="M1.2.6a.6.6,0,1,0-.6.6A.6.6,0,0,0,1.2.6Z" transform="translate(75.258 32.517)" fill="#fff"/>
            <path id="路径_12574" data-name="路径 12574" d="M1.2.6a.6.6,0,1,0-.6.6A.6.6,0,0,0,1.2.6Z" transform="translate(81.573 32.517)" fill="#fff"/>
            <path id="路径_12575" data-name="路径 12575" d="M1.2.6a.6.6,0,1,0-.6.6A.6.6,0,0,0,1.2.6Z" transform="translate(106.836 32.517)" fill="#fff"/>
            <path id="路径_12576" data-name="路径 12576" d="M1.2.6a.6.6,0,1,0-.6.6A.6.6,0,0,0,1.2.6Z" transform="translate(113.151 32.517)" fill="#fff"/>
            <path id="路径_12577" data-name="路径 12577" d="M.35.121A.6.6,0,0,0,.338,0C.224.221.112.443,0,.665A.6.6,0,0,0,.35.121Z" transform="translate(6.635 32.994)" fill="#fff"/>
            <path id="路径_12578" data-name="路径 12578" d="M1.2.6a.6.6,0,1,0-.6.6A.6.6,0,0,0,1.2.6Z" transform="translate(56.311 40.645)" fill="#fff"/>
            <path id="路径_12579" data-name="路径 12579" d="M1.2.6a.6.6,0,1,0-.6.6A.6.6,0,0,0,1.2.6Z" transform="translate(62.627 40.645)" fill="#fff"/>
            <path id="路径_12580" data-name="路径 12580" d="M1.2.6a.6.6,0,1,0-.6.6A.6.6,0,0,0,1.2.6Z" transform="translate(49.995 40.645)" fill="#fff"/>
            <path id="路径_12581" data-name="路径 12581" d="M1.2.6a.6.6,0,1,0-.6.6A.6.6,0,0,0,1.2.6Z" transform="translate(75.258 40.645)" fill="#fff"/>
            <path id="路径_12582" data-name="路径 12582" d="M1.2.6a.6.6,0,1,0-.6.6A.6.6,0,0,0,1.2.6Z" transform="translate(43.68 40.645)" fill="#fff"/>
            <path id="路径_12583" data-name="路径 12583" d="M1.2.6a.6.6,0,1,0-.6.6A.6.6,0,0,0,1.2.6Z" transform="translate(68.942 40.645)" fill="#fff"/>
            <path id="路径_12584" data-name="路径 12584" d="M1.2.6a.6.6,0,1,0-.6.6A.6.6,0,0,0,1.2.6Z" transform="translate(37.364 40.645)" fill="#fff"/>
            <path id="路径_12585" data-name="路径 12585" d="M1.2.6a.6.6,0,1,0-.6.6A.6.6,0,0,0,1.2.6Z" transform="translate(18.418 40.645)" fill="#fff"/>
            <path id="路径_12586" data-name="路径 12586" d="M1.2.6a.6.6,0,1,0-.6.6A.6.6,0,0,0,1.2.6Z" transform="translate(81.573 40.645)" fill="#fff"/>
            <path id="路径_12587" data-name="路径 12587" d="M1.2.6a.6.6,0,1,0-.6.6A.6.6,0,0,0,1.2.6Z" transform="translate(5.787 40.645)" fill="#fff"/>
            <path id="路径_12588" data-name="路径 12588" d="M1.2.6a.6.6,0,1,0-.6.6A.6.6,0,0,0,1.2.6Z" transform="translate(12.103 40.645)" fill="#fff"/>
            <path id="路径_12589" data-name="路径 12589" d="M1.2.6a.6.6,0,1,0-.6.6A.6.6,0,0,0,1.2.6Z" transform="translate(31.049 40.645)" fill="#fff"/>
            <path id="路径_12590" data-name="路径 12590" d="M1.2.6a.6.6,0,1,0-.6.6A.6.6,0,0,0,1.2.6Z" transform="translate(24.734 40.645)" fill="#fff"/>
            <path id="路径_12591" data-name="路径 12591" d="M1.2.6a.6.6,0,1,0-.6.6A.6.6,0,0,0,1.2.6Z" transform="translate(106.836 40.645)" fill="#fff"/>
            <path id="路径_12592" data-name="路径 12592" d="M1.2.6a.6.6,0,1,0-.6.6A.6.6,0,0,0,1.2.6Z" transform="translate(119.467 40.645)" fill="#fff"/>
            <path id="路径_12593" data-name="路径 12593" d="M1.2.6a.6.6,0,1,0-.6.6A.6.6,0,0,0,1.2.6Z" transform="translate(113.151 40.645)" fill="#fff"/>
            <path id="路径_12594" data-name="路径 12594" d="M1.2.6a.6.6,0,1,0-.6.6A.6.6,0,0,0,1.2.6Z" transform="translate(87.889 40.645)" fill="#fff"/>
            <path id="路径_12595" data-name="路径 12595" d="M1.2.6a.6.6,0,1,0-.6.6A.6.6,0,0,0,1.2.6Z" transform="translate(100.52 40.645)" fill="#fff"/>
            <path id="路径_12596" data-name="路径 12596" d="M1.2.6a.6.6,0,1,0-.6.6A.6.6,0,0,0,1.2.6Z" transform="translate(94.205 40.645)" fill="#fff"/>
            <path id="路径_12597" data-name="路径 12597" d="M1.2.6a.6.6,0,1,0-.6.6A.6.6,0,0,0,1.2.6Z" transform="translate(43.68 48.774)" fill="#fff"/>
            <path id="路径_12598" data-name="路径 12598" d="M1.2.6a.6.6,0,1,0-.6.6A.6.6,0,0,0,1.2.6Z" transform="translate(75.258 48.774)" fill="#fff"/>
            <path id="路径_12599" data-name="路径 12599" d="M1.2.6a.6.6,0,1,0-.6.6A.6.6,0,0,0,1.2.6Z" transform="translate(81.573 48.774)" fill="#fff"/>
            <path id="路径_12600" data-name="路径 12600" d="M1.2.6a.6.6,0,1,0-.6.6A.6.6,0,0,0,1.2.6Z" transform="translate(119.467 48.774)" fill="#fff"/>
            <path id="路径_12601" data-name="路径 12601" d="M1.2.6a.6.6,0,1,0-.6.6A.6.6,0,0,0,1.2.6Z" transform="translate(87.889 48.774)" fill="#fff"/>
            <path id="路径_12602" data-name="路径 12602" d="M1.2.6a.6.6,0,1,0-.6.6A.6.6,0,0,0,1.2.6Z" transform="translate(62.627 48.774)" fill="#fff"/>
            <path id="路径_12603" data-name="路径 12603" d="M1.2.6a.6.6,0,1,0-.6.6A.6.6,0,0,0,1.2.6Z" transform="translate(100.52 48.774)" fill="#fff"/>
            <path id="路径_12604" data-name="路径 12604" d="M1.2.6a.6.6,0,1,0-.6.6A.6.6,0,0,0,1.2.6Z" transform="translate(106.836 48.774)" fill="#fff"/>
            <path id="路径_12605" data-name="路径 12605" d="M1.2.6a.6.6,0,1,0-.6.6A.6.6,0,0,0,1.2.6Z" transform="translate(94.205 48.774)" fill="#fff"/>
            <path id="路径_12606" data-name="路径 12606" d="M1.2.6a.6.6,0,1,0-.6.6A.6.6,0,0,0,1.2.6Z" transform="translate(56.311 48.774)" fill="#fff"/>
            <path id="路径_12607" data-name="路径 12607" d="M1.2.6a.6.6,0,1,0-.6.6A.6.6,0,0,0,1.2.6Z" transform="translate(68.942 48.774)" fill="#fff"/>
            <path id="路径_12608" data-name="路径 12608" d="M1.2.6a.6.6,0,1,0-.6.6A.6.6,0,0,0,1.2.6Z" transform="translate(24.734 48.774)" fill="#fff"/>
            <path id="路径_12609" data-name="路径 12609" d="M1.2.6a.6.6,0,1,0-.6.6A.6.6,0,0,0,1.2.6Z" transform="translate(31.049 48.774)" fill="#fff"/>
            <path id="路径_12610" data-name="路径 12610" d="M1.2.6a.6.6,0,1,0-.6.6A.6.6,0,0,0,1.2.6Z" transform="translate(37.364 48.774)" fill="#fff"/>
            <path id="路径_12611" data-name="路径 12611" d="M1.2.6a.6.6,0,1,0-.6.6A.6.6,0,0,0,1.2.6Z" transform="translate(5.787 48.774)" fill="#fff"/>
            <path id="路径_12612" data-name="路径 12612" d="M1.2.6a.6.6,0,1,0-.6.6A.6.6,0,0,0,1.2.6Z" transform="translate(49.995 48.774)" fill="#fff"/>
            <path id="路径_12613" data-name="路径 12613" d="M1.2.6a.6.6,0,1,0-.6.6A.6.6,0,0,0,1.2.6Z" transform="translate(18.418 48.774)" fill="#fff"/>
            <path id="路径_12614" data-name="路径 12614" d="M1.2.6a.6.6,0,1,0-.6.6A.6.6,0,0,0,1.2.6Z" transform="translate(12.103 48.774)" fill="#fff"/>
            <path id="路径_12615" data-name="路径 12615" d="M1.2.6a.6.6,0,1,0-.6.6A.6.6,0,0,0,1.2.6Z" transform="translate(113.151 48.774)" fill="#fff"/>
            <path id="路径_12616" data-name="路径 12616" d="M1.2.6a.6.6,0,1,0-.6.6A.6.6,0,0,0,1.2.6Z" transform="translate(24.734 56.903)" fill="#fff"/>
            <path id="路径_12617" data-name="路径 12617" d="M1.2.6a.6.6,0,1,0-.6.6A.6.6,0,0,0,1.2.6Z" transform="translate(62.627 56.903)" fill="#fff"/>
            <path id="路径_12618" data-name="路径 12618" d="M1.2.6a.6.6,0,1,0-.6.6A.6.6,0,0,0,1.2.6Z" transform="translate(68.942 56.903)" fill="#fff"/>
            <path id="路径_12619" data-name="路径 12619" d="M1.2.6a.6.6,0,1,0-.6.6A.6.6,0,0,0,1.2.6Z" transform="translate(75.258 56.903)" fill="#fff"/>
            <path id="路径_12620" data-name="路径 12620" d="M1.2.6a.6.6,0,1,0-.6.6A.6.6,0,0,0,1.2.6Z" transform="translate(56.311 56.903)" fill="#fff"/>
            <path id="路径_12621" data-name="路径 12621" d="M1.2.6a.6.6,0,1,0-.6.6A.6.6,0,0,0,1.2.6Z" transform="translate(37.364 56.903)" fill="#fff"/>
            <path id="路径_12622" data-name="路径 12622" d="M1.2.6a.6.6,0,1,0-.6.6A.6.6,0,0,0,1.2.6Z" transform="translate(5.787 56.903)" fill="#fff"/>
            <path id="路径_12623" data-name="路径 12623" d="M1.2.6a.6.6,0,1,0-.6.6A.6.6,0,0,0,1.2.6Z" transform="translate(43.68 56.903)" fill="#fff"/>
            <path id="路径_12624" data-name="路径 12624" d="M1.2.6a.6.6,0,1,0-.6.6A.6.6,0,0,0,1.2.6Z" transform="translate(49.995 56.903)" fill="#fff"/>
            <path id="路径_12625" data-name="路径 12625" d="M1.2.6a.6.6,0,1,0-.6.6A.6.6,0,0,0,1.2.6Z" transform="translate(119.467 56.903)" fill="#fff"/>
            <path id="路径_12626" data-name="路径 12626" d="M1.2.6a.6.6,0,1,0-.6.6A.6.6,0,0,0,1.2.6Z" transform="translate(18.418 56.903)" fill="#fff"/>
            <path id="路径_12627" data-name="路径 12627" d="M1.2.6a.6.6,0,1,0-.6.6A.6.6,0,0,0,1.2.6Z" transform="translate(31.049 56.903)" fill="#fff"/>
            <path id="路径_12628" data-name="路径 12628" d="M1.2.6a.6.6,0,1,0-.6.6A.6.6,0,0,0,1.2.6Z" transform="translate(12.103 56.903)" fill="#fff"/>
            <path id="路径_12629" data-name="路径 12629" d="M1.2.6a.6.6,0,1,0-.6.6A.6.6,0,0,0,1.2.6Z" transform="translate(113.151 56.903)" fill="#fff"/>
            <path id="路径_12630" data-name="路径 12630" d="M1.2.6a.6.6,0,1,0-.6.6A.6.6,0,0,0,1.2.6Z" transform="translate(100.52 56.903)" fill="#fff"/>
            <path id="路径_12631" data-name="路径 12631" d="M1.2.6a.6.6,0,1,0-.6.6A.6.6,0,0,0,1.2.6Z" transform="translate(94.205 56.903)" fill="#fff"/>
            <path id="路径_12632" data-name="路径 12632" d="M1.2.6a.6.6,0,1,0-.6.6A.6.6,0,0,0,1.2.6Z" transform="translate(87.889 56.903)" fill="#fff"/>
            <path id="路径_12633" data-name="路径 12633" d="M1.2.6a.6.6,0,1,0-.6.6A.6.6,0,0,0,1.2.6Z" transform="translate(81.573 56.903)" fill="#fff"/>
            <path id="路径_12634" data-name="路径 12634" d="M1.2.6a.6.6,0,1,0-.6.6A.6.6,0,0,0,1.2.6Z" transform="translate(106.836 56.903)" fill="#fff"/>
            <path id="路径_12635" data-name="路径 12635" d="M.443,1.017A.6.6,0,0,0,.618.593.6.6,0,0,0,.443.169.606.606,0,0,0,.082,0C.05.4.024.793,0,1.19l.019,0A.6.6,0,0,0,.443,1.017Z" transform="translate(0.051 56.91)" fill="#fff"/>
            <path id="路径_12636" data-name="路径 12636" d="M1.2.6a.6.6,0,1,0-.6.6A.6.6,0,0,0,1.2.6Z" transform="translate(68.942 65.032)" fill="#fff"/>
            <path id="路径_12637" data-name="路径 12637" d="M1.2.6a.6.6,0,1,0-.6.6A.6.6,0,0,0,1.2.6Z" transform="translate(75.258 65.032)" fill="#fff"/>
            <path id="路径_12638" data-name="路径 12638" d="M1.2.6a.6.6,0,1,0-.6.6A.6.6,0,0,0,1.2.6Z" transform="translate(87.889 65.032)" fill="#fff"/>
            <path id="路径_12639" data-name="路径 12639" d="M1.2.6a.6.6,0,1,0-.6.6A.6.6,0,0,0,1.2.6Z" transform="translate(94.205 65.032)" fill="#fff"/>
            <path id="路径_12640" data-name="路径 12640" d="M1.2.6a.6.6,0,1,0-.6.6A.6.6,0,0,0,1.2.6Z" transform="translate(100.52 65.032)" fill="#fff"/>
            <path id="路径_12641" data-name="路径 12641" d="M1.2.6a.6.6,0,1,0-.6.6A.6.6,0,0,0,1.2.6Z" transform="translate(56.311 65.032)" fill="#fff"/>
            <path id="路径_12642" data-name="路径 12642" d="M1.2.6a.6.6,0,1,0-.6.6A.6.6,0,0,0,1.2.6Z" transform="translate(62.627 65.032)" fill="#fff"/>
            <path id="路径_12643" data-name="路径 12643" d="M1.2.6a.6.6,0,1,0-.6.6A.6.6,0,0,0,1.2.6Z" transform="translate(49.995 65.032)" fill="#fff"/>
            <path id="路径_12644" data-name="路径 12644" d="M1.2.6a.6.6,0,1,0-.6.6A.6.6,0,0,0,1.2.6Z" transform="translate(43.68 65.032)" fill="#fff"/>
            <path id="路径_12645" data-name="路径 12645" d="M1.2.6a.6.6,0,1,0-.6.6A.6.6,0,0,0,1.2.6Z" transform="translate(106.836 65.032)" fill="#fff"/>
            <path id="路径_12646" data-name="路径 12646" d="M1.2.6a.6.6,0,1,0-.6.6A.6.6,0,0,0,1.2.6Z" transform="translate(81.573 65.032)" fill="#fff"/>
            <path id="路径_12647" data-name="路径 12647" d="M1.2.6a.6.6,0,1,0-.6.6A.6.6,0,0,0,1.2.6Z" transform="translate(18.418 65.032)" fill="#fff"/>
            <path id="路径_12648" data-name="路径 12648" d="M1.2.6a.6.6,0,1,0-.6.6A.6.6,0,0,0,1.2.6Z" transform="translate(31.049 65.032)" fill="#fff"/>
            <path id="路径_12649" data-name="路径 12649" d="M1.2.6a.6.6,0,1,0-.6.6A.6.6,0,0,0,1.2.6Z" transform="translate(24.734 65.032)" fill="#fff"/>
            <path id="路径_12650" data-name="路径 12650" d="M1.2.6a.6.6,0,1,0-.6.6A.6.6,0,0,0,1.2.6Z" transform="translate(12.103 65.032)" fill="#fff"/>
            <path id="路径_12651" data-name="路径 12651" d="M1.2.6a.6.6,0,1,0-.6.6A.6.6,0,0,0,1.2.6Z" transform="translate(113.151 65.032)" fill="#fff"/>
            <path id="路径_12652" data-name="路径 12652" d="M1.2.6a.6.6,0,1,0-.6.6A.6.6,0,0,0,1.2.6Z" transform="translate(5.787 65.032)" fill="#fff"/>
            <path id="路径_12653" data-name="路径 12653" d="M1.2.6a.6.6,0,1,0-.6.6A.6.6,0,0,0,1.2.6Z" transform="translate(119.467 65.032)" fill="#fff"/>
            <path id="路径_12654" data-name="路径 12654" d="M1.2.6a.6.6,0,1,0-.6.6A.6.6,0,0,0,1.2.6Z" transform="translate(37.364 65.032)" fill="#fff"/>
            <path id="路径_12655" data-name="路径 12655" d="M.495,1.023a.6.6,0,0,0,0-.848A.606.606,0,0,0,.071,0,.562.562,0,0,0,0,.007C.018.406.043.8.069,1.2h0A.606.606,0,0,0,.495,1.023Z" transform="translate(0 65.032)" fill="#fff"/>
            <path id="路径_12656" data-name="路径 12656" d="M1.2.6a.6.6,0,1,0-.6.6A.6.6,0,0,0,1.2.6Z" transform="translate(49.995 73.161)" fill="#fff"/>
            <path id="路径_12657" data-name="路径 12657" d="M1.2.6a.6.6,0,1,0-.6.6A.6.6,0,0,0,1.2.6Z" transform="translate(43.68 73.161)" fill="#fff"/>
            <path id="路径_12658" data-name="路径 12658" d="M1.2.6a.6.6,0,1,0-.6.6A.6.6,0,0,0,1.2.6Z" transform="translate(75.258 73.161)" fill="#fff"/>
            <path id="路径_12659" data-name="路径 12659" d="M1.2.6a.6.6,0,1,0-.6.6A.6.6,0,0,0,1.2.6Z" transform="translate(56.311 73.161)" fill="#fff"/>
            <path id="路径_12660" data-name="路径 12660" d="M1.2.6a.6.6,0,1,0-.6.6A.6.6,0,0,0,1.2.6Z" transform="translate(68.942 73.161)" fill="#fff"/>
            <path id="路径_12661" data-name="路径 12661" d="M1.2.6a.6.6,0,1,0-.6.6A.6.6,0,0,0,1.2.6Z" transform="translate(37.364 73.161)" fill="#fff"/>
            <path id="路径_12662" data-name="路径 12662" d="M1.2.6a.6.6,0,1,0-.6.6A.6.6,0,0,0,1.2.6Z" transform="translate(5.787 73.161)" fill="#fff"/>
            <path id="路径_12663" data-name="路径 12663" d="M1.2.6a.6.6,0,1,0-.6.6A.6.6,0,0,0,1.2.6Z" transform="translate(12.103 73.161)" fill="#fff"/>
            <path id="路径_12664" data-name="路径 12664" d="M1.2.6a.6.6,0,1,0-.6.6A.6.6,0,0,0,1.2.6Z" transform="translate(31.049 73.161)" fill="#fff"/>
            <path id="路径_12665" data-name="路径 12665" d="M1.2.6a.6.6,0,1,0-.6.6A.6.6,0,0,0,1.2.6Z" transform="translate(81.573 73.161)" fill="#fff"/>
            <path id="路径_12666" data-name="路径 12666" d="M1.2.6a.6.6,0,1,0-.6.6A.6.6,0,0,0,1.2.6Z" transform="translate(24.734 73.161)" fill="#fff"/>
            <path id="路径_12667" data-name="路径 12667" d="M1.2.6a.6.6,0,1,0-.6.6A.6.6,0,0,0,1.2.6Z" transform="translate(18.418 73.161)" fill="#fff"/>
            <path id="路径_12668" data-name="路径 12668" d="M1.2.6a.6.6,0,1,0-.6.6A.6.6,0,0,0,1.2.6Z" transform="translate(62.627 73.161)" fill="#fff"/>
            <path id="路径_12669" data-name="路径 12669" d="M1.2.6a.6.6,0,1,0-.6.6A.6.6,0,0,0,1.2.6Z" transform="translate(106.836 73.161)" fill="#fff"/>
            <path id="路径_12670" data-name="路径 12670" d="M1.2.6a.6.6,0,1,0-.6.6A.6.6,0,0,0,1.2.6Z" transform="translate(119.467 73.161)" fill="#fff"/>
            <path id="路径_12671" data-name="路径 12671" d="M1.2.6a.6.6,0,1,0-.6.6A.6.6,0,0,0,1.2.6Z" transform="translate(87.889 73.161)" fill="#fff"/>
            <path id="路径_12672" data-name="路径 12672" d="M1.2.6a.6.6,0,1,0-.6.6A.6.6,0,0,0,1.2.6Z" transform="translate(113.151 73.161)" fill="#fff"/>
            <path id="路径_12673" data-name="路径 12673" d="M1.2.6a.6.6,0,1,0-.6.6A.6.6,0,0,0,1.2.6Z" transform="translate(100.52 73.161)" fill="#fff"/>
            <path id="路径_12674" data-name="路径 12674" d="M1.2.6a.6.6,0,1,0-.6.6A.6.6,0,0,0,1.2.6Z" transform="translate(94.205 73.161)" fill="#fff"/>
            <path id="路径_12675" data-name="路径 12675" d="M1.2.6a.6.6,0,1,0-.6.6A.6.6,0,0,0,1.2.6Z" transform="translate(37.364 81.29)" fill="#fff"/>
            <path id="路径_12676" data-name="路径 12676" d="M1.2.6a.6.6,0,1,0-.6.6A.6.6,0,0,0,1.2.6Z" transform="translate(31.049 81.29)" fill="#fff"/>
            <path id="路径_12677" data-name="路径 12677" d="M1.2.6a.6.6,0,1,0-.6.6A.6.6,0,0,0,1.2.6Z" transform="translate(43.68 81.29)" fill="#fff"/>
            <path id="路径_12678" data-name="路径 12678" d="M1.2.6a.6.6,0,1,0-.6.6A.6.6,0,0,0,1.2.6Z" transform="translate(119.467 81.29)" fill="#fff"/>
            <path id="路径_12679" data-name="路径 12679" d="M1.2.6a.6.6,0,1,0-.6.6A.6.6,0,0,0,1.2.6Z" transform="translate(24.734 81.29)" fill="#fff"/>
            <path id="路径_12680" data-name="路径 12680" d="M1.2.6a.6.6,0,1,0-.6.6A.6.6,0,0,0,1.2.6Z" transform="translate(5.787 81.29)" fill="#fff"/>
            <path id="路径_12681" data-name="路径 12681" d="M1.2.6a.6.6,0,1,0-.6.6A.6.6,0,0,0,1.2.6Z" transform="translate(18.418 81.29)" fill="#fff"/>
            <path id="路径_12682" data-name="路径 12682" d="M1.2.6a.6.6,0,1,0-.6.6A.6.6,0,0,0,1.2.6Z" transform="translate(12.103 81.29)" fill="#fff"/>
            <path id="路径_12683" data-name="路径 12683" d="M1.2.6a.6.6,0,1,0-.6.6A.6.6,0,0,0,1.2.6Z" transform="translate(100.52 81.29)" fill="#fff"/>
            <path id="路径_12684" data-name="路径 12684" d="M1.2.6a.6.6,0,1,0-.6.6A.6.6,0,0,0,1.2.6Z" transform="translate(106.836 81.29)" fill="#fff"/>
            <path id="路径_12685" data-name="路径 12685" d="M1.2.6a.6.6,0,1,0-.6.6A.6.6,0,0,0,1.2.6Z" transform="translate(113.151 81.29)" fill="#fff"/>
            <path id="路径_12686" data-name="路径 12686" d="M1.2.6a.6.6,0,1,0-.6.6A.6.6,0,0,0,1.2.6Z" transform="translate(81.573 81.29)" fill="#fff"/>
            <path id="路径_12687" data-name="路径 12687" d="M1.2.6a.6.6,0,1,0-.6.6A.6.6,0,0,0,1.2.6Z" transform="translate(49.995 81.29)" fill="#fff"/>
            <path id="路径_12688" data-name="路径 12688" d="M1.2.6a.6.6,0,1,0-.6.6A.6.6,0,0,0,1.2.6Z" transform="translate(87.889 81.29)" fill="#fff"/>
            <path id="路径_12689" data-name="路径 12689" d="M1.2.6a.6.6,0,1,0-.6.6A.6.6,0,0,0,1.2.6Z" transform="translate(94.205 81.29)" fill="#fff"/>
            <path id="路径_12690" data-name="路径 12690" d="M1.2.6a.6.6,0,1,0-.6.6A.6.6,0,0,0,1.2.6Z" transform="translate(56.311 81.29)" fill="#fff"/>
            <path id="路径_12691" data-name="路径 12691" d="M1.2.6a.6.6,0,1,0-.6.6A.6.6,0,0,0,1.2.6Z" transform="translate(62.627 81.29)" fill="#fff"/>
            <path id="路径_12692" data-name="路径 12692" d="M1.2.6a.6.6,0,1,0-.6.6A.6.6,0,0,0,1.2.6Z" transform="translate(68.942 81.29)" fill="#fff"/>
            <path id="路径_12693" data-name="路径 12693" d="M1.2.6a.6.6,0,1,0-.6.6A.6.6,0,0,0,1.2.6Z" transform="translate(75.258 81.29)" fill="#fff"/>
            <path id="路径_12694" data-name="路径 12694" d="M1.2.6a.6.6,0,1,0-.6.6A.6.6,0,0,0,1.2.6Z" transform="translate(18.418 89.42)" fill="#fff"/>
            <path id="路径_12695" data-name="路径 12695" d="M1.2.6a.6.6,0,1,0-.6.6A.6.6,0,0,0,1.2.6Z" transform="translate(68.942 89.42)" fill="#fff"/>
            <path id="路径_12696" data-name="路径 12696" d="M1.2.6a.6.6,0,1,0-.6.6A.6.6,0,0,0,1.2.6Z" transform="translate(81.573 89.42)" fill="#fff"/>
            <path id="路径_12697" data-name="路径 12697" d="M1.2.6a.6.6,0,1,0-.6.6A.6.6,0,0,0,1.2.6Z" transform="translate(75.258 89.42)" fill="#fff"/>
            <path id="路径_12698" data-name="路径 12698" d="M1.2.6a.6.6,0,1,0-.6.6A.6.6,0,0,0,1.2.6Z" transform="translate(94.205 89.42)" fill="#fff"/>
            <path id="路径_12699" data-name="路径 12699" d="M1.2.6a.6.6,0,1,0-.6.6A.6.6,0,0,0,1.2.6Z" transform="translate(87.889 89.42)" fill="#fff"/>
            <path id="路径_12700" data-name="路径 12700" d="M1.2.6a.6.6,0,1,0-.6.6A.6.6,0,0,0,1.2.6Z" transform="translate(100.52 89.42)" fill="#fff"/>
            <path id="路径_12701" data-name="路径 12701" d="M1.2.6a.6.6,0,1,0-.6.6A.6.6,0,0,0,1.2.6Z" transform="translate(113.151 89.42)" fill="#fff"/>
            <path id="路径_12702" data-name="路径 12702" d="M0,.6a.6.6,0,0,0,.178.426C.349.688.519.35.684.008A.648.648,0,0,0,.6,0,.6.6,0,0,0,0,.6Z" transform="translate(119.467 89.42)" fill="#fff"/>
            <path id="路径_12703" data-name="路径 12703" d="M1.2.6a.6.6,0,1,0-.6.6A.6.6,0,0,0,1.2.6Z" transform="translate(106.836 89.42)" fill="#fff"/>
            <path id="路径_12704" data-name="路径 12704" d="M1.2.6a.6.6,0,1,0-.6.6A.6.6,0,0,0,1.2.6Z" transform="translate(24.734 89.42)" fill="#fff"/>
            <path id="路径_12705" data-name="路径 12705" d="M.812.6a.6.6,0,0,0-.6-.6A.6.6,0,0,0,0,.04C.172.4.35.752.529,1.106A.6.6,0,0,0,.812.6Z" transform="translate(6.174 89.42)" fill="#fff"/>
            <path id="路径_12706" data-name="路径 12706" d="M1.2.6a.6.6,0,1,0-.6.6A.6.6,0,0,0,1.2.6Z" transform="translate(37.364 89.42)" fill="#fff"/>
            <path id="路径_12707" data-name="路径 12707" d="M1.2.6a.6.6,0,1,0-.6.6A.6.6,0,0,0,1.2.6Z" transform="translate(31.049 89.42)" fill="#fff"/>
            <path id="路径_12708" data-name="路径 12708" d="M1.2.6a.6.6,0,1,0-.6.6A.6.6,0,0,0,1.2.6Z" transform="translate(12.103 89.42)" fill="#fff"/>
            <path id="路径_12709" data-name="路径 12709" d="M1.2.6a.6.6,0,1,0-.6.6A.6.6,0,0,0,1.2.6Z" transform="translate(62.627 89.42)" fill="#fff"/>
            <path id="路径_12710" data-name="路径 12710" d="M1.2.6a.6.6,0,1,0-.6.6A.6.6,0,0,0,1.2.6Z" transform="translate(43.68 89.42)" fill="#fff"/>
            <path id="路径_12711" data-name="路径 12711" d="M1.2.6a.6.6,0,1,0-.6.6A.6.6,0,0,0,1.2.6Z" transform="translate(56.311 89.42)" fill="#fff"/>
            <path id="路径_12712" data-name="路径 12712" d="M1.2.6a.6.6,0,1,0-.6.6A.6.6,0,0,0,1.2.6Z" transform="translate(49.995 89.42)" fill="#fff"/>
          </g>
          <g id="组_3967" data-name="组 3967" transform="translate(4434.279 -10175.467) rotate(-90)">
            <g id="组_3966" data-name="组 3966" transform="translate(11.293 35.038)">
              <path id="路径_12713" data-name="路径 12713" d="M2215.8,338.071a.618.618,0,1,1,.617.617A.618.618,0,0,1,2215.8,338.071Zm6.508,0a.618.618,0,1,1,.618.617A.618.618,0,0,1,2222.3,338.071Zm6.508,0a.618.618,0,1,1,.618.617A.618.618,0,0,1,2228.812,338.071Zm-39.048,8.377a.617.617,0,1,1,.617.617A.617.617,0,0,1,2189.764,346.448Zm6.507,0a.618.618,0,1,1,.618.617A.618.618,0,0,1,2196.271,346.448Zm6.508,0a.618.618,0,1,1,.618.617A.618.618,0,0,1,2202.779,346.448Zm6.508,0a.618.618,0,1,1,.618.617A.618.618,0,0,1,2209.287,346.448Zm6.508,0a.618.618,0,1,1,.617.617A.617.617,0,0,1,2215.8,346.448Zm6.508,0a.618.618,0,1,1,.618.617A.618.618,0,0,1,2222.3,346.448Zm6.508,0a.618.618,0,1,1,.618.617A.618.618,0,0,1,2228.812,346.448Zm6.509,0a.618.618,0,1,1,.617.617A.617.617,0,0,1,2235.32,346.448Zm6.508,0a.617.617,0,1,1,.617.617A.617.617,0,0,1,2241.828,346.448Zm6.508,0a.618.618,0,1,1,.618.617A.618.618,0,0,1,2248.336,346.448Zm6.508,0a.618.618,0,1,1,.618.617A.617.617,0,0,1,2254.844,346.448Zm-71.589,8.377a.618.618,0,1,1,.618.618A.618.618,0,0,1,2183.255,354.824Zm6.508,0a.617.617,0,1,1,.617.618A.617.617,0,0,1,2189.764,354.824Zm6.507,0a.618.618,0,1,1,.618.618A.618.618,0,0,1,2196.271,354.824Zm6.508,0a.618.618,0,1,1,.618.618A.618.618,0,0,1,2202.779,354.824Zm6.508,0a.618.618,0,1,1,.618.618A.618.618,0,0,1,2209.287,354.824Zm6.508,0a.618.618,0,1,1,.617.618A.618.618,0,0,1,2215.8,354.824Zm6.508,0a.618.618,0,1,1,.618.618A.618.618,0,0,1,2222.3,354.824Zm6.508,0a.618.618,0,1,1,.618.618A.618.618,0,0,1,2228.812,354.824Zm6.509,0a.618.618,0,1,1,.617.618A.618.618,0,0,1,2235.32,354.824Zm6.508,0a.617.617,0,1,1,.617.618A.618.618,0,0,1,2241.828,354.824Zm6.508,0a.618.618,0,1,1,.618.618A.618.618,0,0,1,2248.336,354.824Zm6.508,0a.618.618,0,1,1,.618.618A.618.618,0,0,1,2254.844,354.824Zm6.508,0a.617.617,0,1,1,.617.618A.617.617,0,0,1,2261.353,354.824Zm-91.113,8.377a.618.618,0,1,1,.617.618A.618.618,0,0,1,2170.239,363.2Zm6.508,0a.618.618,0,1,1,.617.618A.618.618,0,0,1,2176.747,363.2Zm6.508,0a.618.618,0,1,1,.618.618A.618.618,0,0,1,2183.255,363.2Zm6.508,0a.617.617,0,1,1,.617.618A.617.617,0,0,1,2189.764,363.2Zm6.507,0a.618.618,0,1,1,.618.618A.618.618,0,0,1,2196.271,363.2Zm6.508,0a.618.618,0,1,1,.618.618A.619.619,0,0,1,2202.779,363.2Zm6.508,0a.618.618,0,1,1,.618.618A.618.618,0,0,1,2209.287,363.2Zm6.508,0a.618.618,0,1,1,.617.618A.618.618,0,0,1,2215.8,363.2Zm6.508,0a.618.618,0,1,1,.618.618A.618.618,0,0,1,2222.3,363.2Zm6.508,0a.618.618,0,1,1,.618.618A.618.618,0,0,1,2228.812,363.2Zm6.509,0a.618.618,0,1,1,.617.618A.618.618,0,0,1,2235.32,363.2Zm6.508,0a.617.617,0,1,1,.617.618A.618.618,0,0,1,2241.828,363.2Zm6.508,0a.618.618,0,1,1,.618.618A.618.618,0,0,1,2248.336,363.2Zm6.508,0a.618.618,0,1,1,.618.618A.618.618,0,0,1,2254.844,363.2Zm6.508,0a.617.617,0,1,1,.617.618A.618.618,0,0,1,2261.353,363.2Zm6.508,0a.618.618,0,1,1,.617.618A.618.618,0,0,1,2267.861,363.2Zm-97.621,8.377a.618.618,0,1,1,.617.618A.617.617,0,0,1,2170.239,371.578Zm6.508,0a.618.618,0,1,1,.617.618A.617.617,0,0,1,2176.747,371.578Zm6.508,0a.618.618,0,1,1,.618.618A.617.617,0,0,1,2183.255,371.578Zm6.508,0a.617.617,0,1,1,.617.618A.617.617,0,0,1,2189.764,371.578Zm6.507,0a.618.618,0,1,1,.618.618A.618.618,0,0,1,2196.271,371.578Zm6.508,0a.618.618,0,1,1,.618.618A.618.618,0,0,1,2202.779,371.578Zm6.508,0a.618.618,0,1,1,.618.618A.618.618,0,0,1,2209.287,371.578Zm6.508,0a.618.618,0,1,1,.617.618A.617.617,0,0,1,2215.8,371.578Zm6.508,0a.618.618,0,1,1,.618.618A.618.618,0,0,1,2222.3,371.578Zm6.508,0a.618.618,0,1,1,.618.618A.618.618,0,0,1,2228.812,371.578Zm6.509,0a.618.618,0,1,1,.617.618A.617.617,0,0,1,2235.32,371.578Zm6.508,0a.617.617,0,1,1,.617.618A.617.617,0,0,1,2241.828,371.578Zm6.508,0a.618.618,0,1,1,.618.618A.618.618,0,0,1,2248.336,371.578Zm6.508,0a.618.618,0,1,1,.618.618A.617.617,0,0,1,2254.844,371.578Zm6.508,0a.617.617,0,1,1,.617.618A.617.617,0,0,1,2261.353,371.578Zm6.508,0a.618.618,0,1,1,.617.618A.617.617,0,0,1,2267.861,371.578Zm6.508,0a.617.617,0,1,1,.618.618A.617.617,0,0,1,2274.369,371.578Zm-110.638,8.377a.617.617,0,1,1,.617.618A.617.617,0,0,1,2163.731,379.955Zm6.508,0a.618.618,0,1,1,.617.618A.617.617,0,0,1,2170.239,379.955Zm6.508,0a.618.618,0,1,1,.617.618A.617.617,0,0,1,2176.747,379.955Zm6.508,0a.618.618,0,1,1,.618.618A.617.617,0,0,1,2183.255,379.955Zm6.508,0a.617.617,0,1,1,.617.618A.617.617,0,0,1,2189.764,379.955Zm6.507,0a.618.618,0,1,1,.618.618A.618.618,0,0,1,2196.271,379.955Zm6.508,0a.618.618,0,1,1,.618.618A.618.618,0,0,1,2202.779,379.955Zm6.508,0a.618.618,0,1,1,.618.618A.618.618,0,0,1,2209.287,379.955Zm6.508,0a.618.618,0,1,1,.617.618A.617.617,0,0,1,2215.8,379.955Zm6.508,0a.618.618,0,1,1,.618.618A.618.618,0,0,1,2222.3,379.955Zm6.508,0a.618.618,0,1,1,.618.618A.618.618,0,0,1,2228.812,379.955Zm6.509,0a.618.618,0,1,1,.617.618A.617.617,0,0,1,2235.32,379.955Zm6.508,0a.617.617,0,1,1,.617.618A.617.617,0,0,1,2241.828,379.955Zm6.508,0a.618.618,0,1,1,.618.618A.618.618,0,0,1,2248.336,379.955Zm6.508,0a.618.618,0,1,1,.618.618A.617.617,0,0,1,2254.844,379.955Zm6.508,0a.617.617,0,1,1,.617.618A.617.617,0,0,1,2261.353,379.955Zm6.508,0a.618.618,0,1,1,.617.618A.617.617,0,0,1,2267.861,379.955Zm6.508,0a.617.617,0,1,1,.618.618A.617.617,0,0,1,2274.369,379.955Zm6.508,0a.618.618,0,1,1,.617.618A.617.617,0,0,1,2280.877,379.955Zm-117.146,8.377a.617.617,0,1,1,.617.618A.618.618,0,0,1,2163.731,388.332Zm6.508,0a.618.618,0,1,1,.617.618A.618.618,0,0,1,2170.239,388.332Zm6.508,0a.618.618,0,1,1,.617.618A.618.618,0,0,1,2176.747,388.332Zm6.508,0a.618.618,0,1,1,.618.618A.618.618,0,0,1,2183.255,388.332Zm6.508,0a.617.617,0,1,1,.617.618A.617.617,0,0,1,2189.764,388.332Zm6.507,0a.618.618,0,1,1,.618.618A.618.618,0,0,1,2196.271,388.332Zm6.508,0a.618.618,0,1,1,.618.618A.618.618,0,0,1,2202.779,388.332Zm6.508,0a.618.618,0,1,1,.618.618A.618.618,0,0,1,2209.287,388.332Zm6.508,0a.618.618,0,1,1,.617.618A.618.618,0,0,1,2215.8,388.332Zm6.508,0a.618.618,0,1,1,.618.618A.618.618,0,0,1,2222.3,388.332Zm6.508,0a.618.618,0,1,1,.618.618A.618.618,0,0,1,2228.812,388.332Zm6.509,0a.618.618,0,1,1,.617.618A.618.618,0,0,1,2235.32,388.332Zm6.508,0a.617.617,0,1,1,.617.618A.618.618,0,0,1,2241.828,388.332Zm6.508,0a.618.618,0,1,1,.618.618A.618.618,0,0,1,2248.336,388.332Zm6.508,0a.618.618,0,1,1,.618.618A.618.618,0,0,1,2254.844,388.332Zm6.508,0a.617.617,0,1,1,.617.618A.617.617,0,0,1,2261.353,388.332Zm6.508,0a.618.618,0,1,1,.617.618A.618.618,0,0,1,2267.861,388.332Zm6.508,0a.617.617,0,1,1,.618.618A.618.618,0,0,1,2274.369,388.332Zm6.508,0a.618.618,0,1,1,.617.618A.618.618,0,0,1,2280.877,388.332Zm-117.146,8.377a.617.617,0,1,1,.617.618A.618.618,0,0,1,2163.731,396.709Zm6.508,0a.618.618,0,1,1,.617.618A.618.618,0,0,1,2170.239,396.709Zm6.508,0a.618.618,0,1,1,.617.618A.618.618,0,0,1,2176.747,396.709Zm6.508,0a.618.618,0,1,1,.618.618A.618.618,0,0,1,2183.255,396.709Zm6.508,0a.617.617,0,1,1,.617.618A.617.617,0,0,1,2189.764,396.709Zm6.507,0a.618.618,0,1,1,.618.618A.618.618,0,0,1,2196.271,396.709Zm6.508,0a.618.618,0,1,1,.618.618A.619.619,0,0,1,2202.779,396.709Zm6.508,0a.618.618,0,1,1,.618.618A.618.618,0,0,1,2209.287,396.709Zm6.508,0a.618.618,0,1,1,.617.618A.618.618,0,0,1,2215.8,396.709Zm6.508,0a.618.618,0,1,1,.618.618A.618.618,0,0,1,2222.3,396.709Zm6.508,0a.618.618,0,1,1,.618.618A.618.618,0,0,1,2228.812,396.709Zm6.509,0a.618.618,0,1,1,.617.618A.618.618,0,0,1,2235.32,396.709Zm6.508,0a.617.617,0,1,1,.617.618A.618.618,0,0,1,2241.828,396.709Zm6.508,0a.618.618,0,1,1,.618.618A.618.618,0,0,1,2248.336,396.709Zm6.508,0a.618.618,0,1,1,.618.618A.618.618,0,0,1,2254.844,396.709Zm6.508,0a.617.617,0,1,1,.617.618A.618.618,0,0,1,2261.353,396.709Zm6.508,0a.618.618,0,1,1,.617.618A.618.618,0,0,1,2267.861,396.709Zm6.508,0a.617.617,0,1,1,.618.618A.618.618,0,0,1,2274.369,396.709Zm6.508,0a.618.618,0,1,1,.617.618A.618.618,0,0,1,2280.877,396.709Zm-117.146,8.377a.617.617,0,1,1,.617.618A.617.617,0,0,1,2163.731,405.086Zm6.508,0a.618.618,0,1,1,.617.618A.617.617,0,0,1,2170.239,405.086Zm6.508,0a.618.618,0,1,1,.617.618A.617.617,0,0,1,2176.747,405.086Zm6.508,0a.618.618,0,1,1,.618.618A.617.617,0,0,1,2183.255,405.086Zm6.508,0a.617.617,0,1,1,.617.618A.617.617,0,0,1,2189.764,405.086Zm6.507,0a.618.618,0,1,1,.618.618A.618.618,0,0,1,2196.271,405.086Zm6.508,0a.618.618,0,1,1,.618.618A.618.618,0,0,1,2202.779,405.086Zm6.508,0a.618.618,0,1,1,.618.618A.618.618,0,0,1,2209.287,405.086Zm6.508,0a.618.618,0,1,1,.617.618A.617.617,0,0,1,2215.8,405.086Zm6.508,0a.618.618,0,1,1,.618.618A.618.618,0,0,1,2222.3,405.086Zm6.508,0a.618.618,0,1,1,.618.618A.618.618,0,0,1,2228.812,405.086Zm6.509,0a.618.618,0,1,1,.617.618A.617.617,0,0,1,2235.32,405.086Zm6.508,0a.617.617,0,1,1,.617.618A.617.617,0,0,1,2241.828,405.086Zm6.508,0a.618.618,0,1,1,.618.618A.618.618,0,0,1,2248.336,405.086Zm6.508,0a.618.618,0,1,1,.618.618A.617.617,0,0,1,2254.844,405.086Zm6.508,0a.617.617,0,1,1,.617.618A.617.617,0,0,1,2261.353,405.086Zm6.508,0a.618.618,0,1,1,.617.618A.617.617,0,0,1,2267.861,405.086Zm6.508,0a.617.617,0,1,1,.618.618A.617.617,0,0,1,2274.369,405.086Zm6.508,0a.618.618,0,1,1,.617.618A.617.617,0,0,1,2280.877,405.086Zm-117.146,8.377a.617.617,0,1,1,.617.617A.618.618,0,0,1,2163.731,413.463Zm6.508,0a.618.618,0,1,1,.617.617A.618.618,0,0,1,2170.239,413.463Zm6.508,0a.618.618,0,1,1,.617.617A.618.618,0,0,1,2176.747,413.463Zm6.508,0a.618.618,0,1,1,.618.617A.618.618,0,0,1,2183.255,413.463Zm6.508,0a.617.617,0,1,1,.617.617A.617.617,0,0,1,2189.764,413.463Zm6.507,0a.618.618,0,1,1,.618.617A.618.618,0,0,1,2196.271,413.463Zm6.508,0a.618.618,0,1,1,.618.617A.619.619,0,0,1,2202.779,413.463Zm6.508,0a.618.618,0,1,1,.618.617A.618.618,0,0,1,2209.287,413.463Zm6.508,0a.618.618,0,1,1,.617.617A.618.618,0,0,1,2215.8,413.463Zm6.508,0a.618.618,0,1,1,.618.617A.618.618,0,0,1,2222.3,413.463Zm6.508,0a.618.618,0,1,1,.618.617A.618.618,0,0,1,2228.812,413.463Zm6.509,0a.618.618,0,1,1,.617.617A.618.618,0,0,1,2235.32,413.463Zm6.508,0a.617.617,0,1,1,.617.617A.618.618,0,0,1,2241.828,413.463Zm6.508,0a.618.618,0,1,1,.618.617A.618.618,0,0,1,2248.336,413.463Zm6.508,0a.618.618,0,1,1,.618.617A.618.618,0,0,1,2254.844,413.463Zm6.508,0a.617.617,0,1,1,.617.617A.618.618,0,0,1,2261.353,413.463Zm6.508,0a.618.618,0,1,1,.617.617A.618.618,0,0,1,2267.861,413.463Zm6.508,0a.617.617,0,1,1,.618.617A.618.618,0,0,1,2274.369,413.463Zm6.508,0a.618.618,0,1,1,.617.617A.618.618,0,0,1,2280.877,413.463Zm-117.146,8.377a.617.617,0,1,1,.617.617A.618.618,0,0,1,2163.731,421.84Zm6.508,0a.618.618,0,1,1,.617.617A.618.618,0,0,1,2170.239,421.84Zm6.508,0a.618.618,0,1,1,.617.617A.618.618,0,0,1,2176.747,421.84Zm6.508,0a.618.618,0,1,1,.618.617A.618.618,0,0,1,2183.255,421.84Zm6.508,0a.617.617,0,1,1,.617.617A.617.617,0,0,1,2189.764,421.84Zm6.507,0a.618.618,0,1,1,.618.617A.618.618,0,0,1,2196.271,421.84Zm6.508,0a.618.618,0,1,1,.618.617A.619.619,0,0,1,2202.779,421.84Zm6.508,0a.618.618,0,1,1,.618.617A.618.618,0,0,1,2209.287,421.84Zm6.508,0a.618.618,0,1,1,.617.617A.618.618,0,0,1,2215.8,421.84Zm6.508,0a.618.618,0,1,1,.618.617A.618.618,0,0,1,2222.3,421.84Zm6.508,0a.618.618,0,1,1,.618.617A.618.618,0,0,1,2228.812,421.84Zm6.509,0a.618.618,0,1,1,.617.617A.618.618,0,0,1,2235.32,421.84Zm6.508,0a.617.617,0,1,1,.617.617A.618.618,0,0,1,2241.828,421.84Zm6.508,0a.618.618,0,1,1,.618.617A.618.618,0,0,1,2248.336,421.84Zm6.508,0a.618.618,0,1,1,.618.617A.618.618,0,0,1,2254.844,421.84Zm6.508,0a.617.617,0,1,1,.617.617A.618.618,0,0,1,2261.353,421.84Zm6.508,0a.618.618,0,1,1,.617.617A.618.618,0,0,1,2267.861,421.84Zm6.508,0a.617.617,0,1,1,.618.617A.618.618,0,0,1,2274.369,421.84Zm6.508,0a.618.618,0,1,1,.617.617A.618.618,0,0,1,2280.877,421.84Zm-110.638,8.377a.618.618,0,1,1,.617.618A.617.617,0,0,1,2170.239,430.216Zm6.508,0a.618.618,0,1,1,.617.618A.617.617,0,0,1,2176.747,430.216Zm6.508,0a.618.618,0,1,1,.618.618A.617.617,0,0,1,2183.255,430.216Zm6.508,0a.617.617,0,1,1,.617.618A.617.617,0,0,1,2189.764,430.216Zm6.507,0a.618.618,0,1,1,.618.618A.618.618,0,0,1,2196.271,430.216Zm6.508,0a.618.618,0,1,1,.618.618A.618.618,0,0,1,2202.779,430.216Zm6.508,0a.618.618,0,1,1,.618.618A.618.618,0,0,1,2209.287,430.216Zm6.508,0a.618.618,0,1,1,.617.618A.617.617,0,0,1,2215.8,430.216Zm6.508,0a.618.618,0,1,1,.618.618A.618.618,0,0,1,2222.3,430.216Zm6.508,0a.618.618,0,1,1,.618.618A.618.618,0,0,1,2228.812,430.216Zm6.509,0a.618.618,0,1,1,.617.618A.617.617,0,0,1,2235.32,430.216Zm6.508,0a.617.617,0,1,1,.617.618A.617.617,0,0,1,2241.828,430.216Zm6.508,0a.618.618,0,1,1,.618.618A.618.618,0,0,1,2248.336,430.216Zm6.508,0a.618.618,0,1,1,.618.618A.617.617,0,0,1,2254.844,430.216Zm6.508,0a.617.617,0,1,1,.617.618A.617.617,0,0,1,2261.353,430.216Zm6.508,0a.618.618,0,1,1,.617.618A.617.617,0,0,1,2267.861,430.216Zm6.508,0a.617.617,0,1,1,.618.618A.617.617,0,0,1,2274.369,430.216Z" transform="translate(-2157.768 -337.453)" fill="none"/>
              <path id="路径_12714" data-name="路径 12714" d="M2233.6,338.071a.618.618,0,1,0-.618.617A.618.618,0,0,0,2233.6,338.071Z" transform="translate(-2174.334 -337.453)" fill="#fff"/>
              <path id="路径_12715" data-name="路径 12715" d="M2242.177,338.071a.618.618,0,1,0-.619.617A.619.619,0,0,0,2242.177,338.071Z" transform="translate(-2176.405 -337.453)" fill="#fff"/>
              <path id="路径_12716" data-name="路径 12716" d="M2258.1,338.083a.618.618,0,1,0,1.036-.452c-.208-.043-.415-.087-.622-.129A.615.615,0,0,0,2258.1,338.083Z" transform="translate(-2180.547 -337.465)" fill="#fff"/>
              <path id="路径_12717" data-name="路径 12717" d="M2250.756,338.071a.618.618,0,1,0-.618.617A.619.619,0,0,0,2250.756,338.071Z" transform="translate(-2178.476 -337.453)" fill="#fff"/>
              <path id="路径_12718" data-name="路径 12718" d="M2223.783,338.078a.618.618,0,1,0,.765-.6c-.171.034-.342.068-.512.1A.614.614,0,0,0,2223.783,338.078Z" transform="translate(-2172.263 -337.459)" fill="#fff"/>
              <path id="路径_12719" data-name="路径 12719" d="M2276.492,349.113a.617.617,0,1,0-.617.618A.617.617,0,0,0,2276.492,349.113Z" transform="translate(-2184.688 -340.119)" fill="#fff"/>
              <path id="路径_12720" data-name="路径 12720" d="M2267.913,349.113a.617.617,0,1,0-.617.618A.617.617,0,0,0,2267.913,349.113Z" transform="translate(-2182.618 -340.119)" fill="#fff"/>
              <path id="路径_12721" data-name="路径 12721" d="M2285.071,349.113a.618.618,0,1,0-.618.618A.617.617,0,0,0,2285.071,349.113Z" transform="translate(-2186.759 -340.119)" fill="#fff"/>
              <path id="路径_12722" data-name="路径 12722" d="M2216.44,349.113a.618.618,0,1,0-.618.618A.618.618,0,0,0,2216.44,349.113Z" transform="translate(-2170.193 -340.119)" fill="#fff"/>
              <path id="路径_12723" data-name="路径 12723" d="M2207.861,349.113a.618.618,0,1,0-.617.618A.618.618,0,0,0,2207.861,349.113Z" transform="translate(-2168.122 -340.119)" fill="#fff"/>
              <path id="路径_12724" data-name="路径 12724" d="M2233.6,349.113a.618.618,0,1,0-.618.618A.618.618,0,0,0,2233.6,349.113Z" transform="translate(-2174.334 -340.119)" fill="#fff"/>
              <path id="路径_12725" data-name="路径 12725" d="M2225.019,349.113a.618.618,0,1,0-.618.618A.618.618,0,0,0,2225.019,349.113Z" transform="translate(-2172.263 -340.119)" fill="#fff"/>
              <path id="路径_12726" data-name="路径 12726" d="M2259.335,349.113a.618.618,0,1,0-.618.618A.618.618,0,0,0,2259.335,349.113Z" transform="translate(-2180.547 -340.119)" fill="#fff"/>
              <path id="路径_12727" data-name="路径 12727" d="M2199.282,349.113a.618.618,0,1,0-.618.618A.618.618,0,0,0,2199.282,349.113Z" transform="translate(-2166.051 -340.119)" fill="#fff"/>
              <path id="路径_12728" data-name="路径 12728" d="M2242.177,349.113a.618.618,0,1,0-.619.618A.618.618,0,0,0,2242.177,349.113Z" transform="translate(-2176.405 -340.119)" fill="#fff"/>
              <path id="路径_12729" data-name="路径 12729" d="M2250.756,349.113a.618.618,0,1,0-.618.618A.618.618,0,0,0,2250.756,349.113Z" transform="translate(-2178.476 -340.119)" fill="#fff"/>
              <path id="路径_12730" data-name="路径 12730" d="M2259.335,360.155a.618.618,0,1,0-.618.618A.618.618,0,0,0,2259.335,360.155Z" transform="translate(-2180.547 -342.784)" fill="#fff"/>
              <path id="路径_12731" data-name="路径 12731" d="M2242.177,360.155a.618.618,0,1,0-.619.618A.618.618,0,0,0,2242.177,360.155Z" transform="translate(-2176.405 -342.784)" fill="#fff"/>
              <path id="路径_12732" data-name="路径 12732" d="M2250.756,360.155a.618.618,0,1,0-.618.618A.618.618,0,0,0,2250.756,360.155Z" transform="translate(-2178.476 -342.784)" fill="#fff"/>
              <path id="路径_12733" data-name="路径 12733" d="M2285.071,360.155a.618.618,0,1,0-.618.618A.617.617,0,0,0,2285.071,360.155Z" transform="translate(-2186.759 -342.784)" fill="#fff"/>
              <path id="路径_12734" data-name="路径 12734" d="M2267.913,360.155a.617.617,0,1,0-.617.618A.618.618,0,0,0,2267.913,360.155Z" transform="translate(-2182.618 -342.784)" fill="#fff"/>
              <path id="路径_12735" data-name="路径 12735" d="M2233.6,360.155a.618.618,0,1,0-.618.618A.618.618,0,0,0,2233.6,360.155Z" transform="translate(-2174.334 -342.784)" fill="#fff"/>
              <path id="路径_12736" data-name="路径 12736" d="M2276.492,360.155a.617.617,0,1,0-.617.618A.618.618,0,0,0,2276.492,360.155Z" transform="translate(-2184.688 -342.784)" fill="#fff"/>
              <path id="路径_12737" data-name="路径 12737" d="M2207.861,360.155a.618.618,0,1,0-.617.618A.618.618,0,0,0,2207.861,360.155Z" transform="translate(-2168.122 -342.784)" fill="#fff"/>
              <path id="路径_12738" data-name="路径 12738" d="M2301.612,360.84a.615.615,0,0,0,.419-.166c-.289-.29-.585-.575-.88-.859a.615.615,0,0,0,.461,1.025Z" transform="translate(-2190.901 -342.851)" fill="#fff"/>
              <path id="路径_12739" data-name="路径 12739" d="M2190.7,360.155a.618.618,0,1,0-.618.618A.618.618,0,0,0,2190.7,360.155Z" transform="translate(-2163.98 -342.784)" fill="#fff"/>
              <path id="路径_12740" data-name="路径 12740" d="M2181.547,360.817a.615.615,0,0,0,.385-1.1q-.44.423-.873.853A.613.613,0,0,0,2181.547,360.817Z" transform="translate(-2161.95 -342.828)" fill="#fff"/>
              <path id="路径_12741" data-name="路径 12741" d="M2293.649,360.155a.617.617,0,1,0-.617.618A.617.617,0,0,0,2293.649,360.155Z" transform="translate(-2188.83 -342.784)" fill="#fff"/>
              <path id="路径_12742" data-name="路径 12742" d="M2216.44,360.155a.618.618,0,1,0-.618.618A.618.618,0,0,0,2216.44,360.155Z" transform="translate(-2170.193 -342.784)" fill="#fff"/>
              <path id="路径_12743" data-name="路径 12743" d="M2225.019,360.155a.618.618,0,1,0-.618.618A.618.618,0,0,0,2225.019,360.155Z" transform="translate(-2172.263 -342.784)" fill="#fff"/>
              <path id="路径_12744" data-name="路径 12744" d="M2199.282,360.155a.618.618,0,1,0-.618.618A.618.618,0,0,0,2199.282,360.155Z" transform="translate(-2166.051 -342.784)" fill="#fff"/>
              <path id="路径_12745" data-name="路径 12745" d="M2259.335,371.2a.618.618,0,1,0-.618.618A.619.619,0,0,0,2259.335,371.2Z" transform="translate(-2180.547 -345.449)" fill="#fff"/>
              <path id="路径_12746" data-name="路径 12746" d="M2242.177,371.2a.618.618,0,1,0-.619.618A.619.619,0,0,0,2242.177,371.2Z" transform="translate(-2176.405 -345.449)" fill="#fff"/>
              <path id="路径_12747" data-name="路径 12747" d="M2250.756,371.2a.618.618,0,1,0-.618.618A.619.619,0,0,0,2250.756,371.2Z" transform="translate(-2178.476 -345.449)" fill="#fff"/>
              <path id="路径_12748" data-name="路径 12748" d="M2276.492,371.2a.617.617,0,1,0-.617.618A.618.618,0,0,0,2276.492,371.2Z" transform="translate(-2184.688 -345.449)" fill="#fff"/>
              <path id="路径_12749" data-name="路径 12749" d="M2302.229,371.2a.617.617,0,1,0-.617.618A.618.618,0,0,0,2302.229,371.2Z" transform="translate(-2190.901 -345.449)" fill="#fff"/>
              <path id="路径_12750" data-name="路径 12750" d="M2293.649,371.2a.617.617,0,1,0-.617.618A.617.617,0,0,0,2293.649,371.2Z" transform="translate(-2188.83 -345.449)" fill="#fff"/>
              <path id="路径_12751" data-name="路径 12751" d="M2285.071,371.2a.618.618,0,1,0-.618.618A.618.618,0,0,0,2285.071,371.2Z" transform="translate(-2186.759 -345.449)" fill="#fff"/>
              <path id="路径_12752" data-name="路径 12752" d="M2267.913,371.2a.617.617,0,1,0-.617.618A.618.618,0,0,0,2267.913,371.2Z" transform="translate(-2182.618 -345.449)" fill="#fff"/>
              <path id="路径_12753" data-name="路径 12753" d="M2173.545,371.2a.617.617,0,1,0-.617.618A.618.618,0,0,0,2173.545,371.2Z" transform="translate(-2159.838 -345.449)" fill="#fff"/>
              <path id="路径_12754" data-name="路径 12754" d="M2182.124,371.2a.618.618,0,1,0-.618.618A.618.618,0,0,0,2182.124,371.2Z" transform="translate(-2161.909 -345.449)" fill="#fff"/>
              <path id="路径_12755" data-name="路径 12755" d="M2216.44,371.2a.618.618,0,1,0-.618.618A.618.618,0,0,0,2216.44,371.2Z" transform="translate(-2170.193 -345.449)" fill="#fff"/>
              <path id="路径_12756" data-name="路径 12756" d="M2225.019,371.2a.618.618,0,1,0-.618.618A.618.618,0,0,0,2225.019,371.2Z" transform="translate(-2172.263 -345.449)" fill="#fff"/>
              <path id="路径_12757" data-name="路径 12757" d="M2207.861,371.2a.618.618,0,1,0-.617.618A.618.618,0,0,0,2207.861,371.2Z" transform="translate(-2168.122 -345.449)" fill="#fff"/>
              <path id="路径_12758" data-name="路径 12758" d="M2190.7,371.2a.618.618,0,1,0-.618.618A.618.618,0,0,0,2190.7,371.2Z" transform="translate(-2163.98 -345.449)" fill="#fff"/>
              <path id="路径_12759" data-name="路径 12759" d="M2199.282,371.2a.618.618,0,1,0-.618.618A.619.619,0,0,0,2199.282,371.2Z" transform="translate(-2166.051 -345.449)" fill="#fff"/>
              <path id="路径_12760" data-name="路径 12760" d="M2233.6,371.2a.618.618,0,1,0-.618.618A.618.618,0,0,0,2233.6,371.2Z" transform="translate(-2174.334 -345.449)" fill="#fff"/>
              <path id="路径_12761" data-name="路径 12761" d="M2309.573,371.2a.617.617,0,1,0,1.235,0,.662.662,0,0,0-.008-.08q-.174-.24-.349-.479a.615.615,0,0,0-.878.559Z" transform="translate(-2192.972 -345.449)" fill="#fff"/>
              <path id="路径_12762" data-name="路径 12762" d="M2207.861,382.24a.618.618,0,1,0-.617.617A.618.618,0,0,0,2207.861,382.24Z" transform="translate(-2168.122 -348.115)" fill="#fff"/>
              <path id="路径_12763" data-name="路径 12763" d="M2216.44,382.24a.618.618,0,1,0-.618.617A.618.618,0,0,0,2216.44,382.24Z" transform="translate(-2170.193 -348.115)" fill="#fff"/>
              <path id="路径_12764" data-name="路径 12764" d="M2225.019,382.24a.618.618,0,1,0-.618.617A.618.618,0,0,0,2225.019,382.24Z" transform="translate(-2172.263 -348.115)" fill="#fff"/>
              <path id="路径_12765" data-name="路径 12765" d="M2233.6,382.24a.618.618,0,1,0-.618.617A.618.618,0,0,0,2233.6,382.24Z" transform="translate(-2174.334 -348.115)" fill="#fff"/>
              <path id="路径_12766" data-name="路径 12766" d="M2173.545,382.24a.617.617,0,1,0-.617.617A.617.617,0,0,0,2173.545,382.24Z" transform="translate(-2159.838 -348.115)" fill="#fff"/>
              <path id="路径_12767" data-name="路径 12767" d="M2190.7,382.24a.618.618,0,1,0-.618.617A.618.618,0,0,0,2190.7,382.24Z" transform="translate(-2163.98 -348.115)" fill="#fff"/>
              <path id="路径_12768" data-name="路径 12768" d="M2199.282,382.24a.618.618,0,1,0-.618.617A.618.618,0,0,0,2199.282,382.24Z" transform="translate(-2166.051 -348.115)" fill="#fff"/>
              <path id="路径_12769" data-name="路径 12769" d="M2182.124,382.24a.618.618,0,1,0-.618.617A.617.617,0,0,0,2182.124,382.24Z" transform="translate(-2161.909 -348.115)" fill="#fff"/>
              <path id="路径_12770" data-name="路径 12770" d="M2285.071,382.24a.618.618,0,1,0-.618.617A.617.617,0,0,0,2285.071,382.24Z" transform="translate(-2186.759 -348.115)" fill="#fff"/>
              <path id="路径_12771" data-name="路径 12771" d="M2293.649,382.24a.617.617,0,1,0-.617.617A.617.617,0,0,0,2293.649,382.24Z" transform="translate(-2188.83 -348.115)" fill="#fff"/>
              <path id="路径_12772" data-name="路径 12772" d="M2276.492,382.24a.617.617,0,1,0-.617.617A.617.617,0,0,0,2276.492,382.24Z" transform="translate(-2184.688 -348.115)" fill="#fff"/>
              <path id="路径_12773" data-name="路径 12773" d="M2242.177,382.24a.618.618,0,1,0-.619.617A.618.618,0,0,0,2242.177,382.24Z" transform="translate(-2176.405 -348.115)" fill="#fff"/>
              <path id="路径_12774" data-name="路径 12774" d="M2250.756,382.24a.618.618,0,1,0-.618.617A.618.618,0,0,0,2250.756,382.24Z" transform="translate(-2178.476 -348.115)" fill="#fff"/>
              <path id="路径_12775" data-name="路径 12775" d="M2259.335,382.24a.618.618,0,1,0-.618.617A.618.618,0,0,0,2259.335,382.24Z" transform="translate(-2180.547 -348.115)" fill="#fff"/>
              <path id="路径_12776" data-name="路径 12776" d="M2267.913,382.24a.617.617,0,1,0-.617.617A.617.617,0,0,0,2267.913,382.24Z" transform="translate(-2182.618 -348.115)" fill="#fff"/>
              <path id="路径_12777" data-name="路径 12777" d="M2302.229,382.24a.617.617,0,1,0-.617.617A.617.617,0,0,0,2302.229,382.24Z" transform="translate(-2190.901 -348.115)" fill="#fff"/>
              <path id="路径_12778" data-name="路径 12778" d="M2310.808,382.24a.617.617,0,1,0-.617.617A.617.617,0,0,0,2310.808,382.24Z" transform="translate(-2192.972 -348.115)" fill="#fff"/>
              <path id="路径_12779" data-name="路径 12779" d="M2165.244,382.4a.605.605,0,0,0-.013-.125c-.118.228-.233.457-.348.686A.617.617,0,0,0,2165.244,382.4Z" transform="translate(-2158.046 -348.272)" fill="#fff"/>
              <path id="路径_12780" data-name="路径 12780" d="M2233.6,393.283a.618.618,0,1,0-.618.618A.618.618,0,0,0,2233.6,393.283Z" transform="translate(-2174.334 -350.78)" fill="#fff"/>
              <path id="路径_12781" data-name="路径 12781" d="M2242.177,393.283a.618.618,0,1,0-.619.618A.618.618,0,0,0,2242.177,393.283Z" transform="translate(-2176.405 -350.78)" fill="#fff"/>
              <path id="路径_12782" data-name="路径 12782" d="M2225.019,393.283a.618.618,0,1,0-.618.618A.618.618,0,0,0,2225.019,393.283Z" transform="translate(-2172.263 -350.78)" fill="#fff"/>
              <path id="路径_12783" data-name="路径 12783" d="M2259.335,393.283a.618.618,0,1,0-.618.618A.618.618,0,0,0,2259.335,393.283Z" transform="translate(-2180.547 -350.78)" fill="#fff"/>
              <path id="路径_12784" data-name="路径 12784" d="M2216.44,393.283a.618.618,0,1,0-.618.618A.618.618,0,0,0,2216.44,393.283Z" transform="translate(-2170.193 -350.78)" fill="#fff"/>
              <path id="路径_12785" data-name="路径 12785" d="M2250.756,393.283a.618.618,0,1,0-.618.618A.618.618,0,0,0,2250.756,393.283Z" transform="translate(-2178.476 -350.78)" fill="#fff"/>
              <path id="路径_12786" data-name="路径 12786" d="M2207.861,393.283a.618.618,0,1,0-.617.618A.618.618,0,0,0,2207.861,393.283Z" transform="translate(-2168.122 -350.78)" fill="#fff"/>
              <path id="路径_12787" data-name="路径 12787" d="M2182.124,393.283a.618.618,0,1,0-.618.618A.617.617,0,0,0,2182.124,393.283Z" transform="translate(-2161.909 -350.78)" fill="#fff"/>
              <path id="路径_12788" data-name="路径 12788" d="M2267.913,393.283a.617.617,0,1,0-.617.618A.617.617,0,0,0,2267.913,393.283Z" transform="translate(-2182.618 -350.78)" fill="#fff"/>
              <path id="路径_12789" data-name="路径 12789" d="M2164.966,393.283a.617.617,0,1,0-.617.618A.617.617,0,0,0,2164.966,393.283Z" transform="translate(-2157.768 -350.78)" fill="#fff"/>
              <path id="路径_12790" data-name="路径 12790" d="M2173.545,393.283a.617.617,0,1,0-.617.618A.617.617,0,0,0,2173.545,393.283Z" transform="translate(-2159.838 -350.78)" fill="#fff"/>
              <path id="路径_12791" data-name="路径 12791" d="M2199.282,393.283a.618.618,0,1,0-.618.618A.618.618,0,0,0,2199.282,393.283Z" transform="translate(-2166.051 -350.78)" fill="#fff"/>
              <path id="路径_12792" data-name="路径 12792" d="M2190.7,393.283a.618.618,0,1,0-.618.618A.618.618,0,0,0,2190.7,393.283Z" transform="translate(-2163.98 -350.78)" fill="#fff"/>
              <path id="路径_12793" data-name="路径 12793" d="M2302.229,393.283a.617.617,0,1,0-.617.618A.617.617,0,0,0,2302.229,393.283Z" transform="translate(-2190.901 -350.78)" fill="#fff"/>
              <path id="路径_12794" data-name="路径 12794" d="M2319.387,393.283a.617.617,0,1,0-.617.618A.617.617,0,0,0,2319.387,393.283Z" transform="translate(-2195.042 -350.78)" fill="#fff"/>
              <path id="路径_12795" data-name="路径 12795" d="M2310.808,393.283a.617.617,0,1,0-.617.618A.617.617,0,0,0,2310.808,393.283Z" transform="translate(-2192.972 -350.78)" fill="#fff"/>
              <path id="路径_12796" data-name="路径 12796" d="M2276.492,393.283a.617.617,0,1,0-.617.618A.617.617,0,0,0,2276.492,393.283Z" transform="translate(-2184.688 -350.78)" fill="#fff"/>
              <path id="路径_12797" data-name="路径 12797" d="M2293.649,393.283a.617.617,0,1,0-.617.618A.617.617,0,0,0,2293.649,393.283Z" transform="translate(-2188.83 -350.78)" fill="#fff"/>
              <path id="路径_12798" data-name="路径 12798" d="M2285.071,393.283a.618.618,0,1,0-.618.618A.617.617,0,0,0,2285.071,393.283Z" transform="translate(-2186.759 -350.78)" fill="#fff"/>
              <path id="路径_12799" data-name="路径 12799" d="M2216.44,404.324a.618.618,0,1,0-.618.618A.618.618,0,0,0,2216.44,404.324Z" transform="translate(-2170.193 -353.446)" fill="#fff"/>
              <path id="路径_12800" data-name="路径 12800" d="M2259.335,404.324a.618.618,0,1,0-.618.618A.618.618,0,0,0,2259.335,404.324Z" transform="translate(-2180.547 -353.446)" fill="#fff"/>
              <path id="路径_12801" data-name="路径 12801" d="M2267.913,404.324a.617.617,0,1,0-.617.618A.618.618,0,0,0,2267.913,404.324Z" transform="translate(-2182.618 -353.446)" fill="#fff"/>
              <path id="路径_12802" data-name="路径 12802" d="M2319.387,404.324a.617.617,0,1,0-.617.618A.618.618,0,0,0,2319.387,404.324Z" transform="translate(-2195.042 -353.446)" fill="#fff"/>
              <path id="路径_12803" data-name="路径 12803" d="M2276.492,404.324a.617.617,0,1,0-.617.618A.618.618,0,0,0,2276.492,404.324Z" transform="translate(-2184.688 -353.446)" fill="#fff"/>
              <path id="路径_12804" data-name="路径 12804" d="M2242.177,404.324a.618.618,0,1,0-.619.618A.618.618,0,0,0,2242.177,404.324Z" transform="translate(-2176.405 -353.446)" fill="#fff"/>
              <path id="路径_12805" data-name="路径 12805" d="M2293.649,404.324a.617.617,0,1,0-.617.618A.617.617,0,0,0,2293.649,404.324Z" transform="translate(-2188.83 -353.446)" fill="#fff"/>
              <path id="路径_12806" data-name="路径 12806" d="M2302.229,404.324a.617.617,0,1,0-.617.618A.618.618,0,0,0,2302.229,404.324Z" transform="translate(-2190.901 -353.446)" fill="#fff"/>
              <path id="路径_12807" data-name="路径 12807" d="M2285.071,404.324a.618.618,0,1,0-.618.618A.617.617,0,0,0,2285.071,404.324Z" transform="translate(-2186.759 -353.446)" fill="#fff"/>
              <path id="路径_12808" data-name="路径 12808" d="M2233.6,404.324a.618.618,0,1,0-.618.618A.618.618,0,0,0,2233.6,404.324Z" transform="translate(-2174.334 -353.446)" fill="#fff"/>
              <path id="路径_12809" data-name="路径 12809" d="M2250.756,404.324a.618.618,0,1,0-.618.618A.619.619,0,0,0,2250.756,404.324Z" transform="translate(-2178.476 -353.446)" fill="#fff"/>
              <path id="路径_12810" data-name="路径 12810" d="M2190.7,404.324a.618.618,0,1,0-.618.618A.618.618,0,0,0,2190.7,404.324Z" transform="translate(-2163.98 -353.446)" fill="#fff"/>
              <path id="路径_12811" data-name="路径 12811" d="M2199.282,404.324a.618.618,0,1,0-.618.618A.618.618,0,0,0,2199.282,404.324Z" transform="translate(-2166.051 -353.446)" fill="#fff"/>
              <path id="路径_12812" data-name="路径 12812" d="M2207.861,404.324a.618.618,0,1,0-.617.618A.618.618,0,0,0,2207.861,404.324Z" transform="translate(-2168.122 -353.446)" fill="#fff"/>
              <path id="路径_12813" data-name="路径 12813" d="M2164.966,404.324a.617.617,0,1,0-.617.618A.617.617,0,0,0,2164.966,404.324Z" transform="translate(-2157.768 -353.446)" fill="#fff"/>
              <path id="路径_12814" data-name="路径 12814" d="M2225.019,404.324a.618.618,0,1,0-.618.618A.618.618,0,0,0,2225.019,404.324Z" transform="translate(-2172.263 -353.446)" fill="#fff"/>
              <path id="路径_12815" data-name="路径 12815" d="M2182.124,404.324a.618.618,0,1,0-.618.618A.618.618,0,0,0,2182.124,404.324Z" transform="translate(-2161.909 -353.446)" fill="#fff"/>
              <path id="路径_12816" data-name="路径 12816" d="M2173.545,404.324a.617.617,0,1,0-.617.618A.617.617,0,0,0,2173.545,404.324Z" transform="translate(-2159.838 -353.446)" fill="#fff"/>
              <path id="路径_12817" data-name="路径 12817" d="M2310.808,404.324a.617.617,0,1,0-.617.618A.617.617,0,0,0,2310.808,404.324Z" transform="translate(-2192.972 -353.446)" fill="#fff"/>
              <path id="路径_12818" data-name="路径 12818" d="M2190.7,415.367a.618.618,0,1,0-.618.617A.618.618,0,0,0,2190.7,415.367Z" transform="translate(-2163.98 -356.111)" fill="#fff"/>
              <path id="路径_12819" data-name="路径 12819" d="M2242.177,415.367a.618.618,0,1,0-.619.617A.619.619,0,0,0,2242.177,415.367Z" transform="translate(-2176.405 -356.111)" fill="#fff"/>
              <path id="路径_12820" data-name="路径 12820" d="M2250.756,415.367a.618.618,0,1,0-.618.617A.619.619,0,0,0,2250.756,415.367Z" transform="translate(-2178.476 -356.111)" fill="#fff"/>
              <path id="路径_12821" data-name="路径 12821" d="M2259.335,415.367a.618.618,0,1,0-.618.617A.619.619,0,0,0,2259.335,415.367Z" transform="translate(-2180.547 -356.111)" fill="#fff"/>
              <path id="路径_12822" data-name="路径 12822" d="M2233.6,415.367a.618.618,0,1,0-.618.617A.618.618,0,0,0,2233.6,415.367Z" transform="translate(-2174.334 -356.111)" fill="#fff"/>
              <path id="路径_12823" data-name="路径 12823" d="M2207.861,415.367a.618.618,0,1,0-.617.617A.618.618,0,0,0,2207.861,415.367Z" transform="translate(-2168.122 -356.111)" fill="#fff"/>
              <path id="路径_12824" data-name="路径 12824" d="M2164.966,415.367a.617.617,0,1,0-.617.617A.618.618,0,0,0,2164.966,415.367Z" transform="translate(-2157.768 -356.111)" fill="#fff"/>
              <path id="路径_12825" data-name="路径 12825" d="M2216.44,415.367a.618.618,0,1,0-.618.617A.618.618,0,0,0,2216.44,415.367Z" transform="translate(-2170.193 -356.111)" fill="#fff"/>
              <path id="路径_12826" data-name="路径 12826" d="M2225.019,415.367a.618.618,0,1,0-.618.617A.618.618,0,0,0,2225.019,415.367Z" transform="translate(-2172.263 -356.111)" fill="#fff"/>
              <path id="路径_12827" data-name="路径 12827" d="M2319.387,415.367a.617.617,0,1,0-.617.617A.618.618,0,0,0,2319.387,415.367Z" transform="translate(-2195.042 -356.111)" fill="#fff"/>
              <path id="路径_12828" data-name="路径 12828" d="M2182.124,415.367a.618.618,0,1,0-.618.617A.618.618,0,0,0,2182.124,415.367Z" transform="translate(-2161.909 -356.111)" fill="#fff"/>
              <path id="路径_12829" data-name="路径 12829" d="M2199.282,415.367a.618.618,0,1,0-.618.617A.619.619,0,0,0,2199.282,415.367Z" transform="translate(-2166.051 -356.111)" fill="#fff"/>
              <path id="路径_12830" data-name="路径 12830" d="M2173.545,415.367a.617.617,0,1,0-.617.617A.618.618,0,0,0,2173.545,415.367Z" transform="translate(-2159.838 -356.111)" fill="#fff"/>
              <path id="路径_12831" data-name="路径 12831" d="M2310.808,415.367a.617.617,0,1,0-.617.617A.618.618,0,0,0,2310.808,415.367Z" transform="translate(-2192.972 -356.111)" fill="#fff"/>
              <path id="路径_12832" data-name="路径 12832" d="M2293.649,415.367a.617.617,0,1,0-.617.617A.617.617,0,0,0,2293.649,415.367Z" transform="translate(-2188.83 -356.111)" fill="#fff"/>
              <path id="路径_12833" data-name="路径 12833" d="M2285.071,415.367a.618.618,0,1,0-.618.617A.618.618,0,0,0,2285.071,415.367Z" transform="translate(-2186.759 -356.111)" fill="#fff"/>
              <path id="路径_12834" data-name="路径 12834" d="M2276.492,415.367a.617.617,0,1,0-.617.617A.618.618,0,0,0,2276.492,415.367Z" transform="translate(-2184.688 -356.111)" fill="#fff"/>
              <path id="路径_12835" data-name="路径 12835" d="M2267.913,415.367a.617.617,0,1,0-.617.617A.618.618,0,0,0,2267.913,415.367Z" transform="translate(-2182.618 -356.111)" fill="#fff"/>
              <path id="路径_12836" data-name="路径 12836" d="M2302.229,415.367a.617.617,0,1,0-.617.617A.618.618,0,0,0,2302.229,415.367Z" transform="translate(-2190.901 -356.111)" fill="#fff"/>
              <path id="路径_12837" data-name="路径 12837" d="M2156.4,415.806a.614.614,0,0,0-.372-1.048c-.032.407-.059.817-.084,1.227l.02,0A.621.621,0,0,0,2156.4,415.806Z" transform="translate(-2155.886 -356.113)" fill="#fff"/>
              <path id="路径_12838" data-name="路径 12838" d="M2250.756,426.409a.618.618,0,1,0-.618.618A.618.618,0,0,0,2250.756,426.409Z" transform="translate(-2178.476 -358.777)" fill="#fff"/>
              <path id="路径_12839" data-name="路径 12839" d="M2259.335,426.409a.618.618,0,1,0-.618.618A.618.618,0,0,0,2259.335,426.409Z" transform="translate(-2180.547 -358.777)" fill="#fff"/>
              <path id="路径_12840" data-name="路径 12840" d="M2276.492,426.409a.617.617,0,1,0-.617.618A.617.617,0,0,0,2276.492,426.409Z" transform="translate(-2184.688 -358.777)" fill="#fff"/>
              <path id="路径_12841" data-name="路径 12841" d="M2285.071,426.409a.618.618,0,1,0-.618.618A.617.617,0,0,0,2285.071,426.409Z" transform="translate(-2186.759 -358.777)" fill="#fff"/>
              <path id="路径_12842" data-name="路径 12842" d="M2293.649,426.409a.617.617,0,1,0-.617.618A.617.617,0,0,0,2293.649,426.409Z" transform="translate(-2188.83 -358.777)" fill="#fff"/>
              <path id="路径_12843" data-name="路径 12843" d="M2233.6,426.409a.618.618,0,1,0-.618.618A.618.618,0,0,0,2233.6,426.409Z" transform="translate(-2174.334 -358.777)" fill="#fff"/>
              <path id="路径_12844" data-name="路径 12844" d="M2242.177,426.409a.618.618,0,1,0-.619.618A.618.618,0,0,0,2242.177,426.409Z" transform="translate(-2176.405 -358.777)" fill="#fff"/>
              <path id="路径_12845" data-name="路径 12845" d="M2225.019,426.409a.618.618,0,1,0-.618.618A.618.618,0,0,0,2225.019,426.409Z" transform="translate(-2172.263 -358.777)" fill="#fff"/>
              <path id="路径_12846" data-name="路径 12846" d="M2216.44,426.409a.618.618,0,1,0-.618.618A.618.618,0,0,0,2216.44,426.409Z" transform="translate(-2170.193 -358.777)" fill="#fff"/>
              <path id="路径_12847" data-name="路径 12847" d="M2302.229,426.409a.617.617,0,1,0-.617.618A.617.617,0,0,0,2302.229,426.409Z" transform="translate(-2190.901 -358.777)" fill="#fff"/>
              <path id="路径_12848" data-name="路径 12848" d="M2267.913,426.409a.617.617,0,1,0-.617.618A.617.617,0,0,0,2267.913,426.409Z" transform="translate(-2182.618 -358.777)" fill="#fff"/>
              <path id="路径_12849" data-name="路径 12849" d="M2182.124,426.409a.618.618,0,1,0-.618.618A.617.617,0,0,0,2182.124,426.409Z" transform="translate(-2161.909 -358.777)" fill="#fff"/>
              <path id="路径_12850" data-name="路径 12850" d="M2199.282,426.409a.618.618,0,1,0-.618.618A.618.618,0,0,0,2199.282,426.409Z" transform="translate(-2166.051 -358.777)" fill="#fff"/>
              <path id="路径_12851" data-name="路径 12851" d="M2190.7,426.409a.618.618,0,1,0-.618.618A.618.618,0,0,0,2190.7,426.409Z" transform="translate(-2163.98 -358.777)" fill="#fff"/>
              <path id="路径_12852" data-name="路径 12852" d="M2173.545,426.409a.617.617,0,1,0-.617.618A.617.617,0,0,0,2173.545,426.409Z" transform="translate(-2159.838 -358.777)" fill="#fff"/>
              <path id="路径_12853" data-name="路径 12853" d="M2310.808,426.409a.617.617,0,1,0-.617.618A.617.617,0,0,0,2310.808,426.409Z" transform="translate(-2192.972 -358.777)" fill="#fff"/>
              <path id="路径_12854" data-name="路径 12854" d="M2164.966,426.409a.617.617,0,1,0-.617.618A.617.617,0,0,0,2164.966,426.409Z" transform="translate(-2157.768 -358.777)" fill="#fff"/>
              <path id="路径_12855" data-name="路径 12855" d="M2319.387,426.409a.617.617,0,1,0-.617.618A.617.617,0,0,0,2319.387,426.409Z" transform="translate(-2195.042 -358.777)" fill="#fff"/>
              <path id="路径_12856" data-name="路径 12856" d="M2207.861,426.409a.618.618,0,1,0-.617.618A.618.618,0,0,0,2207.861,426.409Z" transform="translate(-2168.122 -358.777)" fill="#fff"/>
              <path id="路径_12857" data-name="路径 12857" d="M2156.379,426.847a.618.618,0,0,0-.437-1.055.583.583,0,0,0-.073.007c.019.411.045.82.071,1.228h0A.624.624,0,0,0,2156.379,426.847Z" transform="translate(-2155.87 -358.777)" fill="#fff"/>
              <path id="路径_12858" data-name="路径 12858" d="M2225.019,437.452a.618.618,0,1,0-.618.617A.618.618,0,0,0,2225.019,437.452Z" transform="translate(-2172.263 -361.442)" fill="#fff"/>
              <path id="路径_12859" data-name="路径 12859" d="M2216.44,437.452a.618.618,0,1,0-.618.617A.618.618,0,0,0,2216.44,437.452Z" transform="translate(-2170.193 -361.442)" fill="#fff"/>
              <path id="路径_12860" data-name="路径 12860" d="M2259.335,437.452a.618.618,0,1,0-.618.617A.618.618,0,0,0,2259.335,437.452Z" transform="translate(-2180.547 -361.442)" fill="#fff"/>
              <path id="路径_12861" data-name="路径 12861" d="M2233.6,437.452a.618.618,0,1,0-.618.617A.618.618,0,0,0,2233.6,437.452Z" transform="translate(-2174.334 -361.442)" fill="#fff"/>
              <path id="路径_12862" data-name="路径 12862" d="M2250.756,437.452a.618.618,0,1,0-.618.617A.619.619,0,0,0,2250.756,437.452Z" transform="translate(-2178.476 -361.442)" fill="#fff"/>
              <path id="路径_12863" data-name="路径 12863" d="M2207.861,437.452a.618.618,0,1,0-.617.617A.618.618,0,0,0,2207.861,437.452Z" transform="translate(-2168.122 -361.442)" fill="#fff"/>
              <path id="路径_12864" data-name="路径 12864" d="M2164.966,437.452a.617.617,0,1,0-.617.617A.618.618,0,0,0,2164.966,437.452Z" transform="translate(-2157.768 -361.442)" fill="#fff"/>
              <path id="路径_12865" data-name="路径 12865" d="M2173.545,437.452a.617.617,0,1,0-.617.617A.618.618,0,0,0,2173.545,437.452Z" transform="translate(-2159.838 -361.442)" fill="#fff"/>
              <path id="路径_12866" data-name="路径 12866" d="M2199.282,437.452a.618.618,0,1,0-.618.617A.619.619,0,0,0,2199.282,437.452Z" transform="translate(-2166.051 -361.442)" fill="#fff"/>
              <path id="路径_12867" data-name="路径 12867" d="M2267.913,437.452a.617.617,0,1,0-.617.617A.618.618,0,0,0,2267.913,437.452Z" transform="translate(-2182.618 -361.442)" fill="#fff"/>
              <path id="路径_12868" data-name="路径 12868" d="M2190.7,437.452a.618.618,0,1,0-.618.617A.618.618,0,0,0,2190.7,437.452Z" transform="translate(-2163.98 -361.442)" fill="#fff"/>
              <path id="路径_12869" data-name="路径 12869" d="M2182.124,437.452a.618.618,0,1,0-.618.617A.618.618,0,0,0,2182.124,437.452Z" transform="translate(-2161.909 -361.442)" fill="#fff"/>
              <path id="路径_12870" data-name="路径 12870" d="M2242.177,437.452a.618.618,0,1,0-.619.617A.619.619,0,0,0,2242.177,437.452Z" transform="translate(-2176.405 -361.442)" fill="#fff"/>
              <path id="路径_12871" data-name="路径 12871" d="M2302.229,437.452a.617.617,0,1,0-.617.617A.618.618,0,0,0,2302.229,437.452Z" transform="translate(-2190.901 -361.442)" fill="#fff"/>
              <path id="路径_12872" data-name="路径 12872" d="M2319.387,437.452a.617.617,0,1,0-.617.617A.618.618,0,0,0,2319.387,437.452Z" transform="translate(-2195.042 -361.442)" fill="#fff"/>
              <path id="路径_12873" data-name="路径 12873" d="M2276.492,437.452a.617.617,0,1,0-.617.617A.618.618,0,0,0,2276.492,437.452Z" transform="translate(-2184.688 -361.442)" fill="#fff"/>
              <path id="路径_12874" data-name="路径 12874" d="M2310.808,437.452a.617.617,0,1,0-.617.617A.617.617,0,0,0,2310.808,437.452Z" transform="translate(-2192.972 -361.442)" fill="#fff"/>
              <path id="路径_12875" data-name="路径 12875" d="M2293.649,437.452a.617.617,0,1,0-.617.617A.617.617,0,0,0,2293.649,437.452Z" transform="translate(-2188.83 -361.442)" fill="#fff"/>
              <path id="路径_12876" data-name="路径 12876" d="M2285.071,437.452a.618.618,0,1,0-.618.617A.618.618,0,0,0,2285.071,437.452Z" transform="translate(-2186.759 -361.442)" fill="#fff"/>
              <path id="路径_12877" data-name="路径 12877" d="M2207.861,448.494a.618.618,0,1,0-.617.617A.618.618,0,0,0,2207.861,448.494Z" transform="translate(-2168.122 -364.108)" fill="#fff"/>
              <path id="路径_12878" data-name="路径 12878" d="M2199.282,448.494a.618.618,0,1,0-.618.617A.619.619,0,0,0,2199.282,448.494Z" transform="translate(-2166.051 -364.108)" fill="#fff"/>
              <path id="路径_12879" data-name="路径 12879" d="M2216.44,448.494a.618.618,0,1,0-.618.617A.618.618,0,0,0,2216.44,448.494Z" transform="translate(-2170.193 -364.108)" fill="#fff"/>
              <path id="路径_12880" data-name="路径 12880" d="M2319.387,448.494a.617.617,0,1,0-.617.617A.618.618,0,0,0,2319.387,448.494Z" transform="translate(-2195.042 -364.108)" fill="#fff"/>
              <path id="路径_12881" data-name="路径 12881" d="M2190.7,448.494a.618.618,0,1,0-.618.617A.618.618,0,0,0,2190.7,448.494Z" transform="translate(-2163.98 -364.108)" fill="#fff"/>
              <path id="路径_12882" data-name="路径 12882" d="M2164.966,448.494a.617.617,0,1,0-.617.617A.618.618,0,0,0,2164.966,448.494Z" transform="translate(-2157.768 -364.108)" fill="#fff"/>
              <path id="路径_12883" data-name="路径 12883" d="M2182.124,448.494a.618.618,0,1,0-.618.617A.618.618,0,0,0,2182.124,448.494Z" transform="translate(-2161.909 -364.108)" fill="#fff"/>
              <path id="路径_12884" data-name="路径 12884" d="M2173.545,448.494a.617.617,0,1,0-.617.617A.618.618,0,0,0,2173.545,448.494Z" transform="translate(-2159.838 -364.108)" fill="#fff"/>
              <path id="路径_12885" data-name="路径 12885" d="M2293.649,448.494a.617.617,0,1,0-.617.617A.617.617,0,0,0,2293.649,448.494Z" transform="translate(-2188.83 -364.108)" fill="#fff"/>
              <path id="路径_12886" data-name="路径 12886" d="M2302.229,448.494a.617.617,0,1,0-.617.617A.618.618,0,0,0,2302.229,448.494Z" transform="translate(-2190.901 -364.108)" fill="#fff"/>
              <path id="路径_12887" data-name="路径 12887" d="M2310.808,448.494a.617.617,0,1,0-.617.617A.617.617,0,0,0,2310.808,448.494Z" transform="translate(-2192.972 -364.108)" fill="#fff"/>
              <path id="路径_12888" data-name="路径 12888" d="M2267.913,448.494a.617.617,0,1,0-.617.617A.618.618,0,0,0,2267.913,448.494Z" transform="translate(-2182.618 -364.108)" fill="#fff"/>
              <path id="路径_12889" data-name="路径 12889" d="M2225.019,448.494a.618.618,0,1,0-.618.617A.618.618,0,0,0,2225.019,448.494Z" transform="translate(-2172.263 -364.108)" fill="#fff"/>
              <path id="路径_12890" data-name="路径 12890" d="M2276.492,448.494a.617.617,0,1,0-.617.617A.618.618,0,0,0,2276.492,448.494Z" transform="translate(-2184.688 -364.108)" fill="#fff"/>
              <path id="路径_12891" data-name="路径 12891" d="M2285.071,448.494a.618.618,0,1,0-.618.617A.618.618,0,0,0,2285.071,448.494Z" transform="translate(-2186.759 -364.108)" fill="#fff"/>
              <path id="路径_12892" data-name="路径 12892" d="M2233.6,448.494a.618.618,0,1,0-.618.617A.618.618,0,0,0,2233.6,448.494Z" transform="translate(-2174.334 -364.108)" fill="#fff"/>
              <path id="路径_12893" data-name="路径 12893" d="M2242.177,448.494a.618.618,0,1,0-.619.617A.619.619,0,0,0,2242.177,448.494Z" transform="translate(-2176.405 -364.108)" fill="#fff"/>
              <path id="路径_12894" data-name="路径 12894" d="M2250.756,448.494a.618.618,0,1,0-.618.617A.619.619,0,0,0,2250.756,448.494Z" transform="translate(-2178.476 -364.108)" fill="#fff"/>
              <path id="路径_12895" data-name="路径 12895" d="M2259.335,448.494a.618.618,0,1,0-.618.617A.619.619,0,0,0,2259.335,448.494Z" transform="translate(-2180.547 -364.108)" fill="#fff"/>
              <path id="路径_12896" data-name="路径 12896" d="M2182.124,459.536a.618.618,0,1,0-.618.618A.617.617,0,0,0,2182.124,459.536Z" transform="translate(-2161.909 -366.773)" fill="#fff"/>
              <path id="路径_12897" data-name="路径 12897" d="M2250.756,459.536a.618.618,0,1,0-.618.618A.618.618,0,0,0,2250.756,459.536Z" transform="translate(-2178.476 -366.773)" fill="#fff"/>
              <path id="路径_12898" data-name="路径 12898" d="M2267.913,459.536a.617.617,0,1,0-.617.618A.617.617,0,0,0,2267.913,459.536Z" transform="translate(-2182.618 -366.773)" fill="#fff"/>
              <path id="路径_12899" data-name="路径 12899" d="M2259.335,459.536a.618.618,0,1,0-.618.618A.618.618,0,0,0,2259.335,459.536Z" transform="translate(-2180.547 -366.773)" fill="#fff"/>
              <path id="路径_12900" data-name="路径 12900" d="M2285.071,459.536a.618.618,0,1,0-.618.618A.617.617,0,0,0,2285.071,459.536Z" transform="translate(-2186.759 -366.773)" fill="#fff"/>
              <path id="路径_12901" data-name="路径 12901" d="M2276.492,459.536a.617.617,0,1,0-.617.618A.617.617,0,0,0,2276.492,459.536Z" transform="translate(-2184.688 -366.773)" fill="#fff"/>
              <path id="路径_12902" data-name="路径 12902" d="M2293.649,459.536a.617.617,0,1,0-.617.618A.617.617,0,0,0,2293.649,459.536Z" transform="translate(-2188.83 -366.773)" fill="#fff"/>
              <path id="路径_12903" data-name="路径 12903" d="M2310.808,459.536a.617.617,0,1,0-.617.618A.617.617,0,0,0,2310.808,459.536Z" transform="translate(-2192.972 -366.773)" fill="#fff"/>
              <path id="路径_12904" data-name="路径 12904" d="M2318.152,459.536a.616.616,0,0,0,.184.439c.176-.348.351-.7.521-1.048a.677.677,0,0,0-.087-.008A.617.617,0,0,0,2318.152,459.536Z" transform="translate(-2195.042 -366.773)" fill="#fff"/>
              <path id="路径_12905" data-name="路径 12905" d="M2302.229,459.536a.617.617,0,1,0-.617.618A.617.617,0,0,0,2302.229,459.536Z" transform="translate(-2190.901 -366.773)" fill="#fff"/>
              <path id="路径_12906" data-name="路径 12906" d="M2190.7,459.536a.618.618,0,1,0-.618.618A.618.618,0,0,0,2190.7,459.536Z" transform="translate(-2163.98 -366.773)" fill="#fff"/>
              <path id="路径_12907" data-name="路径 12907" d="M2165.093,459.536a.614.614,0,0,0-.837-.576c.177.369.361.734.545,1.1A.617.617,0,0,0,2165.093,459.536Z" transform="translate(-2157.895 -366.773)" fill="#fff"/>
              <path id="路径_12908" data-name="路径 12908" d="M2207.861,459.536a.618.618,0,1,0-.617.618A.618.618,0,0,0,2207.861,459.536Z" transform="translate(-2168.122 -366.773)" fill="#fff"/>
              <path id="路径_12909" data-name="路径 12909" d="M2199.282,459.536a.618.618,0,1,0-.618.618A.618.618,0,0,0,2199.282,459.536Z" transform="translate(-2166.051 -366.773)" fill="#fff"/>
              <path id="路径_12910" data-name="路径 12910" d="M2173.545,459.536a.617.617,0,1,0-.617.618A.617.617,0,0,0,2173.545,459.536Z" transform="translate(-2159.838 -366.773)" fill="#fff"/>
              <path id="路径_12911" data-name="路径 12911" d="M2242.177,459.536a.618.618,0,1,0-.619.618A.618.618,0,0,0,2242.177,459.536Z" transform="translate(-2176.405 -366.773)" fill="#fff"/>
              <path id="路径_12912" data-name="路径 12912" d="M2216.44,459.536a.618.618,0,1,0-.618.618A.618.618,0,0,0,2216.44,459.536Z" transform="translate(-2170.193 -366.773)" fill="#fff"/>
              <path id="路径_12913" data-name="路径 12913" d="M2233.6,459.536a.618.618,0,1,0-.618.618A.618.618,0,0,0,2233.6,459.536Z" transform="translate(-2174.334 -366.773)" fill="#fff"/>
              <path id="路径_12914" data-name="路径 12914" d="M2225.019,459.536a.618.618,0,1,0-.618.618A.618.618,0,0,0,2225.019,459.536Z" transform="translate(-2172.263 -366.773)" fill="#fff"/>
            </g>
            <g id="矩形_3397" data-name="矩形 3397" transform="translate(-0.467 -0.279)" fill="none" stroke="#707070" stroke-width="1" opacity="0">
              <rect width="151" height="129" stroke="none"/>
              <rect x="0.5" y="0.5" width="150" height="128" fill="none"/>
            </g>
          </g>
          <g id="组_3969" data-name="组 3969" transform="translate(4454.213 -10099.741)">
            <path id="路径_12915" data-name="路径 12915" d="M2127.357,509.865l-5.809-5.808,5.809-5.809-1.84-1.84-5.809,5.809-5.808-5.808-1.84,1.84,5.809,5.808-5.809,5.809,1.84,1.84,5.809-5.808,5.808,5.808Z" transform="translate(-2052.302 -496.409)" fill="#fff"/>
            <g id="组_3968" data-name="组 3968" transform="translate(0 9.684) rotate(-90)">
              <path id="路径_12916" data-name="路径 12916" d="M2.756,53.349l-1.7-1.7a1.679,1.679,0,0,1,.157-2.513L2.546,48.1a2.242,2.242,0,0,0,.21-3.356l-1.7-1.7a1.679,1.679,0,0,1,.157-2.513l1.335-1.037a2.242,2.242,0,0,0,.21-3.356l-1.7-1.7a1.679,1.679,0,0,1,.157-2.513l1.335-1.038a2.243,2.243,0,0,0,.21-3.356l-1.7-1.7a1.679,1.679,0,0,1,.157-2.513l1.335-1.037a2.243,2.243,0,0,0,.209-3.356l-1.7-1.7A1.679,1.679,0,0,1,1.212,14.7l1.335-1.037a2.243,2.243,0,0,0,.209-3.356l-1.7-1.7a1.679,1.679,0,0,1,.157-2.513L2.547,5.057A2.243,2.243,0,0,0,2.756,1.7L1.055,0l-.4.4,1.7,1.7A1.679,1.679,0,0,1,2.2,4.613L.866,5.65a2.242,2.242,0,0,0-.21,3.356l1.7,1.7A1.679,1.679,0,0,1,2.2,13.221L.866,14.258a2.242,2.242,0,0,0-.21,3.356l1.7,1.7A1.679,1.679,0,0,1,2.2,21.829L.866,22.866a2.242,2.242,0,0,0-.21,3.356l1.7,1.7A1.679,1.679,0,0,1,2.2,30.437L.866,31.474a2.242,2.242,0,0,0-.21,3.356l1.7,1.7A1.68,1.68,0,0,1,2.2,39.045L.867,40.082a2.242,2.242,0,0,0-.21,3.356l1.7,1.7A1.68,1.68,0,0,1,2.2,47.653L.867,48.69a2.242,2.242,0,0,0-.21,3.356l1.7,1.7.4-.4Z" transform="translate(0)" fill="#fff"/>
            </g>
          </g>
          <ellipse id="椭圆_1103" data-name="椭圆 1103" cx="10.5" cy="10" rx="10.5" ry="10" transform="translate(4186 -10231)" fill="#fff" opacity="0.2"/>
          <ellipse id="椭圆_1104" data-name="椭圆 1104" cx="5" cy="5.5" rx="5" ry="5.5" transform="translate(4299 -10549)" fill="#fff" opacity="0.2"/>
        </g>
      </g>
    </g>
  </g>
</svg>
