<svg xmlns="http://www.w3.org/2000/svg" xmlns:xlink="http://www.w3.org/1999/xlink" width="414" height="760" viewBox="0 0 414 760">
  <defs>
    <clipPath id="clip-path">
      <rect id="矩形_3356" data-name="矩形 3356" width="414" height="760" transform="translate(-627 -9199)" fill="#4716a5"/>
    </clipPath>
  </defs>
  <g id="蒙版组_102" data-name="蒙版组 102" transform="translate(627 9199)" clip-path="url(#clip-path)">
    <g id="组_3857" data-name="组 3857">
      <rect id="矩形_3355" data-name="矩形 3355" width="414" height="760" transform="translate(-627 -9199)" fill="#4716a5"/>
      <path id="路径_12434" data-name="路径 12434" d="M310.273,70.475c-42.253,42.568-51.4,96.96-114.3,114.933C189.979,187.142,0,221.827,0,368.292A178.171,178.171,0,0,0,178.154,546.447c118.4,0,185.091-90.5,202.434-111.307,1.577-1.892,3.153-3.784,4.73-5.833,3.153-3.941,5.991-7.883,8.987-11.982,4.257-6.149,8.514-12.3,12.455-18.761,4.887-7.725,9.775-15.451,14.662-23.018.946-1.577,1.892-3,2.838-4.572,3.626-5.518,7.252-11.036,11.036-16.554,1.419-2.05,2.838-4.1,4.414-6.149,3-3.941,5.991-7.883,9.144-11.824h0a44.9,44.9,0,0,1,3.626-4.1c.315-.473.788-.788,1.1-1.261.788-.946,1.734-1.892,2.523-2.838a10.2,10.2,0,0,0,1.261-1.419l2.68-2.68c.473-.315.788-.788,1.261-1.1,1.1-1.1,2.365-2.207,3.626-3.311.158-.158.315-.158.315-.315,1.419-1.261,2.68-2.365,4.1-3.468a3.3,3.3,0,0,1,.946-.631c1.1-.946,2.207-1.734,3.311-2.68.315-.315.788-.631,1.1-.946l3.311-2.365a6.681,6.681,0,0,1,1.1-.788c1.419-.946,2.838-1.892,4.257-2.68l.158-.158,4.73-2.838h0c1.577-.946,3-1.734,4.572-2.523.315-.158.473-.315.788-.473,1.419-.631,2.68-1.419,4.1-2.05.315-.158.473-.158.788-.315a129,129,0,0,1,15.293-6.149c.158,0,.158,0,.315-.158,1.577-.473,3.311-1.1,4.887-1.577.158,0,.315-.158.473-.158l5.2-1.419a155.063,155.063,0,0,1,56.757-3c52.658,6.937,143,29.167,173.109-22.545C816.673,157.66,512.076-132.748,310.273,70.475Z" transform="translate(-801.526 -9052.666)" fill="#6c35d5"/>
    </g>
  </g>
</svg>
