<svg xmlns="http://www.w3.org/2000/svg" xmlns:xlink="http://www.w3.org/1999/xlink" width="414" height="760" viewBox="0 0 414 760">
  <defs>
    <linearGradient id="linear-gradient" x1="0.406" y1="0.949" x2="0.652" y2="-0.224" gradientUnits="objectBoundingBox">
      <stop offset="0" stop-color="#0c042e"/>
      <stop offset="0.33" stop-color="#211b39"/>
      <stop offset="1" stop-color="#575757"/>
    </linearGradient>
    <clipPath id="clip-path">
      <rect id="矩形_1874" data-name="矩形 1874" width="414" height="760" transform="translate(0 0)" fill="url(#linear-gradient)"/>
    </clipPath>
  </defs>
  <g id="组_3858" data-name="组 3858" transform="translate(0 -2)">
    <g id="组_1321" data-name="组 1321" transform="translate(0 2)">
      <rect id="矩形_1873" data-name="矩形 1873" width="414" height="760" transform="translate(0 0)" fill="#1f1b2f"/>
      <g id="组_1320" data-name="组 1320" transform="translate(0 0)" clip-path="url(#clip-path)">
        <path id="路径_6070" data-name="路径 6070" d="M15.185,79.26C41.151,41.492,79.134,34.835,125.237,36.208c39.448,1.175,82.206,10.378,118.438-2.3C279.8,21.268,304.609-1.815,343.739-.115c52.462,2.279,75.5,38.158,72.781,73.147-3.774,48.513-52.6,72.793-101.39,69.724-40.37-2.54-83.125-5.991-118.872,16.178-32.925,20.418-54.715,65.419-100.8,66.413C43.2,226.474-32.843,149.11,15.185,79.26Z" transform="matrix(0.839, 0.545, -0.545, 0.839, 29.411, -104.691)" fill="#27223c" opacity="0.5" style="mix-blend-mode: color-dodge;isolation: isolate"/>
        <path id="路径_6281" data-name="路径 6281" d="M15.183,79.318c25.944-37.791,63.9-44.449,109.97-43.071,39.42,1.18,82.149,10.395,118.354-2.288C279.6,21.315,304.394-1.782,343.5-.076c52.425,2.287,75.454,38.194,72.738,73.207-3.766,48.547-52.559,72.839-101.31,69.762-40.342-2.546-83.066-6-118.786,16.177-32.9,20.429-54.669,65.459-100.716,66.449C43.2,226.639-32.8,149.212,15.183,79.318Z" transform="matrix(-0.407, -0.914, 0.914, -0.407, 188.68, 676.715)" fill="#221d36" opacity="0.5" style="mix-blend-mode: color-dodge;isolation: isolate"/>
        <path id="路径_6072" data-name="路径 6072" d="M264.086,40.382c40.786-30.083-5.653-59.756-58.353-24.512-35.96,24.048-55.05,59.666-85.5,85.887-28.048,24.151-62.648,13.758-98.182,23.505-75.906,20.823,62.706,95,127,69.711,45.038-17.714,38.462-65.5,49.5-93.582C210.323,71.424,236.671,60.6,264.086,40.382Z" transform="matrix(0.883, 0.469, -0.469, 0.883, -40.132, 543.884)" fill="#2e2fff"/>
        <path id="路径_6073" data-name="路径 6073" d="M218.015,83.826c3.5-16.343,18.463-24.084,20.572-41.312,4.593-37.507-35.113-57.661-53.4-29.011-9.3,14.573-12.82,32.752-23.937,46.067-11.282,13.512-28.313,15.417-42.268,25.16-25.646,17.9-33.07,50.987-64.162,64.477-71.709,31.112-68.792,71.237-16.3,73.195,43.919,1.638,55.825-53.934,112.215-53.15C242.452,170.529,210.4,119.375,218.015,83.826Z" transform="translate(317.716 281.632) rotate(-3)" fill="#f15a24"/>
        <path id="路径_6074" data-name="路径 6074" d="M217.954,83.784c3.5-16.347,18.466-24.094,20.579-41.325,4.6-37.515-35.092-57.662-53.385-29-9.3,14.578-12.826,32.761-23.944,46.082-11.283,13.517-28.312,15.428-42.267,25.176-25.646,17.914-33.077,51-64.168,64.506-71.7,31.136-68.8,71.268-16.321,73.212,43.91,1.627,55.829-53.959,112.209-53.189C242.364,170.5,210.331,119.34,217.954,83.784Z" transform="translate(285.722 -104.677) rotate(24)" fill="#6c35d5"/>
      </g>
    </g>
    <g id="组_1334" data-name="组 1334" transform="translate(367.951 91.452)">
      <path id="路径_6279" data-name="路径 6279" d="M2124.253,507.135l-4.63-4.63,4.63-4.63-1.467-1.467-4.629,4.63-4.63-4.63-1.467,1.466,4.63,4.63-4.63,4.63,1.467,1.467,4.63-4.63,4.629,4.63Z" transform="translate(-2112.061 -496.409)" fill="#fff"/>
      <g id="组_1325" data-name="组 1325" transform="translate(3.793 20.623)">
        <path id="路径_6280" data-name="路径 6280" d="M1016.167,409.915l-2.3-2.3a2.266,2.266,0,0,1,.212-3.391l1.8-1.4a3.025,3.025,0,0,0,.283-4.527l-2.3-2.3a2.266,2.266,0,0,1,.212-3.391l1.8-1.4a3.025,3.025,0,0,0,.283-4.527l-2.3-2.3a2.265,2.265,0,0,1,.212-3.391l1.8-1.4a3.026,3.026,0,0,0,.283-4.528l-2.3-2.3a2.266,2.266,0,0,1,.212-3.391l1.8-1.4a3.025,3.025,0,0,0,.282-4.527l-2.3-2.3a2.266,2.266,0,0,1,.212-3.391l1.8-1.4a3.025,3.025,0,0,0,.282-4.527l-2.3-2.3a2.266,2.266,0,0,1,.212-3.391l1.8-1.4a3.025,3.025,0,0,0,.282-4.528l-2.3-2.3-.537.537,2.3,2.295a2.265,2.265,0,0,1-.212,3.391l-1.8,1.4a3.025,3.025,0,0,0-.283,4.527l2.3,2.3a2.265,2.265,0,0,1-.212,3.391l-1.8,1.4a3.025,3.025,0,0,0-.283,4.527l2.3,2.3a2.265,2.265,0,0,1-.212,3.391l-1.8,1.4a3.025,3.025,0,0,0-.283,4.527l2.3,2.3a2.265,2.265,0,0,1-.212,3.391l-1.8,1.4a3.025,3.025,0,0,0-.283,4.527l2.3,2.3a2.266,2.266,0,0,1-.212,3.391l-1.8,1.4a3.025,3.025,0,0,0-.283,4.527l2.3,2.3a2.266,2.266,0,0,1-.212,3.391l-1.8,1.4a3.025,3.025,0,0,0-.283,4.527l2.3,2.3.537-.537Z" transform="translate(-1012.449 -337.941)" fill="#fff"/>
      </g>
    </g>
    <g id="组_1335" data-name="组 1335" transform="translate(147.219 92.805) rotate(180)">
      <path id="路径_6075" data-name="路径 6075" d="M50.524.6a.6.6,0,1,1,.6.6A.6.6,0,0,1,50.524.6ZM56.84.6a.6.6,0,1,1,.6.6A.6.6,0,0,1,56.84.6Zm6.316,0a.6.6,0,1,1,.6.6A.6.6,0,0,1,63.155.6ZM25.262,8.729a.6.6,0,1,1,.6.6A.6.6,0,0,1,25.262,8.729Zm6.315,0a.6.6,0,1,1,.6.6A.6.6,0,0,1,31.577,8.729Zm6.316,0a.6.6,0,1,1,.6.6A.6.6,0,0,1,37.893,8.729Zm6.316,0a.6.6,0,1,1,.6.6A.6.6,0,0,1,44.208,8.729Zm6.316,0a.6.6,0,1,1,.6.6A.6.6,0,0,1,50.524,8.729Zm6.316,0a.6.6,0,1,1,.6.6A.6.6,0,0,1,56.84,8.729Zm6.316,0a.6.6,0,1,1,.6.6A.6.6,0,0,1,63.155,8.729Zm6.316,0a.6.6,0,1,1,.6.6A.6.6,0,0,1,69.471,8.729Zm6.316,0a.6.6,0,1,1,.6.6A.6.6,0,0,1,75.786,8.729Zm6.316,0a.6.6,0,1,1,.6.6A.6.6,0,0,1,82.1,8.729Zm6.316,0a.6.6,0,1,1,.6.6A.6.6,0,0,1,88.418,8.729ZM18.947,16.858a.6.6,0,1,1,.6.6A.6.6,0,0,1,18.947,16.858Zm6.316,0a.6.6,0,1,1,.6.6A.6.6,0,0,1,25.262,16.858Zm6.315,0a.6.6,0,1,1,.6.6A.6.6,0,0,1,31.577,16.858Zm6.316,0a.6.6,0,1,1,.6.6A.6.6,0,0,1,37.893,16.858Zm6.316,0a.6.6,0,1,1,.6.6A.6.6,0,0,1,44.208,16.858Zm6.316,0a.6.6,0,1,1,.6.6A.6.6,0,0,1,50.524,16.858Zm6.316,0a.6.6,0,1,1,.6.6A.6.6,0,0,1,56.84,16.858Zm6.316,0a.6.6,0,1,1,.6.6A.6.6,0,0,1,63.155,16.858Zm6.316,0a.6.6,0,1,1,.6.6A.6.6,0,0,1,69.471,16.858Zm6.316,0a.6.6,0,1,1,.6.6A.6.6,0,0,1,75.786,16.858Zm6.316,0a.6.6,0,1,1,.6.6A.6.6,0,0,1,82.1,16.858Zm6.316,0a.6.6,0,1,1,.6.6A.6.6,0,0,1,88.418,16.858Zm6.316,0a.6.6,0,1,1,.6.6A.6.6,0,0,1,94.733,16.858ZM6.316,24.987a.6.6,0,1,1,.6.6A.6.6,0,0,1,6.316,24.987Zm6.316,0a.6.6,0,1,1,.6.6A.6.6,0,0,1,12.631,24.987Zm6.316,0a.6.6,0,1,1,.6.6A.6.6,0,0,1,18.947,24.987Zm6.316,0a.6.6,0,1,1,.6.6A.6.6,0,0,1,25.262,24.987Zm6.315,0a.6.6,0,1,1,.6.6A.6.6,0,0,1,31.577,24.987Zm6.316,0a.6.6,0,1,1,.6.6A.6.6,0,0,1,37.893,24.987Zm6.316,0a.6.6,0,1,1,.6.6A.6.6,0,0,1,44.208,24.987Zm6.316,0a.6.6,0,1,1,.6.6A.6.6,0,0,1,50.524,24.987Zm6.316,0a.6.6,0,1,1,.6.6A.6.6,0,0,1,56.84,24.987Zm6.316,0a.6.6,0,1,1,.6.6A.6.6,0,0,1,63.155,24.987Zm6.316,0a.6.6,0,1,1,.6.6A.6.6,0,0,1,69.471,24.987Zm6.316,0a.6.6,0,1,1,.6.6A.6.6,0,0,1,75.786,24.987Zm6.316,0a.6.6,0,1,1,.6.6A.6.6,0,0,1,82.1,24.987Zm6.316,0a.6.6,0,1,1,.6.6A.6.6,0,0,1,88.418,24.987Zm6.316,0a.6.6,0,1,1,.6.6A.6.6,0,0,1,94.733,24.987Zm6.316,0a.6.6,0,1,1,.6.6A.6.6,0,0,1,101.049,24.987ZM6.316,33.116a.6.6,0,1,1,.6.6A.6.6,0,0,1,6.316,33.116Zm6.316,0a.6.6,0,1,1,.6.6A.6.6,0,0,1,12.631,33.116Zm6.316,0a.6.6,0,1,1,.6.6A.6.6,0,0,1,18.947,33.116Zm6.316,0a.6.6,0,1,1,.6.6A.6.6,0,0,1,25.262,33.116Zm6.315,0a.6.6,0,1,1,.6.6A.6.6,0,0,1,31.577,33.116Zm6.316,0a.6.6,0,1,1,.6.6A.6.6,0,0,1,37.893,33.116Zm6.316,0a.6.6,0,1,1,.6.6A.6.6,0,0,1,44.208,33.116Zm6.316,0a.6.6,0,1,1,.6.6A.6.6,0,0,1,50.524,33.116Zm6.316,0a.6.6,0,1,1,.6.6A.6.6,0,0,1,56.84,33.116Zm6.316,0a.6.6,0,1,1,.6.6A.6.6,0,0,1,63.155,33.116Zm6.316,0a.6.6,0,1,1,.6.6A.6.6,0,0,1,69.471,33.116Zm6.316,0a.6.6,0,1,1,.6.6A.6.6,0,0,1,75.786,33.116Zm6.316,0a.6.6,0,1,1,.6.6A.6.6,0,0,1,82.1,33.116Zm6.316,0a.6.6,0,1,1,.6.6A.6.6,0,0,1,88.418,33.116Zm6.316,0a.6.6,0,1,1,.6.6A.6.6,0,0,1,94.733,33.116Zm6.316,0a.6.6,0,1,1,.6.6A.6.6,0,0,1,101.049,33.116Zm6.316,0a.6.6,0,1,1,.6.6A.6.6,0,0,1,107.364,33.116ZM0,41.245a.6.6,0,1,1,.6.6A.6.6,0,0,1,0,41.245Zm6.316,0a.6.6,0,1,1,.6.6A.6.6,0,0,1,6.316,41.245Zm6.316,0a.6.6,0,1,1,.6.6A.6.6,0,0,1,12.631,41.245Zm6.316,0a.6.6,0,1,1,.6.6A.6.6,0,0,1,18.947,41.245Zm6.316,0a.6.6,0,1,1,.6.6A.6.6,0,0,1,25.262,41.245Zm6.315,0a.6.6,0,1,1,.6.6A.6.6,0,0,1,31.577,41.245Zm6.316,0a.6.6,0,1,1,.6.6A.6.6,0,0,1,37.893,41.245Zm6.316,0a.6.6,0,1,1,.6.6A.6.6,0,0,1,44.208,41.245Zm6.316,0a.6.6,0,1,1,.6.6A.6.6,0,0,1,50.524,41.245Zm6.316,0a.6.6,0,1,1,.6.6A.6.6,0,0,1,56.84,41.245Zm6.316,0a.6.6,0,1,1,.6.6A.6.6,0,0,1,63.155,41.245Zm6.316,0a.6.6,0,1,1,.6.6A.6.6,0,0,1,69.471,41.245Zm6.316,0a.6.6,0,1,1,.6.6A.6.6,0,0,1,75.786,41.245Zm6.316,0a.6.6,0,1,1,.6.6A.6.6,0,0,1,82.1,41.245Zm6.316,0a.6.6,0,1,1,.6.6A.6.6,0,0,1,88.418,41.245Zm6.316,0a.6.6,0,1,1,.6.6A.6.6,0,0,1,94.733,41.245Zm6.316,0a.6.6,0,1,1,.6.6A.6.6,0,0,1,101.049,41.245Zm6.316,0a.6.6,0,1,1,.6.6A.6.6,0,0,1,107.364,41.245Zm6.316,0a.6.6,0,1,1,.6.6A.6.6,0,0,1,113.68,41.245ZM0,49.373a.6.6,0,1,1,.6.6A.6.6,0,0,1,0,49.373Zm6.316,0a.6.6,0,1,1,.6.6A.6.6,0,0,1,6.316,49.373Zm6.316,0a.6.6,0,1,1,.6.6A.6.6,0,0,1,12.631,49.373Zm6.316,0a.6.6,0,1,1,.6.6A.6.6,0,0,1,18.947,49.373Zm6.316,0a.6.6,0,1,1,.6.6A.6.6,0,0,1,25.262,49.373Zm6.315,0a.6.6,0,1,1,.6.6A.6.6,0,0,1,31.577,49.373Zm6.316,0a.6.6,0,1,1,.6.6A.6.6,0,0,1,37.893,49.373Zm6.316,0a.6.6,0,1,1,.6.6A.6.6,0,0,1,44.208,49.373Zm6.316,0a.6.6,0,1,1,.6.6A.6.6,0,0,1,50.524,49.373Zm6.316,0a.6.6,0,1,1,.6.6A.6.6,0,0,1,56.84,49.373Zm6.316,0a.6.6,0,1,1,.6.6A.6.6,0,0,1,63.155,49.373Zm6.316,0a.6.6,0,1,1,.6.6A.6.6,0,0,1,69.471,49.373Zm6.316,0a.6.6,0,1,1,.6.6A.6.6,0,0,1,75.786,49.373Zm6.316,0a.6.6,0,1,1,.6.6A.6.6,0,0,1,82.1,49.373Zm6.316,0a.6.6,0,1,1,.6.6A.6.6,0,0,1,88.418,49.373Zm6.316,0a.6.6,0,1,1,.6.6A.6.6,0,0,1,94.733,49.373Zm6.316,0a.6.6,0,1,1,.6.6A.6.6,0,0,1,101.049,49.373Zm6.316,0a.6.6,0,1,1,.6.6A.6.6,0,0,1,107.364,49.373Zm6.316,0a.6.6,0,1,1,.6.6A.6.6,0,0,1,113.68,49.373ZM0,57.5a.6.6,0,1,1,.6.6A.6.6,0,0,1,0,57.5Zm6.316,0a.6.6,0,1,1,.6.6A.6.6,0,0,1,6.316,57.5Zm6.316,0a.6.6,0,1,1,.6.6A.6.6,0,0,1,12.631,57.5Zm6.316,0a.6.6,0,1,1,.6.6A.6.6,0,0,1,18.947,57.5Zm6.316,0a.6.6,0,1,1,.6.6A.6.6,0,0,1,25.262,57.5Zm6.315,0a.6.6,0,1,1,.6.6A.6.6,0,0,1,31.577,57.5Zm6.316,0a.6.6,0,1,1,.6.6A.6.6,0,0,1,37.893,57.5Zm6.316,0a.6.6,0,1,1,.6.6A.6.6,0,0,1,44.208,57.5Zm6.316,0a.6.6,0,1,1,.6.6A.6.6,0,0,1,50.524,57.5Zm6.316,0a.6.6,0,1,1,.6.6A.6.6,0,0,1,56.84,57.5Zm6.316,0a.6.6,0,1,1,.6.6A.6.6,0,0,1,63.155,57.5Zm6.316,0a.6.6,0,1,1,.6.6A.6.6,0,0,1,69.471,57.5Zm6.316,0a.6.6,0,1,1,.6.6A.6.6,0,0,1,75.786,57.5Zm6.316,0a.6.6,0,1,1,.6.6A.6.6,0,0,1,82.1,57.5Zm6.316,0a.6.6,0,1,1,.6.6A.6.6,0,0,1,88.418,57.5Zm6.316,0a.6.6,0,1,1,.6.6A.6.6,0,0,1,94.733,57.5Zm6.316,0a.6.6,0,1,1,.6.6A.6.6,0,0,1,101.049,57.5Zm6.316,0a.6.6,0,1,1,.6.6A.6.6,0,0,1,107.364,57.5Zm6.316,0a.6.6,0,1,1,.6.6A.6.6,0,0,1,113.68,57.5ZM0,65.632a.6.6,0,1,1,.6.6A.6.6,0,0,1,0,65.632Zm6.316,0a.6.6,0,1,1,.6.6A.6.6,0,0,1,6.316,65.632Zm6.316,0a.6.6,0,1,1,.6.6A.6.6,0,0,1,12.631,65.632Zm6.316,0a.6.6,0,1,1,.6.6A.6.6,0,0,1,18.947,65.632Zm6.316,0a.6.6,0,1,1,.6.6A.6.6,0,0,1,25.262,65.632Zm6.315,0a.6.6,0,1,1,.6.6A.6.6,0,0,1,31.577,65.632Zm6.316,0a.6.6,0,1,1,.6.6A.6.6,0,0,1,37.893,65.632Zm6.316,0a.6.6,0,1,1,.6.6A.6.6,0,0,1,44.208,65.632Zm6.316,0a.6.6,0,1,1,.6.6A.6.6,0,0,1,50.524,65.632Zm6.316,0a.6.6,0,1,1,.6.6A.6.6,0,0,1,56.84,65.632Zm6.316,0a.6.6,0,1,1,.6.6A.6.6,0,0,1,63.155,65.632Zm6.316,0a.6.6,0,1,1,.6.6A.6.6,0,0,1,69.471,65.632Zm6.316,0a.6.6,0,1,1,.6.6A.6.6,0,0,1,75.786,65.632Zm6.316,0a.6.6,0,1,1,.6.6A.6.6,0,0,1,82.1,65.632Zm6.316,0a.6.6,0,1,1,.6.6A.6.6,0,0,1,88.418,65.632Zm6.316,0a.6.6,0,1,1,.6.6A.6.6,0,0,1,94.733,65.632Zm6.316,0a.6.6,0,1,1,.6.6A.6.6,0,0,1,101.049,65.632Zm6.316,0a.6.6,0,1,1,.6.6A.6.6,0,0,1,107.364,65.632Zm6.316,0a.6.6,0,1,1,.6.6A.6.6,0,0,1,113.68,65.632ZM0,73.761a.6.6,0,1,1,.6.6A.6.6,0,0,1,0,73.761Zm6.316,0a.6.6,0,1,1,.6.6A.6.6,0,0,1,6.316,73.761Zm6.316,0a.6.6,0,1,1,.6.6A.6.6,0,0,1,12.631,73.761Zm6.316,0a.6.6,0,1,1,.6.6A.6.6,0,0,1,18.947,73.761Zm6.316,0a.6.6,0,1,1,.6.6A.6.6,0,0,1,25.262,73.761Zm6.315,0a.6.6,0,1,1,.6.6A.6.6,0,0,1,31.577,73.761Zm6.316,0a.6.6,0,1,1,.6.6A.6.6,0,0,1,37.893,73.761Zm6.316,0a.6.6,0,1,1,.6.6A.6.6,0,0,1,44.208,73.761Zm6.316,0a.6.6,0,1,1,.6.6A.6.6,0,0,1,50.524,73.761Zm6.316,0a.6.6,0,1,1,.6.6A.6.6,0,0,1,56.84,73.761Zm6.316,0a.6.6,0,1,1,.6.6A.6.6,0,0,1,63.155,73.761Zm6.316,0a.6.6,0,1,1,.6.6A.6.6,0,0,1,69.471,73.761Zm6.316,0a.6.6,0,1,1,.6.6A.6.6,0,0,1,75.786,73.761Zm6.316,0a.6.6,0,1,1,.6.6A.6.6,0,0,1,82.1,73.761Zm6.316,0a.6.6,0,1,1,.6.6A.6.6,0,0,1,88.418,73.761Zm6.316,0a.6.6,0,1,1,.6.6A.6.6,0,0,1,94.733,73.761Zm6.316,0a.6.6,0,1,1,.6.6A.6.6,0,0,1,101.049,73.761Zm6.316,0a.6.6,0,1,1,.6.6A.6.6,0,0,1,107.364,73.761Zm6.316,0a.6.6,0,1,1,.6.6A.6.6,0,0,1,113.68,73.761ZM0,81.89a.6.6,0,1,1,.6.6A.6.6,0,0,1,0,81.89Zm6.316,0a.6.6,0,1,1,.6.6A.6.6,0,0,1,6.316,81.89Zm6.316,0a.6.6,0,1,1,.6.6A.6.6,0,0,1,12.631,81.89Zm6.316,0a.6.6,0,1,1,.6.6A.6.6,0,0,1,18.947,81.89Zm6.316,0a.6.6,0,1,1,.6.6A.6.6,0,0,1,25.262,81.89Zm6.315,0a.6.6,0,1,1,.6.6A.6.6,0,0,1,31.577,81.89Zm6.316,0a.6.6,0,1,1,.6.6A.6.6,0,0,1,37.893,81.89Zm6.316,0a.6.6,0,1,1,.6.6A.6.6,0,0,1,44.208,81.89Zm6.316,0a.6.6,0,1,1,.6.6A.6.6,0,0,1,50.524,81.89Zm6.316,0a.6.6,0,1,1,.6.6A.6.6,0,0,1,56.84,81.89Zm6.316,0a.6.6,0,1,1,.6.6A.6.6,0,0,1,63.155,81.89Zm6.316,0a.6.6,0,1,1,.6.6A.6.6,0,0,1,69.471,81.89Zm6.316,0a.6.6,0,1,1,.6.6A.6.6,0,0,1,75.786,81.89Zm6.316,0a.6.6,0,1,1,.6.6A.6.6,0,0,1,82.1,81.89Zm6.316,0a.6.6,0,1,1,.6.6A.6.6,0,0,1,88.418,81.89Zm6.316,0a.6.6,0,1,1,.6.6A.6.6,0,0,1,94.733,81.89Zm6.316,0a.6.6,0,1,1,.6.6A.6.6,0,0,1,101.049,81.89Zm6.316,0a.6.6,0,1,1,.6.6A.6.6,0,0,1,107.364,81.89Zm6.316,0a.6.6,0,1,1,.6.6A.6.6,0,0,1,113.68,81.89ZM6.316,90.019a.6.6,0,1,1,.6.6A.6.6,0,0,1,6.316,90.019Zm6.316,0a.6.6,0,1,1,.6.6A.6.6,0,0,1,12.631,90.019Zm6.316,0a.6.6,0,1,1,.6.6A.6.6,0,0,1,18.947,90.019Zm6.316,0a.6.6,0,1,1,.6.6A.6.6,0,0,1,25.262,90.019Zm6.315,0a.6.6,0,1,1,.6.6A.6.6,0,0,1,31.577,90.019Zm6.316,0a.6.6,0,1,1,.6.6A.6.6,0,0,1,37.893,90.019Zm6.316,0a.6.6,0,1,1,.6.6A.6.6,0,0,1,44.208,90.019Zm6.316,0a.6.6,0,1,1,.6.6A.6.6,0,0,1,50.524,90.019Zm6.316,0a.6.6,0,1,1,.6.6A.6.6,0,0,1,56.84,90.019Zm6.316,0a.6.6,0,1,1,.6.6A.6.6,0,0,1,63.155,90.019Zm6.316,0a.6.6,0,1,1,.6.6A.6.6,0,0,1,69.471,90.019Zm6.316,0a.6.6,0,1,1,.6.6A.6.6,0,0,1,75.786,90.019Zm6.316,0a.6.6,0,1,1,.6.6A.6.6,0,0,1,82.1,90.019Zm6.316,0a.6.6,0,1,1,.6.6A.6.6,0,0,1,88.418,90.019Zm6.316,0a.6.6,0,1,1,.6.6A.6.6,0,0,1,94.733,90.019Zm6.316,0a.6.6,0,1,1,.6.6A.6.6,0,0,1,101.049,90.019Zm6.316,0a.6.6,0,1,1,.6.6A.6.6,0,0,1,107.364,90.019Z" transform="translate(5.787 0)" fill="none"/>
      <path id="路径_6076" data-name="路径 6076" d="M1.2.6a.6.6,0,1,0-.6.6A.6.6,0,0,0,1.2.6Z" transform="translate(56.311 0)" fill="#fff"/>
      <path id="路径_6077" data-name="路径 6077" d="M1.2.6a.6.6,0,1,0-.6.6A.6.6,0,0,0,1.2.6Z" transform="translate(62.627 0)" fill="#fff"/>
      <path id="路径_6078" data-name="路径 6078" d="M0,.564A.6.6,0,1,0,1.006.125C.8.083.6.04.4,0A.6.6,0,0,0,0,.564Z" transform="translate(75.258 0.036)" fill="#fff"/>
      <path id="路径_6079" data-name="路径 6079" d="M1.2.6a.6.6,0,1,0-.6.6A.6.6,0,0,0,1.2.6Z" transform="translate(68.942 0)" fill="#fff"/>
      <path id="路径_6080" data-name="路径 6080" d="M0,.581A.6.6,0,1,0,.742,0C.576.033.41.066.245.1A.6.6,0,0,0,0,.581Z" transform="translate(49.995 0.019)" fill="#fff"/>
      <path id="路径_6081" data-name="路径 6081" d="M1.2.6a.6.6,0,1,0-.6.6A.6.6,0,0,0,1.2.6Z" transform="translate(87.889 8.13)" fill="#fff"/>
      <path id="路径_6082" data-name="路径 6082" d="M1.2.6a.6.6,0,1,0-.6.6A.6.6,0,0,0,1.2.6Z" transform="translate(81.573 8.13)" fill="#fff"/>
      <path id="路径_6083" data-name="路径 6083" d="M1.2.6a.6.6,0,1,0-.6.6A.6.6,0,0,0,1.2.6Z" transform="translate(94.205 8.13)" fill="#fff"/>
      <path id="路径_6084" data-name="路径 6084" d="M1.2.6a.6.6,0,1,0-.6.6A.6.6,0,0,0,1.2.6Z" transform="translate(43.68 8.13)" fill="#fff"/>
      <path id="路径_6085" data-name="路径 6085" d="M1.2.6a.6.6,0,1,0-.6.6A.6.6,0,0,0,1.2.6Z" transform="translate(37.364 8.13)" fill="#fff"/>
      <path id="路径_6086" data-name="路径 6086" d="M1.2.6a.6.6,0,1,0-.6.6A.6.6,0,0,0,1.2.6Z" transform="translate(56.311 8.13)" fill="#fff"/>
      <path id="路径_6087" data-name="路径 6087" d="M1.2.6a.6.6,0,1,0-.6.6A.6.6,0,0,0,1.2.6Z" transform="translate(49.995 8.13)" fill="#fff"/>
      <path id="路径_6088" data-name="路径 6088" d="M1.2.6a.6.6,0,1,0-.6.6A.6.6,0,0,0,1.2.6Z" transform="translate(75.258 8.13)" fill="#fff"/>
      <path id="路径_6089" data-name="路径 6089" d="M1.2.6a.6.6,0,1,0-.6.6A.6.6,0,0,0,1.2.6Z" transform="translate(31.049 8.13)" fill="#fff"/>
      <path id="路径_6090" data-name="路径 6090" d="M1.2.6a.6.6,0,1,0-.6.6A.6.6,0,0,0,1.2.6Z" transform="translate(62.627 8.13)" fill="#fff"/>
      <path id="路径_6091" data-name="路径 6091" d="M1.2.6a.6.6,0,1,0-.6.6A.6.6,0,0,0,1.2.6Z" transform="translate(68.942 8.13)" fill="#fff"/>
      <path id="路径_6092" data-name="路径 6092" d="M1.2.6a.6.6,0,1,0-.6.6A.6.6,0,0,0,1.2.6Z" transform="translate(75.258 16.258)" fill="#fff"/>
      <path id="路径_6093" data-name="路径 6093" d="M1.2.6a.6.6,0,1,0-.6.6A.6.6,0,0,0,1.2.6Z" transform="translate(62.627 16.258)" fill="#fff"/>
      <path id="路径_6094" data-name="路径 6094" d="M1.2.6a.6.6,0,1,0-.6.6A.6.6,0,0,0,1.2.6Z" transform="translate(68.942 16.258)" fill="#fff"/>
      <path id="路径_6095" data-name="路径 6095" d="M1.2.6a.6.6,0,1,0-.6.6A.6.6,0,0,0,1.2.6Z" transform="translate(94.205 16.258)" fill="#fff"/>
      <path id="路径_6096" data-name="路径 6096" d="M1.2.6a.6.6,0,1,0-.6.6A.6.6,0,0,0,1.2.6Z" transform="translate(81.573 16.258)" fill="#fff"/>
      <path id="路径_6097" data-name="路径 6097" d="M1.2.6a.6.6,0,1,0-.6.6A.6.6,0,0,0,1.2.6Z" transform="translate(56.311 16.258)" fill="#fff"/>
      <path id="路径_6098" data-name="路径 6098" d="M1.2.6a.6.6,0,1,0-.6.6A.6.6,0,0,0,1.2.6Z" transform="translate(87.889 16.258)" fill="#fff"/>
      <path id="路径_6099" data-name="路径 6099" d="M1.2.6a.6.6,0,1,0-.6.6A.6.6,0,0,0,1.2.6Z" transform="translate(37.364 16.258)" fill="#fff"/>
      <path id="路径_6100" data-name="路径 6100" d="M.6.995A.6.6,0,0,0,1.006.833C.725.552.439.275.152,0A.6.6,0,0,0,.6.995Z" transform="translate(106.836 16.462)" fill="#fff"/>
      <path id="路径_6101" data-name="路径 6101" d="M1.2.6a.6.6,0,1,0-.6.6A.6.6,0,0,0,1.2.6Z" transform="translate(24.734 16.258)" fill="#fff"/>
      <path id="路径_6102" data-name="路径 6102" d="M.474,1.064A.6.6,0,0,0,.847,0Q.42.411,0,.828A.6.6,0,0,0,.474,1.064Z" transform="translate(18.543 16.392)" fill="#fff"/>
      <path id="路径_6103" data-name="路径 6103" d="M1.2.6a.6.6,0,1,0-.6.6A.6.6,0,0,0,1.2.6Z" transform="translate(100.52 16.258)" fill="#fff"/>
      <path id="路径_6104" data-name="路径 6104" d="M1.2.6a.6.6,0,1,0-.6.6A.6.6,0,0,0,1.2.6Z" transform="translate(43.68 16.258)" fill="#fff"/>
      <path id="路径_6105" data-name="路径 6105" d="M1.2.6a.6.6,0,1,0-.6.6A.6.6,0,0,0,1.2.6Z" transform="translate(49.995 16.258)" fill="#fff"/>
      <path id="路径_6106" data-name="路径 6106" d="M1.2.6a.6.6,0,1,0-.6.6A.6.6,0,0,0,1.2.6Z" transform="translate(31.049 16.258)" fill="#fff"/>
      <path id="路径_6107" data-name="路径 6107" d="M1.2.6a.6.6,0,1,0-.6.6A.6.6,0,0,0,1.2.6Z" transform="translate(75.258 24.387)" fill="#fff"/>
      <path id="路径_6108" data-name="路径 6108" d="M1.2.6a.6.6,0,1,0-.6.6A.6.6,0,0,0,1.2.6Z" transform="translate(62.627 24.387)" fill="#fff"/>
      <path id="路径_6109" data-name="路径 6109" d="M1.2.6a.6.6,0,1,0-.6.6A.6.6,0,0,0,1.2.6Z" transform="translate(68.942 24.387)" fill="#fff"/>
      <path id="路径_6110" data-name="路径 6110" d="M1.2.6a.6.6,0,1,0-.6.6A.6.6,0,0,0,1.2.6Z" transform="translate(87.889 24.387)" fill="#fff"/>
      <path id="路径_6111" data-name="路径 6111" d="M1.2.6a.6.6,0,1,0-.6.6A.6.6,0,0,0,1.2.6Z" transform="translate(106.836 24.387)" fill="#fff"/>
      <path id="路径_6112" data-name="路径 6112" d="M1.2.6a.6.6,0,1,0-.6.6A.6.6,0,0,0,1.2.6Z" transform="translate(100.52 24.387)" fill="#fff"/>
      <path id="路径_6113" data-name="路径 6113" d="M1.2.6a.6.6,0,1,0-.6.6A.6.6,0,0,0,1.2.6Z" transform="translate(94.205 24.387)" fill="#fff"/>
      <path id="路径_6114" data-name="路径 6114" d="M1.2.6a.6.6,0,1,0-.6.6A.6.6,0,0,0,1.2.6Z" transform="translate(81.573 24.387)" fill="#fff"/>
      <path id="路径_6115" data-name="路径 6115" d="M1.2.6a.6.6,0,1,0-.6.6A.6.6,0,0,0,1.2.6Z" transform="translate(12.103 24.387)" fill="#fff"/>
      <path id="路径_6116" data-name="路径 6116" d="M1.2.6a.6.6,0,1,0-.6.6A.6.6,0,0,0,1.2.6Z" transform="translate(18.418 24.387)" fill="#fff"/>
      <path id="路径_6117" data-name="路径 6117" d="M1.2.6a.6.6,0,1,0-.6.6A.6.6,0,0,0,1.2.6Z" transform="translate(43.68 24.387)" fill="#fff"/>
      <path id="路径_6118" data-name="路径 6118" d="M1.2.6a.6.6,0,1,0-.6.6A.6.6,0,0,0,1.2.6Z" transform="translate(49.995 24.387)" fill="#fff"/>
      <path id="路径_6119" data-name="路径 6119" d="M1.2.6a.6.6,0,1,0-.6.6A.6.6,0,0,0,1.2.6Z" transform="translate(37.364 24.387)" fill="#fff"/>
      <path id="路径_6120" data-name="路径 6120" d="M1.2.6a.6.6,0,1,0-.6.6A.6.6,0,0,0,1.2.6Z" transform="translate(24.734 24.387)" fill="#fff"/>
      <path id="路径_6121" data-name="路径 6121" d="M1.2.6a.6.6,0,1,0-.6.6A.6.6,0,0,0,1.2.6Z" transform="translate(31.049 24.387)" fill="#fff"/>
      <path id="路径_6122" data-name="路径 6122" d="M1.2.6a.6.6,0,1,0-.6.6A.6.6,0,0,0,1.2.6Z" transform="translate(56.311 24.387)" fill="#fff"/>
      <path id="路径_6123" data-name="路径 6123" d="M0,.6A.6.6,0,1,0,1.2.6.659.659,0,0,0,1.191.523Q1.022.29.852.057A.6.6,0,0,0,0,.6Z" transform="translate(113.151 24.387)" fill="#fff"/>
      <path id="路径_6124" data-name="路径 6124" d="M1.2.6a.6.6,0,1,0-.6.6A.6.6,0,0,0,1.2.6Z" transform="translate(37.364 32.517)" fill="#fff"/>
      <path id="路径_6125" data-name="路径 6125" d="M1.2.6a.6.6,0,1,0-.6.6A.6.6,0,0,0,1.2.6Z" transform="translate(43.68 32.517)" fill="#fff"/>
      <path id="路径_6126" data-name="路径 6126" d="M1.2.6a.6.6,0,1,0-.6.6A.6.6,0,0,0,1.2.6Z" transform="translate(49.995 32.517)" fill="#fff"/>
      <path id="路径_6127" data-name="路径 6127" d="M1.2.6a.6.6,0,1,0-.6.6A.6.6,0,0,0,1.2.6Z" transform="translate(56.311 32.517)" fill="#fff"/>
      <path id="路径_6128" data-name="路径 6128" d="M1.2.6a.6.6,0,1,0-.6.6A.6.6,0,0,0,1.2.6Z" transform="translate(12.103 32.517)" fill="#fff"/>
      <path id="路径_6129" data-name="路径 6129" d="M1.2.6a.6.6,0,1,0-.6.6A.6.6,0,0,0,1.2.6Z" transform="translate(24.734 32.517)" fill="#fff"/>
      <path id="路径_6130" data-name="路径 6130" d="M1.2.6a.6.6,0,1,0-.6.6A.6.6,0,0,0,1.2.6Z" transform="translate(31.049 32.517)" fill="#fff"/>
      <path id="路径_6131" data-name="路径 6131" d="M1.2.6a.6.6,0,1,0-.6.6A.6.6,0,0,0,1.2.6Z" transform="translate(18.418 32.517)" fill="#fff"/>
      <path id="路径_6132" data-name="路径 6132" d="M1.2.6a.6.6,0,1,0-.6.6A.6.6,0,0,0,1.2.6Z" transform="translate(94.205 32.517)" fill="#fff"/>
      <path id="路径_6133" data-name="路径 6133" d="M1.2.6a.6.6,0,1,0-.6.6A.6.6,0,0,0,1.2.6Z" transform="translate(100.52 32.517)" fill="#fff"/>
      <path id="路径_6134" data-name="路径 6134" d="M1.2.6a.6.6,0,1,0-.6.6A.6.6,0,0,0,1.2.6Z" transform="translate(87.889 32.517)" fill="#fff"/>
      <path id="路径_6135" data-name="路径 6135" d="M1.2.6a.6.6,0,1,0-.6.6A.6.6,0,0,0,1.2.6Z" transform="translate(62.627 32.517)" fill="#fff"/>
      <path id="路径_6136" data-name="路径 6136" d="M1.2.6a.6.6,0,1,0-.6.6A.6.6,0,0,0,1.2.6Z" transform="translate(68.942 32.517)" fill="#fff"/>
      <path id="路径_6137" data-name="路径 6137" d="M1.2.6a.6.6,0,1,0-.6.6A.6.6,0,0,0,1.2.6Z" transform="translate(75.258 32.517)" fill="#fff"/>
      <path id="路径_6138" data-name="路径 6138" d="M1.2.6a.6.6,0,1,0-.6.6A.6.6,0,0,0,1.2.6Z" transform="translate(81.573 32.517)" fill="#fff"/>
      <path id="路径_6139" data-name="路径 6139" d="M1.2.6a.6.6,0,1,0-.6.6A.6.6,0,0,0,1.2.6Z" transform="translate(106.836 32.517)" fill="#fff"/>
      <path id="路径_6140" data-name="路径 6140" d="M1.2.6a.6.6,0,1,0-.6.6A.6.6,0,0,0,1.2.6Z" transform="translate(113.151 32.517)" fill="#fff"/>
      <path id="路径_6141" data-name="路径 6141" d="M.35.121A.6.6,0,0,0,.338,0C.224.221.112.443,0,.665A.6.6,0,0,0,.35.121Z" transform="translate(6.635 32.994)" fill="#fff"/>
      <path id="路径_6142" data-name="路径 6142" d="M1.2.6a.6.6,0,1,0-.6.6A.6.6,0,0,0,1.2.6Z" transform="translate(56.311 40.645)" fill="#fff"/>
      <path id="路径_6143" data-name="路径 6143" d="M1.2.6a.6.6,0,1,0-.6.6A.6.6,0,0,0,1.2.6Z" transform="translate(62.627 40.645)" fill="#fff"/>
      <path id="路径_6144" data-name="路径 6144" d="M1.2.6a.6.6,0,1,0-.6.6A.6.6,0,0,0,1.2.6Z" transform="translate(49.995 40.645)" fill="#fff"/>
      <path id="路径_6145" data-name="路径 6145" d="M1.2.6a.6.6,0,1,0-.6.6A.6.6,0,0,0,1.2.6Z" transform="translate(75.258 40.645)" fill="#fff"/>
      <path id="路径_6146" data-name="路径 6146" d="M1.2.6a.6.6,0,1,0-.6.6A.6.6,0,0,0,1.2.6Z" transform="translate(43.68 40.645)" fill="#fff"/>
      <path id="路径_6147" data-name="路径 6147" d="M1.2.6a.6.6,0,1,0-.6.6A.6.6,0,0,0,1.2.6Z" transform="translate(68.942 40.645)" fill="#fff"/>
      <path id="路径_6148" data-name="路径 6148" d="M1.2.6a.6.6,0,1,0-.6.6A.6.6,0,0,0,1.2.6Z" transform="translate(37.364 40.645)" fill="#fff"/>
      <path id="路径_6149" data-name="路径 6149" d="M1.2.6a.6.6,0,1,0-.6.6A.6.6,0,0,0,1.2.6Z" transform="translate(18.418 40.645)" fill="#fff"/>
      <path id="路径_6150" data-name="路径 6150" d="M1.2.6a.6.6,0,1,0-.6.6A.6.6,0,0,0,1.2.6Z" transform="translate(81.573 40.645)" fill="#fff"/>
      <path id="路径_6151" data-name="路径 6151" d="M1.2.6a.6.6,0,1,0-.6.6A.6.6,0,0,0,1.2.6Z" transform="translate(5.787 40.645)" fill="#fff"/>
      <path id="路径_6152" data-name="路径 6152" d="M1.2.6a.6.6,0,1,0-.6.6A.6.6,0,0,0,1.2.6Z" transform="translate(12.103 40.645)" fill="#fff"/>
      <path id="路径_6153" data-name="路径 6153" d="M1.2.6a.6.6,0,1,0-.6.6A.6.6,0,0,0,1.2.6Z" transform="translate(31.049 40.645)" fill="#fff"/>
      <path id="路径_6154" data-name="路径 6154" d="M1.2.6a.6.6,0,1,0-.6.6A.6.6,0,0,0,1.2.6Z" transform="translate(24.734 40.645)" fill="#fff"/>
      <path id="路径_6155" data-name="路径 6155" d="M1.2.6a.6.6,0,1,0-.6.6A.6.6,0,0,0,1.2.6Z" transform="translate(106.836 40.645)" fill="#fff"/>
      <path id="路径_6156" data-name="路径 6156" d="M1.2.6a.6.6,0,1,0-.6.6A.6.6,0,0,0,1.2.6Z" transform="translate(119.467 40.645)" fill="#fff"/>
      <path id="路径_6157" data-name="路径 6157" d="M1.2.6a.6.6,0,1,0-.6.6A.6.6,0,0,0,1.2.6Z" transform="translate(113.151 40.645)" fill="#fff"/>
      <path id="路径_6158" data-name="路径 6158" d="M1.2.6a.6.6,0,1,0-.6.6A.6.6,0,0,0,1.2.6Z" transform="translate(87.889 40.645)" fill="#fff"/>
      <path id="路径_6159" data-name="路径 6159" d="M1.2.6a.6.6,0,1,0-.6.6A.6.6,0,0,0,1.2.6Z" transform="translate(100.52 40.645)" fill="#fff"/>
      <path id="路径_6160" data-name="路径 6160" d="M1.2.6a.6.6,0,1,0-.6.6A.6.6,0,0,0,1.2.6Z" transform="translate(94.205 40.645)" fill="#fff"/>
      <path id="路径_6161" data-name="路径 6161" d="M1.2.6a.6.6,0,1,0-.6.6A.6.6,0,0,0,1.2.6Z" transform="translate(43.68 48.774)" fill="#fff"/>
      <path id="路径_6162" data-name="路径 6162" d="M1.2.6a.6.6,0,1,0-.6.6A.6.6,0,0,0,1.2.6Z" transform="translate(75.258 48.774)" fill="#fff"/>
      <path id="路径_6163" data-name="路径 6163" d="M1.2.6a.6.6,0,1,0-.6.6A.6.6,0,0,0,1.2.6Z" transform="translate(81.573 48.774)" fill="#fff"/>
      <path id="路径_6164" data-name="路径 6164" d="M1.2.6a.6.6,0,1,0-.6.6A.6.6,0,0,0,1.2.6Z" transform="translate(119.467 48.774)" fill="#fff"/>
      <path id="路径_6165" data-name="路径 6165" d="M1.2.6a.6.6,0,1,0-.6.6A.6.6,0,0,0,1.2.6Z" transform="translate(87.889 48.774)" fill="#fff"/>
      <path id="路径_6166" data-name="路径 6166" d="M1.2.6a.6.6,0,1,0-.6.6A.6.6,0,0,0,1.2.6Z" transform="translate(62.627 48.774)" fill="#fff"/>
      <path id="路径_6167" data-name="路径 6167" d="M1.2.6a.6.6,0,1,0-.6.6A.6.6,0,0,0,1.2.6Z" transform="translate(100.52 48.774)" fill="#fff"/>
      <path id="路径_6168" data-name="路径 6168" d="M1.2.6a.6.6,0,1,0-.6.6A.6.6,0,0,0,1.2.6Z" transform="translate(106.836 48.774)" fill="#fff"/>
      <path id="路径_6169" data-name="路径 6169" d="M1.2.6a.6.6,0,1,0-.6.6A.6.6,0,0,0,1.2.6Z" transform="translate(94.205 48.774)" fill="#fff"/>
      <path id="路径_6170" data-name="路径 6170" d="M1.2.6a.6.6,0,1,0-.6.6A.6.6,0,0,0,1.2.6Z" transform="translate(56.311 48.774)" fill="#fff"/>
      <path id="路径_6171" data-name="路径 6171" d="M1.2.6a.6.6,0,1,0-.6.6A.6.6,0,0,0,1.2.6Z" transform="translate(68.942 48.774)" fill="#fff"/>
      <path id="路径_6172" data-name="路径 6172" d="M1.2.6a.6.6,0,1,0-.6.6A.6.6,0,0,0,1.2.6Z" transform="translate(24.734 48.774)" fill="#fff"/>
      <path id="路径_6173" data-name="路径 6173" d="M1.2.6a.6.6,0,1,0-.6.6A.6.6,0,0,0,1.2.6Z" transform="translate(31.049 48.774)" fill="#fff"/>
      <path id="路径_6174" data-name="路径 6174" d="M1.2.6a.6.6,0,1,0-.6.6A.6.6,0,0,0,1.2.6Z" transform="translate(37.364 48.774)" fill="#fff"/>
      <path id="路径_6175" data-name="路径 6175" d="M1.2.6a.6.6,0,1,0-.6.6A.6.6,0,0,0,1.2.6Z" transform="translate(5.787 48.774)" fill="#fff"/>
      <path id="路径_6176" data-name="路径 6176" d="M1.2.6a.6.6,0,1,0-.6.6A.6.6,0,0,0,1.2.6Z" transform="translate(49.995 48.774)" fill="#fff"/>
      <path id="路径_6177" data-name="路径 6177" d="M1.2.6a.6.6,0,1,0-.6.6A.6.6,0,0,0,1.2.6Z" transform="translate(18.418 48.774)" fill="#fff"/>
      <path id="路径_6178" data-name="路径 6178" d="M1.2.6a.6.6,0,1,0-.6.6A.6.6,0,0,0,1.2.6Z" transform="translate(12.103 48.774)" fill="#fff"/>
      <path id="路径_6179" data-name="路径 6179" d="M1.2.6a.6.6,0,1,0-.6.6A.6.6,0,0,0,1.2.6Z" transform="translate(113.151 48.774)" fill="#fff"/>
      <path id="路径_6180" data-name="路径 6180" d="M1.2.6a.6.6,0,1,0-.6.6A.6.6,0,0,0,1.2.6Z" transform="translate(24.734 56.903)" fill="#fff"/>
      <path id="路径_6181" data-name="路径 6181" d="M1.2.6a.6.6,0,1,0-.6.6A.6.6,0,0,0,1.2.6Z" transform="translate(62.627 56.903)" fill="#fff"/>
      <path id="路径_6182" data-name="路径 6182" d="M1.2.6a.6.6,0,1,0-.6.6A.6.6,0,0,0,1.2.6Z" transform="translate(68.942 56.903)" fill="#fff"/>
      <path id="路径_6183" data-name="路径 6183" d="M1.2.6a.6.6,0,1,0-.6.6A.6.6,0,0,0,1.2.6Z" transform="translate(75.258 56.903)" fill="#fff"/>
      <path id="路径_6184" data-name="路径 6184" d="M1.2.6a.6.6,0,1,0-.6.6A.6.6,0,0,0,1.2.6Z" transform="translate(56.311 56.903)" fill="#fff"/>
      <path id="路径_6185" data-name="路径 6185" d="M1.2.6a.6.6,0,1,0-.6.6A.6.6,0,0,0,1.2.6Z" transform="translate(37.364 56.903)" fill="#fff"/>
      <path id="路径_6186" data-name="路径 6186" d="M1.2.6a.6.6,0,1,0-.6.6A.6.6,0,0,0,1.2.6Z" transform="translate(5.787 56.903)" fill="#fff"/>
      <path id="路径_6187" data-name="路径 6187" d="M1.2.6a.6.6,0,1,0-.6.6A.6.6,0,0,0,1.2.6Z" transform="translate(43.68 56.903)" fill="#fff"/>
      <path id="路径_6188" data-name="路径 6188" d="M1.2.6a.6.6,0,1,0-.6.6A.6.6,0,0,0,1.2.6Z" transform="translate(49.995 56.903)" fill="#fff"/>
      <path id="路径_6189" data-name="路径 6189" d="M1.2.6a.6.6,0,1,0-.6.6A.6.6,0,0,0,1.2.6Z" transform="translate(119.467 56.903)" fill="#fff"/>
      <path id="路径_6190" data-name="路径 6190" d="M1.2.6a.6.6,0,1,0-.6.6A.6.6,0,0,0,1.2.6Z" transform="translate(18.418 56.903)" fill="#fff"/>
      <path id="路径_6191" data-name="路径 6191" d="M1.2.6a.6.6,0,1,0-.6.6A.6.6,0,0,0,1.2.6Z" transform="translate(31.049 56.903)" fill="#fff"/>
      <path id="路径_6192" data-name="路径 6192" d="M1.2.6a.6.6,0,1,0-.6.6A.6.6,0,0,0,1.2.6Z" transform="translate(12.103 56.903)" fill="#fff"/>
      <path id="路径_6193" data-name="路径 6193" d="M1.2.6a.6.6,0,1,0-.6.6A.6.6,0,0,0,1.2.6Z" transform="translate(113.151 56.903)" fill="#fff"/>
      <path id="路径_6194" data-name="路径 6194" d="M1.2.6a.6.6,0,1,0-.6.6A.6.6,0,0,0,1.2.6Z" transform="translate(100.52 56.903)" fill="#fff"/>
      <path id="路径_6195" data-name="路径 6195" d="M1.2.6a.6.6,0,1,0-.6.6A.6.6,0,0,0,1.2.6Z" transform="translate(94.205 56.903)" fill="#fff"/>
      <path id="路径_6196" data-name="路径 6196" d="M1.2.6a.6.6,0,1,0-.6.6A.6.6,0,0,0,1.2.6Z" transform="translate(87.889 56.903)" fill="#fff"/>
      <path id="路径_6197" data-name="路径 6197" d="M1.2.6a.6.6,0,1,0-.6.6A.6.6,0,0,0,1.2.6Z" transform="translate(81.573 56.903)" fill="#fff"/>
      <path id="路径_6198" data-name="路径 6198" d="M1.2.6a.6.6,0,1,0-.6.6A.6.6,0,0,0,1.2.6Z" transform="translate(106.836 56.903)" fill="#fff"/>
      <path id="路径_6199" data-name="路径 6199" d="M.443,1.017A.6.6,0,0,0,.618.593.6.6,0,0,0,.443.169.606.606,0,0,0,.082,0C.05.4.024.793,0,1.19l.019,0A.6.6,0,0,0,.443,1.017Z" transform="translate(0.051 56.91)" fill="#fff"/>
      <path id="路径_6200" data-name="路径 6200" d="M1.2.6a.6.6,0,1,0-.6.6A.6.6,0,0,0,1.2.6Z" transform="translate(68.942 65.032)" fill="#fff"/>
      <path id="路径_6201" data-name="路径 6201" d="M1.2.6a.6.6,0,1,0-.6.6A.6.6,0,0,0,1.2.6Z" transform="translate(75.258 65.032)" fill="#fff"/>
      <path id="路径_6202" data-name="路径 6202" d="M1.2.6a.6.6,0,1,0-.6.6A.6.6,0,0,0,1.2.6Z" transform="translate(87.889 65.032)" fill="#fff"/>
      <path id="路径_6203" data-name="路径 6203" d="M1.2.6a.6.6,0,1,0-.6.6A.6.6,0,0,0,1.2.6Z" transform="translate(94.205 65.032)" fill="#fff"/>
      <path id="路径_6204" data-name="路径 6204" d="M1.2.6a.6.6,0,1,0-.6.6A.6.6,0,0,0,1.2.6Z" transform="translate(100.52 65.032)" fill="#fff"/>
      <path id="路径_6205" data-name="路径 6205" d="M1.2.6a.6.6,0,1,0-.6.6A.6.6,0,0,0,1.2.6Z" transform="translate(56.311 65.032)" fill="#fff"/>
      <path id="路径_6206" data-name="路径 6206" d="M1.2.6a.6.6,0,1,0-.6.6A.6.6,0,0,0,1.2.6Z" transform="translate(62.627 65.032)" fill="#fff"/>
      <path id="路径_6207" data-name="路径 6207" d="M1.2.6a.6.6,0,1,0-.6.6A.6.6,0,0,0,1.2.6Z" transform="translate(49.995 65.032)" fill="#fff"/>
      <path id="路径_6208" data-name="路径 6208" d="M1.2.6a.6.6,0,1,0-.6.6A.6.6,0,0,0,1.2.6Z" transform="translate(43.68 65.032)" fill="#fff"/>
      <path id="路径_6209" data-name="路径 6209" d="M1.2.6a.6.6,0,1,0-.6.6A.6.6,0,0,0,1.2.6Z" transform="translate(106.836 65.032)" fill="#fff"/>
      <path id="路径_6210" data-name="路径 6210" d="M1.2.6a.6.6,0,1,0-.6.6A.6.6,0,0,0,1.2.6Z" transform="translate(81.573 65.032)" fill="#fff"/>
      <path id="路径_6211" data-name="路径 6211" d="M1.2.6a.6.6,0,1,0-.6.6A.6.6,0,0,0,1.2.6Z" transform="translate(18.418 65.032)" fill="#fff"/>
      <path id="路径_6212" data-name="路径 6212" d="M1.2.6a.6.6,0,1,0-.6.6A.6.6,0,0,0,1.2.6Z" transform="translate(31.049 65.032)" fill="#fff"/>
      <path id="路径_6213" data-name="路径 6213" d="M1.2.6a.6.6,0,1,0-.6.6A.6.6,0,0,0,1.2.6Z" transform="translate(24.734 65.032)" fill="#fff"/>
      <path id="路径_6214" data-name="路径 6214" d="M1.2.6a.6.6,0,1,0-.6.6A.6.6,0,0,0,1.2.6Z" transform="translate(12.103 65.032)" fill="#fff"/>
      <path id="路径_6215" data-name="路径 6215" d="M1.2.6a.6.6,0,1,0-.6.6A.6.6,0,0,0,1.2.6Z" transform="translate(113.151 65.032)" fill="#fff"/>
      <path id="路径_6216" data-name="路径 6216" d="M1.2.6a.6.6,0,1,0-.6.6A.6.6,0,0,0,1.2.6Z" transform="translate(5.787 65.032)" fill="#fff"/>
      <path id="路径_6217" data-name="路径 6217" d="M1.2.6a.6.6,0,1,0-.6.6A.6.6,0,0,0,1.2.6Z" transform="translate(119.467 65.032)" fill="#fff"/>
      <path id="路径_6218" data-name="路径 6218" d="M1.2.6a.6.6,0,1,0-.6.6A.6.6,0,0,0,1.2.6Z" transform="translate(37.364 65.032)" fill="#fff"/>
      <path id="路径_6219" data-name="路径 6219" d="M.495,1.023a.6.6,0,0,0,0-.848A.606.606,0,0,0,.071,0,.562.562,0,0,0,0,.007C.018.406.043.8.069,1.2h0A.606.606,0,0,0,.495,1.023Z" transform="translate(0 65.032)" fill="#fff"/>
      <path id="路径_6220" data-name="路径 6220" d="M1.2.6a.6.6,0,1,0-.6.6A.6.6,0,0,0,1.2.6Z" transform="translate(49.995 73.161)" fill="#fff"/>
      <path id="路径_6221" data-name="路径 6221" d="M1.2.6a.6.6,0,1,0-.6.6A.6.6,0,0,0,1.2.6Z" transform="translate(43.68 73.161)" fill="#fff"/>
      <path id="路径_6222" data-name="路径 6222" d="M1.2.6a.6.6,0,1,0-.6.6A.6.6,0,0,0,1.2.6Z" transform="translate(75.258 73.161)" fill="#fff"/>
      <path id="路径_6223" data-name="路径 6223" d="M1.2.6a.6.6,0,1,0-.6.6A.6.6,0,0,0,1.2.6Z" transform="translate(56.311 73.161)" fill="#fff"/>
      <path id="路径_6224" data-name="路径 6224" d="M1.2.6a.6.6,0,1,0-.6.6A.6.6,0,0,0,1.2.6Z" transform="translate(68.942 73.161)" fill="#fff"/>
      <path id="路径_6225" data-name="路径 6225" d="M1.2.6a.6.6,0,1,0-.6.6A.6.6,0,0,0,1.2.6Z" transform="translate(37.364 73.161)" fill="#fff"/>
      <path id="路径_6226" data-name="路径 6226" d="M1.2.6a.6.6,0,1,0-.6.6A.6.6,0,0,0,1.2.6Z" transform="translate(5.787 73.161)" fill="#fff"/>
      <path id="路径_6227" data-name="路径 6227" d="M1.2.6a.6.6,0,1,0-.6.6A.6.6,0,0,0,1.2.6Z" transform="translate(12.103 73.161)" fill="#fff"/>
      <path id="路径_6228" data-name="路径 6228" d="M1.2.6a.6.6,0,1,0-.6.6A.6.6,0,0,0,1.2.6Z" transform="translate(31.049 73.161)" fill="#fff"/>
      <path id="路径_6229" data-name="路径 6229" d="M1.2.6a.6.6,0,1,0-.6.6A.6.6,0,0,0,1.2.6Z" transform="translate(81.573 73.161)" fill="#fff"/>
      <path id="路径_6230" data-name="路径 6230" d="M1.2.6a.6.6,0,1,0-.6.6A.6.6,0,0,0,1.2.6Z" transform="translate(24.734 73.161)" fill="#fff"/>
      <path id="路径_6231" data-name="路径 6231" d="M1.2.6a.6.6,0,1,0-.6.6A.6.6,0,0,0,1.2.6Z" transform="translate(18.418 73.161)" fill="#fff"/>
      <path id="路径_6232" data-name="路径 6232" d="M1.2.6a.6.6,0,1,0-.6.6A.6.6,0,0,0,1.2.6Z" transform="translate(62.627 73.161)" fill="#fff"/>
      <path id="路径_6233" data-name="路径 6233" d="M1.2.6a.6.6,0,1,0-.6.6A.6.6,0,0,0,1.2.6Z" transform="translate(106.836 73.161)" fill="#fff"/>
      <path id="路径_6234" data-name="路径 6234" d="M1.2.6a.6.6,0,1,0-.6.6A.6.6,0,0,0,1.2.6Z" transform="translate(119.467 73.161)" fill="#fff"/>
      <path id="路径_6235" data-name="路径 6235" d="M1.2.6a.6.6,0,1,0-.6.6A.6.6,0,0,0,1.2.6Z" transform="translate(87.889 73.161)" fill="#fff"/>
      <path id="路径_6236" data-name="路径 6236" d="M1.2.6a.6.6,0,1,0-.6.6A.6.6,0,0,0,1.2.6Z" transform="translate(113.151 73.161)" fill="#fff"/>
      <path id="路径_6237" data-name="路径 6237" d="M1.2.6a.6.6,0,1,0-.6.6A.6.6,0,0,0,1.2.6Z" transform="translate(100.52 73.161)" fill="#fff"/>
      <path id="路径_6238" data-name="路径 6238" d="M1.2.6a.6.6,0,1,0-.6.6A.6.6,0,0,0,1.2.6Z" transform="translate(94.205 73.161)" fill="#fff"/>
      <path id="路径_6239" data-name="路径 6239" d="M1.2.6a.6.6,0,1,0-.6.6A.6.6,0,0,0,1.2.6Z" transform="translate(37.364 81.29)" fill="#fff"/>
      <path id="路径_6240" data-name="路径 6240" d="M1.2.6a.6.6,0,1,0-.6.6A.6.6,0,0,0,1.2.6Z" transform="translate(31.049 81.29)" fill="#fff"/>
      <path id="路径_6241" data-name="路径 6241" d="M1.2.6a.6.6,0,1,0-.6.6A.6.6,0,0,0,1.2.6Z" transform="translate(43.68 81.29)" fill="#fff"/>
      <path id="路径_6242" data-name="路径 6242" d="M1.2.6a.6.6,0,1,0-.6.6A.6.6,0,0,0,1.2.6Z" transform="translate(119.467 81.29)" fill="#fff"/>
      <path id="路径_6243" data-name="路径 6243" d="M1.2.6a.6.6,0,1,0-.6.6A.6.6,0,0,0,1.2.6Z" transform="translate(24.734 81.29)" fill="#fff"/>
      <path id="路径_6244" data-name="路径 6244" d="M1.2.6a.6.6,0,1,0-.6.6A.6.6,0,0,0,1.2.6Z" transform="translate(5.787 81.29)" fill="#fff"/>
      <path id="路径_6245" data-name="路径 6245" d="M1.2.6a.6.6,0,1,0-.6.6A.6.6,0,0,0,1.2.6Z" transform="translate(18.418 81.29)" fill="#fff"/>
      <path id="路径_6246" data-name="路径 6246" d="M1.2.6a.6.6,0,1,0-.6.6A.6.6,0,0,0,1.2.6Z" transform="translate(12.103 81.29)" fill="#fff"/>
      <path id="路径_6247" data-name="路径 6247" d="M1.2.6a.6.6,0,1,0-.6.6A.6.6,0,0,0,1.2.6Z" transform="translate(100.52 81.29)" fill="#fff"/>
      <path id="路径_6248" data-name="路径 6248" d="M1.2.6a.6.6,0,1,0-.6.6A.6.6,0,0,0,1.2.6Z" transform="translate(106.836 81.29)" fill="#fff"/>
      <path id="路径_6249" data-name="路径 6249" d="M1.2.6a.6.6,0,1,0-.6.6A.6.6,0,0,0,1.2.6Z" transform="translate(113.151 81.29)" fill="#fff"/>
      <path id="路径_6250" data-name="路径 6250" d="M1.2.6a.6.6,0,1,0-.6.6A.6.6,0,0,0,1.2.6Z" transform="translate(81.573 81.29)" fill="#fff"/>
      <path id="路径_6251" data-name="路径 6251" d="M1.2.6a.6.6,0,1,0-.6.6A.6.6,0,0,0,1.2.6Z" transform="translate(49.995 81.29)" fill="#fff"/>
      <path id="路径_6252" data-name="路径 6252" d="M1.2.6a.6.6,0,1,0-.6.6A.6.6,0,0,0,1.2.6Z" transform="translate(87.889 81.29)" fill="#fff"/>
      <path id="路径_6253" data-name="路径 6253" d="M1.2.6a.6.6,0,1,0-.6.6A.6.6,0,0,0,1.2.6Z" transform="translate(94.205 81.29)" fill="#fff"/>
      <path id="路径_6254" data-name="路径 6254" d="M1.2.6a.6.6,0,1,0-.6.6A.6.6,0,0,0,1.2.6Z" transform="translate(56.311 81.29)" fill="#fff"/>
      <path id="路径_6255" data-name="路径 6255" d="M1.2.6a.6.6,0,1,0-.6.6A.6.6,0,0,0,1.2.6Z" transform="translate(62.627 81.29)" fill="#fff"/>
      <path id="路径_6256" data-name="路径 6256" d="M1.2.6a.6.6,0,1,0-.6.6A.6.6,0,0,0,1.2.6Z" transform="translate(68.942 81.29)" fill="#fff"/>
      <path id="路径_6257" data-name="路径 6257" d="M1.2.6a.6.6,0,1,0-.6.6A.6.6,0,0,0,1.2.6Z" transform="translate(75.258 81.29)" fill="#fff"/>
      <path id="路径_6258" data-name="路径 6258" d="M1.2.6a.6.6,0,1,0-.6.6A.6.6,0,0,0,1.2.6Z" transform="translate(18.418 89.42)" fill="#fff"/>
      <path id="路径_6259" data-name="路径 6259" d="M1.2.6a.6.6,0,1,0-.6.6A.6.6,0,0,0,1.2.6Z" transform="translate(68.942 89.42)" fill="#fff"/>
      <path id="路径_6260" data-name="路径 6260" d="M1.2.6a.6.6,0,1,0-.6.6A.6.6,0,0,0,1.2.6Z" transform="translate(81.573 89.42)" fill="#fff"/>
      <path id="路径_6261" data-name="路径 6261" d="M1.2.6a.6.6,0,1,0-.6.6A.6.6,0,0,0,1.2.6Z" transform="translate(75.258 89.42)" fill="#fff"/>
      <path id="路径_6262" data-name="路径 6262" d="M1.2.6a.6.6,0,1,0-.6.6A.6.6,0,0,0,1.2.6Z" transform="translate(94.205 89.42)" fill="#fff"/>
      <path id="路径_6263" data-name="路径 6263" d="M1.2.6a.6.6,0,1,0-.6.6A.6.6,0,0,0,1.2.6Z" transform="translate(87.889 89.42)" fill="#fff"/>
      <path id="路径_6264" data-name="路径 6264" d="M1.2.6a.6.6,0,1,0-.6.6A.6.6,0,0,0,1.2.6Z" transform="translate(100.52 89.42)" fill="#fff"/>
      <path id="路径_6265" data-name="路径 6265" d="M1.2.6a.6.6,0,1,0-.6.6A.6.6,0,0,0,1.2.6Z" transform="translate(113.151 89.42)" fill="#fff"/>
      <path id="路径_6266" data-name="路径 6266" d="M0,.6a.6.6,0,0,0,.178.426C.349.688.519.35.684.008A.648.648,0,0,0,.6,0,.6.6,0,0,0,0,.6Z" transform="translate(119.467 89.42)" fill="#fff"/>
      <path id="路径_6267" data-name="路径 6267" d="M1.2.6a.6.6,0,1,0-.6.6A.6.6,0,0,0,1.2.6Z" transform="translate(106.836 89.42)" fill="#fff"/>
      <path id="路径_6268" data-name="路径 6268" d="M1.2.6a.6.6,0,1,0-.6.6A.6.6,0,0,0,1.2.6Z" transform="translate(24.734 89.42)" fill="#fff"/>
      <path id="路径_6269" data-name="路径 6269" d="M.812.6a.6.6,0,0,0-.6-.6A.6.6,0,0,0,0,.04C.172.4.35.752.529,1.106A.6.6,0,0,0,.812.6Z" transform="translate(6.174 89.42)" fill="#fff"/>
      <path id="路径_6270" data-name="路径 6270" d="M1.2.6a.6.6,0,1,0-.6.6A.6.6,0,0,0,1.2.6Z" transform="translate(37.364 89.42)" fill="#fff"/>
      <path id="路径_6271" data-name="路径 6271" d="M1.2.6a.6.6,0,1,0-.6.6A.6.6,0,0,0,1.2.6Z" transform="translate(31.049 89.42)" fill="#fff"/>
      <path id="路径_6272" data-name="路径 6272" d="M1.2.6a.6.6,0,1,0-.6.6A.6.6,0,0,0,1.2.6Z" transform="translate(12.103 89.42)" fill="#fff"/>
      <path id="路径_6273" data-name="路径 6273" d="M1.2.6a.6.6,0,1,0-.6.6A.6.6,0,0,0,1.2.6Z" transform="translate(62.627 89.42)" fill="#fff"/>
      <path id="路径_6274" data-name="路径 6274" d="M1.2.6a.6.6,0,1,0-.6.6A.6.6,0,0,0,1.2.6Z" transform="translate(43.68 89.42)" fill="#fff"/>
      <path id="路径_6275" data-name="路径 6275" d="M1.2.6a.6.6,0,1,0-.6.6A.6.6,0,0,0,1.2.6Z" transform="translate(56.311 89.42)" fill="#fff"/>
      <path id="路径_6276" data-name="路径 6276" d="M1.2.6a.6.6,0,1,0-.6.6A.6.6,0,0,0,1.2.6Z" transform="translate(49.995 89.42)" fill="#fff"/>
    </g>
    <g id="组_1337" data-name="组 1337" transform="translate(104.467 586.822)">
      <g id="组_1336" data-name="组 1336" transform="translate(15.544 47.637)">
        <path id="路径_6075-2" data-name="路径 6075" d="M2234.612,338.295a.841.841,0,1,1,.84.841A.842.842,0,0,1,2234.612,338.295Zm8.86,0a.841.841,0,1,1,.841.841A.842.842,0,0,1,2243.472,338.295Zm8.86,0a.841.841,0,1,1,.841.841A.842.842,0,0,1,2252.333,338.295Zm-53.16,11.4a.841.841,0,1,1,.84.841A.84.84,0,0,1,2199.172,349.7Zm8.859,0a.841.841,0,1,1,.842.841A.841.841,0,0,1,2208.031,349.7Zm8.86,0a.841.841,0,1,1,.842.841A.841.841,0,0,1,2216.892,349.7Zm8.86,0a.841.841,0,1,1,.841.841A.841.841,0,0,1,2225.752,349.7Zm8.861,0a.841.841,0,1,1,.84.841A.841.841,0,0,1,2234.612,349.7Zm8.86,0a.841.841,0,1,1,.841.841A.841.841,0,0,1,2243.472,349.7Zm8.86,0a.841.841,0,1,1,.841.841A.841.841,0,0,1,2252.333,349.7Zm8.861,0a.841.841,0,1,1,.84.841A.84.84,0,0,1,2261.193,349.7Zm8.86,0a.84.84,0,1,1,.84.841A.84.84,0,0,1,2270.053,349.7Zm8.86,0a.841.841,0,1,1,.841.841A.841.841,0,0,1,2278.913,349.7Zm8.861,0a.841.841,0,1,1,.841.841A.84.84,0,0,1,2287.774,349.7Zm-97.462,11.4a.841.841,0,1,1,.841.841A.841.841,0,0,1,2190.312,361.1Zm8.861,0a.841.841,0,1,1,.84.841A.84.84,0,0,1,2199.172,361.1Zm8.859,0a.841.841,0,1,1,.842.841A.842.842,0,0,1,2208.031,361.1Zm8.86,0a.841.841,0,1,1,.842.841A.842.842,0,0,1,2216.892,361.1Zm8.86,0a.841.841,0,1,1,.841.841A.842.842,0,0,1,2225.752,361.1Zm8.861,0a.841.841,0,1,1,.84.841A.841.841,0,0,1,2234.612,361.1Zm8.86,0a.841.841,0,1,1,.841.841A.841.841,0,0,1,2243.472,361.1Zm8.86,0a.841.841,0,1,1,.841.841A.841.841,0,0,1,2252.333,361.1Zm8.861,0a.841.841,0,1,1,.84.841A.841.841,0,0,1,2261.193,361.1Zm8.86,0a.84.84,0,1,1,.84.841A.841.841,0,0,1,2270.053,361.1Zm8.86,0a.841.841,0,1,1,.841.841A.842.842,0,0,1,2278.913,361.1Zm8.861,0a.841.841,0,1,1,.841.841A.841.841,0,0,1,2287.774,361.1Zm8.86,0a.841.841,0,1,1,.841.841A.841.841,0,0,1,2296.634,361.1Zm-124.042,11.405a.841.841,0,1,1,.84.841A.841.841,0,0,1,2172.592,372.508Zm8.86,0a.841.841,0,1,1,.841.841A.841.841,0,0,1,2181.451,372.508Zm8.86,0a.841.841,0,1,1,.841.841A.841.841,0,0,1,2190.312,372.508Zm8.861,0a.841.841,0,1,1,.84.841A.841.841,0,0,1,2199.172,372.508Zm8.859,0a.841.841,0,1,1,.842.841A.842.842,0,0,1,2208.031,372.508Zm8.86,0a.841.841,0,1,1,.842.841A.842.842,0,0,1,2216.892,372.508Zm8.86,0a.841.841,0,1,1,.841.841A.842.842,0,0,1,2225.752,372.508Zm8.861,0a.841.841,0,1,1,.84.841A.842.842,0,0,1,2234.612,372.508Zm8.86,0a.841.841,0,1,1,.841.841A.842.842,0,0,1,2243.472,372.508Zm8.86,0a.841.841,0,1,1,.841.841A.842.842,0,0,1,2252.333,372.508Zm8.861,0a.841.841,0,1,1,.84.841A.841.841,0,0,1,2261.193,372.508Zm8.86,0a.84.84,0,1,1,.84.841A.841.841,0,0,1,2270.053,372.508Zm8.86,0a.841.841,0,1,1,.841.841A.842.842,0,0,1,2278.913,372.508Zm8.861,0a.841.841,0,1,1,.841.841A.841.841,0,0,1,2287.774,372.508Zm8.86,0a.841.841,0,1,1,.841.841A.841.841,0,0,1,2296.634,372.508Zm8.86,0a.841.841,0,1,1,.841.841A.841.841,0,0,1,2305.494,372.508Zm-132.9,11.4a.841.841,0,1,1,.84.841A.84.84,0,0,1,2172.592,383.912Zm8.86,0a.841.841,0,1,1,.841.841A.84.84,0,0,1,2181.451,383.912Zm8.86,0a.841.841,0,1,1,.841.841A.84.84,0,0,1,2190.312,383.912Zm8.861,0a.841.841,0,1,1,.84.841A.84.84,0,0,1,2199.172,383.912Zm8.859,0a.841.841,0,1,1,.842.841A.841.841,0,0,1,2208.031,383.912Zm8.86,0a.841.841,0,1,1,.842.841A.841.841,0,0,1,2216.892,383.912Zm8.86,0a.841.841,0,1,1,.841.841A.841.841,0,0,1,2225.752,383.912Zm8.861,0a.841.841,0,1,1,.84.841A.841.841,0,0,1,2234.612,383.912Zm8.86,0a.841.841,0,1,1,.841.841A.841.841,0,0,1,2243.472,383.912Zm8.86,0a.841.841,0,1,1,.841.841A.841.841,0,0,1,2252.333,383.912Zm8.861,0a.841.841,0,1,1,.84.841A.84.84,0,0,1,2261.193,383.912Zm8.86,0a.84.84,0,1,1,.84.841A.84.84,0,0,1,2270.053,383.912Zm8.86,0a.841.841,0,1,1,.841.841A.841.841,0,0,1,2278.913,383.912Zm8.861,0a.841.841,0,1,1,.841.841A.84.84,0,0,1,2287.774,383.912Zm8.86,0a.841.841,0,1,1,.841.841A.84.84,0,0,1,2296.634,383.912Zm8.86,0a.841.841,0,1,1,.841.841A.84.84,0,0,1,2305.494,383.912Zm8.86,0a.841.841,0,1,1,.841.841A.84.84,0,0,1,2314.354,383.912Zm-150.624,11.4a.841.841,0,1,1,.841.841A.84.84,0,0,1,2163.731,395.316Zm8.861,0a.841.841,0,1,1,.84.841A.84.84,0,0,1,2172.592,395.316Zm8.86,0a.841.841,0,1,1,.841.841A.84.84,0,0,1,2181.451,395.316Zm8.86,0a.841.841,0,1,1,.841.841A.84.84,0,0,1,2190.312,395.316Zm8.861,0a.841.841,0,1,1,.84.841A.84.84,0,0,1,2199.172,395.316Zm8.859,0a.841.841,0,1,1,.842.841A.841.841,0,0,1,2208.031,395.316Zm8.86,0a.841.841,0,1,1,.842.841A.841.841,0,0,1,2216.892,395.316Zm8.86,0a.841.841,0,1,1,.841.841A.841.841,0,0,1,2225.752,395.316Zm8.861,0a.841.841,0,1,1,.84.841A.841.841,0,0,1,2234.612,395.316Zm8.86,0a.841.841,0,1,1,.841.841A.841.841,0,0,1,2243.472,395.316Zm8.86,0a.841.841,0,1,1,.841.841A.841.841,0,0,1,2252.333,395.316Zm8.861,0a.841.841,0,1,1,.84.841A.84.84,0,0,1,2261.193,395.316Zm8.86,0a.84.84,0,1,1,.84.841A.84.84,0,0,1,2270.053,395.316Zm8.86,0a.841.841,0,1,1,.841.841A.841.841,0,0,1,2278.913,395.316Zm8.861,0a.841.841,0,1,1,.841.841A.84.84,0,0,1,2287.774,395.316Zm8.86,0a.841.841,0,1,1,.841.841A.84.84,0,0,1,2296.634,395.316Zm8.86,0a.841.841,0,1,1,.841.841A.84.84,0,0,1,2305.494,395.316Zm8.86,0a.841.841,0,1,1,.841.841A.84.84,0,0,1,2314.354,395.316Zm8.861,0a.841.841,0,1,1,.84.841A.84.84,0,0,1,2323.215,395.316Zm-159.484,11.4a.841.841,0,1,1,.841.842A.841.841,0,0,1,2163.731,406.72Zm8.861,0a.841.841,0,1,1,.84.842A.841.841,0,0,1,2172.592,406.72Zm8.86,0a.841.841,0,1,1,.841.842A.841.841,0,0,1,2181.451,406.72Zm8.86,0a.841.841,0,1,1,.841.842A.841.841,0,0,1,2190.312,406.72Zm8.861,0a.841.841,0,1,1,.84.842A.84.84,0,0,1,2199.172,406.72Zm8.859,0a.841.841,0,1,1,.842.842A.842.842,0,0,1,2208.031,406.72Zm8.86,0a.841.841,0,1,1,.842.842A.842.842,0,0,1,2216.892,406.72Zm8.86,0a.841.841,0,1,1,.841.842A.842.842,0,0,1,2225.752,406.72Zm8.861,0a.841.841,0,1,1,.84.842A.841.841,0,0,1,2234.612,406.72Zm8.86,0a.841.841,0,1,1,.841.842A.841.841,0,0,1,2243.472,406.72Zm8.86,0a.841.841,0,1,1,.841.842A.841.841,0,0,1,2252.333,406.72Zm8.861,0a.841.841,0,1,1,.84.842A.841.841,0,0,1,2261.193,406.72Zm8.86,0a.84.84,0,1,1,.84.842A.841.841,0,0,1,2270.053,406.72Zm8.86,0a.841.841,0,1,1,.841.842A.842.842,0,0,1,2278.913,406.72Zm8.861,0a.841.841,0,1,1,.841.842A.841.841,0,0,1,2287.774,406.72Zm8.86,0a.841.841,0,1,1,.841.842A.841.841,0,0,1,2296.634,406.72Zm8.86,0a.841.841,0,1,1,.841.842A.841.841,0,0,1,2305.494,406.72Zm8.86,0a.841.841,0,1,1,.841.842A.841.841,0,0,1,2314.354,406.72Zm8.861,0a.841.841,0,1,1,.84.842A.841.841,0,0,1,2323.215,406.72Zm-159.484,11.405a.841.841,0,1,1,.841.841A.841.841,0,0,1,2163.731,418.125Zm8.861,0a.841.841,0,1,1,.84.841A.841.841,0,0,1,2172.592,418.125Zm8.86,0a.841.841,0,1,1,.841.841A.841.841,0,0,1,2181.451,418.125Zm8.86,0a.841.841,0,1,1,.841.841A.841.841,0,0,1,2190.312,418.125Zm8.861,0a.841.841,0,1,1,.84.841A.841.841,0,0,1,2199.172,418.125Zm8.859,0a.841.841,0,1,1,.842.841A.842.842,0,0,1,2208.031,418.125Zm8.86,0a.841.841,0,1,1,.842.841A.842.842,0,0,1,2216.892,418.125Zm8.86,0a.841.841,0,1,1,.841.841A.842.842,0,0,1,2225.752,418.125Zm8.861,0a.841.841,0,1,1,.84.841A.842.842,0,0,1,2234.612,418.125Zm8.86,0a.841.841,0,1,1,.841.841A.842.842,0,0,1,2243.472,418.125Zm8.86,0a.841.841,0,1,1,.841.841A.842.842,0,0,1,2252.333,418.125Zm8.861,0a.841.841,0,1,1,.84.841A.841.841,0,0,1,2261.193,418.125Zm8.86,0a.84.84,0,1,1,.84.841A.841.841,0,0,1,2270.053,418.125Zm8.86,0a.841.841,0,1,1,.841.841A.842.842,0,0,1,2278.913,418.125Zm8.861,0a.841.841,0,1,1,.841.841A.841.841,0,0,1,2287.774,418.125Zm8.86,0a.841.841,0,1,1,.841.841A.841.841,0,0,1,2296.634,418.125Zm8.86,0a.841.841,0,1,1,.841.841A.841.841,0,0,1,2305.494,418.125Zm8.86,0a.841.841,0,1,1,.841.841A.841.841,0,0,1,2314.354,418.125Zm8.861,0a.841.841,0,1,1,.84.841A.841.841,0,0,1,2323.215,418.125Zm-159.484,11.4a.841.841,0,1,1,.841.841A.84.84,0,0,1,2163.731,429.529Zm8.861,0a.841.841,0,1,1,.84.841A.84.84,0,0,1,2172.592,429.529Zm8.86,0a.841.841,0,1,1,.841.841A.84.84,0,0,1,2181.451,429.529Zm8.86,0a.841.841,0,1,1,.841.841A.84.84,0,0,1,2190.312,429.529Zm8.861,0a.841.841,0,1,1,.84.841A.84.84,0,0,1,2199.172,429.529Zm8.859,0a.841.841,0,1,1,.842.841A.841.841,0,0,1,2208.031,429.529Zm8.86,0a.841.841,0,1,1,.842.841A.841.841,0,0,1,2216.892,429.529Zm8.86,0a.841.841,0,1,1,.841.841A.841.841,0,0,1,2225.752,429.529Zm8.861,0a.841.841,0,1,1,.84.841A.841.841,0,0,1,2234.612,429.529Zm8.86,0a.841.841,0,1,1,.841.841A.841.841,0,0,1,2243.472,429.529Zm8.86,0a.841.841,0,1,1,.841.841A.841.841,0,0,1,2252.333,429.529Zm8.861,0a.841.841,0,1,1,.84.841A.84.84,0,0,1,2261.193,429.529Zm8.86,0a.84.84,0,1,1,.84.841A.84.84,0,0,1,2270.053,429.529Zm8.86,0a.841.841,0,1,1,.841.841A.841.841,0,0,1,2278.913,429.529Zm8.861,0a.841.841,0,1,1,.841.841A.84.84,0,0,1,2287.774,429.529Zm8.86,0a.841.841,0,1,1,.841.841A.84.84,0,0,1,2296.634,429.529Zm8.86,0a.841.841,0,1,1,.841.841A.84.84,0,0,1,2305.494,429.529Zm8.86,0a.841.841,0,1,1,.841.841A.84.84,0,0,1,2314.354,429.529Zm8.861,0a.841.841,0,1,1,.84.841A.84.84,0,0,1,2323.215,429.529Zm-159.484,11.405a.841.841,0,1,1,.841.841A.841.841,0,0,1,2163.731,440.934Zm8.861,0a.841.841,0,1,1,.84.841A.841.841,0,0,1,2172.592,440.934Zm8.86,0a.841.841,0,1,1,.841.841A.841.841,0,0,1,2181.451,440.934Zm8.86,0a.841.841,0,1,1,.841.841A.841.841,0,0,1,2190.312,440.934Zm8.861,0a.841.841,0,1,1,.84.841A.841.841,0,0,1,2199.172,440.934Zm8.859,0a.841.841,0,1,1,.842.841A.842.842,0,0,1,2208.031,440.934Zm8.86,0a.841.841,0,1,1,.842.841A.842.842,0,0,1,2216.892,440.934Zm8.86,0a.841.841,0,1,1,.841.841A.842.842,0,0,1,2225.752,440.934Zm8.861,0a.841.841,0,1,1,.84.841A.842.842,0,0,1,2234.612,440.934Zm8.86,0a.841.841,0,1,1,.841.841A.842.842,0,0,1,2243.472,440.934Zm8.86,0a.841.841,0,1,1,.841.841A.842.842,0,0,1,2252.333,440.934Zm8.861,0a.841.841,0,1,1,.84.841A.841.841,0,0,1,2261.193,440.934Zm8.86,0a.84.84,0,1,1,.84.841A.841.841,0,0,1,2270.053,440.934Zm8.86,0a.841.841,0,1,1,.841.841A.842.842,0,0,1,2278.913,440.934Zm8.861,0a.841.841,0,1,1,.841.841A.841.841,0,0,1,2287.774,440.934Zm8.86,0a.841.841,0,1,1,.841.841A.841.841,0,0,1,2296.634,440.934Zm8.86,0a.841.841,0,1,1,.841.841A.841.841,0,0,1,2305.494,440.934Zm8.86,0a.841.841,0,1,1,.841.841A.841.841,0,0,1,2314.354,440.934Zm8.861,0a.841.841,0,1,1,.84.841A.841.841,0,0,1,2323.215,440.934Zm-159.484,11.4a.841.841,0,1,1,.841.841A.841.841,0,0,1,2163.731,452.338Zm8.861,0a.841.841,0,1,1,.84.841A.841.841,0,0,1,2172.592,452.338Zm8.86,0a.841.841,0,1,1,.841.841A.841.841,0,0,1,2181.451,452.338Zm8.86,0a.841.841,0,1,1,.841.841A.841.841,0,0,1,2190.312,452.338Zm8.861,0a.841.841,0,1,1,.84.841A.841.841,0,0,1,2199.172,452.338Zm8.859,0a.841.841,0,1,1,.842.841A.842.842,0,0,1,2208.031,452.338Zm8.86,0a.841.841,0,1,1,.842.841A.842.842,0,0,1,2216.892,452.338Zm8.86,0a.841.841,0,1,1,.841.841A.842.842,0,0,1,2225.752,452.338Zm8.861,0a.841.841,0,1,1,.84.841A.842.842,0,0,1,2234.612,452.338Zm8.86,0a.841.841,0,1,1,.841.841A.842.842,0,0,1,2243.472,452.338Zm8.86,0a.841.841,0,1,1,.841.841A.842.842,0,0,1,2252.333,452.338Zm8.861,0a.841.841,0,1,1,.84.841A.841.841,0,0,1,2261.193,452.338Zm8.86,0a.84.84,0,1,1,.84.841A.841.841,0,0,1,2270.053,452.338Zm8.86,0a.841.841,0,1,1,.841.841A.842.842,0,0,1,2278.913,452.338Zm8.861,0a.841.841,0,1,1,.841.841A.841.841,0,0,1,2287.774,452.338Zm8.86,0a.841.841,0,1,1,.841.841A.841.841,0,0,1,2296.634,452.338Zm8.86,0a.841.841,0,1,1,.841.841A.841.841,0,0,1,2305.494,452.338Zm8.86,0a.841.841,0,1,1,.841.841A.841.841,0,0,1,2314.354,452.338Zm8.861,0a.841.841,0,1,1,.84.841A.841.841,0,0,1,2323.215,452.338Zm-150.624,11.4a.841.841,0,1,1,.84.841A.84.84,0,0,1,2172.592,463.742Zm8.86,0a.841.841,0,1,1,.841.841A.84.84,0,0,1,2181.451,463.742Zm8.86,0a.841.841,0,1,1,.841.841A.84.84,0,0,1,2190.312,463.742Zm8.861,0a.841.841,0,1,1,.84.841A.84.84,0,0,1,2199.172,463.742Zm8.859,0a.841.841,0,1,1,.842.841A.841.841,0,0,1,2208.031,463.742Zm8.86,0a.841.841,0,1,1,.842.841A.841.841,0,0,1,2216.892,463.742Zm8.86,0a.841.841,0,1,1,.841.841A.841.841,0,0,1,2225.752,463.742Zm8.861,0a.841.841,0,1,1,.84.841A.841.841,0,0,1,2234.612,463.742Zm8.86,0a.841.841,0,1,1,.841.841A.841.841,0,0,1,2243.472,463.742Zm8.86,0a.841.841,0,1,1,.841.841A.841.841,0,0,1,2252.333,463.742Zm8.861,0a.841.841,0,1,1,.84.841A.84.84,0,0,1,2261.193,463.742Zm8.86,0a.84.84,0,1,1,.84.841A.84.84,0,0,1,2270.053,463.742Zm8.86,0a.841.841,0,1,1,.841.841A.841.841,0,0,1,2278.913,463.742Zm8.861,0a.841.841,0,1,1,.841.841A.84.84,0,0,1,2287.774,463.742Zm8.86,0a.841.841,0,1,1,.841.841A.84.84,0,0,1,2296.634,463.742Zm8.86,0a.841.841,0,1,1,.841.841A.84.84,0,0,1,2305.494,463.742Zm8.86,0a.841.841,0,1,1,.841.841A.84.84,0,0,1,2314.354,463.742Z" transform="translate(-2155.613 -337.453)" fill="none"/>
        <path id="路径_6076-2" data-name="路径 6076" d="M2234.044,338.295a.841.841,0,1,0-.842.841A.842.842,0,0,0,2234.044,338.295Z" transform="translate(-2153.362 -337.453)" fill="#fff"/>
        <path id="路径_6077-2" data-name="路径 6077" d="M2242.624,338.295a.841.841,0,1,0-.842.841A.842.842,0,0,0,2242.624,338.295Z" transform="translate(-2153.081 -337.453)" fill="#fff"/>
        <path id="路径_6078-2" data-name="路径 6078" d="M2258.1,338.293a.841.841,0,1,0,1.411-.616c-.282-.059-.564-.119-.847-.176A.838.838,0,0,0,2258.1,338.293Z" transform="translate(-2152.519 -337.451)" fill="#fff"/>
        <path id="路径_6079-2" data-name="路径 6079" d="M2251.2,338.295a.841.841,0,1,0-.842.841A.842.842,0,0,0,2251.2,338.295Z" transform="translate(-2152.8 -337.453)" fill="#fff"/>
        <path id="路径_6080-2" data-name="路径 6080" d="M2223.783,338.294a.841.841,0,1,0,1.041-.815c-.232.046-.466.092-.7.14A.837.837,0,0,0,2223.783,338.294Z" transform="translate(-2153.643 -337.452)" fill="#fff"/>
        <path id="路径_6081-2" data-name="路径 6081" d="M2276.938,349.337a.841.841,0,1,0-.841.841A.84.84,0,0,0,2276.938,349.337Z" transform="translate(-2151.956 -337.091)" fill="#fff"/>
        <path id="路径_6082-2" data-name="路径 6082" d="M2268.36,349.337a.841.841,0,1,0-.841.841A.84.84,0,0,0,2268.36,349.337Z" transform="translate(-2152.237 -337.091)" fill="#fff"/>
        <path id="路径_6083-2" data-name="路径 6083" d="M2285.517,349.337a.841.841,0,1,0-.841.841A.84.84,0,0,0,2285.517,349.337Z" transform="translate(-2151.674 -337.091)" fill="#fff"/>
        <path id="路径_6084-2" data-name="路径 6084" d="M2216.887,349.337a.841.841,0,1,0-.841.841A.841.841,0,0,0,2216.887,349.337Z" transform="translate(-2153.925 -337.091)" fill="#fff"/>
        <path id="路径_6085-2" data-name="路径 6085" d="M2208.308,349.337a.841.841,0,1,0-.841.841A.841.841,0,0,0,2208.308,349.337Z" transform="translate(-2154.206 -337.091)" fill="#fff"/>
        <path id="路径_6086-2" data-name="路径 6086" d="M2234.044,349.337a.841.841,0,1,0-.842.841A.841.841,0,0,0,2234.044,349.337Z" transform="translate(-2153.362 -337.091)" fill="#fff"/>
        <path id="路径_6087-2" data-name="路径 6087" d="M2225.465,349.337a.841.841,0,1,0-.842.841A.841.841,0,0,0,2225.465,349.337Z" transform="translate(-2153.643 -337.091)" fill="#fff"/>
        <path id="路径_6088-2" data-name="路径 6088" d="M2259.782,349.337a.841.841,0,1,0-.842.841A.841.841,0,0,0,2259.782,349.337Z" transform="translate(-2152.519 -337.091)" fill="#fff"/>
        <path id="路径_6089-2" data-name="路径 6089" d="M2199.728,349.337a.841.841,0,1,0-.841.841A.841.841,0,0,0,2199.728,349.337Z" transform="translate(-2154.487 -337.091)" fill="#fff"/>
        <path id="路径_6090-2" data-name="路径 6090" d="M2242.624,349.337a.841.841,0,1,0-.842.841A.841.841,0,0,0,2242.624,349.337Z" transform="translate(-2153.081 -337.091)" fill="#fff"/>
        <path id="路径_6091-2" data-name="路径 6091" d="M2251.2,349.337a.841.841,0,1,0-.842.841A.841.841,0,0,0,2251.2,349.337Z" transform="translate(-2152.8 -337.091)" fill="#fff"/>
        <path id="路径_6092-2" data-name="路径 6092" d="M2259.782,360.379a.841.841,0,1,0-.842.841A.842.842,0,0,0,2259.782,360.379Z" transform="translate(-2152.519 -336.729)" fill="#fff"/>
        <path id="路径_6093-2" data-name="路径 6093" d="M2242.624,360.379a.841.841,0,1,0-.842.841A.842.842,0,0,0,2242.624,360.379Z" transform="translate(-2153.081 -336.729)" fill="#fff"/>
        <path id="路径_6094-2" data-name="路径 6094" d="M2251.2,360.379a.841.841,0,1,0-.842.841A.842.842,0,0,0,2251.2,360.379Z" transform="translate(-2152.8 -336.729)" fill="#fff"/>
        <path id="路径_6095-2" data-name="路径 6095" d="M2285.517,360.379a.841.841,0,1,0-.841.841A.841.841,0,0,0,2285.517,360.379Z" transform="translate(-2151.674 -336.729)" fill="#fff"/>
        <path id="路径_6096-2" data-name="路径 6096" d="M2268.36,360.379a.841.841,0,1,0-.841.841A.841.841,0,0,0,2268.36,360.379Z" transform="translate(-2152.237 -336.729)" fill="#fff"/>
        <path id="路径_6097-2" data-name="路径 6097" d="M2234.044,360.379a.841.841,0,1,0-.842.841A.842.842,0,0,0,2234.044,360.379Z" transform="translate(-2153.362 -336.729)" fill="#fff"/>
        <path id="路径_6098-2" data-name="路径 6098" d="M2276.938,360.379a.841.841,0,1,0-.841.841A.841.841,0,0,0,2276.938,360.379Z" transform="translate(-2151.956 -336.729)" fill="#fff"/>
        <path id="路径_6099-2" data-name="路径 6099" d="M2208.308,360.379a.841.841,0,1,0-.841.841A.842.842,0,0,0,2208.308,360.379Z" transform="translate(-2154.206 -336.729)" fill="#fff"/>
        <path id="路径_6100-2" data-name="路径 6100" d="M2301.835,361.21a.837.837,0,0,0,.571-.226c-.394-.395-.8-.783-1.2-1.169a.837.837,0,0,0,.627,1.4Z" transform="translate(-2151.112 -336.72)" fill="#fff"/>
        <path id="路径_6101-2" data-name="路径 6101" d="M2191.149,360.379a.841.841,0,1,0-.841.841A.841.841,0,0,0,2191.149,360.379Z" transform="translate(-2154.768 -336.729)" fill="#fff"/>
        <path id="路径_6102-2" data-name="路径 6102" d="M2181.724,361.213a.837.837,0,0,0,.523-1.493q-.6.576-1.188,1.162A.835.835,0,0,0,2181.724,361.213Z" transform="translate(-2155.044 -336.723)" fill="#fff"/>
        <path id="路径_6103-2" data-name="路径 6103" d="M2294.1,360.379a.84.84,0,1,0-.84.841A.84.84,0,0,0,2294.1,360.379Z" transform="translate(-2151.393 -336.729)" fill="#fff"/>
        <path id="路径_6104-2" data-name="路径 6104" d="M2216.887,360.379a.841.841,0,1,0-.841.841A.842.842,0,0,0,2216.887,360.379Z" transform="translate(-2153.925 -336.729)" fill="#fff"/>
        <path id="路径_6105-2" data-name="路径 6105" d="M2225.465,360.379a.841.841,0,1,0-.842.841A.842.842,0,0,0,2225.465,360.379Z" transform="translate(-2153.643 -336.729)" fill="#fff"/>
        <path id="路径_6106-2" data-name="路径 6106" d="M2199.728,360.379a.841.841,0,1,0-.841.841A.842.842,0,0,0,2199.728,360.379Z" transform="translate(-2154.487 -336.729)" fill="#fff"/>
        <path id="路径_6107-2" data-name="路径 6107" d="M2259.782,371.422a.841.841,0,1,0-.842.841A.842.842,0,0,0,2259.782,371.422Z" transform="translate(-2152.519 -336.367)" fill="#fff"/>
        <path id="路径_6108-2" data-name="路径 6108" d="M2242.624,371.422a.841.841,0,1,0-.842.841A.842.842,0,0,0,2242.624,371.422Z" transform="translate(-2153.081 -336.367)" fill="#fff"/>
        <path id="路径_6109-2" data-name="路径 6109" d="M2251.2,371.422a.841.841,0,1,0-.842.841A.842.842,0,0,0,2251.2,371.422Z" transform="translate(-2152.8 -336.367)" fill="#fff"/>
        <path id="路径_6110-2" data-name="路径 6110" d="M2276.938,371.422a.841.841,0,1,0-.841.841A.841.841,0,0,0,2276.938,371.422Z" transform="translate(-2151.956 -336.367)" fill="#fff"/>
        <path id="路径_6111-2" data-name="路径 6111" d="M2302.675,371.422a.841.841,0,1,0-.84.841A.841.841,0,0,0,2302.675,371.422Z" transform="translate(-2151.112 -336.367)" fill="#fff"/>
        <path id="路径_6112-2" data-name="路径 6112" d="M2294.1,371.422a.84.84,0,1,0-.84.841A.841.841,0,0,0,2294.1,371.422Z" transform="translate(-2151.393 -336.367)" fill="#fff"/>
        <path id="路径_6113-2" data-name="路径 6113" d="M2285.517,371.422a.841.841,0,1,0-.841.841A.841.841,0,0,0,2285.517,371.422Z" transform="translate(-2151.674 -336.367)" fill="#fff"/>
        <path id="路径_6114-2" data-name="路径 6114" d="M2268.36,371.422a.841.841,0,1,0-.841.841A.841.841,0,0,0,2268.36,371.422Z" transform="translate(-2152.237 -336.367)" fill="#fff"/>
        <path id="路径_6115-2" data-name="路径 6115" d="M2173.991,371.422a.84.84,0,1,0-.84.841A.841.841,0,0,0,2173.991,371.422Z" transform="translate(-2155.331 -336.367)" fill="#fff"/>
        <path id="路径_6116-2" data-name="路径 6116" d="M2182.571,371.422a.841.841,0,1,0-.841.841A.841.841,0,0,0,2182.571,371.422Z" transform="translate(-2155.05 -336.367)" fill="#fff"/>
        <path id="路径_6117-2" data-name="路径 6117" d="M2216.887,371.422a.841.841,0,1,0-.841.841A.842.842,0,0,0,2216.887,371.422Z" transform="translate(-2153.925 -336.367)" fill="#fff"/>
        <path id="路径_6118-2" data-name="路径 6118" d="M2225.465,371.422a.841.841,0,1,0-.842.841A.842.842,0,0,0,2225.465,371.422Z" transform="translate(-2153.643 -336.367)" fill="#fff"/>
        <path id="路径_6119-2" data-name="路径 6119" d="M2208.308,371.422a.841.841,0,1,0-.841.841A.842.842,0,0,0,2208.308,371.422Z" transform="translate(-2154.206 -336.367)" fill="#fff"/>
        <path id="路径_6120-2" data-name="路径 6120" d="M2191.149,371.422a.841.841,0,1,0-.841.841A.841.841,0,0,0,2191.149,371.422Z" transform="translate(-2154.768 -336.367)" fill="#fff"/>
        <path id="路径_6121-2" data-name="路径 6121" d="M2199.728,371.422a.841.841,0,1,0-.841.841A.842.842,0,0,0,2199.728,371.422Z" transform="translate(-2154.487 -336.367)" fill="#fff"/>
        <path id="路径_6122-2" data-name="路径 6122" d="M2234.044,371.422a.841.841,0,1,0-.842.841A.842.842,0,0,0,2234.044,371.422Z" transform="translate(-2153.362 -336.367)" fill="#fff"/>
        <path id="路径_6123-2" data-name="路径 6123" d="M2309.573,371.422a.841.841,0,1,0,1.681,0,.885.885,0,0,0-.01-.108q-.237-.327-.476-.653a.837.837,0,0,0-1.2.761Z" transform="translate(-2150.831 -336.367)" fill="#fff"/>
        <path id="路径_6124-2" data-name="路径 6124" d="M2208.308,382.464a.841.841,0,1,0-.841.841A.841.841,0,0,0,2208.308,382.464Z" transform="translate(-2154.206 -336.005)" fill="#fff"/>
        <path id="路径_6125-2" data-name="路径 6125" d="M2216.887,382.464a.841.841,0,1,0-.841.841A.841.841,0,0,0,2216.887,382.464Z" transform="translate(-2153.925 -336.005)" fill="#fff"/>
        <path id="路径_6126-2" data-name="路径 6126" d="M2225.465,382.464a.841.841,0,1,0-.842.841A.841.841,0,0,0,2225.465,382.464Z" transform="translate(-2153.643 -336.005)" fill="#fff"/>
        <path id="路径_6127-2" data-name="路径 6127" d="M2234.044,382.464a.841.841,0,1,0-.842.841A.841.841,0,0,0,2234.044,382.464Z" transform="translate(-2153.362 -336.005)" fill="#fff"/>
        <path id="路径_6128-2" data-name="路径 6128" d="M2173.991,382.464a.84.84,0,1,0-.84.841A.84.84,0,0,0,2173.991,382.464Z" transform="translate(-2155.331 -336.005)" fill="#fff"/>
        <path id="路径_6129-2" data-name="路径 6129" d="M2191.149,382.464a.841.841,0,1,0-.841.841A.841.841,0,0,0,2191.149,382.464Z" transform="translate(-2154.768 -336.005)" fill="#fff"/>
        <path id="路径_6130-2" data-name="路径 6130" d="M2199.728,382.464a.841.841,0,1,0-.841.841A.841.841,0,0,0,2199.728,382.464Z" transform="translate(-2154.487 -336.005)" fill="#fff"/>
        <path id="路径_6131-2" data-name="路径 6131" d="M2182.571,382.464a.841.841,0,1,0-.841.841A.84.84,0,0,0,2182.571,382.464Z" transform="translate(-2155.05 -336.005)" fill="#fff"/>
        <path id="路径_6132-2" data-name="路径 6132" d="M2285.517,382.464a.841.841,0,1,0-.841.841A.84.84,0,0,0,2285.517,382.464Z" transform="translate(-2151.674 -336.005)" fill="#fff"/>
        <path id="路径_6133-2" data-name="路径 6133" d="M2294.1,382.464a.84.84,0,1,0-.84.841A.84.84,0,0,0,2294.1,382.464Z" transform="translate(-2151.393 -336.005)" fill="#fff"/>
        <path id="路径_6134-2" data-name="路径 6134" d="M2276.938,382.464a.841.841,0,1,0-.841.841A.84.84,0,0,0,2276.938,382.464Z" transform="translate(-2151.956 -336.005)" fill="#fff"/>
        <path id="路径_6135-2" data-name="路径 6135" d="M2242.624,382.464a.841.841,0,1,0-.842.841A.841.841,0,0,0,2242.624,382.464Z" transform="translate(-2153.081 -336.005)" fill="#fff"/>
        <path id="路径_6136-2" data-name="路径 6136" d="M2251.2,382.464a.841.841,0,1,0-.842.841A.841.841,0,0,0,2251.2,382.464Z" transform="translate(-2152.8 -336.005)" fill="#fff"/>
        <path id="路径_6137-2" data-name="路径 6137" d="M2259.782,382.464a.841.841,0,1,0-.842.841A.841.841,0,0,0,2259.782,382.464Z" transform="translate(-2152.519 -336.005)" fill="#fff"/>
        <path id="路径_6138-2" data-name="路径 6138" d="M2268.36,382.464a.841.841,0,1,0-.841.841A.84.84,0,0,0,2268.36,382.464Z" transform="translate(-2152.237 -336.005)" fill="#fff"/>
        <path id="路径_6139-2" data-name="路径 6139" d="M2302.675,382.464a.841.841,0,1,0-.84.841A.84.84,0,0,0,2302.675,382.464Z" transform="translate(-2151.112 -336.005)" fill="#fff"/>
        <path id="路径_6140-2" data-name="路径 6140" d="M2311.254,382.464a.841.841,0,1,0-.84.841A.84.84,0,0,0,2311.254,382.464Z" transform="translate(-2150.831 -336.005)" fill="#fff"/>
        <path id="路径_6141-2" data-name="路径 6141" d="M2165.375,382.442a.835.835,0,0,0-.018-.17c-.16.31-.317.622-.474.934A.841.841,0,0,0,2165.375,382.442Z" transform="translate(-2155.574 -335.984)" fill="#fff"/>
        <path id="路径_6142-2" data-name="路径 6142" d="M2234.044,393.506a.841.841,0,1,0-.842.841A.841.841,0,0,0,2234.044,393.506Z" transform="translate(-2153.362 -335.643)" fill="#fff"/>
        <path id="路径_6143-2" data-name="路径 6143" d="M2242.624,393.506a.841.841,0,1,0-.842.841A.841.841,0,0,0,2242.624,393.506Z" transform="translate(-2153.081 -335.643)" fill="#fff"/>
        <path id="路径_6144-2" data-name="路径 6144" d="M2225.465,393.506a.841.841,0,1,0-.842.841A.841.841,0,0,0,2225.465,393.506Z" transform="translate(-2153.643 -335.643)" fill="#fff"/>
        <path id="路径_6145-2" data-name="路径 6145" d="M2259.782,393.506a.841.841,0,1,0-.842.841A.841.841,0,0,0,2259.782,393.506Z" transform="translate(-2152.519 -335.643)" fill="#fff"/>
        <path id="路径_6146-2" data-name="路径 6146" d="M2216.887,393.506a.841.841,0,1,0-.841.841A.841.841,0,0,0,2216.887,393.506Z" transform="translate(-2153.925 -335.643)" fill="#fff"/>
        <path id="路径_6147-2" data-name="路径 6147" d="M2251.2,393.506a.841.841,0,1,0-.842.841A.841.841,0,0,0,2251.2,393.506Z" transform="translate(-2152.8 -335.643)" fill="#fff"/>
        <path id="路径_6148-2" data-name="路径 6148" d="M2208.308,393.506a.841.841,0,1,0-.841.841A.841.841,0,0,0,2208.308,393.506Z" transform="translate(-2154.206 -335.643)" fill="#fff"/>
        <path id="路径_6149-2" data-name="路径 6149" d="M2182.571,393.506a.841.841,0,1,0-.841.841A.84.84,0,0,0,2182.571,393.506Z" transform="translate(-2155.05 -335.643)" fill="#fff"/>
        <path id="路径_6150-2" data-name="路径 6150" d="M2268.36,393.506a.841.841,0,1,0-.841.841A.84.84,0,0,0,2268.36,393.506Z" transform="translate(-2152.237 -335.643)" fill="#fff"/>
        <path id="路径_6151-2" data-name="路径 6151" d="M2165.412,393.506a.841.841,0,1,0-.841.841A.84.84,0,0,0,2165.412,393.506Z" transform="translate(-2155.613 -335.643)" fill="#fff"/>
        <path id="路径_6152-2" data-name="路径 6152" d="M2173.991,393.506a.84.84,0,1,0-.84.841A.84.84,0,0,0,2173.991,393.506Z" transform="translate(-2155.331 -335.643)" fill="#fff"/>
        <path id="路径_6153-2" data-name="路径 6153" d="M2199.728,393.506a.841.841,0,1,0-.841.841A.841.841,0,0,0,2199.728,393.506Z" transform="translate(-2154.487 -335.643)" fill="#fff"/>
        <path id="路径_6154-2" data-name="路径 6154" d="M2191.149,393.506a.841.841,0,1,0-.841.841A.841.841,0,0,0,2191.149,393.506Z" transform="translate(-2154.768 -335.643)" fill="#fff"/>
        <path id="路径_6155-2" data-name="路径 6155" d="M2302.675,393.506a.841.841,0,1,0-.84.841A.84.84,0,0,0,2302.675,393.506Z" transform="translate(-2151.112 -335.643)" fill="#fff"/>
        <path id="路径_6156-2" data-name="路径 6156" d="M2319.833,393.506a.841.841,0,1,0-.84.841A.84.84,0,0,0,2319.833,393.506Z" transform="translate(-2150.549 -335.643)" fill="#fff"/>
        <path id="路径_6157-2" data-name="路径 6157" d="M2311.254,393.506a.841.841,0,1,0-.84.841A.84.84,0,0,0,2311.254,393.506Z" transform="translate(-2150.831 -335.643)" fill="#fff"/>
        <path id="路径_6158-2" data-name="路径 6158" d="M2276.938,393.506a.841.841,0,1,0-.841.841A.84.84,0,0,0,2276.938,393.506Z" transform="translate(-2151.956 -335.643)" fill="#fff"/>
        <path id="路径_6159-2" data-name="路径 6159" d="M2294.1,393.506a.84.84,0,1,0-.84.841A.84.84,0,0,0,2294.1,393.506Z" transform="translate(-2151.393 -335.643)" fill="#fff"/>
        <path id="路径_6160-2" data-name="路径 6160" d="M2285.517,393.506a.841.841,0,1,0-.841.841A.84.84,0,0,0,2285.517,393.506Z" transform="translate(-2151.674 -335.643)" fill="#fff"/>
        <path id="路径_6161-2" data-name="路径 6161" d="M2216.887,404.548a.841.841,0,1,0-.841.842A.842.842,0,0,0,2216.887,404.548Z" transform="translate(-2153.925 -335.281)" fill="#fff"/>
        <path id="路径_6162-2" data-name="路径 6162" d="M2259.782,404.548a.841.841,0,1,0-.842.842A.842.842,0,0,0,2259.782,404.548Z" transform="translate(-2152.519 -335.281)" fill="#fff"/>
        <path id="路径_6163-2" data-name="路径 6163" d="M2268.36,404.548a.841.841,0,1,0-.841.842A.841.841,0,0,0,2268.36,404.548Z" transform="translate(-2152.237 -335.281)" fill="#fff"/>
        <path id="路径_6164-2" data-name="路径 6164" d="M2319.833,404.548a.841.841,0,1,0-.84.842A.841.841,0,0,0,2319.833,404.548Z" transform="translate(-2150.549 -335.281)" fill="#fff"/>
        <path id="路径_6165-2" data-name="路径 6165" d="M2276.938,404.548a.841.841,0,1,0-.841.842A.841.841,0,0,0,2276.938,404.548Z" transform="translate(-2151.956 -335.281)" fill="#fff"/>
        <path id="路径_6166-2" data-name="路径 6166" d="M2242.624,404.548a.841.841,0,1,0-.842.842A.842.842,0,0,0,2242.624,404.548Z" transform="translate(-2153.081 -335.281)" fill="#fff"/>
        <path id="路径_6167-2" data-name="路径 6167" d="M2294.1,404.548a.84.84,0,1,0-.84.842A.84.84,0,0,0,2294.1,404.548Z" transform="translate(-2151.393 -335.281)" fill="#fff"/>
        <path id="路径_6168-2" data-name="路径 6168" d="M2302.675,404.548a.841.841,0,1,0-.84.842A.841.841,0,0,0,2302.675,404.548Z" transform="translate(-2151.112 -335.281)" fill="#fff"/>
        <path id="路径_6169-2" data-name="路径 6169" d="M2285.517,404.548a.841.841,0,1,0-.841.842A.841.841,0,0,0,2285.517,404.548Z" transform="translate(-2151.674 -335.281)" fill="#fff"/>
        <path id="路径_6170-2" data-name="路径 6170" d="M2234.044,404.548a.841.841,0,1,0-.842.842A.842.842,0,0,0,2234.044,404.548Z" transform="translate(-2153.362 -335.281)" fill="#fff"/>
        <path id="路径_6171-2" data-name="路径 6171" d="M2251.2,404.548a.841.841,0,1,0-.842.842A.842.842,0,0,0,2251.2,404.548Z" transform="translate(-2152.8 -335.281)" fill="#fff"/>
        <path id="路径_6172-2" data-name="路径 6172" d="M2191.149,404.548a.841.841,0,1,0-.841.842A.841.841,0,0,0,2191.149,404.548Z" transform="translate(-2154.768 -335.281)" fill="#fff"/>
        <path id="路径_6173-2" data-name="路径 6173" d="M2199.728,404.548a.841.841,0,1,0-.841.842A.842.842,0,0,0,2199.728,404.548Z" transform="translate(-2154.487 -335.281)" fill="#fff"/>
        <path id="路径_6174-2" data-name="路径 6174" d="M2208.308,404.548a.841.841,0,1,0-.841.842A.842.842,0,0,0,2208.308,404.548Z" transform="translate(-2154.206 -335.281)" fill="#fff"/>
        <path id="路径_6175-2" data-name="路径 6175" d="M2165.412,404.548a.841.841,0,1,0-.841.842A.841.841,0,0,0,2165.412,404.548Z" transform="translate(-2155.613 -335.281)" fill="#fff"/>
        <path id="路径_6176-2" data-name="路径 6176" d="M2225.465,404.548a.841.841,0,1,0-.842.842A.842.842,0,0,0,2225.465,404.548Z" transform="translate(-2153.643 -335.281)" fill="#fff"/>
        <path id="路径_6177-2" data-name="路径 6177" d="M2182.571,404.548a.841.841,0,1,0-.841.842A.841.841,0,0,0,2182.571,404.548Z" transform="translate(-2155.05 -335.281)" fill="#fff"/>
        <path id="路径_6178-2" data-name="路径 6178" d="M2173.991,404.548a.84.84,0,1,0-.84.842A.84.84,0,0,0,2173.991,404.548Z" transform="translate(-2155.331 -335.281)" fill="#fff"/>
        <path id="路径_6179-2" data-name="路径 6179" d="M2311.254,404.548a.841.841,0,1,0-.84.842A.84.84,0,0,0,2311.254,404.548Z" transform="translate(-2150.831 -335.281)" fill="#fff"/>
        <path id="路径_6180-2" data-name="路径 6180" d="M2191.149,415.591a.841.841,0,1,0-.841.841A.842.842,0,0,0,2191.149,415.591Z" transform="translate(-2154.768 -334.919)" fill="#fff"/>
        <path id="路径_6181-2" data-name="路径 6181" d="M2242.624,415.591a.841.841,0,1,0-.842.841A.842.842,0,0,0,2242.624,415.591Z" transform="translate(-2153.081 -334.919)" fill="#fff"/>
        <path id="路径_6182-2" data-name="路径 6182" d="M2251.2,415.591a.841.841,0,1,0-.842.841A.842.842,0,0,0,2251.2,415.591Z" transform="translate(-2152.8 -334.919)" fill="#fff"/>
        <path id="路径_6183-2" data-name="路径 6183" d="M2259.782,415.591a.841.841,0,1,0-.842.841A.842.842,0,0,0,2259.782,415.591Z" transform="translate(-2152.519 -334.919)" fill="#fff"/>
        <path id="路径_6184-2" data-name="路径 6184" d="M2234.044,415.591a.841.841,0,1,0-.842.841A.842.842,0,0,0,2234.044,415.591Z" transform="translate(-2153.362 -334.919)" fill="#fff"/>
        <path id="路径_6185-2" data-name="路径 6185" d="M2208.308,415.591a.841.841,0,1,0-.841.841A.842.842,0,0,0,2208.308,415.591Z" transform="translate(-2154.206 -334.919)" fill="#fff"/>
        <path id="路径_6186-2" data-name="路径 6186" d="M2165.412,415.591a.841.841,0,1,0-.841.841A.841.841,0,0,0,2165.412,415.591Z" transform="translate(-2155.613 -334.919)" fill="#fff"/>
        <path id="路径_6187-2" data-name="路径 6187" d="M2216.887,415.591a.841.841,0,1,0-.841.841A.842.842,0,0,0,2216.887,415.591Z" transform="translate(-2153.925 -334.919)" fill="#fff"/>
        <path id="路径_6188-2" data-name="路径 6188" d="M2225.465,415.591a.841.841,0,1,0-.842.841A.842.842,0,0,0,2225.465,415.591Z" transform="translate(-2153.643 -334.919)" fill="#fff"/>
        <path id="路径_6189-2" data-name="路径 6189" d="M2319.833,415.591a.841.841,0,1,0-.84.841A.841.841,0,0,0,2319.833,415.591Z" transform="translate(-2150.549 -334.919)" fill="#fff"/>
        <path id="路径_6190-2" data-name="路径 6190" d="M2182.571,415.591a.841.841,0,1,0-.841.841A.841.841,0,0,0,2182.571,415.591Z" transform="translate(-2155.05 -334.919)" fill="#fff"/>
        <path id="路径_6191-2" data-name="路径 6191" d="M2199.728,415.591a.841.841,0,1,0-.841.841A.842.842,0,0,0,2199.728,415.591Z" transform="translate(-2154.487 -334.919)" fill="#fff"/>
        <path id="路径_6192-2" data-name="路径 6192" d="M2173.991,415.591a.84.84,0,1,0-.84.841A.841.841,0,0,0,2173.991,415.591Z" transform="translate(-2155.331 -334.919)" fill="#fff"/>
        <path id="路径_6193-2" data-name="路径 6193" d="M2311.254,415.591a.841.841,0,1,0-.84.841A.841.841,0,0,0,2311.254,415.591Z" transform="translate(-2150.831 -334.919)" fill="#fff"/>
        <path id="路径_6194-2" data-name="路径 6194" d="M2294.1,415.591a.84.84,0,1,0-.84.841A.841.841,0,0,0,2294.1,415.591Z" transform="translate(-2151.393 -334.919)" fill="#fff"/>
        <path id="路径_6195-2" data-name="路径 6195" d="M2285.517,415.591a.841.841,0,1,0-.841.841A.841.841,0,0,0,2285.517,415.591Z" transform="translate(-2151.674 -334.919)" fill="#fff"/>
        <path id="路径_6196-2" data-name="路径 6196" d="M2276.938,415.591a.841.841,0,1,0-.841.841A.841.841,0,0,0,2276.938,415.591Z" transform="translate(-2151.956 -334.919)" fill="#fff"/>
        <path id="路径_6197-2" data-name="路径 6197" d="M2268.36,415.591a.841.841,0,1,0-.841.841A.841.841,0,0,0,2268.36,415.591Z" transform="translate(-2152.237 -334.919)" fill="#fff"/>
        <path id="路径_6198-2" data-name="路径 6198" d="M2302.675,415.591a.841.841,0,1,0-.84.841A.841.841,0,0,0,2302.675,415.591Z" transform="translate(-2151.112 -334.919)" fill="#fff"/>
        <path id="路径_6199-2" data-name="路径 6199" d="M2156.561,416.184a.836.836,0,0,0-.507-1.426c-.044.555-.081,1.112-.115,1.67a.217.217,0,0,0,.027,0A.846.846,0,0,0,2156.561,416.184Z" transform="translate(-2155.868 -334.918)" fill="#fff"/>
        <path id="路径_6200-2" data-name="路径 6200" d="M2251.2,426.633a.841.841,0,1,0-.842.841A.841.841,0,0,0,2251.2,426.633Z" transform="translate(-2152.8 -334.557)" fill="#fff"/>
        <path id="路径_6201-2" data-name="路径 6201" d="M2259.782,426.633a.841.841,0,1,0-.842.841A.841.841,0,0,0,2259.782,426.633Z" transform="translate(-2152.519 -334.557)" fill="#fff"/>
        <path id="路径_6202-2" data-name="路径 6202" d="M2276.938,426.633a.841.841,0,1,0-.841.841A.84.84,0,0,0,2276.938,426.633Z" transform="translate(-2151.956 -334.557)" fill="#fff"/>
        <path id="路径_6203-2" data-name="路径 6203" d="M2285.517,426.633a.841.841,0,1,0-.841.841A.84.84,0,0,0,2285.517,426.633Z" transform="translate(-2151.674 -334.557)" fill="#fff"/>
        <path id="路径_6204-2" data-name="路径 6204" d="M2294.1,426.633a.84.84,0,1,0-.84.841A.84.84,0,0,0,2294.1,426.633Z" transform="translate(-2151.393 -334.557)" fill="#fff"/>
        <path id="路径_6205-2" data-name="路径 6205" d="M2234.044,426.633a.841.841,0,1,0-.842.841A.841.841,0,0,0,2234.044,426.633Z" transform="translate(-2153.362 -334.557)" fill="#fff"/>
        <path id="路径_6206-2" data-name="路径 6206" d="M2242.624,426.633a.841.841,0,1,0-.842.841A.841.841,0,0,0,2242.624,426.633Z" transform="translate(-2153.081 -334.557)" fill="#fff"/>
        <path id="路径_6207-2" data-name="路径 6207" d="M2225.465,426.633a.841.841,0,1,0-.842.841A.841.841,0,0,0,2225.465,426.633Z" transform="translate(-2153.643 -334.557)" fill="#fff"/>
        <path id="路径_6208-2" data-name="路径 6208" d="M2216.887,426.633a.841.841,0,1,0-.841.841A.841.841,0,0,0,2216.887,426.633Z" transform="translate(-2153.925 -334.557)" fill="#fff"/>
        <path id="路径_6209-2" data-name="路径 6209" d="M2302.675,426.633a.841.841,0,1,0-.84.841A.84.84,0,0,0,2302.675,426.633Z" transform="translate(-2151.112 -334.557)" fill="#fff"/>
        <path id="路径_6210-2" data-name="路径 6210" d="M2268.36,426.633a.841.841,0,1,0-.841.841A.84.84,0,0,0,2268.36,426.633Z" transform="translate(-2152.237 -334.557)" fill="#fff"/>
        <path id="路径_6211-2" data-name="路径 6211" d="M2182.571,426.633a.841.841,0,1,0-.841.841A.84.84,0,0,0,2182.571,426.633Z" transform="translate(-2155.05 -334.557)" fill="#fff"/>
        <path id="路径_6212-2" data-name="路径 6212" d="M2199.728,426.633a.841.841,0,1,0-.841.841A.841.841,0,0,0,2199.728,426.633Z" transform="translate(-2154.487 -334.557)" fill="#fff"/>
        <path id="路径_6213-2" data-name="路径 6213" d="M2191.149,426.633a.841.841,0,1,0-.841.841A.841.841,0,0,0,2191.149,426.633Z" transform="translate(-2154.768 -334.557)" fill="#fff"/>
        <path id="路径_6214-2" data-name="路径 6214" d="M2173.991,426.633a.84.84,0,1,0-.84.841A.84.84,0,0,0,2173.991,426.633Z" transform="translate(-2155.331 -334.557)" fill="#fff"/>
        <path id="路径_6215-2" data-name="路径 6215" d="M2311.254,426.633a.841.841,0,1,0-.84.841A.84.84,0,0,0,2311.254,426.633Z" transform="translate(-2150.831 -334.557)" fill="#fff"/>
        <path id="路径_6216-2" data-name="路径 6216" d="M2165.412,426.633a.841.841,0,1,0-.841.841A.84.84,0,0,0,2165.412,426.633Z" transform="translate(-2155.613 -334.557)" fill="#fff"/>
        <path id="路径_6217-2" data-name="路径 6217" d="M2319.833,426.633a.841.841,0,1,0-.84.841A.84.84,0,0,0,2319.833,426.633Z" transform="translate(-2150.549 -334.557)" fill="#fff"/>
        <path id="路径_6218-2" data-name="路径 6218" d="M2208.308,426.633a.841.841,0,1,0-.841.841A.841.841,0,0,0,2208.308,426.633Z" transform="translate(-2154.206 -334.557)" fill="#fff"/>
        <path id="路径_6219-2" data-name="路径 6219" d="M2156.564,427.228a.841.841,0,0,0-.594-1.436.8.8,0,0,0-.1.009c.026.56.061,1.117.1,1.672h0A.85.85,0,0,0,2156.564,427.228Z" transform="translate(-2155.87 -334.557)" fill="#fff"/>
        <path id="路径_6220-2" data-name="路径 6220" d="M2225.465,437.676a.841.841,0,1,0-.842.841A.842.842,0,0,0,2225.465,437.676Z" transform="translate(-2153.643 -334.195)" fill="#fff"/>
        <path id="路径_6221-2" data-name="路径 6221" d="M2216.887,437.676a.841.841,0,1,0-.841.841A.842.842,0,0,0,2216.887,437.676Z" transform="translate(-2153.925 -334.195)" fill="#fff"/>
        <path id="路径_6222-2" data-name="路径 6222" d="M2259.782,437.676a.841.841,0,1,0-.842.841A.842.842,0,0,0,2259.782,437.676Z" transform="translate(-2152.519 -334.195)" fill="#fff"/>
        <path id="路径_6223-2" data-name="路径 6223" d="M2234.044,437.676a.841.841,0,1,0-.842.841A.842.842,0,0,0,2234.044,437.676Z" transform="translate(-2153.362 -334.195)" fill="#fff"/>
        <path id="路径_6224-2" data-name="路径 6224" d="M2251.2,437.676a.841.841,0,1,0-.842.841A.842.842,0,0,0,2251.2,437.676Z" transform="translate(-2152.8 -334.195)" fill="#fff"/>
        <path id="路径_6225-2" data-name="路径 6225" d="M2208.308,437.676a.841.841,0,1,0-.841.841A.842.842,0,0,0,2208.308,437.676Z" transform="translate(-2154.206 -334.195)" fill="#fff"/>
        <path id="路径_6226-2" data-name="路径 6226" d="M2165.412,437.676a.841.841,0,1,0-.841.841A.841.841,0,0,0,2165.412,437.676Z" transform="translate(-2155.613 -334.195)" fill="#fff"/>
        <path id="路径_6227-2" data-name="路径 6227" d="M2173.991,437.676a.84.84,0,1,0-.84.841A.841.841,0,0,0,2173.991,437.676Z" transform="translate(-2155.331 -334.195)" fill="#fff"/>
        <path id="路径_6228-2" data-name="路径 6228" d="M2199.728,437.676a.841.841,0,1,0-.841.841A.842.842,0,0,0,2199.728,437.676Z" transform="translate(-2154.487 -334.195)" fill="#fff"/>
        <path id="路径_6229-2" data-name="路径 6229" d="M2268.36,437.676a.841.841,0,1,0-.841.841A.841.841,0,0,0,2268.36,437.676Z" transform="translate(-2152.237 -334.195)" fill="#fff"/>
        <path id="路径_6230-2" data-name="路径 6230" d="M2191.149,437.676a.841.841,0,1,0-.841.841A.841.841,0,0,0,2191.149,437.676Z" transform="translate(-2154.768 -334.195)" fill="#fff"/>
        <path id="路径_6231-2" data-name="路径 6231" d="M2182.571,437.676a.841.841,0,1,0-.841.841A.841.841,0,0,0,2182.571,437.676Z" transform="translate(-2155.05 -334.195)" fill="#fff"/>
        <path id="路径_6232-2" data-name="路径 6232" d="M2242.624,437.676a.841.841,0,1,0-.842.841A.842.842,0,0,0,2242.624,437.676Z" transform="translate(-2153.081 -334.195)" fill="#fff"/>
        <path id="路径_6233-2" data-name="路径 6233" d="M2302.675,437.676a.841.841,0,1,0-.84.841A.841.841,0,0,0,2302.675,437.676Z" transform="translate(-2151.112 -334.195)" fill="#fff"/>
        <path id="路径_6234-2" data-name="路径 6234" d="M2319.833,437.676a.841.841,0,1,0-.84.841A.841.841,0,0,0,2319.833,437.676Z" transform="translate(-2150.549 -334.195)" fill="#fff"/>
        <path id="路径_6235-2" data-name="路径 6235" d="M2276.938,437.676a.841.841,0,1,0-.841.841A.841.841,0,0,0,2276.938,437.676Z" transform="translate(-2151.956 -334.195)" fill="#fff"/>
        <path id="路径_6236-2" data-name="路径 6236" d="M2311.254,437.676a.841.841,0,1,0-.84.841A.841.841,0,0,0,2311.254,437.676Z" transform="translate(-2150.831 -334.195)" fill="#fff"/>
        <path id="路径_6237-2" data-name="路径 6237" d="M2294.1,437.676a.84.84,0,1,0-.84.841A.841.841,0,0,0,2294.1,437.676Z" transform="translate(-2151.393 -334.195)" fill="#fff"/>
        <path id="路径_6238-2" data-name="路径 6238" d="M2285.517,437.676a.841.841,0,1,0-.841.841A.841.841,0,0,0,2285.517,437.676Z" transform="translate(-2151.674 -334.195)" fill="#fff"/>
        <path id="路径_6239-2" data-name="路径 6239" d="M2208.308,448.718a.841.841,0,1,0-.841.841A.842.842,0,0,0,2208.308,448.718Z" transform="translate(-2154.206 -333.833)" fill="#fff"/>
        <path id="路径_6240-2" data-name="路径 6240" d="M2199.728,448.718a.841.841,0,1,0-.841.841A.842.842,0,0,0,2199.728,448.718Z" transform="translate(-2154.487 -333.833)" fill="#fff"/>
        <path id="路径_6241-2" data-name="路径 6241" d="M2216.887,448.718a.841.841,0,1,0-.841.841A.842.842,0,0,0,2216.887,448.718Z" transform="translate(-2153.925 -333.833)" fill="#fff"/>
        <path id="路径_6242-2" data-name="路径 6242" d="M2319.833,448.718a.841.841,0,1,0-.84.841A.841.841,0,0,0,2319.833,448.718Z" transform="translate(-2150.549 -333.833)" fill="#fff"/>
        <path id="路径_6243-2" data-name="路径 6243" d="M2191.149,448.718a.841.841,0,1,0-.841.841A.842.842,0,0,0,2191.149,448.718Z" transform="translate(-2154.768 -333.833)" fill="#fff"/>
        <path id="路径_6244-2" data-name="路径 6244" d="M2165.412,448.718a.841.841,0,1,0-.841.841A.841.841,0,0,0,2165.412,448.718Z" transform="translate(-2155.613 -333.833)" fill="#fff"/>
        <path id="路径_6245-2" data-name="路径 6245" d="M2182.571,448.718a.841.841,0,1,0-.841.841A.841.841,0,0,0,2182.571,448.718Z" transform="translate(-2155.05 -333.833)" fill="#fff"/>
        <path id="路径_6246-2" data-name="路径 6246" d="M2173.991,448.718a.84.84,0,1,0-.84.841A.841.841,0,0,0,2173.991,448.718Z" transform="translate(-2155.331 -333.833)" fill="#fff"/>
        <path id="路径_6247-2" data-name="路径 6247" d="M2294.1,448.718a.84.84,0,1,0-.84.841A.841.841,0,0,0,2294.1,448.718Z" transform="translate(-2151.393 -333.833)" fill="#fff"/>
        <path id="路径_6248-2" data-name="路径 6248" d="M2302.675,448.718a.841.841,0,1,0-.84.841A.841.841,0,0,0,2302.675,448.718Z" transform="translate(-2151.112 -333.833)" fill="#fff"/>
        <path id="路径_6249-2" data-name="路径 6249" d="M2311.254,448.718a.841.841,0,1,0-.84.841A.841.841,0,0,0,2311.254,448.718Z" transform="translate(-2150.831 -333.833)" fill="#fff"/>
        <path id="路径_6250-2" data-name="路径 6250" d="M2268.36,448.718a.841.841,0,1,0-.841.841A.841.841,0,0,0,2268.36,448.718Z" transform="translate(-2152.237 -333.833)" fill="#fff"/>
        <path id="路径_6251-2" data-name="路径 6251" d="M2225.465,448.718a.841.841,0,1,0-.842.841A.842.842,0,0,0,2225.465,448.718Z" transform="translate(-2153.643 -333.833)" fill="#fff"/>
        <path id="路径_6252-2" data-name="路径 6252" d="M2276.938,448.718a.841.841,0,1,0-.841.841A.841.841,0,0,0,2276.938,448.718Z" transform="translate(-2151.956 -333.833)" fill="#fff"/>
        <path id="路径_6253-2" data-name="路径 6253" d="M2285.517,448.718a.841.841,0,1,0-.841.841A.841.841,0,0,0,2285.517,448.718Z" transform="translate(-2151.674 -333.833)" fill="#fff"/>
        <path id="路径_6254-2" data-name="路径 6254" d="M2234.044,448.718a.841.841,0,1,0-.842.841A.842.842,0,0,0,2234.044,448.718Z" transform="translate(-2153.362 -333.833)" fill="#fff"/>
        <path id="路径_6255-2" data-name="路径 6255" d="M2242.624,448.718a.841.841,0,1,0-.842.841A.842.842,0,0,0,2242.624,448.718Z" transform="translate(-2153.081 -333.833)" fill="#fff"/>
        <path id="路径_6256-2" data-name="路径 6256" d="M2251.2,448.718a.841.841,0,1,0-.842.841A.842.842,0,0,0,2251.2,448.718Z" transform="translate(-2152.8 -333.833)" fill="#fff"/>
        <path id="路径_6257-2" data-name="路径 6257" d="M2259.782,448.718a.841.841,0,1,0-.842.841A.842.842,0,0,0,2259.782,448.718Z" transform="translate(-2152.519 -333.833)" fill="#fff"/>
        <path id="路径_6258-2" data-name="路径 6258" d="M2182.571,459.76a.841.841,0,1,0-.841.841A.84.84,0,0,0,2182.571,459.76Z" transform="translate(-2155.05 -333.471)" fill="#fff"/>
        <path id="路径_6259-2" data-name="路径 6259" d="M2251.2,459.76a.841.841,0,1,0-.842.841A.841.841,0,0,0,2251.2,459.76Z" transform="translate(-2152.8 -333.471)" fill="#fff"/>
        <path id="路径_6260-2" data-name="路径 6260" d="M2268.36,459.76a.841.841,0,1,0-.841.841A.84.84,0,0,0,2268.36,459.76Z" transform="translate(-2152.237 -333.471)" fill="#fff"/>
        <path id="路径_6261-2" data-name="路径 6261" d="M2259.782,459.76a.841.841,0,1,0-.842.841A.841.841,0,0,0,2259.782,459.76Z" transform="translate(-2152.519 -333.471)" fill="#fff"/>
        <path id="路径_6262-2" data-name="路径 6262" d="M2285.517,459.76a.841.841,0,1,0-.841.841A.84.84,0,0,0,2285.517,459.76Z" transform="translate(-2151.674 -333.471)" fill="#fff"/>
        <path id="路径_6263-2" data-name="路径 6263" d="M2276.938,459.76a.841.841,0,1,0-.841.841A.84.84,0,0,0,2276.938,459.76Z" transform="translate(-2151.956 -333.471)" fill="#fff"/>
        <path id="路径_6264-2" data-name="路径 6264" d="M2294.1,459.76a.84.84,0,1,0-.84.841A.84.84,0,0,0,2294.1,459.76Z" transform="translate(-2151.393 -333.471)" fill="#fff"/>
        <path id="路径_6265-2" data-name="路径 6265" d="M2311.254,459.76a.841.841,0,1,0-.84.841A.84.84,0,0,0,2311.254,459.76Z" transform="translate(-2150.831 -333.471)" fill="#fff"/>
        <path id="路径_6266-2" data-name="路径 6266" d="M2318.152,459.76a.839.839,0,0,0,.25.6c.24-.474.478-.948.709-1.427a.925.925,0,0,0-.118-.011A.84.84,0,0,0,2318.152,459.76Z" transform="translate(-2150.549 -333.471)" fill="#fff"/>
        <path id="路径_6267-2" data-name="路径 6267" d="M2302.675,459.76a.841.841,0,1,0-.84.841A.84.84,0,0,0,2302.675,459.76Z" transform="translate(-2151.112 -333.471)" fill="#fff"/>
        <path id="路径_6268-2" data-name="路径 6268" d="M2191.149,459.76a.841.841,0,1,0-.841.841A.841.841,0,0,0,2191.149,459.76Z" transform="translate(-2154.768 -333.471)" fill="#fff"/>
        <path id="路径_6269-2" data-name="路径 6269" d="M2165.4,459.76a.836.836,0,0,0-1.139-.784c.242.5.491,1,.743,1.5A.839.839,0,0,0,2165.4,459.76Z" transform="translate(-2155.595 -333.471)" fill="#fff"/>
        <path id="路径_6270-2" data-name="路径 6270" d="M2208.308,459.76a.841.841,0,1,0-.841.841A.841.841,0,0,0,2208.308,459.76Z" transform="translate(-2154.206 -333.471)" fill="#fff"/>
        <path id="路径_6271-2" data-name="路径 6271" d="M2199.728,459.76a.841.841,0,1,0-.841.841A.841.841,0,0,0,2199.728,459.76Z" transform="translate(-2154.487 -333.471)" fill="#fff"/>
        <path id="路径_6272-2" data-name="路径 6272" d="M2173.991,459.76a.84.84,0,1,0-.84.841A.84.84,0,0,0,2173.991,459.76Z" transform="translate(-2155.331 -333.471)" fill="#fff"/>
        <path id="路径_6273-2" data-name="路径 6273" d="M2242.624,459.76a.841.841,0,1,0-.842.841A.841.841,0,0,0,2242.624,459.76Z" transform="translate(-2153.081 -333.471)" fill="#fff"/>
        <path id="路径_6274-2" data-name="路径 6274" d="M2216.887,459.76a.841.841,0,1,0-.841.841A.841.841,0,0,0,2216.887,459.76Z" transform="translate(-2153.925 -333.471)" fill="#fff"/>
        <path id="路径_6275-2" data-name="路径 6275" d="M2234.044,459.76a.841.841,0,1,0-.842.841A.841.841,0,0,0,2234.044,459.76Z" transform="translate(-2153.362 -333.471)" fill="#fff"/>
        <path id="路径_6276-2" data-name="路径 6276" d="M2225.465,459.76a.841.841,0,1,0-.842.841A.841.841,0,0,0,2225.465,459.76Z" transform="translate(-2153.643 -333.471)" fill="#fff"/>
      </g>
      <g id="矩形_1877" data-name="矩形 1877" transform="translate(-0.467 0.178)" fill="none" stroke="#707070" stroke-width="1" opacity="0">
        <rect width="206" height="175" stroke="none"/>
        <rect x="0.5" y="0.5" width="205" height="174" fill="none"/>
      </g>
    </g>
    <g id="组_1339" data-name="组 1339" transform="translate(305.213 609.259)">
      <path id="路径_6277" data-name="路径 6277" d="M2127.357,509.865l-5.809-5.808,5.809-5.809-1.84-1.84-5.809,5.809-5.808-5.808-1.84,1.84,5.809,5.808-5.809,5.809,1.84,1.84,5.809-5.808,5.808,5.808Z" transform="translate(-2052.302 -496.409)" fill="#fff"/>
      <g id="组_1326" data-name="组 1326" transform="translate(0 9.684) rotate(-90)">
        <path id="路径_6280-2" data-name="路径 6280" d="M2.756,53.349l-1.7-1.7a1.679,1.679,0,0,1,.157-2.513L2.546,48.1a2.242,2.242,0,0,0,.21-3.356l-1.7-1.7a1.679,1.679,0,0,1,.157-2.513l1.335-1.037a2.242,2.242,0,0,0,.21-3.356l-1.7-1.7a1.679,1.679,0,0,1,.157-2.513l1.335-1.038a2.243,2.243,0,0,0,.21-3.356l-1.7-1.7a1.679,1.679,0,0,1,.157-2.513l1.335-1.037a2.243,2.243,0,0,0,.209-3.356l-1.7-1.7A1.679,1.679,0,0,1,1.212,14.7l1.335-1.037a2.243,2.243,0,0,0,.209-3.356l-1.7-1.7a1.679,1.679,0,0,1,.157-2.513L2.547,5.057A2.243,2.243,0,0,0,2.756,1.7L1.055,0l-.4.4,1.7,1.7A1.679,1.679,0,0,1,2.2,4.613L.866,5.65a2.242,2.242,0,0,0-.21,3.356l1.7,1.7A1.679,1.679,0,0,1,2.2,13.221L.866,14.258a2.242,2.242,0,0,0-.21,3.356l1.7,1.7A1.679,1.679,0,0,1,2.2,21.829L.866,22.866a2.242,2.242,0,0,0-.21,3.356l1.7,1.7A1.679,1.679,0,0,1,2.2,30.437L.866,31.474a2.242,2.242,0,0,0-.21,3.356l1.7,1.7A1.68,1.68,0,0,1,2.2,39.045L.867,40.082a2.242,2.242,0,0,0-.21,3.356l1.7,1.7A1.68,1.68,0,0,1,2.2,47.653L.867,48.69a2.242,2.242,0,0,0-.21,3.356l1.7,1.7.4-.4Z" transform="translate(0)" fill="#fff"/>
      </g>
    </g>
    <ellipse id="椭圆_125" data-name="椭圆 125" cx="10.5" cy="10" rx="10.5" ry="10" transform="translate(142 130)" fill="#fff" opacity="0.2"/>
    <ellipse id="椭圆_126" data-name="椭圆 126" cx="5" cy="5.5" rx="5" ry="5.5" transform="translate(47 598)" fill="#fff" opacity="0.2"/>
    <ellipse id="椭圆_127" data-name="椭圆 127" cx="5.5" cy="4.5" rx="5.5" ry="4.5" transform="translate(380 373)" fill="#fff" opacity="0.2"/>
  </g>
</svg>
