<svg xmlns="http://www.w3.org/2000/svg" xmlns:xlink="http://www.w3.org/1999/xlink" width="414" height="760" viewBox="0 0 414 760">
  <defs>
    <clipPath id="clip-path">
      <rect id="矩形_3352" data-name="矩形 3352" width="414" height="760" transform="translate(-636 -10719)" fill="#f15a24"/>
    </clipPath>
  </defs>
  <g id="蒙版组_100" data-name="蒙版组 100" transform="translate(636 10719)" clip-path="url(#clip-path)">
    <g id="组_3855" data-name="组 3855">
      <rect id="矩形_3351" data-name="矩形 3351" width="414" height="760" transform="translate(-636 -10719)" fill="#f15a24"/>
      <path id="路径_12432" data-name="路径 12432" d="M77,28.425c66.985-45.49,125.472-30.493,189.457,4,54.488,29.493,107.476,74.983,168.462,78.982s114.474-18,167.962,12.5c71.984,40.491,75.983,117.473,43.99,174.46-43.99,79.482-131.97,86.48-198.455,47.489-54.987-32.493-109.975-68.984-194.956-54.488-62.986,10.5-114.474,70.984-180.459,40.491C-1.478,296.865-46.467,112.906,77,28.425Z" transform="matrix(0.809, 0.588, -0.588, 0.809, -546.519, -10648.691)" fill="#f88736"/>
    </g>
  </g>
</svg>
