<svg xmlns="http://www.w3.org/2000/svg" width="83.83" height="63.167" viewBox="0 0 83.83 63.167">
  <path id="路径_12427" data-name="路径 12427" d="M21.843,29.222a15.433,15.433,0,0,1,7.97,4.428,16.908,16.908,0,0,1,5.018,12.4,16.718,16.718,0,0,1-5.018,12.1,17.823,17.823,0,0,1-24.795,0A16.718,16.718,0,0,1,0,46.047a22.172,22.172,0,0,1,1.476-7.675L20.367,0H33.06Zm49,0a15.433,15.433,0,0,1,7.97,4.428,16.908,16.908,0,0,1,5.018,12.4,16.718,16.718,0,0,1-5.018,12.1,17.823,17.823,0,0,1-24.795,0A15.63,15.63,0,0,1,49,46.047a22.172,22.172,0,0,1,1.476-7.675L69.366,0H82.059Z" fill="#f88736"/>
</svg>
