<svg xmlns="http://www.w3.org/2000/svg" xmlns:xlink="http://www.w3.org/1999/xlink" width="46.115" height="46.115" viewBox="0 0 46.115 46.115">
  <defs>
    <clipPath id="clip-path">
      <circle id="Ellipse_1070" data-name="Ellipse 1070" cx="18.5" cy="18.5" r="18.5" transform="translate(2165.913 12454.872)" fill="#bc0505"/>
    </clipPath>
  </defs>
  <g id="Group_2480" data-name="Group 2480" transform="translate(-2164 -12452)">
    <path id="Path_6334" data-name="Path 6334" d="M449.053,49.417a21.141,21.141,0,1,1-21.143,21.141,21.165,21.165,0,0,1,21.143-21.141m0-1.916a23.057,23.057,0,1,0,23.056,23.057A23.058,23.058,0,0,0,449.053,47.5Z" transform="translate(1738.006 12404.499)" fill="#6e77a3"/>
    <g id="Mask_Group_34" data-name="Mask Group 34" transform="translate(2.087 2.128)" clip-path="url(#clip-path)">
      <g id="Group_2479" data-name="Group 2479" transform="translate(2171.397 12460.68)">
        <g id="XMLID_122_" transform="translate(0 0)">
          <g id="Group_2479-2" data-name="Group 2479">
            <path id="Path_10622" data-name="Path 10622" d="M74.777,14.186A19.375,19.375,0,0,0,75,11.544,8.937,8.937,0,0,0,72.6,5.18c.568-3.173-.094-4.616-.4-5.11-1.136-.4-3.952,1.041-5.49,2.057-2.509-.734-7.81-.663-9.8.19C53.243-.31,51.3.091,51.3.091a7.74,7.74,0,0,0-.332,5.539,7.44,7.44,0,0,0-2.106,5.51,17.032,17.032,0,0,0,.116,1.972c1.039,5.465,5.37,7.823,9.623,8.229a3.83,3.83,0,0,0-1.515,2.473,4.94,4.94,0,0,1-3.68.3c-1.763-.557-2.438-4.048-5.077-3.55-.571.107-.458.484.037.8a5.191,5.191,0,0,1,2.145,2.558,4.327,4.327,0,0,0,4.373,2.967,13.372,13.372,0,0,0,2.013-.14s.023,2.715.023,3.773c0,1.218-1.644,1.561-1.644,2.145,0,.232.544.255.982.255.864,0,2.663-.72,2.663-1.986,0-1.006.016-4.388.016-4.98a1.912,1.912,0,0,1,.693-1.706s.085,6.908-.167,7.834c-.3,1.089-.83.934-.83,1.419,0,.723,2.162.177,2.879-1.406.555-1.237.306-8.011.306-8.011l.578-.013s.007,3.1-.013,4.52c-.021,1.468-.172,3.324.7,4.2.572.576,2.326,1.587,2.326.663,0-.535-1.228-.978-1.228-2.428V24.347c.746,0,.9,2.2.9,2.2l.269,4.08a2.082,2.082,0,0,0,1.608,2.11c.631.221,1.98.281,2.044-.09s-1.625-.922-1.641-2.074c-.009-.7.031-1.113.031-4.166s-.41-4.18-1.838-5.079C69.7,20.9,74,19.05,74.777,14.186Z" transform="translate(-47.949 0)" fill="#6e77a3"/>
          </g>
        </g>
        <rect id="Rectangle_2906" data-name="Rectangle 2906" width="8" height="10" transform="translate(10.516 23.192)" fill="#6e77a3"/>
      </g>
    </g>
  </g>
</svg>
