<svg xmlns="http://www.w3.org/2000/svg" width="70" height="70" viewBox="0 0 70 70">
  <g id="Group_1653" data-name="Group 1653" transform="translate(167 -3310)">
    <path id="reddit" d="M40.8,17.35a5.122,5.122,0,0,0-3.665,1.561,24.61,24.61,0,0,0-13.269-4.153L26.542,2.5l8.534,1.944A3.829,3.829,0,0,0,38.867,8.3,3.9,3.9,0,1,0,35.452,2.66L26.027.54a.9.9,0,0,0-1.066.7l-2.942,13.51a24.914,24.914,0,0,0-13.19,4.2,5.113,5.113,0,0,0-3.715-1.6c-5.379,0-7.141,7.325-2.215,9.829a11.152,11.152,0,0,0-.253,2.426C2.646,37.833,11.78,44.5,23,44.5c11.264,0,20.4-6.667,20.4-14.895a9.537,9.537,0,0,0-.3-2.466,5.181,5.181,0,0,0-2.3-9.789ZM10.715,27.7a3.818,3.818,0,1,1,3.841,3.851A3.855,3.855,0,0,1,10.715,27.7ZM31.45,36.878c-3.522,3.574-13.46,3.574-16.984,0a.928.928,0,1,1,1.278-1.345c2.69,2.8,11.612,2.847,14.419,0a.931.931,0,0,1,1.287,1.345Zm-.078-5.32a3.873,3.873,0,1,1,3.841-3.847A3.826,3.826,0,0,1,31.372,31.558Z" transform="translate(-155 3322.5)" fill="#ff5722"/>
    <g id="Rectangle_2337" data-name="Rectangle 2337" transform="translate(-167 3310)" fill="none" stroke="#707070" stroke-width="1" opacity="0">
      <rect width="70" height="70" stroke="none"/>
      <rect x="0.5" y="0.5" width="69" height="69" fill="none"/>
    </g>
  </g>
</svg>
