<svg xmlns="http://www.w3.org/2000/svg" width="70" height="70" viewBox="0 0 70 70">
  <g id="Group_1655" data-name="Group 1655" transform="translate(261 -3228)">
    <path id="Twitter_Logo" data-name="Twitter Logo" d="M49,4.616a20.377,20.377,0,0,1-5.773,1.547A9.9,9.9,0,0,0,47.646.717,20.425,20.425,0,0,1,41.26,3.108,10.132,10.132,0,0,0,33.923,0,9.948,9.948,0,0,0,23.874,9.842a9.644,9.644,0,0,0,.259,2.242A28.73,28.73,0,0,1,3.412,1.8a9.663,9.663,0,0,0-1.361,4.95,9.8,9.8,0,0,0,4.472,8.2A10.2,10.2,0,0,1,1.97,13.713l0,.124a9.907,9.907,0,0,0,8.065,9.654,10.156,10.156,0,0,1-2.649.348,10.352,10.352,0,0,1-1.889-.177A10.04,10.04,0,0,0,14.881,30.5,20.419,20.419,0,0,1,2.4,34.714,21.452,21.452,0,0,1,0,34.576,28.87,28.87,0,0,0,15.41,39a28.1,28.1,0,0,0,28.6-28.012c0-.426-.01-.859-.032-1.277A20.221,20.221,0,0,0,49,4.616Z" transform="translate(-250 3244)" fill="#03a9f4"/>
    <g id="Rectangle_2333" data-name="Rectangle 2333" transform="translate(-261 3228)" fill="none" stroke="#707070" stroke-width="1" opacity="0">
      <rect width="70" height="70" stroke="none"/>
      <rect x="0.5" y="0.5" width="69" height="69" fill="none"/>
    </g>
  </g>
</svg>
