<svg xmlns="http://www.w3.org/2000/svg" xmlns:xlink="http://www.w3.org/1999/xlink" width="200" height="100" viewBox="0 0 200 100">
  <defs>
    <clipPath id="clip-path">
      <rect id="矩形_341" data-name="矩形 341" width="200" height="100" transform="translate(990 9424)" fill="none" stroke="#707070" stroke-width="1"/>
    </clipPath>
  </defs>
  <g id="蒙版组_19" data-name="蒙版组 19" transform="translate(-990 -9424)" clip-path="url(#clip-path)">
    <g id="组_4161" data-name="组 4161" transform="translate(926.854 9268.018)">
      <path id="路径_12532" data-name="路径 12532" d="M429.69,191.764a104.408,104.408,0,0,1,11.211-.529c8.512,0,15.389,1.481,19.648,4.6,3.827,2.909,6.374,7.618,5.672,14.442a16.946,16.946,0,0,1-8.746,13.543c-4.394,2.592-9.926,3.7-18.244,3.7a94.4,94.4,0,0,1-13.14-.794Zm7.031,28.017a19.764,19.764,0,0,0,4.026.317c8.513,0,14.511-4.189,15.118-10.082.876-8.517-4.451-11.5-13.42-11.443a25.528,25.528,0,0,0-3.63.159Z" transform="translate(-261.557 -3.216)" fill="#1a1311"/>
      <path id="路径_12533" data-name="路径 12533" d="M605.033,191.331c33.788-6.378,36.7,5.087,35.657,15.234l-1.965,18.768H628l1.794-17.115c.388-3.772,2.807-11.146-8.861-10.87a27.526,27.526,0,0,0-6.038.651s-.35,4.557-.777,7.922l-2.031,19.412h-10.52l2.087-19.131" transform="translate(-394.226 -1.898)" fill="#1a1311"/>
      <path id="路径_12534" data-name="路径 12534" d="M117.114,223.631c-2.021.7-6.209,1.18-12.057,1.18-16.821,0-25.9-7.908-24.824-18.361,1.283-12.458,14.732-19.467,29.46-19.467a48.01,48.01,0,0,1,12.208,1.234L120.89,196.6a43.348,43.348,0,0,0-10.968-1.354c-8.663,0-16.024,2.586-16.865,10.765-.752,7.313,4.413,10.809,14.159,10.809a47.137,47.137,0,0,0,10.708-1.191Z" transform="translate(0)" fill="#bc000f"/>
      <path id="路径_12535" data-name="路径 12535" d="M255.305,216.475a51.465,51.465,0,0,0,14.752,2.258c5.615,0,8.743-1.559,8.992-3.978.227-2.2-2.073-2.505-8.416-4.011-8.762-2.15-14.354-5.482-13.807-10.8.636-6.181,8.9-10.858,21.571-10.858,6.176,0,12.167.436,15.27,1.458l-1.064,7.795c-2.014-.7-9.726-1.675-14.94-1.675-5.293,0-8.032,1.667-8.22,3.494-.238,2.311,2.513,2.421,9.384,4.248,9.3,2.365,13.37,5.7,12.839,10.858-.624,6.074-8.054,11.234-22.893,11.234a43.269,43.269,0,0,1-14.437-2.257Z" transform="translate(-131.699 -1.588)" fill="#1a1311"/>
    </g>
  </g>
</svg>
