<svg xmlns="http://www.w3.org/2000/svg" xmlns:xlink="http://www.w3.org/1999/xlink" width="115.153" height="112.5" viewBox="0 0 115.153 112.5">
  <defs>
    <clipPath id="clip-path">
      <path id="路径_29" data-name="路径 29" d="M408.169,391.678l-54.554,31.5a10.454,10.454,0,0,1-10.457,0L319.76,409.8a3.362,3.362,0,0,1,0-5.824l58.1-33.544a3.356,3.356,0,0,1,3.362,0l26.948,15.424A3.364,3.364,0,0,1,408.169,391.678Z" transform="translate(-318.079 -369.978)" fill="none"/>
    </clipPath>
  </defs>
  <g id="组_3367" data-name="组 3367" transform="translate(-306.617 -341.594)">
    <g id="组_3338" data-name="组 3338" transform="translate(329.999 399.497)">
      <g id="组_3337" data-name="组 3337" clip-path="url(#clip-path)">
        <g id="组_3336" data-name="组 3336" transform="translate(-37.325 -17.805)">
          <g id="组_3314" data-name="组 3314" transform="translate(15.419 8.51)">
            <rect id="矩形_44" data-name="矩形 44" width="99.93" height="1.455" transform="translate(0 49.907) rotate(-29.962)" fill="#150035"/>
          </g>
          <g id="组_3315" data-name="组 3315" transform="translate(19.382 10.615)">
            <rect id="矩形_45" data-name="矩形 45" width="99.93" height="1.455" transform="matrix(0.866, -0.5, 0.5, 0.866, 0, 49.918)" fill="#150035"/>
          </g>
          <g id="组_3316" data-name="组 3316" transform="translate(22.977 12.862)">
            <rect id="矩形_46" data-name="矩形 46" width="99.93" height="1.455" transform="translate(0 49.924) rotate(-29.973)" fill="#150035"/>
          </g>
          <g id="组_3317" data-name="组 3317" transform="translate(27.009 14.937)">
            <rect id="矩形_47" data-name="矩形 47" width="99.93" height="1.455" transform="translate(0 49.908) rotate(-29.962)" fill="#150035"/>
          </g>
          <g id="组_3318" data-name="组 3318" transform="translate(30.328 17.277)">
            <rect id="矩形_48" data-name="矩形 48" width="99.93" height="1.455" transform="matrix(0.867, -0.499, 0.499, 0.867, 0, 49.866)" fill="#150035"/>
          </g>
          <g id="组_3319" data-name="组 3319" transform="translate(34.274 19.414)">
            <rect id="矩形_49" data-name="矩形 49" width="99.93" height="1.455" transform="translate(0 49.813) rotate(-29.899)" fill="#150035"/>
          </g>
          <g id="组_3320" data-name="组 3320" transform="translate(37.883 21.635)">
            <rect id="矩形_50" data-name="矩形 50" width="99.93" height="1.455" transform="translate(0 49.872) rotate(-29.938)" fill="#150035"/>
          </g>
          <g id="组_3321" data-name="组 3321" transform="translate(41.934 23.676)">
            <rect id="矩形_51" data-name="矩形 51" width="99.93" height="1.455" transform="translate(0 49.924) rotate(-29.973)" fill="#150035"/>
          </g>
          <g id="组_3322" data-name="组 3322" transform="translate(45.523 25.934)">
            <rect id="矩形_52" data-name="矩形 52" width="99.931" height="1.455" transform="matrix(0.866, -0.499, 0.499, 0.866, 0, 49.909)" fill="#150035"/>
          </g>
          <g id="组_3323" data-name="组 3323" transform="translate(49.522 28.085)">
            <rect id="矩形_53" data-name="矩形 53" width="99.93" height="1.455" transform="translate(0 49.813) rotate(-29.899)" fill="#150035"/>
          </g>
          <g id="组_3324" data-name="组 3324" transform="translate(53.144 30.284)">
            <rect id="矩形_54" data-name="矩形 54" width="99.93" height="1.455" transform="matrix(0.866, -0.5, 0.5, 0.866, 0, 49.918)" fill="#150035"/>
          </g>
          <g id="组_3325" data-name="组 3325" transform="translate(57.184 32.348)">
            <rect id="矩形_55" data-name="矩形 55" width="99.931" height="1.455" transform="translate(0 49.925) rotate(-29.973)" fill="#150035"/>
          </g>
          <g id="组_3326" data-name="组 3326" transform="translate(60.509 34.675)">
            <rect id="矩形_56" data-name="矩形 56" width="99.93" height="1.455" transform="translate(0 49.907) rotate(-29.962)" fill="#150035"/>
          </g>
          <g id="组_3327" data-name="组 3327" transform="translate(64.445 36.829)">
            <rect id="矩形_57" data-name="矩形 57" width="99.93" height="1.454" transform="matrix(0.867, -0.499, 0.499, 0.867, 0, 49.82)" fill="#150035"/>
          </g>
          <g id="组_3328" data-name="组 3328" transform="translate(68.05 39.057)">
            <rect id="矩形_58" data-name="矩形 58" width="99.93" height="1.455" transform="matrix(0.867, -0.499, 0.499, 0.867, 0, 49.865)" fill="#150035"/>
          </g>
          <g id="组_3329" data-name="组 3329" transform="translate(72.078 41.141)">
            <rect id="矩形_59" data-name="矩形 59" width="99.93" height="1.454" transform="matrix(0.867, -0.499, 0.499, 0.867, 0, 49.83)" fill="#150035"/>
          </g>
          <g id="组_3330" data-name="组 3330" transform="translate(75.678 43.379)">
            <rect id="矩形_60" data-name="矩形 60" width="99.93" height="1.455" transform="translate(0 49.855) rotate(-29.927)" fill="#150035"/>
          </g>
          <g id="组_3331" data-name="组 3331">
            <rect id="矩形_61" data-name="矩形 61" width="99.93" height="1.454" transform="translate(0 49.813) rotate(-29.899)" fill="#150035"/>
          </g>
          <g id="组_3332" data-name="组 3332" transform="translate(3.96 2.11)">
            <rect id="矩形_62" data-name="矩形 62" width="99.93" height="1.454" transform="translate(0 49.813) rotate(-29.899)" fill="#150035"/>
          </g>
          <g id="组_3333" data-name="组 3333" transform="translate(7.553 4.361)">
            <rect id="矩形_63" data-name="矩形 63" width="99.93" height="1.454" transform="translate(0 49.813) rotate(-29.899)" fill="#150035"/>
          </g>
          <g id="组_3334" data-name="组 3334" transform="translate(11.617 6.381)">
            <rect id="矩形_64" data-name="矩形 64" width="99.93" height="1.455" transform="translate(0 49.908) rotate(-29.962)" fill="#150035"/>
          </g>
          <g id="组_3335" data-name="组 3335" transform="translate(15.213 8.623)">
            <rect id="矩形_65" data-name="矩形 65" width="99.931" height="1.455" transform="translate(0 49.924) rotate(-29.973)" fill="#150035"/>
          </g>
        </g>
      </g>
    </g>
    <g id="组_3366" data-name="组 3366" transform="translate(306.617 341.594)">
      <g id="组_3360" data-name="组 3360" transform="translate(28.897)">
        <g id="组_3339" data-name="组 3339" transform="translate(0 11.821)">
          <path id="路径_30" data-name="路径 30" d="M401.634,364.9l-19.892-11.451a2.316,2.316,0,0,0-1.834-.286l-16.053,3.556L350.11,348.7a2.882,2.882,0,0,0-.826-.484h0a4.582,4.582,0,0,0-3.89.61l-13.421,7.75a12.02,12.02,0,0,0-4.665,5.624h0c-3.856,9.111-5.908,18.321-5.908,26.52v30.63a2.815,2.815,0,0,0,1.412,2.785l19.963,11.51,9.359-9.115,12.258-25.157,14.28-8.244a9.316,9.316,0,0,0,4.2-7.268V388.6l5.447-11.177,7.872-2.3,5.594-9.678A.4.4,0,0,0,401.634,364.9Z" transform="translate(-320.14 -346.747)" fill="#39a1ff"/>
          <path id="路径_31" data-name="路径 31" d="M343.612,435.852l-20.79-11.985a4.006,4.006,0,0,1-2.04-3.878V389.361c0-8.386,2.077-17.728,6.008-27.01a13.278,13.278,0,0,1,5.194-6.226l13.421-7.75a5.826,5.826,0,0,1,4.971-.7,4.24,4.24,0,0,1,1.093.62l13.237,7.723,15.569-3.45a3.534,3.534,0,0,1,2.807.469L402.9,364.448a1.657,1.657,0,0,1,.61,2.273l-5.847,10.114-7.823,2.287-7.591,15.588V390.87a8.833,8.833,0,0,1-2.307,1.989L366,400.913l-12.342,25.159Zm5.124-85.947a4.289,4.289,0,0,0-2.071.653l-13.421,7.748a10.845,10.845,0,0,0-4.135,5.024c-3.8,8.978-5.808,17.978-5.808,26.03v30.628c0,.847.245,1.444.673,1.64l19.243,11.087,8.521-8.3,12.332-25.3,14.612-8.437a8.019,8.019,0,0,0,3.568-6.177h2.171l3.646-7.483,7.921-2.317,4.912-8.5-19.145-11.024a1.1,1.1,0,0,0-.932-.147L364.289,358.7l-14.343-8.388a1.648,1.648,0,0,0-.473-.275A2.046,2.046,0,0,0,348.736,349.905Z" transform="translate(-320.782 -347.388)" fill="#150035"/>
        </g>
        <g id="组_3340" data-name="组 3340" transform="translate(7.101 11.724)">
          <path id="路径_32" data-name="路径 32" d="M397.824,365.4a.4.4,0,0,0-.147-.549L377.785,353.4a2.308,2.308,0,0,0-1.834-.288L359.9,356.672l-13.745-8.021a2.828,2.828,0,0,0-.826-.481h0a4.573,4.573,0,0,0-3.89.608l-13.421,7.75a10.325,10.325,0,0,0-2.811,2.532l53.8,29.3,5.349-10.975,7.872-2.3Z" transform="translate(-323.284 -346.7)" fill="#fff"/>
          <path id="路径_33" data-name="路径 33" d="M380.542,390.736l-56.279-30.645.932-1.173a11.611,11.611,0,0,1,3.168-2.842l13.421-7.748a5.81,5.81,0,0,1,4.971-.694,4.028,4.028,0,0,1,1.1.618l13.235,7.723,15.569-3.452a3.542,3.542,0,0,1,2.809.473l19.816,11.4a1.665,1.665,0,0,1,.61,2.273l-5.847,10.116-7.823,2.287Zm-52.354-31.377,51.245,27.9,5.014-10.29,7.921-2.315,4.912-8.5-19.145-11.02a1.116,1.116,0,0,0-.936-.149l-16.53,3.664-14.347-8.395a1.6,1.6,0,0,0-.463-.267,3.4,3.4,0,0,0-2.813.522l-13.421,7.748A7.722,7.722,0,0,0,328.188,359.359Z" transform="translate(-324.263 -347.341)" fill="#150035"/>
        </g>
        <g id="组_3343" data-name="组 3343" transform="translate(33.554 9.024)">
          <g id="组_3341" data-name="组 3341">
            <path id="路径_34" data-name="路径 34" d="M373.05,352.557l-7.581-4.011c-6.771-3.358-15.59-2.266-24.831,3.07l-2.456,1.418,2.375,2.774.082-.047,8.046,4.231,2.238-3.207,7.644-2.2,5.771.057a4.947,4.947,0,0,1,.282,1.652v2.183l7.748,4.074a.26.26,0,0,0,.375-.171l1.24-5.332Z" transform="translate(-336.24 -345.375)" fill="#39a1ff"/>
            <path id="路径_35" data-name="路径 35" d="M373.477,364.485a1.515,1.515,0,0,1-.71-.18l-8.417-4.425v-2.944a3.8,3.8,0,0,0-.022-.4l-4.6-.043-7.038,2.026-2.619,3.749-8.421-4.427-.3.173-.755-.743-3.36-3.927L341,351.168c9.621-5.555,18.862-6.659,26.02-3.107l8.133,4.3,1.11,5.341-1.3,5.606a1.512,1.512,0,0,1-.857,1.04A1.556,1.556,0,0,1,373.477,364.485Zm-6.607-6.124,5.93,3.115.883-3.8-.757-3.637L365.87,350.3c-6.348-3.144-14.743-2.071-23.611,3.048l-1.142.661,1.1,1.281L349.276,359l1.856-2.66,8.252-2.379,6.84.069.292.836a6.216,6.216,0,0,1,.353,2.067Z" transform="translate(-337.23 -346.017)" fill="#150035"/>
          </g>
          <g id="组_3342" data-name="组 3342" transform="translate(8.046 4.23)">
            <path id="路径_36" data-name="路径 36" d="M344.5,357.883l.082-.047c8.331-4.81,16.283-5.794,22.387-2.77a3.455,3.455,0,0,1,1.593,3.3v1.985l.129.169,3.462-.767V356.3c0-2.748-1-4.816-2.74-5.677-6.771-3.356-15.59-2.264-24.831,3.072l-2.454,1.416Z" transform="translate(-340.183 -347.448)" fill="#150035"/>
            <path id="路径_37" data-name="路径 37" d="M369.165,362.569l-.873-1.153v-2.405a2.338,2.338,0,0,0-.891-2.175c-5.718-2.831-13.246-1.862-21.2,2.732l-.906.524-.761-.747-3.362-3.927,3.768-2.175c9.621-5.553,18.856-6.665,26.02-3.111,2.187,1.081,3.441,3.562,3.441,6.805v4.472Zm-8.892-9.841a18.407,18.407,0,0,1,8.246,1.852,4.647,4.647,0,0,1,2.295,4.431v.614l1.069-.237v-2.45c0-2.25-.74-3.907-2.038-4.547-6.383-3.164-14.778-2.085-23.641,3.031l-1.142.661.714.834A30.536,30.536,0,0,1,360.272,352.728Z" transform="translate(-341.174 -348.091)" fill="#150035"/>
          </g>
        </g>
        <g id="组_3344" data-name="组 3344" transform="translate(1.758 11.821)">
          <path id="路径_38" data-name="路径 38" d="M349.027,348.7a2.921,2.921,0,0,0-.828-.484h0a4.577,4.577,0,0,0-3.888.61l-13.421,7.75a12.01,12.01,0,0,0-4.665,5.624h0a80.335,80.335,0,0,0-3.864,11.436l25.949,14.574,20.257-28.3-5.624-3.225-.171.037Z" transform="translate(-320.899 -346.747)" fill="#fff"/>
          <path id="路径_39" data-name="路径 39" d="M349.421,390.5l-27.777-15.6.239-.936a82.248,82.248,0,0,1,3.925-11.616,13.286,13.286,0,0,1,5.2-6.224l13.421-7.75a5.82,5.82,0,0,1,4.969-.7,4.172,4.172,0,0,1,1.093.62l13.25,7.732.577.2,6.832,3.921Zm-24.851-16.846L348.686,387.2l18.79-26.253-3.994-2.291,0,0-.6-.21-13.919-8.142a1.656,1.656,0,0,0-.471-.275,3.418,3.418,0,0,0-2.807.526l-13.419,7.748a10.848,10.848,0,0,0-4.137,5.024A79.648,79.648,0,0,0,324.569,373.655Z" transform="translate(-321.644 -347.388)" fill="#150035"/>
        </g>
        <g id="组_3345" data-name="组 3345" transform="translate(20.226 23.453)">
          <path id="路径_40" data-name="路径 40" d="M337.223,367.912h0c-3.858,9.111-5.908,18.321-5.908,26.52v30.63c0,2.674,1.877,3.76,4.194,2.422l53.079-30.643a9.274,9.274,0,0,0,4.194-7.269V361.8c0-2.126-1.2-3.311-2.96-2.921l-18.342,4.064a5.281,5.281,0,0,1-5.424-1.559l-5.665-6.622c-1.128-1.318-3.038-1.4-5.082-.22l-13.421,7.75A12.021,12.021,0,0,0,337.223,367.912Z" transform="translate(-330.054 -352.449)" fill="#150035"/>
          <path id="路径_41" data-name="路径 41" d="M334.271,429.955a3.394,3.394,0,0,1-1.716-.445A4.193,4.193,0,0,1,330.7,425.7v-30.63c0-8.384,2.077-17.728,6.008-27.012h0a13.265,13.265,0,0,1,5.2-6.224l13.421-7.748c2.579-1.491,5.133-1.3,6.669.49l5.667,6.624a4.1,4.1,0,0,0,4.194,1.146l18.342-4.064a3.528,3.528,0,0,1,3.042.626,4.371,4.371,0,0,1,1.45,3.525v27.777a10.52,10.52,0,0,1-4.825,8.358l-53.079,30.645A5.055,5.055,0,0,1,334.271,429.955Zm4.755-60.912c-3.8,8.98-5.81,17.978-5.81,26.03V425.7a1.354,1.354,0,0,0,2.305,1.332L388.6,396.391a8.019,8.019,0,0,0,3.566-6.177V362.437a2.009,2.009,0,0,0-.508-1.561,1.037,1.037,0,0,0-.92-.131L372.4,364.81a6.5,6.5,0,0,1-6.654-1.969l-5.667-6.624c-1.016-1.191-2.783-.359-3.492.051l-13.421,7.75a10.823,10.823,0,0,0-4.135,5.025Z" transform="translate(-330.697 -353.09)" fill="#150035"/>
        </g>
        <g id="组_3346" data-name="组 3346" transform="translate(29.957 42.16)">
          <path id="路径_42" data-name="路径 42" d="M375.83,381.742l-37.605,21.712c-1.261.728-2.283-.045-2.283-1.724V389.078a5.46,5.46,0,0,1,2.283-4.357l37.605-21.712c1.259-.728,2.281.045,2.281,1.724v12.65A5.464,5.464,0,0,1,375.83,381.742Z" transform="translate(-334.973 -361.767)" fill="#150035"/>
          <path id="路径_43" data-name="路径 43" d="M337.809,405.187a2.123,2.123,0,0,1-1.069-.28,2.952,2.952,0,0,1-1.273-2.687v-12.65a6.439,6.439,0,0,1,2.768-5.2l37.6-21.71a2.423,2.423,0,0,1,2.462-.122,2.948,2.948,0,0,1,1.273,2.685v12.65a6.437,6.437,0,0,1-2.766,5.2L339.2,404.785A2.8,2.8,0,0,1,337.809,405.187ZM377.228,364.2a.951.951,0,0,0-.42.145L339.2,386.052a4.547,4.547,0,0,0-1.8,3.519v12.65c0,.657.2.947.3,1.008a.641.641,0,0,0,.526-.122l37.6-21.708a4.558,4.558,0,0,0,1.8-3.523v-12.65c0-.657-.2-.944-.3-1.006A.2.2,0,0,0,377.228,364.2Z" transform="translate(-335.467 -362.261)" fill="#39a1ff"/>
        </g>
        <g id="组_3347" data-name="组 3347" transform="translate(29.957 43.04)">
          <path id="路径_44" data-name="路径 44" d="M338.225,383.884a5.463,5.463,0,0,0-2.283,4.359v10.333L371.224,378.2a5.46,5.46,0,0,0,2.283-4.359V363.515Z" transform="translate(-334.973 -361.836)" fill="#150035"/>
          <path id="路径_45" data-name="路径 45" d="M335.467,401.111V389.1a6.446,6.446,0,0,1,2.766-5.2l36.736-21.21V374.7a6.449,6.449,0,0,1-2.766,5.2Zm3.735-15.532a4.558,4.558,0,0,0-1.8,3.521v8.654l33.829-19.529a4.555,4.555,0,0,0,1.8-3.523V366.05Z" transform="translate(-335.467 -362.692)" fill="#39a1ff"/>
        </g>
        <g id="组_3348" data-name="组 3348" transform="translate(0.631 77.187)">
          <rect id="矩形_66" data-name="矩形 66" width="2.52" height="23.333" transform="matrix(0.498, -0.867, 0.867, 0.498, 0, 2.184)" fill="#150035"/>
        </g>
        <g id="组_3349" data-name="组 3349" transform="translate(0.631 47.949)">
          <rect id="矩形_67" data-name="矩形 67" width="2.52" height="23.334" transform="matrix(0.499, -0.867, 0.867, 0.499, 0, 2.184)" fill="#150035"/>
        </g>
        <g id="组_3350" data-name="组 3350" transform="translate(36.076 50.148)">
          <rect id="矩形_68" data-name="矩形 68" width="24.33" height="1.937" transform="translate(0 12.173) rotate(-30.022)" fill="#39a1ff"/>
        </g>
        <g id="组_3351" data-name="组 3351" transform="translate(30.459 42.115)">
          <rect id="矩形_69" data-name="矩形 69" width="24.331" height="1.937" transform="translate(0 12.175) rotate(-30.025)" fill="#39a1ff"/>
        </g>
        <g id="组_3359" data-name="组 3359" transform="translate(13.647)">
          <g id="组_3352" data-name="组 3352" transform="translate(0.004 7.124)">
            <path id="路径_46" data-name="路径 46" d="M352.708,352.94v-6.993a.244.244,0,0,0-.245-.243l-24.129.035a.246.246,0,0,0-.243.245v6.836c0,.02.008.151.008.151.078,2.605,2.6,5.192,7.63,6.491a18.779,18.779,0,0,0,9.345,0c5.027-1.3,7.554-3.886,7.63-6.491Z" transform="translate(-326.832 -344.443)" fill="#39a1ff"/>
            <path id="路径_47" data-name="路径 47" d="M341.042,361.957a19.9,19.9,0,0,1-4.986-.634c-5.269-1.361-8.474-4.229-8.574-7.672l-.008-7.024a1.514,1.514,0,0,1,1.485-1.506l24.145-.035a1.5,1.5,0,0,1,1.5,1.5v1.791c0,2.134,0,5.186,0,5.224l-.008.124c-.1,3.366-3.3,6.234-8.57,7.593A19.915,19.915,0,0,1,341.042,361.957ZM329.993,347.64v5.824c.071,2.336,2.634,4.372,6.693,5.42a17.5,17.5,0,0,0,8.713,0c4.06-1.049,6.622-3.082,6.687-5.31l1.263.008-1.261-.01c0-.118,0-3.1,0-5.192v-.773Z" transform="translate(-327.474 -345.086)" fill="#150035"/>
          </g>
          <g id="组_3353" data-name="组 3353" transform="translate(0.006 12.145)">
            <path id="路径_48" data-name="路径 48" d="M352.708,355.4v-7a.243.243,0,0,0-.243-.241l-24.131.035a.243.243,0,0,0-.241.243v6.838c0,.018.006.151.006.151.078,2.605,2.6,5.192,7.63,6.489a18.755,18.755,0,0,0,9.345,0c5.029-1.3,7.554-3.886,7.632-6.491Z" transform="translate(-326.832 -346.904)" fill="#39a1ff"/>
            <path id="路径_49" data-name="路径 49" d="M341.045,364.416a19.9,19.9,0,0,1-4.988-.632c-5.267-1.359-8.472-4.229-8.574-7.672l-.006-.251,0-6.775a1.506,1.506,0,0,1,1.5-1.5l24.127-.035a1.5,1.5,0,0,1,1.505,1.5v7.04l0,.067c-.1,3.4-3.3,6.269-8.574,7.628A19.909,19.909,0,0,1,341.045,364.416ZM329.994,350.1v5.822c.073,2.34,2.634,4.374,6.691,5.422a17.512,17.512,0,0,0,8.715,0c4.06-1.049,6.622-3.082,6.687-5.31l0-.026c0-.335,0-3.966,0-5.943Z" transform="translate(-327.475 -347.547)" fill="#150035"/>
          </g>
          <g id="组_3354" data-name="组 3354" transform="translate(16.13 8.385)">
            <path id="路径_50" data-name="路径 50" d="M344.883,345.7l-9.5.014v14.147a18.565,18.565,0,0,0,2.113-.4c5.031-1.3,7.556-3.886,7.632-6.491l0-.031v-6.993A.244.244,0,0,0,344.883,345.7Z" transform="translate(-335.379 -345.704)" fill="#150035"/>
          </g>
          <g id="组_3355" data-name="组 3355">
            <path id="路径_51" data-name="路径 51" d="M349.11,344.3c4.808,2.776,4.808,7.277,0,10.053s-12.605,2.776-17.413,0-4.808-7.277,0-10.053S344.3,341.525,349.11,344.3Z" transform="translate(-326.829 -340.943)" fill="#fff"/>
            <path id="路径_52" data-name="路径 52" d="M341.046,358.361a19.016,19.016,0,0,1-9.337-2.266c-2.732-1.575-4.237-3.747-4.237-6.116s1.505-4.541,4.239-6.118c5.235-3.021,13.435-3.023,18.67,0l0,0c2.732,1.577,4.235,3.75,4.235,6.118s-1.505,4.541-4.237,6.118A19.023,19.023,0,0,1,341.046,358.361Zm0-14.247a16.53,16.53,0,0,0-8.078,1.93c-1.92,1.108-2.976,2.505-2.976,3.935s1.057,2.825,2.976,3.933c4.453,2.574,11.7,2.572,16.153,0,1.918-1.11,2.976-2.505,2.976-3.935s-1.057-2.83-2.976-3.937v0A16.514,16.514,0,0,0,341.048,344.114Z" transform="translate(-327.472 -341.594)" fill="#150035"/>
          </g>
          <g id="组_3356" data-name="组 3356" transform="translate(4.078 13.433)">
            <rect id="矩形_70" data-name="矩形 70" width="1.938" height="7.146" fill="#150035"/>
          </g>
          <g id="组_3357" data-name="组 3357" transform="translate(7.954 14.886)">
            <rect id="矩形_71" data-name="矩形 71" width="1.938" height="7.146" fill="#150035"/>
          </g>
          <g id="组_3358" data-name="组 3358" transform="translate(12.012 15.56)">
            <rect id="矩形_72" data-name="矩形 72" width="1.938" height="7.146" fill="#150035"/>
          </g>
        </g>
      </g>
      <g id="组_3365" data-name="组 3365" transform="translate(0 48.486)">
        <g id="组_3362" data-name="组 3362" transform="translate(0.506)">
          <g id="组_3361" data-name="组 3361">
            <path id="路径_53" data-name="路径 53" d="M314.205,398.244l-6.122-3.835a1.271,1.271,0,0,1-.384-1.789c3.344-4.941,17.634-24.376,36.9-26.6a4.655,4.655,0,0,1,5.426,5.127l-.01.12a4.818,4.818,0,0,1-4.29,4.449c-14.808,1.663-26.871,17.919-29.79,22.173A1.269,1.269,0,0,1,314.205,398.244Z" transform="translate(-306.222 -364.718)" fill="#39a1ff"/>
            <path id="路径_54" data-name="路径 54" d="M315.529,400.344a2.535,2.535,0,0,1-1.348-.39l-6.124-3.833a2.544,2.544,0,0,1-1.136-1.628,2.5,2.5,0,0,1,.379-1.936c3.923-5.8,18.24-24.886,37.793-27.144a6.1,6.1,0,0,1,5.055,1.579,6.019,6.019,0,0,1,1.773,4.89,6.129,6.129,0,0,1-5.416,5.728c-14.488,1.628-26.61,18.309-28.892,21.636A2.522,2.522,0,0,1,315.529,400.344Zm30.4-32.46a4.909,4.909,0,0,0-.543.031c-18.964,2.191-33.313,22.089-36,26.055l6.13,3.849.016,0c3.362-4.9,15.5-21.01,30.69-22.713a3.581,3.581,0,0,0,3.176-3.291,3.637,3.637,0,0,0-.993-3.007A3.514,3.514,0,0,0,345.925,367.884Z" transform="translate(-306.865 -365.362)" fill="#150035"/>
          </g>
        </g>
        <g id="组_3363" data-name="组 3363" transform="translate(5.401 6.206)">
          <path id="路径_55" data-name="路径 55" d="M311.526,391.941l-2.262,1.74,2.9,1.818a1.268,1.268,0,0,0,1.724-.353c2.919-4.255,14.984-20.51,29.792-22.173a4.82,4.82,0,0,0,4.29-4.449l.008-.12C324.352,368.73,311.526,391.941,311.526,391.941Z" transform="translate(-309.264 -368.404)" fill="#150035"/>
        </g>
        <g id="组_3364" data-name="组 3364" transform="translate(0 26.303)">
          <path id="路径_56" data-name="路径 56" d="M307.4,381.953c-.643-2.162.614-3.492,2.811-2.968a7.821,7.821,0,0,1,5.141,4.867c.645,2.162-.612,3.492-2.809,2.968A7.829,7.829,0,0,1,307.4,381.953Z" transform="translate(-305.976 -377.615)" fill="#fff"/>
          <path id="路径_57" data-name="路径 57" d="M314.082,388.832a5.126,5.126,0,0,1-1.189-.147,9.089,9.089,0,0,1-6.057-5.73,3.39,3.39,0,0,1,4.308-4.553,9.1,9.1,0,0,1,6.059,5.73,3.733,3.733,0,0,1-.634,3.719A3.337,3.337,0,0,1,314.082,388.832Zm-4.137-8.06a.906.906,0,0,0-.649.2,1.427,1.427,0,0,0-.047,1.267,6.54,6.54,0,0,0,4.227,4,.962.962,0,0,0,1.312-1.385,6.549,6.549,0,0,0-4.229-4A2.675,2.675,0,0,0,309.945,380.772Z" transform="translate(-306.617 -378.255)" fill="#150035"/>
        </g>
      </g>
    </g>
  </g>
</svg>
