<svg xmlns="http://www.w3.org/2000/svg" width="394.227" height="394.227" viewBox="0 0 394.227 394.227">
  <g id="组_3457" data-name="组 3457" transform="translate(0 -915)">
    <rect id="矩形_6" data-name="矩形 6" width="394" height="394" rx="197" transform="translate(394 915) rotate(90)" fill="#ff406d"/>
    <path id="路径_7" data-name="路径 7" d="M-64.154,849.131V454.9L330.073,849.131Z" transform="translate(64.154 460.096)" fill="#f1f6f9"/>
    <g id="组_3456" data-name="组 3456" transform="translate(0 1)">
      <path id="路径_1" data-name="路径 1" d="M-64.154,586.131V454.9L67.073,586.131Z" transform="translate(64.154 459.096)" fill="#0442c3"/>
      <path id="路径_2" data-name="路径 2" d="M-64.154,586.131V454.9L67.073,586.131Z" transform="translate(64.154 590.482)" fill="#0442c3"/>
      <path id="路径_3" data-name="路径 3" d="M-64.154,586.131V454.9L67.073,586.131Z" transform="translate(64.154 721.869)" fill="#0442c3"/>
      <path id="路径_4" data-name="路径 4" d="M-64.154,586.131V454.9L67.073,586.131Z" transform="translate(196.154 590.482)" fill="#0442c3"/>
      <path id="路径_5" data-name="路径 5" d="M-64.154,586.131V454.9L67.073,586.131Z" transform="translate(196.154 721.869)" fill="#0442c3"/>
      <path id="路径_6" data-name="路径 6" d="M-64.154,586.131V454.9L67.073,586.131Z" transform="translate(327.154 722.096)" fill="#0442c3"/>
    </g>
  </g>
</svg>
