<svg xmlns="http://www.w3.org/2000/svg" width="381" height="289" viewBox="0 0 381 289">
  <g id="组_3783" data-name="组 3783" transform="translate(-17 -2060)">
    <g id="组_3780" data-name="组 3780">
      <rect id="矩形_175" data-name="矩形 175" width="381" height="289" rx="14" transform="translate(17 2060)" fill="#fff"/>
      <g id="组_3585" data-name="组 3585" transform="translate(17 2060)">
        <path id="矩形_29" data-name="矩形 29" d="M14,0H367a14,14,0,0,1,14,14V34a0,0,0,0,1,0,0H0a0,0,0,0,1,0,0V14A14,14,0,0,1,14,0Z" fill="#0a053e"/>
        <circle id="椭圆_4" data-name="椭圆 4" cx="4.5" cy="4.5" r="4.5" transform="translate(22 13)" fill="#f1f6f9" opacity="0.8"/>
        <circle id="椭圆_5" data-name="椭圆 5" cx="4.5" cy="4.5" r="4.5" transform="translate(37 13)" fill="#f1f6f9" opacity="0.6"/>
        <circle id="椭圆_6" data-name="椭圆 6" cx="4.5" cy="4.5" r="4.5" transform="translate(52 13)" fill="#f1f6f9" opacity="0.4"/>
      </g>
      <line id="直线_308" data-name="直线 308" x2="346" transform="translate(36.5 2159.5)" fill="none" stroke="#0a053e" stroke-width="1" stroke-dasharray="4" opacity="0.1"/>
      <line id="直线_309" data-name="直线 309" x2="346" transform="translate(36.5 2213.5)" fill="none" stroke="#0a053e" stroke-width="1" stroke-dasharray="4" opacity="0.1"/>
      <line id="直线_310" data-name="直线 310" x2="346" transform="translate(36.5 2267.5)" fill="none" stroke="#0a053e" stroke-width="1" stroke-dasharray="4" opacity="0.1"/>
      <g id="组_3776" data-name="组 3776" transform="translate(0 12)">
        <text id="dumpling_126" data-name="dumpling#126" transform="translate(35 2232)" fill="#07033b" font-size="14" font-family="Helvetica" opacity="0.7"><tspan x="0" y="0">dumpling#126</tspan></text>
        <text id="migrate" transform="translate(213 2232)" fill="#07033b" font-size="14" font-family="Helvetica" opacity="0.7"><tspan x="0" y="0">migrate</tspan></text>
        <text id="_6600" data-name="6600" transform="translate(148 2232)" fill="#07033b" font-size="14" font-family="Helvetica" opacity="0.7"><tspan x="0" y="0">6600</tspan></text>
        <text id="kennytm" transform="translate(306 2232)" fill="#07033b" font-size="14" font-family="Helvetica" opacity="0.7"><tspan x="0" y="0">kennytm</tspan></text>
      </g>
      <g id="组_3779" data-name="组 3779" transform="translate(0 -19)">
        <text id="tikv_pd_2950" data-name="tikv/pd#2950" transform="translate(35 2317)" fill="#07033b" font-size="14" font-family="Helvetica" opacity="0.7"><tspan x="0" y="0">tikv/pd#2950</tspan></text>
        <text id="scheduling" transform="translate(213 2317)" fill="#07033b" font-size="14" font-family="Helvetica" opacity="0.7"><tspan x="0" y="0">scheduling</tspan></text>
        <text id="_6600-2" data-name="6600" transform="translate(148 2317)" fill="#07033b" font-size="14" font-family="Helvetica" opacity="0.7"><tspan x="0" y="0">6600</tspan></text>
        <text id="gaosong" transform="translate(306 2317)" fill="#07033b" font-size="14" font-family="Helvetica" opacity="0.7"><tspan x="0" y="0">gaosong</tspan></text>
      </g>
      <g id="组_3778" data-name="组 3778" transform="translate(0 6)">
        <text id="issue_地址" data-name="issue 地址" transform="translate(35 2128)" fill="#07033b" font-size="14" font-family="Helvetica"><tspan x="0" y="0">issue </tspan><tspan y="0" font-family="PingFangSC-Regular, PingFang SC">地址</tspan></text>
        <text id="分数" transform="translate(148 2113)" fill="#07033b" font-size="14" font-family="PingFangSC-Regular, PingFang SC"><tspan x="0" y="15">分数</tspan></text>
        <text id="SIG" transform="translate(215 2127)" fill="#07033b" font-size="14" font-family="Helvetica"><tspan x="0" y="0">SIG</tspan></text>
        <text id="顾问" transform="translate(306 2128)" fill="#07033b" font-size="14" font-family="PingFangSC-Regular, PingFang SC"><tspan x="0" y="0">顾问</tspan></text>
      </g>
      <g id="组_3777" data-name="组 3777" transform="translate(0 15)">
        <text id="tikv_8635" data-name="tikv#8635" transform="translate(35 2175)" fill="#07033b" font-size="14" font-family="Helvetica" opacity="0.7"><tspan x="0" y="0">tikv#8635</tspan></text>
        <text id="_6600-3" data-name="6600" transform="translate(148 2175)" fill="#07033b" font-size="14" font-family="Helvetica" opacity="0.7"><tspan x="0" y="0">6600</tspan></text>
        <text id="engine" transform="translate(213 2175)" fill="#07033b" font-size="14" font-family="Helvetica" opacity="0.7"><tspan x="0" y="0">engine</tspan></text>
        <text id="yiwu-arbug" transform="translate(306 2175)" fill="#07033b" font-size="14" font-family="Helvetica" opacity="0.7"><tspan x="0" y="0">yiwu-arbug</tspan></text>
      </g>
      <line id="直线_311" data-name="直线 311" x2="346" transform="translate(36.5 2321.5)" fill="none" stroke="#0a053e" stroke-width="1" stroke-dasharray="4" opacity="0.1"/>
    </g>
  </g>
</svg>
