<svg xmlns="http://www.w3.org/2000/svg" width="895" height="287" viewBox="0 0 895 287">
  <g id="组_3768" data-name="组 3768" transform="translate(-394 -2293)">
    <g id="组_3766" data-name="组 3766">
      <rect id="矩形_146" data-name="矩形 146" width="895" height="287" rx="14" transform="translate(394 2293)" fill="#fff"/>
      <path id="矩形_29" data-name="矩形 29" d="M14,0H881a14,14,0,0,1,14,14V34a0,0,0,0,1,0,0H0a0,0,0,0,1,0,0V14A14,14,0,0,1,14,0Z" transform="translate(394 2293)" fill="#0a053e"/>
      <circle id="椭圆_4" data-name="椭圆 4" cx="4.5" cy="4.5" r="4.5" transform="translate(416 2306)" fill="#f1f6f9" opacity="0.8"/>
      <circle id="椭圆_5" data-name="椭圆 5" cx="4.5" cy="4.5" r="4.5" transform="translate(431 2306)" fill="#f1f6f9" opacity="0.6"/>
      <circle id="椭圆_6" data-name="椭圆 6" cx="4.5" cy="4.5" r="4.5" transform="translate(446 2306)" fill="#f1f6f9" opacity="0.4"/>
      <text id="issue_地址" data-name="issue 地址" transform="translate(475 2375)" fill="#07033b" font-size="18" font-family="Helvetica"><tspan x="-41.511" y="0">issue </tspan><tspan y="0" font-family="PingFangSC-Regular, PingFang SC">地址</tspan></text>
      <text id="分数" transform="translate(724 2375)" fill="#07033b" font-size="18" font-family="PingFangSC-Regular, PingFang SC"><tspan x="-18" y="0">分数</tspan></text>
      <text id="顾问" transform="translate(1160 2375)" fill="#07033b" font-size="18" font-family="PingFangSC-Regular, PingFang SC"><tspan x="-18" y="0">顾问</tspan></text>
      <line id="直线_248" data-name="直线 248" x2="822.453" transform="translate(431.5 2394.5)" fill="none" stroke="#0a053e" stroke-width="1" stroke-dasharray="4" opacity="0.1"/>
      <line id="直线_249" data-name="直线 249" x2="822.453" transform="translate(431.5 2444.5)" fill="none" stroke="#0a053e" stroke-width="1" stroke-dasharray="4" opacity="0.1"/>
      <line id="直线_250" data-name="直线 250" x2="822.453" transform="translate(431.5 2495.5)" fill="none" stroke="#0a053e" stroke-width="1" stroke-dasharray="4" opacity="0.1"/>
      <line id="直线_252" data-name="直线 252" x2="822.453" transform="translate(431.5 2545.5)" fill="none" stroke="#0a053e" stroke-width="1" stroke-dasharray="4" opacity="0.1"/>
      <text id="SIG" transform="translate(943 2374)" fill="#07033b" font-size="18" font-family="Helvetica"><tspan x="-15.504" y="0">SIG</tspan></text>
      <g id="组_3760" data-name="组 3760">
        <text id="tikv_8635" data-name="tikv#8635" transform="translate(433 2424)" fill="#07033b" font-size="16" font-family="Helvetica" opacity="0.75"><tspan x="0" y="0">tikv#8635</tspan></text>
        <text id="_6600" data-name="6600" transform="translate(706 2424)" fill="#07033b" font-size="16" font-family="Helvetica" opacity="0.75"><tspan x="0" y="0">6600</tspan></text>
        <text id="yiwu-arbug" transform="translate(1142 2424)" fill="#07033b" font-size="16" font-family="Helvetica" opacity="0.75"><tspan x="0" y="0">yiwu-arbug</tspan></text>
        <text id="engine" transform="translate(927 2424)" fill="#07033b" font-size="16" font-family="Helvetica" opacity="0.75"><tspan x="0" y="0">engine</tspan></text>
        <text id="dumpling_126" data-name="dumpling#126" transform="translate(433 2475)" fill="#07033b" font-size="16" font-family="Helvetica" opacity="0.75"><tspan x="0" y="0">dumpling#126</tspan></text>
        <text id="kennytm" transform="translate(1142 2475)" fill="#07033b" font-size="16" font-family="Helvetica" opacity="0.75"><tspan x="0" y="0">kennytm</tspan></text>
        <text id="_6600-2" data-name="6600" transform="translate(706 2475)" fill="#07033b" font-size="16" font-family="Helvetica" opacity="0.75"><tspan x="0" y="0">6600</tspan></text>
        <text id="migrate" transform="translate(927 2475)" fill="#07033b" font-size="16" font-family="Helvetica" opacity="0.75"><tspan x="0" y="0">migrate</tspan></text>
        <text id="tikv_pd_2950" data-name="tikv/pd#2950" transform="translate(433 2524)" fill="#07033b" font-size="16" font-family="Helvetica" opacity="0.75"><tspan x="0" y="0">tikv/pd#2950</tspan></text>
        <text id="gaosong" transform="translate(1142 2524)" fill="#07033b" font-size="16" font-family="Helvetica" opacity="0.75"><tspan x="0" y="0">gaosong</tspan></text>
        <text id="_6600-3" data-name="6600" transform="translate(706 2524)" fill="#07033b" font-size="16" font-family="Helvetica" opacity="0.75"><tspan x="0" y="0">6600</tspan></text>
        <text id="scheduling" transform="translate(927 2524)" fill="#07033b" font-size="16" font-family="Helvetica" opacity="0.75"><tspan x="0" y="0">scheduling</tspan></text>
      </g>
    </g>
  </g>
</svg>
