<svg xmlns="http://www.w3.org/2000/svg" xmlns:xlink="http://www.w3.org/1999/xlink" width="200" height="100" viewBox="0 0 200 100">
  <defs>
    <clipPath id="clip-path">
      <rect id="矩形_339" data-name="矩形 339" width="200" height="100" transform="translate(517 9424)" fill="none" stroke="#707070" stroke-width="1"/>
    </clipPath>
  </defs>
  <g id="蒙版组_21" data-name="蒙版组 21" transform="translate(-517 -9424)" clip-path="url(#clip-path)">
    <g id="Page-1" transform="translate(540.075 9443.76)">
      <g id="Artboard" transform="translate(4 4.4)">
        <g id="Group-2">
          <g id="Group" transform="translate(68.661 2.699)">
            <path id="Shape" d="M54.822,27.256l-2.7,2.53v-13.5H56.34V13.423H52.123V6H49.086v7.591H45.543v2.868h3.543V32.992L44.7,37.378,46.724,39.4l2.362-2.193v3.205a29.657,29.657,0,0,1-2.362,11.3l-.675,1.35,2.7,1.35.675-1.35a29.822,29.822,0,0,0,2.7-12.652V34.342l4.724-4.724Z" transform="translate(-44.7 -6)" fill="#006cff"/>
            <path id="Shape-2" data-name="Shape" d="M69.7,27.89H65.653V14.9H62.617V27.89H58.568V15.743H55.7V30.758h6.917V44.591H58.568V32.613H55.7V47.459H72.57V32.613H69.7V44.591H65.653V30.758H72.57V15.743H69.7Z" transform="translate(-37.143 0.114)" fill="#006cff"/>
            <path id="Shape-3" data-name="Shape" d="M87.707,14.537h9.278V11.5H75.561v3.037h9.278V22.3H70.5v3.037H84.839V46.927H80.285l-3.205-18.22-2.868.506,3.037,17.713H72.187v2.868H100.7V46.927H95.8l3.037-17.713L95.8,28.707l-3.037,18.22H87.707V25.333h14.677V22.3H87.707Z" transform="translate(-26.975 -2.222)" fill="#006cff"/>
            <path id="Shape-4" data-name="Shape" d="M52.787,7.518c0,.337.675,34.077-1.35,44.368l-.337,1.35,2.868.506.337-1.35c1.35-6.579,1.687-21.931,1.518-33.74h20.75V6H52.787Zm20.919,1.35v6.917H55.824V8.868Z" transform="translate(-40.303 -6)" fill="#006cff"/>
            <path id="Shape-5" data-name="Shape" d="M92.143,8.868l10.965,9.953,2.024-2.024L93.324,6H81.009L69.2,16.8l2.024,2.024L82.19,8.868Z" transform="translate(-27.869 -6)" fill="#006cff"/>
          </g>
          <g id="Mask-Copy-_-Fill-1-Copy-Copy-Copy-Copy-Copy" data-name="Mask-Copy-+-Fill-1-Copy-Copy-Copy-Copy-Copy">
            <g id="Mask-Copy">
              <path id="path-1" d="M20.533,56.7c-6.073,0-9.447,0-12.99-3.374S4,46.575,4,40.5V20.6c0-5.9,0-9.278,3.543-12.821C11.085,4.4,14.459,4.4,20.533,4.4H40.945c6.073,0,9.447,0,12.99,3.374s3.543,6.748,3.543,12.821V40.5c0,5.9,0,9.278-3.543,12.821S47.018,56.7,40.945,56.7H20.533" transform="translate(-4 -4.4)" fill="#006cff"/>
            </g>
            <path id="Fill-1-Copy" d="M30.594,14.13,27.22,11.6l-3.374,2.7-.169.169,3.711,2.868L31.1,14.468Zm12.484,9.785L27.22,36.23,11.362,23.915,9,25.771l18.22,14,18.22-14ZM27.22,24.927l-8.6-6.748-2.362,1.856L27.22,28.47l10.965-8.435-2.362-1.856Z" transform="translate(-0.565 0.546)" fill="#fff"/>
          </g>
        </g>
      </g>
    </g>
  </g>
</svg>
