<svg xmlns="http://www.w3.org/2000/svg" xmlns:xlink="http://www.w3.org/1999/xlink" width="50" height="50" viewBox="0 0 50 50">
  <defs>
    <linearGradient id="linear-gradient" x1="0.5" x2="0.5" y2="1" gradientUnits="objectBoundingBox">
      <stop offset="0" stop-color="#eecd71"/>
      <stop offset="1" stop-color="#a57b13"/>
    </linearGradient>
    <linearGradient id="linear-gradient-2" x1="0.222" y1="0.086" x2="1" y2="1.4" gradientUnits="objectBoundingBox">
      <stop offset="0" stop-color="#eac96c"/>
      <stop offset="1" stop-color="#a97f18"/>
    </linearGradient>
    <filter id="路径_82" x="6" y="4" width="38" height="44.515" filterUnits="userSpaceOnUse">
      <feOffset dy="1" input="SourceAlpha"/>
      <feGaussianBlur stdDeviation="2" result="blur"/>
      <feFlood flood-opacity="0.102"/>
      <feComposite operator="in" in2="blur"/>
      <feComposite in="SourceGraphic"/>
    </filter>
  </defs>
  <g id="组_3769" data-name="组 3769" transform="translate(-393 -7533)">
    <rect id="矩形_134" data-name="矩形 134" width="50" height="50" rx="6" transform="translate(393 7533)" fill="url(#linear-gradient)"/>
    <g transform="matrix(1, 0, 0, 1, 393, 7533)" filter="url(#路径_82)">
      <path id="路径_82-2" data-name="路径 82" d="M73.734,13.635a18.619,18.619,0,0,0,.215-2.539,8.589,8.589,0,0,0-2.3-6.117c.546-3.05-.09-4.437-.386-4.912-1.092-.388-3.8,1-5.277,1.977-2.411-.706-7.507-.637-9.417.183C53.038-.3,51.173.087,51.173.087a7.439,7.439,0,0,0-.319,5.324,7.151,7.151,0,0,0-2.025,5.3,16.372,16.372,0,0,0,.111,1.895c1,5.253,5.161,7.519,9.249,7.91a3.681,3.681,0,0,0-1.456,2.377,4.748,4.748,0,0,1-3.537.285c-1.694-.535-2.343-3.89-4.88-3.412-.549.1-.44.465.036.774a4.989,4.989,0,0,1,2.062,2.458,4.159,4.159,0,0,0,4.2,2.852,12.853,12.853,0,0,0,1.935-.134s.022,2.609.022,3.627c0,1.171-1.58,1.5-1.58,2.062,0,.223.523.245.943.245.831,0,2.559-.692,2.559-1.909,0-.967.015-4.218.015-4.787a1.838,1.838,0,0,1,.667-1.64s.082,6.639-.16,7.529c-.284,1.047-.8.9-.8,1.364,0,.7,2.078.17,2.767-1.352.533-1.189.294-7.7.294-7.7l.556-.012s.006,2.982-.013,4.344c-.02,1.411-.166,3.195.672,4.037.55.554,2.235,1.525,2.235.637,0-.515-1.18-.94-1.18-2.334V23.4c.717,0,.865,2.111.865,2.111l.258,3.922a2,2,0,0,0,1.546,2.028c.606.212,1.9.27,1.964-.086s-1.562-.886-1.577-1.993c-.008-.675.03-1.069.03-4s-.394-4.018-1.767-4.882C68.854,20.088,72.989,18.31,73.734,13.635Z" transform="translate(-35.95 9)" fill="url(#linear-gradient-2)"/>
    </g>
  </g>
</svg>
