<svg xmlns="http://www.w3.org/2000/svg" xmlns:xlink="http://www.w3.org/1999/xlink" width="200" height="100" viewBox="0 0 200 100">
  <defs>
    <clipPath id="clip-path">
      <rect id="矩形_338" data-name="矩形 338" width="200" height="100" transform="translate(280 9424)" fill="none" stroke="#707070" stroke-width="1"/>
    </clipPath>
    <clipPath id="clip-path-2">
      <path id="路径_12528" data-name="路径 12528" d="M237.471,404.978c-4.869.033-8.836-3.146-9.1-9.073-.267-5.53,4.6-9.238,9.236-9.337,5.335-.133,8.536,5.96,8.536,5.96l13.77-5.066s-5.668-14.667-21.005-14.667c-14.338,0-24.241,9.933-24.241,23.409,0,11.987,9.336,23.939,23.907,23.409,16-.6,21.473-14.667,21.473-14.667l-14.137-4.668c.033-.066-2.868,4.7-8.436,4.7" transform="translate(-214.664 -372.794)" fill="none" clip-rule="evenodd"/>
    </clipPath>
    <clipPath id="clip-path-3">
      <rect id="矩形_332" data-name="矩形 332" width="748.931" height="334.064" fill="none"/>
    </clipPath>
    <clipPath id="clip-path-4">
      <path id="路径_12530" data-name="路径 12530" d="M383.205,380.639l-3.021,9.213h6.042l-2.957-9.213ZM373.441,395.6l6.393-17.281a3.74,3.74,0,0,1,3.4-2.638,3.6,3.6,0,0,1,3.4,2.638l6.234,17.281a3.709,3.709,0,0,1,.254,1.176,2.117,2.117,0,0,1-2.195,2.1,2.229,2.229,0,0,1-2.322-1.651l-.954-2.986h-8.841l-.954,2.954a2.209,2.209,0,0,1-2.29,1.684,2.28,2.28,0,0,1-2.353-2.224A2.741,2.741,0,0,1,373.441,395.6Zm-20.831.795V378.353A2.279,2.279,0,0,1,355,375.875a2.975,2.975,0,0,1,2,1.048l10.081,13.439h.064V378.353a2.387,2.387,0,1,1,4.77,0V396.4a2.277,2.277,0,0,1-2.384,2.477,3.043,3.043,0,0,1-2-1.048l-10.081-13.279h-.064V396.4a2.387,2.387,0,1,1-4.771,0Zm-7.441,0V378.353a2.387,2.387,0,1,1,4.77,0V396.4a2.387,2.387,0,1,1-4.77,0Zm-22.391,0V378.353a2.387,2.387,0,1,1,4.771,0v6.734h9.986v-6.734a2.387,2.387,0,1,1,4.771,0V396.4a2.387,2.387,0,1,1-4.771,0v-6.926h-9.986V396.4a2.387,2.387,0,1,1-4.771,0Zm-20.322-9.022c0-6.608,4.453-11.691,10.941-11.691,2.322,0,6.838.762,6.838,3.558a2.018,2.018,0,0,1-1.972,2.129c-1.3,0-2.195-1.112-4.866-1.112-3.944,0-5.979,3.336-5.979,7.212,0,3.78,2.067,7.02,5.979,7.02,2.671,0,3.753-1.334,5.057-1.334a2.236,2.236,0,0,1,2.1,2.16c0,3.05-4.8,3.748-7.155,3.748C306.941,399.065,302.456,393.951,302.456,387.375Zm-9.032-11.691c1.781,0,6.234.667,6.234,3.177a2.2,2.2,0,0,1-2.131,2.351c-1.3,0-2.322-.953-4.231-.953-1.368,0-2.607.731-2.607,2.066,0,3.272,10.622,1.175,10.622,9.371,0,4.543-3.753,7.37-8.142,7.37-2.449,0-7.728-.572-7.728-3.558a2.121,2.121,0,0,1,2.131-2.255c1.494,0,3.276,1.239,5.343,1.239,2.1,0,3.244-1.175,3.244-2.732,0-3.748-10.622-1.493-10.622-8.863C285.537,378.448,289.194,375.684,293.424,375.684Zm-20.068,23.381c-6.456,0-10.941-5.113-10.941-11.69,0-6.608,4.453-11.691,10.941-11.691,6.392,0,10.94,5.241,10.94,11.691C284.3,393.951,279.876,399.065,273.356,399.065Zm0-4.384c4.039,0,5.979-3.431,5.979-7.306,0-3.845-2-7.307-5.979-7.307s-5.979,3.462-5.979,7.307C267.376,391.25,269.317,394.681,273.356,394.681Z" transform="translate(-262.415 -375.684)" fill="none"/>
    </clipPath>
    <clipPath id="clip-path-6">
      <path id="路径_12531" data-name="路径 12531" d="M390.429,405.043v7.319c0,.509-.221.779-.61.779s-.61-.27-.61-.779v-7.319h-.8a.509.509,0,1,1,0-1.017h.8v-1.983c0-.525.22-.8.61-.8s.61.271.61.8v1.983h.8a.509.509,0,1,1,0,1.017Zm-14.32,3.016H381.2c-.052-1.509-.9-3.118-2.545-3.118S376.159,406.551,376.109,408.06Zm5.581,1.017h-5.581a2.933,2.933,0,0,0,2.68,3.049c1.934,0,2.443-1.389,3.02-1.389.339,0,.576.119.576.593,0,.543-1.407,1.813-3.511,1.813-2.884,0-4.088-2.337-4.088-4.608s1.34-4.608,3.885-4.608,3.851,2.135,3.851,4.4C382.521,408.652,382.419,409.076,381.69,409.076ZM362.518,407.4v4.964c0,.509-.221.779-.61.779s-.611-.27-.611-.779V404.7c0-.508.221-.779.611-.779s.61.271.61.779v.44h.034a2.744,2.744,0,0,1,2.358-1.219,3.114,3.114,0,0,1,3.241,3.219v5.218c0,.509-.221.779-.611.779s-.61-.27-.61-.779V407.11a2,2,0,0,0-2.206-2.067A2.187,2.187,0,0,0,362.518,407.4Zm-10.011,4.964a.78.78,0,1,1,.779.779A.788.788,0,0,1,352.507,412.363Zm-13.558-3.829c0,1.644.662,3.591,2.562,3.591s2.545-1.948,2.545-3.591-.645-3.591-2.545-3.591C339.662,404.942,338.949,406.89,338.949,408.534Zm5.106-3.269v-.56c0-.508.221-.779.61-.779s.611.271.611.779v7.658c0,.509-.221.779-.611.779s-.61-.27-.61-.779v-.56H344a2.816,2.816,0,0,1-2.494,1.339c-2.6,0-3.885-2.067-3.885-4.608,0-2.27,1.239-4.608,3.851-4.608A3.018,3.018,0,0,1,344,405.264Zm-18.7,2.135v4.964c0,.509-.221.779-.61.779s-.61-.27-.61-.779V404.7c0-.508.22-.779.61-.779s.61.271.61.779v.44h.034a2.744,2.744,0,0,1,2.358-1.219,3.114,3.114,0,0,1,3.241,3.219v5.218c0,.509-.221.779-.611.779s-.61-.27-.61-.779V407.11a2,2,0,0,0-2.2-2.067A2.187,2.187,0,0,0,325.359,407.4Zm-9.757-5.694a.831.831,0,1,1,.831.831A.832.832,0,0,1,315.6,401.705Zm1.441,3v7.658c0,.509-.221.779-.61.779s-.611-.27-.611-.779V404.7c0-.508.221-.779.611-.779S317.043,404.2,317.043,404.7ZM303.1,407.4v4.964c0,.509-.221.779-.611.779s-.61-.27-.61-.779V400.74c0-.509.221-.78.61-.78s.611.271.611.78v4.4h.034a2.741,2.741,0,0,1,2.358-1.219,3.113,3.113,0,0,1,3.239,3.219v5.218c0,.509-.221.779-.61.779s-.611-.27-.611-.779V407.11a2,2,0,0,0-2.2-2.067A2.187,2.187,0,0,0,303.1,407.4Zm-10.182,4.625c1.1,0,1.493-.474,1.832-.474a.529.529,0,0,1,.509.491c0,.745-1.136,1.1-2.341,1.1-2.543,0-3.883-2.337-3.883-4.608s1.475-4.608,4.036-4.608c1.153,0,2.238.44,2.238.949a.614.614,0,0,1-.678.677c-.322,0-.61-.508-1.714-.508-1.729,0-2.56,1.949-2.56,3.389C290.354,410.329,291.32,412.024,292.915,412.024Zm-13.353-8.1c1.764,0,3.222.745,3.189,1.389a.535.535,0,0,1-.61.592c-.475,0-1.1-.965-2.324-.965-.848,0-1.764.406-1.764,1.27a1.135,1.135,0,0,0,.831,1.067l1.849.747c1.222.491,2.256,1.084,2.256,2.507,0,1.592-1.424,2.609-3.325,2.609-1.967,0-3.256-1.135-3.256-1.711,0-.186.271-.592.576-.592.576,0,1.137,1.287,2.732,1.287,1.17,0,1.95-.695,1.95-1.541,0-.8-.593-1.118-1.255-1.389l-2.1-.865a2.09,2.09,0,0,1-1.577-2.032A2.638,2.638,0,0,1,279.562,403.925Zm-9.1,4.608c0,2.541-1.289,4.608-3.885,4.608s-3.885-2.067-3.885-4.608c0-2.27,1.239-4.608,3.885-4.608C269.244,403.925,270.466,406.264,270.466,408.534Zm-6.446,0c0,1.644.662,3.591,2.562,3.591s2.562-1.948,2.562-3.591-.662-3.591-2.562-3.591S264.02,406.89,264.02,408.534Z" transform="translate(-262.697 -399.96)" fill="none"/>
    </clipPath>
  </defs>
  <g id="蒙版组_22" data-name="蒙版组 22" transform="translate(-280 -9424)" clip-path="url(#clip-path)">
    <g id="组_4160" data-name="组 4160" transform="translate(71.254 9078.206)">
      <g id="组_4151" data-name="组 4151" transform="translate(214.664 372.794)">
        <g id="组_4150" data-name="组 4150" clip-path="url(#clip-path-2)">
          <g id="组_4149" data-name="组 4149" transform="translate(-93.163 -179.828)">
            <g id="组_4148" data-name="组 4148" clip-path="url(#clip-path-3)">
              <rect id="矩形_331" data-name="矩形 331" width="57.44" height="58.895" transform="translate(87.133 173.798)" fill="#439c3e"/>
            </g>
          </g>
        </g>
      </g>
      <path id="路径_12529" data-name="路径 12529" d="M237.471,404.978c-4.869.033-8.836-3.146-9.1-9.073-.267-5.53,4.6-9.238,9.236-9.337,5.335-.133,8.536,5.96,8.536,5.96l13.77-5.066s-5.668-14.667-21.005-14.667c-14.338,0-24.241,9.933-24.241,23.409,0,11.987,9.336,23.939,23.907,23.409,16-.6,21.473-14.667,21.473-14.667l-14.137-4.668c.033-.066-2.868,4.7-8.436,4.7" fill="none" stroke="#185729" stroke-miterlimit="10" stroke-width="1.377"/>
      <g id="组_4155" data-name="组 4155" transform="translate(272.252 376.279)">
        <g id="组_4154" data-name="组 4154" clip-path="url(#clip-path-4)">
          <g id="组_4153" data-name="组 4153" transform="translate(-150.751 -183.313)">
            <g id="组_4152" data-name="组 4152" clip-path="url(#clip-path-3)">
              <rect id="矩形_333" data-name="矩形 333" width="142.773" height="35.441" transform="translate(144.721 177.283)" fill="#0f0f0f"/>
            </g>
          </g>
        </g>
      </g>
      <g id="组_4159" data-name="组 4159" transform="translate(272.592 405.556)">
        <g id="组_4158" data-name="组 4158" clip-path="url(#clip-path-6)">
          <g id="组_4157" data-name="组 4157" transform="translate(-151.091 -212.59)">
            <g id="组_4156" data-name="组 4156" clip-path="url(#clip-path-3)">
              <rect id="矩形_335" data-name="矩形 335" width="141.115" height="25.242" transform="translate(145.061 206.56)" fill="#818180"/>
            </g>
          </g>
        </g>
      </g>
    </g>
  </g>
</svg>
