<svg xmlns="http://www.w3.org/2000/svg" xmlns:xlink="http://www.w3.org/1999/xlink" width="559.358" height="334" viewBox="0 0 559.358 334">
  <defs>
    <radialGradient id="radial-gradient" cx="-0.071" cy="1" r="1.232" gradientTransform="translate(0 -0.598) scale(1 1.598)" gradientUnits="objectBoundingBox">
      <stop offset="0" stop-color="#3cafe7"/>
      <stop offset="1" stop-color="#0f17aa"/>
    </radialGradient>
    <linearGradient id="linear-gradient" x1="0.125" y1="-0.031" x2="0.81" y2="0.94" gradientUnits="objectBoundingBox">
      <stop offset="0"/>
      <stop offset="0.073" stop-color="#070820"/>
      <stop offset="0.187" stop-color="#12134e"/>
      <stop offset="0.306" stop-color="#1c1d74"/>
      <stop offset="0.428" stop-color="#232594"/>
      <stop offset="0.555" stop-color="#292bac"/>
      <stop offset="0.687" stop-color="#2d2fbe"/>
      <stop offset="0.83" stop-color="#3032c8"/>
      <stop offset="1" stop-color="#3133cc"/>
    </linearGradient>
    <linearGradient id="linear-gradient-2" x1="0.068" y1="0.273" x2="0.975" y2="1.128" gradientUnits="objectBoundingBox">
      <stop offset="0" stop-color="#e7f2fe"/>
      <stop offset="0.037" stop-color="#e5f0fd"/>
      <stop offset="0.641" stop-color="#cad6f9"/>
      <stop offset="0.999" stop-color="#c1cdf8"/>
    </linearGradient>
    <linearGradient id="linear-gradient-3" y1="0.5" x2="1" y2="0.5" gradientUnits="objectBoundingBox">
      <stop offset="0" stop-color="#fcfdff" stop-opacity="0"/>
      <stop offset="0.121" stop-color="#d4f6ff" stop-opacity="0.157"/>
      <stop offset="0.366" stop-color="#89eaff" stop-opacity="0.451"/>
      <stop offset="0.585" stop-color="#4ee0ff" stop-opacity="0.686"/>
      <stop offset="0.77" stop-color="#23d9ff" stop-opacity="0.859"/>
      <stop offset="0.914" stop-color="#09d5ff" stop-opacity="0.961"/>
      <stop offset="0.999" stop-color="#00d4ff"/>
    </linearGradient>
    <linearGradient id="linear-gradient-4" y1="0.5" x2="1" y2="0.5" gradientUnits="objectBoundingBox">
      <stop offset="0" stop-color="#fcfdff" stop-opacity="0"/>
      <stop offset="0.121" stop-color="#fcf2df" stop-opacity="0.157"/>
      <stop offset="0.366" stop-color="#fddea4" stop-opacity="0.451"/>
      <stop offset="0.585" stop-color="#fece74" stop-opacity="0.686"/>
      <stop offset="0.77" stop-color="#fec252" stop-opacity="0.859"/>
      <stop offset="0.914" stop-color="#febb3d" stop-opacity="0.961"/>
      <stop offset="0.999" stop-color="#ffb936"/>
    </linearGradient>
    <linearGradient id="linear-gradient-5" x1="-16.009" y1="-2.942" x2="-16.009" y2="-3.474" xlink:href="#linear-gradient-3"/>
    <linearGradient id="linear-gradient-6" x1="-17.901" y1="-3.176" x2="-17.901" y2="-3.748" gradientUnits="objectBoundingBox">
      <stop offset="0" stop-color="#fcfdff" stop-opacity="0"/>
      <stop offset="0.086" stop-color="#fae9ed" stop-opacity="0.11"/>
      <stop offset="0.341" stop-color="#f7b1bc" stop-opacity="0.424"/>
      <stop offset="0.569" stop-color="#f58494" stop-opacity="0.671"/>
      <stop offset="0.761" stop-color="#f36478" stop-opacity="0.851"/>
      <stop offset="0.911" stop-color="#f25167" stop-opacity="0.961"/>
      <stop offset="0.999" stop-color="#f24a61"/>
    </linearGradient>
    <linearGradient id="linear-gradient-7" x1="3608.527" y1="-78.279" x2="-2143.042" y2="47.309" gradientUnits="objectBoundingBox">
      <stop offset="0" stop-color="#fff"/>
      <stop offset="0.099" stop-color="#eee" stop-opacity="0.933"/>
      <stop offset="0.296" stop-color="#c3c4c2" stop-opacity="0.761"/>
      <stop offset="0.572" stop-color="#7e817b" stop-opacity="0.482"/>
      <stop offset="0.912" stop-color="#21241a" stop-opacity="0.102"/>
      <stop offset="1" stop-color="#080c01" stop-opacity="0"/>
    </linearGradient>
    <linearGradient id="linear-gradient-8" x1="1.881" y1="-0.567" x2="-1.14" y2="1.902" xlink:href="#linear-gradient-7"/>
    <linearGradient id="linear-gradient-9" x1="55.712" y1="-2.228" x2="-20.336" y2="1.53" xlink:href="#linear-gradient-7"/>
    <linearGradient id="linear-gradient-10" x1="0.939" y1="0.956" x2="0.074" y2="0.057" gradientUnits="objectBoundingBox">
      <stop offset="0" stop-color="#fcfdff" stop-opacity="0"/>
      <stop offset="0.121" stop-color="#dce2ff" stop-opacity="0.157"/>
      <stop offset="0.366" stop-color="#a1afff" stop-opacity="0.451"/>
      <stop offset="0.585" stop-color="#7186ff" stop-opacity="0.686"/>
      <stop offset="0.77" stop-color="#4f69ff" stop-opacity="0.859"/>
      <stop offset="0.914" stop-color="#3a57ff" stop-opacity="0.961"/>
      <stop offset="0.999" stop-color="#3351ff"/>
    </linearGradient>
    <linearGradient id="linear-gradient-11" x1="1.051" y1="1.046" x2="0.006" y2="0.011" xlink:href="#linear-gradient-4"/>
    <linearGradient id="linear-gradient-12" x1="0.908" y1="0.918" x2="0.072" y2="0.062" xlink:href="#linear-gradient-3"/>
    <linearGradient id="linear-gradient-13" x1="1.247" y1="-0.033" x2="-0.056" y2="0.784" xlink:href="#linear-gradient-2"/>
    <linearGradient id="linear-gradient-14" x1="1.015" y1="-0.324" x2="-0.679" y2="1.864" xlink:href="#linear-gradient-2"/>
    <linearGradient id="linear-gradient-15" x1="1.223" y1="-0.118" x2="-0.082" y2="0.787" xlink:href="#linear-gradient-2"/>
    <linearGradient id="linear-gradient-16" x1="-0.124" y1="0.93" x2="0.538" y2="0.474" gradientUnits="objectBoundingBox">
      <stop offset="0.072" stop-color="#becff4"/>
      <stop offset="0.637" stop-color="#adc0e7"/>
      <stop offset="1" stop-color="#a0b5de"/>
    </linearGradient>
    <linearGradient id="linear-gradient-17" x1="0.749" y1="0.107" x2="-0.559" y2="1.554" gradientUnits="objectBoundingBox">
      <stop offset="0" stop-color="#fff"/>
      <stop offset="0.335" stop-color="#e5eafc"/>
      <stop offset="0.752" stop-color="#cad4f9"/>
      <stop offset="0.999" stop-color="#c1cdf8"/>
    </linearGradient>
    <linearGradient id="linear-gradient-18" x1="-0.083" y1="0.938" x2="1.037" y2="0.141" xlink:href="#linear-gradient-2"/>
    <linearGradient id="linear-gradient-19" x1="-1.361" x2="-1.361" y2="1" gradientUnits="objectBoundingBox">
      <stop offset="0" stop-color="#a3e6e7"/>
      <stop offset="0.157" stop-color="#91d2e6"/>
      <stop offset="0.532" stop-color="#6aa7e5"/>
      <stop offset="0.826" stop-color="#528ce5"/>
      <stop offset="0.999" stop-color="#4a83e5"/>
    </linearGradient>
    <linearGradient id="linear-gradient-20" x1="1.385" y1="-0.264" x2="0.103" y2="0.843" gradientUnits="objectBoundingBox">
      <stop offset="0" stop-color="#e7f2fe"/>
      <stop offset="0.195" stop-color="#deeafc" stop-opacity="0.784"/>
      <stop offset="0.594" stop-color="#cedafa" stop-opacity="0.369"/>
      <stop offset="0.87" stop-color="#c4d0f8" stop-opacity="0.102"/>
      <stop offset="0.999" stop-color="#c1cdf8" stop-opacity="0"/>
    </linearGradient>
    <linearGradient id="linear-gradient-21" x1="-0.082" y1="1.071" x2="0.975" y2="0.035" xlink:href="#linear-gradient-2"/>
    <linearGradient id="linear-gradient-22" x1="1.203" y1="-0.215" x2="-0.059" y2="0.983" xlink:href="#linear-gradient-2"/>
    <linearGradient id="linear-gradient-23" x1="0.5" y1="1.206" x2="0.5" y2="-0.087" gradientUnits="objectBoundingBox">
      <stop offset="0.072" stop-color="#87d0fd"/>
      <stop offset="0.164" stop-color="#7ec2ec" stop-opacity="0.933"/>
      <stop offset="0.348" stop-color="#68a0c0" stop-opacity="0.761"/>
      <stop offset="0.606" stop-color="#446979" stop-opacity="0.478"/>
      <stop offset="0.924" stop-color="#141e18" stop-opacity="0.094"/>
      <stop offset="1" stop-color="#080c01" stop-opacity="0"/>
    </linearGradient>
  </defs>
  <g id="组_3774" data-name="组 3774" transform="translate(-730 -9489)">
    <rect id="矩形_214" data-name="矩形 214" width="559.358" height="334" rx="14" transform="translate(730 9489)" fill="url(#radial-gradient)"/>
    <g id="组_3720" data-name="组 3720" transform="translate(47.358 427.346)">
      <g id="OBJECTS" transform="translate(808 9084)">
        <g id="组_3730" data-name="组 3730" transform="translate(60.72 134.617)">
          <g id="组_3720-2" data-name="组 3720">
            <ellipse id="椭圆_24" data-name="椭圆 24" cx="127.141" cy="73.405" rx="127.141" ry="73.405" fill="url(#linear-gradient)"/>
            <path id="路径_11949" data-name="路径 11949" d="M159.234,1156.322c49.652-28.667,130.153-28.666,179.805,0,23.38,13.5,35.747,30.946,37.108,48.624,1.53-19.865-10.836-40.019-37.108-55.187-49.652-28.666-130.154-28.666-179.805,0-26.272,15.168-38.638,35.322-37.108,55.186C123.488,1187.268,135.855,1169.82,159.234,1156.322Z" transform="translate(-121.996 -1128.259)" fill="url(#linear-gradient-2)"/>
          </g>
          <g id="组_3726" data-name="组 3726" transform="translate(9.1 11.623)">
            <g id="组_3723" data-name="组 3723" transform="translate(5.824 3.641)">
              <g id="组_3721" data-name="组 3721" transform="translate(86.492 52.05)">
                <path id="路径_11950" data-name="路径 11950" d="M276.651,1234.811l-28.07,16.206-2.7-1.561,28.07-16.206Z" transform="translate(-245.878 -1214.615)" fill="url(#linear-gradient-3)"/>
                <path id="路径_11951" data-name="路径 11951" d="M316.226,1212.047l-27.414,15.827-2.7-1.561,27.414-15.827Z" transform="translate(-253.174 -1210.486)" fill="url(#linear-gradient-4)"/>
              </g>
              <path id="路径_11952" data-name="路径 11952" d="M180.795,1233.144l13.438-1.172c7.979-.7,14.062-4.489,14.65-9.135l2.41-19c.507-3.995,5.1-7.427,11.671-8.716l22.3-4.376c7.882-1.546,12.732-6.118,11.539-10.875h0c-1.659-6.613,8.195-12.28,19.643-11.3l12.586,1.082,18.154,10.481-109.1,62.991Z" transform="translate(-147.583 -1150.814)" fill="url(#linear-gradient-5)"/>
              <path id="路径_11953" data-name="路径 11953" d="M200.883,1243.927l-4.458-21.245c-1.4-6.694,5.579-13.173,16.806-15.031q.648-.107,1.31-.2h0c12.356-1.668,21.728-7.493,23.7-14.73l1.948-7.141c1.072-3.93,4.612-7.346,9.65-9.734,6.146-2.914,14.53-3.706,22.073-2.252l38.072,7.339Z" transform="translate(-150.385 -1151.617)" fill="url(#linear-gradient-6)"/>
              <g id="组_3722" data-name="组 3722" style="mix-blend-mode: overlay;isolation: isolate">
                <rect id="矩形_214-2" data-name="矩形 214" width="0.57" height="58.145" transform="translate(0 63.485) rotate(-60)" fill="#fff"/>
                <rect id="矩形_215" data-name="矩形 215" width="0.57" height="58.145" transform="matrix(0.5, -0.866, 0.866, 0.5, 15.586, 54.486)" fill="#fff"/>
                <rect id="矩形_216" data-name="矩形 216" width="0.57" height="58.145" transform="translate(31.172 45.488) rotate(-60)" fill="#fff"/>
                <rect id="矩形_217" data-name="矩形 217" width="0.57" height="58.145" transform="translate(46.759 36.488) rotate(-59.999)" fill="#fff"/>
                <rect id="矩形_218" data-name="矩形 218" width="0.57" height="58.145" transform="translate(62.345 27.49) rotate(-60)" fill="#fff"/>
                <rect id="矩形_219" data-name="矩形 219" width="0.57" height="58.145" transform="translate(77.932 18.491) rotate(-59.999)" fill="#fff"/>
                <rect id="矩形_220" data-name="矩形 220" width="0.57" height="58.145" transform="translate(93.518 9.492) rotate(-60)" fill="#fff"/>
                <rect id="矩形_221" data-name="矩形 221" width="0.57" height="58.144" transform="translate(109.105 0.493) rotate(-60)" fill="#fff"/>
                <path id="路径_11954" data-name="路径 11954" d="M158.84,1217.947l-10.149,5.86-3.566-2.059,10.149-5.86Z" transform="translate(-141.114 -1159.416)" fill="#fff"/>
                <path id="路径_11955" data-name="路径 11955" d="M209.413,1261.7l-3.857,2.227-3.566-2.059,3.857-2.227Z" transform="translate(-151.427 -1167.35)" fill="#fff"/>
                <path id="路径_11956" data-name="路径 11956" d="M228.389,1250.742l-3.857,2.227-3.566-2.059,3.857-2.227Z" transform="translate(-154.869 -1165.363)" fill="#fff"/>
                <path id="路径_11957" data-name="路径 11957" d="M247.364,1239.786l-3.857,2.227-3.566-2.059,3.857-2.227Z" transform="translate(-158.31 -1163.376)" fill="#fff"/>
                <path id="路径_11958" data-name="路径 11958" d="M266.339,1228.831l-3.857,2.227L258.917,1229l3.857-2.227Z" transform="translate(-161.751 -1161.389)" fill="#fff"/>
                <path id="路径_11959" data-name="路径 11959" d="M285.315,1217.875l-3.857,2.227-3.566-2.059,3.857-2.227Z" transform="translate(-165.192 -1159.402)" fill="#fff"/>
                <path id="路径_11960" data-name="路径 11960" d="M304.29,1206.92l-3.857,2.227-3.566-2.059,3.857-2.227Z" transform="translate(-168.634 -1157.416)" fill="#fff"/>
                <path id="路径_11961" data-name="路径 11961" d="M323.265,1195.965l-3.857,2.227-3.566-2.059,3.857-2.227Z" transform="translate(-172.075 -1155.429)" fill="#fff"/>
                <path id="路径_11962" data-name="路径 11962" d="M342.241,1185.009l-3.857,2.227-3.566-2.059,3.857-2.227Z" transform="translate(-175.516 -1153.442)" fill="#fff"/>
                <path id="路径_11963" data-name="路径 11963" d="M196.919,1195.963l-10.149,5.86-3.566-2.059,10.149-5.86Z" transform="translate(-148.02 -1155.428)" fill="#fff"/>
                <path id="路径_11964" data-name="路径 11964" d="M235,1173.978l-10.149,5.86-3.566-2.059,10.149-5.86Z" transform="translate(-154.926 -1151.441)" fill="#fff"/>
                <path id="路径_11965" data-name="路径 11965" d="M273.076,1151.993l-10.149,5.86-3.566-2.059,10.149-5.86Z" transform="translate(-161.832 -1147.454)" fill="#fff"/>
              </g>
            </g>
            <g id="组_3724" data-name="组 3724" transform="translate(0 68.564)" style="mix-blend-mode: overlay;isolation: isolate">
              <path id="路径_11966" data-name="路径 11966" d="M136.85,1228.368a3.423,3.423,0,0,1-3.1,0,.944.944,0,0,1,0-1.788,3.423,3.423,0,0,1,3.1,0A.944.944,0,0,1,136.85,1228.368Z" transform="translate(-133.111 -1226.21)" fill="#fff"/>
              <path id="路径_11967" data-name="路径 11967" d="M142.755,1231.778a3.423,3.423,0,0,1-3.1,0,.944.944,0,0,1,0-1.789,3.423,3.423,0,0,1,3.1,0A.944.944,0,0,1,142.755,1231.778Z" transform="translate(-134.182 -1226.828)" fill="#fff"/>
              <path id="路径_11968" data-name="路径 11968" d="M148.66,1235.187a3.423,3.423,0,0,1-3.1,0,.944.944,0,0,1,0-1.788,3.418,3.418,0,0,1,3.1,0A.944.944,0,0,1,148.66,1235.187Z" transform="translate(-135.253 -1227.446)" fill="#fff"/>
              <path id="路径_11969" data-name="路径 11969" d="M154.566,1238.6a3.425,3.425,0,0,1-3.1,0,.944.944,0,0,1,0-1.788,3.425,3.425,0,0,1,3.1,0A.944.944,0,0,1,154.566,1238.6Z" transform="translate(-136.324 -1228.065)" fill="#fff"/>
              <path id="路径_11970" data-name="路径 11970" d="M160.471,1242.006a3.423,3.423,0,0,1-3.1,0,.944.944,0,0,1,0-1.789,3.424,3.424,0,0,1,3.1,0A.944.944,0,0,1,160.471,1242.006Z" transform="translate(-137.395 -1228.683)" fill="#fff"/>
              <path id="路径_11971" data-name="路径 11971" d="M166.376,1245.415a3.423,3.423,0,0,1-3.1,0,.944.944,0,0,1,0-1.788,3.423,3.423,0,0,1,3.1,0A.944.944,0,0,1,166.376,1245.415Z" transform="translate(-138.466 -1229.301)" fill="#fff"/>
              <path id="路径_11972" data-name="路径 11972" d="M172.281,1248.824a3.418,3.418,0,0,1-3.1,0,.944.944,0,0,1,0-1.788,3.423,3.423,0,0,1,3.1,0A.944.944,0,0,1,172.281,1248.824Z" transform="translate(-139.537 -1229.92)" fill="#fff"/>
            </g>
            <g id="组_3725" data-name="组 3725" transform="translate(120.259)" style="mix-blend-mode: overlay;isolation: isolate">
              <path id="路径_11973" data-name="路径 11973" d="M283.751,1144.616a3.425,3.425,0,0,1-3.1,0,.944.944,0,0,1,0-1.789,3.425,3.425,0,0,1,3.1,0A.944.944,0,0,1,283.751,1144.616Z" transform="translate(-280.011 -1142.457)" fill="#fff"/>
              <path id="路径_11974" data-name="路径 11974" d="M289.656,1148.025a3.425,3.425,0,0,1-3.1,0,.944.944,0,0,1,0-1.788,3.425,3.425,0,0,1,3.1,0A.944.944,0,0,1,289.656,1148.025Z" transform="translate(-281.082 -1143.075)" fill="#fff"/>
              <path id="路径_11975" data-name="路径 11975" d="M295.561,1151.434a3.418,3.418,0,0,1-3.1,0,.944.944,0,0,1,0-1.788,3.423,3.423,0,0,1,3.1,0A.944.944,0,0,1,295.561,1151.434Z" transform="translate(-282.153 -1143.693)" fill="#fff"/>
              <ellipse id="椭圆_25" data-name="椭圆 25" cx="2.19" cy="1.264" rx="2.19" ry="1.264" transform="translate(14.503 8.373)" fill="#fff"/>
              <path id="路径_11976" data-name="路径 11976" d="M307.371,1158.253a3.423,3.423,0,0,1-3.1,0,.944.944,0,0,1,0-1.788,3.423,3.423,0,0,1,3.1,0A.944.944,0,0,1,307.371,1158.253Z" transform="translate(-284.295 -1144.93)" fill="#fff"/>
              <path id="路径_11977" data-name="路径 11977" d="M313.277,1161.663a3.425,3.425,0,0,1-3.1,0,.944.944,0,0,1,0-1.789,3.425,3.425,0,0,1,3.1,0A.944.944,0,0,1,313.277,1161.663Z" transform="translate(-285.366 -1145.548)" fill="#fff"/>
              <path id="路径_11978" data-name="路径 11978" d="M319.182,1165.072a3.423,3.423,0,0,1-3.1,0,.944.944,0,0,1,0-1.788,3.423,3.423,0,0,1,3.1,0A.944.944,0,0,1,319.182,1165.072Z" transform="translate(-286.437 -1146.167)" fill="#fff"/>
            </g>
          </g>
          <g id="组_3729" data-name="组 3729" transform="translate(101.772 57.207)">
            <g id="组_3727" data-name="组 3727" transform="translate(0 44.119)">
              <path id="路径_11979" data-name="路径 11979" d="M273.084,1270.863,289.542,1283c-10.578,4.78-25.84,4.245-35.338-1.239-4-2.307-6.622-5.288-7.5-8.511Z" transform="translate(-246.384 -1255.447)" fill="#10a6fa"/>
              <path id="路径_11980" data-name="路径 11980" d="M278.928,1267.474l3.271-15.3a36.985,36.985,0,0,1,15.609,4.4c10.357,5.98,10.357,15.821,0,21.8q-1.146.662-2.423,1.239Z" transform="translate(-252.227 -1252.058)" fill="#ffb936"/>
              <path id="路径_11981" data-name="路径 11981" d="M273.013,1267.448l-26.378,2.39c-1.321-4.864,1.469-9.81,7.5-13.291,5.812-3.356,13.994-4.981,22.152-4.4Z" transform="translate(-246.312 -1252.032)" fill="#6c69ed"/>
              <path id="路径_11982" data-name="路径 11982" d="M254.2,1282.293c-4-2.307-6.622-5.288-7.5-8.511v8.678c.876,3.223,3.5,6.2,7.5,8.511,9.5,5.484,24.76,6.019,35.338,1.239v-8.678C278.964,1288.311,263.7,1287.777,254.2,1282.293Z" transform="translate(-246.384 -1255.976)" fill="#2386d7"/>
              <path id="路径_11983" data-name="路径 11983" d="M246.322,1270.593v.458l0,.034C246.322,1270.921,246.318,1270.757,246.322,1270.593Z" transform="translate(-246.314 -1255.398)" fill="url(#linear-gradient-7)"/>
              <path id="路径_11984" data-name="路径 11984" d="M301.454,1281.779q-1.146.662-2.423,1.239v8.678q1.276-.576,2.423-1.239c5.209-3.008,7.8-6.992,7.766-10.971v-8.537C309.189,1274.88,306.6,1278.806,301.454,1281.779Z" transform="translate(-255.873 -1255.463)" fill="url(#linear-gradient-8)"/>
              <path id="路径_11985" data-name="路径 11985" d="M301.454,1281.779q-1.146.662-2.423,1.239v8.678q1.276-.576,2.423-1.239c5.209-3.008,7.8-6.992,7.766-10.971v-8.537C309.189,1274.88,306.6,1278.806,301.454,1281.779Z" transform="translate(-255.873 -1255.463)" fill="#dd8903"/>
              <path id="路径_11986" data-name="路径 11986" d="M246.325,1271.186l0-.034v8.08a9.044,9.044,0,0,0,.314,2.751V1273.3A9.075,9.075,0,0,1,246.325,1271.186Z" transform="translate(-246.313 -1255.5)" fill="url(#linear-gradient-9)"/>
              <path id="路径_11987" data-name="路径 11987" d="M246.325,1271.186l0-.034v8.08a9.044,9.044,0,0,0,.314,2.751V1273.3A9.075,9.075,0,0,1,246.325,1271.186Z" transform="translate(-246.313 -1255.5)" fill="#4138a7"/>
            </g>
            <g id="组_3728" data-name="组 3728" transform="translate(94.582)">
              <path id="路径_11988" data-name="路径 11988" d="M389.671,1219.63l-4.4,2.538-23.427-13.526,4.4-2.538Z" transform="translate(-361.848 -1199.584)" fill="url(#linear-gradient-10)"/>
              <path id="路径_11989" data-name="路径 11989" d="M401.224,1215.27l-4.4,2.538-14.4-8.312,4.4-2.538Z" transform="translate(-365.581 -1199.739)" fill="url(#linear-gradient-11)"/>
              <path id="路径_11990" data-name="路径 11990" d="M409.74,1209.155l-4.4,2.538-19.08-11.016,4.4-2.538Z" transform="translate(-366.276 -1198.14)" fill="url(#linear-gradient-12)"/>
            </g>
          </g>
        </g>
        <g id="组_3746" data-name="组 3746" transform="translate(0 0)">
          <g id="组_3733" data-name="组 3733" transform="translate(0 60.324)">
            <g id="组_3732" data-name="组 3732">
              <path id="路径_11991" data-name="路径 11991" d="M170.305,1062.9l-79.769,46.054c-2.564,1.481-7.084,1.293-10.044-.416l-30.219-18.178c-2.96-1.708-3.285-4.318-.721-5.8l79.768-46.054c2.564-1.48,7.085-1.293,10.045.417l30.219,18.177C172.544,1058.809,172.868,1061.418,170.305,1062.9Z" transform="translate(-47.823 -1037.507)" fill="#eaf2fd"/>
              <g id="组_3731" data-name="组 3731" transform="translate(0.003 22.983)">
                <path id="路径_11992" data-name="路径 11992" d="M170.306,1067.99l-79.769,46.054c-2.564,1.481-7.084,1.293-10.044-.416L50.275,1095.45c-1.646-.95-2.475-2.179-2.447-3.338l9.894,47.008c0,.018,0,.036,0,.053-.055,1.174.775,2.427,2.448,3.392L80.493,1154.4c2.96,1.709,7.48,1.9,10.044.417l79.769-46.054a3,3,0,0,0,1.726-2.461v-40.666c0-.017,0-.035,0-.053A3.022,3.022,0,0,1,170.306,1067.99Z" transform="translate(-47.827 -1065.582)" fill="url(#linear-gradient-13)"/>
              </g>
            </g>
            <path id="路径_11993" data-name="路径 11993" d="M52.648,1114.071l28.72,17.276c2.96,1.709,7.48,1.9,10.044.416l79.769-46.054a3.015,3.015,0,0,0,1.727-2.422l0,4.8a2.981,2.981,0,0,1-1.729,2.5l-79.769,46.054c-2.564,1.48-7.084,1.293-10.044-.416l-27.543-16.568Z" transform="translate(-48.698 -1045.81)" fill="url(#linear-gradient-14)"/>
          </g>
          <g id="组_3740" data-name="组 3740" transform="translate(28.172 52.358)">
            <g id="组_3738" data-name="组 3738" transform="translate(0 9.712)">
              <g id="组_3735" data-name="组 3735">
                <path id="路径_11994" data-name="路径 11994" d="M143.1,1055.052l-34.174,19.73a4.8,4.8,0,0,1-4.3-.178l-21.34-12.321c-1.268-.733-1.407-1.851-.309-2.484l34.173-19.731a4.8,4.8,0,0,1,4.3.178l21.34,12.322C144.063,1053.3,144.2,1054.417,143.1,1055.052Z" transform="translate(-82.237 -1039.64)" fill="#eaf2fd"/>
                <g id="组_3734" data-name="组 3734" transform="translate(0 14.38)">
                  <path id="路径_11995" data-name="路径 11995" d="M143.1,1058.237l-34.174,19.73a4.8,4.8,0,0,1-4.3-.178l-21.34-12.321a1.749,1.749,0,0,1-1.049-1.43v19.269a1.733,1.733,0,0,0,1.049,1.453l21.34,12.321a4.8,4.8,0,0,0,4.3.178l34.174-19.73a1.281,1.281,0,0,0,.739-1.054v-19.247a.213.213,0,0,0,0-.023A1.3,1.3,0,0,1,143.1,1058.237Z" transform="translate(-82.237 -1057.205)" fill="url(#linear-gradient-15)"/>
                </g>
              </g>
              <g id="组_3737" data-name="组 3737" transform="translate(29.109 23.543)">
                <path id="路径_11996" data-name="路径 11996" d="M122.216,1083.208l21.872-12.572a3.515,3.515,0,0,1,5.272,3.044v1.111a3.514,3.514,0,0,1-1.758,3.045L125.729,1090.4a3.514,3.514,0,0,1-5.27-3.044v-1.1A3.515,3.515,0,0,1,122.216,1083.208Z" transform="translate(-118.277 -1068.719)" fill-rule="evenodd" fill="url(#linear-gradient-16)"/>
                <g id="组_3736" data-name="组 3736">
                  <path id="路径_11997" data-name="路径 11997" d="M119.976,1087.034v-1.1a3.515,3.515,0,0,1,1.757-3.044l21.872-12.572a3.5,3.5,0,0,1,3.884.246,3.6,3.6,0,0,0-.37-.246l-2.16-1.429a3.481,3.481,0,0,0-3.536-.014l-21.872,12.572a3.515,3.515,0,0,0-1.757,3.044v1.1a3.482,3.482,0,0,0,1.757,3.044l2.16,1.429h0A3.479,3.479,0,0,1,119.976,1087.034Z" transform="translate(-117.794 -1068.399)" fill-rule="evenodd" fill="url(#linear-gradient-17)"/>
                </g>
                <path id="路径_11998" data-name="路径 11998" d="M147.218,1070.482a3.51,3.51,0,0,1,.255,1.313v1.111a3.514,3.514,0,0,1-1.759,3.045l-21.871,12.562a3.467,3.467,0,0,1-3.072.212,3.515,3.515,0,0,0,5.016,1.731l21.872-12.562a3.514,3.514,0,0,0,1.758-3.045v-1.111A3.492,3.492,0,0,0,147.218,1070.482Z" transform="translate(-118.334 -1068.777)" fill-rule="evenodd" fill="url(#linear-gradient-18)"/>
              </g>
            </g>
            <g id="组_3739" data-name="组 3739" transform="translate(9.805)">
              <path id="路径_11999" data-name="路径 11999" d="M138.526,1056.111l-25.077,14.43-19.235-10.487,25.666-14.686Z" transform="translate(-94.213 -1030.967)" fill="#a3e6e7"/>
              <path id="路径_12000" data-name="路径 12000" d="M142.787,1052.921l3.944-25.145-24.975,14.4-4.047,25.173Z" transform="translate(-98.475 -1027.776)" fill="url(#linear-gradient-19)"/>
            </g>
          </g>
          <g id="组_3744" data-name="组 3744" transform="translate(60.396 89.176)">
            <g id="组_3741" data-name="组 3741" transform="translate(0 11.604)">
              <path id="路径_12001" data-name="路径 12001" d="M170.155,1172.693c2.237,1.292,2.237,3.385,0,4.677a8.955,8.955,0,0,1-8.1,0c-2.237-1.292-2.237-3.385,0-4.677A8.953,8.953,0,0,1,170.155,1172.693Z" transform="translate(-128.632 -1102.304)" fill="#dd8903"/>
              <path id="路径_12002" data-name="路径 12002" d="M159.458,1159.652h-.771v-5.021a6.368,6.368,0,0,0-3.176-5.5l-12.929-7.464a7.142,7.142,0,0,1-3.561-6.168v-34.185a6.368,6.368,0,0,0-3.161-5.491l-14.262-8.23.386-.668,14.262,8.229a7.145,7.145,0,0,1,3.546,6.159V1135.5a6.367,6.367,0,0,0,3.175,5.5l12.929,7.465a7.14,7.14,0,0,1,3.561,6.168Z" transform="translate(-121.599 -1086.925)" fill="#ffb936"/>
            </g>
            <g id="组_3742" data-name="组 3742" transform="translate(9.711 5.716)">
              <path id="路径_12003" data-name="路径 12003" d="M182.615,1165.872c2.237,1.291,2.237,3.385,0,4.676a8.95,8.95,0,0,1-8.1,0c-2.237-1.291-2.237-3.385,0-4.676A8.949,8.949,0,0,1,182.615,1165.872Z" transform="translate(-140.602 -1095.179)" fill="#4138a7"/>
              <path id="路径_12004" data-name="路径 12004" d="M171.81,1152.764h-.771v-5.022a6.367,6.367,0,0,0-3.176-5.5l-12.929-7.465a7.142,7.142,0,0,1-3.561-6.168v-34.185a6.371,6.371,0,0,0-3.161-5.491l-14.751-8.533.386-.668,14.752,8.534a7.143,7.143,0,0,1,3.546,6.159v34.185a6.368,6.368,0,0,0,3.175,5.5l12.93,7.464a7.141,7.141,0,0,1,3.56,6.168Z" transform="translate(-133.461 -1079.733)" fill="#4d4ad1"/>
            </g>
            <g id="组_3743" data-name="组 3743" transform="translate(19.719)">
              <path id="路径_12005" data-name="路径 12005" d="M195.076,1159.051c2.237,1.291,2.237,3.385,0,4.676a8.949,8.949,0,0,1-8.1,0c-2.237-1.291-2.237-3.385,0-4.676A8.95,8.95,0,0,1,195.076,1159.051Z" transform="translate(-152.87 -1088.226)" fill="#2386d7"/>
              <path id="路径_12006" data-name="路径 12006" d="M184.228,1145.914h-.772v-5.022a6.367,6.367,0,0,0-3.175-5.5l-12.93-7.464a7.142,7.142,0,0,1-3.561-6.168v-34.186a6.367,6.367,0,0,0-3.161-5.491l-14.944-8.665.387-.668,14.944,8.665a7.143,7.143,0,0,1,3.546,6.159v34.186a6.366,6.366,0,0,0,3.176,5.5l12.929,7.464a7.142,7.142,0,0,1,3.561,6.168Z" transform="translate(-145.686 -1072.751)" fill="#10a6fa"/>
            </g>
          </g>
          <g id="组_3745" data-name="组 3745" transform="translate(34.5)">
            <path id="路径_12007" data-name="路径 12007" d="M165.921,1052.809l-65.862,38.026a6.729,6.729,0,0,1-10.093-5.827v-76.424a6.728,6.728,0,0,1,3.365-5.827l65.862-38.026a6.729,6.729,0,0,1,10.093,5.827v76.424A6.728,6.728,0,0,1,165.921,1052.809Z" transform="translate(-89.966 -963.82)" fill="url(#linear-gradient-20)"/>
            <path id="路径_12008" data-name="路径 12008" d="M163.488,975.322l-65.473,37.8c-1.015.586-1.846-.042-1.846-1.4h0a4.438,4.438,0,0,1,1.846-3.527l65.473-37.8c1.015-.586,1.845.042,1.845,1.395h0A4.438,4.438,0,0,1,163.488,975.322Z" transform="translate(-91.091 -964.973)" fill="url(#linear-gradient-21)" style="mix-blend-mode: overlay;isolation: isolate"/>
          </g>
        </g>
        <g id="组_3756" data-name="组 3756" transform="translate(215.156 135.789)">
          <g id="组_3748" data-name="组 3748" transform="translate(0 43.471)">
            <path id="路径_12009" data-name="路径 12009" d="M423.23,1201.841,343.462,1247.9c-2.564,1.48-7.085,1.293-10.045-.417l-20.324-11.834c-2.96-1.709-3.285-4.319-.721-5.8l79.769-46.054c2.564-1.48,7.084-1.293,10.044.417l20.324,11.834C425.47,1197.751,425.794,1200.361,423.23,1201.841Z" transform="translate(-310.643 -1182.792)" fill="#eaf2fd"/>
            <g id="组_3747" data-name="组 3747" transform="translate(0.001 16.641)">
              <path id="路径_12010" data-name="路径 12010" d="M423.231,1205.528l-79.768,46.054c-2.564,1.48-7.085,1.293-10.045-.417l-20.324-11.834c-1.646-.95-2.475-2.18-2.447-3.338v5.28c0,.017,0,.035,0,.053-.055,1.174.775,2.426,2.447,3.391l20.324,11.835c2.96,1.709,7.481,1.9,10.045.416l79.768-46.054a3,3,0,0,0,1.726-2.462v-5.279c0-.018,0-.035,0-.053A3.02,3.02,0,0,1,423.231,1205.528Z" transform="translate(-310.645 -1203.12)" fill="url(#linear-gradient-22)"/>
            </g>
          </g>
          <g id="组_3755" data-name="组 3755" transform="translate(16.731)">
            <g id="组_3750" data-name="组 3750" transform="translate(45.999)">
              <path id="路径_12011" data-name="路径 12011" d="M421.4,1140.88l-14.747,8.514a4.7,4.7,0,0,1-4.212-.174l-14.142-8.164c-1.241-.717-1.377-1.812-.3-2.432l14.747-8.514a4.7,4.7,0,0,1,4.212.174l14.141,8.165C422.337,1139.165,422.473,1140.26,421.4,1140.88Z" transform="translate(-387.27 -1129.691)" fill="#00d4ff"/>
              <g id="组_3749" data-name="组 3749" transform="translate(0.001 10.174)">
                <path id="路径_12012" data-name="路径 12012" d="M425.964,1196.165v-53.856h0a1.338,1.338,0,0,1-.7.86l-14.747,8.514a3.813,3.813,0,0,1-1.956.413v54.237a3.813,3.813,0,0,0,1.956-.413l14.747-8.513A1.186,1.186,0,0,0,425.964,1196.165Z" transform="translate(-391.131 -1142.152)" fill="#10a6fa"/>
                <path id="路径_12013" data-name="路径 12013" d="M402.44,1151.474l-14.142-8.164a1.883,1.883,0,0,1-1.007-1.191v53.856c-.109.533.235,1.126,1.007,1.572l14.142,8.164a4.86,4.86,0,0,0,2.256.588v-54.237A4.862,4.862,0,0,1,402.44,1151.474Z" transform="translate(-387.271 -1142.118)" fill="#cfc02d" style="mix-blend-mode: color-dodge;isolation: isolate"/>
                <path id="路径_12014" data-name="路径 12014" d="M402.44,1151.474l-14.142-8.164a1.883,1.883,0,0,1-1.007-1.191v53.856c-.109.533.235,1.126,1.007,1.572l14.142,8.164a4.86,4.86,0,0,0,2.256.588v-54.237A4.862,4.862,0,0,1,402.44,1151.474Z" transform="translate(-387.271 -1142.118)" fill="#2386d7"/>
              </g>
            </g>
            <g id="组_3752" data-name="组 3752" transform="translate(22.743 32.093)">
              <path id="路径_12015" data-name="路径 12015" d="M392.99,1180.084l-14.747,8.514a4.7,4.7,0,0,1-4.212-.174l-14.142-8.165c-1.241-.717-1.377-1.811-.3-2.432l14.746-8.514a4.7,4.7,0,0,1,4.213.175l14.141,8.164C393.929,1178.369,394.065,1179.463,392.99,1180.084Z" transform="translate(-358.862 -1168.894)" fill="#ffd38d"/>
              <g id="组_3751" data-name="组 3751" transform="translate(0 10.173)">
                <path id="路径_12016" data-name="路径 12016" d="M397.556,1216.663v-35.151h0a1.341,1.341,0,0,1-.7.861l-14.747,8.514a3.821,3.821,0,0,1-1.956.413v35.532a3.813,3.813,0,0,0,1.956-.413l14.747-8.514A1.186,1.186,0,0,0,397.556,1216.663Z" transform="translate(-362.723 -1181.355)" fill="#ffb936"/>
                <path id="路径_12017" data-name="路径 12017" d="M374.032,1190.677l-14.142-8.165a1.882,1.882,0,0,1-1.007-1.191v35.152c-.11.533.235,1.126,1.007,1.572l14.142,8.164a4.856,4.856,0,0,0,2.256.588v-35.532A4.858,4.858,0,0,1,374.032,1190.677Z" transform="translate(-358.863 -1181.321)" fill="url(#linear-gradient-23)" style="mix-blend-mode: color-dodge;isolation: isolate"/>
                <path id="路径_12018" data-name="路径 12018" d="M374.032,1190.677l-14.142-8.165a1.882,1.882,0,0,1-1.007-1.191v35.152c-.11.533.235,1.126,1.007,1.572l14.142,8.164a4.856,4.856,0,0,0,2.256.588v-35.532A4.858,4.858,0,0,1,374.032,1190.677Z" transform="translate(-358.863 -1181.321)" fill="#dd8903"/>
              </g>
            </g>
            <g id="组_3754" data-name="组 3754" transform="translate(0 58.73)">
              <path id="路径_12019" data-name="路径 12019" d="M365.209,1212.621l-14.746,8.514a4.7,4.7,0,0,1-4.212-.175l-14.142-8.164c-1.241-.717-1.378-1.811-.3-2.432l14.746-8.514a4.7,4.7,0,0,1,4.213.175l14.141,8.164C366.148,1210.906,366.284,1212,365.209,1212.621Z" transform="translate(-331.081 -1201.431)" fill="#6c69ed"/>
              <g id="组_3753" data-name="组 3753" transform="translate(0.001 10.173)">
                <path id="路径_12020" data-name="路径 12020" d="M369.775,1235.7v-21.647h0a1.34,1.34,0,0,1-.706.861l-14.746,8.514a3.821,3.821,0,0,1-1.956.413v22.029a3.812,3.812,0,0,0,1.956-.413l14.746-8.514A1.185,1.185,0,0,0,369.775,1235.7Z" transform="translate(-334.942 -1213.892)" fill="#4d4ad1"/>
                <path id="路径_12021" data-name="路径 12021" d="M346.251,1223.214l-14.142-8.164a1.881,1.881,0,0,1-1.007-1.191v21.648c-.11.533.234,1.126,1.007,1.572l14.142,8.164a4.856,4.856,0,0,0,2.256.588V1223.8A4.848,4.848,0,0,1,346.251,1223.214Z" transform="translate(-331.082 -1213.858)" fill="#76c1cf" style="mix-blend-mode: color-dodge;isolation: isolate"/>
                <path id="路径_12022" data-name="路径 12022" d="M346.251,1223.214l-14.142-8.164a1.881,1.881,0,0,1-1.007-1.191v21.648c-.11.533.234,1.126,1.007,1.572l14.142,8.164a4.856,4.856,0,0,0,2.256.588V1223.8A4.848,4.848,0,0,1,346.251,1223.214Z" transform="translate(-331.082 -1213.858)" fill="#4138a7"/>
              </g>
            </g>
          </g>
        </g>
      </g>
    </g>
    <text id="_2019_性能挑战赛" data-name="2019 性能挑战赛" transform="translate(1099 9540)" fill="#fff" font-size="20" font-family="HelveticaNeue, Helvetica Neue" letter-spacing="0.05em"><tspan x="0" y="0">2019 </tspan><tspan y="0" font-family="PingFangSC-Regular, PingFang SC">性能挑战赛</tspan></text>
  </g>
</svg>
