<svg xmlns="http://www.w3.org/2000/svg" width="895" height="444" viewBox="0 0 895 444">
  <g id="组_4140" data-name="组 4140" transform="translate(-9901 -1601)">
    <rect id="矩形_308" data-name="矩形 308" width="895" height="444" rx="14" transform="translate(9901 1601)" fill="#fff"/>
    <g id="组_4137" data-name="组 4137" transform="translate(9901 1601)">
      <path id="矩形_29" data-name="矩形 29" d="M14,0H881a14,14,0,0,1,14,14V34a0,0,0,0,1,0,0H0a0,0,0,0,1,0,0V14A14,14,0,0,1,14,0Z" fill="#0a053e"/>
      <circle id="椭圆_4" data-name="椭圆 4" cx="4.5" cy="4.5" r="4.5" transform="translate(22 13)" fill="#f1f6f9" opacity="0.8"/>
      <circle id="椭圆_5" data-name="椭圆 5" cx="4.5" cy="4.5" r="4.5" transform="translate(37 13)" fill="#f1f6f9" opacity="0.6"/>
      <circle id="椭圆_6" data-name="椭圆 6" cx="4.5" cy="4.5" r="4.5" transform="translate(52 13)" fill="#f1f6f9" opacity="0.4"/>
    </g>
    <g id="组_4138" data-name="组 4138" transform="translate(9507 -130)">
      <line id="直线_248" data-name="直线 248" x2="822.453" transform="translate(431.5 1832.5)" fill="none" stroke="#0a053e" stroke-width="1" stroke-dasharray="4" opacity="0.1"/>
      <line id="直线_249" data-name="直线 249" x2="822.453" transform="translate(431.5 1882.5)" fill="none" stroke="#0a053e" stroke-width="1" stroke-dasharray="4" opacity="0.1"/>
      <line id="直线_250" data-name="直线 250" x2="822.453" transform="translate(431.5 1933.5)" fill="none" stroke="#0a053e" stroke-width="1" stroke-dasharray="4" opacity="0.1"/>
      <line id="直线_252" data-name="直线 252" x2="822.453" transform="translate(431.5 1983.5)" fill="none" stroke="#0a053e" stroke-width="1" stroke-dasharray="4" opacity="0.1"/>
      <line id="直线_253" data-name="直线 253" x2="822.453" transform="translate(431.5 2033.5)" fill="none" stroke="#0a053e" stroke-width="1" stroke-dasharray="4" opacity="0.1"/>
      <line id="直线_255" data-name="直线 255" x2="822.453" transform="translate(431.5 2084.5)" fill="none" stroke="#0a053e" stroke-width="1" stroke-dasharray="4" opacity="0.1"/>
      <line id="直线_256" data-name="直线 256" x2="822.453" transform="translate(431.5 2134.5)" fill="none" stroke="#0a053e" stroke-width="1" stroke-dasharray="4" opacity="0.1"/>
    </g>
    <g id="组_4139" data-name="组 4139" transform="translate(9507 -130)">
      <text id="sub-workload" transform="translate(765 1813)" fill="#07033b" font-size="18" font-family="Helvetica"><tspan x="-53.525" y="0">sub-workload</tspan></text>
      <text id="Mentors" transform="translate(1173 1813)" fill="#07033b" font-size="18" font-family="Helvetica"><tspan x="-32.511" y="0">Mentors</tspan></text>
      <g id="组_3538" data-name="组 3538" opacity="0.75">
        <text id="sysbench" transform="translate(433 1863)" fill="#07033b" font-size="16" font-family="Helvetica" opacity="0.7"><tspan x="0" y="0">sysbench</tspan></text>
        <text id="tpcc" transform="translate(433 1915)" fill="#07033b" font-size="16" font-family="Helvetica" opacity="0.7"><tspan x="0" y="0">tpcc</tspan></text>
        <text id="sysbench-2" data-name="sysbench" transform="translate(433 1964)" fill="#07033b" font-size="16" font-family="Helvetica" opacity="0.7"><tspan x="0" y="0">sysbench</tspan></text>
        <text id="tpcc-2" data-name="tpcc" transform="translate(433 2016)" fill="#07033b" font-size="16" font-family="Helvetica" opacity="0.7"><tspan x="0" y="0">tpcc</tspan></text>
        <text id="sysbench-3" data-name="sysbench" transform="translate(433 2064)" fill="#07033b" font-size="16" font-family="Helvetica" opacity="0.7"><tspan x="0" y="0">sysbench</tspan></text>
        <text id="tpcc-3" data-name="tpcc" transform="translate(433 2115)" fill="#07033b" font-size="16" font-family="Helvetica" opacity="0.7"><tspan x="0" y="0">tpcc</tspan></text>
        <text id="sysbenchOltpUpdateNonIndex" transform="translate(713 1863)" fill="#07033b" font-size="16" font-family="Helvetica" opacity="0.7"><tspan x="0" y="0">sysbenchOltpUpdateNonIndex</tspan></text>
        <text id="tpccHighConflicts" transform="translate(713 1915)" fill="#07033b" font-size="16" font-family="Helvetica" opacity="0.7"><tspan x="0" y="0">tpccHighConflicts</tspan></text>
        <text id="sysbenchOltpUpdateNonIndex-2" data-name="sysbenchOltpUpdateNonIndex" transform="translate(713 1964)" fill="#07033b" font-size="16" font-family="Helvetica" opacity="0.7"><tspan x="0" y="0">sysbenchOltpUpdateNonIndex</tspan></text>
        <text id="sysbenchOltpUpdateNonIndex-3" data-name="sysbenchOltpUpdateNonIndex" transform="translate(713 2016)" fill="#07033b" font-size="16" font-family="Helvetica" opacity="0.7"><tspan x="0" y="0">sysbenchOltpUpdateNonIndex</tspan></text>
        <text id="sysbenchOltpUpdateIndex" transform="translate(713 2064)" fill="#07033b" font-size="16" font-family="Helvetica" opacity="0.7"><tspan x="0" y="0">sysbenchOltpUpdateIndex</tspan></text>
        <text id="ycsbWorkloade" transform="translate(713 2115)" fill="#07033b" font-size="16" font-family="Helvetica" opacity="0.7"><tspan x="0" y="0">ycsbWorkloade</tspan></text>
        <text id="youjiali1995" transform="translate(1142 1863)" fill="#07033b" font-size="16" font-family="Helvetica" opacity="0.7"><tspan x="0" y="0">youjiali1995</tspan></text>
        <text id="Little-Wallace" transform="translate(1142 1915)" fill="#07033b" font-size="16" font-family="Helvetica" opacity="0.7"><tspan x="0" y="0">Little-Wallace</tspan></text>
        <text id="sticnarf" transform="translate(1142 1964)" fill="#07033b" font-size="16" font-family="Helvetica" opacity="0.7"><tspan x="0" y="0">sticnarf</tspan></text>
        <text id="tiancaiamao" transform="translate(1142 2016)" fill="#07033b" font-size="16" font-family="Helvetica" opacity="0.7"><tspan x="0" y="0">tiancaiamao</tspan></text>
        <text id="xhebox" transform="translate(1142 2064)" fill="#07033b" font-size="16" font-family="Helvetica" opacity="0.7"><tspan x="0" y="0">xhebox</tspan></text>
        <text id="jackysp" transform="translate(1142 2115)" fill="#07033b" font-size="16" font-family="Helvetica" opacity="0.7"><tspan x="0" y="0">jackysp</tspan></text>
      </g>
    </g>
    <text id="Workload" transform="translate(9978 1683)" fill="#07033b" font-size="18" font-family="Helvetica"><tspan x="-37.854" y="0">Workload</tspan></text>
  </g>
</svg>
