<svg xmlns="http://www.w3.org/2000/svg" width="381" height="531" viewBox="0 0 381 531">
  <g id="组_4141" data-name="组 4141" transform="translate(-10151 -2073)">
    <rect id="矩形_145" data-name="矩形 145" width="381" height="531" rx="14" transform="translate(10151 2073)" fill="#fff"/>
    <g id="组_3474" data-name="组 3474" transform="translate(10151 2073)">
      <path id="矩形_29" data-name="矩形 29" d="M14,0H367a14,14,0,0,1,14,14V34a0,0,0,0,1,0,0H0a0,0,0,0,1,0,0V14A14,14,0,0,1,14,0Z" fill="#0a053e"/>
      <circle id="椭圆_4" data-name="椭圆 4" cx="4.5" cy="4.5" r="4.5" transform="translate(22 13)" fill="#f1f6f9" opacity="0.8"/>
      <circle id="椭圆_5" data-name="椭圆 5" cx="4.5" cy="4.5" r="4.5" transform="translate(37 13)" fill="#f1f6f9" opacity="0.6"/>
      <circle id="椭圆_6" data-name="椭圆 6" cx="4.5" cy="4.5" r="4.5" transform="translate(52 13)" fill="#f1f6f9" opacity="0.4"/>
    </g>
    <text id="Workload" transform="translate(10169 2144)" fill="#07033b" font-size="14" font-family="Helvetica"><tspan x="0" y="0">Workload</tspan></text>
    <text id="sub-workload" transform="translate(10282 2133)" fill="#07033b" font-size="14" font-family="Helvetica"><tspan x="0" y="11">sub-workload</tspan></text>
    <text id="Mentors" transform="translate(10432 2144)" fill="#07033b" font-size="14" font-family="Helvetica"><tspan x="0" y="0">Mentors</tspan></text>
    <g id="组_3580" data-name="组 3580" transform="translate(10134 647)">
      <text id="sysbench" transform="translate(35 1541)" fill="#07033b" font-size="14" font-family="Helvetica" opacity="0.7"><tspan x="0" y="0">sysbench</tspan></text>
      <text id="sysbenchOltpUpdateNonIndex" transform="translate(148 1530)" fill="#07033b" font-size="14" font-family="Helvetica" opacity="0.7"><tspan x="0" y="11">sysbenchOltpUpd</tspan><tspan x="0" y="35">ateNonIndex</tspan></text>
      <text id="youjiali1995" transform="translate(298 1541)" fill="#07033b" font-size="14" font-family="Helvetica" opacity="0.7"><tspan x="0" y="0">youjiali1995</tspan></text>
    </g>
    <g id="组_3579" data-name="组 3579" transform="translate(10134 654)">
      <text id="tpcc" transform="translate(35 1601)" fill="#07033b" font-size="14" font-family="Helvetica" opacity="0.7"><tspan x="0" y="0">tpcc</tspan></text>
      <text id="tpccHighConflicts" transform="translate(148 1590)" fill="#07033b" font-size="14" font-family="Helvetica" opacity="0.7"><tspan x="0" y="11">tpccHighC</tspan><tspan x="0" y="35">onflicts</tspan></text>
      <text id="Little-Wallace" transform="translate(298 1601)" fill="#07033b" font-size="14" font-family="Helvetica" opacity="0.7"><tspan x="0" y="0">Little-Wallace</tspan></text>
    </g>
    <g id="组_3578" data-name="组 3578" transform="translate(10134 673)">
      <text id="sysbench-2" data-name="sysbench" transform="translate(35 1650)" fill="#07033b" font-size="14" font-family="Helvetica" opacity="0.7"><tspan x="0" y="0">sysbench</tspan></text>
      <text id="sysbenchOltpUpdateNonIndex-2" data-name="sysbenchOltpUpdateNonIndex" transform="translate(148 1639)" fill="#07033b" font-size="14" font-family="Helvetica" opacity="0.7"><tspan x="0" y="11">sysbenchOltpUpda</tspan><tspan x="0" y="35">teNonIndex</tspan></text>
      <text id="sticnarf" transform="translate(298 1650)" fill="#07033b" font-size="14" font-family="Helvetica" opacity="0.7"><tspan x="0" y="0">sticnarf</tspan></text>
    </g>
    <g id="组_3581" data-name="组 3581" transform="translate(10134 683)">
      <text id="tpcc-2" data-name="tpcc" transform="translate(35 1707)" fill="#07033b" font-size="14" font-family="Helvetica" opacity="0.7"><tspan x="0" y="0">tpcc</tspan></text>
      <text id="sysbenchOltpUpdateNonIndex-3" data-name="sysbenchOltpUpdateNonIndex" transform="translate(148 1696)" fill="#07033b" font-size="14" font-family="Helvetica" opacity="0.7"><tspan x="0" y="11">sysbenchOltpUpda</tspan><tspan x="0" y="35">teNonIndex</tspan></text>
      <text id="tiancaiamao" transform="translate(298 1707)" fill="#07033b" font-size="14" font-family="Helvetica" opacity="0.7"><tspan x="0" y="0">tiancaiamao</tspan></text>
    </g>
    <g id="组_3583" data-name="组 3583" transform="translate(10134 680)">
      <text id="tpcc-3" data-name="tpcc" transform="translate(35 1846)" fill="#07033b" font-size="14" font-family="Helvetica" opacity="0.7"><tspan x="0" y="0">tpcc</tspan></text>
      <text id="ycsbWorkloade" transform="translate(148 1835)" fill="#07033b" font-size="14" font-family="Helvetica" opacity="0.7"><tspan x="0" y="11">ycsbWor</tspan><tspan x="0" y="35">kloade</tspan></text>
      <text id="jackysp" transform="translate(298 1846)" fill="#07033b" font-size="14" font-family="Helvetica" opacity="0.7"><tspan x="0" y="0">jackysp</tspan></text>
    </g>
    <g id="组_3582" data-name="组 3582" transform="translate(10134 703)">
      <text id="sysbench-3" data-name="sysbench" transform="translate(35 1755)" fill="#07033b" font-size="14" font-family="Helvetica" opacity="0.7"><tspan x="0" y="0">sysbench</tspan></text>
      <text id="sysbenchOltpUpdateIndex" transform="translate(148 1744)" fill="#07033b" font-size="14" font-family="Helvetica" opacity="0.7"><tspan x="0" y="11">sysbenchOltpUp</tspan><tspan x="0" y="35">dateIndex</tspan></text>
      <text id="xhebox" transform="translate(298 1755)" fill="#07033b" font-size="14" font-family="Helvetica" opacity="0.7"><tspan x="0" y="0">xhebox</tspan></text>
    </g>
    <line id="直线_248" data-name="直线 248" x2="346" transform="translate(10170.5 2162.5)" fill="none" stroke="#0a053e" stroke-width="1" stroke-dasharray="4" opacity="0.1"/>
    <line id="直线_302" data-name="直线 302" x2="346" transform="translate(10170.5 2230.5)" fill="none" stroke="#0a053e" stroke-width="1" stroke-dasharray="4" opacity="0.1"/>
    <line id="直线_303" data-name="直线 303" x2="346" transform="translate(10170.5 2298.5)" fill="none" stroke="#0a053e" stroke-width="1" stroke-dasharray="4" opacity="0.1"/>
    <line id="直线_304" data-name="直线 304" x2="346" transform="translate(10170.5 2365.5)" fill="none" stroke="#0a053e" stroke-width="1" stroke-dasharray="4" opacity="0.1"/>
    <line id="直线_305" data-name="直线 305" x2="346" transform="translate(10170.5 2433.5)" fill="none" stroke="#0a053e" stroke-width="1" stroke-dasharray="4" opacity="0.1"/>
    <line id="直线_306" data-name="直线 306" x2="346" transform="translate(10170.5 2500.5)" fill="none" stroke="#0a053e" stroke-width="1" stroke-dasharray="4" opacity="0.1"/>
    <line id="直线_307" data-name="直线 307" x2="346" transform="translate(10170.5 2568.5)" fill="none" stroke="#0a053e" stroke-width="1" stroke-dasharray="4" opacity="0.1"/>
  </g>
</svg>
