<svg xmlns="http://www.w3.org/2000/svg" xmlns:xlink="http://www.w3.org/1999/xlink" width="43" height="43" viewBox="0 0 43 43">
  <defs>
    <linearGradient id="linear-gradient" x2="1.183" y2="1.265" gradientUnits="objectBoundingBox">
      <stop offset="0" stop-color="#2ba8ff"/>
      <stop offset="1" stop-color="#00416e"/>
    </linearGradient>
    <linearGradient id="linear-gradient-2" x1="0.062" y1="-0.116" x2="0.881" y2="1.201" gradientUnits="objectBoundingBox">
      <stop offset="0" stop-color="#008ceb"/>
      <stop offset="0.081" stop-color="#008ae7"/>
      <stop offset="1" stop-color="#003c65"/>
    </linearGradient>
    <linearGradient id="linear-gradient-3" x1="0.323" x2="0.702" y2="0.882" gradientUnits="objectBoundingBox">
      <stop offset="0" stop-color="#0097ff"/>
      <stop offset="1" stop-color="#006ab2"/>
    </linearGradient>
  </defs>
  <g id="组_3554" data-name="组 3554" transform="translate(-509 -7058)">
    <rect id="矩形_120" data-name="矩形 120" width="43" height="43" rx="4" transform="translate(509 7058)" fill="url(#linear-gradient)"/>
    <g id="组_3554-2" data-name="组 3554" transform="translate(517 7064)">
      <path id="路径_89" data-name="路径 89" d="M43.4,30.57a.9.9,0,0,1-.319-.059,18.2,18.2,0,0,1-8.05-5.969,23.459,23.459,0,0,1-3.846-7.783,31.729,31.729,0,0,1-1.27-9.615A.9.9,0,0,1,30.4,6.39L43,.094a.9.9,0,0,1,.8,0l12.591,6.3a.9.9,0,0,1,.494.754,31.731,31.731,0,0,1-1.27,9.615,23.458,23.458,0,0,1-3.846,7.783,18.2,18.2,0,0,1-8.05,5.969.9.9,0,0,1-.319.059Z" transform="translate(-29.896 0)" fill="url(#linear-gradient-2)"/>
    </g>
    <g id="组_3555" data-name="组 3555" transform="translate(520.635 7068.005)">
      <path id="路径_91" data-name="路径 91" d="M100.646,89.744a.9.9,0,0,1-.4-.093c-3.988-1.972-6.788-5.549-8.324-10.632a29.238,29.238,0,0,1-1.142-6.5.9.9,0,0,1,.493-.857l8.969-4.485a.9.9,0,0,1,.8,0l8.969,4.485a.9.9,0,0,1,.493.857,29.239,29.239,0,0,1-1.142,6.5c-1.535,5.083-4.336,8.661-8.324,10.632a.9.9,0,0,1-.4.093Z" transform="translate(-90.782 -67.083)" fill="url(#linear-gradient-3)"/>
    </g>
  </g>
</svg>
