<svg xmlns="http://www.w3.org/2000/svg" xmlns:xlink="http://www.w3.org/1999/xlink" width="559" height="334" viewBox="0 0 559 334">
  <defs>
    <radialGradient id="radial-gradient" cx="0.302" cy="0.595" r="0.698" gradientTransform="translate(0 -0.338) scale(1 1.474)" gradientUnits="objectBoundingBox">
      <stop offset="0" stop-color="#343275"/>
      <stop offset="1" stop-color="#1a193b"/>
    </radialGradient>
    <linearGradient id="linear-gradient" y1="0.5" x2="1" y2="0.5" gradientUnits="objectBoundingBox">
      <stop offset="0" stop-color="#f5fdff"/>
      <stop offset="1" stop-color="#e466ff"/>
    </linearGradient>
  </defs>
  <g id="组_3773" data-name="组 3773" transform="translate(-281 -9344)">
    <rect id="矩形_109" data-name="矩形 109" width="559" height="334" rx="14" transform="translate(281 9344)" fill="url(#radial-gradient)"/>
    <g id="组_3719" data-name="组 3719" transform="translate(401.453 9378.186)">
      <g id="组_3631" data-name="组 3631" transform="translate(0 78.561)">
        <path id="路径_11891" data-name="路径 11891" d="M104.956,273.2l150.411-86.84L405.778,273.2,255.367,360.04Z" transform="translate(-104.956 -172.473)" fill="#4666b9" style="mix-blend-mode: multiply;isolation: isolate"/>
        <path id="路径_11892" data-name="路径 11892" d="M104.956,259.2l150.411-86.84L405.778,259.2,255.367,346.04Z" transform="translate(-104.956 -172.361)" fill="#ec827d"/>
        <path id="路径_11893" data-name="路径 11893" d="M132.117,259.326l123.468-71.284,123.468,71.284L255.585,330.61Z" transform="translate(-105.174 -172.486)" fill="none" stroke="#fff" stroke-miterlimit="10" stroke-width="0.927" opacity="0.292"/>
        <path id="路径_11894" data-name="路径 11894" d="M147.935,259.4l107.777-62.225L363.489,259.4,255.712,321.625Z" transform="translate(-105.301 -172.56)" fill="none" stroke="#fff" stroke-miterlimit="10" stroke-width="0.81" opacity="0.292"/>
        <path id="路径_11895" data-name="路径 11895" d="M104.956,259.9v9.649l150.411,86.84v-9.649Z" transform="translate(-104.956 -173.063)" fill="#d86868"/>
        <path id="路径_11896" data-name="路径 11896" d="M256.584,346.743,407,259.9v9.649l-150.411,86.84Z" transform="translate(-106.173 -173.063)" fill="#d86868"/>
      </g>
      <g id="组_3632" data-name="组 3632" transform="translate(79.158 107.5)">
        <path id="路径_11897" data-name="路径 11897" d="M184.755,242.672l71.253-41.138,71.253,41.138L256.008,283.81Z" transform="translate(-184.755 -201.534)" fill="#5f3d84"/>
        <path id="路径_11898" data-name="路径 11898" d="M184.755,243v9.142l71.253,41.138v-9.142Z" transform="translate(-184.755 -201.867)" fill="#282342"/>
        <path id="路径_11899" data-name="路径 11899" d="M256.584,284.143,327.837,243v9.142l-71.253,41.138Z" transform="translate(-185.331 -201.867)" fill="#282342"/>
      </g>
      <g id="组_3633" data-name="组 3633" transform="translate(95.87 38.977)">
        <path id="路径_11900" data-name="路径 11900" d="M201.6,163.945l54.541-31.489,54.54,31.489-54.54,31.489Z" transform="translate(-201.602 -132.457)" fill="#81adb4"/>
        <path id="路径_11901" data-name="路径 11901" d="M201.6,164.2v79.167l54.541,31.489V195.689Z" transform="translate(-201.602 -132.711)" fill="#bddbe0"/>
        <path id="路径_11902" data-name="路径 11902" d="M256.584,195.689l54.54-31.489v79.167l-54.54,31.489Z" transform="translate(-202.044 -132.711)" fill="#fff"/>
      </g>
      <g id="组_3634" data-name="组 3634" transform="translate(86.573)">
        <path id="路径_11903" data-name="路径 11903" d="M192.23,163.9l63.838-36.857L319.905,163.9l-63.838,36.857Z" transform="translate(-192.23 -93.436)" fill="none" stroke="#fff" stroke-miterlimit="10" stroke-width="0.927"/>
        <path id="路径_11904" data-name="路径 11904" d="M192.23,152.608l63.838-36.857,63.838,36.857-63.838,36.857Z" transform="translate(-192.23 -93.345)" fill="none" stroke="#fff" stroke-miterlimit="10" stroke-width="0.927"/>
        <path id="路径_11905" data-name="路径 11905" d="M192.23,141.314l63.838-36.857,63.838,36.857-63.838,36.857Z" transform="translate(-192.23 -93.255)" fill="none" stroke="#fff" stroke-miterlimit="10" stroke-width="0.927"/>
        <path id="路径_11906" data-name="路径 11906" d="M192.23,130.021l63.838-36.857,63.838,36.857-63.838,36.857Z" transform="translate(-192.23 -93.164)" fill="none" stroke="#fff" stroke-miterlimit="10" stroke-width="0.927"/>
      </g>
      <g id="组_3635" data-name="组 3635" transform="translate(100.274 88.086)">
        <path id="路径_11907" data-name="路径 11907" d="M210.731,184.67l-4.69-2.707v5.415l4.69,2.708Z" transform="translate(-206.041 -181.963)" fill="#fff"/>
        <path id="路径_11908" data-name="路径 11908" d="M210.731,194.557l-4.69-2.707v5.415l4.69,2.708Z" transform="translate(-206.041 -182.042)" fill="#fff"/>
        <path id="路径_11909" data-name="路径 11909" d="M210.731,204.445l-4.69-2.708v5.415l4.69,2.707Z" transform="translate(-206.041 -182.121)" fill="#fff"/>
        <path id="路径_11910" data-name="路径 11910" d="M210.731,214.332l-4.69-2.708v5.415l4.69,2.708Z" transform="translate(-206.041 -182.201)" fill="#fff"/>
        <path id="路径_11911" data-name="路径 11911" d="M219.283,189.614l-4.69-2.707v5.415l4.69,2.708Z" transform="translate(-206.11 -182.002)" fill="#fff"/>
        <path id="路径_11912" data-name="路径 11912" d="M219.283,199.5l-4.69-2.708v5.415l4.69,2.708Z" transform="translate(-206.11 -182.082)" fill="#fff"/>
        <path id="路径_11913" data-name="路径 11913" d="M219.283,209.388l-4.69-2.708V212.1l4.69,2.708Z" transform="translate(-206.11 -182.161)" fill="#fff"/>
        <path id="路径_11914" data-name="路径 11914" d="M228.3,194.938l-4.69-2.708v5.415l4.69,2.708Z" transform="translate(-206.183 -182.045)" fill="#fff"/>
        <path id="路径_11915" data-name="路径 11915" d="M228.3,204.825l-4.69-2.708v5.415l4.69,2.708Z" transform="translate(-206.183 -182.124)" fill="#fff"/>
        <path id="路径_11916" data-name="路径 11916" d="M236.737,199.882l-4.689-2.707v5.415l4.689,2.708Z" transform="translate(-206.25 -182.085)" fill="#fff"/>
        <path id="路径_11917" data-name="路径 11917" d="M244.426,204.242l-4.69-2.708v5.415l4.69,2.708Z" transform="translate(-206.312 -182.12)" fill="#fff"/>
        <path id="路径_11918" data-name="路径 11918" d="M236.737,209.769l-4.689-2.707v5.415l4.689,2.708Z" transform="translate(-206.25 -182.164)" fill="#fff"/>
        <path id="路径_11919" data-name="路径 11919" d="M228.3,214.713,223.613,212v5.415l4.69,2.708Z" transform="translate(-206.183 -182.204)" fill="#fff"/>
        <path id="路径_11920" data-name="路径 11920" d="M219.283,219.275l-4.69-2.708v5.415l4.69,2.708Z" transform="translate(-206.11 -182.24)" fill="#fff"/>
        <path id="路径_11921" data-name="路径 11921" d="M210.731,224.219l-4.69-2.708v5.415l4.69,2.708Z" transform="translate(-206.041 -182.28)" fill="#fff"/>
      </g>
      <g id="组_3636" data-name="组 3636" transform="translate(162.434 88.086)">
        <path id="路径_11922" data-name="路径 11922" d="M302.4,184.67l4.689-2.707v5.415l-4.689,2.708Z" transform="translate(-268.974 -181.963)" fill="#fff"/>
        <path id="路径_11923" data-name="路径 11923" d="M302.4,194.557l4.689-2.707v5.415l-4.689,2.708Z" transform="translate(-268.974 -182.042)" fill="#fff"/>
        <path id="路径_11924" data-name="路径 11924" d="M302.4,204.445l4.689-2.708v5.415L302.4,209.86Z" transform="translate(-268.974 -182.121)" fill="#fff"/>
        <path id="路径_11925" data-name="路径 11925" d="M302.4,214.332l4.689-2.708v5.415l-4.689,2.708Z" transform="translate(-268.974 -182.201)" fill="#fff"/>
        <path id="路径_11926" data-name="路径 11926" d="M293.848,189.614l4.689-2.707v5.415l-4.689,2.708Z" transform="translate(-268.906 -182.002)" fill="#fff"/>
        <path id="路径_11927" data-name="路径 11927" d="M293.848,199.5l4.689-2.708v5.415l-4.689,2.708Z" transform="translate(-268.906 -182.082)" fill="#fff"/>
        <path id="路径_11928" data-name="路径 11928" d="M293.848,209.388l4.689-2.708V212.1l-4.689,2.708Z" transform="translate(-268.906 -182.161)" fill="#fff"/>
        <path id="路径_11929" data-name="路径 11929" d="M284.828,194.938l4.69-2.708v5.415l-4.69,2.708Z" transform="translate(-268.833 -182.045)" fill="#fff"/>
        <path id="路径_11930" data-name="路径 11930" d="M284.828,204.825l4.69-2.708v5.415l-4.69,2.708Z" transform="translate(-268.833 -182.124)" fill="#fff"/>
        <path id="路径_11931" data-name="路径 11931" d="M276.393,199.882l4.69-2.707v5.415l-4.69,2.708Z" transform="translate(-268.766 -182.085)" fill="#fff"/>
        <path id="路径_11932" data-name="路径 11932" d="M268.7,204.242l4.69-2.708v5.415l-4.69,2.708Z" transform="translate(-268.704 -182.12)" fill="#fff"/>
        <path id="路径_11933" data-name="路径 11933" d="M276.393,209.769l4.69-2.707v5.415l-4.69,2.708Z" transform="translate(-268.766 -182.164)" fill="#fff"/>
        <path id="路径_11934" data-name="路径 11934" d="M284.828,214.713l4.69-2.708v5.415l-4.69,2.708Z" transform="translate(-268.833 -182.204)" fill="#fff"/>
        <path id="路径_11935" data-name="路径 11935" d="M293.848,219.275l4.689-2.708v5.415l-4.689,2.708Z" transform="translate(-268.906 -182.24)" fill="#fff"/>
        <path id="路径_11936" data-name="路径 11936" d="M302.4,224.219l4.689-2.708v5.415l-4.689,2.708Z" transform="translate(-268.974 -182.28)" fill="#fff"/>
      </g>
      <g id="组_3641" data-name="组 3641" transform="translate(120.789 13.296)">
        <g id="组_3637" data-name="组 3637" transform="translate(45.199 17.154)">
          <path id="路径_11937" data-name="路径 11937" d="M272.287,127.451l6.22-3.591,6.22,3.591-6.22,3.591Z" transform="translate(-272.287 -123.86)" fill="url(#linear-gradient)"/>
          <path id="路径_11938" data-name="路径 11938" d="M272.287,127.48v7.7l6.22,3.591v-7.7Z" transform="translate(-272.287 -123.889)" fill="url(#linear-gradient)"/>
          <path id="路径_11939" data-name="路径 11939" d="M278.557,131.071l6.22-3.591v7.7l-6.22,3.591Z" transform="translate(-272.337 -123.889)" fill="url(#linear-gradient)"/>
        </g>
        <g id="组_3638" data-name="组 3638" transform="translate(0 9.539)">
          <path id="路径_11940" data-name="路径 11940" d="M226.722,122.613l11.136-6.429,11.136,6.429-11.136,6.429Z" transform="translate(-226.722 -116.184)" fill="url(#linear-gradient)"/>
          <path id="路径_11941" data-name="路径 11941" d="M226.722,122.665v13.776l11.136,6.429V129.094Z" transform="translate(-226.722 -116.236)" fill="url(#linear-gradient)"/>
          <path id="路径_11942" data-name="路径 11942" d="M237.948,129.094l11.136-6.429v13.776l-11.136,6.429Z" transform="translate(-226.812 -116.236)" fill="url(#linear-gradient)"/>
        </g>
        <g id="组_3639" data-name="组 3639" transform="translate(22.652 29.434)">
          <path id="路径_11943" data-name="路径 11943" d="M249.558,142.259l10.426-6.02,10.426,6.02-10.426,6.019Z" transform="translate(-249.558 -136.239)" fill="url(#linear-gradient)"/>
          <path id="路径_11944" data-name="路径 11944" d="M249.558,142.308v12.9l10.426,6.02v-12.9Z" transform="translate(-249.558 -136.288)" fill="url(#linear-gradient)"/>
          <path id="路径_11945" data-name="路径 11945" d="M260.068,148.327l10.426-6.019v12.9l-10.426,6.02Z" transform="translate(-249.642 -136.288)" fill="url(#linear-gradient)"/>
        </g>
        <g id="组_3640" data-name="组 3640" transform="translate(35.049)">
          <path id="路径_11946" data-name="路径 11946" d="M262.055,109.156l4.482-2.588,4.482,2.588-4.482,2.588Z" transform="translate(-262.055 -106.568)" fill="url(#linear-gradient)"/>
          <path id="路径_11947" data-name="路径 11947" d="M262.055,109.177v5.545l4.482,2.588v-5.545Z" transform="translate(-262.055 -106.589)" fill="url(#linear-gradient)"/>
          <path id="路径_11948" data-name="路径 11948" d="M266.573,111.764l4.482-2.588v5.545l-4.482,2.588Z" transform="translate(-262.091 -106.589)" fill="url(#linear-gradient)"/>
        </g>
      </g>
    </g>
    <text id="_2019_易用性挑战赛" data-name="2019 易用性挑战赛" transform="translate(312 9649)" fill="#fff" font-size="20" font-family="HelveticaNeue, Helvetica Neue" letter-spacing="0.05em"><tspan x="0" y="0">2019 </tspan><tspan y="0" font-family="PingFangSC-Regular, PingFang SC">易用性挑战赛</tspan></text>
  </g>
</svg>
