<svg xmlns="http://www.w3.org/2000/svg" xmlns:xlink="http://www.w3.org/1999/xlink" width="95.422" height="112.5" viewBox="0 0 95.422 112.5">
  <defs>
    <clipPath id="clip-path">
      <path id="路径_58" data-name="路径 58" d="M538.13,400.482l-38.36,22.148a12.538,12.538,0,0,1-12.538,0l-42.984-24.817L493.5,369.377l44.628,25.767A3.081,3.081,0,0,1,538.13,400.482Z" transform="translate(-444.249 -369.377)" fill="none"/>
    </clipPath>
  </defs>
  <g id="组_3413" data-name="组 3413" transform="translate(-466 -5135)">
    <g id="组_3412" data-name="组 3412" transform="translate(21.751 4799.013)">
      <g id="组_3392" data-name="组 3392" transform="translate(444.249 393.555)">
        <g id="组_3391" data-name="组 3391" clip-path="url(#clip-path)">
          <g id="组_3390" data-name="组 3390" transform="translate(-16.783 -7.796)">
            <g id="组_3368" data-name="组 3368" transform="translate(13.005 7.239)">
              <rect id="矩形_73" data-name="矩形 73" width="84.456" height="1.229" transform="matrix(0.866, -0.499, 0.499, 0.866, 0, 42.179)" fill="#150035"/>
            </g>
            <g id="组_3369" data-name="组 3369" transform="translate(16.353 9.022)">
              <rect id="矩形_74" data-name="矩形 74" width="84.455" height="1.23" transform="translate(0 42.179) rotate(-29.962)" fill="#150035"/>
            </g>
            <g id="组_3370" data-name="组 3370" transform="translate(19.393 10.917)">
              <rect id="矩形_75" data-name="矩形 75" width="84.456" height="1.23" transform="translate(0 42.194) rotate(-29.973)" fill="#150035"/>
            </g>
            <g id="组_3371" data-name="组 3371" transform="translate(22.804 12.663)">
              <rect id="矩形_76" data-name="矩形 76" width="84.456" height="1.23" transform="translate(0 42.194) rotate(-29.973)" fill="#150035"/>
            </g>
            <g id="组_3372" data-name="组 3372" transform="translate(25.618 14.626)">
              <rect id="矩形_77" data-name="矩形 77" width="84.457" height="1.23" transform="matrix(0.866, -0.5, 0.5, 0.866, 0, 42.189)" fill="#150035"/>
            </g>
            <g id="组_3373" data-name="组 3373" transform="translate(28.963 16.414)">
              <rect id="矩形_78" data-name="矩形 78" width="84.455" height="1.23" transform="translate(0 42.179) rotate(-29.962)" fill="#150035"/>
            </g>
            <g id="组_3374" data-name="组 3374" transform="translate(31.999 18.316)">
              <rect id="矩形_79" data-name="矩形 79" width="84.457" height="1.23" transform="translate(0 42.18) rotate(-29.962)" fill="#150035"/>
            </g>
            <g id="组_3375" data-name="组 3375" transform="translate(35.412 20.06)">
              <rect id="矩形_80" data-name="矩形 80" width="84.457" height="1.23" transform="translate(0 42.185) rotate(-29.966)" fill="#150035"/>
            </g>
            <g id="组_3376" data-name="组 3376" transform="translate(38.45 21.96)">
              <rect id="矩形_81" data-name="矩形 81" width="84.455" height="1.23" transform="matrix(0.866, -0.5, 0.5, 0.866, 0, 42.188)" fill="#150035"/>
            </g>
            <g id="组_3377" data-name="组 3377" transform="translate(41.851 23.74)">
              <rect id="矩形_82" data-name="矩形 82" width="84.457" height="1.23" transform="translate(0 42.185) rotate(-29.966)" fill="#150035"/>
            </g>
            <g id="组_3378" data-name="组 3378" transform="translate(44.888 25.64)">
              <rect id="矩形_83" data-name="矩形 83" width="84.457" height="1.23" transform="matrix(0.866, -0.5, 0.5, 0.866, 0, 42.189)" fill="#150035"/>
            </g>
            <g id="组_3379" data-name="组 3379" transform="translate(48.299 27.392)">
              <rect id="矩形_84" data-name="矩形 84" width="84.455" height="1.23" transform="translate(0 42.179) rotate(-29.962)" fill="#150035"/>
            </g>
            <g id="组_3380" data-name="组 3380" transform="translate(51.117 29.345)">
              <rect id="矩形_85" data-name="矩形 85" width="84.456" height="1.23" transform="translate(0 42.194) rotate(-29.973)" fill="#150035"/>
            </g>
            <g id="组_3381" data-name="组 3381" transform="translate(54.462 31.132)">
              <rect id="矩形_86" data-name="矩形 86" width="84.456" height="1.23" transform="translate(0 42.185) rotate(-29.966)" fill="#150035"/>
            </g>
            <g id="组_3382" data-name="组 3382" transform="translate(57.496 33.037)">
              <rect id="矩形_87" data-name="矩形 87" width="84.456" height="1.23" transform="translate(0 42.18) rotate(-29.962)" fill="#150035"/>
            </g>
            <g id="组_3383" data-name="组 3383" transform="translate(60.912 34.78)">
              <rect id="矩形_88" data-name="矩形 88" width="84.455" height="1.23" transform="matrix(0.866, -0.5, 0.5, 0.866, 0, 42.188)" fill="#150035"/>
            </g>
            <g id="组_3384" data-name="组 3384" transform="translate(63.947 36.682)">
              <rect id="矩形_89" data-name="矩形 89" width="84.457" height="1.23" transform="matrix(0.866, -0.5, 0.5, 0.866, 0, 42.188)" fill="#150035"/>
            </g>
            <g id="组_3385" data-name="组 3385" transform="translate(0 0)">
              <rect id="矩形_90" data-name="矩形 90" width="84.455" height="1.229" transform="translate(0 42.193) rotate(-29.973)" fill="#150035"/>
            </g>
            <g id="组_3386" data-name="组 3386" transform="translate(3.345 1.786)">
              <rect id="矩形_91" data-name="矩形 91" width="84.457" height="1.229" transform="matrix(0.866, -0.5, 0.5, 0.866, 0, 42.189)" fill="#150035"/>
            </g>
            <g id="组_3387" data-name="组 3387" transform="translate(6.381 3.69)">
              <rect id="矩形_92" data-name="矩形 92" width="84.455" height="1.229" transform="translate(0 42.184) rotate(-29.966)" fill="#150035"/>
            </g>
            <g id="组_3388" data-name="组 3388" transform="translate(9.792 5.439)">
              <rect id="矩形_93" data-name="矩形 93" width="84.456" height="1.229" transform="translate(0 42.18) rotate(-29.962)" fill="#150035"/>
            </g>
            <g id="组_3389" data-name="组 3389" transform="translate(12.829 7.339)">
              <rect id="矩形_94" data-name="矩形 94" width="84.456" height="1.229" transform="matrix(0.866, -0.499, 0.499, 0.866, 0, 42.184)" fill="#150035"/>
            </g>
          </g>
        </g>
      </g>
      <g id="组_3411" data-name="组 3411" transform="translate(448.383 335.987)">
        <g id="组_3399" data-name="组 3399" transform="translate(0 48.445)">
          <g id="组_3393" data-name="组 3393" transform="translate(0.009 2.743)">
            <path id="路径_59" data-name="路径 59" d="M532.1,388.1h-2.4a.193.193,0,0,1-.1-.026L493.67,367.32a8.086,8.086,0,0,0-7.269-.3L450.226,387.9a.187.187,0,0,1-.086.026l-2.686.138a.194.194,0,0,0-.184.193v2.324l.019.012a2.865,2.865,0,0,0,1.752,2.49l36.839,21.268a8.076,8.076,0,0,0,7.269.3l37.882-21.872a2.191,2.191,0,0,0,1.229-1.681l.019-1.809Z" transform="translate(-446.205 -365.23)" fill="#150035"/>
            <path id="路径_60" data-name="路径 60" d="M490.429,416.893a9.46,9.46,0,0,1-4.636-1.171l-36.837-21.269a4.2,4.2,0,0,1-2.257-2.848l-.029-.021-.017-2.878a1.261,1.261,0,0,1,1.179-1.255l2.491-.128,35.991-20.781a9.13,9.13,0,0,1,8.336.3l35.734,20.631h3.083l.324,2.276-.019,1.809a3.268,3.268,0,0,1-1.764,2.593l-37.88,21.87A7.522,7.522,0,0,1,490.429,416.893Zm-41.647-26.4.04.028-.024.6c-.034.467.435,1.038,1.222,1.495l36.839,21.269a7.026,7.026,0,0,0,6.2.3l37.882-21.87a1.254,1.254,0,0,0,.7-.85l.014-1.646-.029-.207h-1.766l-.343-.171-35.937-20.748a7.042,7.042,0,0,0-6.205-.3l-36.4,21.013-.341.04-1.86.095Z" transform="translate(-446.652 -365.677)" fill="#150035"/>
          </g>
          <g id="组_3394" data-name="组 3394">
            <path id="路径_61" data-name="路径 61" d="M531.033,391.194l-37.882,21.872a8.076,8.076,0,0,1-7.269-.3L449.043,391.5c-2.15-1.241-2.384-3.121-.521-4.2l37.882-21.87a8.081,8.081,0,0,1,7.269.3L530.51,387C532.662,388.241,532.9,390.12,531.033,391.194Z" transform="translate(-446.2 -363.639)" fill="#fff"/>
            <path id="路径_62" data-name="路径 62" d="M490.432,415.3a9.464,9.464,0,0,1-4.636-1.171l-36.837-21.268a4,4,0,0,1-2.312-3.293,3.185,3.185,0,0,1,1.79-2.747l37.88-21.87a9.13,9.13,0,0,1,8.336.3l36.837,21.268a4.011,4.011,0,0,1,2.312,3.295,3.186,3.186,0,0,1-1.791,2.745l-37.88,21.872A7.517,7.517,0,0,1,490.432,415.3ZM490,366.21a5.37,5.37,0,0,0-2.616.586l-37.88,21.87c-.272.157-.726.483-.726.9,0,.353.328.922,1.247,1.452l36.839,21.27a7.015,7.015,0,0,0,6.2.3l37.882-21.87c.271-.157.726-.483.726-.9,0-.353-.328-.919-1.248-1.452L493.587,367.1A7.427,7.427,0,0,0,490,366.21Z" transform="translate(-446.647 -364.086)" fill="#150035"/>
          </g>
          <g id="组_3395" data-name="组 3395" transform="translate(42.759 50.433)">
            <rect id="矩形_95" data-name="矩形 95" width="1.638" height="2.454" fill="#39a1ff"/>
          </g>
          <g id="组_3396" data-name="组 3396" transform="translate(3.524 29.061)">
            <rect id="矩形_96" data-name="矩形 96" width="1.638" height="2.454" fill="#39a1ff"/>
          </g>
          <g id="组_3397" data-name="组 3397" transform="translate(8.748 31.851)">
            <rect id="矩形_97" data-name="矩形 97" width="1.638" height="2.454" fill="#39a1ff"/>
          </g>
          <g id="组_3398" data-name="组 3398" transform="translate(82.082 28.821)">
            <rect id="矩形_98" data-name="矩形 98" width="1.638" height="2.454" fill="#39a1ff"/>
          </g>
        </g>
        <g id="组_3409" data-name="组 3409" transform="translate(15.804)">
          <g id="组_3400" data-name="组 3400" transform="translate(0 6.126)">
            <path id="路径_63" data-name="路径 63" d="M509.416,400.673l-.112-.471-15.958-60.045H472.987l-16.081,60.516-.053.229c-1.5,4.991,1.017,10.095,7.443,13.951,10.422,6.257,27.32,6.257,37.742,0C508.462,411,510.912,405.663,509.416,400.673Z" transform="translate(-455.364 -339.093)" fill="#39a1ff"/>
            <path id="路径_64" data-name="路径 64" d="M483.616,421.035c-7.034,0-14.065-1.607-19.42-4.822-6.712-4.029-9.595-9.558-7.912-15.169l.034-.164,16.3-61.34h22l16.281,61.3c1.681,5.664-1.255,11.408-7.858,15.37C497.683,419.426,490.648,421.035,483.616,421.035Zm-9.36-79.366-15.913,59.918c-1.4,4.671,1.14,9.314,6.95,12.8,10.1,6.069,26.543,6.069,36.647,0,5.728-3.438,8.308-8.283,6.905-12.962l-.128-.529-15.741-59.226Z" transform="translate(-455.814 -339.54)" fill="#150035"/>
          </g>
          <g id="组_3401" data-name="组 3401" transform="translate(16.559)">
            <path id="路径_65" data-name="路径 65" d="M483.412,338.4c3.976,2.386,3.976,6.255,0,8.643a15.371,15.371,0,0,1-14.4,0c-3.974-2.388-3.974-6.257,0-8.643A15.361,15.361,0,0,1,483.412,338.4Z" transform="translate(-464.971 -335.534)" fill="#fff"/>
            <path id="路径_66" data-name="路径 66" d="M476.661,350.366a15.293,15.293,0,0,1-7.746-1.955c-2.257-1.355-3.5-3.214-3.5-5.234s1.241-3.881,3.5-5.234a16.32,16.32,0,0,1,15.491,0h0c2.257,1.355,3.5,3.214,3.5,5.234s-1.24,3.879-3.5,5.234A15.294,15.294,0,0,1,476.661,350.366Zm0-12.25a13.161,13.161,0,0,0-6.648,1.652c-1.59.955-2.467,2.165-2.467,3.409s.876,2.455,2.465,3.41a14.221,14.221,0,0,0,13.3,0c1.59-.955,2.466-2.167,2.466-3.41s-.876-2.453-2.466-3.409h0A13.168,13.168,0,0,0,476.661,338.116Z" transform="translate(-465.418 -335.987)" fill="#150035"/>
          </g>
          <g id="组_3402" data-name="组 3402" transform="translate(20.273 3.008)">
            <path id="路径_67" data-name="路径 67" d="M479.176,339.229a12.233,12.233,0,0,0-9.1,0c-2.514,1.172-2.514,3.072,0,4.243a12.216,12.216,0,0,0,9.1,0C481.69,342.3,481.69,340.4,479.176,339.229Z" transform="translate(-467.125 -337.283)" fill="#39a1ff"/>
            <path id="路径_68" data-name="路径 68" d="M475.072,345.867a12.165,12.165,0,0,1-5-.981c-2.176-1.014-2.5-2.369-2.5-3.086s.324-2.074,2.5-3.086a13.239,13.239,0,0,1,10,0v0c2.176,1.012,2.5,2.369,2.5,3.086s-.324,2.072-2.5,3.086A12.179,12.179,0,0,1,475.072,345.867Zm0-6a10.08,10.08,0,0,0-4.1.778c-.876.409-1.269.876-1.269,1.157s.393.748,1.269,1.157a11.221,11.221,0,0,0,8.2,0c.878-.409,1.271-.876,1.271-1.157s-.393-.748-1.271-1.157h0A10.075,10.075,0,0,0,475.072,339.865Z" transform="translate(-467.572 -337.732)" fill="#150035"/>
          </g>
          <g id="组_3403" data-name="组 3403" transform="translate(8.93 20.803)">
            <path id="路径_69" data-name="路径 69" d="M496.884,361.415l-3.4-12.745h-.014c.56,2.538-.769,5.2-4.017,7.148-5.543,3.327-14.529,3.327-20.072,0-3.248-1.952-4.578-4.61-4.017-7.148h-.012l-2.379,9.024-1.1,4.214c-.947,3.315.7,6.843,4.959,9.4,6.976,4.188,18.284,4.188,25.258,0C496.561,368.623,498.084,364.932,496.884,361.415Z" transform="translate(-460.545 -347.606)" fill="#fff"/>
            <path id="路径_70" data-name="路径 70" d="M479.908,375.94a26.125,26.125,0,0,1-13.179-3.271c-4.524-2.717-6.555-6.681-5.433-10.608l3.683-14.008h2.145l-.272,1.293c-.481,2.181.8,4.371,3.526,6.005,5.231,3.14,13.745,3.14,18.975,0,2.722-1.634,4.009-3.822,3.526-6.005l-.285-1.293h2.141l.224.79,3.391,12.71c1.395,4.145-.572,8.3-5.267,11.117A26.116,26.116,0,0,1,479.908,375.94Zm-14.234-22.168-2.324,8.852c-.859,3.01.774,6,4.478,8.221,6.66,4,17.5,4,24.16,0,3.841-2.307,5.424-5.455,4.338-8.64l-.021-.069-2.236-8.379a10.552,10.552,0,0,1-3.619,3.421c-5.838,3.5-15.331,3.5-21.169,0A10.553,10.553,0,0,1,465.674,353.772Z" transform="translate(-460.993 -348.053)" fill="#150035"/>
          </g>
          <g id="组_3404" data-name="组 3404" transform="translate(1.908 47.93)">
            <path id="路径_71" data-name="路径 71" d="M506.91,376.83h.021l-.183-.674c-.01-.033-.017-.067-.028-.1L503.567,364.4h-.016c.743,3.774-1.281,7.707-6.105,10.6-8.36,5.019-21.915,5.019-30.275,0-4.824-2.9-6.846-6.829-6.105-10.6h-.016l-3.257,12.426h.029c-1.052,4.478,1.262,9.183,6.995,12.626,9.691,5.819,25.4,5.819,35.1,0C505.648,386.012,507.96,381.307,506.91,376.83Z" transform="translate(-456.444 -363.34)" fill="#fff"/>
            <path id="路径_72" data-name="路径 72" d="M482.842,395.309c-6.555,0-13.107-1.5-18.1-4.493-5.379-3.231-8.179-7.815-7.705-12.474h-.121l.321-1.334,3.464-13.22h2.116l-.233,1.269c-.684,3.478,1.36,6.934,5.609,9.484,8.045,4.829,21.132,4.833,29.18,0,4.248-2.55,6.29-6.007,5.607-9.484l-.25-1.269h2.109l.228.786,3.731,13.769h-.157c.476,4.659-2.326,9.243-7.705,12.474C495.95,393.809,489.4,395.309,482.842,395.309Zm-23.387-18.348-.119.56c-.99,4.212,1.383,8.391,6.507,11.467,9.374,5.631,24.627,5.631,34,0,5.124-3.076,7.5-7.255,6.508-11.467l-.153-.64-1.8-6.648a14.444,14.444,0,0,1-5.922,6.134c-8.648,5.189-22.722,5.193-31.374,0a14.5,14.5,0,0,1-5.9-6.076Z" transform="translate(-456.92 -363.787)" fill="#150035"/>
          </g>
          <g id="组_3405" data-name="组 3405" transform="translate(8.949 17.238)">
            <rect id="矩形_99" data-name="矩形 99" width="49.704" height="2.129" transform="translate(0 48.544) rotate(-77.593)" fill="#fff"/>
          </g>
          <g id="组_3406" data-name="组 3406" transform="translate(15.599 31.059)">
            <rect id="矩形_100" data-name="矩形 100" width="4.588" height="2.129" transform="translate(0 4.482) rotate(-77.634)" fill="#39a1ff"/>
          </g>
          <g id="组_3407" data-name="组 3407" transform="translate(8.957 60.83)">
            <rect id="矩形_101" data-name="矩形 101" width="5.072" height="2.129" transform="translate(0 4.953) rotate(-77.593)" fill="#39a1ff"/>
          </g>
          <g id="组_3408" data-name="组 3408" transform="translate(20.521 3.033)">
            <path id="路径_73" data-name="路径 73" d="M470.114,339.156c-2.374,1.107-2.374,2.9,0,4.007a8.371,8.371,0,0,0,1.783.567l.638-5.253A9.07,9.07,0,0,0,470.114,339.156Z" transform="translate(-467.269 -337.217)" fill="#150035"/>
            <path id="路径_74" data-name="路径 74" d="M473.261,345.541l-1.136-.24a9.525,9.525,0,0,1-2.016-.643c-2.083-.972-2.393-2.276-2.393-2.969s.31-2,2.395-2.967v0a10.012,10.012,0,0,1,2.712-.766l1.384-.209Zm-2.25-4.89c-.921.429-1.166.855-1.166,1.038s.245.61,1.166,1.04c.133.062.274.119.426.174l.307-2.531a5.894,5.894,0,0,0-.733.279Z" transform="translate(-467.716 -337.746)" fill="#150035"/>
          </g>
        </g>
        <g id="组_3410" data-name="组 3410" transform="translate(50.532 17.166)">
          <rect id="矩形_102" data-name="矩形 102" width="2.13" height="6.807" transform="matrix(0.96, -0.281, 0.281, 0.96, 0, 0.598)" fill="#150035"/>
        </g>
      </g>
    </g>
  </g>
</svg>
