<svg xmlns="http://www.w3.org/2000/svg" xmlns:xlink="http://www.w3.org/1999/xlink" width="281.939" height="301.923" viewBox="0 0 281.939 301.923">
  <defs>
    <clipPath id="clip-path">
      <path id="路径_56" data-name="路径 56" d="M639.709-648.372a57.144,57.144,0,0,1-49.395,28.388,57.178,57.178,0,0,1-57.177-57.177,57.177,57.177,0,0,1,57.177-57.177,57.143,57.143,0,0,1,49.728,28.97l81.249-46.908a150.906,150.906,0,0,0-130.977-75.846A150.962,150.962,0,0,0,439.353-677.16,150.963,150.963,0,0,0,590.315-526.2a150.9,150.9,0,0,0,130.636-75.268Z" transform="translate(-439.353 828.122)" fill="none"/>
    </clipPath>
  </defs>
  <g id="组_66" data-name="组 66" transform="translate(-29.061 -29.516)">
    <g id="组_45" data-name="组 45" transform="translate(29.061 29.515)">
      <path id="路径_53" data-name="路径 53" d="M639.709-648.372a57.144,57.144,0,0,1-49.395,28.388,57.178,57.178,0,0,1-57.177-57.177,57.177,57.177,0,0,1,57.177-57.177,57.143,57.143,0,0,1,49.728,28.97l81.249-46.908a150.906,150.906,0,0,0-130.977-75.846A150.962,150.962,0,0,0,439.353-677.16,150.963,150.963,0,0,0,590.315-526.2a150.9,150.9,0,0,0,130.636-75.268Z" transform="translate(-439.353 828.122)" fill="#3db76a"/>
      <g id="组_44" data-name="组 44">
        <g id="组_43" data-name="组 43" clip-path="url(#clip-path)">
          <g id="组_42" data-name="组 42" transform="translate(0.222 -0.4)">
            <path id="路径_54" data-name="路径 54" d="M439.5-677.425H590.462V-828.387A150.961,150.961,0,0,0,439.5-677.425Z" transform="translate(-439.5 828.387)" fill="#ffc63a"/>
            <path id="路径_55" data-name="路径 55" d="M690.462-728.387H539.5v150.962A150.962,150.962,0,0,0,690.462-728.387Z" transform="translate(-388.538 879.349)" fill="#64ffff"/>
          </g>
        </g>
      </g>
    </g>
  </g>
</svg>
