<svg xmlns="http://www.w3.org/2000/svg" width="398.176" height="265.295" viewBox="0 0 398.176 265.295">
  <g id="组_67" data-name="组 67" transform="translate(-10778.52 329.534)">
    <g id="组_40" data-name="组 40" transform="translate(10778.52 -329.534)">
      <g id="组_39" data-name="组 39">
        <path id="路径_47" data-name="路径 47" d="M859.794-695.745a66.359,66.359,0,0,1,66.355-66.012,66.359,66.359,0,0,1,66.356,66.012h66.368A132.726,132.726,0,0,0,926.149-828.122,132.725,132.725,0,0,0,793.426-695.745Z" transform="translate(-793.426 828.122)" fill="#ffc63a"/>
      </g>
      <path id="路径_48" data-name="路径 48" d="M959.794-728.387a66.36,66.36,0,0,0,66.355,66.013,66.36,66.36,0,0,0,66.356-66.013h66.368A132.726,132.726,0,0,1,1026.149-596.01,132.725,132.725,0,0,1,893.426-728.387Z" transform="translate(-760.698 860.764)" fill="#3db76a"/>
      <path id="路径_49" data-name="路径 49" d="M926.149-761.758c.065,0,.13,0,.2.005v-66.367l-.2,0A132.725,132.725,0,0,0,793.426-695.745h66.368A66.359,66.359,0,0,1,926.149-761.758Z" transform="translate(-793.426 828.122)" fill="#fa3237"/>
      <path id="路径_50" data-name="路径 50" d="M960.2-728.193c0-.065,0-.129.005-.194H893.837c0,.065,0,.129,0,.194a132.727,132.727,0,0,0,132.377,132.724v-66.369A66.358,66.358,0,0,1,960.2-728.193Z" transform="translate(-760.564 860.764)" fill="#64ffff"/>
    </g>
  </g>
</svg>
