<svg xmlns="http://www.w3.org/2000/svg" width="441.265" height="441.265" viewBox="0 0 441.265 441.265">
  <g id="组_78" data-name="组 78" transform="translate(-252.269 -11102.637) rotate(90)">
    <circle id="椭圆_10" data-name="椭圆 10" cx="64.054" cy="64.054" r="64.054" transform="translate(11259.214 -536.956)" fill="#3db76a"/>
    <path id="路径_43" data-name="路径 43" d="M1501.123-828.122c-121.846,0-220.632,98.786-220.632,220.633s98.786,220.632,220.632,220.632,220.633-98.786,220.633-220.632S1622.97-828.122,1501.123-828.122Zm0,347.724A127.087,127.087,0,0,1,1374.032-607.49a127.087,127.087,0,0,1,127.091-127.093A127.087,127.087,0,0,1,1628.217-607.49,127.087,127.087,0,0,1,1501.123-480.4Z" transform="translate(9822.146 134.588)" fill="#fa3237"/>
    <path id="路径_44" data-name="路径 44" d="M1414.929-728.124h-63.47v.018a64.047,64.047,0,0,0,63.47,64.041Z" transform="translate(9907.755 255.218)" fill="#ffc63a"/>
    <path id="路径_45" data-name="路径 45" d="M1280.491-608.074h93.548a127.077,127.077,0,0,1,127.077-126.508h.02v-93.539h-.02C1379.467-828.122,1280.809-729.652,1280.491-608.074Z" transform="translate(9822.146 134.588)" fill="#ffc63a"/>
  </g>
</svg>
