<svg xmlns="http://www.w3.org/2000/svg" xmlns:xlink="http://www.w3.org/1999/xlink" viewBox="0 0 847.21 664.73"><defs><style>.cls-1{fill:none;}.cls-2{fill:#4c4c7f;}.cls-3{fill:#3b3dd7;isolation:isolate;}.cls-4{fill:#3db76a;}.cls-5{clip-path:url(#clip-path);}.cls-6{fill:#ffc63a;}.cls-7{fill:#64ffff;}.cls-8{fill:#fff;}.cls-9{fill:#fa3237;}</style><clipPath id="clip-path"><path class="cls-1" d="M193,192.58a33.69,33.69,0,1,1,.2-33.59l47.88-27.65a89,89,0,1,0-.2,88.88Z"/></clipPath></defs><g id="图层_2" data-name="图层 2"><g id="图层_1-2" data-name="图层 1"><path class="cls-2" d="M436,173.88c-87.39,0-158.49,71.1-158.49,158.49S348.61,490.86,436,490.86s158.49-71.1,158.49-158.49S523.39,173.88,436,173.88Zm0,318c-87.95,0-159.51-71.56-159.51-159.51S348.05,172.86,436,172.86s159.51,71.55,159.51,159.51S524,491.88,436,491.88Z"/><path class="cls-2" d="M436,158.23a174.3,174.3,0,1,0,123.09,51.05A173.5,173.5,0,0,0,436,158.23Zm0-1.09a175.41,175.41,0,1,1-123.85,51.37A174.58,174.58,0,0,1,436,157.14Z"/><path class="cls-2" d="M436,142.58a189.93,189.93,0,1,0,134.16,55.63A189,189,0,0,0,436,142.58Zm0-1.15a191.09,191.09,0,1,1-135,56A190.13,190.13,0,0,1,436,141.43Z"/><path class="cls-2" d="M436,126.93a205.57,205.57,0,1,0,145.23,60.21A204.52,204.52,0,0,0,436,126.93Zm0-1.22a206.78,206.78,0,1,1-146.09,60.57A205.71,205.71,0,0,1,436,125.71Z"/><path class="cls-2" d="M436,111.28a221.21,221.21,0,1,0,156.3,64.79A220,220,0,0,0,436,111.28Zm0-1.28a222.49,222.49,0,1,1-157.2,65.16A221.24,221.24,0,0,1,436,110Z"/><path class="cls-2" d="M436,95.63A236.84,236.84,0,1,0,603.37,165,235.5,235.5,0,0,0,436,95.63Zm0-1.34a238.18,238.18,0,1,1-168.32,69.76A236.84,236.84,0,0,1,436,94.29Z"/><path class="cls-2" d="M436,80a252.48,252.48,0,1,0,178.44,74A251,251,0,0,0,436,80Zm0-1.41a253.88,253.88,0,1,1-179.44,74.36A252.42,252.42,0,0,1,436,78.57Z"/><path class="cls-2" d="M436,64.33a268.12,268.12,0,1,0,189.51,78.53A266.49,266.49,0,0,0,436,64.33Zm0-1.47a269.57,269.57,0,1,1-190.55,79A267.94,267.94,0,0,1,436,62.86Z"/><path class="cls-2" d="M436,48.68A283.66,283.66,0,0,0,235.42,533,283.66,283.66,0,1,0,636.58,131.79,282,282,0,0,0,436,48.68Zm0-1.54A285.21,285.21,0,0,1,637.67,534,285.2,285.2,0,1,1,234.33,130.7,283.49,283.49,0,0,1,436,47.14Z"/><path class="cls-2" d="M436,33A299.33,299.33,0,0,0,224.35,544a299.32,299.32,0,1,0,423.3-423.3A297.45,297.45,0,0,0,436,33Zm0-1.6A300.92,300.92,0,0,1,648.79,545.15,300.93,300.93,0,1,1,223.21,119.58,299.11,299.11,0,0,1,436,31.43Z"/><path class="cls-2" d="M436,17.38A315,315,0,0,0,213.28,555.09,315,315,0,1,0,658.72,109.64,313,313,0,0,0,436,17.38Zm0-1.67A316.65,316.65,0,0,1,659.9,556.27,316.65,316.65,0,1,1,212.1,108.46,314.63,314.63,0,0,1,436,15.71Z"/><path class="cls-2" d="M436,1.73A330.64,330.64,0,0,0,202.21,566.16,330.63,330.63,0,0,0,669.79,98.57,328.49,328.49,0,0,0,436,1.73Zm0,663A332.36,332.36,0,0,1,201,97.35a332.37,332.37,0,1,1,470,470A330.21,330.21,0,0,1,436,664.73Z"/><path class="cls-3" d="M161.16,38.59A134.72,134.72,0,0,0,26.44,173.31L0,248.85H31.48v78.07h49.1v33.72h215.3V173.31A134.72,134.72,0,0,0,161.16,38.59Z"/><path class="cls-4" d="M193,192.58a33.69,33.69,0,1,1,.2-33.59l47.88-27.65a89,89,0,1,0-.2,88.88Z"/><g class="cls-5"><path class="cls-6" d="M75,175.37h89v-89A89,89,0,0,0,75,175.37Z"/><path class="cls-7" d="M253,175.37H164v89A89,89,0,0,0,253,175.37Z"/></g><path class="cls-8" d="M164,288.58a113.21,113.21,0,1,1,98.23-169.5l-3.47,2a109.2,109.2,0,1,0-.45,109.39l3.45,2A113.73,113.73,0,0,1,164,288.58Z"/><path class="cls-3" d="M847.21,460.15A132.21,132.21,0,0,0,715,327.94V592.37A132.22,132.22,0,0,0,847.21,460.15Z"/><path class="cls-6" d="M714.92,352.34a48.16,48.16,0,0,1,0,96.32v48.17a96.33,96.33,0,0,0,0-192.66Z"/><path class="cls-4" d="M714.92,448.68a48.16,48.16,0,0,0,0,96.32v48.17a96.33,96.33,0,0,1,0-192.66Z"/><path class="cls-9" d="M762.83,400.5v.14H811v-.14a96.33,96.33,0,0,0-96.08-96.33v48.17A48.17,48.17,0,0,1,762.83,400.5Z"/><path class="cls-7" d="M714.78,449.07h.14V400.9h-.14A96.32,96.32,0,0,0,618.45,497h48.17A48.16,48.16,0,0,1,714.78,449.07Z"/><path class="cls-8" d="M714.92,474.65v-4a70.26,70.26,0,0,0,0-140.51v-4a74.26,74.26,0,0,1,0,148.51Z"/><path class="cls-8" d="M714.92,619.15a122.42,122.42,0,1,1,0-244.84v4a118.42,118.42,0,1,0,0,236.84Z"/><rect class="cls-8" x="85.91" y="525.76" width="309.4" height="4" transform="translate(-302.71 324.71) rotate(-45)"/><rect class="cls-8" x="475.48" y="135.48" width="310.81" height="4" transform="translate(87.54 486.33) rotate(-45)"/><rect class="cls-8" x="49.52" y="542.48" width="262.73" height="4" transform="translate(-332.02 287.38) rotate(-45)"/><rect class="cls-8" x="557.16" y="117.26" width="259.9" height="4" transform="translate(116.89 520.74) rotate(-45)"/><circle class="cls-4" cx="435.99" cy="332.8" r="46.92"/><path class="cls-9" d="M436,171.2a161.6,161.6,0,1,0,161.6,161.6A161.6,161.6,0,0,0,436,171.2Zm0,254.68a93.09,93.09,0,1,1,93.08-93.08A93.08,93.08,0,0,1,436,425.88Z"/><circle class="cls-8" cx="485.39" cy="283.77" r="16.58" transform="translate(-39.19 81.41) rotate(-9.22)"/><path class="cls-6" d="M435.56,332.79H389.07v0a46.91,46.91,0,0,0,46.49,46.9Z"/><path class="cls-6" d="M274.39,332.37H342.9A93.08,93.08,0,0,1,436,239.71h0V171.2h0A161.6,161.6,0,0,0,274.39,332.37Z"/><path class="cls-8" d="M436,536.37c-112.49,0-204-91.52-204-204s91.51-204,204-204,204,91.51,204,204S548.49,536.37,436,536.37Zm0-404c-110.28,0-200,89.72-200,200s89.72,200,200,200,200-89.72,200-200S546.28,132.37,436,132.37Z"/><rect class="cls-8" x="179.23" y="459.6" width="32.53" height="32.53" transform="translate(-2.76 950.59) rotate(-135)"/><path class="cls-8" d="M718.35,152.85a24,24,0,0,0,0-33.94l-33.94,33.94A24,24,0,0,0,718.35,152.85Z"/></g></g></svg>