<svg xmlns="http://www.w3.org/2000/svg" xmlns:xlink="http://www.w3.org/1999/xlink" width="2880" height="467" viewBox="0 0 2880 467">
  <defs>
    <clipPath id="clip-path">
      <rect id="矩形_42" data-name="矩形 42" width="1385" height="467" transform="translate(748 9189)" fill="#fff" stroke="#707070" stroke-width="1"/>
    </clipPath>
  </defs>
  <g id="组_4382" data-name="组 4382" transform="translate(0 -10062.68)">
    <g id="组_29" data-name="组 29" transform="translate(0 10062.68)">
      <rect id="矩形_1" data-name="矩形 1" width="2880" height="467" fill="#051853"/>
    </g>
    <g id="蒙版组_5" data-name="蒙版组 5" transform="translate(0 873.68)" clip-path="url(#clip-path)">
      <g id="组_72" data-name="组 72" transform="translate(772 9005.514)" opacity="0.5" style="isolation: isolate">
        <path id="路径_36" data-name="路径 36" d="M1395.607-87.826h-.27c-91.9-.167-178.757-29.48-251.236-84.783-72.484,54.887-159.354,83.89-251.3,83.89l-.276,0c-111.234-.2-215.744-43.7-294.259-122.5-162.1-162.68-161.632-426.9,1.035-588.993C677.823-878.465,782.221-921.56,893.267-921.56h.767c91.951.169,178.8,29.443,251.23,84.669,72.4-54.829,159.087-83.8,250.776-83.8,111.607,0,216.393,43.464,295.054,122.389,162.1,162.7,161.634,426.935-1.037,589.015C1611.464-130.961,1506.893-87.826,1395.607-87.826Zm-251.5-88.263.838.644c72.168,55.347,158.757,84.69,250.409,84.853h.264c110.537,0,214.417-42.849,292.487-120.655,161.591-161,162.052-423.48,1.03-585.105-78.139-78.4-182.228-121.575-293.1-121.575-91.433,0-177.86,29-249.942,83.874l-.839.64-.838-.643c-72.111-55.269-158.7-84.571-250.394-84.739h-.765c-110.3,0-214.009,42.809-292,120.541-161.589,161.014-162.051,423.482-1.03,585.082,78,78.27,181.811,121.485,292.318,121.684l.275,0c91.67,0,178.279-29.034,250.447-83.964Z" transform="translate(-477.001 921.56)" fill="#f73237"/>
        <path id="路径_37" data-name="路径 37" d="M1385.829-133.728l-.365,0c-84.3-.155-163.928-27.126-230.257-78l-20.962-16.08-21.022,16c-66.29,50.458-145.89,77.149-230.189,77.186l-.375,0A378.046,378.046,0,0,1,613.8-246.549c-148.1-148.635-147.677-390.042.947-538.137,71.731-71.491,167.115-110.863,268.579-110.863l.65,0c84.384.155,164.025,27.089,230.311,77.891l20.961,16.067,21.016-16C1222.519-868.021,1302-894.68,1386.1-894.68c101.979,0,197.718,39.71,269.586,111.814,148.1,148.658,147.678,390.075-.948,538.16C1582.971-173.185,1487.472-133.773,1385.829-133.728ZM1134.25-231.288l22.639,17.365c65.848,50.5,144.893,77.276,228.589,77.426l.362,0c100.9-.044,195.7-39.171,266.944-110.171,147.546-147.008,147.969-386.672.943-534.25-71.345-71.581-166.392-111-267.628-111-83.492,0-162.391,26.463-228.161,76.528l-22.7,17.277L1112.6-815.46c-65.8-50.432-144.863-77.168-228.637-77.322l-.647,0C782.6-892.784,687.907-853.7,616.7-782.729,469.155-635.709,468.732-396.056,615.757-248.5A375.3,375.3,0,0,0,882.672-137.39l.373,0c83.678-.037,162.7-26.532,228.5-76.621Z" transform="translate(-467.059 931.506)" fill="#f73237"/>
        <path id="路径_38" data-name="路径 38" d="M1375.982-179.633l-.217,0c-76.46-.138-148.6-24.543-208.616-70.573l-42.762-32.8L1081.5-250.369c-59.946,45.629-131.972,69.779-208.294,69.841l-.246,0A342.534,342.534,0,0,1,629.33-281.877c-134.108-134.59-133.722-353.184.856-487.283,64.946-64.729,151.315-100.377,243.2-100.377l.521,0c76.47.141,148.592,24.511,208.566,70.473l42.761,32.776,42.87-32.635c59.944-45.629,131.886-69.747,208.055-69.747,92.351,0,179.047,35.954,244.117,101.239,134.108,134.611,133.722,353.215-.858,487.306C1554.461-215.393,1468.007-179.7,1375.982-179.633Zm-251.59-106.854,44.439,34.085c59.53,45.658,131.092,69.865,206.942,70l.225,0c91.271-.072,177.032-35.474,241.465-99.684,133.5-133.016,133.882-349.865.853-483.395C1553.768-830.238,1467.768-865.9,1376.157-865.9c-75.557,0-146.922,23.922-206.381,69.182l-44.55,33.914-44.438-34.06C1021.3-842.458,949.759-866.63,873.9-866.77l-.518,0c-91.14,0-176.816,35.361-241.24,99.571-133.5,133.022-133.88,349.864-.85,483.374A339.8,339.8,0,0,0,872.98-183.295l.242,0c75.7-.061,147.145-24.017,206.606-69.276Z" transform="translate(-457.118 941.452)" fill="#f73237"/>
        <path id="路径_39" data-name="路径 39" d="M1366.242-225.535l-.357,0c-68.5-.13-133.1-21.966-186.8-63.148l-64.56-49.521-64.749,49.279c-53.59,40.792-118.034,62.4-186.364,62.5l-.328,0a306.812,306.812,0,0,1-218.23-90.773c-120.113-120.544-119.768-316.325.766-436.429a306.529,306.529,0,0,1,217.817-89.891l.347,0c68.585.127,133.205,21.933,186.869,63.058l64.557,49.482,64.727-49.272c53.627-40.823,118.041-62.4,186.274-62.4a306.574,306.574,0,0,1,218.648,90.67c120.113,120.558,119.767,316.347-.771,436.446C1525.976-257.626,1448.609-225.66,1366.242-225.535ZM1114.536-341.686l66.236,50.806C1233.988-250.067,1298-228.429,1365.9-228.3l.351,0c81.619-.123,158.3-31.8,215.891-89.2,119.457-119.023,119.8-313.058.766-432.536a303.833,303.833,0,0,0-216.69-89.855c-67.624,0-131.458,21.384-184.6,61.836L1115.209-727.5l-66.233-50.768c-53.177-40.754-117.218-62.361-185.2-62.487l-.344,0a303.774,303.774,0,0,0-215.855,89.085c-119.455,119.027-119.795,313.055-.76,432.52A304.081,304.081,0,0,0,863.1-229.2l.324,0c67.708-.094,131.574-21.51,184.68-61.933Z" transform="translate(-447.177 951.398)" fill="#f73237"/>
        <path id="路径_40" data-name="路径 40" d="M1355.842-271.447a270.87,270.87,0,0,1-192.651-80.2l-57.019-57.2L912.238-603.492a82.537,82.537,0,0,0-58.723-24.381,82.34,82.34,0,0,0-58.5,24.171,82.3,82.3,0,0,0-24.345,58.567,82.384,82.384,0,0,0,24.138,58.658A82.5,82.5,0,0,0,853.524-462.1a82.334,82.334,0,0,0,58.495-24.167l38.4-37.958L1084.387-389.84l-38.56,38.127C994.465-300.529,926-272.34,853.039-272.34a270.864,270.864,0,0,1-192.648-80.2C554.273-459.03,554.577-632,661.065-738.112A270.8,270.8,0,0,1,853.5-817.51h.5a270.807,270.807,0,0,1,192.662,80.086l251.015,251.908a82.547,82.547,0,0,0,58.653,24.31,82.336,82.336,0,0,0,58.495-24.165,82.993,82.993,0,0,0,.22-117.232,83.013,83.013,0,0,0-117.228-.2l-37.86,37.484L1125.848-699.575l38.123-37.748c106.428-106.061,279.353-105.711,385.479.771,106.115,106.51,105.809,279.486-.68,385.591C1497.317-299.684,1428.8-271.447,1355.842-271.447ZM853.517-630.637a85.279,85.279,0,0,1,60.678,25.195L1108.13-410.791l57.019,57.2a268.122,268.122,0,0,0,190.7,79.383c72.221,0,140.042-27.952,190.973-78.708,105.41-105.03,105.712-276.25.675-381.68-105.05-105.4-276.222-105.75-381.57-.766l0,0-36.153,35.8,130.2,130.339,35.9-35.546a85.778,85.778,0,0,1,121.133.216,85.758,85.758,0,0,1-.225,121.141,85.088,85.088,0,0,1-60.448,24.972,85.292,85.292,0,0,1-60.694-25.209l-.092-.1L1044.7-735.472A268.06,268.06,0,0,0,854-814.745H853.5a268.055,268.055,0,0,0-190.484,78.592c-105.408,105.036-105.71,276.252-.669,381.668A268.129,268.129,0,0,0,853.042-275.1c72.218,0,139.992-27.9,190.837-78.571l36.59-36.178L950.406-520.323,913.967-484.3a85.081,85.081,0,0,1-60.446,24.968,85.254,85.254,0,0,1-60.673-25.191A85.138,85.138,0,0,1,767.9-545.139a85.041,85.041,0,0,1,25.158-60.52A85.087,85.087,0,0,1,853.517-630.637Z" transform="translate(-437.235 961.345)" fill="#f73237"/>
        <path id="路径_41" data-name="路径 41" d="M1346.026-317.353h-.087a235.123,235.123,0,0,1-167.217-69.619l-57.024-57.2L927.767-638.816a118.27,118.27,0,0,0-84.134-34.963,118.127,118.127,0,0,0-83.947,34.664,118.012,118.012,0,0,0-34.919,83.97,118.116,118.116,0,0,0,34.619,84.1,118.255,118.255,0,0,0,84.144,34.96,117.451,117.451,0,0,0,72.852-24.876l26.065-20.3,82.985,83.242-31.718,26.1A237.426,237.426,0,0,1,843.1-318.247a235.068,235.068,0,0,1-167.181-69.616c-92.118-92.451-91.856-242.608.586-334.724A235.088,235.088,0,0,1,843.559-791.5h.5a235,235,0,0,1,167.189,69.507l250.939,251.832a118.266,118.266,0,0,0,84.15,34.966,118.131,118.131,0,0,0,83.928-34.652,118.994,118.994,0,0,0,.311-168.086,118.073,118.073,0,0,0-84.189-34.914,117.472,117.472,0,0,0-72.428,24.551l-26.013,20.073-.859-.861-82.219-82.306,31.948-26.112c42.533-34.758,94.235-53.13,149.518-53.13a235.134,235.134,0,0,1,167.706,69.517c92.12,92.461,91.854,242.621-.589,334.732A235.745,235.745,0,0,1,1346.026-317.353Zm-.081-2.765h.081A233,233,0,0,0,1511.5-388.339c91.363-91.036,91.626-239.443.583-330.823a232.387,232.387,0,0,0-165.749-68.7c-54.638,0-105.736,18.156-147.768,52.506l-29.584,24.178,79.2,79.284,24.085-18.587a120.224,120.224,0,0,1,74.119-25.126,120.818,120.818,0,0,1,86.146,35.727,121.761,121.761,0,0,1-.317,172,120.882,120.882,0,0,1-85.882,35.458,121.011,121.011,0,0,1-86.1-35.779L1009.288-720.038a232.259,232.259,0,0,0-165.234-68.694h-.495a232.34,232.34,0,0,0-165.1,68.1c-91.362,91.04-91.622,239.443-.581,330.815a232.328,232.328,0,0,0,165.226,68.8,234.651,234.651,0,0,0,148.855-53.04l29.37-24.169-79.112-79.356-24.135,18.8a120.186,120.186,0,0,1-74.551,25.459,121,121,0,0,1-86.1-35.773A120.864,120.864,0,0,1,722-555.148a120.756,120.756,0,0,1,35.731-85.925,120.884,120.884,0,0,1,85.9-35.47,121.013,121.013,0,0,1,86.089,35.777l193.931,194.64,57.024,57.2A232.379,232.379,0,0,0,1345.945-320.118Z" transform="translate(-427.293 971.292)" fill="#f73237"/>
        <path id="路径_42" data-name="路径 42" d="M1336.068-363.256h0A199.41,199.41,0,0,1,1194.253-422.3l-57.03-57.208L943.3-674.142a154,154,0,0,0-109.543-45.541,153.94,153.94,0,0,0-109.4,45.155,153.713,153.713,0,0,0-45.491,109.376,153.852,153.852,0,0,0,45.1,109.536,153.987,153.987,0,0,0,109.567,45.541,153.154,153.154,0,0,0,95-32.465l.965-.752,32.595,32.7-1.172.966c-36.152,29.751-80.332,45.477-127.765,45.477a199.277,199.277,0,0,1-141.709-59.04c-78.123-78.406-77.9-205.752.5-283.872a199.36,199.36,0,0,1,141.673-58.425h.5a199.191,199.191,0,0,1,141.713,58.929l250.943,251.833a153.993,153.993,0,0,0,109.569,45.544A153.923,153.923,0,0,0,1445.7-454.32c60.469-60.256,60.649-158.471.4-218.937a153.8,153.8,0,0,0-109.661-45.491,153.133,153.133,0,0,0-94.4,32.039l-.964.744-32.636-32.671,1.183-.966c36.031-29.45,79.865-45.015,126.762-45.015a199.41,199.41,0,0,1,142.239,58.943c78.122,78.412,77.9,205.759-.5,283.876A200.019,200.019,0,0,1,1336.068-363.256ZM833.76-722.448a156.746,156.746,0,0,1,111.5,46.354L1139.18-481.458l57.029,57.208a196.666,196.666,0,0,0,139.86,58.229,197.271,197.271,0,0,0,140.1-57.737c77.322-77.041,77.543-202.633.5-279.967a196.67,196.67,0,0,0-140.281-58.129,195.3,195.3,0,0,0-123.826,43.428l28.757,28.788a155.846,155.846,0,0,1,95.121-31.876,156.544,156.544,0,0,1,111.618,46.3c61.326,61.546,61.142,161.515-.406,222.846a156.666,156.666,0,0,1-111.315,45.947,156.743,156.743,0,0,1-111.525-46.356L973.871-704.607a196.446,196.446,0,0,0-139.759-58.115h-.495A196.612,196.612,0,0,0,693.9-705.1c-77.319,77.045-77.537,202.635-.491,279.962A196.531,196.531,0,0,0,833.16-366.915c46.269,0,89.4-15.169,124.827-43.885l-28.721-28.811a155.885,155.885,0,0,1-95.729,32.3,156.731,156.731,0,0,1-111.523-46.353A156.6,156.6,0,0,1,676.1-565.156a156.458,156.458,0,0,1,46.3-111.331A156.69,156.69,0,0,1,833.76-722.448Z" transform="translate(-417.351 981.238)" fill="#f73237"/>
      </g>
    </g>
  </g>
</svg>
