<svg xmlns="http://www.w3.org/2000/svg" width="720" height="265" viewBox="0 0 720 265">
  <g id="组_4381" data-name="组 4381" transform="translate(0 -4080)">
    <g id="组件_1_1" data-name="组件 1 – 1" transform="translate(0 4080)">
      <g id="组_4375" data-name="组 4375">
        <rect id="矩形_1" data-name="矩形 1" width="720" height="265" fill="#051853"/>
      </g>
      <g id="组_4376" data-name="组 4376" transform="translate(147.852)" opacity="0.5" style="isolation: isolate">
        <path id="路径_14886" data-name="路径 14886" d="M768.628-656.877h-.086a130.764,130.764,0,0,1-79.759-26.916,131.03,131.03,0,0,1-79.778,26.632h-.088A131.356,131.356,0,0,1,515.5-696.051c-51.461-51.645-51.313-135.527.329-186.985a131.339,131.339,0,0,1,93.323-38.524h.244a130.817,130.817,0,0,1,79.757,26.88,130.757,130.757,0,0,1,79.613-26.6,131.342,131.342,0,0,1,93.67,38.854c51.461,51.653,51.313,135.537-.329,186.992A131.547,131.547,0,0,1,768.628-656.877ZM688.785-684.9l.266.2a129.9,129.9,0,0,0,79.5,26.938h.084a130.672,130.672,0,0,0,92.855-38.3c51.3-51.114,51.446-134.441.327-185.751a130.471,130.471,0,0,0-93.048-38.6,129.894,129.894,0,0,0-79.348,26.627l-.266.2-.266-.2a129.946,129.946,0,0,0-79.492-26.9h-.243a130.467,130.467,0,0,0-92.7,38.268c-51.3,51.117-51.446,134.441-.327,185.744a130.486,130.486,0,0,0,92.8,38.631h.087a130.159,130.159,0,0,0,79.508-26.656Z" transform="translate(-477.001 921.56)" fill="#f73237"/>
        <path id="路径_14887" data-name="路径 14887" d="M783.269-653.7h-.116a119.45,119.45,0,0,1-73.1-24.762l-6.655-5.1-6.674,5.079a119.712,119.712,0,0,1-73.077,24.5h-.119a120.017,120.017,0,0,1-85.354-35.532,120.941,120.941,0,0,1,.3-170.84,120,120,0,0,1,85.265-35.2h.206a119.519,119.519,0,0,1,73.116,24.728l6.654,5.1,6.672-5.079a119.442,119.442,0,0,1,72.965-24.475,120.007,120.007,0,0,1,85.584,35.5,120.948,120.948,0,0,1-.3,170.848A120.212,120.212,0,0,1,783.269-653.7ZM703.4-684.668l7.187,5.513a118.574,118.574,0,0,0,72.569,24.58h.115a119.337,119.337,0,0,0,84.746-34.975,120.07,120.07,0,0,0,.3-169.606A119.137,119.137,0,0,0,783.354-894.4a118.572,118.572,0,0,0-72.434,24.3l-7.205,5.485-7.187-5.508a118.648,118.648,0,0,0-72.584-24.547h-.205A119.121,119.121,0,0,0,539.1-859.732a120.063,120.063,0,0,0-.3,169.6,119.146,119.146,0,0,0,84.737,35.274h.118a118.839,118.839,0,0,0,72.542-24.324Z" transform="translate(-491.59 906.964)" fill="#f73237"/>
        <path id="路径_14888" data-name="路径 14888" d="M797.888-650.516h-.069a108.2,108.2,0,0,1-66.229-22.4l-13.576-10.413L704.4-672.972A108.385,108.385,0,0,1,638.275-650.8H638.2a108.743,108.743,0,0,1-77.345-32.174,109.512,109.512,0,0,1,.272-154.7,108.653,108.653,0,0,1,77.207-31.866h.165a108.231,108.231,0,0,1,66.213,22.373l13.575,10.405,13.61-10.36a108.117,108.117,0,0,1,66.05-22.142,108.668,108.668,0,0,1,77.5,32.14,109.519,109.519,0,0,1-.273,154.7A108.882,108.882,0,0,1,797.888-650.516Zm-79.871-33.923,14.108,10.821a107.33,107.33,0,0,0,65.7,22.223h.071a108.008,108.008,0,0,0,76.657-31.646,108.641,108.641,0,0,0,.271-153.462,107.8,107.8,0,0,0-76.877-31.882,107.246,107.246,0,0,0-65.519,21.963l-14.143,10.766-14.107-10.813a107.36,107.36,0,0,0-65.682-22.192h-.165a107.779,107.779,0,0,0-76.586,31.61,108.634,108.634,0,0,0-.27,153.455A107.875,107.875,0,0,0,638.2-651.678h.077a107.512,107.512,0,0,0,65.59-21.993Z" transform="translate(-506.18 892.368)" fill="#f73237"/>
        <path id="路径_14889" data-name="路径 14889" d="M812.542-647.335h-.113a96.9,96.9,0,0,1-59.3-20.047l-20.5-15.721L712.076-667.46a97.063,97.063,0,0,1-59.164,19.841h-.1a97.4,97.4,0,0,1-69.281-28.817,98.082,98.082,0,0,1,.243-138.552,97.313,97.313,0,0,1,69.15-28.537h.11a96.963,96.963,0,0,1,59.325,20.019L732.849-807.8,753.4-823.44a96.791,96.791,0,0,1,59.136-19.81,97.327,97.327,0,0,1,69.413,28.784,98.087,98.087,0,0,1-.245,138.557A97.543,97.543,0,0,1,812.542-647.335Zm-79.908-36.874,21.028,16.129a96.018,96.018,0,0,0,58.771,19.866h.112a96.667,96.667,0,0,0,68.538-28.318,97.21,97.21,0,0,0,.243-137.316,96.457,96.457,0,0,0-68.792-28.526,95.922,95.922,0,0,0-58.6,19.631l-21.082,16.049L711.82-822.81a96.094,96.094,0,0,0-58.794-19.838h-.109a96.438,96.438,0,0,0-68.527,28.282,97.2,97.2,0,0,0-.241,137.311A96.536,96.536,0,0,0,652.812-648.5h.1a96.19,96.19,0,0,0,58.63-19.662Z" transform="translate(-520.769 877.772)" fill="#f73237"/>
        <path id="路径_14890" data-name="路径 14890" d="M826.987-644.153a85.992,85.992,0,0,1-61.16-25.459l-18.1-18.158-61.568-61.8a26.2,26.2,0,0,0-18.643-7.74,26.14,26.14,0,0,0-18.572,7.673,26.129,26.129,0,0,0-7.729,18.593,26.154,26.154,0,0,0,7.663,18.622,26.192,26.192,0,0,0,18.641,7.739,26.138,26.138,0,0,0,18.57-7.672L698.278-724.4l42.53,42.662-12.241,12.1a86.11,86.11,0,0,1-61.2,25.2A85.99,85.99,0,0,1,606.2-669.9a86.654,86.654,0,0,1,.214-122.408A85.972,85.972,0,0,1,667.51-817.51h.158a85.972,85.972,0,0,1,61.164,25.425l79.689,79.972a26.205,26.205,0,0,0,18.62,7.718,26.139,26.139,0,0,0,18.57-7.672,26.347,26.347,0,0,0,.07-37.217,26.354,26.354,0,0,0-37.216-.065l-12.019,11.9-42.574-42.62,12.1-11.984a86.635,86.635,0,0,1,122.377.245,86.66,86.66,0,0,1-.216,122.412A86.182,86.182,0,0,1,826.987-644.153ZM667.515-758.184a27.073,27.073,0,0,1,19.263,8l61.568,61.8,18.1,18.158a85.12,85.12,0,0,0,60.54,25.2,85.307,85.307,0,0,0,60.627-24.987,85.781,85.781,0,0,0,.214-121.171,85.756,85.756,0,0,0-121.136-.243h0l-11.477,11.365,41.334,41.378,11.4-11.285a27.232,27.232,0,0,1,38.456.068,27.225,27.225,0,0,1-.072,38.458,27.012,27.012,0,0,1-19.19,7.928,27.077,27.077,0,0,1-19.268-8l-.029-.03L728.21-791.466a85.1,85.1,0,0,0-60.543-25.167h-.157a85.1,85.1,0,0,0-60.472,24.95,85.776,85.776,0,0,0-.212,121.167,85.122,85.122,0,0,0,60.539,25.2,85.239,85.239,0,0,0,60.584-24.944l11.616-11.485-41.291-41.42-11.568,11.435a27.011,27.011,0,0,1-19.189,7.927,27.066,27.066,0,0,1-19.262-8,27.029,27.029,0,0,1-7.919-19.243,27,27,0,0,1,7.987-19.213A27.012,27.012,0,0,1,667.515-758.184Z" transform="translate(-535.36 863.173)" fill="#f73237"/>
        <path id="路径_14891" data-name="路径 14891" d="M841.617-640.972h-.028a74.644,74.644,0,0,1-53.086-22.1l-18.1-18.16-61.567-61.792a37.547,37.547,0,0,0-26.71-11.1,37.5,37.5,0,0,0-26.65,11,37.465,37.465,0,0,0-11.086,26.658,37.5,37.5,0,0,0,10.99,26.7,37.542,37.542,0,0,0,26.713,11.1,37.287,37.287,0,0,0,23.128-7.9l8.275-6.444,26.345,26.427-10.069,8.286a75.375,75.375,0,0,1-47.815,17.038,74.626,74.626,0,0,1-53.074-22.1,75.227,75.227,0,0,1,.186-106.264A74.632,74.632,0,0,1,682.1-791.5h.158a74.606,74.606,0,0,1,53.077,22.066L815-689.483a37.545,37.545,0,0,0,26.715,11.1,37.5,37.5,0,0,0,26.644-11,37.777,37.777,0,0,0,.1-53.362,37.484,37.484,0,0,0-26.727-11.084,37.293,37.293,0,0,0-22.993,7.794l-8.258,6.373-.273-.273-26.1-26.129,10.142-8.29a74.174,74.174,0,0,1,47.467-16.867,74.647,74.647,0,0,1,53.241,22.069,75.229,75.229,0,0,1-.187,106.266A74.841,74.841,0,0,1,841.617-640.972Zm-.026-.878h.026a73.968,73.968,0,0,0,52.531-21.658,74.351,74.351,0,0,0,.185-105.025,73.775,73.775,0,0,0-52.62-21.811A73.3,73.3,0,0,0,794.8-773.675L785.41-766l25.144,25.17,7.646-5.9a38.167,38.167,0,0,1,23.53-7.977,38.355,38.355,0,0,1,27.349,11.342,38.655,38.655,0,0,1-.1,54.6A38.376,38.376,0,0,1,841.714-677.5a38.417,38.417,0,0,1-27.335-11.358l-79.665-79.948a73.735,73.735,0,0,0-52.456-21.808H682.1A73.76,73.76,0,0,0,629.685-769a74.349,74.349,0,0,0-.184,105.023,73.756,73.756,0,0,0,52.454,21.843,74.494,74.494,0,0,0,47.256-16.838l9.324-7.673L713.42-691.838l-7.662,5.967a38.156,38.156,0,0,1-23.667,8.082,38.414,38.414,0,0,1-27.334-11.357,38.37,38.37,0,0,1-11.247-27.319,38.335,38.335,0,0,1,11.344-27.278A38.377,38.377,0,0,1,682.125-755a38.417,38.417,0,0,1,27.33,11.358l61.567,61.792,18.1,18.16A73.773,73.773,0,0,0,841.591-641.85Z" transform="translate(-549.949 848.576)" fill="#f73237"/>
        <path id="路径_14892" data-name="路径 14892" d="M856.2-637.791h0a63.306,63.306,0,0,1-45.02-18.744L793.074-674.7l-61.564-61.79a48.89,48.89,0,0,0-34.776-14.458A48.871,48.871,0,0,0,662-736.61a48.8,48.8,0,0,0-14.442,34.723,48.843,48.843,0,0,0,14.319,34.774,48.886,48.886,0,0,0,34.784,14.458,48.621,48.621,0,0,0,30.159-10.307l.306-.239,10.348,10.381-.372.307a63.075,63.075,0,0,1-40.561,14.438,63.264,63.264,0,0,1-44.988-18.743,63.8,63.8,0,0,1,.158-90.12,63.29,63.29,0,0,1,44.976-18.548h.158a63.237,63.237,0,0,1,44.989,18.708L821.5-666.83a48.887,48.887,0,0,0,34.784,14.459,48.865,48.865,0,0,0,34.719-14.33,49.2,49.2,0,0,0,.127-69.505,48.827,48.827,0,0,0-34.814-14.442,48.615,48.615,0,0,0-29.968,10.171l-.306.236-10.361-10.372.376-.307A62.874,62.874,0,0,1,856.3-765.211,63.306,63.306,0,0,1,901.459-746.5a63.8,63.8,0,0,1-.16,90.121A63.5,63.5,0,0,1,856.2-637.791ZM696.735-751.823a49.762,49.762,0,0,1,35.4,14.716L793.7-675.317l18.1,18.162a62.435,62.435,0,0,0,44.4,18.486A62.627,62.627,0,0,0,900.68-657a62.921,62.921,0,0,0,.158-88.88A62.436,62.436,0,0,0,856.3-764.333a62,62,0,0,0-39.311,13.787l9.13,9.139a49.476,49.476,0,0,1,30.2-10.12,49.7,49.7,0,0,1,35.435,14.7,50.083,50.083,0,0,1-.129,70.746,49.737,49.737,0,0,1-35.339,14.587,49.761,49.761,0,0,1-35.406-14.717l-79.666-79.949a62.365,62.365,0,0,0-44.369-18.45h-.157a62.418,62.418,0,0,0-44.357,18.292,62.919,62.919,0,0,0-.156,88.878,62.392,62.392,0,0,0,44.367,18.485,62.2,62.2,0,0,0,39.628-13.932l-9.118-9.147a49.488,49.488,0,0,1-30.391,10.254,49.757,49.757,0,0,1-35.4-14.716,49.716,49.716,0,0,1-14.575-35.4,49.67,49.67,0,0,1,14.7-35.344A49.744,49.744,0,0,1,696.735-751.823Z" transform="translate(-564.539 833.98)" fill="#f73237"/>
      </g>
    </g>
  </g>
</svg>
