<?xml version="1.0" encoding="utf-8"?>
<!-- Generator: Adobe Illustrator 25.1.0, SVG Export Plug-In . SVG Version: 6.00 Build 0)  -->
<svg version="1.1" id="图层_1" xmlns="http://www.w3.org/2000/svg" xmlns:xlink="http://www.w3.org/1999/xlink" x="0px" y="0px"
	 viewBox="0 0 162 162" style="enable-background:new 0 0 162 162;" xml:space="preserve">
<style type="text/css">
	.st0{fill:#3DB76A;}
	.st1{enable-background:new    ;}
	.st2{fill:#FFFFFF;}
	.st3{fill:none;stroke:#FFFFFF;stroke-width:2;stroke-linejoin:round;stroke-miterlimit:10;}
</style>
<g id="组_4416" transform="translate(-2661 -2315)">
	<path id="矩形_3990" class="st0" d="M2677,2315h130c8.8,0,16,7.2,16,16v130c0,8.8-7.2,16-16,16h-130c-8.8,0-16-7.2-16-16v-130
		C2661,2322.2,2668.2,2315,2677,2315z"/>
	<g class="st1">
		<path class="st2" d="M2701.3,2446.2c1.7-3.7,3.2-8.4,4.5-14l2.1,0.6c-1.1,5-2.6,9.5-4.3,13.4h9.2v2h-25.3v-2H2701.3z
			 M2699.1,2428.6c-0.4-1.5-0.9-2.9-1.4-4.1l2.3-0.4c0.4,1.3,0.9,2.8,1.3,4.5h10.5v2h-23.4v-2H2699.1z M2697.6,2444.8l-2.2,0.5
			c-0.8-4.3-1.9-8.4-3.2-12.3l2.1-0.7C2695.6,2436,2696.7,2440.1,2697.6,2444.8z"/>
		<path class="st2" d="M2715.8,2447c0.6-0.2,0.9-0.6,0.9-1.1v-20.7h10.5v13h-8.5v8.1c2.5-0.7,4.6-1.5,6.6-2.2c-0.6-1-1.1-2-1.8-2.9
			l1.5-1c1.8,2.7,3.1,5.1,4,7.1l-1.5,1.1c-0.4-0.9-0.8-1.8-1.3-2.7c-2.8,1.2-6,2.2-9.7,3.1L2715.8,2447z M2725.4,2427.1h-6.6v3.7
			h6.6V2427.1z M2718.7,2436.4h6.6v-3.9h-6.6V2436.4z M2734.7,2445.9l-0.5-2l2.4,0.1c0.8,0,1.2-0.4,1.2-1.1v-15.7h-5.1v22.6h-2
			v-24.5h9.1v18.1c0,1.7-0.8,2.6-2.5,2.6H2734.7z"/>
		<path class="st2" d="M2752.8,2437.4c-1.1,0.5-2.1,1-3.2,1.5v8.3c0,1.7-0.8,2.5-2.4,2.5h-2.6l-0.4-1.9c0.8,0.1,1.6,0.1,2.4,0.1
			s1.1-0.4,1.1-1.2v-7.1c-1.3,0.5-2.6,0.9-4,1.3l-0.5-2c1.5-0.4,3-0.8,4.5-1.3v-6.5h-4.1v-1.9h4.1v-5.1h2v5.1h3.1v1.9h-3.1v5.7
			c1.1-0.5,2.2-1,3.2-1.5V2437.4z M2756.3,2449.8h-1.9v-24.5h12.3c0,3.1-0.2,5.2-0.5,6.2c-0.3,1-1.4,1.5-3.2,1.5h-2l-0.6-1.8
			c0.4,0,1,0,1.7,0s1.2-0.1,1.5-0.1c0.3-0.1,0.6-0.3,0.8-0.6c0.2-0.5,0.3-1.7,0.4-3.4h-8.5v8.2h10.6v1.7c-0.6,3-1.5,5.5-3,7.6
			c1.3,1.3,3,2.5,5,3.6l-1.3,1.5c-1.8-1.2-3.4-2.4-4.7-3.7c-1.3,1.5-3,2.8-4.9,3.8l-1-1.8c1.8-0.9,3.3-2,4.5-3.4
			c-1.9-2.3-3.1-4.8-3.6-7.5h-1.6V2449.8z M2762.6,2443.2c1.1-1.7,1.9-3.7,2.4-6h-5.3C2760.1,2439.3,2761,2441.3,2762.6,2443.2z"/>
		<path class="st2" d="M2779.9,2449.7h-2v-9.9c-1.7,0.6-3.6,1.1-5.5,1.5l-1.1-1.9c4.8-1,8.9-2.3,12.1-3.9c-1.2-1-2.9-2.2-5-3.4
			l1.7-1.1c2.1,1.3,3.8,2.5,5,3.5c2.9-1.7,4.9-3.7,6.2-6H2781c-1.9,1.8-4.3,3.3-7.3,4.7l-1.3-1.7c4.8-2,8-4.6,9.7-7.5l2.2,0.3
			c-0.4,0.8-1,1.6-1.5,2.4h10.9v1.8c-2,3.8-5.6,7-10.9,9.4h11.7v11.8h-2v-1.7h-12.5V2449.7z M2792.5,2439.8h-12.5v6.3h12.5V2439.8z"
			/>
	</g>
	<g id="Layer_2" transform="translate(2710 2334.469)">
		<g id="board-edit" transform="translate(4 1)">
			<path id="路径_14922" class="st3" d="M49.1,62.7l-8.3,2.2l2.2-8.3l5.7-5.7l6.5-6.5l3.1,3.1l3.1,3.1L54.8,57L49.1,62.7z"/>
			<line id="直线_32" class="st3" x1="43.6" y1="57.5" x2="48.2" y2="62"/>
			<path id="路径_14923" class="st3" d="M39,6h-7.5V4.5C31.5,2,29.5,0,27,0l0,0c-2.5,0-4.5,2-4.5,4.5V6H15l-3,10.5h30L39,6z"/>
			<path id="路径_14924" class="st3" d="M37.5,67.5h-33C2,67.5,0,65.5,0,63V12c0-2.5,2-4.5,4.5-4.5h9"/>
			<path id="路径_14925" class="st3" d="M40.5,7.5h9c2.5,0,4.5,2,4.5,4.5v24"/>
			<path id="路径_14926" class="st3" d="M36,61.5H16.5L6,51V13.5h7.5"/>
			<path id="路径_14927" class="st3" d="M40.5,13.5H48v21"/>
			<path id="路径_14928" class="st3" d="M6,51h10.5v10.5"/>
			<line id="直线_33" class="st3" x1="13.5" y1="28.5" x2="24" y2="28.5"/>
			<line id="直线_34" class="st3" x1="13.5" y1="36" x2="39" y2="36"/>
			<line id="直线_35" class="st3" x1="13.5" y1="43.5" x2="34.5" y2="43.5"/>
		</g>
	</g>
</g>
</svg>
