<svg id="组_4540" data-name="组 4540" xmlns="http://www.w3.org/2000/svg" width="831.645" height="170.428" viewBox="0 0 831.645 170.428">
  <g id="PingCAP_DevCon_2021" data-name="PingCAP DevCon 2021" transform="translate(5.306 106.506)">
    <g id="组_4451" data-name="组 4451">
      <path id="路径_14974" data-name="路径 14974" d="M167.194,710.9H157.2V662.311h21.463c10.133,0,15.665,5.333,15.665,15.067,0,9.865-5.732,16.2-14.664,16.2H167.194Zm9.333-25.662c5.333,0,7.8-2.33,7.8-7.266,0-5-2.466-7.333-7.8-7.333h-9.333v14.6Z" transform="translate(-157.2 -661.512)" fill="#fff"/>
      <path id="路径_14975" data-name="路径 14975" d="M214.453,670.642h-9.332v-8.331h9.332Zm0,40.261h-9.332V674.908h9.332Z" transform="translate(-153.992 -661.512)" fill="#fff"/>
      <path id="路径_14976" data-name="路径 14976" d="M237.884,674.156v5.2a11.829,11.829,0,0,1,10.8-5.8c7.665,0,12.064,4.532,12.064,12.464V710.15h-9.333v-22.2c0-4.266-2-6.466-6-6.466-4.533,0-7.533,2.8-7.533,7.065v21.6h-9.331V674.157Z" transform="translate(-152.423 -660.759)" fill="#fff"/>
      <path id="路径_14977" data-name="路径 14977" d="M305.332,674.156v37.194c0,8.466-6.266,13.331-17.132,13.331-9.531,0-15.8-3.933-15.931-10.2h9.665c.733,2.731,3.066,4.2,6.6,4.2,4.666,0,7.932-3,7.932-7.333v-4.865c-3.465,3.933-6,5.2-10.2,5.2-8.865,0-14.733-7.465-14.733-18.664,0-11.13,6.4-19.462,14.931-19.462,4.132,0,7.2,1.865,10,6.132v-5.532Zm-24.463,18.729c0,6.532,3.066,11,7.467,11,4.865,0,8.265-4.465,8.265-11,0-6.666-3.466-11.532-8.132-11.532-4.532,0-7.6,4.734-7.6,11.532Z" transform="translate(-149.546 -660.759)" fill="#fff"/>
      <path id="路径_14978" data-name="路径 14978" d="M338.619,670.093c-7.866,0-12.6,6.4-12.6,17.131,0,10.6,4.532,16.864,12.265,16.864,6.2,0,10.133-3.534,10.732-9.733h9.733c-.6,11.132-8.666,18.131-20.727,18.131-13.531,0-22-9.8-22-25.4,0-15.732,8.531-25.529,22.262-25.529,11.333,0,19.395,6.331,20.265,17.264h-9.537C348.482,676.358,346.949,670.093,338.619,670.093Z" transform="translate(-146.567 -661.562)" fill="#fff"/>
      <path id="路径_14979" data-name="路径 14979" d="M378.908,701.1l-3.267,9.8h-10.2l17.263-48.592H393.77l16.8,48.592H400.3l-3.2-9.8Zm9.132-27.33-6.333,19h12.666Z" transform="translate(-143.259 -661.512)" fill="#fff"/>
      <path id="路径_14980" data-name="路径 14980" d="M429.609,710.9h-10V662.311h21.464c10.131,0,15.664,5.333,15.664,15.067,0,9.865-5.733,16.2-14.665,16.2H429.609Zm9.333-25.662c5.333,0,7.8-2.33,7.8-7.266,0-5-2.466-7.333-7.8-7.333h-9.333v14.6Z" transform="translate(-139.632 -661.512)" fill="#fff"/>
      <path id="路径_14981" data-name="路径 14981" d="M491.775,662.31h19c7.465,0,12.065,1.664,15.331,5.6,3.867,4.6,5.932,11.2,5.932,18.664,0,7.533-2.066,14.13-5.932,18.663-3.266,3.934-7.932,5.667-15.331,5.667h-19Zm19,40.26c7.532,0,11.265-5.266,11.265-15.931,0-10.731-3.733-16-11.265-16h-9V702.57Z" transform="translate(-134.801 -661.512)" fill="#fff"/>
      <path id="路径_14982" data-name="路径 14982" d="M574.288,693.486a15.693,15.693,0,0,1-.067,1.6h-24.13c.2,4.866,1.2,9.465,7.465,9.465a7.223,7.223,0,0,0,7.133-4.532h9.2c-2.067,7.066-8.6,11.665-16.665,11.665-10.2,0-16.465-7.066-16.465-18.6,0-12.066,6.333-19.53,16.665-19.53C564.621,673.559,574.288,677.555,574.288,693.486Zm-17-12.8c-4.133,0-6.466,2.732-7.065,8.2h14.33C564.155,683.621,561.621,680.688,557.289,680.688Z" transform="translate(-131.522 -660.759)" fill="#fff"/>
      <path id="路径_14983" data-name="路径 14983" d="M594.155,710.113l-12.6-35.995h9.866l7.8,26.329,7.266-26.329h9.864l-12.4,35.995Z" transform="translate(-128.791 -660.721)" fill="#fff"/>
      <path id="路径_14984" data-name="路径 14984" d="M646.14,670.093c-7.866,0-12.6,6.4-12.6,17.131,0,10.6,4.534,16.864,12.265,16.864,6.2,0,10.133-3.534,10.732-9.733h9.731c-.6,11.132-8.665,18.131-20.727,18.131-13.531,0-22-9.8-22-25.4,0-15.732,8.532-25.529,22.264-25.529,11.332,0,19.4,6.331,20.262,17.264H656.54C656.007,676.358,654.471,670.093,646.14,670.093Z" transform="translate(-125.98 -661.562)" fill="#fff"/>
      <path id="路径_14985" data-name="路径 14985" d="M710.43,692.885c0,11.532-6.866,18.8-17.8,18.8-11.064,0-17.8-7.2-17.8-19.062,0-11.8,6.733-19.062,17.73-19.062C703.835,673.559,710.43,680.687,710.43,692.885Zm-26.263-.266c0,6.865,3.4,11.532,8.464,11.532,5,0,8.466-4.667,8.466-11.4,0-7.065-3.33-11.666-8.466-11.666-5.063,0-8.461,4.667-8.461,11.535Z" transform="translate(-122.546 -660.759)" fill="#fff"/>
      <path id="路径_14986" data-name="路径 14986" d="M730.343,674.156v5.2a11.828,11.828,0,0,1,10.8-5.8c7.666,0,12.065,4.532,12.065,12.464V710.15h-9.332v-22.2c0-4.266-2-6.466-6-6.466-4.534,0-7.533,2.8-7.533,7.065v21.6H721.01V674.157Z" transform="translate(-119.455 -660.759)" fill="#fff"/>
      <path id="路径_14987" data-name="路径 14987" d="M799.12,702.549h20v8.332H786.985c.466-8.732,3-12.864,10.932-18.4,10.466-7.331,12.064-9.464,12.064-14.663,0-4.733-2.532-7.6-6.664-7.6-4.267,0-6.733,3.065-6.733,8.332v1.533h-8.932c-.067-.734-.067-1.267-.067-1.666,0-10,5.733-15.8,15.531-15.8,9.931,0,16.2,5.867,16.2,15C819.318,691.751,803.119,694.084,799.12,702.549Z" transform="translate(-115.038 -661.491)" fill="#fff"/>
      <path id="路径_14988" data-name="路径 14988" d="M827.912,687.552c0-14.931,3.663-24.93,16.265-24.93,12.736,0,16.263,10.2,16.263,25.2,0,13.265-3.133,24.6-16.263,24.6C831.179,712.415,827.912,701.283,827.912,687.552Zm16.265-17.4c-4.8,0-6.933,3.932-6.933,17.329,0,14.068,2.6,16.931,6.933,16.931,4.2,0,6.931-2.734,6.931-16.8,0-13.53-2.665-17.463-6.931-17.463Z" transform="translate(-112.298 -661.491)" fill="#fff"/>
      <path id="路径_14989" data-name="路径 14989" d="M881.1,702.549h20v8.332H868.962c.466-8.732,3-12.864,10.932-18.4,10.466-7.331,12.064-9.464,12.064-14.663,0-4.733-2.533-7.6-6.664-7.6-4.267,0-6.732,3.065-6.732,8.332v1.533h-8.932c-.067-.734-.067-1.267-.067-1.666,0-10,5.732-15.8,15.532-15.8,9.931,0,16.2,5.867,16.2,15C901.291,691.751,885.092,694.084,881.1,702.549Z" transform="translate(-109.55 -661.491)" fill="#fff"/>
      <path id="路径_14990" data-name="路径 14990" d="M912.322,678.224v-6.2c8.131,0,13-2.865,14.465-8.465h6.2v47.259h-9.332V678.224Z" transform="translate(-106.647 -661.428)" fill="#fff"/>
    </g>
  </g>
  <g id="组_4522" data-name="组 4522">
    <path id="路径_15133" data-name="路径 15133" d="M334.3,571.111l-1.376-1.376-8.149,8.149-8.151-8.151-1.375,1.376,8.151,8.151-8.151,8.151,1.375,1.376,8.151-8.151,8.15,8.15,1.375-1.376-8.15-8.15Z" transform="translate(-141.313 -561.204)" fill="#fff"/>
    <path id="路径_15134" data-name="路径 15134" d="M654.97,587.41l-8.15-8.15,8.149-8.149-1.375-1.376-8.149,8.149-8.151-8.151-1.375,1.376,8.151,8.151-8.151,8.151,1.375,1.376,8.152-8.151,8.15,8.15Z" transform="translate(-119.845 -561.204)" fill="#fff"/>
    <g id="组_4519" data-name="组 4519">
      <path id="路径_15135" data-name="路径 15135" d="M161.614,597.135a17.913,17.913,0,0,1-6.86-6.756,20.059,20.059,0,0,1,0-19.491,17.977,17.977,0,0,1,6.86-6.728,19.93,19.93,0,0,1,19.041,0,17.8,17.8,0,0,1,6.834,6.728,20.246,20.246,0,0,1,0,19.491,17.735,17.735,0,0,1-6.834,6.756,19.945,19.945,0,0,1-19.041,0Zm16.036-4.522a11.605,11.605,0,0,0,4.493-4.786,15.363,15.363,0,0,0,1.623-7.207,15.205,15.205,0,0,0-1.623-7.179,11.486,11.486,0,0,0-4.493-4.733,13.8,13.8,0,0,0-13.084,0,11.481,11.481,0,0,0-4.494,4.733,15.192,15.192,0,0,0-1.623,7.179,15.35,15.35,0,0,0,1.623,7.207,11.6,11.6,0,0,0,4.494,4.786,13.6,13.6,0,0,0,13.084,0Z" transform="translate(-152.227 -561.739)" fill="#fff"/>
      <path id="路径_15136" data-name="路径 15136" d="M222.706,578.515a9.96,9.96,0,0,1-4.256,4.069,15.779,15.779,0,0,1-7.5,1.568h-6.7v15h-6.063V562.189h12.765a16.124,16.124,0,0,1,7.206,1.462,10.168,10.168,0,0,1,4.415,3.963,10.856,10.856,0,0,1,1.463,5.584A11.163,11.163,0,0,1,222.706,578.515Zm-6.595-.877a5.739,5.739,0,0,0,1.7-4.441q0-6.064-6.86-6.064h-6.7v12.073h6.7A7.391,7.391,0,0,0,216.111,577.638Z" transform="translate(-149.15 -561.709)" fill="#fff"/>
      <path id="路径_15137" data-name="路径 15137" d="M238.893,567.084v10.85h12.765v4.946H238.893v11.329h14.36v4.946H232.83V562.139h20.423v4.945Z" transform="translate(-146.831 -561.712)" fill="#fff"/>
      <path id="路径_15138" data-name="路径 15138" d="M294.3,599.156h-6.063L270,571.553v27.6h-6.062V562.139H270l18.243,27.55v-27.55H294.3Z" transform="translate(-144.748 -561.712)" fill="#fff"/>
    </g>
    <g id="组_4520" data-name="组 4520" transform="translate(559.019)">
      <path id="路径_15139" data-name="路径 15139" d="M682.233,567.084v10.85H695v4.946H682.233v11.329h14.36v4.946H676.17V562.139h20.424v4.945Z" transform="translate(-676.17 -561.712)" fill="#fff"/>
      <path id="路径_15140" data-name="路径 15140" d="M737.643,599.156H731.58l-18.243-27.6v27.6h-6.062V562.139h6.062l18.243,27.55v-27.55h6.063Z" transform="translate(-674.088 -561.712)" fill="#fff"/>
      <path id="路径_15141" data-name="路径 15141" d="M780.246,562.189l-13.881,36.963h-7.022L745.41,562.189H751.9l10.956,30.74,11.009-30.74Z" transform="translate(-671.535 -561.709)" fill="#fff"/>
      <path id="路径_15142" data-name="路径 15142" d="M793.841,562.189v36.963h-6.063V562.189Z" transform="translate(-668.698 -561.709)" fill="#fff"/>
      <path id="路径_15143" data-name="路径 15143" d="M811.458,598.252a11,11,0,0,1-4.68-3.7,9.378,9.378,0,0,1-1.7-5.584h6.489a5.844,5.844,0,0,0,1.889,3.935,6.684,6.684,0,0,0,4.706,1.543,7.253,7.253,0,0,0,4.893-1.515,4.927,4.927,0,0,0,1.755-3.909,4.274,4.274,0,0,0-1.09-3.032A7.32,7.32,0,0,0,821,584.183a41.155,41.155,0,0,0-4.493-1.383,41.968,41.968,0,0,1-5.877-1.941,9.685,9.685,0,0,1-3.856-3.058,8.837,8.837,0,0,1-1.6-5.531,9.83,9.83,0,0,1,1.6-5.584,10.179,10.179,0,0,1,4.466-3.67,16.252,16.252,0,0,1,6.649-1.277,13.857,13.857,0,0,1,8.8,2.687,9.912,9.912,0,0,1,3.8,7.366h-6.7a4.859,4.859,0,0,0-1.914-3.457,7.085,7.085,0,0,0-4.628-1.436A6.568,6.568,0,0,0,813,568.228a4.634,4.634,0,0,0-1.65,3.829,3.885,3.885,0,0,0,1.037,2.792,7.317,7.317,0,0,0,2.633,1.728,40.729,40.729,0,0,0,4.361,1.383,45.76,45.76,0,0,1,5.983,2.021,9.991,9.991,0,0,1,3.936,3.111,8.95,8.95,0,0,1,1.622,5.611,10.091,10.091,0,0,1-1.515,5.32,10.937,10.937,0,0,1-4.414,4.015,14.563,14.563,0,0,1-6.835,1.515A16.559,16.559,0,0,1,811.458,598.252Z" transform="translate(-667.54 -561.739)" fill="#fff"/>
      <path id="路径_15144" data-name="路径 15144" d="M847.079,562.189v36.963h-6.063V562.189Z" transform="translate(-665.134 -561.709)" fill="#fff"/>
      <path id="路径_15145" data-name="路径 15145" d="M866.654,597.135a17.909,17.909,0,0,1-6.862-6.756,20.059,20.059,0,0,1,0-19.491,17.974,17.974,0,0,1,6.862-6.728,19.93,19.93,0,0,1,19.041,0,17.812,17.812,0,0,1,6.834,6.728,20.253,20.253,0,0,1,0,19.491,17.75,17.75,0,0,1-6.834,6.756,19.945,19.945,0,0,1-19.041,0Zm16.035-4.522a11.609,11.609,0,0,0,4.494-4.786,15.363,15.363,0,0,0,1.623-7.207,15.206,15.206,0,0,0-1.623-7.179,11.489,11.489,0,0,0-4.494-4.733,13.8,13.8,0,0,0-13.084,0,11.488,11.488,0,0,0-4.494,4.733,15.2,15.2,0,0,0-1.622,7.179,15.362,15.362,0,0,0,1.622,7.207,11.608,11.608,0,0,0,4.494,4.786,13.6,13.6,0,0,0,13.084,0Z" transform="translate(-664.046 -561.739)" fill="#fff"/>
      <path id="路径_15146" data-name="路径 15146" d="M933.594,599.156h-6.063l-18.243-27.6v27.6h-6.062V562.139h6.062l18.243,27.55v-27.55h6.063Z" transform="translate(-660.969 -561.712)" fill="#fff"/>
    </g>
    <g id="组_4521" data-name="组 4521" transform="translate(210.468)">
      <path id="路径_15147" data-name="路径 15147" d="M352.016,570.888a17.977,17.977,0,0,1,6.86-6.728,20.166,20.166,0,0,1,20,.478,16.519,16.519,0,0,1,6.675,8.218h-7.286a9.783,9.783,0,0,0-3.988-4.362,11.845,11.845,0,0,0-5.9-1.436,12.9,12.9,0,0,0-6.541,1.649,11.491,11.491,0,0,0-4.5,4.733,16.7,16.7,0,0,0,0,14.36,11.644,11.644,0,0,0,4.5,4.76,12.726,12.726,0,0,0,6.541,1.676,11.845,11.845,0,0,0,5.9-1.436,9.78,9.78,0,0,0,3.988-4.361h7.286a16.365,16.365,0,0,1-6.675,8.19,19.419,19.419,0,0,1-10.5,2.872,19.094,19.094,0,0,1-9.52-2.42,18.042,18.042,0,0,1-6.834-6.728,20.009,20.009,0,0,1,0-19.465Z" transform="translate(-349.489 -561.739)" fill="#fff"/>
      <path id="路径_15148" data-name="路径 15148" d="M402.393,597.135a17.913,17.913,0,0,1-6.86-6.756,20.059,20.059,0,0,1,0-19.491,17.977,17.977,0,0,1,6.86-6.728,19.93,19.93,0,0,1,19.041,0,17.8,17.8,0,0,1,6.834,6.728,20.246,20.246,0,0,1,0,19.491,17.734,17.734,0,0,1-6.834,6.756,19.945,19.945,0,0,1-19.041,0Zm16.036-4.522a11.606,11.606,0,0,0,4.493-4.786,15.363,15.363,0,0,0,1.623-7.207,15.206,15.206,0,0,0-1.623-7.179,11.486,11.486,0,0,0-4.493-4.733,13.8,13.8,0,0,0-13.084,0,11.481,11.481,0,0,0-4.494,4.733,15.192,15.192,0,0,0-1.623,7.179,15.349,15.349,0,0,0,1.623,7.207,11.6,11.6,0,0,0,4.494,4.786,13.6,13.6,0,0,0,13.084,0Z" transform="translate(-346.576 -561.739)" fill="#fff"/>
      <path id="路径_15149" data-name="路径 15149" d="M469.335,599.156h-6.062l-18.243-27.6v27.6h-6.063V562.139h6.063l18.243,27.55v-27.55h6.062Z" transform="translate(-343.499 -561.712)" fill="#fff"/>
      <path id="路径_15150" data-name="路径 15150" d="M510.26,599.156H504.2l-18.243-27.6v27.6h-6.063V562.139h6.063l18.243,27.55v-27.55h6.062Z" transform="translate(-340.759 -561.712)" fill="#fff"/>
      <path id="路径_15151" data-name="路径 15151" d="M526.879,567.084v10.85h12.764v4.946H526.879v11.329h14.36v4.946H520.816V562.139H541.24v4.945Z" transform="translate(-338.019 -561.712)" fill="#fff"/>
      <path id="路径_15152" data-name="路径 15152" d="M552.552,570.888a17.972,17.972,0,0,1,6.862-6.728,20.164,20.164,0,0,1,20,.478,16.526,16.526,0,0,1,6.676,8.218H578.8a9.78,9.78,0,0,0-3.989-4.362,11.845,11.845,0,0,0-5.9-1.436,12.907,12.907,0,0,0-6.541,1.649,11.488,11.488,0,0,0-4.494,4.733,16.7,16.7,0,0,0,0,14.36,11.641,11.641,0,0,0,4.494,4.76,12.731,12.731,0,0,0,6.541,1.676,11.845,11.845,0,0,0,5.9-1.436,9.777,9.777,0,0,0,3.989-4.361h7.286a16.372,16.372,0,0,1-6.676,8.19,19.417,19.417,0,0,1-10.5,2.872,19.094,19.094,0,0,1-9.52-2.42,18.042,18.042,0,0,1-6.834-6.728,20.009,20.009,0,0,1,0-19.465Z" transform="translate(-336.064 -561.739)" fill="#fff"/>
      <path id="路径_15153" data-name="路径 15153" d="M619.44,562.189v4.945H609.6v32.018h-6.063V567.134h-9.892v-4.945Z" transform="translate(-333.144 -561.709)" fill="#fff"/>
    </g>
  </g>
</svg>
