<svg xmlns="http://www.w3.org/2000/svg" width="1018" height="840.311" viewBox="0 0 1018 840.311">
  <g id="Group_2379" data-name="Group 2379" transform="translate(-1162.281 -7879.689)">
    <g id="Group_2355" data-name="Group 2355" transform="translate(1162 7880.691)">
      <g id="Group_2092" data-name="Group 2092" transform="translate(0 0)">
        <g id="Group_2059" data-name="Group 2059" transform="translate(101.77 0)">
          <path id="Path_10107" data-name="Path 10107" d="M2606.849,986.446c-219.307,0-397.723-178.419-397.723-397.729S2387.542,190.99,2606.849,190.99s397.726,178.419,397.726,397.727S2826.159,986.446,2606.849,986.446Zm0-771.866c-206.3,0-374.133,167.838-374.133,374.137s167.838,374.14,374.133,374.14,374.136-167.838,374.136-374.14S2813.148,214.58,2606.849,214.58Z" transform="translate(-2205.628 -170.957)" fill="#3f3d56" stroke="#3f3d56" stroke-width="4"/>
          <path id="Path_10245" data-name="Path 10245" d="M2342.489,247.724a3.436,3.436,0,0,1-2.615-5.672l22.358-26.156-22.394-26.142a3.442,3.442,0,0,1,5.231-4.475l26.217,30.611L2345.1,246.522A3.44,3.44,0,0,1,2342.489,247.724Z" transform="translate(-1959.281 -184.074)" fill="#fff" stroke="#fff" stroke-width="2"/>
          <path id="Path_10246" data-name="Path 10246" d="M2457.322,479.022a3.488,3.488,0,0,1-.8-.1l-39.211-9.35L2420.5,429.4a3.438,3.438,0,1,1,6.854.542l-2.714,34.307,33.487,7.986a3.441,3.441,0,0,1-.8,6.787Z" transform="translate(-1810.782 275.211)" fill="#fff" stroke="#fff" stroke-width="2"/>
          <path id="Path_10247" data-name="Path 10247" d="M2267.111,480.439a3.441,3.441,0,0,1-3.424-3.163l-3.224-40.182,39.194-9.388a3.439,3.439,0,0,1,1.6,6.688l-33.471,8.018,2.754,34.31a3.439,3.439,0,0,1-3.151,3.7C2267.3,480.436,2267.2,480.439,2267.111,480.439Z" transform="translate(-2108.263 277.813)" fill="#fff" stroke="#fff" stroke-width="2"/>
          <g id="Group_2042" data-name="Group 2042" transform="translate(0 280.22)">
            <path id="Path_10344" data-name="Path 10344" d="M2265.365,320.42a3.428,3.428,0,0,1-2.937-1.642l-17.971-29.351-31.782,13.22a3.439,3.439,0,1,1-2.635-6.352l37.215-15.479,21.037,34.374a3.435,3.435,0,0,1-2.926,5.231Z" transform="translate(-2207.918 -280.815)" fill="#fff" stroke="#fff" stroke-width="2"/>
          </g>
          <path id="Path_10345" data-name="Path 10345" d="M2500.549,319.092l-37.222-15.439a3.44,3.44,0,1,1,2.636-6.355l31.787,13.185,17.941-29.377a3.442,3.442,0,0,1,5.875,3.589Z" transform="translate(-1727.537 -3.169)" fill="#fff" stroke="#fff" stroke-width="2"/>
        </g>
        <g id="Group_2060" data-name="Group 2060" transform="translate(168.19 95.629)">
          <g id="Rectangle_2567" data-name="Rectangle 2567" transform="translate(0.091 -0.32)" fill="#fff" stroke="#3f3d56" stroke-width="2">
            <rect width="159" height="88" stroke="none"/>
            <rect x="1" y="1" width="157" height="86" fill="none"/>
          </g>
          <text id="Data" transform="translate(29.091 60.68)" fill="#3f3d56" font-size="49" font-family="Titillium Web"><tspan x="0" y="0">Data</tspan></text>
        </g>
        <g id="Group_2067" data-name="Group 2067" transform="translate(612.431 84.66)">
          <g id="Rectangle_2567-2" data-name="Rectangle 2567" transform="translate(-0.15 -0.351)" fill="#fff" stroke="#3f3d56" stroke-width="2">
            <rect width="311" height="86" stroke="none"/>
            <rect x="1" y="1" width="309" height="84" fill="none"/>
          </g>
          <text id="Information" transform="translate(32.85 60.649)" fill="#3f3d56" font-size="49" font-family="Titillium Web"><tspan x="0" y="0">Information</tspan></text>
        </g>
        <g id="Group_2069" data-name="Group 2069" transform="translate(382.084 751.936)">
          <g id="Rectangle_2568" data-name="Rectangle 2568" transform="translate(0.197 0.373)" fill="#fff" stroke="#3f3d56" stroke-width="2">
            <rect width="241" height="87" stroke="none"/>
            <rect x="1" y="1" width="239" height="85" fill="none"/>
          </g>
          <text id="Decision" transform="translate(31.197 58.373)" fill="#3f3d56" font-size="49" font-family="Titillium Web"><tspan x="0" y="0">Decision</tspan></text>
        </g>
        <g id="Group_2091" data-name="Group 2091" transform="translate(0 512.448)">
          <g id="Rectangle_2569" data-name="Rectangle 2569" transform="translate(0.281 -0.139)" fill="#fff" stroke="#3f3d56" stroke-width="2">
            <rect width="203" height="84" stroke="none"/>
            <rect x="1" y="1" width="201" height="82" fill="none"/>
          </g>
          <text id="Result" transform="translate(33.281 58.861)" fill="#3f3d56" font-size="49" font-family="Titillium Web"><tspan x="0" y="0">Result</tspan></text>
        </g>
        <g id="Group_2088" data-name="Group 2088" transform="translate(327.241 199.833)">
          <g id="Group_2072" data-name="Group 2072" transform="translate(0 0)">
            <g id="Group_2070" data-name="Group 2070" transform="translate(0)">
              <g id="Group_1275" data-name="Group 1275">
                <rect id="Rectangle_2036" data-name="Rectangle 2036" width="349" height="105" transform="translate(0.04 310.476)" fill="#3f3d56"/>
                <ellipse id="Ellipse_223" data-name="Ellipse 223" cx="174.5" cy="36.5" rx="174.5" ry="36.5" transform="translate(0.04 270.476)" fill="#6c63ff"/>
                <ellipse id="Ellipse_224" data-name="Ellipse 224" cx="174.5" cy="38.5" rx="174.5" ry="38.5" transform="translate(0.04 376.476)" fill="#3f3d56"/>
                <rect id="Rectangle_2036-2" data-name="Rectangle 2036" width="349" height="109" transform="translate(0.04 168.476)" fill="#3f3d56"/>
                <ellipse id="Ellipse_223-2" data-name="Ellipse 223" cx="174.5" cy="38.5" rx="174.5" ry="38.5" transform="translate(0.04 133.476)" fill="#6c63ff"/>
                <ellipse id="Ellipse_224-2" data-name="Ellipse 224" cx="174.5" cy="39" rx="174.5" ry="39" transform="translate(0.04 241.476)" fill="#3f3d56"/>
                <rect id="Rectangle_2036-3" data-name="Rectangle 2036" width="349" height="104" transform="translate(0.04 42.476)" fill="#3f3d56"/>
                <ellipse id="Ellipse_223-3" data-name="Ellipse 223" cx="174.5" cy="37" rx="174.5" ry="37" transform="translate(0.04 0.476)" fill="#6c63ff"/>
                <ellipse id="Ellipse_224-3" data-name="Ellipse 224" cx="174.5" cy="38.5" rx="174.5" ry="38.5" transform="translate(0.04 107.476)" fill="#3f3d56"/>
              </g>
              <g id="Group_1276" data-name="Group 1276" transform="translate(138.604 142.089)">
                <rect id="Rectangle_2037" data-name="Rectangle 2037" width="18.656" height="18.656" transform="translate(26.819)" fill="#ff6584" opacity="0.8"/>
                <rect id="Rectangle_2038" data-name="Rectangle 2038" width="18.656" height="18.656" transform="translate(53.636)" fill="#ff6584"/>
                <rect id="Rectangle_2039" data-name="Rectangle 2039" width="18.656" height="18.656" fill="#ff6584" opacity="0.4"/>
              </g>
              <g id="Group_1278" data-name="Group 1278" transform="translate(138.604 410.873)">
                <rect id="Rectangle_2037-2" data-name="Rectangle 2037" width="18.656" height="18.656" transform="translate(26.819 0)" fill="#ff6584" opacity="0.8"/>
                <rect id="Rectangle_2038-2" data-name="Rectangle 2038" width="18.656" height="18.656" transform="translate(53.636 0)" fill="#ff6584"/>
                <rect id="Rectangle_2039-2" data-name="Rectangle 2039" width="18.656" height="18.656" transform="translate(0 0)" fill="#ff6584" opacity="0.4"/>
              </g>
            </g>
          </g>
          <g id="Group_2074" data-name="Group 2074" transform="translate(150.275 170.467)">
            <g id="Group_2073" data-name="Group 2073">
              <path id="Path_10350" data-name="Path 10350" d="M4676.051,1746.625l-16.263,9.389v9.386l8.133-4.7v18.9l8.13,4.689h0v-28.282l8.128-4.693Z" transform="translate(-4651.66 -1737.238)" fill="#fff"/>
              <path id="Path_10351" data-name="Path 10351" d="M4767.788,1792.849v18.917l8.13-4.694v-18.9l-.011-.007Z" transform="translate(-4735.271 -1769.395)" fill="#fff"/>
              <path id="Path_10352" data-name="Path 10352" d="M4648.244,1761.523l-24.455-14.118v-28.236l24.455-14.117,24.451,14.117v28.236Zm-23.132-14.881L4648.244,1760l23.13-13.355v-26.708l-23.13-13.355-23.132,13.355Z" transform="translate(-4623.789 -1705.052)" fill="#fff"/>
              <path id="Path_10353" data-name="Path 10353" d="M4648.244,1761.523l-24.455-14.118v-28.236l24.455-14.117,24.451,14.117v28.236Zm-23.132-14.881L4648.244,1760l23.13-13.355v-26.708l-23.13-13.355-23.132,13.355Z" transform="translate(-4623.789 -1705.052)" fill="#fff" stroke="#fff" stroke-width="0.5"/>
            </g>
          </g>
        </g>
        <g id="Group_2112" data-name="Group 2112" transform="translate(707.495 512.448)">
          <g id="Rectangle_2567-3" data-name="Rectangle 2567" transform="translate(-0.214 -0.138)" fill="#fff" stroke="#3f3d56" stroke-width="2">
            <rect width="311" height="86" stroke="none"/>
            <rect x="1" y="1" width="309" height="84" fill="none"/>
          </g>
          <text id="Knowledge" transform="translate(39.786 59.862)" fill="#3f3d56" font-size="49" font-family="Titillium Web"><tspan x="0" y="0">Knowledge</tspan></text>
        </g>
        <g id="Group_2113" data-name="Group 2113" transform="translate(424.132 308.509)">
          <path id="Path_10363" data-name="Path 10363" d="M3522.783,1918.571v90.121l78.047,45.061,78.047-45.061v-90.121l-78.047-45.061Z" transform="translate(-3522.783 -1873.51)" fill="#e30c34" stroke="#fff" stroke-width="4"/>
          <path id="Path_10364" data-name="Path 10364" d="M3610.825,1915.141l-51.835,29.927v29.921l25.926-14.968v60.252l25.912,14.94h0V1945.06l25.91-14.959Z" transform="translate(-3532.824 -1885.056)" fill="#fff"/>
          <path id="Path_10365" data-name="Path 10365" d="M3666.78,1971.686v60.063l26.02-15.021v-60.078Z" transform="translate(-3562.719 -1896.568)" fill="#fff"/>
        </g>
      </g>
    </g>
  </g>
</svg>
