<svg xmlns="http://www.w3.org/2000/svg" viewBox="0 0 562 460.31"><defs><style>.cls-1,.cls-6{fill:#3f3d56;}.cls-1,.cls-4{stroke:#3f3d56;}.cls-1,.cls-12{stroke-width:4px;}.cls-11,.cls-2,.cls-3{fill:#fff;}.cls-11,.cls-12,.cls-2{stroke:#fff;}.cls-2,.cls-4{stroke-width:2px;}.cls-4{fill:none;}.cls-10,.cls-5,.cls-8{isolation:isolate;}.cls-7{fill:#6c63ff;}.cls-10,.cls-8,.cls-9{fill:#ff6584;}.cls-8{opacity:0.8;}.cls-10{opacity:0.4;}.cls-11{stroke-width:0.5px;}.cls-12{fill:#e30c34;}</style></defs><g id="Layer_2" data-name="Layer 2"><g id="Layer_1-2" data-name="Layer 1"><g id="Group_2138" data-name="Group 2138"><path id="Path_10107" data-name="Path 10107" class="cls-1" d="M252.14,447.07c-120,0-217.56-97.6-217.56-217.56S132.17,12,252.14,12s217.55,97.6,217.55,217.55S372.1,447.07,252.14,447.07Zm0-422.21c-112.85,0-204.66,91.8-204.66,204.65s91.81,204.66,204.66,204.66,204.65-91.81,204.65-204.66S365,24.86,252.14,24.86Z"/><path id="Path_10245" data-name="Path 10245" class="cls-2" d="M242.28,35.82a1.88,1.88,0,0,1-1.43-3.1l12.23-14.31L240.83,4.11a1.88,1.88,0,1,1,2.86-2.45h0L258,18.4,243.71,35.16A1.86,1.86,0,0,1,242.28,35.82Z"/><path id="Path_10246" data-name="Path 10246" class="cls-2" d="M386.33,413.56a1.65,1.65,0,0,1-.44-.05l-21.45-5.11,1.75-22a1.88,1.88,0,0,1,3.74.3l-1.48,18.77,18.32,4.36a1.89,1.89,0,0,1-.44,3.72Z"/><path id="Path_10247" data-name="Path 10247" class="cls-2" d="M119.56,415.76a1.88,1.88,0,0,1-1.87-1.73l-1.77-22,21.44-5.13a1.88,1.88,0,0,1,.88,3.66L119.93,395l1.51,18.77a1.89,1.89,0,0,1-1.73,2h-.15Z"/><g id="Group_2042" data-name="Group 2042"><path id="Path_10344" data-name="Path 10344" class="cls-2" d="M64.09,175.94a1.88,1.88,0,0,1-1.6-.9l-9.83-16-17.39,7.23a1.88,1.88,0,0,1-1.44-3.48h0l20.36-8.46,11.5,18.8a1.88,1.88,0,0,1-1.6,2.86Z"/></g><path id="Path_10345" data-name="Path 10345" class="cls-2" d="M455.51,173.81l-20.36-8.45a1.88,1.88,0,1,1,1.37-3.5l.07,0L454,169.1,463.79,153a1.88,1.88,0,0,1,3.21,2h0Z"/><g id="Group_2137" data-name="Group 2137"><g id="Rectangle_2567" data-name="Rectangle 2567"><rect class="cls-3" x="88" y="50.31" width="87" height="48"/><rect class="cls-4" x="89" y="51.31" width="85" height="46"/></g><g id="Data" class="cls-5"><g class="cls-5"><path class="cls-6" d="M114,85.31h-6.67V66.63H114c3.05,0,5.06,1.2,6.06,3.61a14.22,14.22,0,0,1,.85,5.46q0,7-3.5,8.88A7.28,7.28,0,0,1,114,85.31Zm4.78-9.61q0-5.39-2.4-6.7a4.84,4.84,0,0,0-2.38-.54h-4.58v15H114Q118.75,83.48,118.74,75.7Z"/><path class="cls-6" d="M133.87,75.88V82.8c0,.67.58,1.07,1.57,1.19l-.08,1.58a4.35,4.35,0,0,1-3.21-1.07,11.55,11.55,0,0,1-4.86,1.07,3.67,3.67,0,0,1-2.83-1,4.27,4.27,0,0,1-1-3,3.82,3.82,0,0,1,1-2.9,5.2,5.2,0,0,1,3.13-1.15l4.25-.41V75.88a2.67,2.67,0,0,0-.6-2,2.16,2.16,0,0,0-1.62-.6,38.68,38.68,0,0,0-4.48.27l-.85.08-.07-1.53a26.82,26.82,0,0,1,5.26-.6,3.75,3.75,0,0,1,4.37,4.34Zm-8.3,5.51c0,1.66.68,2.48,2,2.48a11.17,11.17,0,0,0,3.63-.62l.62-.21V78.58l-4,.39a2.56,2.56,0,0,0-1.75.7A2.46,2.46,0,0,0,125.57,81.39Z"/><path class="cls-6" d="M144.87,73.56h-4.3V80a8.57,8.57,0,0,0,.34,3c.22.48.76.72,1.61.72l2.4-.16.13,1.68a18.17,18.17,0,0,1-2.75.3,3.51,3.51,0,0,1-2.92-1c-.53-.68-.8-2-.8-3.91V73.56h-1.93V71.81h1.93V67.68h2v4.13h4.3Z"/><path class="cls-6" d="M156.86,75.88V82.8c.06.67.58,1.07,1.57,1.19l-.08,1.58a4.35,4.35,0,0,1-3.21-1.07,11.54,11.54,0,0,1-4.85,1.07,3.69,3.69,0,0,1-2.84-1,4.27,4.27,0,0,1-1-3,3.81,3.81,0,0,1,1-2.9,5.2,5.2,0,0,1,3.13-1.15l4.25-.41V75.88a2.67,2.67,0,0,0-.6-2,2.16,2.16,0,0,0-1.62-.6,38.82,38.82,0,0,0-4.48.27l-.84.08-.08-1.53a26.82,26.82,0,0,1,5.26-.6,3.75,3.75,0,0,1,4.37,4.34Zm-8.3,5.51c0,1.66.68,2.48,2,2.48a11.17,11.17,0,0,0,3.63-.62l.62-.21V78.58l-4,.39a2.56,2.56,0,0,0-1.75.7A2.46,2.46,0,0,0,148.56,81.39Z"/></g></g></g><g id="Group_2136" data-name="Group 2136"><g id="Rectangle_2567-2" data-name="Rectangle 2567-2"><rect class="cls-3" x="327" y="51.31" width="170" height="47"/><rect class="cls-4" x="328" y="52.31" width="168" height="45"/></g><g id="Information" class="cls-5"><g class="cls-5"><path class="cls-6" d="M347.29,85.31V66.63h2.09V85.31Z"/><path class="cls-6" d="M355.6,85.31h-2V71.81h2v1a8.67,8.67,0,0,1,4.18-1.22c1.8,0,3,.49,3.64,1.46s.94,2.7.94,5.18v7.13h-2V78.23a9.07,9.07,0,0,0-.55-3.84,2.44,2.44,0,0,0-2.36-1,7.15,7.15,0,0,0-1.83.26,10,10,0,0,0-1.47.49l-.51.25Z"/><path class="cls-6" d="M370.66,73.56V85.31h-2V73.56h-1.7V71.81h1.7V70.6a6.73,6.73,0,0,1,.82-3.91,3.4,3.4,0,0,1,2.84-1l2.73.19,0,1.67c-1,0-1.84-.05-2.5-.05a1.55,1.55,0,0,0-1.4.65,5.12,5.12,0,0,0-.42,2.51v1.19h3.91v1.75Z"/><path class="cls-6" d="M376.15,78.53q0-3.7,1.33-5.34T382,71.54c2.09,0,3.58.55,4.45,1.65s1.31,2.87,1.31,5.34-.41,4.26-1.23,5.37-2.34,1.67-4.54,1.67-3.71-.55-4.54-1.67S376.15,81,376.15,78.53Zm2.09,0a8.68,8.68,0,0,0,.71,4.14c.48.79,1.48,1.19,3,1.19s2.52-.39,3-1.17a8.7,8.7,0,0,0,.7-4.14,7.63,7.63,0,0,0-.78-4.09A3.31,3.31,0,0,0,382,73.3,3.36,3.36,0,0,0,379,74.42,7.46,7.46,0,0,0,378.24,78.49Z"/><path class="cls-6" d="M391,85.31V71.81h2v1.83A13.09,13.09,0,0,1,398,71.51v2a14.7,14.7,0,0,0-2.37.67,15,15,0,0,0-1.88.82l-.67.34v9.92Z"/><path class="cls-6" d="M402.36,85.31h-2V71.81h2v1a7.65,7.65,0,0,1,3.94-1.22,4,4,0,0,1,3.5,1.38,10.08,10.08,0,0,1,2.32-1,8.93,8.93,0,0,1,2.5-.42c1.8,0,3,.49,3.63,1.45s.93,2.69.93,5.19v7.13h-2V78.23a9.28,9.28,0,0,0-.54-3.84,2.35,2.35,0,0,0-2.3-1,7.1,7.1,0,0,0-1.84.26,9.21,9.21,0,0,0-1.45.49l-.5.25a13.46,13.46,0,0,1,.34,3.94v7h-2v-7a9.78,9.78,0,0,0-.53-4c-.35-.69-1.12-1-2.32-1a6.41,6.41,0,0,0-1.76.26,8.87,8.87,0,0,0-1.39.49l-.46.25Z"/><path class="cls-6" d="M432.43,75.88V82.8c.06.67.58,1.07,1.57,1.19l-.08,1.58a4.35,4.35,0,0,1-3.21-1.07,11.54,11.54,0,0,1-4.85,1.07,3.69,3.69,0,0,1-2.84-1,4.27,4.27,0,0,1-1-3,3.82,3.82,0,0,1,1-2.9,5.2,5.2,0,0,1,3.13-1.15l4.25-.41V75.88a2.67,2.67,0,0,0-.6-2,2.16,2.16,0,0,0-1.62-.6,38.82,38.82,0,0,0-4.48.27l-.84.08-.08-1.53a26.82,26.82,0,0,1,5.26-.6,3.75,3.75,0,0,1,4.37,4.34Zm-8.3,5.51c0,1.66.68,2.48,2,2.48a11.17,11.17,0,0,0,3.63-.62l.62-.21V78.58l-4,.39a2.56,2.56,0,0,0-1.75.7A2.46,2.46,0,0,0,424.13,81.39Z"/><path class="cls-6" d="M443.43,73.56h-4.3V80a8.57,8.57,0,0,0,.34,3c.22.48.76.72,1.61.72l2.4-.16.13,1.68a18.17,18.17,0,0,1-2.75.3,3.51,3.51,0,0,1-2.92-1c-.53-.68-.8-2-.8-3.91V73.56h-1.92V71.81h1.92V67.68h2v4.13h4.3Z"/><path class="cls-6" d="M445.89,68.76V66.4h2v2.36Zm0,16.55V71.81h2v13.5Z"/><path class="cls-6" d="M451.21,78.53q0-3.7,1.32-5.34c.88-1.1,2.38-1.65,4.47-1.65s3.58.55,4.46,1.65,1.31,2.87,1.31,5.34-.41,4.26-1.24,5.37-2.34,1.67-4.54,1.67-3.71-.55-4.54-1.67S451.21,81,451.21,78.53Zm2.08,0a8.53,8.53,0,0,0,.72,4.14c.48.79,1.48,1.19,3,1.19s2.51-.39,3-1.17a8.83,8.83,0,0,0,.7-4.14,7.62,7.62,0,0,0-.79-4.09,4.33,4.33,0,0,0-5.81,0A7.45,7.45,0,0,0,453.29,78.49Z"/><path class="cls-6" d="M468.08,85.31h-2V71.81h2v1a8.61,8.61,0,0,1,4.18-1.22c1.8,0,3,.49,3.63,1.46s.94,2.7.94,5.18v7.13h-2V78.23a9,9,0,0,0-.56-3.84,2.43,2.43,0,0,0-2.36-1,7,7,0,0,0-1.82.26,9.21,9.21,0,0,0-1.47.49l-.52.25Z"/></g></g></g><g id="Rectangle_2568" data-name="Rectangle 2568"><rect class="cls-3" x="186" y="412.31" width="132" height="48"/><rect class="cls-4" x="187" y="413.31" width="130" height="46"/></g><g id="Decision" class="cls-5"><g class="cls-5"><path class="cls-6" d="M212,444.31h-6.67V425.63H212c3,0,5.06,1.2,6.06,3.61a14.22,14.22,0,0,1,.85,5.46q0,7.05-3.5,8.88A7.28,7.28,0,0,1,212,444.31Zm4.78-9.61q0-5.38-2.4-6.7a4.84,4.84,0,0,0-2.38-.54h-4.58v15H212Q216.75,442.48,216.74,434.7Z"/><path class="cls-6" d="M231.53,442.63l.78-.08.05,1.6a36.59,36.59,0,0,1-5.26.42c-1.94,0-3.32-.56-4.13-1.69a8.94,8.94,0,0,1-1.22-5.24q0-7.11,5.64-7.1a5.16,5.16,0,0,1,4.08,1.53,7.08,7.08,0,0,1,1.35,4.79l-.1,1.53H223.8a5.54,5.54,0,0,0,.81,3.32,3.34,3.34,0,0,0,2.83,1.08C228.78,442.79,230.14,442.74,231.53,442.63Zm-.74-5.85a5.9,5.9,0,0,0-.79-3.51,3.08,3.08,0,0,0-2.59-1,3.31,3.31,0,0,0-2.7,1.07,5.36,5.36,0,0,0-.93,3.46Z"/><path class="cls-6" d="M241,430.54a24.17,24.17,0,0,1,3,.32l.65.08-.08,1.65c-1.44-.16-2.5-.24-3.19-.24a3.74,3.74,0,0,0-3.12,1.09c-.55.73-.82,2.08-.82,4.05a7.87,7.87,0,0,0,.77,4.12c.51.77,1.58,1.16,3.2,1.16l3.19-.24.08,1.67a24.81,24.81,0,0,1-3.76.37c-2.11,0-3.56-.54-4.36-1.61s-1.2-2.9-1.2-5.47.43-4.36,1.29-5.4S239,430.54,241,430.54Z"/><path class="cls-6" d="M247.73,427.76V425.4h2v2.36Zm0,16.55v-13.5h2v13.5Z"/><path class="cls-6" d="M257.88,432.35q-2.94,0-2.94,2a1.42,1.42,0,0,0,.68,1.34,11.35,11.35,0,0,0,3.07.81,8.28,8.28,0,0,1,3.41,1.18,3.4,3.4,0,0,1,1,2.84,3.49,3.49,0,0,1-1.33,3,6.56,6.56,0,0,1-3.9,1,24.68,24.68,0,0,1-4-.37l-.81-.13.12-1.77a33.86,33.86,0,0,0,4.64.47,4.7,4.7,0,0,0,2.39-.5,1.82,1.82,0,0,0,.82-1.68,1.69,1.69,0,0,0-.7-1.59,11,11,0,0,0-3.08-.8,8.28,8.28,0,0,1-3.38-1.1,3.17,3.17,0,0,1-1-2.7,3.29,3.29,0,0,1,1.39-2.91,6.07,6.07,0,0,1,3.48-.95,29.76,29.76,0,0,1,4.12.37l.76.14-.06,1.74A34.92,34.92,0,0,0,257.88,432.35Z"/><path class="cls-6" d="M266.19,427.76V425.4h2v2.36Zm0,16.55v-13.5h2v13.5Z"/><path class="cls-6" d="M271.5,437.53q0-3.7,1.33-5.34t4.47-1.65c2.09,0,3.58.55,4.45,1.65s1.31,2.87,1.31,5.34-.41,4.26-1.24,5.37-2.33,1.67-4.53,1.67-3.71-.55-4.54-1.67S271.5,440,271.5,437.53Zm2.08,0a8.53,8.53,0,0,0,.72,4.14c.48.79,1.48,1.19,3,1.19s2.52-.39,3-1.17a8.7,8.7,0,0,0,.7-4.14,7.63,7.63,0,0,0-.78-4.09,3.31,3.31,0,0,0-2.9-1.12,3.35,3.35,0,0,0-2.92,1.12A7.45,7.45,0,0,0,273.58,437.49Z"/><path class="cls-6" d="M288.38,444.31h-2v-13.5h2v.95a8.64,8.64,0,0,1,4.18-1.22c1.8,0,3,.49,3.64,1.46s.93,2.7.93,5.18v7.13h-2v-7.08a9.07,9.07,0,0,0-.55-3.84,2.44,2.44,0,0,0-2.36-1,7.15,7.15,0,0,0-1.83.26,9.21,9.21,0,0,0-1.47.49l-.51.25Z"/></g></g><g id="Group_2135" data-name="Group 2135"><g id="Rectangle_2569" data-name="Rectangle 2569"><rect class="cls-3" y="282.31" width="111" height="46"/><rect class="cls-4" x="1" y="283.31" width="109" height="44"/></g><g id="Result" class="cls-5"><g class="cls-5"><path class="cls-6" d="M22.38,307.15v7.16H20.29V295.63H27.2A6.45,6.45,0,0,1,31.67,297a5.57,5.57,0,0,1,1.5,4.3q0,4.32-3.42,5.43l3.58,7.58H31l-3.38-7.16Zm4.85-1.83q3.81,0,3.81-3.93t-3.84-3.93H22.38v7.86Z"/><path class="cls-6" d="M45.51,312.63l.78-.08.05,1.6a36.48,36.48,0,0,1-5.26.42c-1.94,0-3.32-.56-4.13-1.69a9,9,0,0,1-1.22-5.24q0-7.11,5.64-7.1a5.16,5.16,0,0,1,4.08,1.53q1.36,1.51,1.36,4.79l-.11,1.53H37.79a5.54,5.54,0,0,0,.81,3.32,3.31,3.31,0,0,0,2.82,1.08C42.76,312.79,44.13,312.74,45.51,312.63Zm-.73-5.85a6,6,0,0,0-.79-3.51,3.1,3.1,0,0,0-2.6-1,3.32,3.32,0,0,0-2.7,1.07,5.48,5.48,0,0,0-.93,3.46Z"/><path class="cls-6" d="M54.2,302.35q-2.94,0-2.94,2a1.43,1.43,0,0,0,.67,1.34,11.58,11.58,0,0,0,3.08.81,8.17,8.17,0,0,1,3.4,1.18,3.38,3.38,0,0,1,1,2.84,3.49,3.49,0,0,1-1.33,3,6.56,6.56,0,0,1-3.9,1,24.68,24.68,0,0,1-4-.37l-.81-.13.11-1.77a34.12,34.12,0,0,0,4.65.47,4.7,4.7,0,0,0,2.39-.5,1.82,1.82,0,0,0,.82-1.68,1.69,1.69,0,0,0-.7-1.59,11,11,0,0,0-3.08-.8,8.28,8.28,0,0,1-3.38-1.1,3.17,3.17,0,0,1-1-2.7,3.29,3.29,0,0,1,1.39-2.91,6.07,6.07,0,0,1,3.48-.95,29.76,29.76,0,0,1,4.12.37l.75.14,0,1.74A34.92,34.92,0,0,0,54.2,302.35Z"/><path class="cls-6" d="M70.93,300.81h2v13.5h-2v-.95a7.71,7.71,0,0,1-4,1.21c-1.84,0-3.06-.47-3.66-1.43s-.9-2.71-.9-5.28v-7.05h2v7a10,10,0,0,0,.51,3.94c.34.67,1.12,1,2.32,1a6.71,6.71,0,0,0,1.81-.26,8.72,8.72,0,0,0,1.41-.5l.47-.25Z"/><path class="cls-6" d="M77,314.31V294.93h2v19.38Z"/><path class="cls-6" d="M90.07,302.56H85.78V309a8.9,8.9,0,0,0,.33,3.05q.35.72,1.62.72l2.4-.16.13,1.68a18.15,18.15,0,0,1-2.76.3,3.5,3.5,0,0,1-2.91-1c-.54-.68-.8-2-.8-3.91v-7.11H81.86v-1.75h1.93v-4.13h2v4.13h4.29Z"/></g></g></g><g id="Group_2072" data-name="Group 2072"><g id="Group_2070" data-name="Group 2070"><g id="Group_1275" data-name="Group 1275"><rect id="Rectangle_2036" data-name="Rectangle 2036" class="cls-6" x="156" y="280.31" width="191" height="57"/><ellipse id="Ellipse_223" data-name="Ellipse 223" class="cls-7" cx="251.5" cy="278.31" rx="95.5" ry="20"/><ellipse id="Ellipse_224" data-name="Ellipse 224" class="cls-6" cx="251.5" cy="337.31" rx="95.5" ry="21"/><rect id="Rectangle_2036-2" data-name="Rectangle 2036-2" class="cls-6" x="156" y="202.31" width="191" height="60"/><ellipse id="Ellipse_223-2" data-name="Ellipse 223-2" class="cls-7" cx="251.5" cy="204.31" rx="95.5" ry="21"/><ellipse id="Ellipse_224-2" data-name="Ellipse 224-2" class="cls-6" cx="251.5" cy="263.81" rx="95.5" ry="21.5"/><rect id="Rectangle_2036-3" data-name="Rectangle 2036-3" class="cls-6" x="156" y="133.31" width="191" height="57"/><ellipse id="Ellipse_223-3" data-name="Ellipse 223-3" class="cls-7" cx="251.5" cy="130.81" rx="95.5" ry="20.5"/><ellipse id="Ellipse_224-3" data-name="Ellipse 224-3" class="cls-6" cx="251.5" cy="190.31" rx="95.5" ry="21"/></g><g id="Group_1276" data-name="Group 1276"><rect id="Rectangle_2037" data-name="Rectangle 2037" class="cls-8" x="246.49" y="188.03" width="10.2" height="10.2"/><rect id="Rectangle_2038" data-name="Rectangle 2038" class="cls-9" x="261.16" y="188.03" width="10.2" height="10.2"/><rect id="Rectangle_2039" data-name="Rectangle 2039" class="cls-10" x="231.82" y="188.03" width="10.2" height="10.2"/></g><g id="Group_1278" data-name="Group 1278"><rect id="Rectangle_2037-2" data-name="Rectangle 2037-2" class="cls-8" x="246.49" y="335.05" width="10.2" height="10.2"/><rect id="Rectangle_2038-2" data-name="Rectangle 2038-2" class="cls-9" x="261.16" y="335.05" width="10.2" height="10.2"/><rect id="Rectangle_2039-2" data-name="Rectangle 2039-2" class="cls-10" x="231.82" y="335.05" width="10.2" height="10.2"/></g></g></g><g id="Group_2074" data-name="Group 2074"><g id="Group_2073" data-name="Group 2073"><path id="Path_10350" data-name="Path 10350" class="cls-3" d="M251.54,208.69l-8.9,5.13V219l4.45-2.57v10.34l4.45,2.56h0V213.82l4.45-2.56Z"/><path id="Path_10351" data-name="Path 10351" class="cls-3" d="M256,216.38v10.35l4.44-2.57V213.82h0Z"/><path id="Path_10352" data-name="Path 10352" class="cls-3" d="M251.58,234.44l-13.38-7.72V211.28l13.38-7.73L265,211.28v15.44Zm-12.65-8.14,12.65,7.31,12.65-7.31V211.69l-12.65-7.3-12.65,7.3Z"/><path id="Path_10353" data-name="Path 10353" class="cls-11" d="M251.58,234.44l-13.38-7.72V211.28l13.38-7.73L265,211.28v15.44Zm-12.65-8.14,12.65,7.31,12.65-7.31V211.69l-12.65-7.3-12.65,7.3Z"/></g></g><g id="Group_2134" data-name="Group 2134"><g id="Rectangle_2567-3" data-name="Rectangle 2567-3"><rect class="cls-3" x="392" y="281.31" width="170" height="47"/><rect class="cls-4" x="393" y="282.31" width="168" height="45"/></g><g id="Knowledge" class="cls-5"><g class="cls-5"><path class="cls-6" d="M416.38,314.31h-2.09V295.63h2.09v8.69l3.07-.11,4.78-8.58h2.38L421.25,305l5.65,9.3h-2.45l-5-8.27-3.1.12Z"/><path class="cls-6" d="M431.25,314.31h-2v-13.5h2v.95a8.64,8.64,0,0,1,4.18-1.22c1.8,0,3,.49,3.64,1.46s.94,2.7.94,5.18v7.13h-2v-7.08a9.07,9.07,0,0,0-.55-3.84,2.44,2.44,0,0,0-2.36-1,7.15,7.15,0,0,0-1.83.26,9.57,9.57,0,0,0-1.47.49l-.51.25Z"/><path class="cls-6" d="M443.11,307.53q0-3.7,1.33-5.34t4.47-1.65c2.09,0,3.58.55,4.45,1.65s1.32,2.87,1.32,5.34-.42,4.26-1.24,5.37-2.34,1.67-4.54,1.67-3.71-.55-4.54-1.67S443.11,310,443.11,307.53Zm2.09,0a8.68,8.68,0,0,0,.71,4.14c.48.79,1.48,1.19,3,1.19s2.52-.39,3-1.17a8.7,8.7,0,0,0,.7-4.14,7.63,7.63,0,0,0-.78-4.09,3.31,3.31,0,0,0-2.9-1.12,3.36,3.36,0,0,0-2.92,1.12A7.46,7.46,0,0,0,445.2,307.49Z"/><path class="cls-6" d="M456.72,300.81h2l2.73,11.74h.43l3.21-11.48h2.11l3.21,11.48h.46l2.69-11.74h2l-3.21,13.5H469l-2.86-10.56-2.86,10.56h-3.37Z"/><path class="cls-6" d="M478.56,314.31V294.93h2v19.38Z"/><path class="cls-6" d="M493.82,312.63l.78-.08,0,1.6a36.59,36.59,0,0,1-5.26.42c-1.94,0-3.32-.56-4.14-1.69a9,9,0,0,1-1.22-5.24q0-7.11,5.65-7.1a5.16,5.16,0,0,1,4.08,1.53,7.08,7.08,0,0,1,1.35,4.79l-.11,1.53h-8.91a5.54,5.54,0,0,0,.81,3.32,3.31,3.31,0,0,0,2.82,1.08C491.06,312.79,492.43,312.74,493.82,312.63Zm-.74-5.85a5.9,5.9,0,0,0-.79-3.51,3.08,3.08,0,0,0-2.59-1,3.34,3.34,0,0,0-2.71,1.07,5.43,5.43,0,0,0-.92,3.46Z"/><path class="cls-6" d="M508.64,294.93v19.38h-2v-.92a8.23,8.23,0,0,1-4.1,1.18,6.3,6.3,0,0,1-1.89-.26,3.78,3.78,0,0,1-1.51-1c-1-1-1.46-2.77-1.46-5.38s.43-4.51,1.31-5.67,2.32-1.74,4.33-1.74a17.21,17.21,0,0,1,3.32.35v-6Zm-7,17.65a3.67,3.67,0,0,0,1.26.19,6.72,6.72,0,0,0,1.72-.26,10.38,10.38,0,0,0,1.5-.5l.54-.25v-9.15a17,17,0,0,0-3.2-.31,3.11,3.11,0,0,0-2.87,1.3,7.92,7.92,0,0,0-.81,4.06c0,2.1.32,3.5.95,4.22A2.22,2.22,0,0,0,501.61,312.58Z"/><path class="cls-6" d="M517.76,320.65c-2.16,0-3.67-.29-4.53-.88a3.58,3.58,0,0,1-1.28-3.19,3.09,3.09,0,0,1,.48-1.8,8.16,8.16,0,0,1,1.65-1.55,2.1,2.1,0,0,1-.75-1.86,4.52,4.52,0,0,1,.67-1.7l.24-.44q-2.13-1-2.12-4.07,0-4.62,5-4.62a10.14,10.14,0,0,1,2.4.27l.4.08,4-.11v1.73l-2.57-.05a3.67,3.67,0,0,1,.89,2.7c0,1.7-.42,2.88-1.26,3.55a6.26,6.26,0,0,1-3.94,1,7,7,0,0,1-1.34-.11,5.94,5.94,0,0,0-.48,1.53q0,.84.51,1.05a12.41,12.41,0,0,0,3.11.21,6.58,6.58,0,0,1,3.72.8c.76.54,1.13,1.59,1.13,3.16Q523.76,320.65,517.76,320.65ZM514,316.42a2.2,2.2,0,0,0,.8,2,5.51,5.51,0,0,0,2.94.55,6,6,0,0,0,3.07-.59,2.17,2.17,0,0,0,.94-2c0-.93-.23-1.52-.68-1.79a5.78,5.78,0,0,0-2.64-.4l-2.92-.14a4.74,4.74,0,0,0-1.2,1.14A2.24,2.24,0,0,0,514,316.42Zm.18-11.26a3,3,0,0,0,.72,2.27,3.46,3.46,0,0,0,2.37.67,3.38,3.38,0,0,0,2.35-.67,4.13,4.13,0,0,0,0-4.57,4.41,4.41,0,0,0-4.72,0A3.08,3.08,0,0,0,514.13,305.16Z"/><path class="cls-6" d="M535.6,312.63l.77-.08.06,1.6a36.59,36.59,0,0,1-5.26.42c-1.95,0-3.32-.56-4.14-1.69a9,9,0,0,1-1.22-5.24q0-7.11,5.65-7.1a5.16,5.16,0,0,1,4.08,1.53,7.08,7.08,0,0,1,1.35,4.79l-.11,1.53h-8.91a5.54,5.54,0,0,0,.81,3.32,3.31,3.31,0,0,0,2.82,1.08C532.84,312.79,534.21,312.74,535.6,312.63Zm-.74-5.85a6,6,0,0,0-.79-3.51,3.08,3.08,0,0,0-2.59-1,3.34,3.34,0,0,0-2.71,1.07,5.48,5.48,0,0,0-.93,3.46Z"/></g></g></g><path id="Path_10363" data-name="Path 10363" class="cls-12" d="M209,194.4v49.3l42.69,24.65,42.69-24.65V194.4l-42.69-24.65Z"/><path id="Path_10364" data-name="Path 10364" class="cls-3" d="M251.67,186.21l-28.36,16.37V219l14.18-8.19v33l14.18,8.17h0V202.58l14.17-8.19Z"/><path id="Path_10365" data-name="Path 10365" class="cls-3" d="M265.92,210.84V243.7l14.24-8.22V202.62Z"/></g></g></g></svg>