<svg xmlns="http://www.w3.org/2000/svg" viewBox="0 0 1018 840.3"><defs><style>.cls-1,.cls-6{fill:#3f3d54;}.cls-1,.cls-4{stroke:#3f3d54;}.cls-1,.cls-12{stroke-width:4px;}.cls-11,.cls-2,.cls-3{fill:#fff;}.cls-11,.cls-12,.cls-2{stroke:#fff;}.cls-2,.cls-4{stroke-width:2px;}.cls-4{fill:none;}.cls-10,.cls-5,.cls-8{isolation:isolate;}.cls-7{fill:#6a67f5;}.cls-10,.cls-8,.cls-9{fill:#ed6f85;}.cls-8{opacity:0.8;}.cls-10{opacity:0.4;}.cls-11{stroke-width:0.5px;}.cls-12{fill:#d1303c;}</style></defs><g id="Layer_2" data-name="Layer 2"><g id="Layer_1-2" data-name="Layer 1"><g id="Group_2379" data-name="Group 2379"><g id="Group_2355" data-name="Group 2355"><g id="Group_2092" data-name="Group 2092"><g id="Group_2059" data-name="Group 2059"><path id="Path_10107" data-name="Path 10107" class="cls-1" d="M502.71,816.48C283.4,816.48,105,638.06,105,418.75S283.4,21,502.71,21,900.44,199.44,900.44,418.75,722,816.48,502.71,816.48Zm0-771.87c-206.3,0-374.13,167.84-374.13,374.14S296.42,792.89,502.71,792.89,876.85,625.05,876.85,418.75,709,44.61,502.71,44.61Z"/><path id="Path_10245" data-name="Path 10245" class="cls-2" d="M484.7,64.64A3.43,3.43,0,0,1,482.08,59l22.36-26.16L482.05,6.67a3.44,3.44,0,0,1,5.23-4.48L513.49,32.8,487.31,63.44A3.46,3.46,0,0,1,484.7,64.64Z"/><path id="Path_10246" data-name="Path 10246" class="cls-2" d="M748,755.22a3.08,3.08,0,0,1-.8-.1L708,745.77l3.19-40.17a3.44,3.44,0,1,1,6.86.45s0,.06,0,.09l-2.71,34.31,33.48,8a3.44,3.44,0,0,1-.8,6.79Z"/><path id="Path_10247" data-name="Path 10247" class="cls-2" d="M260.34,759.24a3.45,3.45,0,0,1-3.43-3.16l-3.22-40.18,39.19-9.39a3.44,3.44,0,0,1,1.6,6.69l-33.47,8,2.76,34.31a3.44,3.44,0,0,1-3.15,3.7A1.32,1.32,0,0,1,260.34,759.24Z"/><g id="Group_2042" data-name="Group 2042"><path id="Path_10344" data-name="Path 10344" class="cls-2" d="M158.94,320.81a3.42,3.42,0,0,1-2.94-1.64l-18-29.35L106.25,303a3.44,3.44,0,0,1-2.76-6.3l.12-.05,37.22-15.48,21,34.37a3.43,3.43,0,0,1-2.92,5.23Z"/></g><path id="Path_10345" data-name="Path 10345" class="cls-2" d="M874.5,316.91l-37.22-15.44a3.44,3.44,0,1,1,2.64-6.35h0L871.7,308.3l17.94-29.37a3.44,3.44,0,1,1,5.88,3.58Z"/></g><g id="Group_2060" data-name="Group 2060"><g id="Rectangle_2567" data-name="Rectangle 2567"><rect class="cls-3" x="168" y="96.3" width="159" height="88"/><rect class="cls-4" x="169" y="97.3" width="157" height="86"/></g><g id="Data" class="cls-5"><g class="cls-5"><path class="cls-6" d="M213.27,157.3H201.16V123.4h12.11q8.28,0,11,6.55a26,26,0,0,1,1.56,9.91q0,12.79-6.37,16.12A13.24,13.24,0,0,1,213.27,157.3Zm8.66-17.44q0-9.77-4.35-12.16a8.83,8.83,0,0,0-4.31-1h-8.33V154h8.33Q221.93,154,221.93,139.86Z"/><path class="cls-6" d="M249.4,140.19v12.56c.09,1.21,1,1.93,2.84,2.16l-.14,2.87q-3.87,0-5.84-1.94a21.23,21.23,0,0,1-8.8,1.94,6.69,6.69,0,0,1-5.15-1.91,7.72,7.72,0,0,1-1.77-5.47c0-2.39.61-4.15,1.81-5.28A9.48,9.48,0,0,1,238,143l7.71-.74v-2.11a4.87,4.87,0,0,0-1.08-3.56,4,4,0,0,0-2.94-1.08,71.93,71.93,0,0,0-8.14.48l-1.53.14-.14-2.77a49.2,49.2,0,0,1,9.56-1.08q4.17,0,6.05,1.9T249.4,140.19Zm-15.08,10q0,4.5,3.71,4.5a20,20,0,0,0,6.58-1.12l1.13-.39V145.1l-7.25.69a4.69,4.69,0,0,0-3.18,1.27A4.47,4.47,0,0,0,234.32,150.19Z"/><path class="cls-6" d="M269.35,136h-7.8V147.7q0,4.22.61,5.53c.41.88,1.39,1.32,2.93,1.32l4.36-.29.24,3a33.85,33.85,0,0,1-5,.55q-3.84,0-5.29-1.87t-1.46-7.1V136h-3.49V132.8h3.49v-7.49h3.61v7.49h7.8Z"/><path class="cls-6" d="M291.12,140.19v12.56q.15,1.81,2.85,2.16l-.14,2.87c-2.59,0-4.53-.65-5.84-1.94a21.26,21.26,0,0,1-8.8,1.94,6.69,6.69,0,0,1-5.15-1.91,7.72,7.72,0,0,1-1.77-5.47q0-3.59,1.81-5.28a9.48,9.48,0,0,1,5.68-2.08l7.7-.74v-2.11a4.92,4.92,0,0,0-1.07-3.56,4,4,0,0,0-2.95-1.08,71.89,71.89,0,0,0-8.13.48l-1.53.14-.15-2.77a49.29,49.29,0,0,1,9.56-1.08c2.79,0,4.8.63,6.06,1.9S291.12,137.48,291.12,140.19Zm-15.07,10q0,4.5,3.71,4.5a20,20,0,0,0,6.58-1.12l1.12-.39V145.1l-7.25.69a4.73,4.73,0,0,0-3.18,1.27A4.52,4.52,0,0,0,276.05,150.19Z"/></g></g></g><g id="Group_2067" data-name="Group 2067"><g id="Rectangle_2567-2" data-name="Rectangle 2567-2"><rect class="cls-3" x="612" y="85.3" width="311" height="86"/><rect class="cls-4" x="613" y="86.3" width="309" height="84"/></g><g id="Information" class="cls-5"><g class="cls-5"><path class="cls-6" d="M649.16,146.3V112.4h3.78v33.9Z"/><path class="cls-6" d="M664.24,146.3h-3.69V121.8h3.64v1.72a15.64,15.64,0,0,1,7.58-2.2q4.9,0,6.61,2.64t1.69,9.39v13h-3.63V133.45q0-5.1-1-7c-.67-1.26-2.09-1.88-4.28-1.88a12.73,12.73,0,0,0-3.31.46,16.94,16.94,0,0,0-2.67.9l-.93.45Z"/><path class="cls-6" d="M691.56,125V146.3h-3.69V125h-3.08V121.8h3.08v-2.2c0-3.46.49-5.83,1.48-7.09s2.7-1.89,5.15-1.89l5,.34,0,3c-1.84-.07-3.35-.1-4.54-.1a2.83,2.83,0,0,0-2.55,1.19c-.51.79-.76,2.31-.76,4.55v2.16h7.11V125Z"/><path class="cls-6" d="M701.54,134q0-6.72,2.4-9.7c1.6-2,4.31-3,8.11-3s6.5,1,8.09,3,2.38,5.22,2.38,9.7-.75,7.73-2.25,9.75-4.24,3-8.23,3-6.73-1-8.24-3S701.54,138.48,701.54,134Zm3.78-.07q0,5.35,1.3,7.51c.87,1.44,2.68,2.15,5.44,2.15s4.57-.71,5.41-2.13,1.27-3.92,1.27-7.51-.48-6.06-1.42-7.42-2.71-2-5.27-2-4.32.68-5.29,2S705.32,130.36,705.32,133.93Z"/><path class="cls-6" d="M728.48,146.3V121.8h3.63v3.32a23.8,23.8,0,0,1,9-3.87V125a25.78,25.78,0,0,0-4.3,1.22,27.65,27.65,0,0,0-3.41,1.48l-1.22.63v18Z"/><path class="cls-6" d="M749.1,146.3h-3.68V121.8h3.63v1.72a13.92,13.92,0,0,1,7.16-2.2q4.54,0,6.36,2.49a17.83,17.83,0,0,1,4.2-1.74,16.52,16.52,0,0,1,4.53-.75q4.91,0,6.6,2.62c1.12,1.75,1.68,4.88,1.68,9.41v13H775.9V133.45q0-5.1-1-7c-.66-1.26-2-1.88-4.17-1.88a12.65,12.65,0,0,0-3.33.46,17.32,17.32,0,0,0-2.65.9l-.91.45c.43,1.09.64,3.47.63,7.16V146.3h-3.67V133.66c0-3.52-.31-5.91-1-7.17s-2-1.89-4.21-1.89a11.58,11.58,0,0,0-3.21.46,15.92,15.92,0,0,0-2.51.9l-.84.45Z"/><path class="cls-6" d="M803.68,129.19v12.56c.09,1.21,1,1.93,2.84,2.16l-.14,2.87q-3.87,0-5.84-1.94a21.23,21.23,0,0,1-8.8,1.94,6.69,6.69,0,0,1-5.15-1.91,7.72,7.72,0,0,1-1.77-5.47q0-3.59,1.81-5.28a9.48,9.48,0,0,1,5.68-2.08l7.71-.74v-2.11a4.87,4.87,0,0,0-1.08-3.56,4,4,0,0,0-2.94-1.08,71.93,71.93,0,0,0-8.14.48l-1.53.14-.14-2.77a49.19,49.19,0,0,1,9.55-1.08q4.18,0,6.06,1.9T803.68,129.19Zm-15.08,10q0,4.5,3.71,4.5a20,20,0,0,0,6.58-1.12l1.13-.39V134.1l-7.25.69a4.74,4.74,0,0,0-3.19,1.27A4.52,4.52,0,0,0,788.6,139.19Z"/><path class="cls-6" d="M823.63,125h-7.8V136.7q0,4.22.61,5.53c.41.88,1.38,1.32,2.93,1.32l4.36-.29.23,3a33.58,33.58,0,0,1-5,.55q-3.83,0-5.28-1.87c-1-1.24-1.46-3.61-1.46-7.1V125h-3.5V121.8h3.5v-7.49h3.61v7.49h7.8Z"/><path class="cls-6" d="M828.1,116.27V112h3.69v4.28Zm0,30V121.8h3.69v24.5Z"/><path class="cls-6" d="M837.75,134q0-6.72,2.4-9.7c1.6-2,4.31-3,8.11-3s6.5,1,8.09,3,2.38,5.22,2.38,9.7-.75,7.73-2.25,9.75-4.24,3-8.23,3-6.74-1-8.24-3S837.75,138.48,837.75,134Zm3.78-.07q0,5.35,1.3,7.51c.87,1.44,2.68,2.15,5.44,2.15s4.56-.71,5.41-2.13S855,137.54,855,134s-.48-6.06-1.42-7.42-2.71-2-5.27-2-4.32.68-5.29,2S841.53,130.36,841.53,133.93Z"/><path class="cls-6" d="M868.37,146.3h-3.68V121.8h3.63v1.72a15.67,15.67,0,0,1,7.59-2.2q4.9,0,6.6,2.64t1.7,9.39v13h-3.64V133.45q0-5.1-1-7c-.67-1.26-2.1-1.88-4.28-1.88a12.81,12.81,0,0,0-3.32.46,17.7,17.7,0,0,0-2.67.9l-.93.45Z"/></g></g></g><g id="Group_2069" data-name="Group 2069"><g id="Rectangle_2568" data-name="Rectangle 2568"><rect class="cls-3" x="382" y="753.3" width="241" height="87"/><rect class="cls-4" x="383" y="754.3" width="239" height="85"/></g><g id="Decision" class="cls-5"><g class="cls-5"><path class="cls-6" d="M429.27,811.3H417.16V777.39h12.11q8.28,0,11,6.56a26,26,0,0,1,1.56,9.91q0,12.79-6.37,16.12A13.24,13.24,0,0,1,429.27,811.3Zm8.66-17.44q0-9.76-4.35-12.16a8.83,8.83,0,0,0-4.31-1h-8.33V808h8.33Q437.93,808,437.93,793.86Z"/><path class="cls-6" d="M464.78,808.26l1.41-.14.09,2.89a67.11,67.11,0,0,1-9.54.77q-5.3,0-7.5-3.07T447,799.19q0-12.9,10.24-12.87,5,0,7.41,2.76t2.45,8.7l-.19,2.77H450.75q0,4.08,1.48,6c1,1.31,2.68,2,5.12,2S462.25,808.45,464.78,808.26Zm-1.34-10.62q0-4.5-1.44-6.37c-1-1.24-2.52-1.87-4.7-1.87a6.06,6.06,0,0,0-4.91,2c-1.09,1.31-1.65,3.4-1.68,6.29Z"/><path class="cls-6" d="M482,786.32a43.53,43.53,0,0,1,5.5.57l1.18.15-.15,3a57.77,57.77,0,0,0-5.79-.43q-4.15,0-5.66,2c-1,1.33-1.49,3.77-1.49,7.35s.47,6.06,1.4,7.46,2.87,2.11,5.8,2.11l5.79-.43.15,3a47.81,47.81,0,0,1-6.82.67q-5.75,0-7.92-2.94t-2.18-9.91q0-7,2.36-9.8T482,786.32Z"/><path class="cls-6" d="M494.18,781.27V777h3.68v4.28Zm0,30V786.8h3.68v24.5Z"/><path class="cls-6" d="M512.6,789.6q-5.33,0-5.33,3.7a2.56,2.56,0,0,0,1.22,2.43,21.18,21.18,0,0,0,5.58,1.48c2.92.51,5,1.22,6.18,2.14s1.8,2.63,1.8,5.14-.8,4.35-2.41,5.53-4,1.76-7.08,1.76a46.14,46.14,0,0,1-7.16-.67l-1.48-.24.21-3.21a61.84,61.84,0,0,0,8.43.84,8.53,8.53,0,0,0,4.34-.91,3.29,3.29,0,0,0,1.49-3,3,3,0,0,0-1.28-2.88,18.76,18.76,0,0,0-5.58-1.45,14.84,14.84,0,0,1-6.13-2q-1.81-1.32-1.82-4.89a5.93,5.93,0,0,1,2.53-5.29,11,11,0,0,1,6.3-1.71,52.12,52.12,0,0,1,7.49.67l1.36.24-.09,3.16A62.62,62.62,0,0,0,512.6,789.6Z"/><path class="cls-6" d="M527.68,781.27V777h3.68v4.28Zm0,30V786.8h3.68v24.5Z"/><path class="cls-6" d="M537.32,799q0-6.72,2.4-9.7t8.11-3c3.81,0,6.5,1,8.09,3s2.38,5.22,2.38,9.7-.75,7.73-2.25,9.75-4.24,3-8.23,3-6.73-1-8.24-3S537.32,803.48,537.32,799Zm3.78-.07q0,5.36,1.3,7.51c.87,1.44,2.69,2.15,5.45,2.15s4.56-.71,5.4-2.13,1.27-3.92,1.27-7.51-.47-6.06-1.42-7.42-2.71-2-5.27-2-4.32.68-5.28,2S541.1,795.35,541.1,798.93Z"/><path class="cls-6" d="M567.94,811.3h-3.68V786.8h3.64v1.72a15.61,15.61,0,0,1,7.58-2.2q4.9,0,6.6,2.64c1.14,1.76,1.7,4.9,1.7,9.39V811.3h-3.63V798.45c0-3.4-.34-5.72-1-7s-2.1-1.87-4.28-1.87a12.87,12.87,0,0,0-3.32.46,17.13,17.13,0,0,0-2.66.9l-.94.45Z"/></g></g></g><g id="Group_2091" data-name="Group 2091"><g id="Rectangle_2569" data-name="Rectangle 2569"><rect class="cls-3" y="513.3" width="203" height="84"/><rect class="cls-4" x="1" y="514.3" width="201" height="82"/></g><g id="Result" class="cls-5"><g class="cls-5"><path class="cls-6" d="M40.94,559.3v13H37.16V538.39H49.7c3.59,0,6.29.84,8.11,2.5s2.73,4.27,2.73,7.79q0,7.85-6.22,9.86l6.51,13.76H56.66l-6.12-13ZM49.75,556q6.91,0,6.91-7.13t-7-7.13H40.94V556Z"/><path class="cls-6" d="M82.93,569.26l1.41-.14.1,2.89a67.23,67.23,0,0,1-9.55.77q-5.28,0-7.5-3.07t-2.21-9.52q0-12.9,10.24-12.87,5,0,7.41,2.76t2.45,8.7l-.19,2.77H68.91q0,4.08,1.47,6t5.12,2C77.94,569.55,80.41,569.45,82.93,569.26Zm-1.34-10.62q0-4.5-1.43-6.37c-1-1.24-2.53-1.87-4.7-1.87a6,6,0,0,0-4.91,2c-1.09,1.31-1.65,3.4-1.69,6.29Z"/><path class="cls-6" d="M98.7,550.6q-5.34,0-5.34,3.7a2.57,2.57,0,0,0,1.23,2.43,21.18,21.18,0,0,0,5.58,1.48q4.36.76,6.17,2.14c1.21.91,1.81,2.63,1.81,5.14s-.8,4.35-2.42,5.53-4,1.76-7.08,1.76a46.13,46.13,0,0,1-7.15-.67L90,571.87l.21-3.21a61.72,61.72,0,0,0,8.42.84,8.48,8.48,0,0,0,4.34-.91,3.28,3.28,0,0,0,1.5-3,3.06,3.06,0,0,0-1.28-2.88,18.85,18.85,0,0,0-5.59-1.45,14.84,14.84,0,0,1-6.12-2q-1.81-1.32-1.82-4.89A5.94,5.94,0,0,1,92.2,549a11,11,0,0,1,6.31-1.71A52.12,52.12,0,0,1,106,548l1.36.24-.09,3.16A62.76,62.76,0,0,0,98.7,550.6Z"/><path class="cls-6" d="M129.06,547.8h3.69v24.5h-3.69v-1.73a14,14,0,0,1-7.25,2.21q-5,0-6.64-2.6t-1.64-9.58V547.8h3.69v12.73c0,3.55.31,5.94.93,7.15s2,1.82,4.21,1.82a12.16,12.16,0,0,0,3.29-.47,15.54,15.54,0,0,0,2.55-.9l.86-.45Z"/><path class="cls-6" d="M140.09,572.3V537.13h3.66V572.3Z"/><path class="cls-6" d="M163.8,551H156V562.7c0,2.81.21,4.65.61,5.53s1.39,1.32,2.93,1.32l4.36-.29.24,3a33.85,33.85,0,0,1-5,.55c-2.56,0-4.32-.63-5.29-1.87s-1.46-3.61-1.46-7.1V551H148.9V547.8h3.49v-7.49H156v7.49h7.8Z"/></g></g></g><g id="Group_2088" data-name="Group 2088"><g id="Group_2072" data-name="Group 2072"><g id="Group_2070" data-name="Group 2070"><g id="Group_1275" data-name="Group 1275"><rect id="Rectangle_2036" data-name="Rectangle 2036" class="cls-6" x="327" y="511.3" width="349" height="105"/><ellipse id="Ellipse_223" data-name="Ellipse 223" class="cls-7" cx="501.5" cy="507.8" rx="174.5" ry="36.5"/><ellipse id="Ellipse_224" data-name="Ellipse 224" class="cls-6" cx="501.5" cy="615.8" rx="174.5" ry="38.5"/><rect id="Rectangle_2036-2" data-name="Rectangle 2036-2" class="cls-6" x="327" y="369.3" width="349" height="109"/><ellipse id="Ellipse_223-2" data-name="Ellipse 223-2" class="cls-7" cx="501.5" cy="372.8" rx="174.5" ry="38.5"/><ellipse id="Ellipse_224-2" data-name="Ellipse 224-2" class="cls-6" cx="501.5" cy="481.3" rx="174.5" ry="39"/><rect id="Rectangle_2036-3" data-name="Rectangle 2036-3" class="cls-6" x="327" y="243.3" width="349" height="104"/><ellipse id="Ellipse_223-3" data-name="Ellipse 223-3" class="cls-7" cx="501.5" cy="238.3" rx="174.5" ry="37"/><ellipse id="Ellipse_224-3" data-name="Ellipse 224-3" class="cls-6" cx="501.5" cy="346.8" rx="174.5" ry="38.5"/></g><g id="Group_1276" data-name="Group 1276"><rect id="Rectangle_2037" data-name="Rectangle 2037" class="cls-8" x="492.38" y="342.91" width="18.66" height="18.66"/><rect id="Rectangle_2038" data-name="Rectangle 2038" class="cls-9" x="519.2" y="342.91" width="18.66" height="18.66"/><rect id="Rectangle_2039" data-name="Rectangle 2039" class="cls-10" x="465.56" y="342.91" width="18.66" height="18.66"/></g><g id="Group_1278" data-name="Group 1278"><rect id="Rectangle_2037-2" data-name="Rectangle 2037-2" class="cls-8" x="492.38" y="611.69" width="18.66" height="18.66"/><rect id="Rectangle_2038-2" data-name="Rectangle 2038-2" class="cls-9" x="519.2" y="611.69" width="18.66" height="18.66"/><rect id="Rectangle_2039-2" data-name="Rectangle 2039-2" class="cls-10" x="465.56" y="611.69" width="18.66" height="18.66"/></g></g></g><g id="Group_2074" data-name="Group 2074"><g id="Group_2073" data-name="Group 2073"><path id="Path_10350" data-name="Path 10350" class="cls-3" d="M501.63,380.68l-16.27,9.38v9.39l8.14-4.7v18.9l8.13,4.69h0V390.06l8.12-4.7Z"/><path id="Path_10351" data-name="Path 10351" class="cls-3" d="M509.75,394.74v18.92l8.13-4.69v-18.9h0Z"/><path id="Path_10352" data-name="Path 10352" class="cls-3" d="M501.69,427.76l-24.46-14.12V385.41l24.46-14.12,24.45,14.12v28.23Zm-23.13-14.88,23.13,13.36,23.13-13.36V386.17l-23.13-13.35-23.13,13.35Z"/><path id="Path_10353" data-name="Path 10353" class="cls-11" d="M501.69,427.76l-24.46-14.12V385.41l24.46-14.12,24.45,14.12v28.23Zm-23.13-14.88,23.13,13.36,23.13-13.36V386.17l-23.13-13.35-23.13,13.35Z"/></g></g></g><g id="Group_2112" data-name="Group 2112"><g id="Rectangle_2567-3" data-name="Rectangle 2567-3"><rect class="cls-3" x="707" y="513.3" width="311" height="86"/><rect class="cls-4" x="708" y="514.3" width="309" height="84"/></g><g id="Knowledge" class="cls-5"><g class="cls-5"><path class="cls-6" d="M754.94,573.3h-3.78V539.4h3.78v15.76l5.58-.19,8.68-15.57h4.31l-9.71,17L774,573.3h-4.45l-9-15-5.63.21Z"/><path class="cls-6" d="M781.93,573.3h-3.68V548.8h3.63v1.72a15.67,15.67,0,0,1,7.59-2.2q4.9,0,6.6,2.64t1.7,9.39V573.3h-3.64V560.45q0-5.1-1-7c-.67-1.26-2.1-1.88-4.28-1.88a12.81,12.81,0,0,0-3.32.46,18.91,18.91,0,0,0-2.67.9l-.93.46Z"/><path class="cls-6" d="M803.46,561q0-6.72,2.41-9.7c1.6-2,4.31-3,8.11-3s6.5,1,8.09,3,2.38,5.22,2.38,9.7-.75,7.73-2.25,9.75-4.24,3-8.23,3-6.74-1-8.24-3S803.46,565.48,803.46,561Zm3.78-.07c0,3.57.44,6.08,1.31,7.51s2.68,2.15,5.44,2.15,4.56-.7,5.41-2.12,1.27-3.93,1.27-7.52-.48-6.06-1.43-7.41-2.7-2-5.26-2-4.32.68-5.29,2S807.24,557.36,807.24,560.93Z"/><path class="cls-6" d="M828.16,548.8h3.68l4.95,21.32h.79l5.82-20.84h3.83l5.83,20.84h.84l4.88-21.32h3.69l-5.84,24.5H850.5l-5.19-19.17-5.19,19.17H834Z"/><path class="cls-6" d="M867.8,573.3V538.13h3.66V573.3Z"/><path class="cls-6" d="M895.48,570.26l1.42-.14L897,573a67.23,67.23,0,0,1-9.55.77q-5.28,0-7.5-3.07t-2.21-9.52q0-12.9,10.24-12.87,4.95,0,7.41,2.76c1.63,1.85,2.45,4.74,2.45,8.7l-.19,2.78H881.46q0,4.07,1.47,6c1,1.3,2.69,2,5.12,2S893,570.45,895.48,570.26Zm-1.34-10.62q0-4.5-1.43-6.37t-4.7-1.86a6,6,0,0,0-4.91,2q-1.64,1.95-1.69,6.28Z"/><path class="cls-6" d="M922.38,538.13V573.3h-3.64v-1.68a14.93,14.93,0,0,1-7.44,2.16,11.16,11.16,0,0,1-3.44-.48,6.76,6.76,0,0,1-2.73-1.77q-2.65-2.65-2.66-9.78t2.38-10.27q2.39-3.16,7.86-3.16a31.82,31.82,0,0,1,6,.62V538.13Zm-12.74,32a6.28,6.28,0,0,0,2.27.34A12.2,12.2,0,0,0,915,570a21.18,21.18,0,0,0,2.72-.89l1-.46v-16.6a30.14,30.14,0,0,0-5.81-.58q-3.73,0-5.21,2.37t-1.47,7.37q0,5.7,1.72,7.66A4.15,4.15,0,0,0,909.64,570.16Z"/><path class="cls-6" d="M938.93,584.81q-5.88,0-8.22-1.59c-1.55-1.07-2.33-3-2.33-5.81a5.48,5.48,0,0,1,.89-3.25,13.81,13.81,0,0,1,3-2.82,3.82,3.82,0,0,1-1.37-3.38,8.45,8.45,0,0,1,1.22-3.08l.43-.79q-3.87-1.77-3.85-7.4,0-8.37,9.17-8.37a18.7,18.7,0,0,1,4.35.48l.74.14,7.25-.19v3.13l-4.66-.09a6.67,6.67,0,0,1,1.62,4.9q0,4.62-2.28,6.45T937.71,565a13.78,13.78,0,0,1-2.41-.19,10.38,10.38,0,0,0-.89,2.78q0,1.5.93,1.89a22.79,22.79,0,0,0,5.64.38q4.69,0,6.76,1.46c1.37,1,2,2.89,2,5.74Q949.82,584.8,938.93,584.81ZM932,577.13c0,1.73.48,2.93,1.45,3.6s2.74,1,5.33,1,4.45-.36,5.59-1.08a3.93,3.93,0,0,0,1.7-3.6c0-1.68-.41-2.77-1.24-3.25s-2.42-.73-4.79-.73l-5.29-.24a8.33,8.33,0,0,0-2.19,2.06A4.17,4.17,0,0,0,932,577.13Zm.33-20.44c0,1.93.44,3.31,1.31,4.12A6.19,6.19,0,0,0,938,562c2,0,3.41-.41,4.26-1.22s1.27-2.19,1.27-4.14-.42-3.33-1.27-4.15-2.27-1.23-4.26-1.23a6.09,6.09,0,0,0-4.29,1.25A5.58,5.58,0,0,0,932.35,556.69Z"/><path class="cls-6" d="M971.3,570.26l1.42-.14.09,2.89a67.22,67.22,0,0,1-9.54.77q-5.29,0-7.51-3.07t-2.21-9.52q0-12.9,10.24-12.87,5,0,7.41,2.76c1.63,1.85,2.45,4.74,2.45,8.7l-.19,2.78H957.28q0,4.07,1.48,6c1,1.3,2.68,2,5.12,2S968.78,570.45,971.3,570.26ZM970,559.64c0-3-.47-5.12-1.43-6.37s-2.53-1.86-4.7-1.86a6.06,6.06,0,0,0-4.91,2q-1.63,1.95-1.68,6.28Z"/></g></g></g><g id="Group_2113" data-name="Group 2113"><path id="Path_10363" data-name="Path 10363" class="cls-12" d="M423.85,354.56v90.12l78,45.06,78-45.06V354.56l-78-45.06Z"/><path id="Path_10364" data-name="Path 10364" class="cls-3" d="M501.85,339.58,450,369.51v29.92l25.92-15v60.25l25.92,14.94h0V369.5l25.91-15Z"/><path id="Path_10365" data-name="Path 10365" class="cls-3" d="M527.91,384.62v60.06l26-15V369.58Z"/></g></g></g></g></g></g></svg>