<svg xmlns="http://www.w3.org/2000/svg" width="838.805" height="815.939" viewBox="0 0 838.805 815.939">
  <g id="Group_2147" data-name="Group 2147" transform="translate(-461 -9994.066)">
    <g id="Group_2082" data-name="Group 2082" transform="translate(461 9994.066)">
      <g id="Rectangle_2558" data-name="Rectangle 2558" transform="translate(20.556 22.718)">
        <g id="Group_2001" data-name="Group 2001">
          <path id="Path_10108" data-name="Path 10108" d="M1418.147,81.725h-1.961V75.516h6.209v1.961h-4.248Z" transform="translate(-1416.186 -75.516)" fill="#3f3d56"/>
          <path id="Path_10109" data-name="Path 10109" d="M2214.194,77.477h-12.463V75.516h12.463Zm-24.924,0h-12.462V75.516h12.462Zm-24.922,0h-12.461V75.516h12.461Zm-24.924,0H2126.96V75.516h12.463Zm-24.926,0h-12.461V75.516H2114.5Zm-24.924,0h-12.46V75.516h12.46Zm-24.921,0H2052.19V75.516h12.463Zm-24.926,0h-12.463V75.516h12.463Zm-24.924,0h-12.459V75.516H2014.8Zm-24.922,0h-12.461V75.516h12.461Zm-24.924,0h-12.463V75.516h12.463Zm-24.924,0h-12.463V75.516h12.463Zm-24.922,0h-12.463V75.516h12.463Zm-24.924,0h-12.463V75.516h12.463Zm-24.925,0H1852.8V75.516h12.462Zm-24.924,0h-12.46V75.516h12.46Zm-24.923,0h-12.461V75.516h12.461Zm-24.924,0h-12.463V75.516h12.463Zm-24.922,0H1753.1V75.516h12.463Zm-24.926,0H1728.18V75.516h12.461Zm-24.922,0h-12.463V75.516h12.463Zm-24.924,0h-12.461V75.516h12.461Zm-24.924,0h-12.461V75.516h12.461Zm-24.922,0h-12.463V75.516h12.463Zm-24.926,0h-12.461V75.516h12.461Zm-24.923,0h-12.463V75.516H1591.1Zm-24.924,0h-12.461V75.516h12.461Zm-24.924,0H1528.79V75.516h12.461Zm-24.924,0h-12.461V75.516h12.461Zm-24.924,0h-12.461V75.516H1491.4Zm-24.923,0h-12.463V75.516h12.463Zm-24.924,0h-12.463V75.516h12.463Z" transform="translate(-1412.52 -75.516)" fill="#3f3d56"/>
          <path id="Path_10110" data-name="Path 10110" d="M1951.938,81.725h-1.961V77.477h-4.248V75.516h6.209Z" transform="translate(-1133.689 -75.516)" fill="#3f3d56"/>
          <path id="Path_10111" data-name="Path 10111" d="M1951,848.528h-1.962V837.183H1951Zm0-22.689h-1.962V814.493H1951Zm0-22.691h-1.962V791.8H1951Zm0-22.691h-1.962V769.111H1951Zm0-22.689h-1.962V746.423H1951Zm0-22.691h-1.962V723.732H1951Zm0-22.69h-1.962V701.042H1951Zm0-22.69h-1.962V678.352H1951Zm0-22.69h-1.962V655.66H1951Zm0-22.691h-1.962V632.97H1951Zm0-22.688h-1.962V610.28H1951Zm0-22.691h-1.962V587.59H1951Zm0-22.691h-1.962V564.9H1951Zm0-22.689h-1.962V542.21H1951Zm0-22.691h-1.962V519.519H1951Zm0-22.69h-1.962V496.829H1951Zm0-22.69h-1.962V474.139H1951Zm0-22.69h-1.962V451.448H1951Zm0-22.691h-1.962V428.759H1951Zm0-22.69h-1.962V406.068H1951Zm0-22.69h-1.962V383.378H1951Zm0-22.691h-1.962V360.688H1951Zm0-22.689h-1.962V338H1951Zm0-22.691h-1.962V315.307H1951Zm0-22.69h-1.962V292.617H1951Zm0-22.69h-1.962V269.927H1951Zm0-22.691h-1.962V247.235H1951Zm0-22.69h-1.962V224.545H1951Zm0-22.69h-1.962V201.855H1951Zm0-22.69h-1.962V179.164H1951Zm0-22.691h-1.962V156.475H1951Zm0-22.69h-1.962V133.784H1951Zm0-22.69h-1.962V111.094H1951Zm0-22.69h-1.962V88.4H1951Z" transform="translate(-1132.75 -71.856)" fill="#3f3d56"/>
          <path id="Path_10112" data-name="Path 10112" d="M1951.938,642.157h-6.209V640.2h4.248v-4.248h1.961Z" transform="translate(-1133.689 151.064)" fill="#3f3d56"/>
          <path id="Path_10113" data-name="Path 10113" d="M2214.194,641.218h-12.463v-1.961h12.463Zm-24.924,0h-12.462v-1.961h12.462Zm-24.922,0h-12.461v-1.961h12.461Zm-24.924,0H2126.96v-1.961h12.463Zm-24.926,0h-12.461v-1.961H2114.5Zm-24.921,0h-12.463v-1.961h12.463Zm-24.924,0H2052.19v-1.961h12.463Zm-24.926,0h-12.463v-1.961h12.463Zm-24.924,0h-12.459v-1.961H2014.8Zm-24.922,0h-12.461v-1.961h12.461Zm-24.924,0h-12.463v-1.961h12.463Zm-24.924,0h-12.463v-1.961h12.463Zm-24.922,0h-12.463v-1.961h12.463Zm-24.924,0h-12.463v-1.961h12.463Zm-24.925,0H1852.8v-1.961h12.462Zm-24.922,0h-12.463v-1.961h12.463Zm-24.926,0h-12.461v-1.961h12.461Zm-24.924,0h-12.461v-1.961h12.461Zm-24.922,0H1753.1v-1.961h12.463Zm-24.924,0H1728.18v-1.961h12.463Zm-24.924,0h-12.463v-1.961h12.463Zm-24.924,0h-12.461v-1.961h12.461Zm-24.924,0h-12.461v-1.961h12.461Zm-24.922,0h-12.463v-1.961h12.463Zm-24.924,0h-12.463v-1.961h12.463Zm-24.924,0h-12.461v-1.961H1591.1Zm-24.924,0h-12.461v-1.961h12.461Zm-24.924,0H1528.79v-1.961h12.461Zm-24.924,0h-12.461v-1.961h12.461Zm-24.922,0h-12.463v-1.961H1491.4Zm-24.924,0h-12.461v-1.961h12.461Zm-24.924,0h-12.463v-1.961h12.463Z" transform="translate(-1412.52 152.004)" fill="#3f3d56"/>
          <path id="Path_10114" data-name="Path 10114" d="M1422.4,642.157h-6.209v-6.209h1.961V640.2h4.248Z" transform="translate(-1416.186 151.064)" fill="#3f3d56"/>
          <path id="Path_10115" data-name="Path 10115" d="M1418.146,848.529h-1.96V837.184h1.96Zm0-22.69h-1.96V814.494h1.96Zm0-22.69h-1.96V791.8h1.96Zm0-22.691h-1.96V769.113h1.96Zm0-22.689h-1.96V746.423h1.96Zm0-22.691h-1.96V723.733h1.96Zm0-22.69h-1.96V701.041h1.96Zm0-22.69h-1.96V678.353h1.96Zm0-22.691h-1.96V655.661h1.96Zm0-22.69h-1.96V632.97h1.96Zm0-22.69h-1.96V610.282h1.96Zm0-22.69h-1.96V587.59h1.96Zm0-22.691h-1.96V564.9h1.96Zm0-22.69h-1.96V542.21h1.96Zm0-22.69h-1.96V519.52h1.96Zm0-22.691h-1.96V496.83h1.96Zm0-22.689h-1.96V474.139h1.96Zm0-22.691h-1.96V451.449h1.96Zm0-22.691h-1.96V428.759h1.96Zm0-22.689h-1.96V406.069h1.96Zm0-22.691h-1.96V383.378h1.96Zm0-22.69h-1.96V360.688h1.96Zm0-22.69h-1.96V338h1.96Zm0-22.69h-1.96V315.306h1.96Zm0-22.691h-1.96V292.618h1.96Zm0-22.69h-1.96V269.926h1.96Zm0-22.69h-1.96V247.236h1.96Zm0-22.691h-1.96V224.547h1.96Zm0-22.689h-1.96V201.855h1.96Zm0-22.691h-1.96V179.165h1.96Zm0-22.69h-1.96V156.475h1.96Zm0-22.69h-1.96V133.785h1.96Zm0-22.691h-1.96V111.094h1.96Zm0-22.689h-1.96V88.4h1.96Z" transform="translate(-1416.186 -71.856)" fill="#3f3d56"/>
        </g>
        <g id="Group_2002" data-name="Group 2002" transform="translate(0.62 0.619)">
          <path id="Path_10116" data-name="Path 10116" d="M1418.63,82.207h-1.961V76h6.209v1.961h-4.248Z" transform="translate(-1416.669 -75.998)" fill="#3f3d56"/>
          <path id="Path_10117" data-name="Path 10117" d="M2213.458,77.959h-12.442V76h12.442Zm-24.884,0h-12.445V76h12.445Zm-24.885,0h-12.442V76h12.442Zm-24.887,0H2126.36V76H2138.8Zm-24.885,0h-12.442V76h12.442Zm-24.884,0h-12.445V76h12.445Zm-24.887,0h-12.44V76h12.44Zm-24.885,0h-12.442V76h12.442Zm-24.887,0h-12.442V76h12.442Zm-24.883,0h-12.445V76h12.445Zm-24.887,0h-12.445V76H1964.6Zm-24.886,0h-12.441V76h12.441Zm-24.886,0h-12.442V76h12.442Zm-24.887,0H1877.5V76h12.442Zm-24.882,0h-12.445V76h12.445Zm-24.887,0h-12.442V76h12.442Zm-24.888,0h-12.44V76h12.44Zm-24.885,0H1777.96V76H1790.4Zm-24.885,0h-12.442V76h12.442Zm-24.884,0h-12.444V76h12.444Zm-24.887,0H1703.3V76h12.442Zm-24.885,0h-12.442V76h12.442Zm-24.886,0h-12.442V76h12.442Zm-24.886,0h-12.443V76h12.443Zm-24.885,0h-12.442V76H1616.2Zm-24.885,0h-12.444V76h12.444Zm-24.887,0h-12.44V76h12.44Zm-24.884,0H1529.1V76h12.444Zm-24.887,0h-12.442V76h12.442Zm-24.884,0h-12.444V76h12.444Zm-24.887,0h-12.442V76h12.442Zm-24.884,0h-12.443V76h12.443Z" transform="translate(-1413.007 -75.998)" fill="#3f3d56"/>
          <path id="Path_10118" data-name="Path 10118" d="M1951.455,82.207h-1.961V77.959h-4.248V76h6.209Z" transform="translate(-1134.447 -75.998)" fill="#3f3d56"/>
          <path id="Path_10119" data-name="Path 10119" d="M1950.515,847.794h-1.961V836.466h1.961Zm0-22.654h-1.961V813.812h1.961Zm0-22.655h-1.961V791.157h1.961Zm0-22.654h-1.961V768.5h1.961Zm0-22.653h-1.961V745.849h1.961Zm0-22.655h-1.961V723.195h1.961Zm0-22.654h-1.961V700.541h1.961Zm0-22.656h-1.961V677.886h1.961Zm0-22.654h-1.961V655.232h1.961Zm0-22.653h-1.961V632.578h1.961Zm0-22.655h-1.961V609.924h1.961Zm0-22.654h-1.961V587.268h1.961Zm0-22.655h-1.961V564.614h1.961Zm0-22.654h-1.961V541.96h1.961Zm0-22.655h-1.961V519.306h1.961Zm0-22.653h-1.961V496.652h1.961Zm0-22.654h-1.961V474h1.961Zm0-22.655h-1.961V451.343h1.961Zm0-22.654h-1.961V428.689h1.961Zm0-22.655h-1.961V406.033h1.961Zm0-22.653h-1.961V383.381h1.961Zm0-22.655h-1.961V360.725h1.961Zm0-22.654h-1.961V338.071h1.961Zm0-22.654h-1.961V315.416h1.961Zm0-22.655h-1.961V292.762h1.961Zm0-22.654h-1.961V270.109h1.961Zm0-22.654h-1.961V247.454h1.961Zm0-22.654h-1.961V224.8h1.961Zm0-22.655h-1.961V202.144h1.961Zm0-22.654h-1.961V179.49h1.961Zm0-22.654h-1.961V156.835h1.961Zm0-22.654h-1.961V134.182h1.961Zm0-22.654h-1.961V111.527h1.961Zm0-22.655h-1.961V88.873h1.961Z" transform="translate(-1133.507 -72.341)" fill="#3f3d56"/>
          <path id="Path_10120" data-name="Path 10120" d="M1951.455,641.674h-6.209v-1.961h4.248v-4.248h1.961Z" transform="translate(-1134.447 150.308)" fill="#3f3d56"/>
          <path id="Path_10121" data-name="Path 10121" d="M2213.459,640.734h-12.442v-1.961h12.442Zm-24.887,0h-12.443v-1.961h12.443Zm-24.885,0h-12.442v-1.961h12.442Zm-24.884,0h-12.445v-1.961H2138.8Zm-24.885,0h-12.442v-1.961h12.442Zm-24.887,0h-12.442v-1.961h12.442Zm-24.887,0H2051.7v-1.961h12.44Zm-24.883,0h-12.445v-1.961h12.445Zm-24.887,0h-12.442v-1.961h12.442Zm-24.885,0h-12.442v-1.961h12.442Zm-24.887,0h-12.442v-1.961H1964.6Zm-24.884,0h-12.444v-1.961h12.444Zm-24.886,0H1902.39v-1.961h12.442Zm-24.887,0H1877.5v-1.961h12.442Zm-24.885,0h-12.443v-1.961h12.443Zm-24.884,0H1827.73v-1.961h12.445Zm-24.887,0h-12.441v-1.961h12.441Zm-24.885,0H1777.96v-1.961H1790.4Zm-24.885,0h-12.443v-1.961h12.443Zm-24.885,0h-12.444v-1.961h12.444Zm-24.885,0H1703.3v-1.961h12.444Zm-24.887,0h-12.442v-1.961h12.442Zm-24.884,0h-12.444v-1.961h12.444Zm-24.887,0h-12.444v-1.961h12.444Zm-24.884,0H1603.76v-1.961H1616.2Zm-24.887,0h-12.444v-1.961h12.444Zm-24.887,0H1553.99v-1.961h12.441Zm-24.884,0H1529.1v-1.961h12.443Zm-24.887,0h-12.44v-1.961h12.44Zm-24.884,0h-12.443v-1.961h12.443Zm-24.887,0h-12.442v-1.961h12.442Zm-24.884,0h-12.443v-1.961H1442Z" transform="translate(-1413.008 151.248)" fill="#3f3d56"/>
          <path id="Path_10122" data-name="Path 10122" d="M1422.878,641.674h-6.209v-6.209h1.961v4.248h4.248Z" transform="translate(-1416.669 150.308)" fill="#3f3d56"/>
          <path id="Path_10123" data-name="Path 10123" d="M1418.63,847.794h-1.961V836.466h1.961Zm0-22.654h-1.961V813.811h1.961Zm0-22.655h-1.961V791.157h1.961Zm0-22.654h-1.961V768.5h1.961Zm0-22.654h-1.961V745.849h1.961Zm0-22.654h-1.961V723.195h1.961Zm0-22.655h-1.961V700.54h1.961Zm0-22.654h-1.961V677.886h1.961Zm0-22.655h-1.961V655.23h1.961Zm0-22.653h-1.961V632.578h1.961Zm0-22.654h-1.961V609.922h1.961Zm0-22.655h-1.961V587.268h1.961Zm0-22.654h-1.961V564.614h1.961Zm0-22.655h-1.961V541.959h1.961Zm0-22.654h-1.961V519.306h1.961Zm0-22.654h-1.961V496.651h1.961Zm0-22.654h-1.961V474h1.961Zm0-22.654h-1.961V451.341h1.961Zm0-22.655h-1.961V428.687h1.961Zm0-22.654h-1.961V406.033h1.961Zm0-22.654h-1.961V383.379h1.961Zm0-22.654h-1.961V360.725h1.961Zm0-22.654h-1.961V338.07h1.961Zm0-22.655h-1.961V315.416h1.961Zm0-22.654h-1.961V292.762h1.961Zm0-22.655h-1.961V270.108h1.961Zm0-22.653h-1.961V247.454h1.961Zm0-22.654h-1.961V224.8h1.961Zm0-22.655h-1.961V202.144h1.961Zm0-22.654h-1.961V179.489h1.961Zm0-22.655h-1.961V156.835h1.961Zm0-22.653h-1.961V134.182h1.961Zm0-22.655h-1.961V111.527h1.961Zm0-22.654h-1.961V88.873h1.961Z" transform="translate(-1416.669 -72.341)" fill="#3f3d56"/>
        </g>
      </g>
      <g id="Rectangle_2558-2" data-name="Rectangle 2558">
        <g id="Group_2023" data-name="Group 2023">
          <rect id="Rectangle_2565" data-name="Rectangle 2565" width="816.287" height="791.261" transform="translate(0.98 0.98)" fill="#fff"/>
          <path id="Path_10258" data-name="Path 10258" d="M2203.75,836.37H1385.5V43.149H2203.75Zm-815.908-2.143h813.57V45.292h-813.57Z" transform="translate(-1385.503 -43.149)" fill="#3f3d56"/>
        </g>
        <g id="Group_2024" data-name="Group 2024" transform="translate(0.62 0.619)">
          <rect id="Rectangle_2566" data-name="Rectangle 2566" width="815.047" height="790.021" transform="translate(0.98 0.981)" fill="#fff"/>
          <path id="Path_10259" data-name="Path 10259" d="M2202.992,835.613H1385.986V43.631h817.006Zm-814.667-2.143h812.328V45.774H1388.325Z" transform="translate(-1385.986 -43.631)" fill="#3f3d56"/>
        </g>
      </g>
    </g>
    <g id="Financial_Trading" data-name="Financial Trading" transform="translate(595 10200.611)">
      <g id="Group_2026" data-name="Group 2026">
        <g id="Group_2025" data-name="Group 2025" style="isolation: isolate">
          <path id="Path_10260" data-name="Path 10260" d="M1457.857,221.274V200.449h12.463v2.044h-10.142v8.127h8.569v2.042h-8.569v8.612Z" transform="translate(-1457.857 -199.671)" fill="#3f3d56"/>
          <path id="Path_10261" data-name="Path 10261" d="M1467.755,202.92v-2.632h2.262v2.632Zm0,18.445V206.315h2.262v15.049Z" transform="translate(-1452.324 -199.761)" fill="#3f3d56"/>
          <path id="Path_10262" data-name="Path 10262" d="M1474.242,219.309h-2.264V204.26h2.234v1.06a9.621,9.621,0,0,1,4.658-1.355q3.015,0,4.057,1.625t1.043,5.768v7.951h-2.233v-7.892a10.151,10.151,0,0,0-.617-4.284q-.62-1.153-2.632-1.154a7.942,7.942,0,0,0-2.036.285,10.823,10.823,0,0,0-1.637.552l-.574.279Z" transform="translate(-1449.963 -197.705)" fill="#3f3d56"/>
          <path id="Path_10263" data-name="Path 10263" d="M1493.306,208.8v7.716q.086,1.115,1.749,1.324l-.089,1.763a4.905,4.905,0,0,1-3.586-1.191,13.031,13.031,0,0,1-5.408,1.191,4.112,4.112,0,0,1-3.16-1.169,4.762,4.762,0,0,1-1.087-3.366,4.258,4.258,0,0,1,1.109-3.24,5.842,5.842,0,0,1,3.491-1.28l4.733-.455V208.8a3.015,3.015,0,0,0-.661-2.189,2.449,2.449,0,0,0-1.809-.664,44.523,44.523,0,0,0-5,.295l-.94.09-.089-1.706a30.2,30.2,0,0,1,5.872-.663,4.185,4.185,0,0,1,4.872,4.836Zm-9.259,6.143q0,2.764,2.278,2.763a12.279,12.279,0,0,0,4.043-.691l.69-.232v-4.97l-4.453.429a2.886,2.886,0,0,0-1.956.778A2.766,2.766,0,0,0,1484.047,214.944Z" transform="translate(-1444.514 -197.705)" fill="#3f3d56"/>
          <path id="Path_10264" data-name="Path 10264" d="M1494.273,219.309h-2.262V204.26h2.233v1.06a9.627,9.627,0,0,1,4.66-1.355q3.012,0,4.057,1.625t1.043,5.768v7.951h-2.234v-7.892a10.159,10.159,0,0,0-.616-4.284q-.62-1.153-2.633-1.154a7.93,7.93,0,0,0-2.035.285,10.916,10.916,0,0,0-1.639.552l-.574.279Z" transform="translate(-1438.764 -197.705)" fill="#3f3d56"/>
          <path id="Path_10265" data-name="Path 10265" d="M1508.224,203.965a26.567,26.567,0,0,1,3.38.352l.722.09-.089,1.835q-2.411-.264-3.558-.263-2.554,0-3.475,1.219t-.918,4.513q0,3.29.861,4.584t3.563,1.294l3.558-.265.089,1.866a28.441,28.441,0,0,1-4.189.413q-3.529,0-4.864-1.8t-1.338-6.091q0-4.294,1.447-6.021T1508.224,203.965Z" transform="translate(-1433.2 -197.705)" fill="#3f3d56"/>
          <path id="Path_10266" data-name="Path 10266" d="M1510.779,202.92v-2.632h2.262v2.632Zm0,18.445V206.315h2.262v15.049Z" transform="translate(-1428.272 -199.761)" fill="#3f3d56"/>
          <path id="Path_10267" data-name="Path 10267" d="M1525.969,208.8v7.716q.089,1.115,1.751,1.324l-.089,1.763a4.909,4.909,0,0,1-3.587-1.191,13.022,13.022,0,0,1-5.407,1.191,4.111,4.111,0,0,1-3.16-1.169,4.754,4.754,0,0,1-1.087-3.366,4.251,4.251,0,0,1,1.108-3.24,5.836,5.836,0,0,1,3.489-1.28l4.735-.455V208.8a3.009,3.009,0,0,0-.662-2.189,2.443,2.443,0,0,0-1.807-.664,44.5,44.5,0,0,0-5,.295l-.941.09-.088-1.706a30.18,30.18,0,0,1,5.872-.663,4.183,4.183,0,0,1,4.87,4.836Zm-9.258,6.143q0,2.764,2.276,2.763a12.278,12.278,0,0,0,4.043-.691l.692-.232v-4.97l-4.454.429a2.882,2.882,0,0,0-1.955.778A2.758,2.758,0,0,0,1516.711,214.944Z" transform="translate(-1426.254 -197.705)" fill="#3f3d56"/>
          <path id="Path_10268" data-name="Path 10268" d="M1524.8,221.553v-21.6h2.248v21.6Z" transform="translate(-1420.435 -199.95)" fill="#3f3d56"/>
          <path id="Path_10269" data-name="Path 10269" d="M1532.244,202.521v-2.072h15.051v2.072h-6.364v18.754h-2.279V202.521Z" transform="translate(-1416.273 -199.671)" fill="#3f3d56"/>
          <path id="Path_10270" data-name="Path 10270" d="M1541.869,219.325V204.275h2.233v2.042a14.593,14.593,0,0,1,5.513-2.381v2.293a15.646,15.646,0,0,0-2.638.75,16.639,16.639,0,0,0-2.095.909l-.75.385v11.05Z" transform="translate(-1410.892 -197.721)" fill="#3f3d56"/>
          <path id="Path_10271" data-name="Path 10271" d="M1559.51,208.8v7.716q.088,1.115,1.749,1.324l-.087,1.763a4.906,4.906,0,0,1-3.587-1.191,13.024,13.024,0,0,1-5.408,1.191,4.114,4.114,0,0,1-3.16-1.169,4.762,4.762,0,0,1-1.086-3.366,4.257,4.257,0,0,1,1.108-3.24,5.842,5.842,0,0,1,3.491-1.28l4.733-.455V208.8a3.013,3.013,0,0,0-.661-2.189,2.445,2.445,0,0,0-1.808-.664,44.551,44.551,0,0,0-5,.295l-.94.09-.089-1.706a30.19,30.19,0,0,1,5.871-.663,4.185,4.185,0,0,1,4.872,4.836Zm-9.258,6.143q0,2.764,2.276,2.763a12.275,12.275,0,0,0,4.042-.691l.691-.232v-4.97l-4.452.429a2.886,2.886,0,0,0-1.957.778A2.766,2.766,0,0,0,1550.253,214.944Z" transform="translate(-1407.504 -197.705)" fill="#3f3d56"/>
          <path id="Path_10272" data-name="Path 10272" d="M1570.018,199.95v21.6h-2.234v-1.029a9.174,9.174,0,0,1-4.571,1.324,6.869,6.869,0,0,1-2.109-.295,4.152,4.152,0,0,1-1.682-1.088q-1.632-1.632-1.631-6t1.462-6.313q1.461-1.939,4.827-1.939a19.153,19.153,0,0,1,3.7.384V199.95Zm-7.826,19.678a3.967,3.967,0,0,0,1.4.206,7.564,7.564,0,0,0,1.924-.285,12.5,12.5,0,0,0,1.668-.552l.6-.279v-10.2a18.315,18.315,0,0,0-3.572-.354,3.463,3.463,0,0,0-3.2,1.455,8.84,8.84,0,0,0-.9,4.529q0,3.5,1.058,4.7A2.563,2.563,0,0,0,1562.192,219.628Z" transform="translate(-1401.991 -199.95)" fill="#3f3d56"/>
          <path id="Path_10273" data-name="Path 10273" d="M1568.424,202.92v-2.632h2.264v2.632Zm0,18.445V206.315h2.264v15.049Z" transform="translate(-1396.047 -199.761)" fill="#3f3d56"/>
          <path id="Path_10274" data-name="Path 10274" d="M1574.911,219.309h-2.264V204.26h2.234v1.06a9.623,9.623,0,0,1,4.66-1.355q3.012,0,4.055,1.625t1.043,5.768v7.951h-2.233v-7.892a10.128,10.128,0,0,0-.617-4.284q-.618-1.153-2.632-1.154a7.922,7.922,0,0,0-2.035.285,10.791,10.791,0,0,0-1.638.552l-.574.279Z" transform="translate(-1393.686 -197.705)" fill="#3f3d56"/>
          <path id="Path_10275" data-name="Path 10275" d="M1589.065,226.376q-3.616,0-5.048-.976t-1.434-3.564a3.371,3.371,0,0,1,.544-2,8.636,8.636,0,0,1,1.836-1.735,2.334,2.334,0,0,1-.837-2.072,5.186,5.186,0,0,1,.75-1.9l.265-.483q-2.381-1.087-2.367-4.541,0-5.143,5.628-5.145a11.5,11.5,0,0,1,2.675.295l.457.089,4.453-.117v1.924l-2.866-.058a4.093,4.093,0,0,1,1,3.012q0,2.837-1.4,3.958a7,7,0,0,1-4.4,1.126,8.6,8.6,0,0,1-1.486-.117,6.409,6.409,0,0,0-.542,1.7c0,.617.192,1.006.572,1.163a13.879,13.879,0,0,0,3.461.235,7.354,7.354,0,0,1,4.153.9q1.263.9,1.265,3.527Q1595.752,226.378,1589.065,226.376Zm-4.248-4.715a2.5,2.5,0,0,0,.89,2.211,6.217,6.217,0,0,0,3.277.611,6.654,6.654,0,0,0,3.432-.664,2.412,2.412,0,0,0,1.043-2.211c0-1.035-.253-1.7-.756-2a6.52,6.52,0,0,0-2.948-.446l-3.246-.15a5.242,5.242,0,0,0-1.345,1.264A2.529,2.529,0,0,0,1584.817,221.661Zm.206-12.552a3.343,3.343,0,0,0,.8,2.527,3.8,3.8,0,0,0,2.638.75,3.712,3.712,0,0,0,2.616-.75,4.557,4.557,0,0,0,0-5.093,4.9,4.9,0,0,0-5.254.016A3.425,3.425,0,0,0,1585.023,209.11Z" transform="translate(-1388.132 -197.705)" fill="#3f3d56"/>
        </g>
      </g>
    </g>
    <g id="Group_26" data-name="Group 26" transform="translate(646 10062.947)">
      <rect id="Rectangle_9" data-name="Rectangle 9" width="58.693" height="27.089" transform="translate(25.583 23.113)" fill="#6c63ff"/>
      <g id="refund">
        <path id="Path_247" data-name="Path 247" d="M1543.366,105.692a50.077,50.077,0,0,0-49.985,49.987,39.311,39.311,0,0,0,.176,4.559l3.508-.349a33.676,33.676,0,0,1-.176-4.214,46.479,46.479,0,1,1,48.231,46.484l3.859-3.859-2.456-2.462-8.244,8.244,8.244,8.243,2.456-2.457-4.213-4.212a50,50,0,0,0-1.4-99.963Z" transform="translate(-1488.119 -105.692)" fill="#3f3d56"/>
        <path id="Path_248" data-name="Path 248" d="M1568.894,119.192h-63.141v31.57H1568.9Zm-3.508,28.063h-56.125V122.7h56.125Z" transform="translate(-1481.198 -98.145)" fill="#3f3d56"/>
        <path id="Path_249" data-name="Path 249" d="M1528.519,138.848a7.016,7.016,0,1,0-7.017-7.016A7.016,7.016,0,0,0,1528.519,138.848Zm0-10.523a3.508,3.508,0,1,1-3.51,3.508h0a3.518,3.518,0,0,1,3.51-3.508Z" transform="translate(-1472.394 -95.001)" fill="#3f3d56"/>
        <path id="Path_250" data-name="Path 250" d="M1513.76,127.2h3.508v-3.508h-7.014v7.016h3.508Z" transform="translate(-1478.682 -95.63)" fill="#3f3d56"/>
        <path id="Path_251" data-name="Path 251" d="M1517.268,133.95h-3.508v-3.508h-3.507v7.017h7.016Z" transform="translate(-1478.682 -91.856)" fill="#3f3d56"/>
        <path id="Path_252" data-name="Path 252" d="M1544.269,130.442h-3.51v3.508h-3.506v3.509h7.017Z" transform="translate(-1463.589 -91.856)" fill="#3f3d56"/>
        <path id="Path_253" data-name="Path 253" d="M1540.759,130.708h3.51v-7.016h-7.016V127.2h3.508Z" transform="translate(-1463.589 -95.63)" fill="#3f3d56"/>
        <path id="Path_254" data-name="Path 254" d="M1515.878,128.192h5.268V131.7h-5.268Z" transform="translate(-1475.538 -93.114)" fill="#3f3d56"/>
        <path id="Path_255" data-name="Path 255" d="M1532.754,128.192h5.268V131.7h-5.268Z" transform="translate(-1466.104 -93.114)" fill="#3f3d56"/>
        <path id="Path_256" data-name="Path 256" d="M1496.754,154.067h3.506v5.268h-3.506Z" transform="translate(-1486.229 -78.649)" fill="#3f3d56"/>
        <path id="Path_257" data-name="Path 257" d="M1577.7,156.8a6.589,6.589,0,0,0-6.49-6.489,5.927,5.927,0,0,0-1.752.175l-21.22,6.138c-.176,0-.527.176-.7,0l-4.912-.878a7.154,7.154,0,0,0,2.807-9.47,6.884,6.884,0,0,0-6.14-3.684h-22.1a4.933,4.933,0,0,0-2.632.7l-3.508,2.279v-2.63H1490V172.76h21.045v-4.386l17.365,7.192a4.868,4.868,0,0,0,3.508.176l41.043-12.8A6.221,6.221,0,0,0,1577.7,156.8Zm-70.158,12.453h-14.029v-22.8h7.016v10.523h3.508V146.452h3.508Zm23.5,3.16a1.487,1.487,0,0,1-1.225,0l-18.768-7.892V149.608l5.268-2.981a1.3,1.3,0,0,1,.878-.176h21.917a3.508,3.508,0,1,1,.017,7.016h-12.3v1.754l-.351,1.752,20.167,3.332a5.02,5.02,0,0,0,2.28-.176l21.22-6.138a2.993,2.993,0,0,1,3.679,2.092l0,.014a2.892,2.892,0,0,1-1.833,3.654l-.1.03Z" transform="translate(-1490.003 -85.064)" fill="#3f3d56"/>
      </g>
    </g>
    <g id="E-Commerce" transform="translate(618 10448.936)">
      <g id="Group_2028" data-name="Group 2028">
        <g id="Group_2027" data-name="Group 2027" style="isolation: isolate">
          <path id="Path_10276" data-name="Path 10276" d="M1472.336,384.412V363.588H1485v2.042h-10.347v7.2h8.539v2.014h-8.539v7.524H1485v2.042Z" transform="translate(-1472.336 -363.278)" fill="#3f3d56"/>
          <path id="Path_10277" data-name="Path 10277" d="M1482.272,373.059v-2.1h9.127v2.1Z" transform="translate(-1466.782 -359.158)" fill="#3f3d56"/>
          <path id="Path_10278" data-name="Path 10278" d="M1503.918,384.186a28.207,28.207,0,0,1-5.571.631,9.969,9.969,0,0,1-3.991-.675,5,5,0,0,1-2.343-2.1,9.822,9.822,0,0,1-1.14-3.277,28.285,28.285,0,0,1-.316-4.626,28.785,28.785,0,0,1,.316-4.649,10.051,10.051,0,0,1,1.14-3.33,4.879,4.879,0,0,1,2.329-2.108,9.854,9.854,0,0,1,3.916-.663,29.013,29.013,0,0,1,5.659.663l-.087,1.953a30.112,30.112,0,0,0-5.424-.527q-3.309,0-4.373,1.968t-1.066,6.718a30.161,30.161,0,0,0,.193,3.829,8.251,8.251,0,0,0,.764,2.607,3.37,3.37,0,0,0,1.675,1.656,8.253,8.253,0,0,0,3.218.49,27.635,27.635,0,0,0,5.014-.542Z" transform="translate(-1462.15 -363.389)" fill="#3f3d56"/>
          <path id="Path_10279" data-name="Path 10279" d="M1500.692,374.893q0-4.13,1.477-5.959t4.984-1.832q3.5,0,4.965,1.832t1.464,5.959q0,4.127-1.381,5.988t-5.056,1.86q-3.676,0-5.064-1.86T1500.692,374.893Zm2.322-.044a9.537,9.537,0,0,0,.8,4.616q.8,1.319,3.344,1.321t3.321-1.31a9.691,9.691,0,0,0,.78-4.612c0-2.208-.292-3.723-.873-4.557a3.689,3.689,0,0,0-3.233-1.249,3.73,3.73,0,0,0-3.249,1.249Q1503.012,371.559,1503.013,374.85Z" transform="translate(-1456.484 -361.313)" fill="#3f3d56"/>
          <path id="Path_10280" data-name="Path 10280" d="M1513.569,382.447h-2.262V367.4h2.232v1.06a8.565,8.565,0,0,1,4.4-1.355q2.792,0,3.91,1.528a11.1,11.1,0,0,1,2.58-1.063,10,10,0,0,1,2.783-.465q3.015,0,4.05,1.612t1.035,5.781v7.951h-2.263v-7.892a10.373,10.373,0,0,0-.6-4.284,2.615,2.615,0,0,0-2.559-1.154,7.863,7.863,0,0,0-2.049.285,11.217,11.217,0,0,0-1.624.552l-.558.279a14.79,14.79,0,0,1,.382,4.4v7.817h-2.25v-7.759a11.066,11.066,0,0,0-.588-4.41q-.587-1.158-2.587-1.16a7.193,7.193,0,0,0-1.968.285,10.233,10.233,0,0,0-1.545.552l-.515.279Z" transform="translate(-1450.55 -361.313)" fill="#3f3d56"/>
          <path id="Path_10281" data-name="Path 10281" d="M1529.709,382.447h-2.264V367.4h2.234v1.06a8.558,8.558,0,0,1,4.393-1.355q2.792,0,3.911,1.528a11.065,11.065,0,0,1,2.579-1.063,10.009,10.009,0,0,1,2.784-.465q3.012,0,4.049,1.612t1.035,5.781v7.951h-2.262v-7.892a10.336,10.336,0,0,0-.6-4.284,2.61,2.61,0,0,0-2.557-1.154,7.854,7.854,0,0,0-2.048.285,11.084,11.084,0,0,0-1.625.552l-.558.279a14.812,14.812,0,0,1,.381,4.4v7.817h-2.248v-7.759a11.081,11.081,0,0,0-.588-4.41q-.589-1.158-2.586-1.16a7.2,7.2,0,0,0-1.969.285,10.222,10.222,0,0,0-1.543.552l-.514.279Z" transform="translate(-1441.529 -361.313)" fill="#3f3d56"/>
          <path id="Path_10282" data-name="Path 10282" d="M1554.064,380.581l.867-.089.06,1.779a41.183,41.183,0,0,1-5.864.471q-3.248,0-4.609-1.882t-1.359-5.849q0-7.923,6.29-7.907a5.772,5.772,0,0,1,4.549,1.7q1.506,1.7,1.506,5.341l-.119,1.7h-9.934a6.163,6.163,0,0,0,.9,3.7,3.691,3.691,0,0,0,3.145,1.207Q1551.744,380.759,1554.064,380.581Zm-.823-6.525a6.577,6.577,0,0,0-.881-3.908,3.409,3.409,0,0,0-2.887-1.147,3.718,3.718,0,0,0-3.014,1.2,6.086,6.086,0,0,0-1.037,3.86Z" transform="translate(-1432.744 -361.313)" fill="#3f3d56"/>
          <path id="Path_10283" data-name="Path 10283" d="M1553.332,382.463V367.413h2.233v2.042a14.642,14.642,0,0,1,5.513-2.381v2.295a15.415,15.415,0,0,0-2.64.75,16.559,16.559,0,0,0-2.094.907l-.75.385v11.05Z" transform="translate(-1427.057 -361.328)" fill="#3f3d56"/>
          <path id="Path_10284" data-name="Path 10284" d="M1565.671,367.1a26.663,26.663,0,0,1,3.381.354l.72.089-.089,1.835q-2.411-.264-3.556-.263-2.556,0-3.475,1.219t-.92,4.513q0,3.293.861,4.585t3.564,1.292l3.556-.263.089,1.866a28.4,28.4,0,0,1-4.187.412q-3.529,0-4.866-1.8t-1.338-6.091q0-4.291,1.448-6.021T1565.671,367.1Z" transform="translate(-1423.658 -361.313)" fill="#3f3d56"/>
          <path id="Path_10285" data-name="Path 10285" d="M1578.594,380.581l.865-.089.059,1.779a41.164,41.164,0,0,1-5.864.471q-3.248,0-4.608-1.882t-1.358-5.849q0-7.923,6.289-7.907a5.769,5.769,0,0,1,4.549,1.7q1.506,1.7,1.506,5.341l-.117,1.7h-9.936a6.163,6.163,0,0,0,.906,3.7,3.687,3.687,0,0,0,3.145,1.207Q1576.271,380.759,1578.594,380.581Zm-.823-6.525a6.563,6.563,0,0,0-.882-3.908A3.408,3.408,0,0,0,1574,369a3.72,3.72,0,0,0-3.014,1.2,6.1,6.1,0,0,0-1.037,3.86Z" transform="translate(-1419.031 -361.313)" fill="#3f3d56"/>
        </g>
      </g>
    </g>
    <g id="Group_28" data-name="Group 28" transform="translate(654 10311.654)">
      <path id="Path_272" data-name="Path 272" d="M1520.7,271.883h28.2l11.548,10.986,1.026,24.617v12.854l-2.656,2.591h-38.031l-1.978-2.591V274.215Z" transform="translate(-1481.422 -270.132)" fill="#6c63ff"/>
      <g id="Computer-Accounting-File-Calculator-Financial">
        <path id="Path_258" data-name="Path 258" d="M1577.6,285.809h-1.5V284.3a1.5,1.5,0,0,0-.441-1.063l-12.04-12.039a1.5,1.5,0,0,0-1.063-.441h-27.09a4.515,4.515,0,0,0-4.515,4.515v10.534h-6.019V275.275a4.514,4.514,0,0,0-4.515-4.515h-21.069a4.514,4.514,0,0,0-4.515,4.515v33.107a4.514,4.514,0,0,0,4.515,4.515h10.535v22.575A7.535,7.535,0,0,0,1517.4,343h17.859l-1.129,9.028h-1.68a4.515,4.515,0,1,0,0,9.03h30.1a4.515,4.515,0,0,0,0-9.03h-1.681L1559.742,343H1577.6a7.535,7.535,0,0,0,7.524-7.525V293.333A7.533,7.533,0,0,0,1577.6,285.809Zm-13.545-9.912,6.9,6.9h-5.4a1.5,1.5,0,0,1-1.5-1.5Zm-30.1-.622a1.5,1.5,0,0,1,1.5-1.506h25.585v7.525a4.515,4.515,0,0,0,4.514,4.515h7.525v34.614a1.5,1.5,0,0,1-1.5,1.5h-36.12a1.5,1.5,0,0,1-1.5-1.5Zm-36.118,33.107V275.275a1.5,1.5,0,0,1,1.5-1.506h21.069a1.5,1.5,0,0,1,1.5,1.506v33.107a1.5,1.5,0,0,1-1.5,1.506h-21.069A1.5,1.5,0,0,1,1497.839,308.382Zm22.573,4.515a4.514,4.514,0,0,0,4.515-4.515V288.818h6.019v31.6a4.516,4.516,0,0,0,4.515,4.515h36.12a4.516,4.516,0,0,0,4.515-4.515v-31.6h1.5a4.516,4.516,0,0,1,4.515,4.515v34.614h-69.227V312.9Zm43.644,43.643a1.506,1.506,0,0,1-1.5,1.506h-30.1a1.505,1.505,0,1,1,0-3.01h30.1A1.5,1.5,0,0,1,1564.056,356.541Zm-6.221-4.515h-20.668L1538.3,343h18.412Zm19.766-12.039h-60.2a4.515,4.515,0,0,1-4.515-4.515v-4.515h69.227v4.515A4.516,4.516,0,0,1,1577.6,339.987Z" transform="translate(-1494.829 -270.76)" fill="#3f3d56"/>
        <path id="Path_259" data-name="Path 259" d="M1545.025,311.3h3.01v3.009h-3.01Z" transform="translate(-1466.768 -248.095)" fill="#3f3d56"/>
        <path id="Path_260" data-name="Path 260" d="M1515.245,282.343h-15.051a1.506,1.506,0,0,0-1.5,1.506V298.9a1.5,1.5,0,0,0,1.5,1.5h15.051a1.5,1.5,0,0,0,1.5-1.5V283.849A1.506,1.506,0,0,0,1515.245,282.343Zm-1.506,7.526h-4.515v-4.515h4.515Zm-7.524-4.515v4.515H1501.7v-4.515Zm-4.515,7.525h4.515v4.513H1501.7Zm7.524,4.513v-4.513h4.515v4.513Z" transform="translate(-1492.67 -264.285)" fill="#3f3d56"/>
        <path id="Path_261" data-name="Path 261" d="M1515.245,274.621h-15.051a1.5,1.5,0,0,0-1.5,1.5v6.019a1.5,1.5,0,0,0,1.5,1.506h15.051a1.5,1.5,0,0,0,1.5-1.506v-6.019A1.5,1.5,0,0,0,1515.245,274.621Zm-1.506,6.019H1501.7v-3.009h12.039Z" transform="translate(-1492.67 -268.602)" fill="#3f3d56"/>
        <path id="Path_262" data-name="Path 262" d="M1521.858,295.858h15.049v3.009h-15.049Z" transform="translate(-1479.719 -256.729)" fill="#3f3d56"/>
        <path id="Path_263" data-name="Path 263" d="M1533.441,295.858h15.049v3.009h-15.049Z" transform="translate(-1473.244 -256.729)" fill="#3f3d56"/>
        <path id="Path_264" data-name="Path 264" d="M1521.858,299.719h15.049v3.01h-15.049Z" transform="translate(-1479.719 -254.571)" fill="#3f3d56"/>
        <path id="Path_265" data-name="Path 265" d="M1533.441,299.719h15.049v3.01h-15.049Z" transform="translate(-1473.244 -254.571)" fill="#3f3d56"/>
        <path id="Path_266" data-name="Path 266" d="M1521.858,278.482h15.049v3.01h-15.049Z" transform="translate(-1479.719 -266.443)" fill="#3f3d56"/>
        <path id="Path_267" data-name="Path 267" d="M1521.858,274.621h3.009v3.01h-3.009Z" transform="translate(-1479.719 -268.602)" fill="#3f3d56"/>
        <path id="Path_268" data-name="Path 268" d="M1525.719,274.621h9.03v3.01h-9.03Z" transform="translate(-1477.561 -268.602)" fill="#3f3d56"/>
        <path id="Path_269" data-name="Path 269" d="M1533.13,282.343v1.506a4.515,4.515,0,1,0,0,9.03h3.009a1.5,1.5,0,1,1,0,3.009h-3.009a1.506,1.506,0,0,1-1.506-1.5h-3.009a4.515,4.515,0,0,0,4.515,4.515v1.5h3.009v-1.5a4.515,4.515,0,1,0,0-9.03h-3.009a1.505,1.505,0,1,1,0-3.011h3.009a1.506,1.506,0,0,1,1.506,1.506h3.009a4.514,4.514,0,0,0-4.515-4.515v-1.506Z" transform="translate(-1475.942 -264.285)" fill="#3f3d56"/>
        <path id="Path_270" data-name="Path 270" d="M1538.268,287.17h3.009v3.011h-3.009Z" transform="translate(-1470.545 -261.586)" fill="#3f3d56"/>
        <path id="Path_271" data-name="Path 271" d="M1524.753,287.17h3.01v3.011h-3.01Z" transform="translate(-1478.101 -261.586)" fill="#3f3d56"/>
      </g>
    </g>
    <g id="Gaming" transform="translate(652 10690.41)">
      <g id="Group_2030" data-name="Group 2030">
        <g id="Group_2029" data-name="Group 2029" style="isolation: isolate">
          <path id="Path_10286" data-name="Path 10286" d="M1503.083,539.077v-2.071h5.746v10.229a36.93,36.93,0,0,1-6.76.72q-4.542,0-6.3-2.618T1494,537.264q0-5.461,1.759-8.1t6.251-2.638a29.443,29.443,0,0,1,5.806.6l1.013.189-.087,1.925a39.717,39.717,0,0,0-6.467-.63q-3.468,0-4.666,2t-1.2,6.652q0,4.649,1.2,6.649t4.636,2a23.294,23.294,0,0,0,4.306-.412v-6.423Z" transform="translate(-1494 -526.525)" fill="#3f3d56"/>
          <path id="Path_10287" data-name="Path 10287" d="M1517.138,535.075v7.716c.059.744.642,1.188,1.749,1.324l-.087,1.765a4.91,4.91,0,0,1-3.588-1.191,13.047,13.047,0,0,1-5.407,1.191,4.116,4.116,0,0,1-3.161-1.169,4.76,4.76,0,0,1-1.085-3.366,4.254,4.254,0,0,1,1.107-3.24,5.835,5.835,0,0,1,3.491-1.28l4.733-.457v-1.292a3.02,3.02,0,0,0-.661-2.189,2.447,2.447,0,0,0-1.807-.663,44.228,44.228,0,0,0-5,.295l-.94.089-.089-1.7a30.093,30.093,0,0,1,5.871-.664,4.186,4.186,0,0,1,4.872,4.836Zm-9.258,6.144q0,2.762,2.277,2.763a12.281,12.281,0,0,0,4.042-.692l.691-.232v-4.969l-4.452.427a2.9,2.9,0,0,0-1.955.778A2.764,2.764,0,0,0,1507.88,541.219Z" transform="translate(-1487.538 -524.449)" fill="#3f3d56"/>
          <path id="Path_10288" data-name="Path 10288" d="M1518.105,545.584h-2.263V530.534h2.234v1.06a8.573,8.573,0,0,1,4.393-1.355q2.792,0,3.912,1.529a10.927,10.927,0,0,1,2.578-1.063,10.021,10.021,0,0,1,2.784-.466q3.012,0,4.049,1.612t1.035,5.781v7.953h-2.262v-7.893a10.338,10.338,0,0,0-.6-4.284,2.609,2.609,0,0,0-2.557-1.152,7.8,7.8,0,0,0-2.05.285,10.762,10.762,0,0,0-1.623.552l-.558.279a14.794,14.794,0,0,1,.38,4.395v7.818h-2.248v-7.759a11.1,11.1,0,0,0-.588-4.412q-.589-1.157-2.587-1.158a7.143,7.143,0,0,0-1.969.285,9.891,9.891,0,0,0-1.544.552l-.514.279Z" transform="translate(-1481.79 -524.449)" fill="#3f3d56"/>
          <path id="Path_10289" data-name="Path 10289" d="M1531.982,529.195v-2.632h2.262v2.632Zm0,18.445V532.589h2.262v15.051Z" transform="translate(-1472.767 -526.504)" fill="#3f3d56"/>
          <path id="Path_10290" data-name="Path 10290" d="M1538.467,545.584H1536.2V530.534h2.234v1.06a9.636,9.636,0,0,1,4.658-1.355q3.015,0,4.057,1.625t1.043,5.768v7.953h-2.234v-7.893a10.157,10.157,0,0,0-.616-4.284q-.62-1.153-2.632-1.152a7.866,7.866,0,0,0-2.036.285,10.738,10.738,0,0,0-1.638.552l-.574.279Z" transform="translate(-1470.406 -524.449)" fill="#3f3d56"/>
          <path id="Path_10291" data-name="Path 10291" d="M1552.621,552.652q-3.615,0-5.048-.976t-1.433-3.565a3.356,3.356,0,0,1,.544-2,8.6,8.6,0,0,1,1.837-1.737,2.33,2.33,0,0,1-.837-2.07,5.161,5.161,0,0,1,.748-1.9l.265-.483q-2.381-1.087-2.367-4.542,0-5.142,5.63-5.146a11.592,11.592,0,0,1,2.675.295l.455.09,4.453-.119v1.925l-2.865-.059a4.094,4.094,0,0,1,1,3.014q0,2.837-1.4,3.958a7.011,7.011,0,0,1-4.4,1.126,8.406,8.406,0,0,1-1.484-.119,6.37,6.37,0,0,0-.542,1.706c0,.617.19,1,.572,1.163a13.87,13.87,0,0,0,3.461.235,7.355,7.355,0,0,1,4.152.895q1.265.9,1.264,3.528Q1559.307,552.653,1552.621,552.652Zm-4.249-4.715a2.491,2.491,0,0,0,.89,2.209,6.211,6.211,0,0,0,3.279.611,6.659,6.659,0,0,0,3.431-.663,2.419,2.419,0,0,0,1.043-2.211c0-1.035-.252-1.7-.756-2a6.542,6.542,0,0,0-2.948-.446l-3.248-.148a5.248,5.248,0,0,0-1.345,1.264A2.54,2.54,0,0,0,1548.372,547.937Zm.207-12.552a3.342,3.342,0,0,0,.8,2.526,3.79,3.79,0,0,0,2.638.752,3.706,3.706,0,0,0,2.616-.752,4.555,4.555,0,0,0,0-5.092,4.891,4.891,0,0,0-5.254.016A3.423,3.423,0,0,0,1548.58,535.385Z" transform="translate(-1464.852 -524.449)" fill="#3f3d56"/>
        </g>
      </g>
    </g>
    <g id="Group_30" data-name="Group 30" transform="translate(648 10558.542)">
      <path id="Path_288" data-name="Path 288" d="M1508.163,446.91l4.281-4.967,5.578-4.188,6.892-2,7.666-.987,7.7.987,7.237,2,5.139,4.188,4.173,4.967-24.248,16.1Z" transform="translate(-1481.324 -433.409)" fill="#6c63ff"/>
      <circle id="Ellipse_11" data-name="Ellipse 11" cx="7.273" cy="7.273" r="7.273" transform="translate(31.534 51.701)" fill="#6c63ff"/>
      <g id="Group_2031" data-name="Group 2031" transform="translate(70.328 38.769)">
        <circle id="Ellipse_13" data-name="Ellipse 13" cx="2.424" cy="2.424" r="2.424" transform="translate(6.465)" fill="#6c63ff"/>
        <circle id="Ellipse_14" data-name="Ellipse 14" cx="2.424" cy="2.424" r="2.424" transform="translate(12.932 6.467)" fill="#6c63ff"/>
        <circle id="Ellipse_15" data-name="Ellipse 15" cx="2.424" cy="2.424" r="2.424" transform="translate(6.465 12.932)" fill="#6c63ff"/>
        <circle id="Ellipse_16" data-name="Ellipse 16" cx="2.424" cy="2.424" r="2.424" transform="translate(0 6.467)" fill="#6c63ff"/>
      </g>
      <circle id="Ellipse_12" data-name="Ellipse 12" cx="7.273" cy="7.273" r="7.273" transform="translate(57.398 51.701)" fill="#6c63ff"/>
      <path id="Path_287" data-name="Path 287" d="M1507.044,459.8c2.247,2.968,7.275,3.257,7.275,7.273.968,2.94-1.428,2.476-2.546,4.426-1.229,2.19-2.752,4.9-4.727,3.779-1.323-.751-2.133-2.4-3.815-3.779-1.384-1.11-3.461-2.111-3.461-4.426,0-1.827,2.591-1.623,4.046-3.268C1504.807,462.642,1504.854,459.8,1507.044,459.8Z" transform="translate(-1486.015 -419.415)" fill="#6c63ff"/>
      <g id="game-controller">
        <path id="Path_273" data-name="Path 273" d="M1527.672,444.163c-4.83,0-8.957,2.078-10.768,5.418a1.488,1.488,0,0,0,2.594,1.459l.024-.042c1.27-2.346,4.471-3.863,8.149-3.863s6.878,1.517,8.151,3.863a1.488,1.488,0,1,0,2.639-1.375l-.022-.042C1536.627,446.241,1532.5,444.163,1527.672,444.163Z" transform="translate(-1476.544 -428.156)" fill="#3f3d56"/>
        <path id="Path_274" data-name="Path 274" d="M1545.377,449.044a1.488,1.488,0,0,0,2.616-1.417c-2.967-5.477-9.791-8.879-17.807-8.879s-14.839,3.4-17.807,8.879a1.488,1.488,0,0,0,2.617,1.417c2.448-4.515,8.266-7.32,15.19-7.32S1542.93,444.529,1545.377,449.044Z" transform="translate(-1479.061 -431.184)" fill="#3f3d56"/>
        <path id="Path_275" data-name="Path 275" d="M1508.2,448.45a1.488,1.488,0,0,0,2.017-.6v0c3.671-6.772,12.352-10.985,22.652-10.985s18.978,4.212,22.653,10.985a1.488,1.488,0,1,0,2.616-1.419c-4.2-7.73-13.878-12.533-25.276-12.533s-21.069,4.8-25.269,12.536a1.487,1.487,0,0,0,.6,2.016Z" transform="translate(-1481.743 -433.896)" fill="#3f3d56"/>
        <path id="Path_276" data-name="Path 276" d="M1543.465,465.8a3.873,3.873,0,1,0-3.875-3.873A3.874,3.874,0,0,0,1543.465,465.8Zm0-4.771a.9.9,0,0,1,.891.9.893.893,0,1,1-.891-.9Z" transform="translate(-1463.755 -420.394)" fill="#3f3d56"/>
        <path id="Path_277" data-name="Path 277" d="M1543.468,465.9a3.875,3.875,0,1,0,3.87,3.88v-.006A3.879,3.879,0,0,0,1543.468,465.9Zm0,4.772a.9.9,0,1,1,.892-.914v.011A.9.9,0,0,1,1543.468,470.674Z" transform="translate(-1463.757 -416.004)" fill="#3f3d56"/>
        <path id="Path_278" data-name="Path 278" d="M1543.41,465.85a3.874,3.874,0,1,0-3.874,3.874A3.874,3.874,0,0,0,1543.41,465.85Zm-3.874.9a.74.74,0,1,0,0-.006Z" transform="translate(-1465.951 -418.198)" fill="#3f3d56"/>
        <path id="Path_279" data-name="Path 279" d="M1547.4,461.976a3.875,3.875,0,1,0,3.873,3.876h0A3.878,3.878,0,0,0,1547.4,461.976Zm0,4.772a.9.9,0,1,1,.9-.9.9.9,0,0,1-.9.9Z" transform="translate(-1461.559 -418.198)" fill="#3f3d56"/>
        <path id="Path_280" data-name="Path 280" d="M1517.189,468.115a7.054,7.054,0,1,0,7.055,7.055A7.053,7.053,0,0,0,1517.189,468.115Zm0,11.136a4.077,4.077,0,1,1,4.077-4.077,4.076,4.076,0,0,1-4.077,4.077Z" transform="translate(-1480.221 -414.767)" fill="#3f3d56"/>
        <path id="Path_281" data-name="Path 281" d="M1591.936,495.838l-7.168-29.595a15.982,15.982,0,0,0-6.088-9.644,13.894,13.894,0,0,0-1.969-1.169v-.6a5.62,5.62,0,0,0-5.612-5.617h-3.335a5.624,5.624,0,0,0-5.62,5.617v.848a7.4,7.4,0,0,0-2.719,2.334h-14.357a1.488,1.488,0,1,0,0,2.976h13.812v3.042a3.048,3.048,0,0,1-3.042,3.048h-28.078a3.051,3.051,0,0,1-3.046-3.048v-3.042h13.479a1.488,1.488,0,0,0,0-2.976h-14.024a7.388,7.388,0,0,0-2.709-2.331v-.862a5.626,5.626,0,0,0-5.619-5.62H1512.5a5.627,5.627,0,0,0-5.62,5.62v.6a14.074,14.074,0,0,0-1.956,1.166,15.967,15.967,0,0,0-6.091,9.646l-7.17,29.608a16.3,16.3,0,0,0,.5,10.949,9.956,9.956,0,0,0,6.236,5.31c6.077,1.869,13.192-1.25,15.227-6.674l3.443-9.18c.443-1.18.8-1.331.8-1.333.041-.009.31.026.822.4,4.816,4.379,12.72,4.191,17.921-.348h10.372a14.373,14.373,0,0,0,8.676,3.517,12.6,12.6,0,0,0,9.247-3.17c.575-.421.818-.4.82-.4s.354.151.8,1.331l3.439,9.18c1.634,4.353,6.537,7.223,11.551,7.223a12.46,12.46,0,0,0,3.686-.544,9.95,9.95,0,0,0,6.231-5.312A16.3,16.3,0,0,0,1591.936,495.838Zm-24.174-43.659h3.336a2.642,2.642,0,0,1,2.593,2.17,16.639,16.639,0,0,0-3.874-.463h-.061a17.6,17.6,0,0,0-4.615.613A2.647,2.647,0,0,1,1567.762,452.179Zm-55.258,0h3.332a2.644,2.644,0,0,1,2.619,2.321,17.6,17.6,0,0,0-4.613-.614h-.051a16.715,16.715,0,0,0-3.883.463,2.645,2.645,0,0,1,2.593-2.17Zm71.821,57.073c-4.122,1.267-9.948-.547-11.573-4.875l-3.44-9.18a4.563,4.563,0,0,0-2.757-3.141,3.923,3.923,0,0,0-3.492.92c-.039.03-.076.061-.113.094-3.83,3.522-10.275,3.221-14.363-.67a1.489,1.489,0,0,0-1.027-.41h-11.524a1.486,1.486,0,0,0-1.026.41c-4.094,3.893-10.534,4.194-14.363.67a1.268,1.268,0,0,0-.115-.1,3.923,3.923,0,0,0-3.5-.918,4.548,4.548,0,0,0-2.752,3.143l-3.444,9.18c-1.623,4.328-7.444,6.143-11.567,4.877-4.613-1.42-6.334-6.054-4.72-12.714l7.171-29.6c1.3-5.344,4.171-7.915,7.033-9.109a1.5,1.5,0,0,0,.341-.137,13.442,13.442,0,0,1,4.7-.834,13.987,13.987,0,0,1,5.539,1.085l.073.033a4.677,4.677,0,0,1,2.325,1.759v4.3a6.029,6.029,0,0,0,6.019,6.019h28.086a6.028,6.028,0,0,0,6.019-6.019v-4.3a4.611,4.611,0,0,1,2.275-1.738,1.4,1.4,0,0,0,.21-.092,13.952,13.952,0,0,1,5.419-1.046h.053a13.447,13.447,0,0,1,4.7.836,1.453,1.453,0,0,0,.337.136c2.859,1.194,5.74,3.762,7.036,9.109l7.17,29.595C1590.657,503.2,1588.938,507.831,1584.324,509.252Z" transform="translate(-1490.948 -425.342)" fill="#3f3d56"/>
        <path id="Path_282" data-name="Path 282" d="M1535.745,468.115a7.054,7.054,0,1,0,7.055,7.055A7.054,7.054,0,0,0,1535.745,468.115Zm0,11.136a4.077,4.077,0,1,1,4.077-4.077,4.076,4.076,0,0,1-4.077,4.077Z" transform="translate(-1469.847 -414.767)" fill="#3f3d56"/>
        <path id="Path_283" data-name="Path 283" d="M1513.3,463.771h-.451v-.452a4.567,4.567,0,0,0-9.134,0h0v.452h-.45a4.566,4.566,0,1,0,0,9.133h.45v.452a4.567,4.567,0,0,0,9.134,0V472.9h.451a4.566,4.566,0,1,0,0-9.133Zm0,6.157h-1.938a1.488,1.488,0,0,0-1.489,1.489v1.941a1.589,1.589,0,1,1-3.177,0v-1.943a1.489,1.489,0,0,0-1.489-1.489h-1.941a1.59,1.59,0,1,1,0-3.18h1.941a1.489,1.489,0,0,0,1.489-1.487v-1.943a1.589,1.589,0,1,1,3.177,0v1.944a1.489,1.489,0,0,0,1.489,1.487h1.941a1.59,1.59,0,1,1,0,3.18Z" transform="translate(-1486.616 -420)" fill="#3f3d56"/>
        <path id="Path_284" data-name="Path 284" d="M1522.368,465.5h-2.161a1.488,1.488,0,0,0,0,2.976h2.161a1.488,1.488,0,0,0,0-2.976Z" transform="translate(-1475.422 -416.226)" fill="#3f3d56"/>
        <path id="Path_285" data-name="Path 285" d="M1528.766,465.5H1526.6a1.488,1.488,0,0,0,0,2.976h2.172a1.488,1.488,0,0,0,0-2.976Z" transform="translate(-1471.85 -416.226)" fill="#3f3d56"/>
        <path id="Path_286" data-name="Path 286" d="M1525.936,470.508h-2.161a1.489,1.489,0,0,0-.007,2.978h2.167a1.489,1.489,0,0,0,.006-2.978Z" transform="translate(-1473.43 -413.429)" fill="#3f3d56"/>
      </g>
    </g>
    <g id="Social_Data" data-name="Social Data" transform="translate(975 10204.037)">
      <g id="Group_2033" data-name="Group 2033">
        <g id="Group_2032" data-name="Group 2032" style="isolation: isolate">
          <path id="Path_10292" data-name="Path 10292" d="M1715.948,204.222q-4.509,0-4.51,3.394a2.926,2.926,0,0,0,1.035,2.6,13.936,13.936,0,0,0,4.211,1.411,10.708,10.708,0,0,1,4.507,1.838,4.637,4.637,0,0,1,1.33,3.717q0,6.408-6.659,6.408a38.029,38.029,0,0,1-5.513-.5l-1.073-.162.237-1.925a51.257,51.257,0,0,0,6.23.543q4.455,0,4.454-4.188a2.839,2.839,0,0,0-.979-2.424,9.4,9.4,0,0,0-3.651-1.233,12.34,12.34,0,0,1-5-1.941,4.848,4.848,0,0,1-1.48-4q0-5.6,6.718-5.6a36.4,36.4,0,0,1,5.26.457l1.029.145-.2,1.957A57.253,57.253,0,0,0,1715.948,204.222Z" transform="translate(-1709.085 -201.723)" fill="#3f3d56"/>
          <path id="Path_10293" data-name="Path 10293" d="M1719.588,213.685q0-4.13,1.475-5.957t4.984-1.833q3.5,0,4.967,1.833t1.462,5.957q0,4.13-1.383,5.99t-5.056,1.86q-3.672,0-5.062-1.86T1719.588,213.685Zm2.321-.044a9.561,9.561,0,0,0,.8,4.616q.8,1.321,3.344,1.32c1.7,0,2.8-.433,3.321-1.308a9.681,9.681,0,0,0,.781-4.613q0-3.309-.874-4.557a4.829,4.829,0,0,0-6.481,0Q1721.906,210.351,1721.909,213.642Z" transform="translate(-1703.213 -199.637)" fill="#3f3d56"/>
          <path id="Path_10294" data-name="Path 10294" d="M1736.057,205.895a26.657,26.657,0,0,1,3.38.354l.722.09-.09,1.835a35.633,35.633,0,0,0-3.555-.263q-2.558,0-3.475,1.218t-.921,4.513a8.786,8.786,0,0,0,.862,4.585q.861,1.293,3.563,1.292l3.558-.263.087,1.866a28.437,28.437,0,0,1-4.187.413q-3.531,0-4.865-1.8t-1.339-6.091q0-4.291,1.447-6.019T1736.057,205.895Z" transform="translate(-1697.507 -199.637)" fill="#3f3d56"/>
          <path id="Path_10295" data-name="Path 10295" d="M1738.61,204.851v-2.632h2.264v2.632Zm0,18.445V208.245h2.264V223.3Z" transform="translate(-1692.58 -201.692)" fill="#3f3d56"/>
          <path id="Path_10296" data-name="Path 10296" d="M1753.8,210.731v7.716c.058.744.641,1.188,1.748,1.324l-.087,1.765a4.9,4.9,0,0,1-3.586-1.191,13.035,13.035,0,0,1-5.41,1.191,4.111,4.111,0,0,1-3.159-1.169,4.762,4.762,0,0,1-1.088-3.366,4.25,4.25,0,0,1,1.11-3.24,5.832,5.832,0,0,1,3.491-1.28l4.733-.457v-1.292a3.013,3.013,0,0,0-.664-2.189,2.442,2.442,0,0,0-1.807-.663,44.542,44.542,0,0,0-5,.295l-.938.089-.091-1.7a30.221,30.221,0,0,1,5.871-.664,4.187,4.187,0,0,1,4.874,4.836Zm-9.261,6.144q0,2.762,2.279,2.763a12.247,12.247,0,0,0,4.043-.692l.691-.232v-4.969l-4.454.427a2.9,2.9,0,0,0-1.957.778A2.778,2.778,0,0,0,1744.542,216.875Z" transform="translate(-1690.561 -199.637)" fill="#3f3d56"/>
          <path id="Path_10297" data-name="Path 10297" d="M1752.628,223.484v-21.6h2.251v21.6Z" transform="translate(-1684.743 -201.881)" fill="#3f3d56"/>
          <path id="Path_10298" data-name="Path 10298" d="M1768.9,223.206h-7.436V202.38h7.436q5.084,0,6.746,4.027a15.868,15.868,0,0,1,.954,6.085q0,7.862-3.909,9.9A8.145,8.145,0,0,1,1768.9,223.206Zm5.32-10.714q0-6-2.675-7.468a5.412,5.412,0,0,0-2.644-.6h-5.113v16.739h5.113Q1774.219,221.162,1774.218,212.492Z" transform="translate(-1679.804 -201.602)" fill="#3f3d56"/>
          <path id="Path_10299" data-name="Path 10299" d="M1784.616,210.731v7.716c.059.744.642,1.188,1.751,1.324l-.089,1.765a4.911,4.911,0,0,1-3.587-1.191,13.017,13.017,0,0,1-5.405,1.191,4.118,4.118,0,0,1-3.163-1.169,4.759,4.759,0,0,1-1.083-3.366,4.259,4.259,0,0,1,1.105-3.24,5.836,5.836,0,0,1,3.491-1.28l4.733-.457v-1.292a3.02,3.02,0,0,0-.659-2.189,2.453,2.453,0,0,0-1.807-.663,44.48,44.48,0,0,0-5,.295l-.943.089-.087-1.7a30.212,30.212,0,0,1,5.872-.664,4.186,4.186,0,0,1,4.87,4.836Zm-9.256,6.144q0,2.762,2.275,2.763a12.23,12.23,0,0,0,4.042-.692l.691-.232v-4.969l-4.451.427a2.9,2.9,0,0,0-1.955.778A2.755,2.755,0,0,0,1775.36,216.875Z" transform="translate(-1673.333 -199.637)" fill="#3f3d56"/>
          <path id="Path_10300" data-name="Path 10300" d="M1791.613,209.69h-4.792v7.2a9.621,9.621,0,0,0,.376,3.394c.251.539.848.809,1.8.809l2.676-.176.145,1.866a19.994,19.994,0,0,1-3.071.337,3.913,3.913,0,0,1-3.249-1.146q-.893-1.144-.9-4.365v-7.92h-2.145v-1.957h2.145v-4.6h2.22v4.6h4.792Z" transform="translate(-1668.069 -201.181)" fill="#3f3d56"/>
          <path id="Path_10301" data-name="Path 10301" d="M1801.06,210.731v7.716c.057.744.641,1.188,1.748,1.324l-.087,1.765a4.9,4.9,0,0,1-3.586-1.191,13.036,13.036,0,0,1-5.41,1.191,4.11,4.11,0,0,1-3.159-1.169,4.762,4.762,0,0,1-1.088-3.366,4.249,4.249,0,0,1,1.11-3.24,5.832,5.832,0,0,1,3.491-1.28l4.733-.457v-1.292a3.02,3.02,0,0,0-.662-2.189,2.447,2.447,0,0,0-1.809-.663,44.545,44.545,0,0,0-5,.295l-.939.089-.09-1.7a30.223,30.223,0,0,1,5.871-.664,4.186,4.186,0,0,1,4.874,4.836Zm-9.26,6.144q0,2.762,2.279,2.763a12.244,12.244,0,0,0,4.043-.692l.691-.232v-4.969l-4.454.427a2.9,2.9,0,0,0-1.956.778A2.778,2.778,0,0,0,1791.8,216.875Z" transform="translate(-1664.143 -199.637)" fill="#3f3d56"/>
        </g>
      </g>
    </g>
    <g id="Video" transform="translate(1010 10448.08)">
      <g id="Group_2035" data-name="Group 2035">
        <g id="Group_2034" data-name="Group 2034" style="isolation: isolate">
          <path id="Path_10302" data-name="Path 10302" d="M1744.492,367.449h2.412l-5.452,20.825h-5.174l-5.452-20.825h2.412l4.789,18.782h1.676Z" transform="translate(-1730.826 -366.671)" fill="#3f3d56"/>
          <path id="Path_10303" data-name="Path 10303" d="M1742.977,369.92v-2.632h2.262v2.632Zm0,18.445V373.314h2.262v15.051Z" transform="translate(-1724.033 -366.761)" fill="#3f3d56"/>
          <path id="Path_10304" data-name="Path 10304" d="M1759,366.95v21.6h-2.231v-1.029a9.2,9.2,0,0,1-4.573,1.324,6.856,6.856,0,0,1-2.108-.295,4.188,4.188,0,0,1-1.684-1.088q-1.632-1.632-1.631-6.005t1.464-6.311q1.459-1.939,4.827-1.941a19.174,19.174,0,0,1,3.7.385V366.95Zm-7.823,19.678a3.987,3.987,0,0,0,1.4.2,7.5,7.5,0,0,0,1.924-.285,11.933,11.933,0,0,0,1.668-.552l.605-.279v-10.2a18.316,18.316,0,0,0-3.572-.354,3.464,3.464,0,0,0-3.2,1.455,8.838,8.838,0,0,0-.9,4.529q0,3.5,1.057,4.7A2.588,2.588,0,0,0,1751.178,386.628Z" transform="translate(-1721.909 -366.95)" fill="#3f3d56"/>
          <path id="Path_10305" data-name="Path 10305" d="M1767.89,384.443l.867-.09.059,1.779a41.207,41.207,0,0,1-5.865.472q-3.246,0-4.607-1.882t-1.359-5.85q0-7.925,6.289-7.909a5.771,5.771,0,0,1,4.551,1.7q1.506,1.7,1.506,5.341l-.117,1.706h-9.936a6.155,6.155,0,0,0,.906,3.7,3.684,3.684,0,0,0,3.143,1.205Q1765.567,384.62,1767.89,384.443Zm-.822-6.526a6.549,6.549,0,0,0-.884-3.909,3.408,3.408,0,0,0-2.886-1.147,3.717,3.717,0,0,0-3.014,1.2,6.09,6.09,0,0,0-1.038,3.859Z" transform="translate(-1716.202 -364.706)" fill="#3f3d56"/>
          <path id="Path_10306" data-name="Path 10306" d="M1766.733,378.754q0-4.13,1.476-5.959t4.984-1.832q3.5,0,4.967,1.832t1.462,5.959q0,4.13-1.383,5.99t-5.056,1.86q-3.674,0-5.062-1.86T1766.733,378.754Zm2.323-.044a9.558,9.558,0,0,0,.8,4.616q.8,1.321,3.344,1.32c1.7,0,2.8-.433,3.321-1.308a9.683,9.683,0,0,0,.781-4.613c0-2.208-.292-3.723-.875-4.557a4.831,4.831,0,0,0-6.483,0Q1769.053,375.42,1769.056,378.711Z" transform="translate(-1710.753 -364.706)" fill="#3f3d56"/>
        </g>
      </g>
    </g>
    <g id="Group_27" data-name="Group 27" transform="translate(1004 10309.77)">
      <rect id="Rectangle_12" data-name="Rectangle 12" width="76.752" height="18.059" transform="translate(4.51 39.79)" fill="#6c63ff"/>
      <g id="video-2">
        <path id="Path_289" data-name="Path 289" d="M1806.715,311.277H1744.6L1804.264,294a1.822,1.822,0,0,0,1.243-2.256h0l-3.123-10.778a10.143,10.143,0,0,0-12.551-6.913l-56.017,16.228a10.157,10.157,0,0,0-6.911,12.552l3.05,10.534v43.371a10.144,10.144,0,0,0,10.132,10.134h21.878a1.821,1.821,0,1,0,0-3.642h-21.877a6.5,6.5,0,0,1-6.49-6.492V331.963h71.3v24.775a6.5,6.5,0,0,1-6.49,6.492h-21.878a1.821,1.821,0,1,0,0,3.642h21.878a10.144,10.144,0,0,0,10.132-10.134V313.1a1.821,1.821,0,0,0-1.816-1.826Zm-32.1,17.043,7.736-13.4h10.06l-7.736,13.4Zm-14.267,0,7.736-13.4h10.06l-7.736,13.4Zm-14.265,0,7.734-13.4h10.062l-7.734,13.4Zm6.773-23.569-12.959-12.436,9.707-2.811a1.715,1.715,0,0,0,.239.282l12.952,12.441-9.7,2.8a1.844,1.844,0,0,0-.239-.281Zm24.392-22.91,12.954,12.441-9.706,2.811a1.8,1.8,0,0,0-.239-.281L1767.3,284.372l9.7-2.812A1.786,1.786,0,0,0,1777.246,281.841Zm-13.7,3.969,12.954,12.443-9.707,2.813a1.715,1.715,0,0,0-.238-.282L1753.6,288.341l9.707-2.811A1.883,1.883,0,0,0,1763.544,285.811Zm27.3-8.26a6.388,6.388,0,0,1,1.791-.256,6.529,6.529,0,0,1,6.252,4.685l2.616,9.03-7.3,2.116a1.885,1.885,0,0,0-.24-.282L1781.005,280.4Zm-59.887,19.335a6.442,6.442,0,0,1,3.871-3.107l1.07-.31a1.815,1.815,0,0,0,.24.281l12.953,12.443-16.075,4.655-2.616-9.03A6.439,6.439,0,0,1,1730.958,296.886Zm2.636,18.036h16.016l-7.735,13.4H1733.6Zm55.283,13.4,7.736-13.4h8.277v13.4Z" transform="translate(-1726.506 -273.655)" fill="#3f3d56" fill-rule="evenodd"/>
        <path id="Path_290" data-name="Path 290" d="M1769.034,324.927a1.82,1.82,0,0,0-.9-1.576l-15.994-9.234a1.821,1.821,0,0,0-2.731,1.576v18.47a1.818,1.818,0,0,0,2.731,1.575l15.994-9.234A1.82,1.82,0,0,0,1769.034,324.927Zm-16,6.082V318.853l10.534,6.08Z" transform="translate(-1713.706 -251.172)" fill="#3f3d56" fill-rule="evenodd"/>
        <path id="Path_291" data-name="Path 291" d="M1754.573,331.11a1.821,1.821,0,1,0,1.821,1.821h0A1.824,1.824,0,0,0,1754.573,331.11Z" transform="translate(-1711.834 -241.536)" fill="#3f3d56" fill-rule="evenodd"/>
      </g>
    </g>
    <g id="Group_2084" data-name="Group 2084" transform="translate(909 10690.411)">
      <g id="Group_2050" data-name="Group 2050" transform="translate(0 0)">
        <path id="Path_10307" data-name="Path 10307" d="M1666.363,547.549V526.724h12.67v2.042h-10.347v7.2h8.54v2.016h-8.54v7.522h10.347v2.044Z" transform="translate(-1666.363 -525.946)" fill="#3f3d56"/>
        <path id="Path_10308" data-name="Path 10308" d="M1688.415,526.225v21.6h-2.236V546.8a9.169,9.169,0,0,1-4.568,1.325,6.9,6.9,0,0,1-2.112-.295,4.163,4.163,0,0,1-1.679-1.088q-1.632-1.632-1.634-6.005t1.462-6.311q1.466-1.939,4.827-1.941a19.117,19.117,0,0,1,3.7.385v-6.643Zm-7.828,19.678a4.019,4.019,0,0,0,1.4.2,7.575,7.575,0,0,0,1.926-.285,12.262,12.262,0,0,0,1.668-.552l.6-.279v-10.2a18.293,18.293,0,0,0-3.57-.354,3.458,3.458,0,0,0-3.2,1.453,8.825,8.825,0,0,0-.906,4.529q0,3.5,1.06,4.7A2.6,2.6,0,0,0,1680.587,545.9Z" transform="translate(-1660.872 -526.225)" fill="#3f3d56"/>
        <path id="Path_10309" data-name="Path 10309" d="M1696.264,530.428h2.264v15.051h-2.264v-1.057a8.683,8.683,0,0,1-4.454,1.352q-3.068,0-4.077-1.6t-1.007-5.884v-7.865h2.264v7.819a11.07,11.07,0,0,0,.574,4.395q.571,1.115,2.585,1.116a7.552,7.552,0,0,0,2.021-.285,9.65,9.65,0,0,0,1.565-.552l.53-.279Z" transform="translate(-1654.98 -523.875)" fill="#3f3d56"/>
        <path id="Path_10310" data-name="Path 10310" d="M1702.92,530.239a26.686,26.686,0,0,1,3.383.354l.719.09-.087,1.835c-1.609-.178-2.792-.263-3.558-.263q-2.554,0-3.475,1.218t-.918,4.513q0,3.293.859,4.585t3.565,1.292l3.555-.263.09,1.866a28.691,28.691,0,0,1-4.187.413q-3.531,0-4.867-1.8t-1.336-6.091q0-4.291,1.448-6.019T1702.92,530.239Z" transform="translate(-1649.425 -523.981)" fill="#3f3d56"/>
        <path id="Path_10311" data-name="Path 10311" d="M1716.441,535.075v7.716c.059.744.642,1.188,1.752,1.324l-.09,1.765a4.908,4.908,0,0,1-3.586-1.191,13.054,13.054,0,0,1-5.407,1.191,4.112,4.112,0,0,1-3.162-1.169,4.759,4.759,0,0,1-1.085-3.366,4.26,4.26,0,0,1,1.107-3.24,5.832,5.832,0,0,1,3.491-1.28l4.733-.457v-1.292a3.013,3.013,0,0,0-.661-2.189,2.453,2.453,0,0,0-1.807-.663,44.149,44.149,0,0,0-5,.295l-.943.089-.086-1.7a30.055,30.055,0,0,1,5.871-.664,4.184,4.184,0,0,1,4.869,4.836Zm-9.256,6.144q0,2.762,2.276,2.763a12.265,12.265,0,0,0,4.041-.692l.692-.232v-4.969l-4.451.427a2.9,2.9,0,0,0-1.957.778A2.755,2.755,0,0,0,1707.185,541.219Z" transform="translate(-1644.84 -523.981)" fill="#3f3d56"/>
        <path id="Path_10312" data-name="Path 10312" d="M1723.437,534.034h-4.793v7.2a9.661,9.661,0,0,0,.376,3.394c.251.539.85.809,1.8.809l2.675-.176.147,1.866a20,20,0,0,1-3.073.337,3.913,3.913,0,0,1-3.249-1.146q-.891-1.143-.895-4.365v-7.92h-2.145v-1.957h2.145v-4.6h2.218v4.6h4.793Z" transform="translate(-1639.575 -525.525)" fill="#3f3d56"/>
        <path id="Path_10313" data-name="Path 10313" d="M1721.916,529.195v-2.632h2.264v2.632Zm0,18.445V532.589h2.264v15.051Z" transform="translate(-1635.307 -526.036)" fill="#3f3d56"/>
        <path id="Path_10314" data-name="Path 10314" d="M1725.716,538.029q0-4.13,1.475-5.959t4.984-1.832q3.5,0,4.967,1.832t1.462,5.959q0,4.13-1.381,5.988t-5.056,1.861q-3.674,0-5.062-1.861T1725.716,538.029Zm2.321-.044a9.558,9.558,0,0,0,.8,4.616q.8,1.321,3.344,1.32t3.321-1.308a9.682,9.682,0,0,0,.781-4.613c0-2.208-.291-3.723-.874-4.557a4.829,4.829,0,0,0-6.481,0Q1728.035,534.7,1728.037,537.986Z" transform="translate(-1633.183 -523.981)" fill="#3f3d56"/>
        <path id="Path_10315" data-name="Path 10315" d="M1738.592,545.584h-2.262V530.534h2.234v1.06a9.631,9.631,0,0,1,4.66-1.355q3.012,0,4.054,1.625t1.046,5.768v7.953h-2.236v-7.893a10.1,10.1,0,0,0-.617-4.284q-.617-1.153-2.631-1.152a7.861,7.861,0,0,0-2.033.285,10.63,10.63,0,0,0-1.64.552l-.574.279Z" transform="translate(-1627.249 -523.981)" fill="#3f3d56"/>
      </g>
      <g id="Group_2049" data-name="Group 2049" transform="translate(130.082 0)">
        <path id="Path_10316" data-name="Path 10316" d="M1749.8,528.794v-2.07h15.049v2.07h-6.364v18.755h-2.277V528.794Z" transform="translate(-1749.801 -525.946)" fill="#3f3d56"/>
        <path id="Path_10317" data-name="Path 10317" d="M1769.812,543.718l.865-.09.059,1.779a41.417,41.417,0,0,1-5.862.472q-3.25,0-4.61-1.882t-1.358-5.85q0-7.925,6.291-7.909a5.769,5.769,0,0,1,4.547,1.7q1.507,1.7,1.506,5.341l-.118,1.7H1761.2a6.183,6.183,0,0,0,.9,3.7,3.7,3.7,0,0,0,3.146,1.207C1766.744,543.894,1768.263,543.835,1769.812,543.718Zm-.825-6.526a6.577,6.577,0,0,0-.88-3.908,3.415,3.415,0,0,0-2.889-1.147,3.724,3.724,0,0,0-3.014,1.2,6.082,6.082,0,0,0-1.035,3.859Z" transform="translate(-1744.71 -523.981)" fill="#3f3d56"/>
        <path id="Path_10318" data-name="Path 10318" d="M1774.935,530.239a26.663,26.663,0,0,1,3.378.354l.722.09-.09,1.835a35.607,35.607,0,0,0-3.555-.263q-2.559,0-3.475,1.218t-.921,4.513a8.785,8.785,0,0,0,.862,4.585q.861,1.293,3.563,1.292l3.558-.263.087,1.866a28.649,28.649,0,0,1-4.187.413q-3.529,0-4.864-1.8t-1.339-6.091q0-4.291,1.448-6.019T1774.935,530.239Z" transform="translate(-1739.251 -523.981)" fill="#3f3d56"/>
        <path id="Path_10319" data-name="Path 10319" d="M1779.75,547.828h-2.264v-21.6h2.264v7.39a10.64,10.64,0,0,1,4.632-1.132q3.012,0,4.053,1.625t1.044,5.768v7.953h-2.262v-7.893a10.155,10.155,0,0,0-.617-4.284,2.682,2.682,0,0,0-2.6-1.152,10.048,10.048,0,0,0-3.672.691l-.574.2Z" transform="translate(-1734.324 -526.225)" fill="#3f3d56"/>
        <path id="Path_10320" data-name="Path 10320" d="M1790.11,545.584h-2.262V530.534h2.231v1.06a9.648,9.648,0,0,1,4.66-1.355q3.012,0,4.058,1.625t1.041,5.768v7.953h-2.232v-7.893a10.152,10.152,0,0,0-.618-4.284q-.617-1.153-2.632-1.152a7.863,7.863,0,0,0-2.036.285,10.7,10.7,0,0,0-1.637.552l-.574.279Z" transform="translate(-1728.531 -523.981)" fill="#3f3d56"/>
        <path id="Path_10321" data-name="Path 10321" d="M1797.784,538.029q0-4.13,1.475-5.959t4.984-1.832q3.5,0,4.967,1.832t1.462,5.959q0,4.13-1.383,5.988t-5.056,1.861q-3.672,0-5.062-1.861T1797.784,538.029Zm2.321-.044a9.556,9.556,0,0,0,.8,4.616q.8,1.321,3.344,1.32t3.321-1.308a9.68,9.68,0,0,0,.781-4.613c0-2.208-.292-3.723-.875-4.557a4.831,4.831,0,0,0-6.482,0Q1800.1,534.7,1800.105,537.986Z" transform="translate(-1722.976 -523.981)" fill="#3f3d56"/>
        <path id="Path_10322" data-name="Path 10322" d="M1808.521,547.828v-21.6h2.247v21.6Z" transform="translate(-1716.975 -526.225)" fill="#3f3d56"/>
        <path id="Path_10323" data-name="Path 10323" d="M1812.432,538.029q0-4.13,1.478-5.959t4.981-1.832q3.508,0,4.967,1.832t1.463,5.959q0,4.13-1.38,5.988t-5.056,1.861q-3.676,0-5.064-1.861T1812.432,538.029Zm2.321-.044a9.512,9.512,0,0,0,.8,4.616c.533.881,1.65,1.32,3.341,1.32s2.8-.435,3.324-1.308A9.724,9.724,0,0,0,1823,538c0-2.208-.292-3.723-.874-4.557s-1.66-1.249-3.234-1.249a3.726,3.726,0,0,0-3.247,1.249Q1814.755,534.7,1814.753,537.986Z" transform="translate(-1714.788 -523.981)" fill="#3f3d56"/>
        <path id="Path_10324" data-name="Path 10324" d="M1829.1,552.652q-3.613,0-5.047-.976t-1.436-3.565a3.359,3.359,0,0,1,.546-2,8.627,8.627,0,0,1,1.835-1.737,2.332,2.332,0,0,1-.837-2.07,5.172,5.172,0,0,1,.75-1.9l.263-.483q-2.381-1.087-2.365-4.542,0-5.142,5.629-5.146a11.594,11.594,0,0,1,2.676.295l.455.09,4.452-.119v1.925l-2.865-.059a4.092,4.092,0,0,1,1,3.014q0,2.837-1.4,3.958a7.009,7.009,0,0,1-4.4,1.126,8.431,8.431,0,0,1-1.485-.119,6.43,6.43,0,0,0-.543,1.706c0,.617.192,1,.574,1.163a13.851,13.851,0,0,0,3.459.235,7.351,7.351,0,0,1,4.154.895q1.265.9,1.266,3.528Q1835.792,552.653,1829.1,552.652Zm-4.247-4.715a2.5,2.5,0,0,0,.889,2.209,6.2,6.2,0,0,0,3.277.611,6.65,6.65,0,0,0,3.432-.663,2.42,2.42,0,0,0,1.044-2.211c0-1.035-.254-1.7-.756-2a6.54,6.54,0,0,0-2.948-.446l-3.249-.148a5.275,5.275,0,0,0-1.345,1.264A2.543,2.543,0,0,0,1824.858,547.937Zm.2-12.552a3.336,3.336,0,0,0,.8,2.526,3.793,3.793,0,0,0,2.638.752,3.709,3.709,0,0,0,2.616-.752,4.555,4.555,0,0,0,0-5.092,4.891,4.891,0,0,0-5.254.016A3.417,3.417,0,0,0,1825.062,535.385Z" transform="translate(-1709.092 -523.981)" fill="#3f3d56"/>
        <path id="Path_10325" data-name="Path 10325" d="M1832.059,530.428h2.262l3.763,13.094h.985l3.792-13.094h2.263l-6.262,21.736H1836.6l1.968-6.685h-2.231Z" transform="translate(-1703.816 -523.875)" fill="#3f3d56"/>
      </g>
    </g>
    <g id="Group_29" data-name="Group 29" transform="translate(1002 10557.687)">
      <path id="Path_300" data-name="Path 300" d="M1757.731,437.842H1791.1l1.23,2.594v19.251l-2.507,1.885h-18.361L1766,468.686l-.583-7.114h-6.83l-1.936-2.869Z" transform="translate(-1708.143 -436.207)" fill="#6c63ff"/>
      <g id="online-class">
        <path id="Path_292" data-name="Path 292" d="M1805.371,516.821a1.476,1.476,0,0,1-1.476,1.478h-14.786v-5.056a10.394,10.394,0,0,0-7.624-9.987l-8.638-2.349v-2.237a10.351,10.351,0,0,0,4.435-8.459v-2.8c.375-.173.616-.3.661-.313a1.477,1.477,0,0,0,.817-1.322V476.9l7.921-3.046a1.478,1.478,0,0,0,0-2.763l-19.218-7.391a1.481,1.481,0,0,0-1.06,0l-19.22,7.391a1.479,1.479,0,0,0-.948,1.375v6.779l-4,4,2.091,2.091,1.911-1.911v2.345h2.956v-2.345l1.911,1.911,2.091-2.091-4-4v-4.619l5.913,2.282v8.871a1.477,1.477,0,0,0,.817,1.33c.046.023.285.142.661.313v2.792a10.139,10.139,0,0,0,4.435,8.462v2.234l-8.643,2.351a10.392,10.392,0,0,0-7.619,9.986v5.056h-14.783a1.477,1.477,0,0,1-1.478-1.478h0V459.163h41.394v-2.956H1728.5v-7.393a1.477,1.477,0,0,1,1.478-1.478h39.916v-2.958h-39.916a4.435,4.435,0,0,0-4.436,4.435v68.006a4.435,4.435,0,0,0,4.436,4.435h73.92a4.435,4.435,0,0,0,4.434-4.435v-54.7h-2.956Zm-41.394-14.784v-1.922a10.054,10.054,0,0,0,5.912,0v1.922a1.463,1.463,0,0,0,.516,1.1l-3.472,2.894-3.47-2.892a1.468,1.468,0,0,0,.513-1.1Zm2.956-35.384,15.1,5.809-15.1,5.809-15.1-5.809Zm-.531,14.582a1.5,1.5,0,0,0,1.06,0l8.341-3.2v6.8a17.473,17.473,0,0,1-17.74,0v-6.8Zm-6.861,8.967v-1.578a18.008,18.008,0,0,0,14.784,0v1.587a7.39,7.39,0,0,1-11.1,6.389,6.953,6.953,0,0,1-1.52-1.166,7.288,7.288,0,0,1-2.165-5.224Zm-11.827,23.033a7.427,7.427,0,0,1,5.444-7.134l6.974-1.9,5.854,4.886a1.477,1.477,0,0,0,1.894,0l5.854-4.878,6.969,1.894a7.433,7.433,0,0,1,5.45,7.136V518.3h-4.435v-5.912h-2.958V518.3H1755.1v-5.912h-2.956V518.3h-4.436Z" transform="translate(-1725.538 -432.552)" fill="#3f3d56"/>
        <path id="Path_293" data-name="Path 293" d="M1731.227,448.172h2.957v2.957h-2.957Z" transform="translate(-1722.358 -430.432)" fill="#3f3d56"/>
        <path id="Path_294" data-name="Path 294" d="M1735.021,448.172h2.957v2.957h-2.957Z" transform="translate(-1720.236 -430.432)" fill="#3f3d56"/>
        <path id="Path_295" data-name="Path 295" d="M1738.814,448.172h2.956v2.957h-2.956Z" transform="translate(-1718.116 -430.432)" fill="#3f3d56"/>
        <path id="Path_296" data-name="Path 296" d="M1789.885,436.793h-29.567a4.435,4.435,0,0,0-4.436,4.435v17.74a4.435,4.435,0,0,0,4.436,4.434h4.435v5.913a1.478,1.478,0,0,0,2.632.925l5.469-6.838h17.031a4.433,4.433,0,0,0,4.435-4.434v-17.74A4.434,4.434,0,0,0,1789.885,436.793Zm1.478,22.176a1.478,1.478,0,0,1-1.478,1.478h-17.74a1.47,1.47,0,0,0-1.154.553l-3.28,4.1v-3.176a1.478,1.478,0,0,0-1.478-1.476h-5.913a1.478,1.478,0,0,1-1.478-1.478V441.228a1.477,1.477,0,0,1,1.478-1.478h29.567a1.477,1.477,0,0,1,1.478,1.478Z" transform="translate(-1708.574 -436.793)" fill="#3f3d56"/>
        <path id="Path_297" data-name="Path 297" d="M1761.573,440.586h20.7v2.956h-20.7Z" transform="translate(-1705.393 -434.673)" fill="#3f3d56"/>
        <path id="Path_298" data-name="Path 298" d="M1761.573,444.379h20.7v2.958h-20.7Z" transform="translate(-1705.393 -432.552)" fill="#3f3d56"/>
        <path id="Path_299" data-name="Path 299" d="M1761.573,448.172h20.7v2.957h-20.7Z" transform="translate(-1705.393 -430.432)" fill="#3f3d56"/>
      </g>
    </g>
    <g id="Group_2143" data-name="Group 2143" transform="translate(2.881)">
      <g id="Group_31" data-name="Group 31" transform="translate(996.799 10070.484)">
        <g id="Group_25" data-name="Group 25">
          <ellipse id="Ellipse_10" data-name="Ellipse 10" cx="22.74" cy="22.74" rx="22.74" ry="22.74" transform="translate(48.79 45.47)" fill="#6c63ff"/>
          <g id="dashboard" transform="translate(2.201)">
            <path id="Path_224" data-name="Path 224" d="M1808.076,161.273V132.151a10.384,10.384,0,1,0-11.88-10.276h-71.279v59.4h44.624a23.744,23.744,0,1,0,38.527-20Zm-1.486-46.822a7.426,7.426,0,1,1-7.424,7.426A7.426,7.426,0,0,1,1806.591,114.45Zm-78.7,10.4h68.745a10.4,10.4,0,0,0,1.643,3.244l-9.083,9.081a4.3,4.3,0,0,0-3.818,0l-2.992-2.992a4.386,4.386,0,0,0,.452-1.91,4.455,4.455,0,0,0-8.91,0,4.369,4.369,0,0,0,.452,1.908l-7.446,7.447a4.442,4.442,0,1,0,2.544,4h0a4.386,4.386,0,0,0-.452-1.908l7.447-7.446a4.3,4.3,0,0,0,3.818,0l2.992,2.992a4.447,4.447,0,1,0,8.458,1.918v-.008a4.374,4.374,0,0,0-.452-1.908l9.085-9.083a10.327,10.327,0,0,0,4.728,1.957v27.09a23.616,23.616,0,0,0-29.7,4.88v-6.6h-8.908v17.82h3.409a24.073,24.073,0,0,0-.359,2.968h-41.654Zm59.4,14.848a1.486,1.486,0,1,1-1.484,1.486h0A1.486,1.486,0,0,1,1787.285,139.7Zm-10.394-7.426a1.486,1.486,0,1,1,1.486,1.486h0A1.488,1.488,0,0,1,1776.891,132.27ZM1766.5,145.635a1.486,1.486,0,1,1-1.486-1.484h0A1.486,1.486,0,0,1,1766.5,145.635Zm26.728,46.033a11.88,11.88,0,1,1,11.881-11.88A11.88,11.88,0,0,1,1793.225,191.669Zm-20.788-23.356a23.6,23.6,0,0,0-1.769,4.052h-1.2v-11.88h2.97Zm19.3-9.236v5.94a14.821,14.821,0,0,0-12.04,20.868l-5.151,2.973a20.715,20.715,0,0,1,17.191-29.781Zm1.488,41.5a20.784,20.784,0,0,1-17.207-9.134l5.173-2.987a14.8,14.8,0,0,0,24.071,0l5.173,2.987A20.779,20.779,0,0,1,1793.225,200.574Zm18.679-11.716-5.151-2.973a14.819,14.819,0,0,0-12.041-20.868v-5.94a20.718,20.718,0,0,1,17.192,29.781Z" transform="translate(-1724.918 -111.491)" fill="#3f3d56"/>
            <path id="Path_225" data-name="Path 225" d="M1771.926,149.584a8.91,8.91,0,1,0,8.91,8.91h0A8.92,8.92,0,0,0,1771.926,149.584Zm0,14.85a5.94,5.94,0,1,1,5.941-5.94h0A5.947,5.947,0,0,1,1771.926,164.434Z" transform="translate(-1703.619 -90.195)" fill="#3f3d56"/>
            <path id="Path_226" data-name="Path 226" d="M1728.728,121.962h2.97v2.97h-2.97Z" transform="translate(-1722.788 -105.637)" fill="#3f3d56"/>
            <path id="Path_227" data-name="Path 227" d="M1732.538,121.962h20.79v2.97h-20.79Z" transform="translate(-1720.658 -105.637)" fill="#3f3d56"/>
            <path id="Path_228" data-name="Path 228" d="M1728.728,125.772h2.97v2.97h-2.97Z" transform="translate(-1722.788 -103.507)" fill="#3f3d56"/>
            <path id="Path_229" data-name="Path 229" d="M1732.538,125.772h20.79v2.97h-20.79Z" transform="translate(-1720.658 -103.507)" fill="#3f3d56"/>
            <path id="Path_230" data-name="Path 230" d="M1728.728,129.582h2.97v2.97h-2.97Z" transform="translate(-1722.788 -101.377)" fill="#3f3d56"/>
            <path id="Path_231" data-name="Path 231" d="M1732.538,129.582h20.79v2.97h-20.79Z" transform="translate(-1720.658 -101.377)" fill="#3f3d56"/>
            <path id="Path_232" data-name="Path 232" d="M1728.728,133.392h2.97v2.97h-2.97Z" transform="translate(-1722.788 -99.247)" fill="#3f3d56"/>
            <path id="Path_233" data-name="Path 233" d="M1732.538,133.392h20.79v2.97h-20.79Z" transform="translate(-1720.658 -99.247)" fill="#3f3d56"/>
            <path id="Path_234" data-name="Path 234" d="M1728.728,157.767h8.91v-14.85h-8.91Zm2.97-11.88h2.97V154.8h-2.97Z" transform="translate(-1722.788 -93.922)" fill="#3f3d56"/>
            <path id="Path_235" data-name="Path 235" d="M1736.348,156.7h8.91v-11.88h-8.91Zm2.97-8.91h2.968v5.938h-2.968Z" transform="translate(-1718.528 -92.857)" fill="#3f3d56"/>
            <path id="Path_236" data-name="Path 236" d="M1743.968,160.963h8.91V137.2h-8.91Zm2.97-20.79h2.97v17.818h-2.97Z" transform="translate(-1714.268 -97.117)" fill="#3f3d56"/>
          </g>
        </g>
      </g>
      <path id="Path_238" data-name="Path 238" d="M1762.6,139.421c-10.486,16.554-36.286,21.2-38.224,7.413-1.2-8.548-1.935-20.877,3.185-26.447,2.68-2.925,9.772-.829,14.145-1.444C1753.218,117.325,1773.087,122.86,1762.6,139.421Z" transform="translate(-731.387 9955.01)" fill="#6c63ff" opacity="0.2" style="isolation: isolate"/>
    </g>
  </g>
</svg>
