<svg xmlns="http://www.w3.org/2000/svg" width="711" height="406" viewBox="0 0 711 406">
  <g id="Group_2357" data-name="Group 2357" transform="translate(-43 -9063)">
    <g id="Group_2201" data-name="Group 2201" transform="translate(0 -25)">
      <g id="Rectangle_2590" data-name="Rectangle 2590" transform="translate(61 9110)" fill="none" stroke="#3f3d56" stroke-width="2" stroke-dasharray="6">
        <rect width="693" height="384" stroke="none"/>
        <rect x="1" y="1" width="691" height="382" fill="none"/>
      </g>
      <g id="Group_2200" data-name="Group 2200">
        <g id="Rectangle_2595" data-name="Rectangle 2595" transform="translate(43 9088)" fill="#fff" stroke="#707070" stroke-width="2">
          <rect width="694" height="389" stroke="none"/>
          <rect x="1" y="1" width="692" height="387" fill="none"/>
        </g>
        <g id="Group_2199" data-name="Group 2199" transform="translate(0 1)">
          <g id="Financial_Trading" data-name="Financial Trading" transform="translate(78.633 9235.179)">
            <g id="Group_2026" data-name="Group 2026">
              <g id="Group_2025" data-name="Group 2025" style="isolation: isolate">
                <path id="Path_10260" data-name="Path 10260" d="M1457.857,215.734V200.449H1467v1.5h-7.443v5.965h6.289v1.5h-6.289v6.321Z" transform="translate(-1457.857 -199.878)" fill="#3f3d56"/>
                <path id="Path_10261" data-name="Path 10261" d="M1467.755,202.219v-1.931h1.661v1.931Zm0,13.538V204.712h1.661v11.045Z" transform="translate(-1456.43 -199.901)" fill="#3f3d56"/>
                <path id="Path_10262" data-name="Path 10262" d="M1473.639,215.227h-1.662V204.181h1.64v.778a7.06,7.06,0,0,1,3.419-.994q2.213,0,2.977,1.192a8.372,8.372,0,0,1,.765,4.234v5.836h-1.638v-5.792a7.448,7.448,0,0,0-.453-3.144,1.991,1.991,0,0,0-1.931-.847,5.829,5.829,0,0,0-1.495.209,7.96,7.96,0,0,0-1.2.405l-.421.2Z" transform="translate(-1455.82 -199.371)" fill="#3f3d56"/>
                <path id="Path_10263" data-name="Path 10263" d="M1490.225,207.514v5.663q.063.819,1.284.971l-.066,1.294a3.6,3.6,0,0,1-2.631-.874,9.566,9.566,0,0,1-3.969.874,3.018,3.018,0,0,1-2.319-.858,3.5,3.5,0,0,1-.8-2.47,3.126,3.126,0,0,1,.813-2.378,4.288,4.288,0,0,1,2.562-.939l3.474-.334v-.949a2.214,2.214,0,0,0-.485-1.607,1.8,1.8,0,0,0-1.328-.487,32.682,32.682,0,0,0-3.667.216l-.69.066-.065-1.252a22.163,22.163,0,0,1,4.31-.486,3.071,3.071,0,0,1,3.575,3.549Zm-6.8,4.508q0,2.029,1.672,2.028a9.014,9.014,0,0,0,2.967-.507l.507-.171v-3.648l-3.268.315a2.118,2.118,0,0,0-1.436.571A2.029,2.029,0,0,0,1483.43,212.023Z" transform="translate(-1454.414 -199.371)" fill="#3f3d56"/>
                <path id="Path_10264" data-name="Path 10264" d="M1493.671,215.227h-1.66V204.181h1.639v.778a7.063,7.063,0,0,1,3.42-.994,3.283,3.283,0,0,1,2.977,1.192,8.372,8.372,0,0,1,.765,4.234v5.836h-1.64v-5.792a7.46,7.46,0,0,0-.451-3.144,2,2,0,0,0-1.933-.847,5.821,5.821,0,0,0-1.493.209,8,8,0,0,0-1.2.405l-.421.2Z" transform="translate(-1452.931 -199.371)" fill="#3f3d56"/>
                <path id="Path_10265" data-name="Path 10265" d="M1506.56,203.965a19.485,19.485,0,0,1,2.48.259l.53.066-.065,1.347q-1.77-.194-2.612-.193a3.036,3.036,0,0,0-2.551.895,5.828,5.828,0,0,0-.674,3.313,6.441,6.441,0,0,0,.632,3.364,2.953,2.953,0,0,0,2.615.95l2.611-.195.065,1.37a20.889,20.889,0,0,1-3.074.3q-2.59,0-3.57-1.322a7.705,7.705,0,0,1-.982-4.471q0-3.151,1.062-4.419A4.382,4.382,0,0,1,1506.56,203.965Z" transform="translate(-1451.495 -199.371)" fill="#3f3d56"/>
                <path id="Path_10266" data-name="Path 10266" d="M1510.779,202.219v-1.931h1.66v1.931Zm0,13.538V204.712h1.66v11.045Z" transform="translate(-1450.223 -199.901)" fill="#3f3d56"/>
                <path id="Path_10267" data-name="Path 10267" d="M1522.888,207.514v5.663q.065.819,1.285.971l-.065,1.294a3.6,3.6,0,0,1-2.633-.874,9.558,9.558,0,0,1-3.968.874,3.019,3.019,0,0,1-2.32-.858,3.49,3.49,0,0,1-.8-2.47,3.118,3.118,0,0,1,.813-2.378,4.282,4.282,0,0,1,2.561-.939l3.475-.334v-.949a2.208,2.208,0,0,0-.486-1.607,1.793,1.793,0,0,0-1.326-.487,32.651,32.651,0,0,0-3.667.216l-.691.066-.064-1.252a22.155,22.155,0,0,1,4.31-.486,3.07,3.07,0,0,1,3.574,3.549Zm-6.794,4.508q0,2.029,1.671,2.028a9.008,9.008,0,0,0,2.967-.507l.508-.171v-3.648l-3.269.315a2.118,2.118,0,0,0-1.436.571A2.027,2.027,0,0,0,1516.094,212.023Z" transform="translate(-1449.703 -199.371)" fill="#3f3d56"/>
                <path id="Path_10268" data-name="Path 10268" d="M1524.8,215.806V199.95h1.65v15.856Z" transform="translate(-1448.201 -199.95)" fill="#3f3d56"/>
                <path id="Path_10269" data-name="Path 10269" d="M1532.244,201.97v-1.521h11.046v1.521h-4.671v13.764h-1.673V201.97Z" transform="translate(-1447.127 -199.878)" fill="#3f3d56"/>
                <path id="Path_10270" data-name="Path 10270" d="M1541.869,215.231V204.185h1.638v1.5a10.711,10.711,0,0,1,4.046-1.747v1.683a11.493,11.493,0,0,0-1.936.55,12.208,12.208,0,0,0-1.538.667l-.551.283v8.11Z" transform="translate(-1445.739 -199.375)" fill="#3f3d56"/>
                <path id="Path_10271" data-name="Path 10271" d="M1556.429,207.514v5.663q.065.819,1.284.971l-.064,1.294a3.6,3.6,0,0,1-2.633-.874,9.561,9.561,0,0,1-3.969.874,3.021,3.021,0,0,1-2.32-.858,3.494,3.494,0,0,1-.8-2.47,3.124,3.124,0,0,1,.813-2.378,4.286,4.286,0,0,1,2.562-.939l3.474-.334v-.949a2.211,2.211,0,0,0-.485-1.607,1.794,1.794,0,0,0-1.327-.487,32.706,32.706,0,0,0-3.667.216l-.69.066-.065-1.252a22.165,22.165,0,0,1,4.309-.486,3.071,3.071,0,0,1,3.576,3.549Zm-6.794,4.508q0,2.029,1.671,2.028a9.006,9.006,0,0,0,2.967-.507l.507-.171v-3.648l-3.268.315a2.118,2.118,0,0,0-1.436.571A2.03,2.03,0,0,0,1549.635,212.023Z" transform="translate(-1444.865 -199.371)" fill="#3f3d56"/>
                <path id="Path_10272" data-name="Path 10272" d="M1566.765,199.95v15.856h-1.64v-.755a6.734,6.734,0,0,1-3.355.971,5.04,5.04,0,0,1-1.548-.216,3.046,3.046,0,0,1-1.235-.8q-1.2-1.2-1.2-4.406a7.808,7.808,0,0,1,1.073-4.633,4.153,4.153,0,0,1,3.542-1.423,14.056,14.056,0,0,1,2.719.282V199.95Zm-5.744,14.443a2.91,2.91,0,0,0,1.025.151,5.557,5.557,0,0,0,1.412-.209,9.175,9.175,0,0,0,1.224-.405l.443-.2v-7.486a13.442,13.442,0,0,0-2.622-.26,2.541,2.541,0,0,0-2.347,1.068,6.487,6.487,0,0,0-.663,3.324q0,2.566.777,3.451A1.88,1.88,0,0,0,1561.021,214.393Z" transform="translate(-1443.443 -199.95)" fill="#3f3d56"/>
                <path id="Path_10273" data-name="Path 10273" d="M1568.424,202.219v-1.931h1.661v1.931Zm0,13.538V204.712h1.661v11.045Z" transform="translate(-1441.909 -199.901)" fill="#3f3d56"/>
                <path id="Path_10274" data-name="Path 10274" d="M1574.308,215.227h-1.661V204.181h1.64v.778a7.061,7.061,0,0,1,3.42-.994q2.211,0,2.976,1.192a8.361,8.361,0,0,1,.765,4.234v5.836h-1.639v-5.792a7.435,7.435,0,0,0-.452-3.144,1.991,1.991,0,0,0-1.932-.847,5.813,5.813,0,0,0-1.493.209,7.912,7.912,0,0,0-1.2.405l-.421.2Z" transform="translate(-1441.3 -199.371)" fill="#3f3d56"/>
                <path id="Path_10275" data-name="Path 10275" d="M1587.341,220.413a6.939,6.939,0,0,1-3.705-.716,2.939,2.939,0,0,1-1.052-2.616,2.474,2.474,0,0,1,.4-1.466,6.345,6.345,0,0,1,1.348-1.273,1.714,1.714,0,0,1-.614-1.521,3.8,3.8,0,0,1,.55-1.393l.195-.355q-1.748-.8-1.737-3.333,0-3.774,4.131-3.776a8.444,8.444,0,0,1,1.963.216l.335.065,3.268-.086v1.412l-2.1-.042a3,3,0,0,1,.733,2.211,3.527,3.527,0,0,1-1.031,2.905,5.136,5.136,0,0,1-3.23.826,6.31,6.31,0,0,1-1.09-.086,4.709,4.709,0,0,0-.4,1.251c0,.453.141.738.42.854a10.193,10.193,0,0,0,2.541.173,5.4,5.4,0,0,1,3.048.658,3,3,0,0,1,.928,2.588Q1592.249,220.415,1587.341,220.413Zm-3.118-3.46a1.834,1.834,0,0,0,.654,1.623,4.563,4.563,0,0,0,2.405.449,4.886,4.886,0,0,0,2.519-.487,1.77,1.77,0,0,0,.765-1.623c0-.76-.186-1.246-.555-1.467a4.786,4.786,0,0,0-2.164-.327l-2.382-.11a3.847,3.847,0,0,0-.988.928A1.86,1.86,0,0,0,1584.223,216.953Zm.151-9.212a2.455,2.455,0,0,0,.588,1.855,2.791,2.791,0,0,0,1.936.55,2.725,2.725,0,0,0,1.92-.55,3.345,3.345,0,0,0,0-3.738,3.6,3.6,0,0,0-3.856.012A2.515,2.515,0,0,0,1584.374,207.741Z" transform="translate(-1439.867 -199.371)" fill="#3f3d56"/>
              </g>
            </g>
          </g>
          <g id="E-Commerce" transform="translate(530.87 9237.171)">
            <g id="Group_2028" data-name="Group 2028">
              <g id="Group_2027" data-name="Group 2027" style="isolation: isolate">
                <path id="Path_10276" data-name="Path 10276" d="M1472.336,378.872V363.588h9.3v1.5h-7.594v5.285h6.267v1.478h-6.267v5.522h7.594v1.5Z" transform="translate(-1472.336 -363.36)" fill="#3f3d56"/>
                <path id="Path_10277" data-name="Path 10277" d="M1482.272,372.5v-1.542h6.7V372.5Z" transform="translate(-1470.903 -362.297)" fill="#3f3d56"/>
                <path id="Path_10278" data-name="Path 10278" d="M1500.363,378.653a20.7,20.7,0,0,1-4.088.463,7.316,7.316,0,0,1-2.929-.5,3.667,3.667,0,0,1-1.719-1.542,7.2,7.2,0,0,1-.837-2.405,20.787,20.787,0,0,1-.232-3.395,21.156,21.156,0,0,1,.232-3.412,7.371,7.371,0,0,1,.837-2.444,3.579,3.579,0,0,1,1.709-1.547,7.231,7.231,0,0,1,2.874-.486,21.289,21.289,0,0,1,4.154.486l-.064,1.434a22.091,22.091,0,0,0-3.98-.387q-2.428,0-3.209,1.444a11.14,11.14,0,0,0-.782,4.931,22.228,22.228,0,0,0,.141,2.81,6.057,6.057,0,0,0,.561,1.913,2.472,2.472,0,0,0,1.229,1.215,6.055,6.055,0,0,0,2.361.359,20.271,20.271,0,0,0,3.68-.4Z" transform="translate(-1469.708 -363.389)" fill="#3f3d56"/>
                <path id="Path_10279" data-name="Path 10279" d="M1500.692,372.821a7,7,0,0,1,1.083-4.373,5.63,5.63,0,0,1,7.3,0,7.042,7.042,0,0,1,1.074,4.373,7.472,7.472,0,0,1-1.014,4.4q-1.016,1.366-3.711,1.365t-3.717-1.365A7.436,7.436,0,0,1,1500.692,372.821Zm1.7-.032a7,7,0,0,0,.588,3.388,2.658,2.658,0,0,0,2.454.969,2.618,2.618,0,0,0,2.437-.961,7.118,7.118,0,0,0,.572-3.385,6.221,6.221,0,0,0-.641-3.345,2.708,2.708,0,0,0-2.373-.917,2.737,2.737,0,0,0-2.385.917A6.087,6.087,0,0,0,1502.4,372.789Z" transform="translate(-1468.246 -362.853)" fill="#3f3d56"/>
                <path id="Path_10280" data-name="Path 10280" d="M1512.967,378.365h-1.66V367.319h1.639v.778a6.286,6.286,0,0,1,3.226-.994,3.331,3.331,0,0,1,2.87,1.121,8.147,8.147,0,0,1,1.894-.78,7.34,7.34,0,0,1,2.043-.341q2.212,0,2.972,1.183a8.416,8.416,0,0,1,.76,4.243v5.836h-1.661v-5.792a7.609,7.609,0,0,0-.442-3.144,1.918,1.918,0,0,0-1.878-.847,5.771,5.771,0,0,0-1.5.209,8.266,8.266,0,0,0-1.192.405l-.409.2a10.862,10.862,0,0,1,.28,3.227v5.737h-1.651V372.67a8.124,8.124,0,0,0-.431-3.237,1.923,1.923,0,0,0-1.9-.851,5.279,5.279,0,0,0-1.444.209,7.511,7.511,0,0,0-1.134.405l-.378.2Z" transform="translate(-1466.715 -362.853)" fill="#3f3d56"/>
                <path id="Path_10281" data-name="Path 10281" d="M1529.107,378.365h-1.662V367.319h1.64v.778a6.282,6.282,0,0,1,3.225-.994,3.334,3.334,0,0,1,2.87,1.121,8.127,8.127,0,0,1,1.893-.78,7.34,7.34,0,0,1,2.043-.341q2.211,0,2.972,1.183a8.407,8.407,0,0,1,.759,4.243v5.836h-1.66v-5.792a7.587,7.587,0,0,0-.443-3.144,1.915,1.915,0,0,0-1.876-.847,5.765,5.765,0,0,0-1.5.209,8.145,8.145,0,0,0-1.193.405l-.409.2a10.879,10.879,0,0,1,.279,3.227v5.737h-1.65V372.67a8.128,8.128,0,0,0-.432-3.237,1.923,1.923,0,0,0-1.9-.851,5.282,5.282,0,0,0-1.445.209,7.482,7.482,0,0,0-1.133.405l-.378.2Z" transform="translate(-1464.387 -362.853)" fill="#3f3d56"/>
                <path id="Path_10282" data-name="Path 10282" d="M1551.163,377l.636-.065.044,1.306a30.213,30.213,0,0,1-4.3.346,3.888,3.888,0,0,1-3.382-1.381,7.389,7.389,0,0,1-1-4.293q0-5.815,4.617-5.8a4.235,4.235,0,0,1,3.338,1.247,5.8,5.8,0,0,1,1.106,3.92l-.087,1.251h-7.291a4.519,4.519,0,0,0,.664,2.719,2.708,2.708,0,0,0,2.308.885Q1549.46,377.125,1551.163,377Zm-.6-4.789a4.829,4.829,0,0,0-.646-2.869,2.5,2.5,0,0,0-2.12-.842,2.728,2.728,0,0,0-2.211.878,4.466,4.466,0,0,0-.761,2.833Z" transform="translate(-1462.12 -362.853)" fill="#3f3d56"/>
                <path id="Path_10283" data-name="Path 10283" d="M1553.332,378.369V367.323h1.639v1.5a10.747,10.747,0,0,1,4.046-1.747v1.684a11.324,11.324,0,0,0-1.937.55,12.121,12.121,0,0,0-1.536.666l-.551.283v8.11Z" transform="translate(-1460.653 -362.857)" fill="#3f3d56"/>
                <path id="Path_10284" data-name="Path 10284" d="M1564.006,367.1a19.585,19.585,0,0,1,2.482.26l.528.065-.065,1.347q-1.769-.194-2.61-.193a3.034,3.034,0,0,0-2.55.895,5.823,5.823,0,0,0-.675,3.313,6.446,6.446,0,0,0,.632,3.365,2.957,2.957,0,0,0,2.615.949l2.61-.193.065,1.37a20.833,20.833,0,0,1-3.073.3q-2.59,0-3.571-1.321a7.7,7.7,0,0,1-.982-4.471q0-3.149,1.063-4.419A4.38,4.38,0,0,1,1564.006,367.1Z" transform="translate(-1459.776 -362.853)" fill="#3f3d56"/>
                <path id="Path_10285" data-name="Path 10285" d="M1575.693,377l.635-.065.044,1.306a30.2,30.2,0,0,1-4.3.346,3.889,3.889,0,0,1-3.382-1.381,7.393,7.393,0,0,1-1-4.293q0-5.815,4.616-5.8a4.233,4.233,0,0,1,3.339,1.247,5.8,5.8,0,0,1,1.105,3.92l-.085,1.251h-7.292a4.523,4.523,0,0,0,.665,2.719,2.705,2.705,0,0,0,2.308.885Q1573.988,377.125,1575.693,377Zm-.6-4.789a4.817,4.817,0,0,0-.648-2.869,2.5,2.5,0,0,0-2.119-.842,2.732,2.732,0,0,0-2.212.878,4.476,4.476,0,0,0-.761,2.833Z" transform="translate(-1458.583 -362.853)" fill="#3f3d56"/>
              </g>
            </g>
          </g>
          <g id="Social_Data" data-name="Social Data" transform="translate(323.678 9237.171)">
            <g id="Group_2033" data-name="Group 2033">
              <g id="Group_2032" data-name="Group 2032" style="isolation: isolate">
                <path id="Path_10292" data-name="Path 10292" d="M1714.122,203.675q-3.309,0-3.311,2.491a2.147,2.147,0,0,0,.76,1.909,10.229,10.229,0,0,0,3.091,1.035,7.861,7.861,0,0,1,3.307,1.349,3.4,3.4,0,0,1,.976,2.728q0,4.7-4.887,4.7a27.9,27.9,0,0,1-4.045-.366l-.788-.119.174-1.413a37.616,37.616,0,0,0,4.573.4q3.27,0,3.269-3.073a2.083,2.083,0,0,0-.719-1.779,6.9,6.9,0,0,0-2.679-.905,9.058,9.058,0,0,1-3.672-1.425,3.558,3.558,0,0,1-1.086-2.935q0-4.109,4.931-4.109a26.722,26.722,0,0,1,3.861.335l.755.106-.15,1.436A42,42,0,0,0,1714.122,203.675Z" transform="translate(-1709.085 -201.84)" fill="#3f3d56"/>
                <path id="Path_10293" data-name="Path 10293" d="M1719.588,211.613a7,7,0,0,1,1.082-4.372,5.629,5.629,0,0,1,7.3,0,7.047,7.047,0,0,1,1.073,4.372,7.468,7.468,0,0,1-1.015,4.4q-1.013,1.365-3.711,1.365t-3.715-1.365A7.44,7.44,0,0,1,1719.588,211.613Zm1.7-.032a7.014,7.014,0,0,0,.587,3.388,2.658,2.658,0,0,0,2.454.969c1.245,0,2.058-.318,2.437-.96a7.1,7.1,0,0,0,.573-3.386,6.207,6.207,0,0,0-.642-3.345,3.544,3.544,0,0,0-4.757,0A6.079,6.079,0,0,0,1721.292,211.581Z" transform="translate(-1707.57 -201.302)" fill="#3f3d56"/>
                <path id="Path_10294" data-name="Path 10294" d="M1734.391,205.895a19.564,19.564,0,0,1,2.48.26l.53.066-.066,1.347q-1.769-.2-2.61-.193a3.03,3.03,0,0,0-2.551.894,5.814,5.814,0,0,0-.676,3.313,6.448,6.448,0,0,0,.633,3.365,2.954,2.954,0,0,0,2.614.949l2.612-.193.064,1.37a20.863,20.863,0,0,1-3.073.3q-2.592,0-3.57-1.323a7.689,7.689,0,0,1-.983-4.471q0-3.149,1.062-4.418A4.382,4.382,0,0,1,1734.391,205.895Z" transform="translate(-1706.098 -201.302)" fill="#3f3d56"/>
                <path id="Path_10295" data-name="Path 10295" d="M1738.61,204.151v-1.932h1.662v1.932Zm0,13.537V206.641h1.662v11.047Z" transform="translate(-1704.826 -201.832)" fill="#3f3d56"/>
                <path id="Path_10296" data-name="Path 10296" d="M1750.721,209.444v5.663c.042.546.47.872,1.283.971l-.064,1.3a3.6,3.6,0,0,1-2.632-.874,9.566,9.566,0,0,1-3.971.874,3.017,3.017,0,0,1-2.318-.858,3.5,3.5,0,0,1-.8-2.47,3.118,3.118,0,0,1,.815-2.378,4.278,4.278,0,0,1,2.562-.939l3.474-.335v-.949a2.21,2.21,0,0,0-.488-1.606,1.792,1.792,0,0,0-1.326-.486,32.692,32.692,0,0,0-3.667.216l-.689.065-.066-1.251a22.183,22.183,0,0,1,4.309-.487,3.072,3.072,0,0,1,3.577,3.549Zm-6.8,4.509q0,2.027,1.673,2.028a8.985,8.985,0,0,0,2.967-.508l.507-.171v-3.647l-3.269.314a2.13,2.13,0,0,0-1.437.571A2.042,2.042,0,0,0,1743.925,213.954Z" transform="translate(-1704.305 -201.302)" fill="#3f3d56"/>
                <path id="Path_10297" data-name="Path 10297" d="M1752.628,217.737V201.881h1.652v15.856Z" transform="translate(-1702.804 -201.881)" fill="#3f3d56"/>
                <path id="Path_10298" data-name="Path 10298" d="M1766.92,217.665h-5.458V202.38h5.458q3.732,0,4.951,2.956a11.645,11.645,0,0,1,.7,4.466q0,5.77-2.869,7.269A5.978,5.978,0,0,1,1766.92,217.665Zm3.9-7.863q0-4.4-1.964-5.481a3.972,3.972,0,0,0-1.941-.442h-3.753v12.286h3.753Q1770.825,216.165,1770.824,209.8Z" transform="translate(-1701.53 -201.809)" fill="#3f3d56"/>
                <path id="Path_10299" data-name="Path 10299" d="M1781.536,209.444v5.663c.043.546.471.872,1.285.971l-.065,1.3a3.6,3.6,0,0,1-2.633-.874,9.558,9.558,0,0,1-3.968.874,3.021,3.021,0,0,1-2.321-.858,3.492,3.492,0,0,1-.8-2.47,3.125,3.125,0,0,1,.812-2.378,4.282,4.282,0,0,1,2.562-.939l3.474-.335v-.949a2.215,2.215,0,0,0-.484-1.606,1.8,1.8,0,0,0-1.326-.486,32.659,32.659,0,0,0-3.667.216l-.692.065-.064-1.251a22.169,22.169,0,0,1,4.309-.487,3.072,3.072,0,0,1,3.575,3.549Zm-6.794,4.509q0,2.027,1.67,2.028a8.974,8.974,0,0,0,2.967-.508l.507-.171v-3.647l-3.267.314a2.124,2.124,0,0,0-1.435.571A2.022,2.022,0,0,0,1774.742,213.954Z" transform="translate(-1699.86 -201.302)" fill="#3f3d56"/>
                <path id="Path_10300" data-name="Path 10300" d="M1789.176,207.946h-3.517v5.285a7.061,7.061,0,0,0,.276,2.491c.184.4.623.594,1.321.594l1.964-.129.106,1.37a14.665,14.665,0,0,1-2.254.247,2.872,2.872,0,0,1-2.384-.841,5.526,5.526,0,0,1-.658-3.2v-5.813h-1.575v-1.436h1.575v-3.375h1.629v3.375h3.517Z" transform="translate(-1698.502 -201.7)" fill="#3f3d56"/>
                <path id="Path_10301" data-name="Path 10301" d="M1797.979,209.444v5.663c.042.546.47.872,1.283.971l-.064,1.3a3.6,3.6,0,0,1-2.632-.874,9.566,9.566,0,0,1-3.97.874,3.017,3.017,0,0,1-2.319-.858,3.5,3.5,0,0,1-.8-2.47,3.119,3.119,0,0,1,.815-2.378,4.282,4.282,0,0,1,2.562-.939l3.474-.335v-.949a2.215,2.215,0,0,0-.486-1.606,1.8,1.8,0,0,0-1.327-.486,32.708,32.708,0,0,0-3.668.216l-.689.065-.066-1.251a22.181,22.181,0,0,1,4.309-.487,3.073,3.073,0,0,1,3.577,3.549Zm-6.8,4.509q0,2.027,1.673,2.028a8.987,8.987,0,0,0,2.967-.508l.507-.171v-3.647l-3.269.314a2.127,2.127,0,0,0-1.436.571A2.037,2.037,0,0,0,1791.182,213.954Z" transform="translate(-1697.489 -201.302)" fill="#3f3d56"/>
              </g>
            </g>
          </g>
          <g id="Group_26" data-name="Group 26" transform="translate(116.485 9129.59)">
            <rect id="Rectangle_9" data-name="Rectangle 9" width="43.077" height="19.882" transform="translate(18.776 16.963)" fill="#6c63ff"/>
            <g id="refund">
              <path id="Path_247" data-name="Path 247" d="M1530.065,105.692a36.753,36.753,0,0,0-36.686,36.688,28.778,28.778,0,0,0,.129,3.346l2.574-.256a24.929,24.929,0,0,1-.129-3.093,34.113,34.113,0,1,1,35.4,34.117l2.833-2.832-1.8-1.807-6.05,6.051,6.05,6.05,1.8-1.8-3.093-3.092a36.694,36.694,0,0,0-1.027-73.368Z" transform="translate(-1489.517 -105.692)" fill="#3f3d56"/>
              <path id="Path_248" data-name="Path 248" d="M1552.094,119.192h-46.341v23.171H1552.1Zm-2.574,20.6h-41.193V121.767h41.193Z" transform="translate(-1487.732 -103.745)" fill="#3f3d56"/>
              <path id="Path_249" data-name="Path 249" d="M1526.652,135.115a5.149,5.149,0,1,0-5.151-5.149A5.149,5.149,0,0,0,1526.652,135.115Zm0-7.724a2.575,2.575,0,1,1-2.576,2.575h0a2.583,2.583,0,0,1,2.576-2.575Z" transform="translate(-1485.459 -102.933)" fill="#3f3d56"/>
              <path id="Path_250" data-name="Path 250" d="M1512.827,126.267h2.574v-2.575h-5.148v5.149h2.575Z" transform="translate(-1487.082 -103.096)" fill="#3f3d56"/>
              <path id="Path_251" data-name="Path 251" d="M1515.4,133.017h-2.574v-2.575h-2.574v5.15h5.149Z" transform="translate(-1487.082 -102.122)" fill="#3f3d56"/>
              <path id="Path_252" data-name="Path 252" d="M1542.4,130.442h-2.576v2.575h-2.573v2.576h5.15Z" transform="translate(-1483.188 -102.122)" fill="#3f3d56"/>
              <path id="Path_253" data-name="Path 253" d="M1539.826,128.841h2.576v-5.149h-5.149v2.575h2.575Z" transform="translate(-1483.188 -103.096)" fill="#3f3d56"/>
              <path id="Path_254" data-name="Path 254" d="M1515.878,128.192h3.866v2.575h-3.866Z" transform="translate(-1486.271 -102.447)" fill="#3f3d56"/>
              <path id="Path_255" data-name="Path 255" d="M1532.754,128.192h3.867v2.575h-3.867Z" transform="translate(-1483.837 -102.447)" fill="#3f3d56"/>
              <path id="Path_256" data-name="Path 256" d="M1496.754,154.067h2.573v3.866h-2.573Z" transform="translate(-1489.029 -98.714)" fill="#3f3d56"/>
              <path id="Path_257" data-name="Path 257" d="M1554.367,153.02a4.836,4.836,0,0,0-4.763-4.762,4.352,4.352,0,0,0-1.286.128l-15.574,4.5c-.129,0-.387.129-.515,0l-3.605-.644a5.251,5.251,0,0,0,2.061-6.95,5.052,5.052,0,0,0-4.506-2.7h-16.221a3.621,3.621,0,0,0-1.931.516l-2.574,1.673v-1.93H1490v21.882h15.446v-3.219l12.744,5.278a3.574,3.574,0,0,0,2.575.129l30.123-9.4A4.566,4.566,0,0,0,1554.367,153.02Zm-51.492,9.14h-10.3V145.425h5.149v7.724h2.574v-7.724h2.574Zm17.25,2.319a1.092,1.092,0,0,1-.9,0l-13.774-5.792V147.741l3.866-2.188a.955.955,0,0,1,.644-.129h16.086a2.575,2.575,0,1,1,.012,5.149h-9.025v1.287l-.257,1.286,14.8,2.445a3.683,3.683,0,0,0,1.673-.129l15.574-4.5a2.2,2.2,0,0,1,2.7,1.536l0,.01a2.122,2.122,0,0,1-1.345,2.682l-.071.022Z" transform="translate(-1490.003 -100.37)" fill="#3f3d56"/>
            </g>
          </g>
          <g id="Group_28" data-name="Group 28" transform="translate(556.769 9135.567)">
            <path id="Path_272" data-name="Path 272" d="M1520.2,271.883h20.7l8.475,8.063.753,18.068v9.434l-1.95,1.9h-27.913l-1.452-1.9V273.595Z" transform="translate(-1491.37 -270.598)" fill="#6c63ff"/>
            <g id="Computer-Accounting-File-Calculator-Financial">
              <path id="Path_258" data-name="Path 258" d="M1555.579,281.805h-1.1V280.7a1.1,1.1,0,0,0-.324-.78l-8.837-8.836a1.1,1.1,0,0,0-.78-.324h-19.883a3.314,3.314,0,0,0-3.313,3.314v7.732h-4.418v-7.732a3.313,3.313,0,0,0-3.314-3.314h-15.463a3.313,3.313,0,0,0-3.313,3.314v24.3a3.313,3.313,0,0,0,3.313,3.314h7.732v16.568a5.53,5.53,0,0,0,5.523,5.523h13.108l-.829,6.626h-1.233a3.314,3.314,0,1,0,0,6.627h22.091a3.314,3.314,0,0,0,0-6.627H1543.3l-.828-6.626h13.107a5.531,5.531,0,0,0,5.522-5.523V287.327A5.529,5.529,0,0,0,1555.579,281.805Zm-9.941-7.275,5.066,5.066h-3.962a1.1,1.1,0,0,1-1.1-1.1Zm-22.091-.457a1.1,1.1,0,0,1,1.1-1.105h18.778v5.523a3.313,3.313,0,0,0,3.313,3.314h5.523v25.4a1.1,1.1,0,0,1-1.1,1.1h-26.51a1.1,1.1,0,0,1-1.1-1.1Zm-26.509,24.3v-24.3a1.1,1.1,0,0,1,1.1-1.105h15.463a1.1,1.1,0,0,1,1.1,1.105v24.3a1.1,1.1,0,0,1-1.1,1.105h-15.463A1.1,1.1,0,0,1,1497.038,298.373Zm16.567,3.314a3.313,3.313,0,0,0,3.314-3.314V284.014h4.418v23.2a3.314,3.314,0,0,0,3.313,3.314h26.51a3.315,3.315,0,0,0,3.314-3.314v-23.2h1.1a3.314,3.314,0,0,1,3.314,3.314v25.4h-50.809V301.687Zm32.032,32.032a1.1,1.1,0,0,1-1.1,1.105h-22.091a1.1,1.1,0,1,1,0-2.21h22.091A1.1,1.1,0,0,1,1545.638,333.718Zm-4.565-3.314H1525.9l.828-6.626h13.513Zm14.507-8.836H1511.4a3.314,3.314,0,0,1-3.313-3.314v-3.314h50.809v3.314A3.314,3.314,0,0,1,1555.579,321.569Z" transform="translate(-1494.829 -270.76)" fill="#3f3d56"/>
              <path id="Path_259" data-name="Path 259" d="M1545.025,311.3h2.21v2.208h-2.21Z" transform="translate(-1487.589 -264.912)" fill="#3f3d56"/>
              <path id="Path_260" data-name="Path 260" d="M1510.84,282.343h-11.046a1.105,1.105,0,0,0-1.1,1.105v11.045a1.1,1.1,0,0,0,1.1,1.1h11.046a1.1,1.1,0,0,0,1.1-1.1V283.448A1.105,1.105,0,0,0,1510.84,282.343Zm-1.1,5.523h-3.314v-3.314h3.314Zm-5.522-3.314v3.314H1500.9v-3.314Zm-3.314,5.523h3.314v3.313H1500.9Zm5.522,3.313v-3.312h3.314v3.313Z" transform="translate(-1494.272 -269.089)" fill="#3f3d56"/>
              <path id="Path_261" data-name="Path 261" d="M1510.84,274.621h-11.046a1.1,1.1,0,0,0-1.1,1.1v4.418a1.1,1.1,0,0,0,1.1,1.105h11.046a1.1,1.1,0,0,0,1.1-1.105v-4.418A1.1,1.1,0,0,0,1510.84,274.621Zm-1.1,4.418H1500.9v-2.208h8.836Z" transform="translate(-1494.272 -270.203)" fill="#3f3d56"/>
              <path id="Path_262" data-name="Path 262" d="M1521.858,295.858H1532.9v2.208h-11.045Z" transform="translate(-1490.93 -267.14)" fill="#3f3d56"/>
              <path id="Path_263" data-name="Path 263" d="M1533.441,295.858h11.045v2.208h-11.045Z" transform="translate(-1489.26 -267.14)" fill="#3f3d56"/>
              <path id="Path_264" data-name="Path 264" d="M1521.858,299.719H1532.9v2.209h-11.045Z" transform="translate(-1490.93 -266.583)" fill="#3f3d56"/>
              <path id="Path_265" data-name="Path 265" d="M1533.441,299.719h11.045v2.209h-11.045Z" transform="translate(-1489.26 -266.583)" fill="#3f3d56"/>
              <path id="Path_266" data-name="Path 266" d="M1521.858,278.482H1532.9v2.21h-11.045Z" transform="translate(-1490.93 -269.646)" fill="#3f3d56"/>
              <path id="Path_267" data-name="Path 267" d="M1521.858,274.621h2.208v2.21h-2.208Z" transform="translate(-1490.93 -270.203)" fill="#3f3d56"/>
              <path id="Path_268" data-name="Path 268" d="M1525.719,274.621h6.627v2.21h-6.627Z" transform="translate(-1490.373 -270.203)" fill="#3f3d56"/>
              <path id="Path_269" data-name="Path 269" d="M1531.929,282.343v1.105a3.314,3.314,0,0,0,0,6.628h2.208a1.1,1.1,0,1,1,0,2.208h-2.208a1.106,1.106,0,0,1-1.105-1.1h-2.208a3.314,3.314,0,0,0,3.314,3.314v1.1h2.208v-1.1a3.314,3.314,0,1,0,0-6.627h-2.208a1.1,1.1,0,1,1,0-2.21h2.208a1.106,1.106,0,0,1,1.105,1.105h2.208a3.313,3.313,0,0,0-3.314-3.314v-1.105Z" transform="translate(-1489.955 -269.089)" fill="#3f3d56"/>
              <path id="Path_270" data-name="Path 270" d="M1538.268,287.17h2.208v2.21h-2.208Z" transform="translate(-1488.563 -268.393)" fill="#3f3d56"/>
              <path id="Path_271" data-name="Path 271" d="M1524.753,287.17h2.209v2.21h-2.209Z" transform="translate(-1490.513 -268.393)" fill="#3f3d56"/>
            </g>
          </g>
          <g id="Group_31" data-name="Group 31" transform="translate(341.608 9135.567)">
            <g id="Group_25" data-name="Group 25" transform="translate(0)">
              <circle id="Ellipse_10" data-name="Ellipse 10" cx="16.69" cy="16.69" r="16.69" transform="translate(34.194 33.373)" fill="#6c63ff"/>
              <g id="dashboard">
                <path id="Path_224" data-name="Path 224" d="M1785.952,148.028V126.655a7.621,7.621,0,1,0-8.72-7.542h-52.314v43.6h32.751a17.427,17.427,0,1,0,28.277-14.681Zm-1.091-34.365a5.45,5.45,0,1,1-5.449,5.45A5.45,5.45,0,0,1,1784.861,113.663Zm-57.763,7.631h50.455a7.635,7.635,0,0,0,1.205,2.381l-6.666,6.665a3.157,3.157,0,0,0-2.8,0l-2.2-2.2a3.222,3.222,0,0,0,.332-1.4,3.269,3.269,0,0,0-6.539,0,3.2,3.2,0,0,0,.332,1.4l-5.465,5.466a3.26,3.26,0,1,0,1.867,2.937h0a3.215,3.215,0,0,0-.332-1.4l5.466-5.465a3.159,3.159,0,0,0,2.8,0l2.2,2.2a3.238,3.238,0,0,0-.333,1.4,3.27,3.27,0,0,0,6.539.006v-.006a3.207,3.207,0,0,0-.331-1.4l6.668-6.666a7.576,7.576,0,0,0,3.47,1.436V146.53a17.333,17.333,0,0,0-21.8,3.581V145.27h-6.538v13.079h2.5a17.883,17.883,0,0,0-.263,2.179H1727.1Zm43.594,10.9a1.09,1.09,0,1,1-1.089,1.09h0A1.091,1.091,0,0,1,1770.692,132.192Zm-7.629-5.45a1.09,1.09,0,1,1,1.091,1.09h0A1.092,1.092,0,0,1,1763.063,126.742Zm-7.629,9.81a1.091,1.091,0,1,1-1.091-1.089h0A1.091,1.091,0,0,1,1755.435,136.551Zm19.617,33.786a8.719,8.719,0,1,1,8.72-8.719A8.719,8.719,0,0,1,1775.052,170.337ZM1759.794,153.2a17.288,17.288,0,0,0-1.3,2.974h-.884V147.45h2.18Zm14.166-6.779v4.36a10.878,10.878,0,0,0-8.837,15.316l-3.781,2.182a15.2,15.2,0,0,1,12.617-21.857Zm1.092,30.456a15.253,15.253,0,0,1-12.629-6.7l3.8-2.192a10.861,10.861,0,0,0,17.667,0l3.8,2.192A15.251,15.251,0,0,1,1775.052,176.873Zm13.709-8.6-3.781-2.182a10.876,10.876,0,0,0-8.837-15.316v-4.36a15.206,15.206,0,0,1,12.618,21.857Z" transform="translate(-1724.918 -111.491)" fill="#3f3d56"/>
                <path id="Path_225" data-name="Path 225" d="M1769.556,149.584a6.539,6.539,0,1,0,6.539,6.539h0A6.547,6.547,0,0,0,1769.556,149.584Zm0,10.9a4.36,4.36,0,1,1,4.361-4.359h0A4.365,4.365,0,0,1,1769.556,160.483Z" transform="translate(-1719.422 -105.996)" fill="#3f3d56"/>
                <path id="Path_226" data-name="Path 226" d="M1728.728,121.962h2.18v2.18h-2.18Z" transform="translate(-1724.368 -109.98)" fill="#3f3d56"/>
                <path id="Path_227" data-name="Path 227" d="M1732.538,121.962H1747.8v2.18h-15.259Z" transform="translate(-1723.819 -109.98)" fill="#3f3d56"/>
                <path id="Path_228" data-name="Path 228" d="M1728.728,125.772h2.18v2.18h-2.18Z" transform="translate(-1724.368 -109.431)" fill="#3f3d56"/>
                <path id="Path_229" data-name="Path 229" d="M1732.538,125.772H1747.8v2.18h-15.259Z" transform="translate(-1723.819 -109.431)" fill="#3f3d56"/>
                <path id="Path_230" data-name="Path 230" d="M1728.728,129.582h2.18v2.18h-2.18Z" transform="translate(-1724.368 -108.881)" fill="#3f3d56"/>
                <path id="Path_231" data-name="Path 231" d="M1732.538,129.582H1747.8v2.18h-15.259Z" transform="translate(-1723.819 -108.881)" fill="#3f3d56"/>
                <path id="Path_232" data-name="Path 232" d="M1728.728,133.392h2.18v2.18h-2.18Z" transform="translate(-1724.368 -108.332)" fill="#3f3d56"/>
                <path id="Path_233" data-name="Path 233" d="M1732.538,133.392H1747.8v2.18h-15.259Z" transform="translate(-1723.819 -108.332)" fill="#3f3d56"/>
                <path id="Path_234" data-name="Path 234" d="M1728.728,153.816h6.539v-10.9h-6.539Zm2.18-8.719h2.18v6.538h-2.18Z" transform="translate(-1724.368 -106.958)" fill="#3f3d56"/>
                <path id="Path_235" data-name="Path 235" d="M1736.348,153.541h6.539v-8.719h-6.539Zm2.18-6.539h2.179v4.358h-2.179Z" transform="translate(-1723.269 -106.683)" fill="#3f3d56"/>
                <path id="Path_236" data-name="Path 236" d="M1743.968,154.641h6.54V137.2h-6.54Zm2.18-15.259h2.18V152.46h-2.18Z" transform="translate(-1722.17 -107.782)" fill="#3f3d56"/>
              </g>
            </g>
          </g>
          <g id="Group_2192" data-name="Group 2192" transform="translate(339.615 9406.511)">
            <g id="Group_2029" data-name="Group 2029" style="isolation: isolate">
              <path id="Path_10286" data-name="Path 10286" d="M1500.667,535.737v-1.52h4.218v7.507a27.119,27.119,0,0,1-4.961.528q-3.334,0-4.628-1.921t-1.3-5.926q0-4.008,1.291-5.946t4.588-1.936a21.615,21.615,0,0,1,4.261.444l.744.139-.064,1.413a29.147,29.147,0,0,0-4.747-.462q-2.545,0-3.424,1.466a13.976,13.976,0,0,0,0,9.763q.879,1.468,3.4,1.467a17.111,17.111,0,0,0,3.16-.3v-4.714Z" transform="translate(-1494 -526.525)" fill="#3f3d56"/>
              <path id="Path_10287" data-name="Path 10287" d="M1514.057,533.789v5.663c.043.546.471.872,1.284.971l-.064,1.3a3.6,3.6,0,0,1-2.633-.874,9.575,9.575,0,0,1-3.968.874,3.02,3.02,0,0,1-2.32-.858,3.491,3.491,0,0,1-.8-2.47,3.122,3.122,0,0,1,.813-2.378,4.283,4.283,0,0,1,2.562-.94l3.474-.335v-.949a2.215,2.215,0,0,0-.485-1.606,1.8,1.8,0,0,0-1.326-.486,32.412,32.412,0,0,0-3.669.216l-.69.065-.065-1.251a22.1,22.1,0,0,1,4.309-.487,3.073,3.073,0,0,1,3.576,3.549Zm-6.795,4.509q0,2.027,1.671,2.028a9.017,9.017,0,0,0,2.967-.508l.507-.171V536l-3.268.314a2.128,2.128,0,0,0-1.435.571A2.028,2.028,0,0,0,1507.263,538.3Z" transform="translate(-1492.333 -525.989)" fill="#3f3d56"/>
              <path id="Path_10288" data-name="Path 10288" d="M1517.5,541.5h-1.661V530.455h1.64v.778a6.289,6.289,0,0,1,3.224-.994,3.333,3.333,0,0,1,2.871,1.122,8.018,8.018,0,0,1,1.893-.78,7.348,7.348,0,0,1,2.043-.342q2.212,0,2.972,1.183a8.407,8.407,0,0,1,.76,4.243V541.5h-1.66v-5.793a7.588,7.588,0,0,0-.443-3.144,1.915,1.915,0,0,0-1.877-.846,5.73,5.73,0,0,0-1.5.209,7.912,7.912,0,0,0-1.191.405l-.409.2a10.841,10.841,0,0,1,.279,3.226V541.5h-1.65v-5.695a8.145,8.145,0,0,0-.431-3.238q-.432-.85-1.9-.85a5.244,5.244,0,0,0-1.445.209,7.282,7.282,0,0,0-1.133.405l-.378.2Z" transform="translate(-1490.85 -525.989)" fill="#3f3d56"/>
              <path id="Path_10289" data-name="Path 10289" d="M1531.982,528.494v-1.931h1.66v1.931Zm0,13.537V530.985h1.66v11.046Z" transform="translate(-1488.522 -526.52)" fill="#3f3d56"/>
              <path id="Path_10290" data-name="Path 10290" d="M1537.865,541.5h-1.66V530.455h1.64v.778a7.069,7.069,0,0,1,3.419-.994q2.213,0,2.978,1.192a8.38,8.38,0,0,1,.765,4.234V541.5h-1.64v-5.793a7.459,7.459,0,0,0-.451-3.144,1.994,1.994,0,0,0-1.932-.846,5.775,5.775,0,0,0-1.494.209,7.871,7.871,0,0,0-1.2.405l-.421.2Z" transform="translate(-1487.912 -525.989)" fill="#3f3d56"/>
              <path id="Path_10291" data-name="Path 10291" d="M1550.9,546.689a6.953,6.953,0,0,1-3.705-.716,2.943,2.943,0,0,1-1.052-2.617,2.466,2.466,0,0,1,.4-1.464,6.324,6.324,0,0,1,1.348-1.275,1.71,1.71,0,0,1-.615-1.519,3.792,3.792,0,0,1,.549-1.392l.195-.355q-1.748-.8-1.737-3.333,0-3.774,4.132-3.777a8.519,8.519,0,0,1,1.963.216l.335.067,3.268-.087v1.413l-2.1-.044a3.006,3.006,0,0,1,.734,2.212,3.531,3.531,0,0,1-1.03,2.905,5.146,5.146,0,0,1-3.231.826,6.177,6.177,0,0,1-1.089-.087,4.666,4.666,0,0,0-.4,1.252c0,.453.139.737.42.854a10.177,10.177,0,0,0,2.541.173,5.4,5.4,0,0,1,3.047.657,3,3,0,0,1,.928,2.59Q1555.8,546.69,1550.9,546.689Zm-3.118-3.46a1.828,1.828,0,0,0,.653,1.621,4.557,4.557,0,0,0,2.406.449,4.885,4.885,0,0,0,2.518-.486,1.775,1.775,0,0,0,.766-1.623c0-.76-.185-1.247-.554-1.468a4.8,4.8,0,0,0-2.164-.327l-2.383-.109a3.847,3.847,0,0,0-.988.928A1.862,1.862,0,0,0,1547.778,543.228Zm.152-9.212a2.453,2.453,0,0,0,.588,1.854,2.781,2.781,0,0,0,1.936.552,2.72,2.72,0,0,0,1.92-.552,3.341,3.341,0,0,0,0-3.737,3.588,3.588,0,0,0-3.856.011A2.514,2.514,0,0,0,1547.931,534.016Z" transform="translate(-1486.479 -525.989)" fill="#3f3d56"/>
            </g>
          </g>
          <g id="Group_2193" data-name="Group 2193" transform="translate(130.431 9408.503)" style="isolation: isolate">
            <path id="Path_10302" data-name="Path 10302" d="M1740.856,367.449h1.77l-4,15.285h-3.8l-4-15.285h1.77l3.514,13.785h1.231Z" transform="translate(-1730.826 -366.878)" fill="#3f3d56"/>
            <path id="Path_10303" data-name="Path 10303" d="M1742.977,369.22v-1.932h1.66v1.932Zm0,13.538V371.711h1.66v11.047Z" transform="translate(-1729.074 -366.901)" fill="#3f3d56"/>
            <path id="Path_10304" data-name="Path 10304" d="M1755.749,366.95v15.856h-1.638v-.755a6.75,6.75,0,0,1-3.356.971,5.028,5.028,0,0,1-1.547-.216,3.072,3.072,0,0,1-1.236-.8q-1.2-1.2-1.2-4.408a7.793,7.793,0,0,1,1.074-4.632,4.151,4.151,0,0,1,3.542-1.425,14.072,14.072,0,0,1,2.719.283V366.95Zm-5.742,14.443a2.928,2.928,0,0,0,1.024.15,5.509,5.509,0,0,0,1.412-.209,8.762,8.762,0,0,0,1.224-.405l.444-.2v-7.484a13.438,13.438,0,0,0-2.621-.26,2.542,2.542,0,0,0-2.348,1.068,6.488,6.488,0,0,0-.661,3.324q0,2.566.776,3.451A1.9,1.9,0,0,0,1750.007,381.393Z" transform="translate(-1728.525 -366.95)" fill="#3f3d56"/>
            <path id="Path_10305" data-name="Path 10305" d="M1764.989,380.857l.636-.066.043,1.305a30.267,30.267,0,0,1-4.3.347,3.89,3.89,0,0,1-3.381-1.381,7.388,7.388,0,0,1-1-4.293q0-5.817,4.615-5.8a4.236,4.236,0,0,1,3.341,1.247,5.8,5.8,0,0,1,1.1,3.92l-.085,1.252h-7.292a4.519,4.519,0,0,0,.665,2.719,2.7,2.7,0,0,0,2.307.885Q1763.284,380.986,1764.989,380.857Zm-.6-4.79a4.8,4.8,0,0,0-.649-2.869,2.5,2.5,0,0,0-2.118-.842,2.729,2.729,0,0,0-2.212.879,4.467,4.467,0,0,0-.762,2.832Z" transform="translate(-1727.053 -366.371)" fill="#3f3d56"/>
            <path id="Path_10306" data-name="Path 10306" d="M1766.733,376.682a7,7,0,0,1,1.084-4.373,5.632,5.632,0,0,1,7.3,0,7.05,7.05,0,0,1,1.073,4.373,7.471,7.471,0,0,1-1.015,4.4q-1.013,1.364-3.711,1.365t-3.715-1.365A7.442,7.442,0,0,1,1766.733,376.682Zm1.705-.032a7.017,7.017,0,0,0,.587,3.388,2.658,2.658,0,0,0,2.455.969q1.867,0,2.437-.96a7.11,7.11,0,0,0,.573-3.386,6.208,6.208,0,0,0-.642-3.345,2.709,2.709,0,0,0-2.373-.916,2.737,2.737,0,0,0-2.385.916A6.09,6.09,0,0,0,1768.438,376.65Z" transform="translate(-1725.647 -366.371)" fill="#3f3d56"/>
          </g>
          <g id="Group_2194" data-name="Group 2194" transform="translate(491.025 9406.511)">
            <g id="Group_2050" data-name="Group 2050">
              <path id="Path_10307" data-name="Path 10307" d="M1666.363,542.009V526.724h9.3v1.5h-7.594v5.285h6.268v1.48h-6.268v5.521h7.594v1.5Z" transform="translate(-1666.363 -526.153)" fill="#3f3d56"/>
              <path id="Path_10308" data-name="Path 10308" d="M1685.161,526.225v15.856h-1.641v-.756a6.729,6.729,0,0,1-3.353.973,5.058,5.058,0,0,1-1.55-.216,3.055,3.055,0,0,1-1.233-.8q-1.2-1.2-1.2-4.407a7.813,7.813,0,0,1,1.073-4.632,4.159,4.159,0,0,1,3.542-1.425,14.033,14.033,0,0,1,2.719.283v-4.876Zm-5.745,14.443a2.953,2.953,0,0,0,1.026.15,5.567,5.567,0,0,0,1.413-.209,8.983,8.983,0,0,0,1.224-.405l.441-.2v-7.484a13.42,13.42,0,0,0-2.62-.26,2.539,2.539,0,0,0-2.346,1.066,6.48,6.48,0,0,0-.665,3.324q0,2.568.778,3.452A1.9,1.9,0,0,0,1679.417,540.668Z" transform="translate(-1664.946 -526.225)" fill="#3f3d56"/>
              <path id="Path_10309" data-name="Path 10309" d="M1693.726,530.428h1.661v11.046h-1.661V540.7a6.373,6.373,0,0,1-3.269.992q-2.252,0-2.993-1.172a8.781,8.781,0,0,1-.739-4.318v-5.773h1.662v5.738a8.115,8.115,0,0,0,.421,3.226q.418.818,1.9.819a5.537,5.537,0,0,0,1.483-.21,7.051,7.051,0,0,0,1.149-.405l.389-.2Z" transform="translate(-1663.426 -525.619)" fill="#3f3d56"/>
              <path id="Path_10310" data-name="Path 10310" d="M1701.255,530.239a19.579,19.579,0,0,1,2.483.26l.528.066-.064,1.347c-1.181-.13-2.05-.193-2.612-.193a3.035,3.035,0,0,0-2.551.894,5.831,5.831,0,0,0-.674,3.313,6.449,6.449,0,0,0,.631,3.365q.632.949,2.617.949l2.609-.193.066,1.37a21.027,21.027,0,0,1-3.073.3q-2.591,0-3.572-1.323a7.712,7.712,0,0,1-.98-4.471q0-3.15,1.063-4.418A4.372,4.372,0,0,1,1701.255,530.239Z" transform="translate(-1661.993 -525.646)" fill="#3f3d56"/>
              <path id="Path_10311" data-name="Path 10311" d="M1713.361,533.789v5.663c.044.546.472.872,1.286.971l-.066,1.3a3.6,3.6,0,0,1-2.632-.874,9.579,9.579,0,0,1-3.969.874,3.018,3.018,0,0,1-2.32-.858,3.494,3.494,0,0,1-.8-2.47,3.125,3.125,0,0,1,.813-2.378,4.279,4.279,0,0,1,2.562-.94l3.474-.335v-.949a2.213,2.213,0,0,0-.485-1.606,1.8,1.8,0,0,0-1.326-.486,32.352,32.352,0,0,0-3.667.216l-.692.065-.063-1.251a22.072,22.072,0,0,1,4.309-.487,3.071,3.071,0,0,1,3.573,3.549Zm-6.793,4.509q0,2.027,1.671,2.028a9,9,0,0,0,2.966-.508l.508-.171V536l-3.267.314a2.125,2.125,0,0,0-1.436.571A2.021,2.021,0,0,0,1706.568,538.3Z" transform="translate(-1660.809 -525.646)" fill="#3f3d56"/>
              <path id="Path_10312" data-name="Path 10312" d="M1721,532.29h-3.518v5.285a7.074,7.074,0,0,0,.276,2.491q.275.594,1.322.594l1.963-.129.107,1.37a14.664,14.664,0,0,1-2.255.247,2.873,2.873,0,0,1-2.385-.841,5.535,5.535,0,0,1-.657-3.2V532.29h-1.574v-1.436h1.574v-3.377h1.628v3.377H1721Z" transform="translate(-1659.451 -526.044)" fill="#3f3d56"/>
              <path id="Path_10313" data-name="Path 10313" d="M1721.916,528.494v-1.931h1.662v1.931Zm0,13.537V530.985h1.662v11.046Z" transform="translate(-1658.349 -526.176)" fill="#3f3d56"/>
              <path id="Path_10314" data-name="Path 10314" d="M1725.716,535.957a7,7,0,0,1,1.082-4.373,5.631,5.631,0,0,1,7.3,0,7.045,7.045,0,0,1,1.073,4.373,7.472,7.472,0,0,1-1.014,4.4q-1.014,1.366-3.711,1.366t-3.715-1.366A7.422,7.422,0,0,1,1725.716,535.957Zm1.7-.032a7.01,7.01,0,0,0,.587,3.388,2.657,2.657,0,0,0,2.454.969q1.867,0,2.437-.96a7.1,7.1,0,0,0,.573-3.386,6.2,6.2,0,0,0-.642-3.345,3.544,3.544,0,0,0-4.757,0A6.069,6.069,0,0,0,1727.42,535.925Z" transform="translate(-1657.802 -525.646)" fill="#3f3d56"/>
              <path id="Path_10315" data-name="Path 10315" d="M1737.99,541.5h-1.66V530.455h1.64v.778a7.064,7.064,0,0,1,3.419-.994q2.212,0,2.975,1.192a8.34,8.34,0,0,1,.768,4.234V541.5h-1.641v-5.793a7.412,7.412,0,0,0-.453-3.144,1.99,1.99,0,0,0-1.931-.846,5.773,5.773,0,0,0-1.492.209,7.814,7.814,0,0,0-1.2.405l-.421.2Z" transform="translate(-1656.271 -525.646)" fill="#3f3d56"/>
            </g>
            <g id="Group_2049" data-name="Group 2049" transform="translate(95.473)">
              <path id="Path_10316" data-name="Path 10316" d="M1749.8,528.243v-1.519h11.046v1.519h-4.671v13.765H1754.5V528.243Z" transform="translate(-1749.801 -526.153)" fill="#3f3d56"/>
              <path id="Path_10317" data-name="Path 10317" d="M1766.911,540.132l.635-.067.043,1.306a30.36,30.36,0,0,1-4.3.347,3.894,3.894,0,0,1-3.384-1.381,7.407,7.407,0,0,1-1-4.293q0-5.817,4.617-5.8a4.235,4.235,0,0,1,3.338,1.247,5.8,5.8,0,0,1,1.1,3.92l-.087,1.251h-7.291a4.539,4.539,0,0,0,.664,2.719,2.712,2.712,0,0,0,2.309.886C1764.659,540.261,1765.773,540.218,1766.911,540.132Zm-.605-4.79a4.83,4.83,0,0,0-.645-2.868,2.508,2.508,0,0,0-2.121-.842,2.733,2.733,0,0,0-2.212.879,4.467,4.467,0,0,0-.76,2.832Z" transform="translate(-1748.487 -525.646)" fill="#3f3d56"/>
              <path id="Path_10318" data-name="Path 10318" d="M1773.268,530.239a19.575,19.575,0,0,1,2.479.26l.53.066-.066,1.347a26.107,26.107,0,0,0-2.609-.193,3.034,3.034,0,0,0-2.551.894,5.814,5.814,0,0,0-.676,3.313,6.453,6.453,0,0,0,.632,3.365,2.956,2.956,0,0,0,2.615.949l2.612-.193.064,1.37a21,21,0,0,1-3.073.3q-2.589,0-3.57-1.323a7.691,7.691,0,0,1-.983-4.471q0-3.15,1.063-4.418A4.38,4.38,0,0,1,1773.268,530.239Z" transform="translate(-1747.079 -525.646)" fill="#3f3d56"/>
              <path id="Path_10319" data-name="Path 10319" d="M1779.148,542.081h-1.662V526.225h1.662v5.424a7.807,7.807,0,0,1,3.4-.831q2.211,0,2.975,1.192a8.354,8.354,0,0,1,.766,4.234v5.837h-1.66v-5.793a7.452,7.452,0,0,0-.453-3.144,1.968,1.968,0,0,0-1.911-.845,7.376,7.376,0,0,0-2.7.507l-.421.15Z" transform="translate(-1745.807 -526.225)" fill="#3f3d56"/>
              <path id="Path_10320" data-name="Path 10320" d="M1789.508,541.5h-1.66V530.455h1.638v.778a7.078,7.078,0,0,1,3.42-.994,3.288,3.288,0,0,1,2.979,1.192,8.393,8.393,0,0,1,.764,4.234V541.5h-1.638v-5.793a7.447,7.447,0,0,0-.453-3.144,1.99,1.99,0,0,0-1.931-.846,5.779,5.779,0,0,0-1.495.209,7.885,7.885,0,0,0-1.2.405l-.421.2Z" transform="translate(-1744.312 -525.646)" fill="#3f3d56"/>
              <path id="Path_10321" data-name="Path 10321" d="M1797.784,535.957a7,7,0,0,1,1.083-4.373,5.631,5.631,0,0,1,7.3,0,7.045,7.045,0,0,1,1.073,4.373,7.458,7.458,0,0,1-1.015,4.4q-1.013,1.366-3.711,1.366t-3.715-1.366A7.434,7.434,0,0,1,1797.784,535.957Zm1.7-.032a7.009,7.009,0,0,0,.587,3.388,2.656,2.656,0,0,0,2.454.969q1.867,0,2.437-.96a7.1,7.1,0,0,0,.573-3.386,6.208,6.208,0,0,0-.641-3.345,3.545,3.545,0,0,0-4.758,0A6.083,6.083,0,0,0,1799.487,535.925Z" transform="translate(-1742.879 -525.646)" fill="#3f3d56"/>
              <path id="Path_10322" data-name="Path 10322" d="M1808.521,542.081V526.225h1.649v15.856Z" transform="translate(-1741.331 -526.225)" fill="#3f3d56"/>
              <path id="Path_10323" data-name="Path 10323" d="M1812.432,535.957a6.981,6.981,0,0,1,1.085-4.373,5.628,5.628,0,0,1,7.3,0,7.037,7.037,0,0,1,1.073,4.373,7.467,7.467,0,0,1-1.012,4.4q-1.017,1.366-3.711,1.366t-3.717-1.366A7.444,7.444,0,0,1,1812.432,535.957Zm1.7-.032a6.981,6.981,0,0,0,.589,3.388,2.652,2.652,0,0,0,2.452.969,2.624,2.624,0,0,0,2.439-.96,7.135,7.135,0,0,0,.571-3.386,6.209,6.209,0,0,0-.642-3.345,2.7,2.7,0,0,0-2.374-.917,2.735,2.735,0,0,0-2.384.917A6.1,6.1,0,0,0,1814.136,535.925Z" transform="translate(-1740.767 -525.646)" fill="#3f3d56"/>
              <path id="Path_10324" data-name="Path 10324" d="M1827.38,546.689a6.946,6.946,0,0,1-3.7-.716,2.938,2.938,0,0,1-1.054-2.617,2.464,2.464,0,0,1,.4-1.464,6.326,6.326,0,0,1,1.346-1.275,1.711,1.711,0,0,1-.614-1.519,3.8,3.8,0,0,1,.55-1.392l.193-.355q-1.748-.8-1.736-3.333,0-3.774,4.132-3.777a8.519,8.519,0,0,1,1.963.216l.334.067,3.268-.087v1.413l-2.1-.044a3,3,0,0,1,.734,2.212,3.532,3.532,0,0,1-1.031,2.905,5.146,5.146,0,0,1-3.23.826,6.206,6.206,0,0,1-1.091-.087,4.721,4.721,0,0,0-.4,1.252c0,.453.141.737.421.854a10.158,10.158,0,0,0,2.539.173,5.4,5.4,0,0,1,3.049.657,3,3,0,0,1,.929,2.59Q1832.289,546.69,1827.38,546.689Zm-3.117-3.46a1.83,1.83,0,0,0,.652,1.621,4.552,4.552,0,0,0,2.405.449,4.879,4.879,0,0,0,2.519-.486,1.776,1.776,0,0,0,.766-1.623c0-.76-.186-1.247-.555-1.468a4.8,4.8,0,0,0-2.163-.327l-2.385-.109a3.875,3.875,0,0,0-.987.928A1.866,1.866,0,0,0,1824.263,543.228Zm.15-9.212a2.446,2.446,0,0,0,.59,1.854,2.783,2.783,0,0,0,1.936.552,2.721,2.721,0,0,0,1.92-.552,3.342,3.342,0,0,0,0-3.737,3.588,3.588,0,0,0-3.856.011A2.506,2.506,0,0,0,1824.413,534.016Z" transform="translate(-1739.297 -525.646)" fill="#3f3d56"/>
              <path id="Path_10325" data-name="Path 10325" d="M1832.059,530.428h1.66l2.762,9.61h.723l2.783-9.61h1.662l-4.6,15.953h-1.661l1.444-4.907H1835.2Z" transform="translate(-1737.935 -525.619)" fill="#3f3d56"/>
            </g>
          </g>
          <g id="Group_30" data-name="Group 30" transform="translate(337.623 9310.884)">
            <path id="Path_288" data-name="Path 288" d="M1508.163,443.68l3.142-3.646,4.094-3.073,5.059-1.469,5.626-.724,5.65.724,5.312,1.469,3.771,3.073,3.063,3.646-17.8,11.819Z" transform="translate(-1488.465 -433.77)" fill="#6c63ff"/>
            <circle id="Ellipse_11" data-name="Ellipse 11" cx="5.338" cy="5.338" r="5.338" transform="translate(23.144 37.945)" fill="#6c63ff"/>
            <g id="Group_2031" data-name="Group 2031" transform="translate(51.617 28.454)">
              <circle id="Ellipse_13" data-name="Ellipse 13" cx="1.779" cy="1.779" r="1.779" transform="translate(4.745)" fill="#6c63ff"/>
              <circle id="Ellipse_14" data-name="Ellipse 14" cx="1.779" cy="1.779" r="1.779" transform="translate(9.491 4.746)" fill="#6c63ff"/>
              <circle id="Ellipse_15" data-name="Ellipse 15" cx="1.779" cy="1.779" r="1.779" transform="translate(4.745 9.491)" fill="#6c63ff"/>
              <circle id="Ellipse_16" data-name="Ellipse 16" cx="1.779" cy="1.779" r="1.779" transform="translate(0 4.746)" fill="#6c63ff"/>
            </g>
            <circle id="Ellipse_12" data-name="Ellipse 12" cx="5.338" cy="5.338" r="5.338" transform="translate(42.127 37.945)" fill="#6c63ff"/>
            <path id="Path_287" data-name="Path 287" d="M1505.109,459.8c1.649,2.179,5.339,2.39,5.339,5.338.71,2.158-1.049,1.817-1.869,3.249-.9,1.608-2.02,3.593-3.469,2.774-.972-.552-1.566-1.76-2.8-2.774-1.016-.815-2.54-1.549-2.54-3.249,0-1.341,1.9-1.191,2.969-2.4C1503.467,461.886,1503.5,459.8,1505.109,459.8Z" transform="translate(-1489.675 -430.159)" fill="#6c63ff"/>
            <g id="game-controller">
              <path id="Path_273" data-name="Path 273" d="M1524.756,444.163c-3.544,0-6.573,1.525-7.9,3.976a1.092,1.092,0,1,0,1.9,1.071l.017-.031c.933-1.722,3.282-2.835,5.981-2.835s5.049,1.113,5.983,2.835a1.092,1.092,0,1,0,1.937-1.009l-.016-.031C1531.329,445.688,1528.3,444.163,1524.756,444.163Z" transform="translate(-1487.231 -432.415)" fill="#3f3d56"/>
              <path id="Path_274" data-name="Path 274" d="M1536.553,446.3a1.092,1.092,0,0,0,1.92-1.04c-2.177-4.02-7.186-6.516-13.069-6.516s-10.891,2.5-13.07,6.516a1.092,1.092,0,0,0,1.921,1.04c1.8-3.314,6.068-5.372,11.149-5.372S1534.757,442.991,1536.553,446.3Z" transform="translate(-1487.88 -433.196)" fill="#3f3d56"/>
              <path id="Path_275" data-name="Path 275" d="M1507.991,444.577a1.093,1.093,0,0,0,1.481-.441h0c2.694-4.971,9.065-8.062,16.625-8.062s13.929,3.092,16.626,8.062a1.092,1.092,0,1,0,1.92-1.041c-3.079-5.673-10.186-9.2-18.552-9.2s-15.463,3.525-18.546,9.2a1.091,1.091,0,0,0,.443,1.48Z" transform="translate(-1488.573 -433.896)" fill="#3f3d56"/>
              <path id="Path_276" data-name="Path 276" d="M1542.435,463.735a2.843,2.843,0,1,0-2.844-2.842A2.843,2.843,0,0,0,1542.435,463.735Zm0-3.5a.663.663,0,0,1,.654.664.656.656,0,1,1-.654-.664Z" transform="translate(-1483.931 -430.412)" fill="#3f3d56"/>
              <path id="Path_277" data-name="Path 277" d="M1542.435,465.9a2.844,2.844,0,1,0,2.84,2.848v0A2.847,2.847,0,0,0,1542.435,465.9Zm0,3.5a.663.663,0,1,1,.654-.671v.008A.663.663,0,0,1,1542.435,469.4Z" transform="translate(-1483.932 -429.279)" fill="#3f3d56"/>
              <path id="Path_278" data-name="Path 278" d="M1541.349,464.819a2.844,2.844,0,1,0-2.844,2.843A2.844,2.844,0,0,0,1541.349,464.819Zm-2.844.663a.663.663,0,1,1,.663-.663.663.663,0,0,1-.663.663Z" transform="translate(-1484.498 -429.845)" fill="#3f3d56"/>
              <path id="Path_279" data-name="Path 279" d="M1546.364,461.976a2.844,2.844,0,1,0,2.842,2.844h0A2.846,2.846,0,0,0,1546.364,461.976Zm0,3.5a.663.663,0,1,1,.662-.663.662.662,0,0,1-.662.663Z" transform="translate(-1483.364 -429.846)" fill="#3f3d56"/>
              <path id="Path_280" data-name="Path 280" d="M1515.312,468.115a5.177,5.177,0,1,0,5.178,5.178A5.177,5.177,0,0,0,1515.312,468.115Zm0,8.173a2.992,2.992,0,1,1,2.993-2.992,2.992,2.992,0,0,1-2.993,2.992Z" transform="translate(-1488.18 -428.96)" fill="#3f3d56"/>
              <path id="Path_281" data-name="Path 281" d="M1565.067,483.429l-5.261-21.721a11.728,11.728,0,0,0-4.469-7.078,10.168,10.168,0,0,0-1.445-.858v-.442a4.125,4.125,0,0,0-4.119-4.123h-2.448a4.127,4.127,0,0,0-4.125,4.123v.622a5.425,5.425,0,0,0-2,1.713h-10.537a1.092,1.092,0,1,0,0,2.184h10.137v2.232a2.237,2.237,0,0,1-2.232,2.237h-20.608a2.239,2.239,0,0,1-2.236-2.237V457.85h9.894a1.092,1.092,0,0,0,0-2.184h-10.293a5.421,5.421,0,0,0-1.989-1.711v-.633a4.129,4.129,0,0,0-4.124-4.125h-2.452a4.13,4.13,0,0,0-4.125,4.125v.442a10.346,10.346,0,0,0-1.436.856,11.719,11.719,0,0,0-4.471,7.079l-5.262,21.73a11.968,11.968,0,0,0,.37,8.036,7.309,7.309,0,0,0,4.577,3.9c4.46,1.372,9.682-.918,11.176-4.9l2.526-6.737c.325-.866.584-.977.586-.978.03-.007.228.019.6.293,3.534,3.214,9.336,3.076,13.153-.255h7.612a10.548,10.548,0,0,0,6.368,2.581,9.248,9.248,0,0,0,6.787-2.326c.422-.309.6-.3.6-.293s.26.111.586.977l2.524,6.737c1.2,3.195,4.8,5.3,8.477,5.3a9.145,9.145,0,0,0,2.705-.4,7.3,7.3,0,0,0,4.574-3.9A11.962,11.962,0,0,0,1565.067,483.429Zm-17.742-32.043h2.449a1.94,1.94,0,0,1,1.9,1.593,12.216,12.216,0,0,0-2.844-.34h-.045a12.914,12.914,0,0,0-3.386.45A1.943,1.943,0,0,1,1547.325,451.386Zm-40.556,0h2.445a1.94,1.94,0,0,1,1.922,1.7,12.918,12.918,0,0,0-3.385-.451h-.038a12.27,12.27,0,0,0-2.851.34,1.942,1.942,0,0,1,1.9-1.593Zm52.713,41.888c-3.025.93-7.3-.4-8.494-3.578l-2.525-6.737a3.35,3.35,0,0,0-2.023-2.306,2.88,2.88,0,0,0-2.563.675,1.071,1.071,0,0,0-.083.069c-2.811,2.585-7.542,2.364-10.542-.492a1.094,1.094,0,0,0-.754-.3h-8.458a1.091,1.091,0,0,0-.753.3c-3,2.857-7.732,3.078-10.542.492a.836.836,0,0,0-.084-.07,2.879,2.879,0,0,0-2.566-.674,3.339,3.339,0,0,0-2.02,2.307l-2.528,6.737c-1.191,3.176-5.463,4.508-8.489,3.579-3.385-1.043-4.649-4.443-3.464-9.331l5.263-21.721c.951-3.923,3.061-5.809,5.162-6.686a1.113,1.113,0,0,0,.25-.1,9.866,9.866,0,0,1,3.451-.612,10.269,10.269,0,0,1,4.066.8l.053.024a3.435,3.435,0,0,1,1.707,1.291v3.152a4.425,4.425,0,0,0,4.418,4.418h20.613a4.424,4.424,0,0,0,4.418-4.418v-3.154a3.386,3.386,0,0,1,1.67-1.276,1.039,1.039,0,0,0,.154-.067,10.242,10.242,0,0,1,3.978-.768h.039a9.87,9.87,0,0,1,3.447.613,1.058,1.058,0,0,0,.247.1c2.1.877,4.213,2.761,5.164,6.686l5.262,21.721C1564.129,488.83,1562.867,492.231,1559.481,493.274Z" transform="translate(-1490.948 -431.689)" fill="#3f3d56"/>
              <path id="Path_282" data-name="Path 282" d="M1533.868,468.115a5.177,5.177,0,1,0,5.177,5.178A5.177,5.177,0,0,0,1533.868,468.115Zm0,8.173a2.992,2.992,0,1,1,2.992-2.992,2.992,2.992,0,0,1-2.992,2.992Z" transform="translate(-1485.503 -428.96)" fill="#3f3d56"/>
              <path id="Path_283" data-name="Path 283" d="M1509.413,462.436h-.331V462.1a3.352,3.352,0,0,0-6.7,0h0v.332h-.33a3.351,3.351,0,1,0,0,6.7h.33v.332a3.352,3.352,0,0,0,6.7,0v-.332h.331a3.351,3.351,0,1,0,0-6.7Zm0,4.519h-1.423a1.093,1.093,0,0,0-1.093,1.093v1.424a1.166,1.166,0,1,1-2.332,0h0v-1.424a1.092,1.092,0,0,0-1.093-1.093h-1.425a1.167,1.167,0,1,1,0-2.334h1.425a1.093,1.093,0,0,0,1.093-1.092V462.1a1.166,1.166,0,1,1,2.332,0h0v1.426a1.093,1.093,0,0,0,1.093,1.092h1.424a1.167,1.167,0,1,1,0,2.334Z" transform="translate(-1489.83 -430.311)" fill="#3f3d56"/>
              <path id="Path_284" data-name="Path 284" d="M1521.4,465.5h-1.586a1.092,1.092,0,0,0,0,2.184h1.586a1.092,1.092,0,0,0,0-2.184Z" transform="translate(-1486.942 -429.337)" fill="#3f3d56"/>
              <path id="Path_285" data-name="Path 285" d="M1527.793,465.5H1526.2a1.092,1.092,0,0,0,0,2.184h1.594a1.092,1.092,0,0,0,0-2.184Z" transform="translate(-1486.02 -429.337)" fill="#3f3d56"/>
              <path id="Path_286" data-name="Path 286" d="M1524.964,470.508h-1.586a1.093,1.093,0,0,0,0,2.186h1.591a1.093,1.093,0,0,0,0-2.186Z" transform="translate(-1486.428 -428.615)" fill="#3f3d56"/>
            </g>
          </g>
          <g id="Group_27" data-name="Group 27" transform="translate(124.454 9308.892)">
            <rect id="Rectangle_12" data-name="Rectangle 12" width="56.332" height="13.255" transform="translate(3.31 29.204)" fill="#6c63ff"/>
            <g id="video-2">
              <path id="Path_289" data-name="Path 289" d="M1785.375,301.268h-45.588l43.789-12.68a1.337,1.337,0,0,0,.912-1.656h0l-2.292-7.91a7.444,7.444,0,0,0-9.212-5.074l-41.114,11.91a7.454,7.454,0,0,0-5.073,9.212l2.238,7.732v31.832a7.446,7.446,0,0,0,7.437,7.438h16.057a1.337,1.337,0,0,0,0-2.673h-16.056a4.769,4.769,0,0,1-4.763-4.765V316.45h52.329v18.183a4.77,4.77,0,0,1-4.763,4.765h-16.058a1.337,1.337,0,0,0,0,2.673h16.058a7.445,7.445,0,0,0,7.436-7.438V302.608a1.336,1.336,0,0,0-1.333-1.34Zm-23.561,12.509,5.677-9.831h7.384l-5.678,9.831Zm-10.471,0,5.677-9.831h7.384l-5.678,9.831Zm-10.47,0,5.677-9.831h7.385l-5.677,9.831Zm4.971-17.3-9.511-9.128,7.124-2.063a1.253,1.253,0,0,0,.175.207l9.506,9.131-7.122,2.058a1.378,1.378,0,0,0-.175-.206Zm17.9-16.815,9.508,9.131-7.124,2.063a1.33,1.33,0,0,0-.175-.206l-9.507-9.131,7.123-2.064A1.312,1.312,0,0,0,1763.746,279.663Zm-10.056,2.913,9.508,9.132-7.124,2.064a1.285,1.285,0,0,0-.175-.207l-9.508-9.132,7.124-2.063A1.416,1.416,0,0,0,1753.69,282.577Zm20.038-6.062a4.683,4.683,0,0,1,1.315-.188,4.792,4.792,0,0,1,4.588,3.438l1.92,6.627-5.361,1.553a1.394,1.394,0,0,0-.177-.207l-9.508-9.131Zm-43.954,14.191a4.728,4.728,0,0,1,2.841-2.281l.785-.228a1.337,1.337,0,0,0,.176.206l9.507,9.132-11.8,3.417-1.92-6.627A4.728,4.728,0,0,1,1729.774,290.705Zm1.935,13.238h11.754l-5.677,9.831h-6.075Zm40.574,9.831,5.678-9.831h6.075v9.831Z" transform="translate(-1726.506 -273.655)" fill="#3f3d56" fill-rule="evenodd"/>
              <path id="Path_290" data-name="Path 290" d="M1763.811,321.986a1.336,1.336,0,0,0-.664-1.157l-11.739-6.777a1.336,1.336,0,0,0-2,1.157v13.556a1.333,1.333,0,0,0,2,1.156l11.739-6.777A1.336,1.336,0,0,0,1763.811,321.986Zm-11.74,4.464v-8.922l7.732,4.463Z" transform="translate(-1723.204 -267.854)" fill="#3f3d56" fill-rule="evenodd"/>
              <path id="Path_291" data-name="Path 291" d="M1754.088,331.11a1.336,1.336,0,1,0,1.336,1.336h0A1.338,1.338,0,0,0,1754.088,331.11Z" transform="translate(-1722.72 -265.368)" fill="#3f3d56" fill-rule="evenodd"/>
            </g>
          </g>
          <g id="Group_29" data-name="Group 29" transform="translate(558.761 9310.884)">
            <path id="Path_300" data-name="Path 300" d="M1757.445,437.842h24.488l.9,1.9v14.129l-1.84,1.383H1767.52l-4,5.221-.428-5.221h-5.013l-1.421-2.105Z" transform="translate(-1721.049 -436.642)" fill="#6c63ff"/>
            <g id="online-class">
              <path id="Path_292" data-name="Path 292" d="M1784.131,497.547a1.084,1.084,0,0,1-1.083,1.085H1772.2v-3.711a7.629,7.629,0,0,0-5.6-7.33l-6.34-1.724v-1.642a7.6,7.6,0,0,0,3.256-6.209v-2.055c.276-.127.452-.221.485-.23a1.085,1.085,0,0,0,.6-.97V468.25l5.813-2.236a1.085,1.085,0,0,0,0-2.028l-14.1-5.425a1.085,1.085,0,0,0-.778,0l-14.106,5.425a1.086,1.086,0,0,0-.7,1.009v4.975l-2.937,2.937,1.534,1.534,1.4-1.4v1.721h2.169V473.04l1.4,1.4,1.534-1.534-2.937-2.937v-3.39l4.34,1.675v6.511a1.084,1.084,0,0,0,.6.976c.034.017.209.1.485.23v2.049a7.443,7.443,0,0,0,3.256,6.211v1.64l-6.344,1.725a7.627,7.627,0,0,0-5.592,7.329v3.711h-10.85a1.084,1.084,0,0,1-1.085-1.085h0V455.23h30.381v-2.17h-30.381v-5.426a1.084,1.084,0,0,1,1.085-1.085h29.3v-2.171h-29.3a3.255,3.255,0,0,0-3.256,3.255v49.913a3.255,3.255,0,0,0,3.256,3.255h54.253a3.255,3.255,0,0,0,3.254-3.255V457.4h-2.169ZM1753.75,486.7v-1.411a7.38,7.38,0,0,0,4.339,0V486.7a1.073,1.073,0,0,0,.379.807l-2.549,2.124-2.547-2.123a1.078,1.078,0,0,0,.377-.808Zm2.169-25.97L1767,464.99l-11.082,4.263-11.083-4.263Zm-.39,10.7a1.1,1.1,0,0,0,.779,0l6.122-2.349v4.991a12.825,12.825,0,0,1-13.021,0v-4.991Zm-5.035,6.582v-1.158a13.217,13.217,0,0,0,10.85,0v1.165a5.424,5.424,0,0,1-8.145,4.689,5.087,5.087,0,0,1-1.116-.856,5.345,5.345,0,0,1-1.589-3.834Zm-8.681,16.905a5.451,5.451,0,0,1,4-5.236l5.118-1.391,4.3,3.586a1.084,1.084,0,0,0,1.39,0l4.3-3.58,5.115,1.39a5.457,5.457,0,0,1,4,5.237v3.711h-3.256v-4.339H1764.6v4.339h-17.361v-4.339h-2.17v4.339h-3.255Z" transform="translate(-1725.538 -435.699)" fill="#3f3d56"/>
              <path id="Path_293" data-name="Path 293" d="M1731.227,448.172h2.171v2.171h-2.171Z" transform="translate(-1724.717 -435.152)" fill="#3f3d56"/>
              <path id="Path_294" data-name="Path 294" d="M1735.021,448.172h2.17v2.171h-2.17Z" transform="translate(-1724.17 -435.152)" fill="#3f3d56"/>
              <path id="Path_295" data-name="Path 295" d="M1738.814,448.172h2.169v2.171h-2.169Z" transform="translate(-1723.623 -435.152)" fill="#3f3d56"/>
              <path id="Path_296" data-name="Path 296" d="M1780.839,436.793h-21.7a3.255,3.255,0,0,0-3.256,3.255v13.02a3.255,3.255,0,0,0,3.256,3.254h3.256v4.34a1.085,1.085,0,0,0,1.931.679l4.014-5.019h12.5a3.254,3.254,0,0,0,3.255-3.254v-13.02A3.254,3.254,0,0,0,1780.839,436.793Zm1.084,16.276a1.085,1.085,0,0,1-1.084,1.085h-13.021a1.08,1.08,0,0,0-.847.406l-2.407,3.009v-2.331a1.085,1.085,0,0,0-1.085-1.084h-4.34a1.084,1.084,0,0,1-1.084-1.085V440.048a1.084,1.084,0,0,1,1.084-1.085h21.7a1.084,1.084,0,0,1,1.084,1.085Z" transform="translate(-1721.161 -436.793)" fill="#3f3d56"/>
              <path id="Path_297" data-name="Path 297" d="M1761.573,440.586h15.191v2.17h-15.191Z" transform="translate(-1720.34 -436.246)" fill="#3f3d56"/>
              <path id="Path_298" data-name="Path 298" d="M1761.573,444.379h15.191v2.171h-15.191Z" transform="translate(-1720.34 -435.699)" fill="#3f3d56"/>
              <path id="Path_299" data-name="Path 299" d="M1761.573,448.172h15.191v2.171h-15.191Z" transform="translate(-1720.34 -435.152)" fill="#3f3d56"/>
            </g>
          </g>
        </g>
      </g>
    </g>
  </g>
</svg>
