<svg xmlns="http://www.w3.org/2000/svg" viewBox="0 0 433.6 542.58"><defs><style>.cls-1,.cls-4{fill:#3f3d56;}.cls-2{fill:#fff;}.cls-3,.cls-5{fill:#6c63ff;}.cls-4{fill-rule:evenodd;}.cls-5{opacity:0.2;}.cls-5,.cls-6{isolation:isolate;}</style></defs><g id="图层_2" data-name="图层 2"><g id="图层_1-2" data-name="图层 1"><g id="组_2351" data-name="组 2351"><g id="Rectangle_2558" data-name="Rectangle 2558"><g id="组_2001" data-name="组 2001"><path id="路径_10108" data-name="路径 10108" class="cls-1" d="M15,19.24h-1.3V15.11H17.8v1.3H15Z"/><path id="路径_10109" data-name="路径 10109" class="cls-1" d="M422.58,16.41h-6.32v-1.3h6.32Zm-12.63,0h-6.32v-1.3H410Zm-12.63,0H391v-1.3h6.31Zm-12.64,0h-6.31v-1.3h6.31Zm-12.63,0h-6.31v-1.3h6.31Zm-12.63,0h-6.31v-1.3h6.31Zm-12.63,0h-6.31v-1.3h6.31Zm-12.63,0h-6.32v-1.3h6.32Zm-12.63,0h-6.32v-1.3h6.32Zm-12.63,0h-6.32v-1.3h6.32Zm-12.63,0H290v-1.3h6.32Zm-12.63,0h-6.32v-1.3h6.32Zm-12.63,0h-6.32v-1.3H271Zm-12.64,0h-6.31v-1.3h6.31Zm-12.63,0h-6.31v-1.3h6.31Zm-12.63,0H226.8v-1.3h6.31Zm-12.63,0h-6.32v-1.3h6.32Zm-12.63,0h-6.32v-1.3h6.32Zm-12.63,0H188.9v-1.3h6.32Zm-12.63,0h-6.32v-1.3h6.32Zm-12.64,0h-6.31v-1.3H170Zm-12.63,0H151v-1.3h6.31Zm-12.63,0h-6.31v-1.3h6.31Zm-12.63,0h-6.31v-1.3h6.31Zm-12.63,0h-6.32v-1.3h6.32Zm-12.63,0h-6.32v-1.3h6.32Zm-12.63,0H87.85v-1.3h6.32Zm-12.63,0H75.22v-1.3h6.32Zm-12.64,0H62.59v-1.3H68.9Zm-12.63,0H50v-1.3h6.31Zm-12.63,0H37.33v-1.3h6.31ZM31,16.41H24.7v-1.3H31Z"/><path id="路径_10110" data-name="路径 10110" class="cls-1" d="M433.6,19.24h-1.3V16.41h-2.83v-1.3h4.13Z"/><path id="路径_10111" data-name="路径 10111" class="cls-1" d="M433.6,531.57h-1.3V524h1.3Zm0-15.08h-1.3v-7.55h1.3Zm0-15.09h-1.3v-7.55h1.3Zm0-15.09h-1.3v-7.54h1.3Zm0-15.09h-1.3v-7.54h1.3Zm0-15.09h-1.3v-7.54h1.3Zm0-15.08h-1.3V433.5h1.3Zm0-15.09h-1.3v-7.55h1.3Zm0-15.09h-1.3v-7.55h1.3Zm0-15.09h-1.3v-7.54h1.3Zm0-15.09h-1.3v-7.54h1.3Zm0-15.09h-1.3v-7.54h1.3Zm0-15.08h-1.3V343h1.3Zm0-15.09h-1.3v-7.55h1.3Zm0-15.09h-1.3V312.8h1.3Zm0-15.09h-1.3v-7.54h1.3Zm0-15.09h-1.3v-7.54h1.3Zm0-15.08h-1.3v-7.55h1.3Zm0-15.09h-1.3v-7.55h1.3Zm0-15.09h-1.3v-7.55h1.3Zm0-15.09h-1.3v-7.54h1.3Zm0-15.09h-1.3v-7.54h1.3Zm0-15.09h-1.3v-7.54h1.3Zm0-15.08h-1.3V177h1.3Zm0-15.09h-1.3v-7.55h1.3Zm0-15.09h-1.3v-7.54h1.3Zm0-15.09h-1.3v-7.54h1.3Zm0-15.09h-1.3v-7.54h1.3Zm0-15.09h-1.3v-7.54h1.3Zm0-15.08h-1.3V86.47h1.3Zm0-15.09h-1.3V71.38h1.3Zm0-15.09h-1.3V56.29h1.3Zm0-15.09h-1.3V41.21h1.3Zm0-15.09h-1.3V26.11h1.3Z"/><path id="路径_10112" data-name="路径 10112" class="cls-1" d="M433.6,542.58h-4.13v-1.3h2.82v-2.83h1.31Z"/><path id="路径_10113" data-name="路径 10113" class="cls-1" d="M422.58,542.58h-6.32v-1.3h6.32Zm-12.63,0h-6.32v-1.3H410Zm-12.63,0H391v-1.3h6.31Zm-12.64,0h-6.31v-1.3h6.31Zm-12.63,0h-6.31v-1.3h6.31Zm-12.63,0h-6.31v-1.3h6.31Zm-12.63,0h-6.31v-1.3h6.31Zm-12.63,0h-6.32v-1.3h6.32Zm-12.63,0h-6.32v-1.3h6.32Zm-12.63,0h-6.32v-1.3h6.32Zm-12.63,0H290v-1.3h6.32Zm-12.63,0h-6.32v-1.3h6.32Zm-12.63,0h-6.32v-1.3H271Zm-12.64,0h-6.31v-1.3h6.31Zm-12.63,0h-6.31v-1.3h6.31Zm-12.63,0H226.8v-1.3h6.31Zm-12.63,0h-6.32v-1.3h6.32Zm-12.63,0h-6.32v-1.3h6.32Zm-12.63,0H188.9v-1.3h6.32Zm-12.63,0h-6.32v-1.3h6.32Zm-12.64,0h-6.31v-1.3H170Zm-12.63,0H151v-1.3h6.31Zm-12.63,0h-6.31v-1.3h6.31Zm-12.63,0h-6.31v-1.3h6.31Zm-12.63,0h-6.32v-1.3h6.32Zm-12.63,0h-6.32v-1.3h6.32Zm-12.63,0H87.85v-1.3h6.32Zm-12.63,0H75.22v-1.3h6.32Zm-12.63,0H62.59v-1.3h6.32Zm-12.63,0H50v-1.3h6.32Zm-12.64,0H37.33v-1.3h6.31Zm-12.63,0H24.7v-1.3H31Z"/><path id="路径_10114" data-name="路径 10114" class="cls-1" d="M17.8,542.58H13.67v-4.13H15v2.83H17.8Z"/><path id="路径_10115" data-name="路径 10115" class="cls-1" d="M15,531.57h-1.3V524H15Zm0-15.08h-1.3v-7.55H15Zm0-15.09h-1.3v-7.55H15Zm0-15.09h-1.3v-7.55H15Zm0-15.09h-1.3v-7.54H15Zm0-15.09h-1.3v-7.54H15Zm0-15.08h-1.3V433.5H15ZM15,426h-1.3v-7.55H15Zm0-15.09h-1.3v-7.55H15Zm0-15.09h-1.3v-7.55H15Zm0-15.09h-1.3v-7.54H15Zm0-15.09h-1.3v-7.54H15Zm0-15.09h-1.3V343H15Zm0-15.08h-1.3v-7.55H15Zm0-15.09h-1.3v-7.55H15Zm0-15.09h-1.3v-7.54H15Zm0-15.09h-1.3v-7.54H15Zm0-15.09h-1.3v-7.54H15ZM15,260h-1.3v-7.54H15Zm0-15.08h-1.3v-7.55H15Zm0-15.09h-1.3v-7.55H15Zm0-15.09h-1.3v-7.54H15Zm0-15.09h-1.3v-7.54H15Zm0-15.09h-1.3V177H15Zm0-15.08h-1.3v-7.55H15Zm0-15.09h-1.3v-7.55H15Zm0-15.09h-1.3v-7.54H15Zm0-15.09h-1.3v-7.54H15Zm0-15.09h-1.3v-7.54H15ZM15,94h-1.3V86.47H15Zm0-15.08h-1.3V71.38H15Zm0-15.09h-1.3V56.29H15Zm0-15.09h-1.3V41.21H15Zm0-15.09h-1.3V26.11H15Z"/></g><g id="组_2002" data-name="组 2002"><path id="路径_10116" data-name="路径 10116" class="cls-1" d="M15.39,19.65h-1.3V15.52h4.13v1.3H15.39Z"/><path id="路径_10117" data-name="路径 10117" class="cls-1" d="M422.18,16.82h-6.3v-1.3h6.3Zm-12.6,0h-6.3v-1.3h6.3Zm-12.61,0h-6.3v-1.3H397Zm-12.61,0h-6.3v-1.3h6.3Zm-12.6,0h-6.3v-1.3h6.3Zm-12.6,0h-6.3v-1.3h6.3Zm-12.61,0h-6.3v-1.3h6.3Zm-12.6,0h-6.3v-1.3H334Zm-12.61,0H315v-1.3h6.3Zm-12.6,0h-6.3v-1.3h6.3Zm-12.61,0h-6.3v-1.3h6.3Zm-12.6,0h-6.3v-1.3h6.3Zm-12.61,0h-6.3v-1.3h6.3Zm-12.61,0H252v-1.3h6.3Zm-12.6,0h-6.3v-1.3h6.3Zm-12.6,0h-6.3v-1.3h6.3Zm-12.61,0h-6.3v-1.3h6.3Zm-12.61,0h-6.3v-1.3h6.3Zm-12.6,0H189v-1.3h6.3Zm-12.6,0h-6.3v-1.3h6.3Zm-12.61,0h-6.3v-1.3h6.3Zm-12.6,0h-6.3v-1.3h6.3Zm-12.61,0h-6.3v-1.3h6.3Zm-12.61,0H126v-1.3h6.3Zm-12.6,0h-6.3v-1.3h6.3Zm-12.61,0h-6.3v-1.3h6.3Zm-12.61,0h-6.3v-1.3h6.3Zm-12.6,0h-6.3v-1.3h6.3Zm-12.61,0h-6.3v-1.3h6.3Zm-12.6,0h-6.3v-1.3h6.3Zm-12.6,0h-6.3v-1.3H44Zm-12.61,0h-6.3v-1.3h6.3Z"/><path id="路径_10118" data-name="路径 10118" class="cls-1" d="M433.19,19.65h-1.3V16.82h-2.83v-1.3h4.13Z"/><path id="路径_10119" data-name="路径 10119" class="cls-1" d="M433.19,531.17h-1.3v-7.53h1.3Zm0-15.06h-1.3v-7.53h1.3Zm0-15.07h-1.3v-7.53h1.3Zm0-15.06h-1.3v-7.53h1.3Zm0-15.06h-1.3v-7.54h1.3Zm0-15.07h-1.3v-7.53h1.3Zm0-15.06h-1.3v-7.53h1.3Zm0-15.07h-1.3v-7.53h1.3Zm0-15.06h-1.3v-7.53h1.3Zm0-15.06h-1.3v-7.54h1.3Zm0-15.07h-1.3V373h1.3Zm0-15.06h-1.3v-7.54h1.3Zm0-15.07h-1.3v-7.53h1.3Zm0-15.06h-1.3v-7.53h1.3Zm0-15.07h-1.3v-7.53h1.3Zm0-15.06h-1.3v-7.53h1.3Zm0-15.06h-1.3v-7.54h1.3Zm0-15.07h-1.3v-7.53h1.3Zm0-15.06h-1.3v-7.54h1.3Zm0-15.07h-1.3v-7.53h1.3Zm0-15.06h-1.3v-7.53h1.3Zm0-15.07h-1.3v-7.53h1.3Zm0-15.06h-1.3v-7.53h1.3Zm0-15.06h-1.3v-7.54h1.3Zm0-15.07h-1.3V162.1h1.3Zm0-15.06h-1.3V147h1.3Zm0-15.07h-1.3V132h1.3Zm0-15.06h-1.3v-7.53h1.3Zm0-15.07h-1.3v-7.53h1.3Zm0-15.06h-1.3V86.78h1.3Zm0-15.06h-1.3V71.71h1.3Zm0-15.07h-1.3V56.64h1.3Zm0-15.06h-1.3V41.58h1.3Zm0-15.07h-1.3V26.51h1.3Z"/><path id="路径_10120" data-name="路径 10120" class="cls-1" d="M433.19,542.17h-4.13v-1.3h2.82V538h1.3Z"/><path id="路径_10121" data-name="路径 10121" class="cls-1" d="M422.18,542.17h-6.3v-1.3h6.3Zm-12.61,0h-6.3v-1.3h6.3Zm-12.6,0h-6.3v-1.3H397Zm-12.6,0h-6.3v-1.3h6.3Zm-12.61,0h-6.3v-1.3h6.3Zm-12.61,0h-6.3v-1.3h6.3Zm-12.6,0h-6.3v-1.3h6.3Zm-12.6,0h-6.3v-1.3H334Zm-12.61,0H315v-1.3h6.3Zm-12.61,0h-6.3v-1.3h6.3Zm-12.6,0h-6.3v-1.3h6.3Zm-12.6,0h-6.3v-1.3h6.3Zm-12.61,0h-6.3v-1.3h6.3Zm-12.61,0H252v-1.3h6.3Zm-12.6,0h-6.3v-1.3h6.3Zm-12.61,0h-6.3v-1.3h6.3Zm-12.6,0h-6.3v-1.3h6.3Zm-12.61,0h-6.3v-1.3h6.3Zm-12.6,0H189v-1.3h6.3Zm-12.61,0h-6.3v-1.3h6.3Zm-12.61,0h-6.3v-1.3h6.3Zm-12.6,0h-6.3v-1.3h6.3Zm-12.6,0h-6.3v-1.3h6.3Zm-12.61,0H126v-1.3h6.3Zm-12.6,0h-6.3v-1.3h6.3Zm-12.61,0h-6.3v-1.3h6.3Zm-12.6,0h-6.3v-1.3h6.3Zm-12.61,0h-6.3v-1.3h6.3Zm-12.6,0h-6.3v-1.3h6.3Zm-12.61,0h-6.3v-1.3h6.3Zm-12.6,0h-6.3v-1.3H44Zm-12.6,0h-6.3v-1.3h6.3Z"/><path id="路径_10122" data-name="路径 10122" class="cls-1" d="M18.22,542.17H14.09V538h1.3v2.82h2.82Z"/><path id="路径_10123" data-name="路径 10123" class="cls-1" d="M15.39,531.17h-1.3v-7.53h1.3Zm0-15.06h-1.3v-7.53h1.3Zm0-15.07h-1.3v-7.53h1.3Zm0-15.06h-1.3v-7.53h1.3Zm0-15.06h-1.3v-7.54h1.3Zm0-15.07h-1.3v-7.53h1.3Zm0-15.06h-1.3v-7.53h1.3Zm0-15.07h-1.3v-7.53h1.3Zm0-15.06h-1.3v-7.53h1.3Zm0-15.06h-1.3v-7.54h1.3Zm0-15.07h-1.3V373h1.3Zm0-15.06h-1.3v-7.54h1.3Zm0-15.07h-1.3v-7.53h1.3Zm0-15.06h-1.3v-7.53h1.3Zm0-15.07h-1.3v-7.53h1.3Zm0-15.06h-1.3v-7.53h1.3Zm0-15.06h-1.3v-7.54h1.3Zm0-15.07h-1.3v-7.53h1.3Zm0-15.06h-1.3v-7.54h1.3Zm0-15.07h-1.3v-7.53h1.3Zm0-15.06h-1.3v-7.53h1.3Zm0-15.07h-1.3v-7.53h1.3Zm0-15.06h-1.3v-7.53h1.3Zm0-15.06h-1.3v-7.54h1.3Zm0-15.07h-1.3V162.1h1.3Zm0-15.06h-1.3V147h1.3Zm0-15.07h-1.3V132h1.3Zm0-15.06h-1.3V116.9h1.3Zm0-15.07h-1.3v-7.53h1.3Zm0-15.06h-1.3V86.77h1.3Zm0-15.06h-1.3V71.71h1.3Zm0-15.07h-1.3V56.64h1.3Zm0-15.06h-1.3V41.59h1.3Zm0-15.07h-1.3V26.51h1.3Z"/></g></g><g id="组_2023" data-name="组 2023"><rect id="矩形_2565" data-name="矩形 2565" class="cls-2" x="0.66" y="0.65" width="418.62" height="526.17"/><path id="路径_10258" data-name="路径 10258" class="cls-1" d="M419.93,527.47H0V0H419.93ZM1.2,526.05H418.72V1.43H1.2Z"/></g><g id="组_2024" data-name="组 2024"><rect id="矩形_2566" data-name="矩形 2566" class="cls-2" x="1.07" y="1.06" width="417.8" height="525.34"/><path id="路径_10259" data-name="路径 10259" class="cls-1" d="M419.52,527.06H.42V.41h419.1ZM1.62,525.63h416.7V1.84H1.62Z"/></g></g><g id="Group_26" data-name="Group 26"><rect id="Rectangle_9" data-name="Rectangle 9" class="cls-3" x="101.92" y="61.17" width="39.03" height="18.01"/><g id="refund"><path id="Path_247" data-name="Path 247" class="cls-1" d="M121.65,45.8A33.3,33.3,0,0,0,88.41,79a25.42,25.42,0,0,0,.12,3l2.33-.23a21.78,21.78,0,0,1-.12-2.8A30.91,30.91,0,1,1,122.81,110l2.57-2.56-1.63-1.64-5.49,5.48,5.49,5.48,1.63-1.63-2.8-2.8a33.24,33.24,0,0,0-.93-66.47Z"/><path id="Path_248" data-name="Path 248" class="cls-1" d="M143.22,59.8h-42v21h42Zm-2.33,18.66H103.57V62.13h37.32Z"/><path id="Path_249" data-name="Path 249" class="cls-1" d="M122.23,75a4.67,4.67,0,1,0-4.67-4.66A4.65,4.65,0,0,0,122.23,75Zm0-7a2.34,2.34,0,1,1-2.33,2.33h0A2.33,2.33,0,0,1,122.23,68Z"/><path id="Path_250" data-name="Path 250" class="cls-1" d="M108.24,66.8h2.33V64.46h-4.66v4.67h2.33Z"/><path id="Path_251" data-name="Path 251" class="cls-1" d="M110.57,73.8h-2.33V71.46H105.9v4.67h4.67Z"/><path id="Path_252" data-name="Path 252" class="cls-1" d="M138.56,71.46h-2.33V73.8h-2.34v2.33h4.67Z"/><path id="Path_253" data-name="Path 253" class="cls-1" d="M136.23,69.13h2.33V64.46H133.9V66.8h2.33Z"/><path id="Path_254" data-name="Path 254" class="cls-1" d="M111.74,69.13h3.5v2.33h-3.5Z"/><path id="Path_255" data-name="Path 255" class="cls-1" d="M129.23,69.13h3.5v2.33h-3.5Z"/><path id="Path_256" data-name="Path 256" class="cls-1" d="M91.91,96h2.33v3.5H91.91Z"/><path id="Path_257" data-name="Path 257" class="cls-1" d="M143.22,93.51a4.38,4.38,0,0,0-4.31-4.32,3.85,3.85,0,0,0-1.17.12l-14.11,4.08c-.11,0-.35.12-.46,0l-3.27-.58a4.76,4.76,0,0,0,1.87-6.3,4.58,4.58,0,0,0-4.09-2.45H103a3.28,3.28,0,0,0-1.75.46L98.91,86V84.29h-14v19.83h14V101.2L110.45,106a3.26,3.26,0,0,0,2.34.12l27.29-8.51A4.14,4.14,0,0,0,143.22,93.51Zm-46.65,8.28H87.24V86.63h4.67v7h2.33v-7h2.33Zm15.63,2.1a1,1,0,0,1-.81,0L98.91,98.64V88.72l3.5-2a.9.9,0,0,1,.58-.12h14.57a2.34,2.34,0,0,1,.11,4.67H109.4v1.17l-.23,1.16,13.41,2.22a3.52,3.52,0,0,0,1.51-.12l14.11-4.08A2,2,0,0,1,140.65,93h0a1.93,1.93,0,0,1-1.22,2.43l-.06,0Z"/></g></g><g id="Group_28" data-name="Group 28"><path id="Path_272" data-name="Path 272" class="cls-3" d="M116.15,212.35h18.76l7.68,7.31.68,16.37v8.55l-1.77,1.72H116.21l-1.31-1.72V213.9Z"/><g id="Computer-Accounting-File-Calculator-Financial"><path id="Path_258" data-name="Path 258" class="cls-1" d="M145.08,221.19h-1v-1a1,1,0,0,0-.3-.7l-8-8a1,1,0,0,0-.71-.29h-18a3,3,0,0,0-3,3v7h-4v-7a3,3,0,0,0-3-3H93a3,3,0,0,0-3,3v22a3,3,0,0,0,3,3h7v15a5,5,0,0,0,5,5h11.88l-.76,6h-1.11a3,3,0,0,0,0,6h20a3,3,0,0,0,0-6H134l-.75-6h11.88a5,5,0,0,0,5-5v-28A5,5,0,0,0,145.08,221.19Zm-9-6.59,4.59,4.59h-3.59a1,1,0,0,1-1-1Zm-20-.41a1,1,0,0,1,1-1h17v5a3,3,0,0,0,3,3h5v23a1,1,0,0,1-1,1h-24a1,1,0,0,1-1-1Zm-24,22v-22a1,1,0,0,1,1-1h14a1,1,0,0,1,1,1v22a1,1,0,0,1-1,1H93a1,1,0,0,1-1-1Zm15,3a3,3,0,0,0,3-3v-13h4v21a3,3,0,0,0,3,3h24a3,3,0,0,0,3-3v-21h1a3,3,0,0,1,3,3v23H102v-10Zm29,29a1,1,0,0,1-1,1h-20a1,1,0,0,1,0-2h20A1,1,0,0,1,136.07,268.23Zm-4.14-3H118.19l.75-6h12.24Zm13.15-8h-40a3,3,0,0,1-3-3v-3h46v3a3,3,0,0,1-3,3Z"/><path id="Path_259" data-name="Path 259" class="cls-1" d="M142.07,253.21h2v2h-2Z"/><path id="Path_260" data-name="Path 260" class="cls-1" d="M105.05,223.2H95a1,1,0,0,0-1,1v10a1,1,0,0,0,1,1h10a1,1,0,0,0,1-1v-10a1,1,0,0,0-1-1Zm-1,5h-3v-3h3Zm-5-3v3h-3v-3Zm-3,5h3v3h-3Zm5,3v-3h3v3Z"/><path id="Path_261" data-name="Path 261" class="cls-1" d="M105.05,215.19H95a1,1,0,0,0-1,1v4a1,1,0,0,0,1,1h10a1,1,0,0,0,1-1v-4A1,1,0,0,0,105.05,215.19Zm-1,4H96v-2h8Z"/><path id="Path_262" data-name="Path 262" class="cls-1" d="M118.06,237.21h10v2h-10Z"/><path id="Path_263" data-name="Path 263" class="cls-1" d="M130.07,237.21h10v2h-10Z"/><path id="Path_264" data-name="Path 264" class="cls-1" d="M118.06,241.21h10v2h-10Z"/><path id="Path_265" data-name="Path 265" class="cls-1" d="M130.07,241.21h10v2h-10Z"/><path id="Path_266" data-name="Path 266" class="cls-1" d="M118.06,219.19h10v2h-10Z"/><path id="Path_267" data-name="Path 267" class="cls-1" d="M118.06,215.19h2v2h-2Z"/><path id="Path_268" data-name="Path 268" class="cls-1" d="M122.06,215.19h6v2h-6Z"/><path id="Path_269" data-name="Path 269" class="cls-1" d="M128.06,223.2v1a3,3,0,0,0,0,6h2a1,1,0,0,1,0,2h-2a1,1,0,0,1-1-1h-2a3,3,0,0,0,3,3v1h2v-1a3,3,0,0,0,0-6h-2a1,1,0,0,1,0-2h2a1,1,0,0,1,1,1h2a3,3,0,0,0-3-3v-1Z"/><path id="Path_270" data-name="Path 270" class="cls-1" d="M135.07,228.2h2v2h-2Z"/><path id="Path_271" data-name="Path 271" class="cls-1" d="M121.06,228.2h2v2h-2Z"/></g></g><g id="Group_30" data-name="Group 30"><path id="Path_288" data-name="Path 288" class="cls-3" d="M103.9,384.34l2.84-3.3,3.71-2.79,4.59-1.33,5.1-.65,5.11.65,4.82,1.33,3.41,2.79,2.78,3.3-16.13,10.71Z"/><circle id="Ellipse_11" data-name="Ellipse 11" class="cls-3" cx="111.86" cy="414.58" r="4.84"/><g id="组_2031" data-name="组 2031"><circle id="Ellipse_13" data-name="Ellipse 13" class="cls-3" cx="138.73" cy="402.75" r="1.61"/><circle id="Ellipse_14" data-name="Ellipse 14" class="cls-3" cx="143.03" cy="407.05" r="1.61"/><circle id="Ellipse_15" data-name="Ellipse 15" class="cls-3" cx="138.73" cy="411.35" r="1.61"/><circle id="Ellipse_16" data-name="Ellipse 16" class="cls-3" cx="134.43" cy="407.05" r="1.61"/></g><circle id="Ellipse_12" data-name="Ellipse 12" class="cls-3" cx="129.05" cy="414.58" r="4.84"/><path id="Path_287" data-name="Path 287" class="cls-3" d="M100,402.22c1.5,2,4.84,2.16,4.84,4.83.64,2-1,1.65-1.69,2.95s-1.83,3.25-3.15,2.51c-.88-.5-1.41-1.6-2.53-2.51-.92-.74-2.3-1.4-2.3-2.95,0-1.21,1.72-1.08,2.69-2.17C98.55,404.11,98.58,402.22,100,402.22Z"/><g id="game-controller"><path id="Path_273" data-name="Path 273" class="cls-1" d="M120.05,386c-3.21,0-6,1.38-7.16,3.6a1,1,0,0,0,1.69,1l0-.05,0,0c.84-1.56,3-2.57,5.42-2.57s4.57,1,5.42,2.57a1,1,0,1,0,1.75-.92h0v0C126,387.39,123.26,386,120.05,386Z"/><path id="Path_274" data-name="Path 274" class="cls-1" d="M130.15,387.24a1,1,0,0,0,1.74-.94c-2-3.65-6.51-5.9-11.84-5.9s-9.87,2.26-11.84,5.9a1,1,0,0,0,.44,1.32,1,1,0,0,0,1.3-.38c1.62-3,5.5-4.87,10.1-4.87S128.52,384.24,130.15,387.24Z"/><path id="Path_275" data-name="Path 275" class="cls-1" d="M103.64,385a1,1,0,0,0,1.34-.4h0c2.44-4.5,8.21-7.3,15.06-7.3s12.62,2.8,15.06,7.3a1,1,0,1,0,1.77-.89l0-.05c-2.79-5.14-9.23-8.34-16.81-8.34s-14,3.2-16.8,8.34a1,1,0,0,0,.4,1.34Z"/><path id="Path_276" data-name="Path 276" class="cls-1" d="M139.06,405.55a2.58,2.58,0,1,0-2.58-2.57h0A2.57,2.57,0,0,0,139.06,405.55Zm0-3.17a.6.6,0,1,1-.6.59A.59.59,0,0,1,139.06,402.38Z"/><path id="Path_277" data-name="Path 277" class="cls-1" d="M139.05,408.54a2.58,2.58,0,1,0,2.58,2.58h0A2.58,2.58,0,0,0,139.05,408.54Zm0,3.17a.59.59,0,0,1-.6-.59.6.6,0,0,1,.59-.61.61.61,0,0,1,.61.6h0a.62.62,0,0,1-.6.61Z"/><path id="Path_278" data-name="Path 278" class="cls-1" d="M137.56,407.05a2.58,2.58,0,1,0-2.58,2.57,2.59,2.59,0,0,0,2.58-2.57Zm-2.58.6a.6.6,0,1,1,.6-.6h0A.6.6,0,0,1,135,407.65Z"/><path id="Path_279" data-name="Path 279" class="cls-1" d="M143.13,404.47a2.58,2.58,0,1,0,2.58,2.58h0A2.59,2.59,0,0,0,143.13,404.47Zm0,3.18a.6.6,0,0,1-.6-.6.6.6,0,1,1,1.2,0h0A.6.6,0,0,1,143.13,407.65Z"/><path id="Path_280" data-name="Path 280" class="cls-1" d="M110.63,410.84a4.69,4.69,0,1,0,4.69,4.69,4.69,4.69,0,0,0-4.69-4.69Zm0,7.4a2.71,2.71,0,1,1,2.71-2.71,2.71,2.71,0,0,1-2.71,2.71Z"/><path id="Path_281" data-name="Path 281" class="cls-1" d="M153.2,422.24l-4.77-19.68a10.58,10.58,0,0,0-4-6.41,9.23,9.23,0,0,0-1.31-.78V395a3.75,3.75,0,0,0-3.73-3.74h-2.22a3.74,3.74,0,0,0-3.74,3.74v.56a5,5,0,0,0-1.81,1.55H122a1,1,0,0,0-1,1,1,1,0,0,0,1,1h9.25v2a2,2,0,0,1-2,2H110.52a2,2,0,0,1-2-2v-2h9a1,1,0,0,0,1-1,1,1,0,0,0-1-1h-9.32a5.17,5.17,0,0,0-1.8-1.55V395a3.76,3.76,0,0,0-3.74-3.74h-2.22A3.75,3.75,0,0,0,96.64,395v.4a8.61,8.61,0,0,0-1.3.78,10.64,10.64,0,0,0-4,6.41l-4.77,19.69a10.84,10.84,0,0,0,.34,7.28A6.61,6.61,0,0,0,91,433.05c4,1.24,8.78-.83,10.13-4.44l2.29-6.1c.29-.78.53-.88.53-.88s.21,0,.55.26c3.2,2.91,8.46,2.79,11.91-.23h6.9a9.55,9.55,0,0,0,5.77,2.34,8.4,8.4,0,0,0,6.15-2.11c.39-.28.55-.27.55-.26s.23.1.53.88l2.29,6.1c1.08,2.9,4.34,4.8,7.68,4.8a8.5,8.5,0,0,0,2.45-.36,6.64,6.64,0,0,0,4.14-3.53A10.84,10.84,0,0,0,153.2,422.24Zm-16.07-29h2.22a1.76,1.76,0,0,1,1.72,1.44,11.17,11.17,0,0,0-2.58-.31h0a11.88,11.88,0,0,0-3.07.41,1.76,1.76,0,0,1,1.75-1.54Zm-36.75,0h2.22a1.76,1.76,0,0,1,1.74,1.54,11.77,11.77,0,0,0-3.07-.41h0a11.32,11.32,0,0,0-2.59.31,1.77,1.77,0,0,1,1.73-1.44Zm47.76,38c-2.74.84-6.61-.36-7.7-3.24l-2.29-6.1a3,3,0,0,0-1.83-2.09,2.59,2.59,0,0,0-2.32.61l-.08.06c-2.54,2.34-6.83,2.14-9.55-.44a1,1,0,0,0-.68-.28H116a1,1,0,0,0-.68.28c-2.72,2.59-7,2.79-9.55.44l-.08-.06a2.59,2.59,0,0,0-2.32-.61,3,3,0,0,0-1.83,2.09l-2.29,6.1c-1.08,2.88-5,4.08-7.69,3.24-3.07-.94-4.21-4-3.14-8.45L93.21,403c.86-3.56,2.77-5.27,4.67-6.06a.92.92,0,0,0,.23-.09,9,9,0,0,1,3.13-.56,9.3,9.3,0,0,1,3.68.73l0,0a3.06,3.06,0,0,1,1.55,1.17v2.85a4,4,0,0,0,4,4H129.2a4,4,0,0,0,4-4v-2.85a3,3,0,0,1,1.51-1.16l.14-.06a9.31,9.31,0,0,1,3.6-.7h0a9,9,0,0,1,3.12.55.92.92,0,0,0,.23.09c1.9.8,3.81,2.5,4.67,6.06l4.77,19.68c1.07,4.43-.07,7.51-3.14,8.46Z"/><path id="Path_282" data-name="Path 282" class="cls-1" d="M129.87,410.84a4.69,4.69,0,1,0,4.69,4.69,4.69,4.69,0,0,0-4.69-4.69Zm0,7.4a2.71,2.71,0,1,1,2.71-2.71,2.71,2.71,0,0,1-2.71,2.71Z"/><path id="Path_283" data-name="Path 283" class="cls-1" d="M103.79,404.47h-.3v-.3a3,3,0,0,0-6.07,0h0v.3h-.3a3,3,0,0,0-.11,6.07h.41v.3a3,3,0,0,0,6.07,0v-.3h.3a3,3,0,1,0,.11-6.07Zm0,4.09H102.5a1,1,0,0,0-1,1v1.29a1.06,1.06,0,1,1-2.11,0h0v-1.29a1,1,0,0,0-1-1H97.12a1.06,1.06,0,1,1,0-2.11h1.29a1,1,0,0,0,1-1v-1.29a1.06,1.06,0,1,1,2.11,0h0v1.29a1,1,0,0,0,1,1h1.29a1.06,1.06,0,1,1,0,2.11Z"/><path id="Path_284" data-name="Path 284" class="cls-1" d="M117.27,408.13h-1.44a1,1,0,0,0-1,1,1,1,0,0,0,1,1h1.44a1,1,0,0,0,1-1A1,1,0,0,0,117.27,408.13Z"/><path id="Path_285" data-name="Path 285" class="cls-1" d="M123.9,408.13h-1.44a1,1,0,0,0-1,.95,1,1,0,0,0,1,1h1.51a1,1,0,0,0,0-2Z"/><path id="Path_286" data-name="Path 286" class="cls-1" d="M121,413.32h-1.43a1,1,0,1,0,0,2H121a1,1,0,0,0,0-2Z"/></g></g><g id="Group_31" data-name="Group 31"><g id="Group_25" data-name="Group 25"><circle id="Ellipse_10" data-name="Ellipse 10" class="cls-3" cx="320.95" cy="96.17" r="15.12"/><g id="dashboard"><path id="Path_224" data-name="Path 224" class="cls-1" d="M330.15,83.92V64.56a6.91,6.91,0,1,0-7.9-6.84h-47.4v39.5h29.67a15.79,15.79,0,1,0,25.62-13.3Zm-1-31.14a4.94,4.94,0,1,1-4.94,4.94h0a4.94,4.94,0,0,1,4.94-4.94ZM276.82,59.7h45.72a6.82,6.82,0,0,0,1.09,2.15l-6,6a2.9,2.9,0,0,0-2.54,0l-2-2a2.79,2.79,0,0,0,.3-1.27,3,3,0,0,0-5.92,0,2.79,2.79,0,0,0,.3,1.27l-4.95,5a2.94,2.94,0,1,0,1.69,2.66h0a2.93,2.93,0,0,0-.3-1.27l4.95-5a2.9,2.9,0,0,0,2.54,0l2,2a2.76,2.76,0,0,0-.3,1.27,3,3,0,1,0,5.92,0h0a2.76,2.76,0,0,0-.3-1.27l6-6a7,7,0,0,0,3.15,1.3v18a15.69,15.69,0,0,0-19.75,3.25V81.43h-5.93V93.28h2.27a16.3,16.3,0,0,0-.24,2h-27.7Zm39.5,9.87a1,1,0,1,1-1,1h0a1,1,0,0,1,1-1Zm-6.91-4.94a1,1,0,1,1,1,1h0a1,1,0,0,1-1-1Zm-6.91,8.89a1,1,0,0,1-1,1,1,1,0,1,1,0-2h0a1,1,0,0,1,1,1h0Zm17.77,30.61a7.9,7.9,0,1,1,7.9-7.9,7.9,7.9,0,0,1-7.9,7.9ZM306.45,88.6a15.45,15.45,0,0,0-1.18,2.7h-.8V83.4h2Zm12.83-6.14v4a9.85,9.85,0,0,0-8.83,10.78,9.57,9.57,0,0,0,.83,3.1l-3.43,2a13.78,13.78,0,0,1,11.43-19.8Zm1,27.59A13.81,13.81,0,0,1,308.83,104l3.44-2a9.84,9.84,0,0,0,16,0l3.44,2a13.82,13.82,0,0,1-11.45,6.07Zm12.42-7.79-3.42-2a9.86,9.86,0,0,0-4.91-13.05,10,10,0,0,0-3.1-.83v-4a13.77,13.77,0,0,1,12.8,14.69,13.63,13.63,0,0,1-1.37,5.11Z"/><path id="Path_225" data-name="Path 225" class="cls-1" d="M320.27,90.31a5.93,5.93,0,1,0,5.93,5.92h0A5.93,5.93,0,0,0,320.27,90.31Zm0,9.87a4,4,0,1,1,4-4h0A4,4,0,0,1,320.27,100.18Z"/><path id="Path_226" data-name="Path 226" class="cls-1" d="M278.8,61.67h2v2h-2Z"/><path id="Path_227" data-name="Path 227" class="cls-1" d="M282.75,61.67h13.82v2H282.75Z"/><path id="Path_228" data-name="Path 228" class="cls-1" d="M278.8,65.62h2v2h-2Z"/><path id="Path_229" data-name="Path 229" class="cls-1" d="M282.75,65.62h13.82v2H282.75Z"/><path id="Path_230" data-name="Path 230" class="cls-1" d="M278.8,69.57h2v2h-2Z"/><path id="Path_231" data-name="Path 231" class="cls-1" d="M282.75,69.57h13.82v2H282.75Z"/><path id="Path_232" data-name="Path 232" class="cls-1" d="M278.8,73.52h2v2h-2Z"/><path id="Path_233" data-name="Path 233" class="cls-1" d="M282.75,73.52h13.82v2H282.75Z"/><path id="Path_234" data-name="Path 234" class="cls-1" d="M278.8,93.27h5.93V83.4H278.8Zm2-7.9h2V91.3h-2Z"/><path id="Path_235" data-name="Path 235" class="cls-1" d="M286.7,93.27h5.93v-7.9H286.7Zm2-5.92h2v4h-2Z"/><path id="Path_236" data-name="Path 236" class="cls-1" d="M294.6,93.27h5.93V77.47H294.6Zm2-13.83h2V91.29h-2Z"/></g></g></g><g id="Group_27" data-name="Group 27"><rect id="Rectangle_12" data-name="Rectangle 12" class="cls-3" x="280.94" y="236.39" width="51.04" height="12.01"/><g id="video-2"><path id="Path_289" data-name="Path 289" class="cls-4" d="M331.28,235H290l39.67-11.49a1.21,1.21,0,0,0,.83-1.5h0l-2.08-7.16a6.74,6.74,0,0,0-8.34-4.6L282.81,221a6.75,6.75,0,0,0-4.6,8.35l2,7v28.84a6.75,6.75,0,0,0,6.74,6.74h14.55a1.21,1.21,0,1,0,0-2.42H287a4.33,4.33,0,0,1-4.31-4.32V248.71h47.41v16.47a4.33,4.33,0,0,1-4.32,4.32H311.2a1.21,1.21,0,0,0,0,2.42h14.55a6.74,6.74,0,0,0,6.74-6.74v-29a1.22,1.22,0,0,0-1.21-1.22Zm-21.34,11.34,5.14-8.91h6.69l-5.15,8.91Zm-9.49,0,5.14-8.91h6.69l-5.14,8.91Zm-9.49,0,5.14-8.91h6.7l-5.15,8.91Zm4.5-15.68-8.61-8.27,6.45-1.87a1,1,0,0,0,.16.19l8.61,8.28-6.45,1.86a1.46,1.46,0,0,0-.16-.19Zm16.22-15.23,8.62,8.27-6.46,1.87a1,1,0,0,0-.16-.19l-8.61-8.27,6.45-1.87a1.46,1.46,0,0,0,.16.19ZM302.57,218l8.61,8.27-6.45,1.87a1.46,1.46,0,0,0-.16-.19L296,219.7l6.45-1.87a1.46,1.46,0,0,0,.16.19Zm18.15-5.49a3.75,3.75,0,0,1,1.2-.17,4.33,4.33,0,0,1,4.15,3.11l1.74,6L323,222.88a1.46,1.46,0,0,0-.16-.19l-8.62-8.27ZM280.9,225.38a4.33,4.33,0,0,1,2.58-2.07l.71-.2a1,1,0,0,0,.16.19l8.61,8.27-10.69,3.1-1.74-6A4.29,4.29,0,0,1,280.9,225.38Zm1.76,12h10.65l-5.15,8.91h-5.5Zm36.76,8.91,5.14-8.91h5.5v8.91Z"/><path id="Path_290" data-name="Path 290" class="cls-4" d="M314.73,259a1.23,1.23,0,0,0-.6-1.05l-10.63-6.14a1.22,1.22,0,0,0-1.66.44,1.32,1.32,0,0,0-.16.61v12.28a1.21,1.21,0,0,0,1.2,1.21,1.22,1.22,0,0,0,.62-.16L314.13,260A1.23,1.23,0,0,0,314.73,259Zm-10.63,4v-8.08l7,4Z"/><path id="Path_291" data-name="Path 291" class="cls-4" d="M306.36,269.5a1.21,1.21,0,1,0,1.21,1.21h0A1.21,1.21,0,0,0,306.36,269.5Z"/></g></g><g id="Group_29" data-name="Group 29"><path id="Path_300" data-name="Path 300" class="cls-3" d="M309.21,375.88h22.18l.82,1.72v12.8l-1.66,1.26H318.34l-3.63,4.73-.39-4.73h-4.54l-1.29-1.91Z"/><g id="online-class"><path id="Path_292" data-name="Path 292" class="cls-1" d="M329.32,430.83a1,1,0,0,1-1,1h-9.83v-3.36a6.92,6.92,0,0,0-5.07-6.64l-5.74-1.56v-1.49a6.85,6.85,0,0,0,2.94-5.63v-1.86l.44-.21a1,1,0,0,0,.55-.88v-5.9l5.26-2a1,1,0,0,0,0-1.84l-12.78-4.91a.94.94,0,0,0-.7,0l-12.78,4.91a1,1,0,0,0-.63.91v4.51l-2.66,2.66,1.39,1.39,1.27-1.27v1.56h2v-1.56l1.27,1.27,1.39-1.39L292,405.84v-3.07l3.93,1.52v5.9a1,1,0,0,0,.55.88l.44.21v1.86a6.74,6.74,0,0,0,2.94,5.63v1.48l-5.74,1.56a6.92,6.92,0,0,0-5.07,6.64v3.37h-9.83a1,1,0,0,1-1-1h0V392.49h27.52v-2H278.2v-4.91a1,1,0,0,1,1-1h26.54v-2H279.18a3,3,0,0,0-2.95,2.94v45.23a3,3,0,0,0,2.95,2.95h49.15a3,3,0,0,0,2.95-2.95V394.45h-2ZM301.8,421v-1.28a6.75,6.75,0,0,0,3.93,0V421a.94.94,0,0,0,.34.73l-2.31,1.92-2.31-1.92a1,1,0,0,0,.35-.73Zm2-23.53,10,3.86-10,3.87-10-3.87Zm-.35,9.7a1.05,1.05,0,0,0,.7,0l5.54-2.13v4.52a11.6,11.6,0,0,1-11.8,0V405Zm-4.57,6v-1.05a12,12,0,0,0,9.84,0v1.05a4.91,4.91,0,0,1-4.92,4.91,4.8,4.8,0,0,1-2.46-.66,4.29,4.29,0,0,1-1-.77,4.84,4.84,0,0,1-1.44-3.48ZM291,428.45a5,5,0,0,1,3.62-4.75l4.64-1.26,3.89,3.25a1,1,0,0,0,1.26,0l3.89-3.24,4.64,1.26a4.94,4.94,0,0,1,3.62,4.74v3.37h-3v-3.94h-2v3.93H295.9v-3.93h-2v3.93H291Z"/><path id="Path_293" data-name="Path 293" class="cls-1" d="M282.13,386.59h2v2h-2Z"/><path id="Path_294" data-name="Path 294" class="cls-1" d="M286.07,386.59h2v2h-2Z"/><path id="Path_295" data-name="Path 295" class="cls-1" d="M290,386.59h2v2h-2Z"/><path id="Path_296" data-name="Path 296" class="cls-1" d="M330.3,374.79H310.64a3,3,0,0,0-2.95,2.95h0v11.8a3,3,0,0,0,2.95,2.95h2.95v3.93a1,1,0,0,0,1,1,1,1,0,0,0,.77-.36l3.64-4.55H330.3a3,3,0,0,0,2.95-2.95h0v-11.8a3,3,0,0,0-2.95-2.95Zm1,14.75a1,1,0,0,1-1,1H318.5a1,1,0,0,0-.76.37l-2.19,2.73V391.5a1,1,0,0,0-1-1h-3.93a1,1,0,0,1-1-1h0v-11.8a1,1,0,0,1,1-1H330.3a1,1,0,0,1,1,1h0Z"/><path id="Path_297" data-name="Path 297" class="cls-1" d="M313.59,378.72h13.76v2H313.59Z"/><path id="Path_298" data-name="Path 298" class="cls-1" d="M313.59,382.66h13.76v2H313.59Z"/><path id="Path_299" data-name="Path 299" class="cls-1" d="M313.59,386.59h13.76v2H313.59Z"/></g></g><path id="Path_238" data-name="Path 238" class="cls-5" d="M296.06,66.74c-7,11-24.13,14.1-25.42,4.93-.8-5.68-1.29-13.88,2.12-17.59,1.78-1.94,6.5-.55,9.4-1C289.82,52.05,303,55.73,296.06,66.74Z"/><g id="ソーシャルデータ" class="cls-6"><g class="cls-6"><path class="cls-1" d="M249.42,152.1a17.69,17.69,0,0,1,1.52,2.87l-1.16.54a16.8,16.8,0,0,0-1.45-2.73,24.59,24.59,0,0,0-1.91-2.61l1-.75A25.13,25.13,0,0,1,249.42,152.1Zm9.22-2.73a18.41,18.41,0,0,1-3.09,7.49A13.67,13.67,0,0,1,249,161.8l-.69-1.08a13.34,13.34,0,0,0,6.08-4.49,16.6,16.6,0,0,0,3-7.1Z"/><path class="cls-1" d="M274.46,154.59v1.16H262.57v-1.16Z"/><path class="cls-1" d="M283.4,154.51l-.64,1.05a19.23,19.23,0,0,0-4.58-1.84l.51-1.12A18.66,18.66,0,0,1,283.4,154.51Zm7.43-2a16.33,16.33,0,0,1-11.08,9.36l-.58-1.15a15.84,15.84,0,0,0,6.52-3.34,14.41,14.41,0,0,0,4-5.32Zm-6-1.57-.68,1a15.85,15.85,0,0,0-4.56-1.87l.51-1.12A16.53,16.53,0,0,1,284.83,151Z"/><path class="cls-1" d="M305.66,154.33a14.06,14.06,0,0,1-3.22,4.1l-.85-.84a15.09,15.09,0,0,0,2.32-2.59l-4.13.74,1.11,5.7-1.2.22-1.12-5.7-3,.53-.23-1.14,3-.51-.59-3,1.22-.23.59,3,5.3-.92Z"/><path class="cls-1" d="M314,149.45v4.9a11,11,0,0,1-.72,4.4,8,8,0,0,1-2.67,3l-.8-.93a7.63,7.63,0,0,0,2.34-2.69,10.12,10.12,0,0,0,.59-3.82v-4.9Zm4.55-.35v10.66a17.11,17.11,0,0,0,4.56-4.68l1,.72a19.78,19.78,0,0,1-2.7,3.17,15.7,15.7,0,0,1-3.33,2.42l-.79-.43V149.1Z"/><path class="cls-1" d="M339,153.37v1.15h-5.78a9.89,9.89,0,0,1-1,4.18,8.91,8.91,0,0,1-3.6,3.3l-.84-.93A8,8,0,0,0,331,158.2a7.81,7.81,0,0,0,.91-3.68h-6.11v-1.15Zm-2.31-3.92v1.15h-9.46v-1.15Zm1.94.83-.69.48a11,11,0,0,0-1.68-2.14l.64-.5A10.08,10.08,0,0,1,338.62,150.28Zm1.73-.75-.69.49a11.36,11.36,0,0,0-1.68-2.14l.64-.51A10.72,10.72,0,0,1,340.35,149.53Z"/><path class="cls-1" d="M354.46,154.59v1.16H342.57v-1.16Z"/><path class="cls-1" d="M364.35,148.63c-.2.54-.41,1.09-.66,1.63h5.44l.77.44a14.72,14.72,0,0,1-2.87,6.69,14,14,0,0,1-6,4.49l-.67-1.07a13.77,13.77,0,0,0,5.42-3.79c.05-.07.1-.11.15-.18-.45-.32-.95-.65-1.46-1a24.47,24.47,0,0,0-2.38-1.38l.73-.89c.74.38,1.54.83,2.37,1.34.53.32,1,.64,1.46,1a13.07,13.07,0,0,0,1.89-4.45h-5.45c-.25.45-.54.88-.84,1.32a16.39,16.39,0,0,1-3.06,3.21l-.85-.83a17.92,17.92,0,0,0,3-3.17,14.57,14.57,0,0,0,1.89-3.7Z"/></g></g><g id="ビデオオンデマンド" class="cls-6"><g class="cls-6"><path class="cls-1" d="M250.37,309.26a41.79,41.79,0,0,1-8.74,3.38v2.48a1.66,1.66,0,0,0,.64,1.52,7.43,7.43,0,0,0,3.33.5,40.24,40.24,0,0,0,5.1-.32V318c-2.44.16-4.1.26-5,.26a10,10,0,0,1-4.25-.6,2.6,2.6,0,0,1-1.06-2.46c0-3.59,0-6.69.06-9.33h1.24c0,1.77-.05,3.62-.05,5.52a36,36,0,0,0,8.05-3.11Zm1-1.61-.69.48A11.09,11.09,0,0,0,249,306l.64-.51A10.5,10.5,0,0,1,251.33,307.65Zm1.5-1-.69.5a11.58,11.58,0,0,0-1.68-2.15l.64-.5A10.88,10.88,0,0,1,252.83,306.64Z"/><path class="cls-1" d="M267.49,310.37v1.15h-5.78a9.89,9.89,0,0,1-1,4.18,8.91,8.91,0,0,1-3.6,3.3l-.84-.93a8,8,0,0,0,3.25-2.87,7.81,7.81,0,0,0,.91-3.68h-6.11v-1.15Zm-2.31-3.92v1.15h-9.46v-1.15Zm1.94.83-.69.48a11,11,0,0,0-1.68-2.14l.64-.5A10.08,10.08,0,0,1,267.12,307.28Zm1.73-.75-.69.49a11.36,11.36,0,0,0-1.68-2.14l.64-.51A10.72,10.72,0,0,1,268.85,306.53Z"/><path class="cls-1" d="M279.79,305.46v2.88h3.67v1.15h-3.67V317c0,1.16-.62,1.73-1.84,1.73a20.3,20.3,0,0,1-2.16-.16v-1.15a17.1,17.1,0,0,0,2.1.21.59.59,0,0,0,.64-.66v-6.3a14.42,14.42,0,0,1-2.89,3.52,24.37,24.37,0,0,1-4.14,3.28l-.8-1a26.56,26.56,0,0,0,4.1-3.14,22.54,22.54,0,0,0,3.33-3.89h-7.08v-1.15h7.48v-2.88Z"/><path class="cls-1" d="M295.79,305.46v2.88h3.67v1.15h-3.67V317c0,1.16-.62,1.73-1.84,1.73a20.3,20.3,0,0,1-2.16-.16v-1.15a17.1,17.1,0,0,0,2.1.21.59.59,0,0,0,.64-.66v-6.3a14.42,14.42,0,0,1-2.89,3.52,24.37,24.37,0,0,1-4.14,3.28l-.8-1a26.56,26.56,0,0,0,4.1-3.14,22.54,22.54,0,0,0,3.33-3.89h-7.08v-1.15h7.48v-2.88Z"/><path class="cls-1" d="M308.19,309.28l-.8,1a36.54,36.54,0,0,0-4.55-3l.61-1.07A36.25,36.25,0,0,1,308.19,309.28Zm7.22,0a17.08,17.08,0,0,1-4.28,6.07,16.46,16.46,0,0,1-6.93,3.59l-.57-1.12a15.52,15.52,0,0,0,6.48-3.32,16.17,16.17,0,0,0,4.15-5.68Z"/><path class="cls-1" d="M331.49,310.37v1.15h-5.78a9.89,9.89,0,0,1-1,4.18,8.91,8.91,0,0,1-3.6,3.3l-.84-.93a8,8,0,0,0,3.25-2.87,7.81,7.81,0,0,0,.91-3.68h-6.11v-1.15Zm-2.31-3.92v1.15h-9.46v-1.15Zm1.94.83-.69.48a11,11,0,0,0-1.68-2.14l.64-.5A10.08,10.08,0,0,1,331.12,307.28Zm1.73-.75-.69.49a11.36,11.36,0,0,0-1.68-2.14l.64-.51A10.72,10.72,0,0,1,332.85,306.53Z"/><path class="cls-1" d="M346.78,306.7l.71.74a32.52,32.52,0,0,1-2.66,3.92,37.48,37.48,0,0,1-3,3.36,45.93,45.93,0,0,1,3.46,3.51l-1,.82a40.16,40.16,0,0,0-3.81-3.81,33.61,33.61,0,0,0-4.06-3.19l.77-.94a34.28,34.28,0,0,1,3.69,2.78,36.85,36.85,0,0,0,2.52-2.75,33.93,33.93,0,0,0,2.33-3.28H334.51V306.7Z"/><path class="cls-1" d="M356.19,309.28l-.8,1a36.54,36.54,0,0,0-4.55-3l.61-1.07A36.25,36.25,0,0,1,356.19,309.28Zm7.22,0a17.08,17.08,0,0,1-4.28,6.07,16.46,16.46,0,0,1-6.93,3.59l-.57-1.12a15.52,15.52,0,0,0,6.48-3.32,16.17,16.17,0,0,0,4.15-5.68Z"/><path class="cls-1" d="M371.37,305.47v5.08a25.51,25.51,0,0,1,3.83,1,25.77,25.77,0,0,1,3.5,1.39l-.54,1.06a26.51,26.51,0,0,0-3.23-1.3,24.77,24.77,0,0,0-3.56-.93V319h-1.26V305.47Zm6.31,3.43-.69.48a10.8,10.8,0,0,0-1.68-2.15l.64-.51A10,10,0,0,1,377.68,308.9Zm1.6-1.12-.69.49a10.52,10.52,0,0,0-1.66-2.14l.62-.5A9.84,9.84,0,0,1,379.28,307.78Z"/></g></g><g id="ゲーム" class="cls-6"><g class="cls-6"><path class="cls-1" d="M100.14,464.65a13.21,13.21,0,0,1-3,3.41l-.86-.9a12.86,12.86,0,0,0,2.88-3.22,16.33,16.33,0,0,0,1.79-3.82l1.2.35a16.46,16.46,0,0,1-1.21,2.91H110v1.17H105.7a12.78,12.78,0,0,1-1.51,5.3,10.6,10.6,0,0,1-4.53,4l-.81-1a9.29,9.29,0,0,0,4.17-3.68,11.61,11.61,0,0,0,1.4-4.69h-4.21Zm9-2.07-.69.48a11,11,0,0,0-1.68-2.14l.64-.51A10.71,10.71,0,0,1,109.11,462.58Zm1.82-.88-.69.52a11.1,11.1,0,0,0-1.68-2.17l.64-.49A11.13,11.13,0,0,1,110.93,461.7Z"/><path class="cls-1" d="M125.46,466.59v1.16H113.57v-1.16Z"/><path class="cls-1" d="M142.28,473.55l-1.12.61c-.36-.68-.69-1.3-1-1.86-3,.43-6.8.74-11.44.93l0-1.15,1.53-.07c1.16-3.2,2.58-7.06,4.31-11.57l1.2.4q-2,5.16-4.15,11.11c3.14-.19,5.8-.43,8-.74l-.48-.81a32.62,32.62,0,0,0-2.37-3.54l1-.72A45.14,45.14,0,0,1,142.28,473.55Z"/></g></g><g id="オンライン学習" class="cls-6"><g class="cls-6"><path class="cls-1" d="M263.79,460.46v2.88h3.67v1.15h-3.67V472c0,1.16-.62,1.73-1.84,1.73a20.3,20.3,0,0,1-2.16-.16v-1.15a17.1,17.1,0,0,0,2.1.21.59.59,0,0,0,.64-.66v-6.3a14.42,14.42,0,0,1-2.89,3.52,24.37,24.37,0,0,1-4.14,3.28l-.8-1a26.56,26.56,0,0,0,4.1-3.14,22.54,22.54,0,0,0,3.33-3.89h-7.08v-1.15h7.48v-2.88Z"/><path class="cls-1" d="M276.19,464.28l-.8,1a36.54,36.54,0,0,0-4.55-3l.61-1.07A36.25,36.25,0,0,1,276.19,464.28Zm7.22,0a17.08,17.08,0,0,1-4.28,6.07,16.46,16.46,0,0,1-6.93,3.59l-.57-1.12a15.52,15.52,0,0,0,6.48-3.32,16.17,16.17,0,0,0,4.15-5.68Z"/><path class="cls-1" d="M298.3,464.87l.71.55a13.78,13.78,0,0,1-2.82,5.26,11.24,11.24,0,0,1-5.73,3.14l-.64-1.1a11.11,11.11,0,0,0,5.11-2.6,10.51,10.51,0,0,0,2.56-4.08h-10v-1.17Zm-.8-3.52v1.15h-8.7v-1.15Z"/><path class="cls-1" d="M314.26,461.21a31.18,31.18,0,0,1-4.36,3.85v8.7h-1.25V466a34.91,34.91,0,0,1-5.58,3.07l-.66-1.06a35.77,35.77,0,0,0,10.9-7.57Z"/><path class="cls-1" d="M324.19,464.28l-.8,1a36.54,36.54,0,0,0-4.55-3l.61-1.07A36.25,36.25,0,0,1,324.19,464.28Zm7.22,0a17.08,17.08,0,0,1-4.28,6.07,16.46,16.46,0,0,1-6.93,3.59l-.57-1.12a15.52,15.52,0,0,0,6.48-3.32,16.17,16.17,0,0,0,4.15-5.68Z"/><path class="cls-1" d="M345.33,465.59v1a37,37,0,0,1-3.54,2v.81h6.1v1.09h-6.1v2.71c0,.86-.46,1.29-1.36,1.29h-2l-.28-1.05c.58,0,1.22,0,1.91,0,.38,0,.59-.23.59-.67v-2.31h-6.48V469.4h6.48v-1.33c1.35-.59,2.35-1.07,3.06-1.45h-7v-1Zm2.43,1.12h-1.14v-2.48H335.37v2.48h-1.12v-3.58h9.17a19.61,19.61,0,0,0,1.83-3.35l1.17.44a17.2,17.2,0,0,1-1.75,2.91h3.09Zm-9.59-4.17-1,.49a18.68,18.68,0,0,0-1.7-2.49l1-.52A21.51,21.51,0,0,1,338.17,462.54Zm3.75-.18-1,.51a19.13,19.13,0,0,0-1.53-2.64l1-.51A25.12,25.12,0,0,1,341.92,462.36Z"/><path class="cls-1" d="M356.22,460.47v5.89h-1.14v-1.28a27.24,27.24,0,0,1-4.3,1.83l-.45-1.08a22.68,22.68,0,0,0,4.75-1.79v-2.48h-4.49v-1.09Zm-2.29,3.3-.67.67a14.9,14.9,0,0,0-2.23-1.79l.68-.64A16.71,16.71,0,0,1,353.93,463.77Zm8.58,10.8h-1.13v-.7h-8.06v.7h-1.13V467.5h4.08a7.32,7.32,0,0,0,.45-1.2l1.2.14a4,4,0,0,1-.43,1.06h5Zm-1.13-4.37v-1.65h-8.06v1.65Zm0,2.6v-1.57h-8.06v1.57Zm1.69-12.33v6.34H362v-2.26a24.46,24.46,0,0,1-4.07,1.7l-.43-1a22.89,22.89,0,0,0,4.5-1.71v-2h-4.45v-1.09Zm-2.88,3-.66.66a12,12,0,0,0-2-1.65l.69-.65A14.38,14.38,0,0,1,360.19,463.46Z"/></g></g><g id="ファイナンシャルトレーディング" class="cls-6"><g class="cls-6"><path class="cls-1" d="M68.23,143l.67.51a17.24,17.24,0,0,1-3.17,6.79,15.51,15.51,0,0,1-5.92,4.59L59,154a15.85,15.85,0,0,0,5.24-3.78,14.91,14.91,0,0,0,3.21-6H57.18V143Z"/><path class="cls-1" d="M83.84,145.46l.64.56a12.25,12.25,0,0,1-3.28,4.24l-.83-.77a11.15,11.15,0,0,0,2.5-2.93H75v-1.1ZM80,147.76v1.49a5.81,5.81,0,0,1-3.41,5.59l-.75-1A5.68,5.68,0,0,0,78.11,152a5.11,5.11,0,0,0,.67-2.71v-1.49Z"/><path class="cls-1" d="M100.76,142.21a31.18,31.18,0,0,1-4.36,3.85v8.7H95.15V147A34.91,34.91,0,0,1,89.57,150L88.91,149a35.77,35.77,0,0,0,10.9-7.57Z"/><path class="cls-1" d="M111.12,145.6v-4.19h1.27v4.19h5.82v1.15h-5.82v.63a9.5,9.5,0,0,1-1,4.61,7.5,7.5,0,0,1-3.27,3.06l-.83-1a6.84,6.84,0,0,0,3-2.76,8.21,8.21,0,0,0,.85-3.92v-.61H104.8V145.6Z"/><path class="cls-1" d="M126.69,145.28l-.8,1a36.54,36.54,0,0,0-4.55-3l.61-1.07A36.25,36.25,0,0,1,126.69,145.28Zm7.22,0a17.08,17.08,0,0,1-4.28,6.07,16.46,16.46,0,0,1-6.93,3.59l-.57-1.12a15.52,15.52,0,0,0,6.48-3.32,16.17,16.17,0,0,0,4.15-5.68Z"/><path class="cls-1" d="M142.4,147.51l-.64,1.05a19.23,19.23,0,0,0-4.58-1.84l.51-1.12A18.66,18.66,0,0,1,142.4,147.51Zm7.43-2a16.33,16.33,0,0,1-11.08,9.36l-.58-1.15a15.84,15.84,0,0,0,6.52-3.34,14.41,14.41,0,0,0,4-5.32Zm-6-1.57-.68,1a15.85,15.85,0,0,0-4.56-1.87l.51-1.12A16.53,16.53,0,0,1,143.83,144Z"/><path class="cls-1" d="M164.66,147.33a14.06,14.06,0,0,1-3.22,4.1l-.85-.84a15.09,15.09,0,0,0,2.32-2.59l-4.13.74,1.11,5.7-1.2.22-1.12-5.7-3,.53-.23-1.14,3-.51-.59-3,1.22-.23.59,3,5.3-.92Z"/><path class="cls-1" d="M173,142.45v4.9a11,11,0,0,1-.72,4.4,8,8,0,0,1-2.67,3l-.8-.93a7.63,7.63,0,0,0,2.34-2.69,10.12,10.12,0,0,0,.59-3.82v-4.9Zm4.55-.35v10.66a17.11,17.11,0,0,0,4.56-4.68l1,.72a19.78,19.78,0,0,1-2.7,3.17,15.7,15.7,0,0,1-3.33,2.42l-.79-.43V142.1Z"/></g><g class="cls-6"><path class="cls-1" d="M69.87,165.47v5.08a25.51,25.51,0,0,1,3.83,1,25.77,25.77,0,0,1,3.5,1.39L76.66,174a26.51,26.51,0,0,0-3.23-1.3,24.77,24.77,0,0,0-3.56-.93V179H68.61V165.47Z"/><path class="cls-1" d="M85.14,165.84V177.3a17.35,17.35,0,0,0,4.48-2.3,16.71,16.71,0,0,0,3.7-3.53l1,.72a18.51,18.51,0,0,1-4.39,4.12,19.23,19.23,0,0,1-5.44,2.46l-.62-.54V165.84Z"/><path class="cls-1" d="M109.46,171.59v1.16H97.57v-1.16Z"/><path class="cls-1" d="M126,170.37v1.15h-5.78a9.89,9.89,0,0,1-1,4.18,8.91,8.91,0,0,1-3.6,3.3l-.84-.93A8,8,0,0,0,118,175.2a7.81,7.81,0,0,0,.91-3.68h-6.11v-1.15Zm-2.31-3.92v1.15h-9.46v-1.15Zm1.94.83-.69.48a11,11,0,0,0-1.68-2.14l.64-.5A10.08,10.08,0,0,1,125.62,167.28Zm1.73-.75-.69.49a11.36,11.36,0,0,0-1.68-2.14l.64-.51A10.72,10.72,0,0,1,127.35,166.53Z"/><path class="cls-1" d="M139.47,169.3a24.73,24.73,0,0,1-3.31,2.85v6.4H135V173a29.77,29.77,0,0,1-4.08,2.18l-.67-1.06a28.41,28.41,0,0,0,4.61-2.54,25.09,25.09,0,0,0,3.73-3.09Z"/><path class="cls-1" d="M150.69,169.28l-.8,1a36.54,36.54,0,0,0-4.55-3l.61-1.07A36.25,36.25,0,0,1,150.69,169.28Zm7.22,0a17.08,17.08,0,0,1-4.28,6.07,16.46,16.46,0,0,1-6.93,3.59l-.57-1.12a15.52,15.52,0,0,0,6.48-3.32,16.17,16.17,0,0,0,4.15-5.68Z"/><path class="cls-1" d="M167.35,165.68c-.23.61-.49,1.22-.76,1.79H172l.76.42a14.78,14.78,0,0,1-2.88,6.74,14,14,0,0,1-5.9,4.25l-.66-1.07a13.19,13.19,0,0,0,5.14-3.44,12.23,12.23,0,0,0,2.88-5.73H166c-.23.37-.45.72-.69,1.07a15.47,15.47,0,0,1-3.12,3.25l-.86-.83a16.86,16.86,0,0,0,3-3.15,15.32,15.32,0,0,0,1.89-3.68Zm5.66,1-.67.48a11.18,11.18,0,0,0-1.7-2.15l.66-.51A10.74,10.74,0,0,1,173,166.69Zm2.31-.1-.69.51a10.58,10.58,0,0,0-1.68-2.16l.64-.49A11.21,11.21,0,0,1,175.32,166.59Z"/></g></g><g id="Eコマース" class="cls-6"><g class="cls-6"><path class="cls-1" d="M84.66,318V306.39h6.46v1.23H86.3v3.71h4v1.21h-4v4.19h5.16V318Z"/></g><g class="cls-6"><path class="cls-1" d="M105.24,307.51v10.31H94.09v-1.17H104v-8h-9.7v-1.17Z"/><path class="cls-1" d="M121.62,306.68l.7.74a31.19,31.19,0,0,1-2.65,3.92,37.48,37.48,0,0,1-3,3.36,44,44,0,0,1,3.45,3.51l-1,.81a44,44,0,0,0-3.81-3.81,35.3,35.3,0,0,0-4.07-3.18l.77-.95a34.84,34.84,0,0,1,3.7,2.79c.86-.86,1.71-1.78,2.51-2.75a32.47,32.47,0,0,0,2.34-3.28H109.34v-1.16Z"/><path class="cls-1" d="M137.8,311.56v1.17H125.9v-1.17Z"/><path class="cls-1" d="M148.23,314a21.35,21.35,0,0,1-6.44,4.8l-.77-1a18.62,18.62,0,0,0,9.46-9.78h-7.82v-1.17h8.7l.79.53A25,25,0,0,1,149,313c1,.64,1.87,1.33,2.79,2.06a26.76,26.76,0,0,1,3.1,2.85l-1,.82a26.41,26.41,0,0,0-3-2.74,33.57,33.57,0,0,0-2.72-2Z"/></g></g></g></g></svg>