<svg xmlns="http://www.w3.org/2000/svg" width="838.854" height="815.939" viewBox="0 0 838.854 815.939">
  <g id="Group_2148" data-name="Group 2148" transform="translate(-1362.951 -9994.178)">
    <g id="Group_2146" data-name="Group 2146" transform="translate(902 -881)">
      <g id="Group_2083" data-name="Group 2083" transform="translate(460.951 10875.178)">
        <g id="Rectangle_2558" data-name="Rectangle 2558" transform="translate(20.556 22.718)">
          <g id="Group_2001" data-name="Group 2001">
            <path id="Path_10108" data-name="Path 10108" d="M1418.147,81.725h-1.961V75.516h6.209v1.961h-4.248Z" transform="translate(-1416.186 -75.516)" fill="#3f3d56"/>
            <path id="Path_10109" data-name="Path 10109" d="M2214.243,77.477H2201.78V75.516h12.464Zm-24.926,0h-12.463V75.516h12.463Zm-24.924,0h-12.462V75.516h12.462Zm-24.926,0H2127V75.516h12.463Zm-24.927,0h-12.462V75.516h12.462Zm-24.925,0h-12.461V75.516h12.461Zm-24.923,0h-12.464V75.516h12.464Zm-24.927,0H2027.3V75.516h12.463Zm-24.925,0h-12.461V75.516h12.461Zm-24.924,0h-12.462V75.516h12.462Zm-24.926,0h-12.464V75.516h12.464Zm-24.926,0H1927.6V75.516h12.464Zm-24.924,0h-12.464V75.516h12.464Zm-24.926,0h-12.464V75.516h12.464Zm-24.927,0h-12.462V75.516h12.462Zm-24.926,0H1827.9V75.516h12.461Zm-24.924,0h-12.462V75.516h12.462Zm-24.925,0h-12.464V75.516h12.464Zm-24.924,0h-12.464V75.516h12.464Zm-24.927,0H1728.2V75.516h12.462Zm-24.924,0h-12.464V75.516h12.464Zm-24.926,0h-12.462V75.516h12.462Zm-24.926,0h-12.462V75.516h12.462Zm-24.924,0H1628.5V75.516h12.464Zm-24.927,0h-12.462V75.516h12.462Zm-24.924,0h-12.463V75.516h12.463Zm-24.925,0h-12.462V75.516h12.462Zm-24.926,0H1528.8V75.516h12.462Zm-24.926,0h-12.462V75.516h12.462Zm-24.925,0h-12.462V75.516h12.462Zm-24.924,0H1454.02V75.516h12.463Zm-24.926,0h-12.463V75.516h12.463Z" transform="translate(-1412.52 -75.516)" fill="#3f3d56"/>
            <path id="Path_10110" data-name="Path 10110" d="M1951.938,81.725h-1.961V77.477h-4.248V75.516h6.209Z" transform="translate(-1133.64 -75.516)" fill="#3f3d56"/>
            <path id="Path_10111" data-name="Path 10111" d="M1951,848.528h-1.962V837.183H1951Zm0-22.689h-1.962V814.493H1951Zm0-22.691h-1.962V791.8H1951Zm0-22.691h-1.962V769.111H1951Zm0-22.689h-1.962V746.423H1951Zm0-22.691h-1.962V723.732H1951Zm0-22.69h-1.962V701.042H1951Zm0-22.69h-1.962V678.352H1951Zm0-22.69h-1.962V655.66H1951Zm0-22.691h-1.962V632.97H1951Zm0-22.688h-1.962V610.28H1951Zm0-22.691h-1.962V587.59H1951Zm0-22.691h-1.962V564.9H1951Zm0-22.689h-1.962V542.21H1951Zm0-22.691h-1.962V519.519H1951Zm0-22.69h-1.962V496.829H1951Zm0-22.69h-1.962V474.139H1951Zm0-22.69h-1.962V451.448H1951Zm0-22.691h-1.962V428.759H1951Zm0-22.69h-1.962V406.068H1951Zm0-22.69h-1.962V383.378H1951Zm0-22.691h-1.962V360.688H1951Zm0-22.689h-1.962V338H1951Zm0-22.691h-1.962V315.307H1951Zm0-22.69h-1.962V292.617H1951Zm0-22.69h-1.962V269.927H1951Zm0-22.691h-1.962V247.235H1951Zm0-22.69h-1.962V224.545H1951Zm0-22.69h-1.962V201.855H1951Zm0-22.69h-1.962V179.164H1951Zm0-22.691h-1.962V156.475H1951Zm0-22.69h-1.962V133.784H1951Zm0-22.69h-1.962V111.094H1951Zm0-22.69h-1.962V88.4H1951Z" transform="translate(-1132.7 -71.856)" fill="#3f3d56"/>
            <path id="Path_10112" data-name="Path 10112" d="M1951.938,642.157h-6.209V640.2h4.248v-4.248h1.961Z" transform="translate(-1133.64 151.064)" fill="#3f3d56"/>
            <path id="Path_10113" data-name="Path 10113" d="M2214.243,641.218H2201.78v-1.961h12.464Zm-24.926,0h-12.463v-1.961h12.463Zm-24.924,0h-12.462v-1.961h12.462Zm-24.926,0H2127v-1.961h12.463Zm-24.927,0h-12.462v-1.961h12.462Zm-24.923,0h-12.464v-1.961h12.464Zm-24.926,0h-12.464v-1.961h12.464Zm-24.927,0H2027.3v-1.961h12.463Zm-24.925,0h-12.461v-1.961h12.461Zm-24.924,0h-12.462v-1.961h12.462Zm-24.926,0h-12.464v-1.961h12.464Zm-24.926,0H1927.6v-1.961h12.464Zm-24.924,0h-12.464v-1.961h12.464Zm-24.926,0h-12.464v-1.961h12.464Zm-24.927,0h-12.462v-1.961h12.462Zm-24.923,0H1827.9v-1.961h12.464Zm-24.927,0h-12.462v-1.961h12.462Zm-24.925,0H1778.05v-1.961h12.462Zm-24.924,0h-12.464v-1.961h12.464Zm-24.926,0H1728.2v-1.961h12.464Zm-24.926,0h-12.464v-1.961h12.464Zm-24.926,0h-12.462v-1.961h12.462Zm-24.926,0h-12.462v-1.961h12.462Zm-24.924,0H1628.5v-1.961h12.464Zm-24.926,0h-12.464v-1.961h12.464Zm-24.926,0h-12.462v-1.961h12.462Zm-24.925,0h-12.462v-1.961h12.462Zm-24.926,0H1528.8v-1.961h12.462Zm-24.926,0h-12.462v-1.961h12.462Zm-24.924,0h-12.464v-1.961h12.464Zm-24.926,0h-12.462v-1.961h12.462Zm-24.926,0h-12.463v-1.961h12.463Z" transform="translate(-1412.52 152.004)" fill="#3f3d56"/>
            <path id="Path_10114" data-name="Path 10114" d="M1422.4,642.157h-6.209v-6.209h1.961V640.2h4.248Z" transform="translate(-1416.186 151.064)" fill="#3f3d56"/>
            <path id="Path_10115" data-name="Path 10115" d="M1418.146,848.529h-1.96V837.184h1.96Zm0-22.69h-1.96V814.494h1.96Zm0-22.69h-1.96V791.8h1.96Zm0-22.691h-1.96V769.113h1.96Zm0-22.689h-1.96V746.423h1.96Zm0-22.691h-1.96V723.733h1.96Zm0-22.69h-1.96V701.041h1.96Zm0-22.69h-1.96V678.353h1.96Zm0-22.691h-1.96V655.661h1.96Zm0-22.69h-1.96V632.97h1.96Zm0-22.69h-1.96V610.282h1.96Zm0-22.69h-1.96V587.59h1.96Zm0-22.691h-1.96V564.9h1.96Zm0-22.69h-1.96V542.21h1.96Zm0-22.69h-1.96V519.52h1.96Zm0-22.691h-1.96V496.83h1.96Zm0-22.689h-1.96V474.139h1.96Zm0-22.691h-1.96V451.449h1.96Zm0-22.691h-1.96V428.759h1.96Zm0-22.689h-1.96V406.069h1.96Zm0-22.691h-1.96V383.378h1.96Zm0-22.69h-1.96V360.688h1.96Zm0-22.69h-1.96V338h1.96Zm0-22.69h-1.96V315.306h1.96Zm0-22.691h-1.96V292.618h1.96Zm0-22.69h-1.96V269.926h1.96Zm0-22.69h-1.96V247.236h1.96Zm0-22.691h-1.96V224.547h1.96Zm0-22.689h-1.96V201.855h1.96Zm0-22.691h-1.96V179.165h1.96Zm0-22.69h-1.96V156.475h1.96Zm0-22.69h-1.96V133.785h1.96Zm0-22.691h-1.96V111.094h1.96Zm0-22.689h-1.96V88.4h1.96Z" transform="translate(-1416.186 -71.856)" fill="#3f3d56"/>
          </g>
          <g id="Group_2002" data-name="Group 2002" transform="translate(0.62 0.619)">
            <path id="Path_10116" data-name="Path 10116" d="M1418.63,82.207h-1.961V76h6.209v1.961h-4.248Z" transform="translate(-1416.669 -75.998)" fill="#3f3d56"/>
            <path id="Path_10117" data-name="Path 10117" d="M2213.508,77.959h-12.442V76h12.442Zm-24.885,0h-12.446V76h12.446Zm-24.887,0h-12.443V76h12.443Zm-24.889,0H2126.4V76h12.442Zm-24.887,0h-12.443V76h12.443Zm-24.886,0h-12.446V76h12.446Zm-24.889,0h-12.441V76h12.441Zm-24.887,0h-12.443V76H2039.3Zm-24.889,0h-12.443V76h12.443Zm-24.884,0H1977.08V76h12.446Zm-24.889,0h-12.446V76h12.446Zm-24.888,0h-12.441V76h12.441Zm-24.887,0h-12.443V76h12.443Zm-24.889,0H1877.53V76h12.443Zm-24.884,0h-12.446V76h12.446Zm-24.889,0h-12.443V76H1840.2Zm-24.889,0h-12.441V76h12.441Zm-24.887,0h-12.442V76h12.442Zm-24.887,0H1753.1V76h12.443Zm-24.885,0h-12.445V76h12.445Zm-24.889,0h-12.443V76h12.443Zm-24.887,0h-12.443V76h12.443Zm-24.887,0h-12.443V76h12.443Zm-24.887,0h-12.444V76H1641.1Zm-24.887,0h-12.442V76h12.442Zm-24.887,0h-12.444V76h12.444Zm-24.889,0H1554V76h12.441Zm-24.886,0H1529.11V76h12.444Zm-24.889,0h-12.443V76h12.443Zm-24.885,0h-12.444V76h12.444Zm-24.889,0h-12.443V76h12.443Zm-24.886,0h-12.444V76h12.444Z" transform="translate(-1413.007 -75.998)" fill="#3f3d56"/>
            <path id="Path_10118" data-name="Path 10118" d="M1951.455,82.207h-1.961V77.959h-4.248V76h6.209Z" transform="translate(-1134.397 -75.998)" fill="#3f3d56"/>
            <path id="Path_10119" data-name="Path 10119" d="M1950.515,847.794h-1.961V836.466h1.961Zm0-22.654h-1.961V813.812h1.961Zm0-22.655h-1.961V791.157h1.961Zm0-22.654h-1.961V768.5h1.961Zm0-22.653h-1.961V745.849h1.961Zm0-22.655h-1.961V723.195h1.961Zm0-22.654h-1.961V700.541h1.961Zm0-22.656h-1.961V677.886h1.961Zm0-22.654h-1.961V655.232h1.961Zm0-22.653h-1.961V632.578h1.961Zm0-22.655h-1.961V609.924h1.961Zm0-22.654h-1.961V587.268h1.961Zm0-22.655h-1.961V564.614h1.961Zm0-22.654h-1.961V541.96h1.961Zm0-22.655h-1.961V519.306h1.961Zm0-22.653h-1.961V496.652h1.961Zm0-22.654h-1.961V474h1.961Zm0-22.655h-1.961V451.343h1.961Zm0-22.654h-1.961V428.689h1.961Zm0-22.655h-1.961V406.033h1.961Zm0-22.653h-1.961V383.381h1.961Zm0-22.655h-1.961V360.725h1.961Zm0-22.654h-1.961V338.071h1.961Zm0-22.654h-1.961V315.416h1.961Zm0-22.655h-1.961V292.762h1.961Zm0-22.654h-1.961V270.109h1.961Zm0-22.654h-1.961V247.454h1.961Zm0-22.654h-1.961V224.8h1.961Zm0-22.655h-1.961V202.144h1.961Zm0-22.654h-1.961V179.49h1.961Zm0-22.654h-1.961V156.835h1.961Zm0-22.654h-1.961V134.182h1.961Zm0-22.654h-1.961V111.527h1.961Zm0-22.655h-1.961V88.873h1.961Z" transform="translate(-1133.458 -72.341)" fill="#3f3d56"/>
            <path id="Path_10120" data-name="Path 10120" d="M1951.455,641.674h-6.209v-1.961h4.248v-4.248h1.961Z" transform="translate(-1134.397 150.308)" fill="#3f3d56"/>
            <path id="Path_10121" data-name="Path 10121" d="M2213.509,640.734h-12.443v-1.961h12.443Zm-24.888,0h-12.443v-1.961h12.443Zm-24.887,0H2151.29v-1.961h12.443Zm-24.885,0H2126.4v-1.961h12.446Zm-24.887,0h-12.443v-1.961h12.443Zm-24.889,0h-12.443v-1.961h12.443Zm-24.888,0h-12.441v-1.961h12.441Zm-24.884,0h-12.446v-1.961H2039.3Zm-24.889,0h-12.443v-1.961h12.443Zm-24.887,0H1977.08v-1.961h12.443Zm-24.888,0h-12.443v-1.961h12.443Zm-24.885,0H1927.3v-1.961h12.445Zm-24.887,0h-12.443v-1.961h12.443Zm-24.889,0h-12.443v-1.961h12.443Zm-24.887,0h-12.443v-1.961h12.443Zm-24.885,0h-12.446v-1.961H1840.2Zm-24.889,0h-12.442v-1.961h12.442Zm-24.887,0h-12.442v-1.961h12.442Zm-24.887,0h-12.444v-1.961h12.444Zm-24.887,0h-12.445v-1.961h12.445Zm-24.887,0H1703.32v-1.961h12.444Zm-24.888,0h-12.443v-1.961h12.443Zm-24.885,0h-12.444v-1.961h12.444Zm-24.889,0h-12.444v-1.961H1641.1Zm-24.885,0h-12.445v-1.961h12.445Zm-24.888,0h-12.445v-1.961h12.445Zm-24.889,0H1554v-1.961h12.441Zm-24.886,0h-12.444v-1.961h12.444Zm-24.888,0h-12.441v-1.961h12.441Zm-24.886,0h-12.444v-1.961h12.444Zm-24.888,0h-12.443v-1.961h12.443Zm-24.885,0h-12.444v-1.961h12.444Z" transform="translate(-1413.008 151.248)" fill="#3f3d56"/>
            <path id="Path_10122" data-name="Path 10122" d="M1422.878,641.674h-6.209v-6.209h1.961v4.248h4.248Z" transform="translate(-1416.669 150.308)" fill="#3f3d56"/>
            <path id="Path_10123" data-name="Path 10123" d="M1418.63,847.794h-1.961V836.466h1.961Zm0-22.654h-1.961V813.811h1.961Zm0-22.655h-1.961V791.157h1.961Zm0-22.654h-1.961V768.5h1.961Zm0-22.654h-1.961V745.849h1.961Zm0-22.654h-1.961V723.195h1.961Zm0-22.655h-1.961V700.54h1.961Zm0-22.654h-1.961V677.886h1.961Zm0-22.655h-1.961V655.23h1.961Zm0-22.653h-1.961V632.578h1.961Zm0-22.654h-1.961V609.922h1.961Zm0-22.655h-1.961V587.268h1.961Zm0-22.654h-1.961V564.614h1.961Zm0-22.655h-1.961V541.959h1.961Zm0-22.654h-1.961V519.306h1.961Zm0-22.654h-1.961V496.651h1.961Zm0-22.654h-1.961V474h1.961Zm0-22.654h-1.961V451.341h1.961Zm0-22.655h-1.961V428.687h1.961Zm0-22.654h-1.961V406.033h1.961Zm0-22.654h-1.961V383.379h1.961Zm0-22.654h-1.961V360.725h1.961Zm0-22.654h-1.961V338.07h1.961Zm0-22.655h-1.961V315.416h1.961Zm0-22.654h-1.961V292.762h1.961Zm0-22.655h-1.961V270.108h1.961Zm0-22.653h-1.961V247.454h1.961Zm0-22.654h-1.961V224.8h1.961Zm0-22.655h-1.961V202.144h1.961Zm0-22.654h-1.961V179.489h1.961Zm0-22.655h-1.961V156.835h1.961Zm0-22.653h-1.961V134.182h1.961Zm0-22.655h-1.961V111.527h1.961Zm0-22.654h-1.961V88.873h1.961Z" transform="translate(-1416.669 -72.341)" fill="#3f3d56"/>
          </g>
        </g>
        <g id="Rectangle_2558-2" data-name="Rectangle 2558">
          <g id="Group_2023" data-name="Group 2023">
            <rect id="Rectangle_2565" data-name="Rectangle 2565" width="816.336" height="791.261" transform="translate(0.98 0.98)" fill="#fff"/>
            <path id="Path_10258" data-name="Path 10258" d="M2203.8,836.37H1385.5V43.149h818.3Zm-815.958-2.143H2201.46V45.292H1387.841Z" transform="translate(-1385.503 -43.149)" fill="#3f3d56"/>
          </g>
          <g id="Group_2024" data-name="Group 2024" transform="translate(0.62 0.619)">
            <rect id="Rectangle_2566" data-name="Rectangle 2566" width="815.097" height="790.021" transform="translate(0.98 0.981)" fill="#fff"/>
            <path id="Path_10259" data-name="Path 10259" d="M2203.042,835.613H1385.986V43.631h817.056Zm-814.717-2.143H2200.7V45.774H1388.325Z" transform="translate(-1385.986 -43.631)" fill="#3f3d56"/>
          </g>
        </g>
      </g>
      <g id="Group_2146-2" data-name="Group 2146">
        <g id="Risk_Management" data-name="Risk Management" transform="translate(931 11077.33)" style="isolation: isolate">
          <g id="Group_2006" data-name="Group 2006" style="isolation: isolate">
            <path id="Path_10165" data-name="Path 10165" d="M3104.987,213.3v7.979h-2.321V200.449h7.7a7.137,7.137,0,0,1,4.981,1.536,6.19,6.19,0,0,1,1.678,4.786q0,4.815-3.821,6.054l4,8.45h-2.557l-3.763-7.979Zm5.41-2.042q4.244,0,4.247-4.381t-4.278-4.379h-5.378v8.76Z" transform="translate(-3102.665 -199.671)" fill="#3f3d56"/>
            <path id="Path_10166" data-name="Path 10166" d="M3114.3,202.92v-2.632h2.262v2.632Zm0,18.445V206.315h2.262v15.049Z" transform="translate(-3096.162 -199.761)" fill="#3f3d56"/>
            <path id="Path_10167" data-name="Path 10167" d="M3123.543,205.979q-3.276,0-3.279,2.279a1.581,1.581,0,0,0,.75,1.49,12.977,12.977,0,0,0,3.431.906,9.057,9.057,0,0,1,3.791,1.314q1.111.847,1.111,3.159a3.907,3.907,0,0,1-1.486,3.394,7.327,7.327,0,0,1-4.348,1.082,27.731,27.731,0,0,1-4.4-.413l-.909-.145.131-1.972a37.845,37.845,0,0,0,5.174.516,5.219,5.219,0,0,0,2.669-.558,2.018,2.018,0,0,0,.916-1.866,1.88,1.88,0,0,0-.787-1.771,11.778,11.778,0,0,0-3.431-.889,9.213,9.213,0,0,1-3.764-1.235,3.492,3.492,0,0,1-1.116-3.006,3.655,3.655,0,0,1,1.55-3.249,6.755,6.755,0,0,1,3.875-1.051,32.523,32.523,0,0,1,4.6.412l.836.15-.058,1.936A39.118,39.118,0,0,0,3123.543,205.979Z" transform="translate(-3094.092 -197.705)" fill="#3f3d56"/>
            <path id="Path_10168" data-name="Path 10168" d="M3129.758,221.553H3127.5v-21.6h2.262v12.756l2.353-.117,4.306-6.085h2.559l-4.911,6.922,5.115,8.127h-2.558l-4.482-6.981-2.381.087Z" transform="translate(-3088.783 -199.95)" fill="#3f3d56"/>
            <path id="Path_10169" data-name="Path 10169" d="M3141.23,221.274V200.449h4.188l5.893,17.608,5.909-17.608h4.175v20.825h-2.308V202.917h-.424l-6.056,17.608h-2.588l-6.053-17.608h-.414v18.358Z" transform="translate(-3081.105 -199.671)" fill="#3f3d56"/>
            <path id="Path_10170" data-name="Path 10170" d="M3168.159,208.8v7.716q.089,1.115,1.748,1.324l-.089,1.763a4.9,4.9,0,0,1-3.584-1.191,13.042,13.042,0,0,1-5.41,1.191,4.1,4.1,0,0,1-3.159-1.169,4.764,4.764,0,0,1-1.088-3.366,4.25,4.25,0,0,1,1.11-3.24,5.832,5.832,0,0,1,3.491-1.28l4.73-.455V208.8a3.016,3.016,0,0,0-.659-2.189,2.445,2.445,0,0,0-1.808-.664,44.524,44.524,0,0,0-5,.295l-.941.09-.087-1.706a30.179,30.179,0,0,1,5.871-.663,4.185,4.185,0,0,1,4.874,4.836Zm-9.26,6.143q0,2.764,2.278,2.763a12.25,12.25,0,0,0,4.039-.691l.691-.232v-4.97l-4.451.429a2.886,2.886,0,0,0-1.957.778A2.775,2.775,0,0,0,3158.9,214.944Z" transform="translate(-3072.527 -197.705)" fill="#3f3d56"/>
            <path id="Path_10171" data-name="Path 10171" d="M3169.125,219.309h-2.264V204.26h2.235v1.06a9.61,9.61,0,0,1,4.656-1.355q3.014,0,4.058,1.625t1.045,5.768v7.951h-2.236v-7.892a10.13,10.13,0,0,0-.616-4.284q-.62-1.153-2.632-1.154a7.943,7.943,0,0,0-2.035.285,10.852,10.852,0,0,0-1.64.552l-.572.279Z" transform="translate(-3066.778 -197.705)" fill="#3f3d56"/>
            <path id="Path_10172" data-name="Path 10172" d="M3188.19,208.8v7.716q.089,1.115,1.749,1.324l-.09,1.763a4.9,4.9,0,0,1-3.583-1.191,13.049,13.049,0,0,1-5.409,1.191,4.1,4.1,0,0,1-3.159-1.169,4.762,4.762,0,0,1-1.088-3.366,4.251,4.251,0,0,1,1.11-3.24,5.835,5.835,0,0,1,3.491-1.28l4.729-.455V208.8a3.007,3.007,0,0,0-.661-2.189,2.443,2.443,0,0,0-1.807-.664,44.472,44.472,0,0,0-5,.295l-.943.09-.086-1.706a30.164,30.164,0,0,1,5.872-.663,4.183,4.183,0,0,1,4.872,4.836Zm-9.259,6.143q0,2.764,2.28,2.763a12.238,12.238,0,0,0,4.037-.691l.692-.232v-4.97l-4.451.429a2.88,2.88,0,0,0-1.957.778A2.766,2.766,0,0,0,3178.931,214.944Z" transform="translate(-3061.327 -197.705)" fill="#3f3d56"/>
            <path id="Path_10173" data-name="Path 10173" d="M3192.949,226.376q-3.613,0-5.047-.976t-1.432-3.564a3.362,3.362,0,0,1,.543-2,8.526,8.526,0,0,1,1.838-1.735,2.328,2.328,0,0,1-.84-2.072,5.171,5.171,0,0,1,.751-1.9l.267-.483q-2.385-1.087-2.37-4.541,0-5.143,5.629-5.145a11.518,11.518,0,0,1,2.676.295l.457.089,4.451-.117v1.924l-2.864-.058a4.094,4.094,0,0,1,1,3.012q0,2.837-1.4,3.958a7.005,7.005,0,0,1-4.4,1.126,8.573,8.573,0,0,1-1.486-.117,6.4,6.4,0,0,0-.546,1.7c0,.617.193,1.006.574,1.163a13.885,13.885,0,0,0,3.463.235,7.343,7.343,0,0,1,4.15.9q1.265.9,1.266,3.527Q3199.638,226.378,3192.949,226.376Zm-4.246-4.715a2.5,2.5,0,0,0,.888,2.211,6.226,6.226,0,0,0,3.277.611,6.644,6.644,0,0,0,3.431-.664,2.407,2.407,0,0,0,1.045-2.211c0-1.035-.251-1.7-.756-2a6.516,6.516,0,0,0-2.948-.446l-3.249-.15a5.25,5.25,0,0,0-1.343,1.264A2.52,2.52,0,0,0,3188.7,221.661Zm.207-12.552a3.35,3.35,0,0,0,.8,2.527,3.8,3.8,0,0,0,2.638.75,3.718,3.718,0,0,0,2.616-.75,4.558,4.558,0,0,0,0-5.093,4.9,4.9,0,0,0-5.254.016A3.432,3.432,0,0,0,3188.91,209.11Z" transform="translate(-3055.816 -197.705)" fill="#3f3d56"/>
            <path id="Path_10174" data-name="Path 10174" d="M3207.29,217.443l.868-.09.06,1.78a41.4,41.4,0,0,1-5.865.471q-3.246,0-4.607-1.882t-1.358-5.849q0-7.923,6.289-7.907a5.77,5.77,0,0,1,4.548,1.7q1.507,1.7,1.507,5.341l-.118,1.706h-9.936a6.152,6.152,0,0,0,.906,3.7,3.688,3.688,0,0,0,3.143,1.205Q3204.97,217.619,3207.29,217.443Zm-.822-6.525a6.551,6.551,0,0,0-.884-3.91,3.406,3.406,0,0,0-2.886-1.146,3.709,3.709,0,0,0-3.012,1.2,6.05,6.05,0,0,0-1.035,3.86Z" transform="translate(-3050.272 -197.705)" fill="#3f3d56"/>
            <path id="Path_10175" data-name="Path 10175" d="M3208.821,219.309h-2.263V204.26h2.235v1.06a8.548,8.548,0,0,1,4.394-1.355q2.794,0,3.908,1.528a11.09,11.09,0,0,1,2.579-1.063,10.042,10.042,0,0,1,2.787-.465q3.012,0,4.047,1.612t1.037,5.781v7.951h-2.263v-7.892a10.36,10.36,0,0,0-.6-4.284,2.612,2.612,0,0,0-2.556-1.154,7.873,7.873,0,0,0-2.052.285,11.01,11.01,0,0,0-1.625.552l-.559.279a14.667,14.667,0,0,1,.384,4.395v7.819h-2.25V211.55a11.088,11.088,0,0,0-.586-4.41q-.589-1.158-2.588-1.16a7.2,7.2,0,0,0-1.969.285,10.114,10.114,0,0,0-1.544.552l-.515.279Z" transform="translate(-3044.586 -197.705)" fill="#3f3d56"/>
            <path id="Path_10176" data-name="Path 10176" d="M3233.176,217.443l.868-.09.059,1.78a41.373,41.373,0,0,1-5.865.471q-3.246,0-4.607-1.882t-1.358-5.849q0-7.923,6.291-7.907a5.775,5.775,0,0,1,4.548,1.7q1.506,1.7,1.506,5.341l-.118,1.706h-9.935a6.164,6.164,0,0,0,.9,3.7,3.69,3.69,0,0,0,3.145,1.205Q3230.855,217.619,3233.176,217.443Zm-.82-6.525a6.555,6.555,0,0,0-.884-3.91,3.408,3.408,0,0,0-2.886-1.146,3.713,3.713,0,0,0-3.013,1.2,6.071,6.071,0,0,0-1.035,3.86Z" transform="translate(-3035.8 -197.705)" fill="#3f3d56"/>
            <path id="Path_10177" data-name="Path 10177" d="M3234.707,219.309h-2.262V204.26h2.234v1.06a9.616,9.616,0,0,1,4.658-1.355q3.012,0,4.057,1.625t1.045,5.768v7.951H3242.2v-7.892a10.1,10.1,0,0,0-.618-4.284q-.617-1.153-2.631-1.154a7.937,7.937,0,0,0-2.033.285,10.843,10.843,0,0,0-1.64.552l-.573.279Z" transform="translate(-3030.114 -197.705)" fill="#3f3d56"/>
            <path id="Path_10178" data-name="Path 10178" d="M3251.035,207.759h-4.79v7.2a9.651,9.651,0,0,0,.376,3.394c.248.539.85.809,1.8.809l2.672-.176.148,1.866a20.067,20.067,0,0,1-3.071.338,3.915,3.915,0,0,1-3.25-1.147q-.9-1.144-.9-4.365v-7.92h-2.144V205.8h2.144v-4.6h2.22v4.6h4.79Z" transform="translate(-3024.839 -199.25)" fill="#3f3d56"/>
          </g>
        </g>
        <g id="Group_42" data-name="Group 42" transform="translate(996 10947.717)">
          <path id="Path_328" data-name="Path 328" d="M3156.071,137.714l19.881-19.178,14.147,16.509,19.628-19.628h-7.716v-6.967H3221.6V128.5h-6.589v-8L3190.1,144.6l-14.146-16.1-15.405,14.8Z" transform="translate(-3134.964 -107.16)" fill="#ff6584"/>
          <g id="Out_line" data-name="Out line">
            <path id="Path_321" data-name="Path 321" d="M3167.994,153.309V135.384a1.63,1.63,0,0,0-1.631-1.631h-6.522a1.63,1.63,0,0,0-1.629,1.631h0v17.926h3.26v-16.3h3.26v16.3Z" transform="translate(-3133.769 -93.014)" fill="#3f3d56"/>
            <path id="Path_322" data-name="Path 322" d="M3184.717,159.241V136.428a1.631,1.631,0,0,0-1.63-1.629h-6.523a1.63,1.63,0,0,0-1.629,1.629h0v22.813h3.26V138.059h3.26v21.184Z" transform="translate(-3124.419 -92.429)" fill="#3f3d56"/>
            <path id="Path_323" data-name="Path 323" d="M3176.355,161.579V132.247a1.63,1.63,0,0,0-1.629-1.629H3168.2a1.629,1.629,0,0,0-1.629,1.629h0V158.32h3.258V133.878h3.26v27.7Z" transform="translate(-3129.094 -94.767)" fill="#3f3d56"/>
            <path id="Path_324" data-name="Path 324" d="M3193.079,148.544v-16.3a1.629,1.629,0,0,0-1.629-1.629h-6.523a1.629,1.629,0,0,0-1.629,1.629h0v17.926h3.258V133.878h3.26v14.666Z" transform="translate(-3119.744 -94.767)" fill="#3f3d56"/>
            <path id="Path_325" data-name="Path 325" d="M3201.442,150.419V125.977a1.631,1.631,0,0,0-1.631-1.631h-6.523a1.63,1.63,0,0,0-1.63,1.631h0v24.442h3.26V127.606h3.26v22.813Z" transform="translate(-3115.07 -98.273)" fill="#3f3d56"/>
            <path id="Path_326" data-name="Path 326" d="M3160.44,144.626a1.631,1.631,0,0,0,2.3,0l13.451-13.451,13.516,15.02a1.636,1.636,0,0,0,1.168.539h.042a1.631,1.631,0,0,0,1.154-.477l21.661-21.663v4.214a1.631,1.631,0,0,0,1.631,1.629h6.526a1.63,1.63,0,0,0,1.631-1.629V109.253a1.63,1.63,0,0,0-1.631-1.631H3202.33a1.63,1.63,0,0,0-1.629,1.631v6.518a1.63,1.63,0,0,0,1.626,1.634h4.218l-15.556,15.553-13.517-15.018a1.63,1.63,0,0,0-2.3-.122c-.022.019-.042.039-.063.059l-19.553,19.555a1.63,1.63,0,0,0,0,2.3ZM3176.2,121.4l13.517,15.02a1.63,1.63,0,0,0,2.3.12l.062-.059,19.553-19.555a1.631,1.631,0,0,0-1.152-2.781h-6.518v-3.26h16.295v16.3H3217v-6.52a1.631,1.631,0,0,0-2.778-1.147l-23.231,23.225-13.517-15.02a1.627,1.627,0,0,0-1.169-.538h-.042a1.629,1.629,0,0,0-1.153.477l-13.515,13.514-2.583-2.583Z" transform="translate(-3135.521 -107.622)" fill="#3f3d56"/>
            <path id="Path_327" data-name="Path 327" d="M3157.2,183.938v-3.26h4.889a1.629,1.629,0,0,0,1.629-1.629h0v-4.27a40.97,40.97,0,0,0,56.674-1.211l17.81-17.807a6.239,6.239,0,0,0-7.622-9.761,6.352,6.352,0,0,0-10.426-.348l-.691.926a7,7,0,0,0-10.636,2.68l-4.108,9.128a7.323,7.323,0,0,0-2.708-.519h-19.693l-2.78-2.781a13.177,13.177,0,0,0-15.819-2.12v-1.615a1.63,1.63,0,0,0-1.629-1.629h-4.89v-1.635a1.63,1.63,0,0,0-1.63-1.631h-13.035v3.26h11.407v32.591h-11.407v3.26h13.035A1.629,1.629,0,0,0,3157.2,183.938Zm69.637-37.144a3.086,3.086,0,0,1,1.247,1.434l-12.929,12.931a27.6,27.6,0,0,1-5.812,4.445l13.421-18.005a3.084,3.084,0,0,1,4.074-.8Zm-15.038,3.8a3.729,3.729,0,0,1,5.718-1.4l-9.18,12.307a7.367,7.367,0,0,0-.9-1.224Zm-34.565,6.794,3.26,3.26a1.63,1.63,0,0,0,1.152.477h20.369a4.074,4.074,0,1,1,0,8.147h-20.369v3.26h20.369a7.314,7.314,0,0,0,5.37-2.346,30.754,30.754,0,0,0,10.083-6.723l14.223-14.223a2.98,2.98,0,1,1,4.258,4.17l-.043.044L3218.08,171.26a37.711,37.711,0,0,1-53.333,0l-1.037-1.037V156.94a9.906,9.906,0,0,1,13.515.444Zm-16.773-4.412v24.442h-3.26V152.975Z" transform="translate(-3142.533 -87.792)" fill="#3f3d56"/>
          </g>
        </g>
        <g id="Real-time_Decision" data-name="Real-time Decision" transform="translate(927 11323.941)" style="isolation: isolate">
          <g id="Group_2007" data-name="Group 2007" style="isolation: isolate">
            <path id="Path_10179" data-name="Path 10179" d="M3101.125,378.362v7.979H3098.8V365.516h7.7a7.14,7.14,0,0,1,4.981,1.536,6.188,6.188,0,0,1,1.677,4.786q0,4.815-3.823,6.054l4,8.45h-2.557l-3.764-7.979Zm5.41-2.042q4.245,0,4.247-4.381t-4.278-4.379h-5.379v8.76Z" transform="translate(-3098.803 -364.738)" fill="#3f3d56"/>
            <path id="Path_10180" data-name="Path 10180" d="M3120.745,382.51l.869-.09.059,1.78a41.39,41.39,0,0,1-5.865.471q-3.245,0-4.606-1.882t-1.358-5.85q0-7.923,6.289-7.907a5.771,5.771,0,0,1,4.548,1.7q1.508,1.7,1.507,5.341l-.118,1.706h-9.936a6.151,6.151,0,0,0,.906,3.7,3.687,3.687,0,0,0,3.143,1.205Q3118.424,382.686,3120.745,382.51Zm-.821-6.525a6.547,6.547,0,0,0-.884-3.91,3.405,3.405,0,0,0-2.885-1.146,3.711,3.711,0,0,0-3.012,1.2,6.058,6.058,0,0,0-1.035,3.86Z" transform="translate(-3092.633 -362.773)" fill="#3f3d56"/>
            <path id="Path_10181" data-name="Path 10181" d="M3130.983,373.868v7.716q.086,1.115,1.747,1.324l-.09,1.763a4.9,4.9,0,0,1-3.583-1.191,13.046,13.046,0,0,1-5.41,1.191,4.1,4.1,0,0,1-3.158-1.169,4.76,4.76,0,0,1-1.089-3.366,4.25,4.25,0,0,1,1.11-3.24,5.833,5.833,0,0,1,3.491-1.28l4.73-.455v-1.293a3.007,3.007,0,0,0-.661-2.189,2.442,2.442,0,0,0-1.807-.664,44.5,44.5,0,0,0-5,.295l-.941.09-.087-1.706a30.186,30.186,0,0,1,5.872-.663,4.185,4.185,0,0,1,4.874,4.836Zm-9.261,6.143q0,2.764,2.279,2.763a12.252,12.252,0,0,0,4.04-.691l.69-.232v-4.97l-4.451.429a2.887,2.887,0,0,0-1.957.778A2.774,2.774,0,0,0,3121.722,380.011Z" transform="translate(-3087.289 -362.772)" fill="#3f3d56"/>
            <path id="Path_10182" data-name="Path 10182" d="M3129.81,386.62v-21.6h2.248v21.6Z" transform="translate(-3081.47 -365.017)" fill="#3f3d56"/>
            <path id="Path_10183" data-name="Path 10183" d="M3134.069,374.989v-2.1h9.127v2.1Z" transform="translate(-3079.09 -360.617)" fill="#3f3d56"/>
            <path id="Path_10184" data-name="Path 10184" d="M3150.6,372.826h-4.79v7.2a9.678,9.678,0,0,0,.374,3.394c.248.539.85.809,1.8.809l2.672-.176.15,1.866a20.062,20.062,0,0,1-3.073.338,3.907,3.907,0,0,1-3.248-1.147q-.9-1.143-.9-4.365v-7.92h-2.146v-1.955h2.146v-4.6h2.22v4.6h4.79Z" transform="translate(-3074.968 -364.317)" fill="#3f3d56"/>
            <path id="Path_10185" data-name="Path 10185" d="M3149.077,367.987v-2.632h2.264v2.632Zm0,18.445V371.382h2.264v15.049Z" transform="translate(-3070.7 -364.828)" fill="#3f3d56"/>
            <path id="Path_10186" data-name="Path 10186" d="M3155.564,384.376H3153.3V369.327h2.235v1.06a8.546,8.546,0,0,1,4.393-1.355q2.8,0,3.909,1.528a11.082,11.082,0,0,1,2.579-1.063,10.041,10.041,0,0,1,2.788-.465q3.012,0,4.047,1.612t1.037,5.781v7.951h-2.264v-7.892a10.386,10.386,0,0,0-.6-4.284,2.614,2.614,0,0,0-2.557-1.154,7.866,7.866,0,0,0-2.051.285,11.046,11.046,0,0,0-1.625.552l-.558.279a14.669,14.669,0,0,1,.383,4.395v7.818h-2.249v-7.759a11.088,11.088,0,0,0-.586-4.41q-.59-1.158-2.588-1.16a7.2,7.2,0,0,0-1.969.285,10.11,10.11,0,0,0-1.544.552l-.514.279Z" transform="translate(-3068.339 -362.772)" fill="#3f3d56"/>
            <path id="Path_10187" data-name="Path 10187" d="M3179.918,382.51l.868-.09.059,1.78a41.362,41.362,0,0,1-5.865.471q-3.246,0-4.607-1.882t-1.358-5.85q0-7.923,6.291-7.907a5.773,5.773,0,0,1,4.547,1.7q1.506,1.7,1.506,5.341l-.119,1.706h-9.934a6.167,6.167,0,0,0,.9,3.7,3.689,3.689,0,0,0,3.145,1.205Q3177.6,382.686,3179.918,382.51Zm-.821-6.525a6.553,6.553,0,0,0-.884-3.91,3.406,3.406,0,0,0-2.885-1.146,3.715,3.715,0,0,0-3.013,1.2,6.073,6.073,0,0,0-1.035,3.86Z" transform="translate(-3059.553 -362.773)" fill="#3f3d56"/>
            <path id="Path_10188" data-name="Path 10188" d="M3191.12,386.341h-7.438V365.516h7.438q5.082,0,6.744,4.027a15.825,15.825,0,0,1,.957,6.085q0,7.865-3.911,9.9A8.141,8.141,0,0,1,3191.12,386.341Zm5.319-10.714q0-6-2.675-7.468a5.414,5.414,0,0,0-2.644-.6H3186V384.3h5.115Q3196.438,384.3,3196.439,375.628Z" transform="translate(-3051.354 -364.738)" fill="#3f3d56"/>
            <path id="Path_10189" data-name="Path 10189" d="M3206.349,382.51l.868-.09.058,1.78a41.365,41.365,0,0,1-5.865.471q-3.246,0-4.607-1.882t-1.356-5.85q0-7.923,6.289-7.907a5.772,5.772,0,0,1,4.548,1.7q1.506,1.7,1.506,5.341l-.117,1.706h-9.936a6.15,6.15,0,0,0,.906,3.7,3.682,3.682,0,0,0,3.143,1.205Q3204.027,382.686,3206.349,382.51Zm-.821-6.525a6.552,6.552,0,0,0-.884-3.91,3.406,3.406,0,0,0-2.885-1.146,3.717,3.717,0,0,0-3.014,1.2,6.074,6.074,0,0,0-1.035,3.86Z" transform="translate(-3044.777 -362.773)" fill="#3f3d56"/>
            <path id="Path_10190" data-name="Path 10190" d="M3211.477,369.032a26.579,26.579,0,0,1,3.378.352l.719.09-.086,1.835c-1.605-.176-2.793-.263-3.556-.263q-2.559,0-3.478,1.219t-.917,4.513a8.8,8.8,0,0,0,.861,4.584c.571.862,1.762,1.292,3.563,1.292l3.559-.263.086,1.866a28.451,28.451,0,0,1-4.187.413q-3.53,0-4.864-1.8t-1.339-6.091q0-4.294,1.448-6.021T3211.477,369.032Z" transform="translate(-3039.318 -362.772)" fill="#3f3d56"/>
            <path id="Path_10191" data-name="Path 10191" d="M3214.029,367.987v-2.632h2.262v2.632Zm0,18.445V371.382h2.262v15.049Z" transform="translate(-3034.39 -364.828)" fill="#3f3d56"/>
            <path id="Path_10192" data-name="Path 10192" d="M3223.276,371.046q-3.279,0-3.281,2.279a1.582,1.582,0,0,0,.751,1.49,12.977,12.977,0,0,0,3.432.906,9.072,9.072,0,0,1,3.792,1.314q1.111.844,1.109,3.159a3.907,3.907,0,0,1-1.485,3.394,7.327,7.327,0,0,1-4.349,1.082,27.705,27.705,0,0,1-4.4-.413l-.909-.145.131-1.972a37.79,37.79,0,0,0,5.173.514,5.208,5.208,0,0,0,2.669-.557,2.015,2.015,0,0,0,.918-1.866,1.881,1.881,0,0,0-.787-1.771,11.776,11.776,0,0,0-3.431-.889,9.206,9.206,0,0,1-3.764-1.235,3.492,3.492,0,0,1-1.116-3.006,3.655,3.655,0,0,1,1.55-3.249,6.748,6.748,0,0,1,3.875-1.051,32.525,32.525,0,0,1,4.6.412l.837.15-.058,1.936A39.107,39.107,0,0,0,3223.276,371.046Z" transform="translate(-3032.319 -362.772)" fill="#3f3d56"/>
            <path id="Path_10193" data-name="Path 10193" d="M3227.225,367.987v-2.632h2.263v2.632Zm0,18.445V371.382h2.263v15.049Z" transform="translate(-3027.013 -364.828)" fill="#3f3d56"/>
            <path id="Path_10194" data-name="Path 10194" d="M3231.025,376.821q0-4.128,1.476-5.957t4.981-1.832q3.505,0,4.969,1.832t1.461,5.957q0,4.13-1.38,5.99t-5.056,1.86q-3.674,0-5.062-1.86T3231.025,376.821Zm2.321-.042a9.552,9.552,0,0,0,.8,4.615q.8,1.321,3.346,1.321c1.691,0,2.8-.433,3.319-1.308a9.682,9.682,0,0,0,.778-4.612c0-2.208-.29-3.723-.873-4.557a3.684,3.684,0,0,0-3.233-1.25,3.726,3.726,0,0,0-3.246,1.25Q3233.343,373.488,3233.346,376.779Z" transform="translate(-3024.888 -362.772)" fill="#3f3d56"/>
            <path id="Path_10195" data-name="Path 10195" d="M3243.9,384.376h-2.262V369.327h2.236v1.06a9.6,9.6,0,0,1,4.655-1.355q3.014,0,4.058,1.624t1.044,5.768v7.951H3251.4v-7.892a10.127,10.127,0,0,0-.616-4.284q-.62-1.153-2.633-1.154a7.926,7.926,0,0,0-2.033.285,10.815,10.815,0,0,0-1.64.552l-.574.279Z" transform="translate(-3018.955 -362.772)" fill="#3f3d56"/>
          </g>
        </g>
        <g id="Group_43" data-name="Group 43" transform="translate(998 11190.77)">
          <path id="Path_334" data-name="Path 334" d="M3160.333,311.634l4.676,2.653,5.189-2.653v4.309l2.187,2.384-1.329,2.736-3.16,1.885h-4.107l-3.462-1.427-2.054-2.647,2.054-2.929Z" transform="translate(-3136.742 -249.415)" fill="#ff6584"/>
          <circle id="Ellipse_21" data-name="Ellipse 21" cx="16.554" cy="16.554" r="16.554" transform="translate(49.664 10.535)" fill="#ff6584"/>
          <g id="thinking">
            <path id="Path_329" data-name="Path 329" d="M3161.839,321.921h3.009v3.01h-3.009Z" transform="translate(-3134.749 -243.664)" fill="#3f3d56"/>
            <path id="Path_330" data-name="Path 330" d="M3161.839,325.782h3.009v3.01h-3.009Z" transform="translate(-3134.749 -241.506)" fill="#3f3d56"/>
            <path id="Path_331" data-name="Path 331" d="M3193.413,277.517a18.059,18.059,0,1,0,18.058,18.06A18.059,18.059,0,0,0,3193.413,277.517Zm0,33.109a15.05,15.05,0,1,1,15.05-15.049A15.049,15.049,0,0,1,3193.413,310.626Z" transform="translate(-3127.194 -268.487)" fill="#3f3d56"/>
            <path id="Path_332" data-name="Path 332" d="M3190.175,283.309a9.029,9.029,0,1,0,9.03,9.03A9.03,9.03,0,0,0,3190.175,283.309Zm0,15.049a6.02,6.02,0,1,1,6.019-6.019A6.021,6.021,0,0,1,3190.175,298.358Z" transform="translate(-3123.956 -265.249)" fill="#3f3d56"/>
            <path id="Path_333" data-name="Path 333" d="M3237.769,304.521V293.107l-3.964-.932a23.905,23.905,0,0,0-2.078-5.015l2.144-3.461-8.071-8.076-3.461,2.147a23.84,23.84,0,0,0-5.013-2.078l-.937-3.966h-11.414l-.932,3.966a23.863,23.863,0,0,0-5.016,2.078l-3.46-2.147-8.074,8.071,2.145,3.461a23.816,23.816,0,0,0-2.078,5.015l-3.967.937v7.864a7.444,7.444,0,0,0-3.009-.652,7.257,7.257,0,0,0-1.422.15,7.483,7.483,0,0,0-12.207,0,7.244,7.244,0,0,0-1.421-.15,7.533,7.533,0,0,0-7.473,6.646,7.488,7.488,0,0,0-2.822,11.7,6.02,6.02,0,0,0,4.275,10.249h2.618a20.244,20.244,0,0,0,4.908,5.789v1.871a3.023,3.023,0,0,1-1.737,2.724l-9.551,4.46a19.629,19.629,0,0,0-11.287,17.728v3.547h57.189v-3.547a19.636,19.636,0,0,0-11.287-17.728l-9.551-4.46a3.023,3.023,0,0,1-1.737-2.724V334.7a20.237,20.237,0,0,0,4.908-5.789h2.617a6.02,6.02,0,0,0,4.275-10.251,7.5,7.5,0,0,0,.564-.778l4.119,4.12,3.461-2.148c.26.142.533.278.805.415a4.481,4.481,0,0,0-1.516,7.136,4.472,4.472,0,0,0,1.917,7.274,10.535,10.535,0,0,0,20.907,0,4.474,4.474,0,0,0,1.917-7.274,4.483,4.483,0,0,0-1.523-7.136c.271-.137.546-.273.8-.415l3.461,2.148,8.072-8.071-2.144-3.461a23.919,23.919,0,0,0,2.078-5.015ZM3159.9,309.5l1.171-.3-.037-1.2c0-.087-.009-.172-.02-.151a4.467,4.467,0,0,1,6.1-4.213l1.286.485.6-1.238a4.48,4.48,0,0,1,8.1,0l.6,1.238,1.286-.485a4.467,4.467,0,0,1,6.1,4.11l-.062,1.47,1.171.3a4.464,4.464,0,0,1,1.979,7.6,5.9,5.9,0,0,0-1.581-.243v-3.009h-3.612a16.379,16.379,0,0,1-9.107-2.758l-.826-.553-.835.557a16.372,16.372,0,0,1-9.105,2.755h-3.6v3.009a5.928,5.928,0,0,0-1.585.24,4.466,4.466,0,0,1,1.978-7.614Zm-.393,16.4a3.01,3.01,0,0,1,0-6.019h.031a19.845,19.845,0,0,0,1.205,6.019Zm39.129,35.582v.538h-6.02v-9.03h-3.01v9.03H3156.5v-9.03h-3.011v9.03h-6.019v-.538a16.612,16.612,0,0,1,9.553-15l8.331-3.891a8.955,8.955,0,0,0,15.4,0l8.332,3.891A16.611,16.611,0,0,1,3198.641,361.484Zm-20.5-20.372a5.961,5.961,0,0,1-10.168,0,6.046,6.046,0,0,0,2.065-4.414,19.9,19.9,0,0,0,2.49,1.149l.528.2.529-.2a19.623,19.623,0,0,0,2.49-1.149A6.041,6.041,0,0,0,3178.141,341.113Zm-5.084-6.292a17.132,17.132,0,0,1-10.534-15.755v-2.192h.6a19.4,19.4,0,0,1,19.865,0h.6v2.192A17.133,17.133,0,0,1,3173.057,334.82ZM3186.6,325.9h-1.23a19.918,19.918,0,0,0,1.2-6.019h.026a3.01,3.01,0,0,1,0,6.019Zm33.11-3.01a1.505,1.505,0,0,1,0,3.01h-18.06a1.505,1.505,0,0,1,0-3.01Zm-9.031,18.06a7.536,7.536,0,0,1-7.373-6.019h14.748A7.539,7.539,0,0,1,3210.68,340.952Zm9.031-9.03h-18.06a1.5,1.5,0,0,1,0-3.009h18.06a1.5,1.5,0,0,1,0,3.009Zm11.629-28.981-.218.9a20.894,20.894,0,0,1-2.437,5.868l-.479.787,1.849,2.989-4.7,4.7-2.99-1.849-.787.479a21.171,21.171,0,0,1-2.474,1.271l-.9.4v1.4h-15.044v-1.4l-.9-.4a21.05,21.05,0,0,1-2.475-1.271l-.788-.479L3196,318.189l-3.435-3.438a7.476,7.476,0,0,0-4.514-7.786,7.467,7.467,0,0,0-1.453-3.612v-7.862l3.419-.8.22-.9a20.876,20.876,0,0,1,2.437-5.87l.479-.787-1.847-2.987,4.7-4.7,2.988,1.851.789-.479a20.829,20.829,0,0,1,5.87-2.434l.9-.22.8-3.422H3214l.805,3.42.9.22a20.88,20.88,0,0,1,5.868,2.434l.789.479,2.989-1.851,4.7,4.7-1.85,2.989.479.787a20.917,20.917,0,0,1,2.436,5.87l.219.895,3.417.812v6.646Z" transform="translate(-3144.462 -271.725)" fill="#3f3d56"/>
          </g>
        </g>
        <g id="Data_Archive" data-name="Data Archive" transform="translate(967 11567.129)" style="isolation: isolate">
          <g id="Group_2008" data-name="Group 2008" transform="translate(0)" style="isolation: isolate">
            <path id="Path_10196" data-name="Path 10196" d="M3132.3,543.687h-7.436V522.862h7.436q5.082,0,6.746,4.027a15.863,15.863,0,0,1,.954,6.085q0,7.864-3.909,9.9A8.148,8.148,0,0,1,3132.3,543.687Zm5.32-10.714q0-6-2.676-7.466a5.392,5.392,0,0,0-2.644-.6h-5.115v16.739h5.115Q3137.624,541.645,3137.623,532.974Z" transform="translate(-3124.867 -522.084)" fill="#3f3d56"/>
            <path id="Path_10197" data-name="Path 10197" d="M3148.025,531.214v7.716q.086,1.116,1.747,1.324l-.09,1.763a4.894,4.894,0,0,1-3.583-1.19,13.045,13.045,0,0,1-5.41,1.19,4.1,4.1,0,0,1-3.158-1.168,4.764,4.764,0,0,1-1.088-3.367,4.252,4.252,0,0,1,1.11-3.24,5.84,5.84,0,0,1,3.49-1.28l4.73-.455v-1.293a3.016,3.016,0,0,0-.66-2.189,2.451,2.451,0,0,0-1.808-.664,44.509,44.509,0,0,0-5,.294l-.941.09-.087-1.706a30.17,30.17,0,0,1,5.871-.663,4.187,4.187,0,0,1,4.874,4.836Zm-9.261,6.144q0,2.762,2.28,2.761a12.251,12.251,0,0,0,4.04-.691l.691-.232v-4.97l-4.451.429a2.9,2.9,0,0,0-1.957.778A2.774,2.774,0,0,0,3138.764,537.358Z" transform="translate(-3118.396 -520.118)" fill="#3f3d56"/>
            <path id="Path_10198" data-name="Path 10198" d="M3155.014,530.172h-4.789v7.2a9.7,9.7,0,0,0,.374,3.4c.248.539.85.809,1.8.809l2.672-.178.15,1.866a20.072,20.072,0,0,1-3.073.338,3.908,3.908,0,0,1-3.248-1.148q-.9-1.144-.9-4.364v-7.921h-2.145v-1.955H3148v-4.6h2.22v4.6h4.789Z" transform="translate(-3113.131 -521.662)" fill="#3f3d56"/>
            <path id="Path_10199" data-name="Path 10199" d="M3164.465,531.214v7.716q.089,1.116,1.749,1.324l-.091,1.763a4.892,4.892,0,0,1-3.582-1.19,13.053,13.053,0,0,1-5.41,1.19,4.1,4.1,0,0,1-3.158-1.168,4.765,4.765,0,0,1-1.089-3.367,4.256,4.256,0,0,1,1.11-3.24,5.846,5.846,0,0,1,3.491-1.28l4.73-.455v-1.293a3.011,3.011,0,0,0-.661-2.189,2.448,2.448,0,0,0-1.807-.664,44.466,44.466,0,0,0-5,.294l-.944.09-.086-1.706a30.164,30.164,0,0,1,5.871-.663,4.185,4.185,0,0,1,4.872,4.836Zm-9.259,6.144q0,2.762,2.279,2.761a12.251,12.251,0,0,0,4.038-.691l.692-.232v-4.97l-4.451.429a2.9,2.9,0,0,0-1.956.778A2.764,2.764,0,0,0,3155.206,537.358Z" transform="translate(-3109.203 -520.118)" fill="#3f3d56"/>
            <path id="Path_10200" data-name="Path 10200" d="M3166.485,543.687l5.72-20.825h5.052l5.719,20.825H3180.7l-1.513-5.363h-8.908l-1.5,5.363Zm7.467-18.841-3.161,11.4h7.892l-3.159-11.4Z" transform="translate(-3101.6 -522.084)" fill="#3f3d56"/>
            <path id="Path_10201" data-name="Path 10201" d="M3178.91,541.737V526.688h2.236v2.042a14.623,14.623,0,0,1,5.508-2.381v2.293a15.662,15.662,0,0,0-2.638.751,16.67,16.67,0,0,0-2.093.907l-.75.385v11.05Z" transform="translate(-3094.655 -520.134)" fill="#3f3d56"/>
            <path id="Path_10202" data-name="Path 10202" d="M3191.251,526.378a26.367,26.367,0,0,1,3.38.354l.719.089-.087,1.835q-2.408-.264-3.554-.263-2.558,0-3.479,1.219t-.919,4.513a8.788,8.788,0,0,0,.862,4.585c.571.861,1.76,1.292,3.561,1.292l3.559-.263.087,1.866a28.427,28.427,0,0,1-4.189.411q-3.528,0-4.862-1.8t-1.34-6.091q0-4.291,1.448-6.021T3191.251,526.378Z" transform="translate(-3091.255 -520.118)" fill="#3f3d56"/>
            <path id="Path_10203" data-name="Path 10203" d="M3196.069,543.966H3193.8v-21.6h2.264v7.391a10.628,10.628,0,0,1,4.627-1.132q3.014,0,4.058,1.625t1.045,5.768v7.951h-2.266v-7.892a10.121,10.121,0,0,0-.617-4.284,2.674,2.674,0,0,0-2.6-1.154,9.992,9.992,0,0,0-3.673.692l-.573.2Z" transform="translate(-3086.328 -522.363)" fill="#3f3d56"/>
            <path id="Path_10204" data-name="Path 10204" d="M3204.166,525.334V522.7h2.263v2.633Zm0,18.443V528.728h2.263v15.049Z" transform="translate(-3080.536 -522.174)" fill="#3f3d56"/>
            <path id="Path_10205" data-name="Path 10205" d="M3207.485,526.567h2.408l3.528,13.094h1.1l3.645-13.094h2.321l-4.25,15.049h-4.51Z" transform="translate(-3078.681 -520.013)" fill="#3f3d56"/>
            <path id="Path_10206" data-name="Path 10206" d="M3227.983,539.856l.868-.089.058,1.779a41.145,41.145,0,0,1-5.865.471c-2.162,0-3.7-.627-4.605-1.882s-1.357-3.205-1.357-5.849q0-7.923,6.288-7.907a5.766,5.766,0,0,1,4.548,1.7q1.506,1.7,1.506,5.34l-.117,1.705h-9.936a6.15,6.15,0,0,0,.905,3.7,3.688,3.688,0,0,0,3.143,1.207Q3225.66,540.034,3227.983,539.856Zm-.822-6.524a6.561,6.561,0,0,0-.884-3.91,3.409,3.409,0,0,0-2.886-1.146,3.716,3.716,0,0,0-3.013,1.2,6.072,6.072,0,0,0-1.035,3.86Z" transform="translate(-3073.317 -520.118)" fill="#3f3d56"/>
          </g>
        </g>
        <g id="Group_44" data-name="Group 44" transform="translate(1000 11436.117)">
          <path id="Path_360" data-name="Path 360" d="M3182.753,469.319l21.22-5.745,7.719,26.754-22.371,5.945Z" transform="translate(-3124.562 -421.82)" fill="#ff6584"/>
          <rect id="Rectangle_14" data-name="Rectangle 14" width="46.653" height="28.594" transform="translate(0.862 46.207)" fill="#ff6584"/>
          <g id="archives">
            <path id="Path_350" data-name="Path 350" d="M3234.131,504.865l-17.9-66.787a1.734,1.734,0,0,0-2.121-1.227h0l-19.773,5.3v-.1a1.733,1.733,0,0,0-1.734-1.734h-45.444a1.733,1.733,0,0,0-1.734,1.734v69.141a1.734,1.734,0,0,0,1.734,1.734h45.45a1.735,1.735,0,0,0,1.727-1.734V457.577l14.493,54.065a1.733,1.733,0,0,0,2.124,1.227h0l21.95-5.882a1.734,1.734,0,0,0,1.226-2.123h0Zm-43.253-23.144h-19.263V443.787h19.263Zm-22.725-37.934v37.934H3148.89V443.787Zm-19.263,41.4h19.263v24.266H3148.89Zm22.725,24.266V485.189h19.263v24.266Zm41.72-68.8,9.819,36.642-18.6,4.984-9.82-36.642Zm-1.6,68.421-6.281-23.445,18.6-4.984,6.281,23.445Z" transform="translate(-3145.428 -436.792)" fill="#3f3d56"/>
            <ellipse id="Ellipse_22" data-name="Ellipse 22" cx="4.334" cy="4.334" rx="4.334" ry="4.334" transform="translate(8.759 13.928)" fill="#3f3d56"/>
            <path id="Path_351" data-name="Path 351" d="M3151.647,473.525h8.854a1.734,1.734,0,0,0,.206-3.461c-.068,0-.137,0-.206,0h-8.854a1.734,1.734,0,0,0-.206,3.461A1.517,1.517,0,0,0,3151.647,473.525Z" transform="translate(-3142.978 -418.194)" fill="#3f3d56"/>
            <path id="Path_352" data-name="Path 352" d="M3160.5,474.508h-8.854a1.734,1.734,0,0,0-.206,3.463q.1,0,.206,0h8.854a1.734,1.734,0,0,0,0-3.463Z" transform="translate(-3142.978 -415.71)" fill="#3f3d56"/>
            <path id="Path_353" data-name="Path 353" d="M3160.428,478.956h-8.854a1.733,1.733,0,0,0,0,3.461h8.854a1.734,1.734,0,0,0,0-3.461Z" transform="translate(-3142.904 -413.221)" fill="#3f3d56"/>
            <ellipse id="Ellipse_23" data-name="Ellipse 23" cx="4.334" cy="4.334" rx="4.334" ry="4.334" transform="translate(57.186 12.921)" fill="#3f3d56"/>
            <path id="Path_354" data-name="Path 354" d="M3197.643,471.3a1.734,1.734,0,1,0-.9-3.349l-8.554,2.292a1.734,1.734,0,1,0,.9,3.349Z" transform="translate(-3122.241 -419.406)" fill="#3f3d56"/>
            <path id="Path_355" data-name="Path 355" d="M3198.789,475.6a1.734,1.734,0,0,0-.9-3.349l-8.553,2.293a1.733,1.733,0,0,0,.9,3.347Z" transform="translate(-3121.6 -417.005)" fill="#3f3d56"/>
            <path id="Path_356" data-name="Path 356" d="M3199.041,476.546l-8.552,2.292a1.734,1.734,0,1,0,.9,3.349h0l8.553-2.292a1.734,1.734,0,0,0-.9-3.349Z" transform="translate(-3120.955 -414.603)" fill="#3f3d56"/>
            <ellipse id="Ellipse_24" data-name="Ellipse 24" cx="4.334" cy="4.334" rx="4.334" ry="4.334" transform="translate(31.485 13.914)" fill="#3f3d56"/>
            <path id="Path_357" data-name="Path 357" d="M3175.079,470.06h-8.855a1.734,1.734,0,1,0-.2,3.463c.067,0,.135,0,.2,0h8.855a1.734,1.734,0,0,0,0-3.463Z" transform="translate(-3134.829 -418.196)" fill="#3f3d56"/>
            <path id="Path_358" data-name="Path 358" d="M3175.079,474.508h-8.855a1.734,1.734,0,1,0-.2,3.463c.067,0,.135,0,.2,0h8.855a1.734,1.734,0,0,0,0-3.463Z" transform="translate(-3134.829 -415.71)" fill="#3f3d56"/>
            <path id="Path_359" data-name="Path 359" d="M3175.079,478.957h-8.855a1.734,1.734,0,1,0-.2,3.461c.067,0,.135,0,.2,0h8.855a1.734,1.734,0,0,0,0-3.461Z" transform="translate(-3134.829 -413.223)" fill="#3f3d56"/>
          </g>
        </g>
      </g>
      <g id="Group_2142" data-name="Group 2142" transform="translate(59.084)">
        <g id="Dashboard-2" transform="translate(573.282 11080.756)" style="isolation: isolate">
          <g id="Group_2003" data-name="Group 2003" style="isolation: isolate">
            <path id="Path_10124" data-name="Path 10124" d="M2909.318,219.343h-7.437V198.519h7.437q5.083,0,6.746,4.025a15.819,15.819,0,0,1,.954,6.086q0,7.862-3.909,9.9A8.144,8.144,0,0,1,2909.318,219.343Zm5.319-10.712q0-6-2.675-7.468a5.389,5.389,0,0,0-2.644-.6H2904.2V217.3h5.114Q2914.637,217.3,2914.636,208.631Z" transform="translate(-2901.881 -197.741)" fill="#3f3d56"/>
            <path id="Path_10125" data-name="Path 10125" d="M2925.038,206.87v7.716q.089,1.115,1.748,1.324l-.089,1.763a4.9,4.9,0,0,1-3.584-1.19,13.04,13.04,0,0,1-5.409,1.19,4.1,4.1,0,0,1-3.16-1.168,4.763,4.763,0,0,1-1.086-3.367,4.255,4.255,0,0,1,1.108-3.24,5.849,5.849,0,0,1,3.491-1.28l4.73-.455V206.87a3.016,3.016,0,0,0-.659-2.189,2.446,2.446,0,0,0-1.807-.663,44.453,44.453,0,0,0-5,.293l-.943.09-.088-1.7a30.089,30.089,0,0,1,5.872-.664,4.187,4.187,0,0,1,4.873,4.836Zm-9.259,6.144q0,2.762,2.278,2.761a12.253,12.253,0,0,0,4.04-.691l.69-.232v-4.969l-4.451.427a2.9,2.9,0,0,0-1.955.778A2.771,2.771,0,0,0,2915.779,213.014Z" transform="translate(-2895.409 -195.776)" fill="#3f3d56"/>
            <path id="Path_10126" data-name="Path 10126" d="M2928.766,204.048q-3.279,0-3.281,2.279a1.582,1.582,0,0,0,.75,1.49,13,13,0,0,0,3.431.906,9.088,9.088,0,0,1,3.792,1.314q1.11.847,1.11,3.159a3.9,3.9,0,0,1-1.486,3.394,7.315,7.315,0,0,1-4.348,1.082,27.7,27.7,0,0,1-4.4-.412l-.908-.147.13-1.971a38.053,38.053,0,0,0,5.175.514,5.2,5.2,0,0,0,2.669-.558,2.016,2.016,0,0,0,.917-1.866,1.877,1.877,0,0,0-.788-1.77,11.769,11.769,0,0,0-3.431-.89,9.217,9.217,0,0,1-3.763-1.233,3.494,3.494,0,0,1-1.116-3.007,3.653,3.653,0,0,1,1.551-3.249,6.761,6.761,0,0,1,3.874-1.051,32.547,32.547,0,0,1,4.6.412l.837.15-.059,1.938A38.938,38.938,0,0,0,2928.766,204.048Z" transform="translate(-2889.951 -195.776)" fill="#3f3d56"/>
            <path id="Path_10127" data-name="Path 10127" d="M2934.979,219.622h-2.262v-21.6h2.262v7.39a10.632,10.632,0,0,1,4.628-1.132q3.014,0,4.059,1.625t1.043,5.768v7.951h-2.266V211.73a10.1,10.1,0,0,0-.618-4.284,2.673,2.673,0,0,0-2.6-1.154,10.036,10.036,0,0,0-3.674.692l-.574.2Z" transform="translate(-2884.643 -198.02)" fill="#3f3d56"/>
            <path id="Path_10128" data-name="Path 10128" d="M2949.734,204.278q3.041,0,4.263,1.727t1.218,6.063q0,4.338-1.522,6.091t-5.592,1.757c-.844,0-2.232-.08-4.172-.235l-.853-.087V198.02h2.236v7.3A10.676,10.676,0,0,1,2949.734,204.278Zm-1.662,13.624q2.954,0,3.9-1.336a8.133,8.133,0,0,0,.946-4.526,9.528,9.528,0,0,0-.747-4.47,2.84,2.84,0,0,0-2.675-1.278,10.59,10.59,0,0,0-3.587.661l-.6.207v10.6C2946.613,217.855,2947.534,217.9,2948.073,217.9Z" transform="translate(-2878.852 -198.02)" fill="#3f3d56"/>
            <path id="Path_10129" data-name="Path 10129" d="M2952.8,209.824q0-4.13,1.475-5.959t4.983-1.832q3.505,0,4.969,1.832t1.461,5.959q0,4.128-1.38,5.988t-5.056,1.86q-3.674,0-5.062-1.86T2952.8,209.824Zm2.321-.044a9.569,9.569,0,0,0,.8,4.616q.8,1.319,3.346,1.321c1.692,0,2.8-.435,3.319-1.308a9.688,9.688,0,0,0,.778-4.613c0-2.208-.291-3.723-.873-4.557s-1.659-1.249-3.233-1.249a3.724,3.724,0,0,0-3.246,1.249Q2955.123,206.49,2955.126,209.781Z" transform="translate(-2873.413 -195.776)" fill="#3f3d56"/>
            <path id="Path_10130" data-name="Path 10130" d="M2974.388,206.87v7.716q.089,1.115,1.747,1.324l-.088,1.763a4.9,4.9,0,0,1-3.584-1.19,13.039,13.039,0,0,1-5.41,1.19,4.106,4.106,0,0,1-3.159-1.168,4.764,4.764,0,0,1-1.088-3.367,4.253,4.253,0,0,1,1.11-3.24,5.842,5.842,0,0,1,3.491-1.28l4.73-.455V206.87a3.018,3.018,0,0,0-.66-2.189,2.448,2.448,0,0,0-1.807-.663,44.523,44.523,0,0,0-5,.293l-.942.09-.087-1.7a30.085,30.085,0,0,1,5.871-.664,4.187,4.187,0,0,1,4.875,4.836Zm-9.26,6.144q0,2.762,2.278,2.761a12.254,12.254,0,0,0,4.04-.691l.69-.232v-4.969l-4.451.427a2.9,2.9,0,0,0-1.957.778A2.775,2.775,0,0,0,2965.128,213.014Z" transform="translate(-2867.823 -195.776)" fill="#3f3d56"/>
            <path id="Path_10131" data-name="Path 10131" d="M2973.092,217.394V202.344h2.236v2.042a14.615,14.615,0,0,1,5.508-2.381V204.3a15.5,15.5,0,0,0-2.637.75,16.539,16.539,0,0,0-2.093.907l-.75.385v11.05Z" transform="translate(-2862.072 -195.792)" fill="#3f3d56"/>
            <path id="Path_10132" data-name="Path 10132" d="M2991.313,198.02v21.6h-2.234v-1.029a9.166,9.166,0,0,1-4.57,1.324,6.8,6.8,0,0,1-2.108-.295,4.126,4.126,0,0,1-1.683-1.088q-1.633-1.63-1.631-6t1.46-6.311q1.464-1.939,4.829-1.941a19.139,19.139,0,0,1,3.7.385V198.02ZM2983.49,217.7a3.978,3.978,0,0,0,1.394.2,7.581,7.581,0,0,0,1.926-.285,12.474,12.474,0,0,0,1.668-.552l.6-.279v-10.2a18.315,18.315,0,0,0-3.572-.352,3.461,3.461,0,0,0-3.2,1.453,8.831,8.831,0,0,0-.9,4.529q0,3.5,1.057,4.7A2.581,2.581,0,0,0,2983.49,217.7Z" transform="translate(-2858.721 -198.02)" fill="#3f3d56"/>
          </g>
        </g>
        <g id="Group_33" data-name="Group 33" transform="translate(592.977 10950.543)">
          <rect id="Rectangle_13" data-name="Rectangle 13" width="42.138" height="27.089" transform="translate(37.623 25.585)" fill="#ff6584"/>
          <g id="dashboard的副本">
            <path id="Path_301" data-name="Path 301" d="M3008.026,107.622H2914.72V170.83h30.1V185.88h-12.041V193.4a7.536,7.536,0,0,0,7.526,7.525h54.178a7.535,7.535,0,0,0,7.524-7.525V170.83h6.021Zm-3.01,3.01v9.03h-87.287v-9.03Zm-60.2,33.109h-6.9l-9.068-9.067a13.487,13.487,0,0,1,15.969-.68Zm-18.1-6.939,8.444,8.444-8.444,8.445A13.483,13.483,0,0,1,2926.721,136.8Zm11.2,9.948h6.9V156.5a13.487,13.487,0,0,1-15.969-.681Zm2.387,51.169a4.515,4.515,0,0,1-4.515-4.515h0v-4.515h51.167V193.4a7.5,7.5,0,0,0,1.506,4.515ZM2968.9,185.88v-18.06h24.08V191.9h-3.01V185.88ZM2999,193.4a4.5,4.5,0,0,1-8.752,1.5h5.742v-30.1h-30.1v21.07h-18.06V128.692H2999Zm3.009-25.584V125.682h-57.187V130.5a16.555,16.555,0,1,0,0,29.5v7.826h-27.09V122.673h87.287v45.148Z" transform="translate(-2914.72 -107.622)" fill="#3f3d56"/>
            <path id="Path_302" data-name="Path 302" d="M2918.581,111.484h3.009v3.009h-3.009Z" transform="translate(-2912.562 -105.463)" fill="#3f3d56"/>
            <path id="Path_303" data-name="Path 303" d="M2922.442,111.484h3.011v3.009h-3.011Z" transform="translate(-2910.403 -105.463)" fill="#3f3d56"/>
            <path id="Path_304" data-name="Path 304" d="M2926.3,111.484h3.01v3.009h-3.01Z" transform="translate(-2908.245 -105.463)" fill="#3f3d56"/>
            <path id="Path_305" data-name="Path 305" d="M2983.035,123.067h-45.148v30.1h45.148Zm-3.009,6.021h-15.05v-3.01h15.05Zm-18.06,3.009v18.06h-9.03V132.1Zm-9.03-3.009v-3.01h9.03v3.01Zm12.04,3.009H2971v18.06h-6.02Zm-15.051-6.019v3.01H2940.9v-3.01ZM2940.9,132.1h9.028v18.06H2940.9ZM2974,150.157V132.1h6.021v18.06Z" transform="translate(-2901.768 -98.988)" fill="#3f3d56"/>
            <path id="Path_306" data-name="Path 306" d="M2937.886,144.3h12.039v3.011h-12.039Z" transform="translate(-2901.768 -87.116)" fill="#3f3d56"/>
            <path id="Path_307" data-name="Path 307" d="M2937.886,148.165h12.039v3.01h-12.039Z" transform="translate(-2901.768 -84.957)" fill="#3f3d56"/>
            <path id="Path_308" data-name="Path 308" d="M2937.886,152.027h12.039v3.009h-12.039Z" transform="translate(-2901.768 -82.798)" fill="#3f3d56"/>
          </g>
        </g>
        <g id="SQL_Ad-hoc_Query" data-name="SQL Ad-hoc Query" transform="translate(525.329 11320.518)" style="isolation: isolate">
          <g id="Group_2004" data-name="Group 2004" style="isolation: isolate">
            <path id="Path_10133" data-name="Path 10133" d="M2878.1,363.5q-4.516,0-4.513,3.4a2.934,2.934,0,0,0,1.035,2.6,13.915,13.915,0,0,0,4.213,1.411,10.7,10.7,0,0,1,4.5,1.838,4.631,4.631,0,0,1,1.33,3.717q0,6.408-6.658,6.408a38.063,38.063,0,0,1-5.511-.5l-1.073-.162.235-1.925a51.3,51.3,0,0,0,6.232.543q4.455,0,4.454-4.188a2.842,2.842,0,0,0-.976-2.424,9.43,9.43,0,0,0-3.654-1.233,12.365,12.365,0,0,1-5-1.941q-1.478-1.19-1.475-4,0-5.6,6.715-5.6a36.677,36.677,0,0,1,5.263.455l1.026.147-.2,1.957A57.425,57.425,0,0,0,2878.1,363.5Z" transform="translate(-2871.24 -360.998)" fill="#3f3d56"/>
            <path id="Path_10134" data-name="Path 10134" d="M2890.1,382.886q-4.661,0-6.438-2.558t-1.776-8.048q0-5.486,1.8-8.155t6.41-2.669q4.6,0,6.43,2.653t1.822,8.165a19.4,19.4,0,0,1-.787,6.119,6.078,6.078,0,0,1-2.681,3.421l2.569,4.113-2.173,1.029-2.647-4.336A10.079,10.079,0,0,1,2890.1,382.886Zm-5.833-10.622q0,4.581,1.2,6.579t4.645,2q3.445,0,4.636-1.939t1.191-6.564q0-4.621-1.235-6.724t-4.621-2.1q-3.39,0-4.6,2.086T2884.266,372.265Z" transform="translate(-2865.29 -360.988)" fill="#3f3d56"/>
            <path id="Path_10135" data-name="Path 10135" d="M2906.62,382.48h-11.463V361.655h2.321v18.754h9.142Z" transform="translate(-2857.872 -360.877)" fill="#3f3d56"/>
            <path id="Path_10136" data-name="Path 10136" d="M2907.456,382.48l5.719-20.826h5.052l5.72,20.826h-2.279l-1.512-5.363h-8.91l-1.5,5.363Zm7.468-18.842-3.162,11.406h7.892l-3.159-11.406Z" transform="translate(-2850.994 -360.877)" fill="#3f3d56"/>
            <path id="Path_10137" data-name="Path 10137" d="M2931.571,361.156v21.6h-2.234V381.73a9.18,9.18,0,0,1-4.569,1.324,6.846,6.846,0,0,1-2.108-.295,4.141,4.141,0,0,1-1.684-1.088q-1.633-1.632-1.631-6.005t1.461-6.311q1.464-1.939,4.828-1.941a19.14,19.14,0,0,1,3.7.385v-6.643Zm-7.823,19.678a3.979,3.979,0,0,0,1.394.2,7.585,7.585,0,0,0,1.926-.285,12.3,12.3,0,0,0,1.668-.552l.6-.279v-10.2a18.316,18.316,0,0,0-3.571-.354,3.459,3.459,0,0,0-3.2,1.453,8.823,8.823,0,0,0-.9,4.529q0,3.5,1.057,4.7A2.575,2.575,0,0,0,2923.748,380.834Z" transform="translate(-2844.35 -361.156)" fill="#3f3d56"/>
            <path id="Path_10138" data-name="Path 10138" d="M2929.9,371.128v-2.1h9.127v2.1Z" transform="translate(-2838.447 -356.756)" fill="#3f3d56"/>
            <path id="Path_10139" data-name="Path 10139" d="M2940.7,382.759h-2.264v-21.6h2.264v7.39a10.624,10.624,0,0,1,4.627-1.132q3.015,0,4.058,1.624t1.044,5.77v7.951h-2.265v-7.893a10.131,10.131,0,0,0-.617-4.284,2.673,2.673,0,0,0-2.6-1.152,10.03,10.03,0,0,0-3.674.691l-.573.2Z" transform="translate(-2833.677 -361.156)" fill="#3f3d56"/>
            <path id="Path_10140" data-name="Path 10140" d="M2948.371,372.96q0-4.13,1.474-5.959t4.983-1.832q3.505,0,4.969,1.832t1.461,5.959q0,4.13-1.38,5.99t-5.056,1.86q-3.674,0-5.062-1.86T2948.371,372.96Zm2.321-.044a9.557,9.557,0,0,0,.8,4.616q.8,1.321,3.346,1.32c1.692,0,2.8-.433,3.319-1.308a9.688,9.688,0,0,0,.778-4.613c0-2.208-.291-3.723-.873-4.557s-1.659-1.249-3.233-1.249a3.723,3.723,0,0,0-3.246,1.249Q2950.689,369.626,2950.692,372.917Z" transform="translate(-2828.123 -358.912)" fill="#3f3d56"/>
            <path id="Path_10141" data-name="Path 10141" d="M2964.841,365.17a26.667,26.667,0,0,1,3.378.354l.719.09-.086,1.835c-1.606-.178-2.794-.263-3.556-.263q-2.559,0-3.478,1.218t-.918,4.513a8.782,8.782,0,0,0,.862,4.585c.571.862,1.762,1.292,3.563,1.292l3.558-.263.087,1.866a28.461,28.461,0,0,1-4.187.413q-3.529,0-4.865-1.8t-1.339-6.091q0-4.291,1.448-6.019T2964.841,365.17Z" transform="translate(-2822.416 -358.912)" fill="#3f3d56"/>
            <path id="Path_10142" data-name="Path 10142" d="M2979.568,382.886q-4.658,0-6.437-2.558t-1.777-8.048q0-5.486,1.8-8.155t6.41-2.669q4.6,0,6.428,2.653t1.824,8.165a19.361,19.361,0,0,1-.789,6.119,6.076,6.076,0,0,1-2.68,3.421l2.569,4.113-2.173,1.029-2.647-4.336A10.078,10.078,0,0,1,2979.568,382.886Zm-5.833-10.622q0,4.581,1.2,6.579t4.642,2q3.448,0,4.639-1.939t1.191-6.564q0-4.621-1.235-6.724t-4.621-2.1q-3.391,0-4.6,2.086T2973.735,372.265Z" transform="translate(-2815.275 -360.988)" fill="#3f3d56"/>
            <path id="Path_10143" data-name="Path 10143" d="M2993.814,365.359h2.265V380.41h-2.265v-1.057a8.674,8.674,0,0,1-4.451,1.352q-3.075,0-4.08-1.6t-1-5.884v-7.865h2.262v7.819a11.019,11.019,0,0,0,.574,4.395q.573,1.118,2.585,1.116a7.559,7.559,0,0,0,2.021-.285,9.827,9.827,0,0,0,1.565-.552l.528-.279Z" transform="translate(-2808.049 -358.806)" fill="#3f3d56"/>
            <path id="Path_10144" data-name="Path 10144" d="M3005.1,378.649l.866-.09.06,1.779a41.159,41.159,0,0,1-5.865.472q-3.245,0-4.607-1.882t-1.356-5.849q0-7.925,6.289-7.909a5.767,5.767,0,0,1,4.547,1.7q1.507,1.7,1.506,5.341l-.116,1.7h-9.936a6.156,6.156,0,0,0,.906,3.706,3.683,3.683,0,0,0,3.143,1.205Q3002.774,378.825,3005.1,378.649Zm-.822-6.526a6.551,6.551,0,0,0-.884-3.908,3.409,3.409,0,0,0-2.886-1.147,3.718,3.718,0,0,0-3.014,1.2,6.072,6.072,0,0,0-1.035,3.859Z" transform="translate(-2802.506 -358.912)" fill="#3f3d56"/>
            <path id="Path_10145" data-name="Path 10145" d="M3004.364,380.531V365.48h2.236v2.044a14.589,14.589,0,0,1,5.508-2.382v2.295a15.477,15.477,0,0,0-2.638.75,16.66,16.66,0,0,0-2.091.909l-.752.384v11.052Z" transform="translate(-2796.82 -358.928)" fill="#3f3d56"/>
            <path id="Path_10146" data-name="Path 10146" d="M3010.135,365.359h2.264l3.763,13.094h.982l3.791-13.094h2.266L3016.94,387.1h-2.263l1.969-6.687h-2.236Z" transform="translate(-2793.595 -358.806)" fill="#3f3d56"/>
          </g>
        </g>
        <g id="Group_32" data-name="Group 32" transform="translate(592.977 11190.77)">
          <ellipse id="Ellipse_17" data-name="Ellipse 17" cx="27.841" cy="26.337" rx="27.841" ry="26.337" transform="translate(0.004 9.029)" fill="#ff6584"/>
          <g id="query" transform="translate(0)">
            <path id="Path_309" data-name="Path 309" d="M3008.028,297.963v-27.09h-21.07v12.04h-22.776a28.574,28.574,0,0,0-4.956-4.183,2.973,2.973,0,0,0,.644-1.837v-6.021a3.01,3.01,0,0,0-3.01-3.009h-27.088a3.009,3.009,0,0,0-3.011,3.009v6.021a2.98,2.98,0,0,0,.644,1.837,28.578,28.578,0,0,0,9.89,51.691v5.165a4.475,4.475,0,0,0,.6,2.214,4.509,4.509,0,0,0-2.107,3.806v12.039a7.525,7.525,0,1,0,15.05,0v-7.524h36.118V358.16h21.07V331.072h-21.07V343.11H2950.84v-1.5a4.507,4.507,0,0,0-2.106-3.806,4.478,4.478,0,0,0,.6-2.214v-5.165a28.687,28.687,0,0,0,19.152-14.4h18.47v12.039h21.07V300.973h-21.07v12.039h-17.085a28.524,28.524,0,0,0-3.23-27.09h20.316v12.04Zm-18.059,36.118h15.049v21.07h-15.049Zm0-30.1h15.049v21.069h-15.049Zm-30.11-11.93a19.564,19.564,0,1,1-33.087,0,3.01,3.01,0,0,0,3,2.9v3.011a3.01,3.01,0,0,0-3.011,3.01v6.019a3.009,3.009,0,0,0,3.011,3.009h27.088a3.01,3.01,0,0,0,3.01-3.009v-6.019a3.01,3.01,0,0,0-3.01-3.01v-3.011A3.01,3.01,0,0,0,2959.859,292.052Zm-3,8.921v6.019h-27.088v-6.019Zm-24.08-3.01v-3.011h21.071v3.011Zm-3.008-6.019v-6.021h27.088v6.021Zm3.008-9.03V279.9h21.071v3.01Zm-3.008-12.04h27.088v6.021h-27.088Zm18.058,82.772a4.514,4.514,0,1,1-9.028,0h0V341.606a1.5,1.5,0,0,1,1.5-1.5h6.019a1.5,1.5,0,0,1,1.5,1.5Zm-1.5-18.058a1.5,1.5,0,0,1-1.5,1.5h-3.01a1.5,1.5,0,0,1-1.5-1.5v-4.677a28.144,28.144,0,0,0,6.019,0Zm-3.01-7.525a25.584,25.584,0,0,1-13.543-47.284v2.136a3.009,3.009,0,0,0-3.011,3.009v1.239a22.577,22.577,0,1,0,33.109.006v-1.246a3.01,3.01,0,0,0-3.01-3.009v-2.136a25.584,25.584,0,0,1-13.545,47.284Zm46.654-54.178h15.049v21.069h-15.049Z" transform="translate(-2914.717 -267.864)" fill="#3f3d56"/>
            <path id="Path_310" data-name="Path 310" d="M2970.935,273.656h-6.019v3.009h3.009v9.03h-3.009v3.01h9.028v-3.01h-3.009Z" transform="translate(-2886.654 -264.626)" fill="#3f3d56"/>
            <path id="Path_311" data-name="Path 311" d="M2972.139,301.088a4.515,4.515,0,1,0-7.223-3.611v1.5h3.009v-1.5a1.505,1.505,0,1,1,2.409,1.2l-5.417,4.063v5.268h9.028V305h-6.02v-.751Z" transform="translate(-2886.654 -253.834)" fill="#3f3d56"/>
            <path id="Path_312" data-name="Path 312" d="M2969.431,312.268h-4.515v3.01h4.515a1.5,1.5,0,0,1,0,3.009h-4.515v3.01h4.515a1.5,1.5,0,0,1,0,3.009h-4.515v3.01h4.515a4.494,4.494,0,0,0,3.341-7.524,4.5,4.5,0,0,0-3.341-7.525Z" transform="translate(-2886.654 -243.041)" fill="#3f3d56"/>
            <rect id="Rectangle_2563" data-name="Rectangle 2563" width="27.089" height="6.13" transform="translate(15.053 18.059)" fill="#fff"/>
            <rect id="Rectangle_2564" data-name="Rectangle 2564" width="27.089" height="6.13" transform="translate(15.053 33.053)" fill="#fff"/>
          </g>
        </g>
        <g id="Improved_Experience" data-name="Improved Experience" transform="translate(509.916 11563.704)" style="isolation: isolate">
          <g id="Group_2005" data-name="Group 2005" style="isolation: isolate">
            <path id="Path_10147" data-name="Path 10147" d="M2861.337,545.618V524.793h2.322v20.825Z" transform="translate(-2861.337 -524.015)" fill="#3f3d56"/>
            <path id="Path_10148" data-name="Path 10148" d="M2868.087,543.653h-2.262V528.6h2.234v1.06a8.561,8.561,0,0,1,4.393-1.353q2.795,0,3.909,1.528a11.063,11.063,0,0,1,2.578-1.063,10.042,10.042,0,0,1,2.788-.465q3.012,0,4.049,1.612t1.035,5.781v7.951h-2.263v-7.892a10.363,10.363,0,0,0-.6-4.284,2.614,2.614,0,0,0-2.557-1.154,7.889,7.889,0,0,0-2.052.285,11.021,11.021,0,0,0-1.624.552l-.558.279a14.644,14.644,0,0,1,.386,4.395v7.818h-2.252v-7.759a11.094,11.094,0,0,0-.586-4.411q-.589-1.157-2.588-1.16a7.206,7.206,0,0,0-1.969.285,10.124,10.124,0,0,0-1.543.552l-.514.279Z" transform="translate(-2858.828 -522.049)" fill="#3f3d56"/>
            <path id="Path_10149" data-name="Path 10149" d="M2881.962,550.34V528.6h2.236v1.088a8.711,8.711,0,0,1,4.51-1.381,4.757,4.757,0,0,1,4.16,1.816q1.293,1.812,1.292,6t-1.522,6q-1.519,1.817-5.046,1.816a16.444,16.444,0,0,1-3.366-.323v6.715Zm6.424-20.016a7.011,7.011,0,0,0-1.941.3,10.591,10.591,0,0,0-1.646.6l-.573.309v10.14a20.536,20.536,0,0,0,3.248.323,3.9,3.9,0,0,0,3.417-1.38,8.016,8.016,0,0,0,.976-4.513,8.351,8.351,0,0,0-.881-4.451A2.92,2.92,0,0,0,2888.385,530.323Z" transform="translate(-2849.807 -522.049)" fill="#3f3d56"/>
            <path id="Path_10150" data-name="Path 10150" d="M2892.134,543.669V528.618h2.236v2.044a14.581,14.581,0,0,1,5.508-2.381v2.293a15.869,15.869,0,0,0-2.638.75,16.833,16.833,0,0,0-2.092.909l-.75.383v11.052Z" transform="translate(-2844.12 -522.065)" fill="#3f3d56"/>
            <path id="Path_10151" data-name="Path 10151" d="M2898.2,536.1q0-4.128,1.475-5.957t4.983-1.832q3.505,0,4.968,1.832t1.461,5.957q0,4.13-1.38,5.99t-5.056,1.86q-3.674,0-5.062-1.86T2898.2,536.1Zm2.321-.044a9.565,9.565,0,0,0,.8,4.616q.8,1.321,3.346,1.321c1.692,0,2.8-.433,3.32-1.308a9.684,9.684,0,0,0,.778-4.613q0-3.309-.873-4.555a3.684,3.684,0,0,0-3.233-1.25,3.724,3.724,0,0,0-3.246,1.25Q2900.515,532.763,2900.518,536.054Z" transform="translate(-2840.731 -522.049)" fill="#3f3d56"/>
            <path id="Path_10152" data-name="Path 10152" d="M2907.735,528.5h2.409l3.528,13.094h1.1l3.645-13.094h2.321l-4.25,15.051h-4.511Z" transform="translate(-2835.399 -521.944)" fill="#3f3d56"/>
            <path id="Path_10153" data-name="Path 10153" d="M2928.235,541.787l.868-.09.058,1.78a41.349,41.349,0,0,1-5.865.471c-2.162,0-3.7-.627-4.605-1.882s-1.358-3.205-1.358-5.849q0-7.923,6.289-7.907a5.766,5.766,0,0,1,4.548,1.7q1.506,1.7,1.506,5.341l-.117,1.706h-9.936a6.154,6.154,0,0,0,.906,3.7,3.686,3.686,0,0,0,3.142,1.205Q2925.912,541.963,2928.235,541.787Zm-.821-6.526a6.548,6.548,0,0,0-.885-3.909,3.408,3.408,0,0,0-2.885-1.147,3.717,3.717,0,0,0-3.014,1.2,6.074,6.074,0,0,0-1.036,3.859Z" transform="translate(-2830.033 -522.049)" fill="#3f3d56"/>
            <path id="Path_10154" data-name="Path 10154" d="M2939.306,524.294v21.6h-2.236v-1.029a9.175,9.175,0,0,1-4.57,1.324,6.85,6.85,0,0,1-2.108-.295,4.134,4.134,0,0,1-1.682-1.088q-1.633-1.632-1.631-6t1.46-6.313q1.466-1.938,4.829-1.939a19.105,19.105,0,0,1,3.7.383v-6.643Zm-7.824,19.678a3.954,3.954,0,0,0,1.4.2,7.522,7.522,0,0,0,1.926-.285,12.423,12.423,0,0,0,1.667-.55l.6-.279v-10.2a18.323,18.323,0,0,0-3.571-.354,3.456,3.456,0,0,0-3.2,1.455,8.821,8.821,0,0,0-.9,4.529q0,3.5,1.058,4.7A2.557,2.557,0,0,0,2931.481,543.972Z" transform="translate(-2824.584 -524.294)" fill="#3f3d56"/>
            <path id="Path_10155" data-name="Path 10155" d="M2942.208,545.618V524.793h12.67v2.044H2944.53v7.2h8.541v2.016h-8.541v7.524h10.349v2.042Z" transform="translate(-2816.127 -524.015)" fill="#3f3d56"/>
            <path id="Path_10156" data-name="Path 10156" d="M2951.664,528.5h2.47l3.675,5.893,3.673-5.893h2.47l-4.792,7.468,4.761,7.583h-2.468l-3.645-5.865-3.675,5.865h-2.47l4.734-7.524Z" transform="translate(-2810.841 -521.944)" fill="#3f3d56"/>
            <path id="Path_10157" data-name="Path 10157" d="M2961.347,550.34V528.6h2.236v1.088a8.711,8.711,0,0,1,4.51-1.381,4.757,4.757,0,0,1,4.159,1.816q1.293,1.812,1.292,6t-1.521,6q-1.521,1.817-5.047,1.816a16.454,16.454,0,0,1-3.368-.323v6.715Zm6.423-20.016a7.013,7.013,0,0,0-1.941.3,10.619,10.619,0,0,0-1.646.6l-.573.309v10.14a20.569,20.569,0,0,0,3.249.323,3.9,3.9,0,0,0,3.416-1.38,8.009,8.009,0,0,0,.977-4.513,8.354,8.354,0,0,0-.881-4.451A2.921,2.921,0,0,0,2967.77,530.323Z" transform="translate(-2805.428 -522.049)" fill="#3f3d56"/>
            <path id="Path_10158" data-name="Path 10158" d="M2982,541.787l.869-.09.057,1.78a41.335,41.335,0,0,1-5.865.471q-3.244,0-4.606-1.882t-1.357-5.849q0-7.923,6.289-7.907a5.765,5.765,0,0,1,4.548,1.7q1.505,1.7,1.508,5.341l-.119,1.706h-9.936a6.154,6.154,0,0,0,.906,3.7,3.687,3.687,0,0,0,3.143,1.205Q2979.673,541.963,2982,541.787Zm-.821-6.526a6.548,6.548,0,0,0-.884-3.909,3.406,3.406,0,0,0-2.885-1.147,3.716,3.716,0,0,0-3.013,1.2,6.069,6.069,0,0,0-1.035,3.859Z" transform="translate(-2799.979 -522.049)" fill="#3f3d56"/>
            <path id="Path_10159" data-name="Path 10159" d="M2981.264,543.669V528.618h2.236v2.044a14.563,14.563,0,0,1,5.509-2.381v2.293a15.777,15.777,0,0,0-2.638.75,16.777,16.777,0,0,0-2.093.909l-.75.383v11.052Z" transform="translate(-2794.294 -522.065)" fill="#3f3d56"/>
            <path id="Path_10160" data-name="Path 10160" d="M2987.939,527.264v-2.632h2.263v2.632Zm0,18.445V530.658h2.263v15.051Z" transform="translate(-2790.563 -524.105)" fill="#3f3d56"/>
            <path id="Path_10161" data-name="Path 10161" d="M3002.641,541.787l.869-.09.058,1.78a41.36,41.36,0,0,1-5.864.471q-3.247,0-4.607-1.882t-1.358-5.849q0-7.923,6.29-7.907a5.763,5.763,0,0,1,4.547,1.7q1.507,1.7,1.508,5.341l-.119,1.706h-9.936a6.15,6.15,0,0,0,.906,3.7,3.685,3.685,0,0,0,3.143,1.205Q3000.32,541.963,3002.641,541.787Zm-.821-6.526a6.55,6.55,0,0,0-.884-3.909,3.408,3.408,0,0,0-2.886-1.147,3.712,3.712,0,0,0-3.012,1.2,6.058,6.058,0,0,0-1.037,3.859Z" transform="translate(-2788.438 -522.049)" fill="#3f3d56"/>
            <path id="Path_10162" data-name="Path 10162" d="M3004.172,543.653h-2.264V528.6h2.236v1.06a9.624,9.624,0,0,1,4.655-1.353q3.015,0,4.058,1.623t1.044,5.77v7.951h-2.234v-7.892a10.121,10.121,0,0,0-.617-4.284q-.617-1.153-2.632-1.154a7.922,7.922,0,0,0-2.033.285,10.687,10.687,0,0,0-1.64.552l-.574.279Z" transform="translate(-2782.753 -522.049)" fill="#3f3d56"/>
            <path id="Path_10163" data-name="Path 10163" d="M3018.127,528.309a26.568,26.568,0,0,1,3.378.352l.719.091-.087,1.835q-2.409-.264-3.554-.264-2.558,0-3.478,1.218t-.919,4.513a8.785,8.785,0,0,0,.863,4.585q.855,1.293,3.562,1.292l3.558-.263.087,1.866a28.445,28.445,0,0,1-4.187.413q-3.529,0-4.865-1.8t-1.339-6.093q0-4.291,1.448-6.019T3018.127,528.309Z" transform="translate(-2777.187 -522.049)" fill="#3f3d56"/>
            <path id="Path_10164" data-name="Path 10164" d="M3031.045,541.787l.867-.09.059,1.78a41.357,41.357,0,0,1-5.865.471q-3.245,0-4.607-1.882t-1.356-5.849q0-7.923,6.29-7.907a5.767,5.767,0,0,1,4.548,1.7q1.506,1.7,1.506,5.341l-.116,1.706h-9.936a6.151,6.151,0,0,0,.906,3.7,3.684,3.684,0,0,0,3.143,1.205Q3028.722,541.963,3031.045,541.787Zm-.823-6.526a6.557,6.557,0,0,0-.883-3.909,3.41,3.41,0,0,0-2.886-1.147,3.716,3.716,0,0,0-3.013,1.2,6.071,6.071,0,0,0-1.035,3.859Z" transform="translate(-2772.56 -522.049)" fill="#3f3d56"/>
          </g>
        </g>
        <g id="Group_2085" data-name="Group 2085" transform="translate(592.977 11427.555)">
          <ellipse id="Ellipse_19" data-name="Ellipse 19" cx="7.46" cy="7.46" rx="7.46" ry="7.46" transform="translate(3.475 37.281)" fill="#ff6584"/>
          <ellipse id="Ellipse_19-2" data-name="Ellipse 19" cx="7.46" cy="7.46" rx="7.46" ry="7.46" transform="translate(63.935 14.116)" fill="#ff6584"/>
          <ellipse id="Ellipse_19-3" data-name="Ellipse 19" cx="7.46" cy="7.46" rx="7.46" ry="7.46" transform="translate(55.22 71.918)" fill="#ff6584"/>
          <g id="user-experience" transform="translate(0)">
            <path id="Path_313" data-name="Path 313" d="M3001.306,476.987a65.217,65.217,0,0,0,4.612-11.8c3.385-12.217,1.746-22.453-4.618-28.814s-16.6-8-28.82-4.618a65.163,65.163,0,0,0-11.8,4.611,62.57,62.57,0,0,0-14.537-5.3c-10.981-2.407-20.239-.524-26.068,5.3a22.892,22.892,0,0,0-6.264,15.191,46.424,46.424,0,0,0,3.268,18.571,8.713,8.713,0,0,0,0,13.7,46.422,46.422,0,0,0-3.268,18.57,22.892,22.892,0,0,0,6.264,15.191c4.174,4.177,10.032,6.328,17.107,6.328a37.906,37.906,0,0,0,4.412-.262,57.779,57.779,0,0,0,19.093-6.057,65.26,65.26,0,0,0,11.791,4.607,44.135,44.135,0,0,0,11.716,1.721c7.026,0,12.909-2.141,17.105-6.339,5.826-5.823,7.709-15.08,5.3-26.064A62.741,62.741,0,0,0,3001.306,476.987Zm-28.093-42.574c11.227-3.109,20.509-1.721,26.137,3.913s7.017,14.912,3.913,26.137a61.29,61.29,0,0,1-3.556,9.515,90.122,90.122,0,0,0-9.741-14.031,8.712,8.712,0,0,0,.027-10.729l-2.175,1.691a5.969,5.969,0,1,1-4.713-2.3,5.981,5.981,0,0,1,3.037.829l1.408-2.368a8.714,8.714,0,0,0-9.829.639,90.281,90.281,0,0,0-14.033-9.739A61.209,61.209,0,0,1,2973.214,434.413Zm-51.183,3.91c7.449-7.451,21.108-7.173,35.643-.366a93.878,93.878,0,0,0-20.4,15.6,96.448,96.448,0,0,0-12.332,15.049,8.778,8.778,0,0,0-2.454-.351,8.649,8.649,0,0,0-2.969.521C2914.738,455.768,2915.631,444.718,2922.031,438.323Zm15.229,82.833c-6.233,0-11.532-1.805-15.23-5.511-6.4-6.4-7.292-17.438-2.518-30.457a8.7,8.7,0,0,0,5.418.167,96.4,96.4,0,0,0,12.339,15.051,93.9,93.9,0,0,0,20.4,15.6A49.229,49.229,0,0,1,2937.26,521.156Zm23.423-6.649a90.046,90.046,0,0,1-21.465-16.052,93.726,93.726,0,0,1-11.772-14.3,8.728,8.728,0,0,0,3.767-7.172c0-.259-.011-.521-.033-.776l-2.745.243c.016.176.023.354.023.533a5.962,5.962,0,1,1-.628-2.672l2.463-1.236a8.732,8.732,0,0,0-2.842-3.276,93.732,93.732,0,0,1,11.766-14.3,90,90,0,0,1,21.472-16.05,86.453,86.453,0,0,1,15.16,10.271,8.721,8.721,0,0,0,12.1,12.1,86.357,86.357,0,0,1,10.268,15.163,89.906,89.906,0,0,1-16.053,21.468c-.734.734-1.487,1.464-2.257,2.178a8.714,8.714,0,0,0-10.986-.229l1.7,2.169a5.956,5.956,0,1,1-1.475,1.671l-2.368-1.408a8.72,8.72,0,0,0-.323,8.314Q2963.569,512.993,2960.682,514.506Zm38.67,1.137c-5.629,5.631-14.912,7.019-26.137,3.913a61.15,61.15,0,0,1-9.512-3.55q2.177-1.216,4.351-2.608a8.721,8.721,0,0,0,13.659-10.676c.812-.759,1.615-1.536,2.4-2.317A93.941,93.941,0,0,0,2999.718,480c6.807,14.538,7.084,28.2-.365,35.647Z" transform="translate(-2913.752 -430.038)" fill="#3f3d56"/>
            <path id="Path_318" data-name="Path 318" d="M2957.352,444.89h2.756v2.755h-2.756Z" transform="translate(-2889.379 -421.734)" fill="#3f3d56"/>
            <path id="Path_319" data-name="Path 319" d="M2951.7,478.709h2.755v2.753H2951.7Z" transform="translate(-2892.541 -402.829)" fill="#3f3d56"/>
            <path id="Path_320" data-name="Path 320" d="M2918.467,459.266h2.759v2.756h-2.759Z" transform="translate(-2911.117 -413.698)" fill="#3f3d56"/>
          </g>
          <circle id="Ellipse_20" data-name="Ellipse 20" cx="8.277" cy="8.277" r="8.277" transform="translate(38.666 36.463)" fill="#ff6584"/>
          <g id="Group_2043" data-name="Group 2043" transform="translate(24.348 19.543)">
            <path id="Path_314" data-name="Path 314" d="M2967.576,474.253h-2.847v-6.942a6.923,6.923,0,0,0-5.018-6.631l-1.031-.29-.752,2.652,1.03.29a4.151,4.151,0,0,1,3.01,3.977v6.942H2957v-3.762h-2.755v3.762h-12.393v2.756h25.719Z" transform="translate(-2922.391 -432.612)" fill="#3f3d56"/>
            <path id="Path_315" data-name="Path 315" d="M2956.515,470.634l5.743,1.621.753-2.653-5.63-1.587v-3.659a9.639,9.639,0,0,0,4.227-7.976v-4.043a9.645,9.645,0,0,0-19.289-.24c0,.079,0,.161,0,.24v4.043a9.641,9.641,0,0,0,4.225,7.976v3.659l-9.309,2.625a6.926,6.926,0,0,0-5.02,6.631v6.942h-2.847v2.756h16.718v-2.756h-3.4v-3.762h-2.755v3.762h-4.967v-6.944a4.152,4.152,0,0,1,3.011-3.977l9.422-2.658a6.177,6.177,0,0,0,8.73.384c.135-.122.262-.249.384-.384Zm-4.557-25.181a6.9,6.9,0,0,1,6.889,6.889v1.536l-2.9-3.832h-10.486a6.9,6.9,0,0,1,6.5-4.594Zm-6.887,10.93V452.8h9.51l4.04,5.341a6.889,6.889,0,0,1-13.545-1.759Zm4.227,12.231v-2.962a9.583,9.583,0,0,0,5.327,0v2.964a3.425,3.425,0,0,1-5.327,0Z" transform="translate(-2929.37 -442.572)" fill="#3f3d56"/>
            <path id="Path_316" data-name="Path 316" d="M2949.92,466.08l-3.882-1.094.753-2.652,3.881,1.094Z" transform="translate(-2920.052 -431.525)" fill="#3f3d56"/>
            <path id="Path_317" data-name="Path 317" d="M2953.627,464.261l-.751,2.652-2.652-.751.751-2.652Z" transform="translate(-2917.712 -430.868)" fill="#3f3d56"/>
          </g>
        </g>
      </g>
    </g>
  </g>
</svg>
