<svg xmlns="http://www.w3.org/2000/svg" viewBox="0 0 433.6 542.58"><defs><style>.cls-1{fill:#3f3d56;}.cls-2{fill:#fff;}.cls-3{fill:#ff6584;}.cls-4{isolation:isolate;}</style></defs><g id="图层_2" data-name="图层 2"><g id="图层_1-2" data-name="图层 1"><g id="组_2001-2" data-name="组 2001-2"><path id="路径_10108-2" data-name="路径 10108-2" class="cls-1" d="M15,19.24h-1.3V15.11H17.8v1.3H15Z"/><path id="路径_10109-2" data-name="路径 10109-2" class="cls-1" d="M422.58,16.41h-6.32v-1.3h6.32Zm-12.63,0h-6.32v-1.3H410Zm-12.63,0H391v-1.3h6.31Zm-12.64,0h-6.31v-1.3h6.31Zm-12.63,0h-6.31v-1.3h6.31Zm-12.63,0h-6.31v-1.3h6.31Zm-12.63,0h-6.31v-1.3h6.31Zm-12.63,0h-6.32v-1.3h6.32Zm-12.63,0h-6.32v-1.3h6.32Zm-12.63,0h-6.32v-1.3h6.32Zm-12.63,0H290v-1.3h6.32Zm-12.63,0h-6.32v-1.3h6.32Zm-12.63,0h-6.32v-1.3H271Zm-12.64,0h-6.31v-1.3h6.31Zm-12.63,0h-6.31v-1.3h6.31Zm-12.63,0H226.8v-1.3h6.31Zm-12.63,0h-6.32v-1.3h6.32Zm-12.63,0h-6.32v-1.3h6.32Zm-12.63,0H188.9v-1.3h6.32Zm-12.63,0h-6.32v-1.3h6.32Zm-12.64,0h-6.31v-1.3H170Zm-12.63,0H151v-1.3h6.31Zm-12.63,0h-6.31v-1.3h6.31Zm-12.63,0h-6.31v-1.3h6.31Zm-12.63,0h-6.32v-1.3h6.32Zm-12.63,0h-6.32v-1.3h6.32Zm-12.63,0H87.85v-1.3h6.32Zm-12.63,0H75.22v-1.3h6.32Zm-12.64,0H62.59v-1.3H68.9Zm-12.63,0H50v-1.3h6.31Zm-12.63,0H37.33v-1.3h6.31ZM31,16.41H24.7v-1.3H31Z"/><path id="路径_10110-2" data-name="路径 10110-2" class="cls-1" d="M433.6,19.24h-1.3V16.41h-2.83v-1.3h4.13Z"/><path id="路径_10111-2" data-name="路径 10111-2" class="cls-1" d="M433.6,531.57h-1.3V524h1.3Zm0-15.08h-1.3v-7.55h1.3Zm0-15.09h-1.3v-7.55h1.3Zm0-15.09h-1.3v-7.54h1.3Zm0-15.09h-1.3v-7.54h1.3Zm0-15.09h-1.3v-7.54h1.3Zm0-15.08h-1.3V433.5h1.3Zm0-15.09h-1.3v-7.55h1.3Zm0-15.09h-1.3v-7.55h1.3Zm0-15.09h-1.3v-7.54h1.3Zm0-15.09h-1.3v-7.54h1.3Zm0-15.09h-1.3v-7.54h1.3Zm0-15.08h-1.3V343h1.3Zm0-15.09h-1.3v-7.55h1.3Zm0-15.09h-1.3V312.8h1.3Zm0-15.09h-1.3v-7.54h1.3Zm0-15.09h-1.3v-7.54h1.3Zm0-15.08h-1.3v-7.55h1.3Zm0-15.09h-1.3v-7.55h1.3Zm0-15.09h-1.3v-7.55h1.3Zm0-15.09h-1.3v-7.54h1.3Zm0-15.09h-1.3v-7.54h1.3Zm0-15.09h-1.3v-7.54h1.3Zm0-15.08h-1.3V177h1.3Zm0-15.09h-1.3v-7.55h1.3Zm0-15.09h-1.3v-7.54h1.3Zm0-15.09h-1.3v-7.54h1.3Zm0-15.09h-1.3v-7.54h1.3Zm0-15.09h-1.3v-7.54h1.3Zm0-15.08h-1.3V86.47h1.3Zm0-15.09h-1.3V71.38h1.3Zm0-15.09h-1.3V56.29h1.3Zm0-15.09h-1.3V41.21h1.3Zm0-15.09h-1.3V26.11h1.3Z"/><path id="路径_10112-2" data-name="路径 10112-2" class="cls-1" d="M433.6,542.58h-4.13v-1.3h2.82v-2.83h1.3Z"/><path id="路径_10113-2" data-name="路径 10113-2" class="cls-1" d="M422.58,542.58h-6.32v-1.3h6.32Zm-12.63,0h-6.32v-1.3H410Zm-12.63,0H391v-1.3h6.31Zm-12.64,0h-6.31v-1.3h6.31Zm-12.63,0h-6.31v-1.3h6.31Zm-12.63,0h-6.31v-1.3h6.31Zm-12.63,0h-6.31v-1.3h6.31Zm-12.63,0h-6.32v-1.3h6.32Zm-12.63,0h-6.32v-1.3h6.32Zm-12.63,0h-6.32v-1.3h6.32Zm-12.63,0H290v-1.3h6.32Zm-12.63,0h-6.32v-1.3h6.32Zm-12.63,0h-6.32v-1.3H271Zm-12.64,0h-6.31v-1.3h6.31Zm-12.63,0h-6.31v-1.3h6.31Zm-12.63,0H226.8v-1.3h6.31Zm-12.63,0h-6.32v-1.3h6.32Zm-12.63,0h-6.32v-1.3h6.32Zm-12.63,0H188.9v-1.3h6.32Zm-12.63,0h-6.32v-1.3h6.32Zm-12.64,0h-6.31v-1.3H170Zm-12.63,0H151v-1.3h6.31Zm-12.63,0h-6.31v-1.3h6.31Zm-12.63,0h-6.31v-1.3h6.31Zm-12.63,0h-6.32v-1.3h6.32Zm-12.63,0h-6.32v-1.3h6.32Zm-12.63,0H87.85v-1.3h6.32Zm-12.63,0H75.22v-1.3h6.32Zm-12.63,0H62.59v-1.3h6.32Zm-12.63,0H50v-1.3h6.32Zm-12.64,0H37.33v-1.3h6.31Zm-12.63,0H24.7v-1.3H31Z"/><path id="路径_10114-2" data-name="路径 10114-2" class="cls-1" d="M17.8,542.58H13.67v-4.13H15v2.83H17.8Z"/><path id="路径_10115-2" data-name="路径 10115-2" class="cls-1" d="M15,531.57h-1.3V524H15Zm0-15.08h-1.3v-7.55H15Zm0-15.09h-1.3v-7.55H15Zm0-15.09h-1.3v-7.54H15Zm0-15.09h-1.3v-7.54H15Zm0-15.09h-1.3v-7.54H15Zm0-15.08h-1.3V433.5H15ZM15,426h-1.3v-7.55H15Zm0-15.09h-1.3v-7.55H15Zm0-15.09h-1.3v-7.54H15Zm0-15.09h-1.3v-7.54H15Zm0-15.09h-1.3v-7.54H15Zm0-15.08h-1.3V343H15Zm0-15.09h-1.3v-7.55H15Zm0-15.09h-1.3V312.8H15Zm0-15.09h-1.3v-7.54H15Zm0-15.09h-1.3v-7.54H15Zm0-15.09h-1.3v-7.54H15ZM15,260h-1.3v-7.55H15Zm0-15.09h-1.3v-7.55H15Zm0-15.09h-1.3v-7.54H15Zm0-15.09h-1.3v-7.54H15Zm0-15.09h-1.3v-7.54H15Zm0-15.08h-1.3V177H15Zm0-15.09h-1.3v-7.55H15Zm0-15.09h-1.3v-7.55H15Zm0-15.09h-1.3v-7.54H15Zm0-15.09h-1.3v-7.54H15Zm0-15.09h-1.3v-7.54H15ZM15,94h-1.3V86.47H15Zm0-15.09h-1.3V71.38H15Zm0-15.09h-1.3V56.3H15Zm0-15.09h-1.3V41.21H15Zm0-15.09h-1.3V26.11H15Z"/></g><g id="组_2002-2" data-name="组 2002-2"><path id="路径_10116-2" data-name="路径 10116-2" class="cls-1" d="M15.39,19.65h-1.3V15.52h4.13v1.3H15.39Z"/><path id="路径_10117-2" data-name="路径 10117-2" class="cls-1" d="M422.18,16.82h-6.3v-1.3h6.3Zm-12.6,0h-6.3v-1.3h6.3Zm-12.61,0h-6.3v-1.3H397Zm-12.61,0h-6.3v-1.3h6.3Zm-12.6,0h-6.3v-1.3h6.3Zm-12.6,0h-6.3v-1.3h6.3Zm-12.61,0h-6.3v-1.3h6.3Zm-12.6,0h-6.3v-1.3H334Zm-12.61,0H315v-1.3h6.3Zm-12.6,0h-6.3v-1.3h6.3Zm-12.61,0h-6.3v-1.3h6.3Zm-12.6,0h-6.3v-1.3h6.3Zm-12.61,0h-6.3v-1.3h6.3Zm-12.61,0H252v-1.3h6.3Zm-12.6,0h-6.3v-1.3h6.3Zm-12.6,0h-6.3v-1.3h6.3Zm-12.61,0h-6.3v-1.3h6.3Zm-12.61,0h-6.3v-1.3h6.3Zm-12.6,0H189v-1.3h6.3Zm-12.6,0h-6.3v-1.3h6.3Zm-12.61,0h-6.3v-1.3h6.3Zm-12.6,0h-6.3v-1.3h6.3Zm-12.61,0h-6.3v-1.3h6.3Zm-12.61,0H126v-1.3h6.3Zm-12.6,0h-6.3v-1.3h6.3Zm-12.61,0h-6.3v-1.3h6.3Zm-12.61,0h-6.3v-1.3h6.3Zm-12.6,0h-6.3v-1.3h6.3Zm-12.61,0h-6.3v-1.3h6.3Zm-12.6,0h-6.3v-1.3h6.3Zm-12.6,0h-6.3v-1.3H44Zm-12.61,0h-6.3v-1.3h6.3Z"/><path id="路径_10118-2" data-name="路径 10118-2" class="cls-1" d="M433.19,19.65h-1.3V16.82h-2.83v-1.3h4.13Z"/><path id="路径_10119-2" data-name="路径 10119-2" class="cls-1" d="M433.19,531.17h-1.3v-7.53h1.3Zm0-15.06h-1.3v-7.53h1.3Zm0-15.07h-1.3v-7.53h1.3Zm0-15.06h-1.3v-7.53h1.3Zm0-15.06h-1.3v-7.54h1.3Zm0-15.07h-1.3v-7.53h1.3Zm0-15.06h-1.3v-7.53h1.3Zm0-15.07h-1.3v-7.53h1.3Zm0-15.06h-1.3v-7.53h1.3Zm0-15.06h-1.3v-7.54h1.3Zm0-15.07h-1.3V373h1.3Zm0-15.06h-1.3v-7.54h1.3Zm0-15.07h-1.3v-7.53h1.3Zm0-15.06h-1.3v-7.53h1.3Zm0-15.07h-1.3v-7.53h1.3Zm0-15.06h-1.3v-7.53h1.3Zm0-15.06h-1.3v-7.54h1.3Zm0-15.07h-1.3v-7.53h1.3Zm0-15.06h-1.3v-7.54h1.3Zm0-15.07h-1.3v-7.53h1.3Zm0-15.06h-1.3v-7.53h1.3Zm0-15.07h-1.3v-7.53h1.3Zm0-15.06h-1.3v-7.53h1.3Zm0-15.06h-1.3v-7.54h1.3Zm0-15.07h-1.3V162.1h1.3Zm0-15.06h-1.3V147h1.3Zm0-15.07h-1.3V132h1.3Zm0-15.06h-1.3v-7.53h1.3Zm0-15.07h-1.3v-7.53h1.3Zm0-15.06h-1.3V86.78h1.3Zm0-15.06h-1.3V71.71h1.3Zm0-15.07h-1.3V56.64h1.3Zm0-15.06h-1.3V41.59h1.3Zm0-15.07h-1.3V26.51h1.3Z"/><path id="路径_10120-2" data-name="路径 10120-2" class="cls-1" d="M433.19,542.17h-4.13v-1.3h2.82V538h1.3Z"/><path id="路径_10121-2" data-name="路径 10121-2" class="cls-1" d="M422.18,542.17h-6.3v-1.3h6.3Zm-12.61,0h-6.3v-1.3h6.3Zm-12.6,0h-6.3v-1.3H397Zm-12.6,0h-6.3v-1.3h6.3Zm-12.61,0h-6.3v-1.3h6.3Zm-12.61,0h-6.3v-1.3h6.3Zm-12.6,0h-6.31v-1.3h6.31Zm-12.6,0h-6.3v-1.3H334Zm-12.61,0H315v-1.3h6.3Zm-12.61,0h-6.3v-1.3h6.3Zm-12.6,0h-6.3v-1.3h6.3Zm-12.6,0h-6.3v-1.3h6.3Zm-12.61,0h-6.3v-1.3h6.3Zm-12.61,0H252v-1.3h6.3Zm-12.6,0h-6.3v-1.3h6.3Zm-12.61,0h-6.3v-1.3h6.3Zm-12.6,0h-6.3v-1.3h6.3Zm-12.61,0h-6.3v-1.3h6.3Zm-12.6,0H189v-1.3h6.3Zm-12.61,0h-6.3v-1.3h6.3Zm-12.61,0h-6.3v-1.3h6.3Zm-12.6,0h-6.3v-1.3h6.3Zm-12.6,0h-6.3v-1.3h6.3Zm-12.61,0H126v-1.3h6.3Zm-12.6,0h-6.3v-1.3h6.3Zm-12.61,0h-6.3v-1.3h6.3Zm-12.6,0h-6.3v-1.3h6.3Zm-12.61,0h-6.3v-1.3h6.3Zm-12.6,0h-6.3v-1.3h6.3Zm-12.61,0h-6.3v-1.3h6.3Zm-12.6,0h-6.3v-1.3H44Zm-12.6,0h-6.3v-1.3h6.3Z"/><path id="路径_10122-2" data-name="路径 10122-2" class="cls-1" d="M18.22,542.17H14.09V538h1.3v2.82h2.82Z"/><path id="路径_10123-2" data-name="路径 10123-2" class="cls-1" d="M15.39,531.17h-1.3v-7.53h1.3Zm0-15.06h-1.3v-7.53h1.3Zm0-15.07h-1.3v-7.53h1.3Zm0-15.06h-1.3v-7.53h1.3Zm0-15.06h-1.3v-7.54h1.3Zm0-15.07h-1.3v-7.53h1.3Zm0-15.06h-1.3v-7.53h1.3Zm0-15.07h-1.3v-7.53h1.3Zm0-15.06h-1.3v-7.53h1.3Zm0-15.06h-1.3v-7.54h1.3Zm0-15.07h-1.3V373h1.3Zm0-15.06h-1.3v-7.54h1.3Zm0-15.07h-1.3v-7.53h1.3Zm0-15.06h-1.3v-7.53h1.3Zm0-15.07h-1.3v-7.53h1.3Zm0-15.06h-1.3v-7.53h1.3Zm0-15.06h-1.3v-7.54h1.3Zm0-15.07h-1.3v-7.53h1.3Zm0-15.06h-1.3v-7.54h1.3Zm0-15.07h-1.3v-7.53h1.3Zm0-15.06h-1.3v-7.53h1.3Zm0-15.07h-1.3v-7.53h1.3Zm0-15.06h-1.3v-7.53h1.3Zm0-15.06h-1.3v-7.54h1.3Zm0-15.07h-1.3V162.1h1.3Zm0-15.06h-1.3V147h1.3Zm0-15.07h-1.3V132h1.3Zm0-15.06h-1.3V116.9h1.3Zm0-15.07h-1.3v-7.53h1.3Zm0-15.06h-1.3V86.77h1.3Zm0-15.06h-1.3V71.71h1.3Zm0-15.07h-1.3V56.64h1.3Zm0-15.06h-1.3V41.59h1.3Zm0-15.07h-1.3V26.51h1.3Z"/></g><g id="组_2023-2" data-name="组 2023-2"><rect id="矩形_2565-2" data-name="矩形 2565-2" class="cls-2" x="0.66" y="0.65" width="418.62" height="526.17"/><path id="路径_10258-2" data-name="路径 10258-2" class="cls-1" d="M419.93,527.47H0V0H419.93ZM1.2,526.05H418.72V1.43H1.2Z"/></g><g id="组_2024-2" data-name="组 2024-2"><rect id="矩形_2566-2" data-name="矩形 2566-2" class="cls-2" x="1.07" y="1.06" width="417.8" height="525.34"/><path id="路径_10259-2" data-name="路径 10259-2" class="cls-1" d="M419.52,527.06H.42V.41h419.1ZM1.62,525.63h416.7V1.84H1.62Z"/></g><rect id="矩形_2570" data-name="矩形 2570" class="cls-2" x="110" y="230.66" width="18.01" height="4"/><g id="Group_33" data-name="Group 33"><rect id="Rectangle_13" data-name="Rectangle 13" class="cls-3" x="112.81" y="67.13" width="28.02" height="18.01"/><g id="dashboard的副本"><path id="Path_301" data-name="Path 301" class="cls-1" d="M149.84,50.12h-62v42h20v10h-8v5a5,5,0,0,0,5,5h36a5,5,0,0,0,5-5v-15h4Zm-2,2v6h-58v-6Zm-40,22h-4.59l-6-6a9,9,0,0,1,10.62-.45Zm-12-4.61,5.61,5.61-5.61,5.62a9,9,0,0,1,0-11.23Zm7.44,6.61h4.59v6.49a9,9,0,0,1-10.62-.46Zm1.59,34a3,3,0,0,1-3-3h0v-3h34v3a4.94,4.94,0,0,0,1,3Zm19-8v-12h16v16h-2v-4Zm20,5a3,3,0,0,1-5.82,1h3.82v-20h-20v14h-12v-38h34Zm2-17v-28h-38v3.2a11,11,0,1,0,0,19.62v5.2h-18v-30h58v30Z"/><path id="Path_302" data-name="Path 302" class="cls-1" d="M91.8,54.12h2v2h-2Z"/><path id="Path_303" data-name="Path 303" class="cls-1" d="M95.8,54.12h2v2h-2Z"/><path id="Path_304" data-name="Path 304" class="cls-1" d="M99.8,54.12h2v2h-2Z"/><path id="Path_305" data-name="Path 305" class="cls-1" d="M141.84,66.13h-30v20h30Zm-2,4h-10v-2h10Zm-12,2v12h-6v-12Zm-6-2v-2h6v2Zm8,2h4v12h-4Zm-10-4v2h-6v-2Zm-6,4h6v12h-6Zm22,12v-12h4v12Z"/><path id="Path_306" data-name="Path 306" class="cls-1" d="M111.81,88.14h8v2h-8Z"/><path id="Path_307" data-name="Path 307" class="cls-1" d="M111.81,92.15h8v2h-8Z"/><path id="Path_308" data-name="Path 308" class="cls-1" d="M111.81,96.15h8v2h-8Z"/></g></g><g id="Group_32" data-name="Group 32"><ellipse id="Ellipse_17" data-name="Ellipse 17" class="cls-3" cx="106.31" cy="233.38" rx="18.51" ry="17.51"/><g id="query"><path id="Path_309" data-name="Path 309" class="cls-1" d="M149.85,229.88v-18h-14v8H120.69a19.07,19.07,0,0,0-3.3-2.78,2,2,0,0,0,.43-1.22v-4a2,2,0,0,0-2-2h-18a2,2,0,0,0-2,2v4a2,2,0,0,0,.42,1.22,19,19,0,0,0,6.58,34.37v3.44a3,3,0,0,0,.4,1.47,3,3,0,0,0-1.4,2.53v8a5,5,0,0,0,10,0v-5h24v8h14v-18h-14v8h-24v-1a3,3,0,0,0-1.4-2.53,3.07,3.07,0,0,0,.4-1.48v-3.43a19,19,0,0,0,12.73-9.58h12.28v8h14v-18h-14v8H124.47a19,19,0,0,0-2.14-18h13.5v8Zm-12,24h10v14h-10Zm0-20h10v14h-10Zm-20-7.93a13,13,0,1,1-22,0,2,2,0,0,0,2,1.93v2a2,2,0,0,0-2,2v4a2,2,0,0,0,2,2h18a2,2,0,0,0,2-2v-4a2,2,0,0,0-2-2v-2a2,2,0,0,0,2-1.93Zm-2,5.93v4h-18v-4Zm-16-2v-2h14v2Zm-2-4v-4h18v4Zm2-6v-2h14v2Zm-2-8h18v4h-18Zm12,55.05a3,3,0,0,1-6,0h0v-8a1,1,0,0,1,1-1h4a1,1,0,0,1,1,1Zm-1-12a1,1,0,0,1-1,1h-2a1,1,0,0,1-1-1V251.8a19.1,19.1,0,0,0,4,0Zm-2-5a17,17,0,0,1-9-31.44v1.42a2,2,0,0,0-2,2v.82a15,15,0,1,0,22,0v-.83a2,2,0,0,0-2-2v-1.42a17,17,0,0,1-9,31.44Zm31-36h10v14h-10Z"/><path id="Path_310" data-name="Path 310" class="cls-1" d="M143.84,215.87h-4v2h2v6h-2v2h6v-2h-2Z"/><path id="Path_311" data-name="Path 311" class="cls-1" d="M144.64,241.28a3,3,0,1,0-3.6-4.8,3,3,0,0,0-1.2,2.4v1h2v-1a1,1,0,1,1,1.6.8l-3.6,2.7v3.5h6v-2h-4v-.5Z"/><path id="Path_312" data-name="Path 312" class="cls-1" d="M142.84,255.9h-3v2h3a1,1,0,1,1,0,2h-3v2h3a1,1,0,1,1,0,2h-3v2h3a3,3,0,0,0,3-3,3,3,0,0,0-.78-2,3,3,0,0,0-.2-4.23A3,3,0,0,0,142.84,255.9Z"/><rect id="矩形_2563" data-name="矩形 2563" class="cls-2" x="97.81" y="221.87" width="18.01" height="4.08"/><rect id="矩形_2564" data-name="矩形 2564" class="cls-2" x="97.81" y="231.84" width="18.01" height="4.08"/></g></g><g id="Group_42" data-name="Group 42"><path id="Path_328" data-name="Path 328" class="cls-3" d="M285.75,68.55,299,55.8l9.41,11,13.05-13.05H316.3V49.09h13V62.43H325V57.11l-16.57,16L299,62.43l-10.25,9.84Z"/><g id="Out_line" data-name="Out line"><path id="Path_321" data-name="Path 321" class="cls-1" d="M294.48,88.33V76.41a1.08,1.08,0,0,0-1.09-1.08h-4.34A1.08,1.08,0,0,0,288,76.41h0V88.33h2.17V77.5h2.17V88.33Z"/><path id="Path_322" data-name="Path 322" class="cls-1" d="M311.81,92.67V77.5a1.08,1.08,0,0,0-1.08-1.09h-4.34a1.08,1.08,0,0,0-1.08,1.09h0V92.67h2.17V78.58h2.16V92.67Z"/><path id="Path_323" data-name="Path 323" class="cls-1" d="M303.15,92.67V73.16a1.09,1.09,0,0,0-1.09-1.08h-4.34a1.08,1.08,0,0,0-1.08,1.08h0V90.5h2.17V74.25H301V92.67Z"/><path id="Path_324" data-name="Path 324" class="cls-1" d="M320.48,84V73.16a1.08,1.08,0,0,0-1.08-1.08h-4.34A1.08,1.08,0,0,0,314,73.16h0V85.08h2.16V74.25h2.17V84Z"/><path id="Path_325" data-name="Path 325" class="cls-1" d="M329.15,82.91V66.66a1.08,1.08,0,0,0-1.08-1.08h-4.34a1.08,1.08,0,0,0-1.08,1.08h0V82.91h2.17V67.74H327V82.91Z"/><path id="Path_326" data-name="Path 326" class="cls-1" d="M288.29,72.84a1.07,1.07,0,0,0,1.53,0l8.95-8.94,9,10a1.1,1.1,0,0,0,.78.36h0a1.12,1.12,0,0,0,.77-.32l14.4-14.41v2.8a1.08,1.08,0,0,0,1.08,1.09h4.34a1.08,1.08,0,0,0,1.08-1.09v-13a1.08,1.08,0,0,0-1.08-1.08h-13a1.08,1.08,0,0,0-1.09,1.08h0v4.34a1.08,1.08,0,0,0,1.08,1.08h2.8L308.6,65.09l-9-10a1.08,1.08,0,0,0-1.53-.08h0s0,0,0,0l-13,13a1.09,1.09,0,0,0,0,1.53ZM298.77,57.4l9,10a1.09,1.09,0,0,0,1.53.08l0,0,13-13a1.08,1.08,0,0,0-.77-1.85h-4.33V50.41h10.83V61.24H325.9V56.91a1.09,1.09,0,0,0-1.1-1.08,1.06,1.06,0,0,0-.75.31L308.6,71.59l-9-10a1.1,1.1,0,0,0-.78-.36h0a1.06,1.06,0,0,0-.77.32l-9,9-1.72-1.71Z"/><path id="Path_327" data-name="Path 327" class="cls-1" d="M281.47,112.17V110h3.25a1.08,1.08,0,0,0,1.08-1.08h0v-2.84a27.24,27.24,0,0,0,37.69-.81l11.84-11.84a4.15,4.15,0,0,0-5.07-6.49,4.21,4.21,0,0,0-5.83-1.25h0a4.23,4.23,0,0,0-1.09,1l-.46.62a4.64,4.64,0,0,0-6.52.86,4.48,4.48,0,0,0-.55.92l-2.73,6.07a4.88,4.88,0,0,0-1.8-.35h-13.1L296.32,93a8.75,8.75,0,0,0-10.52-1.41V90.5a1.08,1.08,0,0,0-1.08-1.08h-3.26V88.33a1.08,1.08,0,0,0-1.08-1.08h-8.67v2.17h7.59v21.67h-7.59v2.17h8.67a1.08,1.08,0,0,0,1.09-1.08Zm46.3-24.7a2,2,0,0,1,.83,1L320,97a18.46,18.46,0,0,1-3.86,3l8.92-12a2.06,2.06,0,0,1,2.71-.54Zm-10,2.53a2.48,2.48,0,0,1,3.28-1.25,2.14,2.14,0,0,1,.52.32l-6.1,8.18a4.36,4.36,0,0,0-.6-.81Zm-23,4.52L297,96.68a1.05,1.05,0,0,0,.76.32h13.55a2.71,2.71,0,1,1,0,5.42H297.72v2.17h13.55a4.89,4.89,0,0,0,3.57-1.56,20.5,20.5,0,0,0,6.7-4.47L331,89.1a2,2,0,1,1,2.9,2.7l-.07.07,0,0L322,103.74a25.09,25.09,0,0,1-35.47,0h0l-.69-.69V94.22a6.59,6.59,0,0,1,9,.3Zm-11.15-2.94v16.26h-2.17V91.58Z"/></g></g><g id="Group_43" data-name="Group 43"><path id="Path_334" data-name="Path 334" class="cls-3" d="M288.54,251.24l3.11,1.76,3.45-1.76v2.86l1.46,1.59-.89,1.82-2.1,1.25h-2.73l-2.3-.95-1.36-1.76,1.36-2Z"/><circle id="Ellipse_21" data-name="Ellipse 21" class="cls-3" cx="316.89" cy="227.87" r="11.01"/><g id="thinking"><path id="Path_329" data-name="Path 329" class="cls-1" d="M290.87,261.9h2v2h-2Z"/><path id="Path_330" data-name="Path 330" class="cls-1" d="M290.87,265.9h2v2h-2Z"/><path id="Path_331" data-name="Path 331" class="cls-1" d="M316.89,215.87a12,12,0,1,0,12,12h0A12,12,0,0,0,316.89,215.87Zm0,22a10,10,0,1,1,10-10h0a10,10,0,0,1-10,10Z"/><path id="Path_332" data-name="Path 332" class="cls-1" d="M316.89,221.87a6,6,0,1,0,6,6A6,6,0,0,0,316.89,221.87Zm0,10a4,4,0,1,1,4-4,4,4,0,0,1-4,4Z"/><path id="Path_333" data-name="Path 333" class="cls-1" d="M334.9,231.67v-7.59l-2.63-.62a16.79,16.79,0,0,0-1.38-3.34l1.42-2.3-5.37-5.37-2.3,1.43a15.91,15.91,0,0,0-3.33-1.38l-.62-2.64h-7.6l-.62,2.64a15.91,15.91,0,0,0-3.33,1.38l-2.3-1.43-5.37,5.37,1.43,2.3a16.25,16.25,0,0,0-1.39,3.34l-2.63.62v5.23a4.93,4.93,0,0,0-2-.43,4.32,4.32,0,0,0-.95.1A5,5,0,0,0,289,227.8a5.08,5.08,0,0,0-1.18,1.18,4.23,4.23,0,0,0-.94-.1,5,5,0,0,0-5,4.42,5,5,0,0,0-2.64,6.52,4.81,4.81,0,0,0,.76,1.25,4,4,0,0,0,2.85,6.82h1.74a13.4,13.4,0,0,0,3.26,3.85V253a2,2,0,0,1-1.15,1.81l-6.36,3a13.06,13.06,0,0,0-7.5,11.79v2.36h38v-2.36a13.07,13.07,0,0,0-7.51-11.79l-6.35-3a2,2,0,0,1-1.16-1.81v-1.24a13.57,13.57,0,0,0,3.27-3.85h1.74a4,4,0,0,0,2.84-6.82,5,5,0,0,0,.38-.52l2.74,2.74,2.3-1.42.53.27a3,3,0,0,0-1.54,3.92,3.16,3.16,0,0,0,.53.83,3,3,0,0,0,.19,4.2,2.84,2.84,0,0,0,1.09.63,7,7,0,0,0,13.9,0,3,3,0,0,0,1.91-3.74,2.86,2.86,0,0,0-.64-1.09,3,3,0,0,0-1-4.75l.53-.27,2.3,1.42,5.37-5.36-1.42-2.3a16.79,16.79,0,0,0,1.38-3.34ZM283.13,235l.78-.2,0-.8a.36.36,0,0,0,0-.1,3,3,0,0,1,2.93-3,3.05,3.05,0,0,1,1.12.21l.86.32.4-.82a3,3,0,0,1,5.39,0l.4.82.85-.32a3,3,0,0,1,3.85,1.68,3.17,3.17,0,0,1,.21,1.05l-.05,1,.78.2a3,3,0,0,1,2.18,3.59,3.06,3.06,0,0,1-.86,1.47,3.77,3.77,0,0,0-1.05-.16v-2h-2.4a10.91,10.91,0,0,1-6.06-1.84l-.55-.37-.55.37a10.88,10.88,0,0,1-6.06,1.84h-2.4v2a3.43,3.43,0,0,0-1.05.16,3,3,0,0,1,1.31-5.07Zm-.27,10.91a2,2,0,0,1,0-4h0a12.82,12.82,0,0,0,.8,4Zm26,23.66v.36h-4v-6h-2v6h-22v-6h-2v6h-4v-.36a11,11,0,0,1,6.35-10l5.54-2.58A6,6,0,0,0,297,257l5.54,2.58a11,11,0,0,1,6.34,10ZM295.25,256a4,4,0,0,1-5.45,1.31,3.91,3.91,0,0,1-1.31-1.31,4,4,0,0,0,1.37-2.93,14.61,14.61,0,0,0,1.66.76l.35.13.35-.13a14.61,14.61,0,0,0,1.66-.76,4,4,0,0,0,1.37,2.93Zm-3.38-4.18a11.41,11.41,0,0,1-7-10.48v-1.46h.4a12.93,12.93,0,0,1,13.21,0h.4v1.46a11.4,11.4,0,0,1-7,10.48Zm9-5.93h-.82a13.42,13.42,0,0,0,.8-4h0a2,2,0,0,1,0,4Zm22-2a1,1,0,0,1,0,2h-12a1,1,0,0,1,0-2Zm-6,12a5,5,0,0,1-4.9-4h9.8a5,5,0,0,1-4.91,4Zm6-6h-12a1,1,0,0,1,0-2h12a1,1,0,0,1,0,2Zm7.73-19.27-.15.6a13.59,13.59,0,0,1-1.62,3.9l-.32.52,1.23,2-3.12,3.12-2-1.23-.52.32a14.27,14.27,0,0,1-1.65.85l-.6.26v.93h-10V241l-.6-.26a15,15,0,0,1-1.64-.85l-.53-.31-2,1.23-2.29-2.29a5,5,0,0,0-3-5.18,5,5,0,0,0-1-2.4v-5.22l2.27-.54.14-.6a13.78,13.78,0,0,1,1.63-3.9l.31-.52-1.23-2,3.13-3.12,2,1.23.52-.32a13.88,13.88,0,0,1,3.9-1.62l.6-.15.53-2.27h4.42l.54,2.27.6.15a13.88,13.88,0,0,1,3.9,1.62l.52.32,2-1.24,3.13,3.13-1.23,2,.32.52a14.18,14.18,0,0,1,1.62,3.9l.14.6,2.28.54v4.42Z"/></g></g><g id="Group_44" data-name="Group 44"><path id="Path_360" data-name="Path 360" class="cls-3" d="M313.26,404.6l14.11-3.82,5.14,17.79-14.88,3.95Z"/><rect id="Rectangle_14" data-name="Rectangle 14" class="cls-3" x="275.14" y="403.74" width="31.02" height="19.01"/><g id="archives"><path id="Path_350" data-name="Path 350" class="cls-1" d="M333.55,418.28l-11.9-44.41a1.16,1.16,0,0,0-1.41-.82h0l-13.15,3.52v-.06a1.14,1.14,0,0,0-1.15-1.15H275.72a1.14,1.14,0,0,0-1.15,1.15h0v46a1.15,1.15,0,0,0,1.15,1.15h30.22a1.15,1.15,0,0,0,1.14-1.15V386.83l9.64,35.95a1.16,1.16,0,0,0,1.41.82h0l14.6-3.91a1.16,1.16,0,0,0,.82-1.41Zm-28.76-15.39H292V377.66h12.81Zm-15.11-25.23v25.23H276.87V377.66Zm-12.81,27.53h12.81v16.14H276.87ZM292,421.33V405.19h12.81v16.14Zm27.74-45.75,6.53,24.36-12.37,3.32-6.53-24.37Zm-1.07,45.5-4.17-15.59,12.37-3.32L331,417.76Z"/><circle id="Ellipse_22" data-name="Ellipse 22" class="cls-1" cx="283.27" cy="385.15" r="2.88"/><path id="Path_351" data-name="Path 351" class="cls-1" d="M280.33,409.8h5.89a1.14,1.14,0,0,0,1.17-1.13,1.16,1.16,0,0,0-1-1.17h-6a1.15,1.15,0,0,0-1.17,1.14,1.14,1.14,0,0,0,1,1.16Z"/><path id="Path_352" data-name="Path 352" class="cls-1" d="M286.22,412.11h-5.89a1.15,1.15,0,0,0-.14,2.3h6a1.15,1.15,0,0,0,0-2.3Z"/><path id="Path_353" data-name="Path 353" class="cls-1" d="M286.22,416.72h-5.89a1.16,1.16,0,0,0-1.07,1.24,1.15,1.15,0,0,0,1.07,1.06h5.89a1.15,1.15,0,0,0,0-2.3Z"/><circle id="Ellipse_23" data-name="Ellipse 23" class="cls-1" cx="315.47" cy="384.48" r="2.88"/><path id="Path_354" data-name="Path 354" class="cls-1" d="M324.7,407.52a1.15,1.15,0,1,0-.6-2.23h0l-5.69,1.53A1.15,1.15,0,0,0,319,409Z"/><path id="Path_355" data-name="Path 355" class="cls-1" d="M325.89,412a1.15,1.15,0,1,0-.6-2.22l-5.69,1.52a1.16,1.16,0,0,0,.6,2.23Z"/><path id="Path_356" data-name="Path 356" class="cls-1" d="M326.49,414.2l-5.69,1.52a1.15,1.15,0,0,0,.6,2.23h0l5.69-1.52a1.15,1.15,0,0,0-.6-2.23Z"/><circle id="Ellipse_24" data-name="Ellipse 24" class="cls-1" cx="298.38" cy="385.15" r="2.88"/><path id="Path_357" data-name="Path 357" class="cls-1" d="M301.33,407.5h-5.88a1.15,1.15,0,1,0-.24,2.29h6.12a1.15,1.15,0,0,0,0-2.3Z"/><path id="Path_358" data-name="Path 358" class="cls-1" d="M301.33,412.11h-5.88a1.15,1.15,0,1,0-.24,2.29h6.12a1.15,1.15,0,0,0,0-2.3Z"/><path id="Path_359" data-name="Path 359" class="cls-1" d="M301.33,416.72h-5.88a1.16,1.16,0,1,0-.24,2.3h6.12a1.15,1.15,0,0,0,1.07-1.23A1.16,1.16,0,0,0,301.33,416.72Z"/></g></g><g id="组_2085" data-name="组 2085"><circle id="Ellipse_19" data-name="Ellipse 19" class="cls-3" cx="95.07" cy="397.07" r="4.96"/><circle id="Ellipse_19-2" data-name="Ellipse 19-2" class="cls-3" cx="135.27" cy="381.66" r="4.96"/><circle id="Ellipse_19-3" data-name="Ellipse 19-3" class="cls-3" cx="129.48" cy="420.1" r="4.96"/><g id="user-experience"><path id="Path_313" data-name="Path 313" class="cls-1" d="M146,398.54a44.08,44.08,0,0,0,3.07-7.85c2.25-8.12,1.16-14.93-3.08-19.16s-11-5.32-19.16-3.07a42.61,42.61,0,0,0-7.85,3.07,41.59,41.59,0,0,0-9.66-3.53c-7.3-1.6-13.46-.34-17.34,3.53a15.2,15.2,0,0,0-4.16,10.1A30.89,30.89,0,0,0,90,394a5.79,5.79,0,0,0-1,8.13,6.49,6.49,0,0,0,1,1,30.81,30.81,0,0,0-2.17,12.34A15.2,15.2,0,0,0,92,425.53c2.78,2.78,6.67,4.21,11.38,4.21a26,26,0,0,0,2.93-.17,38.33,38.33,0,0,0,12.7-4,43.49,43.49,0,0,0,7.84,3.06,29.42,29.42,0,0,0,7.79,1.15c4.68,0,8.59-1.42,11.38-4.22,3.87-3.87,5.12-10,3.52-17.33A41.57,41.57,0,0,0,146,398.54Zm-18.68-28.31c7.46-2.07,13.64-1.15,17.38,2.6s4.67,9.91,2.6,17.38a39.75,39.75,0,0,1-2.37,6.32,59.73,59.73,0,0,0-6.47-9.33,5.78,5.78,0,0,0,0-7.13l-1.44,1.13a4,4,0,0,1-.71,5.57,4.1,4.1,0,0,1-2.43.83,4,4,0,1,1,2-7.39l.94-1.57a5.8,5.8,0,0,0-6.54.42,59.94,59.94,0,0,0-9.33-6.47,40.55,40.55,0,0,1,6.34-2.36Zm-34,2.6c5-5,14-4.77,23.7-.25A62.51,62.51,0,0,0,103.43,383a64.08,64.08,0,0,0-8.2,10,5.64,5.64,0,0,0-1.63-.24,5.76,5.76,0,0,0-2,.35c-3.18-8.65-2.58-16,1.67-20.25Zm10.13,55.08c-4.14,0-7.67-1.2-10.13-3.67-4.25-4.25-4.85-11.6-1.67-20.25a5.76,5.76,0,0,0,3.6.11,64.08,64.08,0,0,0,8.2,10A62.54,62.54,0,0,0,117,424.48a32.66,32.66,0,0,1-13.57,3.43ZM119,423.49a60,60,0,0,1-14.28-10.68,62.48,62.48,0,0,1-7.83-9.5,5.81,5.81,0,0,0,2.51-4.77c0-.18,0-.35,0-.52l-1.83.16c0,.12,0,.24,0,.36a4,4,0,1,1-.42-1.78l1.64-.82a5.85,5.85,0,0,0-1.89-2.18,62.49,62.49,0,0,1,7.82-9.51A59.91,59.91,0,0,1,119,373.58a57.27,57.27,0,0,1,10.08,6.83,5.8,5.8,0,0,0,8,8A57.48,57.48,0,0,1,144,398.54a59.79,59.79,0,0,1-10.67,14.27c-.49.49-1,1-1.5,1.45a5.8,5.8,0,0,0-7.3-.15l1.13,1.44a4,4,0,1,1-1,1.11l-1.57-.93a5.78,5.78,0,0,0-.22,5.53q-1.92,1.22-3.84,2.23Zm25.71.75c-3.74,3.75-9.92,4.67-17.38,2.6a40.82,40.82,0,0,1-6.33-2.36c1-.54,1.93-1.12,2.9-1.73a5.8,5.8,0,0,0,9.08-7.1c.54-.5,1.08-1,1.59-1.54A62.51,62.51,0,0,0,145,400.54c4.53,9.66,4.71,18.75-.24,23.7Z"/><path id="Path_318" data-name="Path 318" class="cls-1" d="M133,382.72h1.83v1.83H133Z"/><path id="Path_319" data-name="Path 319" class="cls-1" d="M127.14,417.78H129v1.83h-1.83Z"/><path id="Path_320" data-name="Path 320" class="cls-1" d="M92.68,397.62h1.84v1.83H92.68Z"/></g><circle id="Ellipse_20" data-name="Ellipse 20" class="cls-3" cx="119.01" cy="397.07" r="5.5"/><g id="组_2043" data-name="组 2043"><path id="Path_314" data-name="Path 314" class="cls-1" d="M134,408h-1.89v-4.61A4.61,4.61,0,0,0,128.8,399l-.68-.2-.5,1.77.68.19a2.76,2.76,0,0,1,2,2.64V408H127v-2.5h-1.83V408h-8.24v1.83H134Z"/><path id="Path_315" data-name="Path 315" class="cls-1" d="M122,399l3.82,1.08.5-1.76-3.74-1.06V394.8a6.44,6.44,0,0,0,2.81-5.3v-2.69a6.42,6.42,0,0,0-12.83-.16v2.85a6.41,6.41,0,0,0,2.81,5.3v2.43L109.22,399a4.61,4.61,0,0,0-3.34,4.41V408H104v1.84H115.1V408h-2.26v-2.5H111V408h-3.3v-4.62a2.78,2.78,0,0,1,2-2.65L116,399a4.11,4.11,0,0,0,5.8.25h0L122,399Zm-3-16.74a4.58,4.58,0,0,1,4.58,4.58v1l-1.93-2.55h-7a4.58,4.58,0,0,1,4.32-3Zm-4.58,7.27v-2.39h6.32l2.69,3.56a4.58,4.58,0,0,1-9-1.17Zm2.81,8.13v-2a6.45,6.45,0,0,0,3.54,0v2a2.27,2.27,0,0,1-3.2.34,2.19,2.19,0,0,1-.34-.34Z"/><path id="Path_316" data-name="Path 316" class="cls-1" d="M123.85,403.29l-2.58-.73.5-1.76,2.58.73Z"/><path id="Path_317" data-name="Path 317" class="cls-1" d="M127.87,402.52l-.5,1.76-1.76-.5.5-1.76Z"/></g></g><g id="リスクマネジメント" class="cls-4"><g class="cls-4"><path class="cls-1" d="M240.89,149.33V157h-1.27v-7.69Zm7.69-.34v5.27a8,8,0,0,1-1.37,4.86,8,8,0,0,1-4.63,2.75l-.57-1.1a7.26,7.26,0,0,0,4.22-2.48,6.84,6.84,0,0,0,1.11-4.11V149Z"/><path class="cls-1" d="M260.49,156.93a21.23,21.23,0,0,1-6.44,4.8l-.77-1a18.62,18.62,0,0,0,9.46-9.78h-7.82v-1.17h8.7l.79.53a25.21,25.21,0,0,1-3.11,5.65c.95.64,1.88,1.33,2.79,2.06a26,26,0,0,1,3.1,2.85l-1,.82a26.41,26.41,0,0,0-3-2.74,33.57,33.57,0,0,0-2.72-2Z"/><path class="cls-1" d="M275.94,148.6c-.22.61-.48,1.22-.75,1.8h5.44l.77.41a14.89,14.89,0,0,1-2.88,6.74,13.89,13.89,0,0,1-5.91,4.26l-.65-1.07a13.19,13.19,0,0,0,5.14-3.44,12.37,12.37,0,0,0,2.88-5.73h-5.41c-.23.36-.45.72-.69,1.07a16,16,0,0,1-3.12,3.25l-.87-.83a16.65,16.65,0,0,0,3-3.16,14.58,14.58,0,0,0,1.88-3.68Z"/><path class="cls-1" d="M297.88,149.63l.71.74a33.32,33.32,0,0,1-2.66,3.92,40.48,40.48,0,0,1-3,3.36,47.67,47.67,0,0,1,3.46,3.5l-1,.82a42.65,42.65,0,0,0-3.81-3.81,34.46,34.46,0,0,0-4.07-3.18l.77-.95a33.53,33.53,0,0,1,3.7,2.79c.86-.87,1.71-1.78,2.51-2.76a31.39,31.39,0,0,0,2.34-3.28H285.6v-1.15Z"/><path class="cls-1" d="M308.76,148.09v2.1h3.79l.8.62a18.72,18.72,0,0,1-4.59,5.08v5.86h-1.25v-5a31,31,0,0,1-5.07,2.69l-.56-1.05a27.47,27.47,0,0,0,5.44-3,18.29,18.29,0,0,0,4.22-4.08h-8.82v-1.15h4.79v-2.1Zm4,8.92c.86.53,1.69,1.05,2.49,1.58l-.76,1q-1.18-.81-2.49-1.59c-1-.63-1.87-1.1-2.52-1.42l.7-1C310.87,155.9,311.74,156.38,312.78,157Z"/><path class="cls-1" d="M323,154.43l-.64,1.06a19.23,19.23,0,0,0-4.58-1.84l.51-1.12A18.62,18.62,0,0,1,323,154.43Zm7.43-2a16,16,0,0,1-4.18,5.74,16.22,16.22,0,0,1-6.9,3.62l-.58-1.15a15.8,15.8,0,0,0,6.52-3.35,14.41,14.41,0,0,0,4-5.31Zm-6-1.57-.67,1a16.66,16.66,0,0,0-4.56-1.87l.51-1.12A16.63,16.63,0,0,1,324.42,150.88Zm5-.1-.68.48a11.07,11.07,0,0,0-1.69-2.14l.65-.5A10.68,10.68,0,0,1,329.42,150.78Zm1.6-1.12-.71.5a11.49,11.49,0,0,0-1.66-2.15l.64-.49A11.52,11.52,0,0,1,331,149.66Z"/><path class="cls-1" d="M341,154.14a30.38,30.38,0,0,0,2.11-5.47l1.25.3a29.08,29.08,0,0,1-2.29,5.89,36,36,0,0,1,4.66,3.89l-.87.9a41.35,41.35,0,0,0-4.43-3.7c-.13.18-.24.35-.35.53a15.51,15.51,0,0,1-6.14,5.23l-.8-1a14.62,14.62,0,0,0,5.88-4.94c.11-.18.22-.36.35-.55a33.61,33.61,0,0,0-4.79-2.56l.56-1.1A36.07,36.07,0,0,1,341,154.14Z"/><path class="cls-1" d="M355.29,152.21l-.8,1a37.29,37.29,0,0,0-4.55-3l.61-1.08A36.46,36.46,0,0,1,355.29,152.21Zm7.22,0a17.3,17.3,0,0,1-4.28,6.07,16.56,16.56,0,0,1-6.93,3.58l-.58-1.12a15.48,15.48,0,0,0,6.49-3.31,16.11,16.11,0,0,0,4.14-5.68Z"/><path class="cls-1" d="M370.47,148.4v5.07a28.17,28.17,0,0,1,3.83,1,26.87,26.87,0,0,1,3.5,1.4l-.54,1a26.67,26.67,0,0,0-3.24-1.29,24.66,24.66,0,0,0-3.55-.93v7.18H369.2V148.4Z"/></g></g><g id="リアルタイムに意思決定" class="cls-4"><g class="cls-4"><path class="cls-1" d="M248.39,295.33V303h-1.27v-7.69Zm7.69-.34v5.27a8,8,0,0,1-1.37,4.86,8,8,0,0,1-4.63,2.75l-.57-1.1a7.26,7.26,0,0,0,4.22-2.48,6.84,6.84,0,0,0,1.11-4.11V295Z"/><path class="cls-1" d="M273.38,295.42l.66.59a20.26,20.26,0,0,1-1.88,3,15,15,0,0,1-2.64,2.64l-.88-.88a13.19,13.19,0,0,0,3.67-4.21H261.66v-1.17Zm-5.38,2.8v2.2a9.15,9.15,0,0,1-1,4.4,7.36,7.36,0,0,1-3.33,3l-.79-1a6.81,6.81,0,0,0,2.95-2.47,7.62,7.62,0,0,0,.89-3.93v-2.2Z"/><path class="cls-1" d="M281.09,295.37v4.9a11,11,0,0,1-.72,4.4,8.05,8.05,0,0,1-2.67,3l-.8-.92a7.58,7.58,0,0,0,2.33-2.69,9.94,9.94,0,0,0,.59-3.83v-4.9Zm4.55-.35v10.66A16.93,16.93,0,0,0,290.2,301l1,.72a20.22,20.22,0,0,1-2.71,3.17,15.05,15.05,0,0,1-3.33,2.41l-.78-.43V295Z"/><path class="cls-1" d="M299.44,294.56c-.19.54-.4,1.09-.65,1.63h5.44l.77.43a14.63,14.63,0,0,1-2.87,6.69,14,14,0,0,1-6,4.5l-.67-1.07a13.8,13.8,0,0,0,5.42-3.8l.15-.17c-.45-.32-.95-.66-1.46-1a23.68,23.68,0,0,0-2.39-1.38l.74-.9c.74.39,1.54.84,2.37,1.35.53.32,1,.64,1.46,1a12.94,12.94,0,0,0,1.88-4.45h-5.44a13.29,13.29,0,0,1-.85,1.31,16.11,16.11,0,0,1-3.05,3.22l-.85-.83a17.92,17.92,0,0,0,3-3.17,14.53,14.53,0,0,0,1.88-3.7Z"/><path class="cls-1" d="M320.85,295.13A30.48,30.48,0,0,1,316.5,299v8.69h-1.25v-7.81a33.09,33.09,0,0,1-5.59,3.07l-.65-1.05a34,34,0,0,0,5.94-3.38,33.14,33.14,0,0,0,5-4.19Z"/><path class="cls-1" d="M338.37,307.47l-1.12.61c-.35-.67-.69-1.29-1-1.85q-4.47.64-11.44.92l0-1.15,1.54-.06q1.73-4.8,4.31-11.57l1.2.4c-1.35,3.44-2.74,7.13-4.15,11.1,3.14-.19,5.79-.43,8-.73l-.48-.82a36.47,36.47,0,0,0-2.37-3.54l1-.72A45,45,0,0,1,338.37,307.47Z"/><path class="cls-1" d="M344.05,294.85a26.48,26.48,0,0,0-.9,6.88,14.8,14.8,0,0,0,.93,5.5l-1.14.44a16.18,16.18,0,0,1-1-5.94,28.61,28.61,0,0,1,.92-7.17Zm3.54,7.1a4.56,4.56,0,0,0-.87,2.26c0,.56.35,1,1.06,1.25a9.2,9.2,0,0,0,3,.37,32.79,32.79,0,0,0,3.31-.21l.07,1.2c-1.46.11-2.58.17-3.38.17a9.35,9.35,0,0,1-4-.62,2.19,2.19,0,0,1-1.35-2.11,6,6,0,0,1,1-2.88Zm5.93-4.46q-4.09,0-7.65.25l-.19-1.15q3.92-.29,7.89-.29Z"/></g><g class="cls-4"><path class="cls-1" d="M271,332.71a10.92,10.92,0,0,1-1.57,3.31l-1-.63a8.81,8.81,0,0,0,1.44-2.91Zm-1.55-8.94v-1h5.49a8.93,8.93,0,0,0-.47-.93l1.24-.19c.16.34.33.71.49,1.12h5.64v1h-2.61l-.63,1.27h4v1H268.66v-1h3.84l-.52-1.27ZM280.72,327v4.74H270.48V327Zm-1.12,1.94v-1h-8v1Zm0,.85h-8v1.05h8Zm-5.71,6.45c-1.09,0-1.62-.5-1.62-1.49v-2.11h1.19v1.87c0,.45.25.69.77.69h3.36a1,1,0,0,0,.72-.2,2.44,2.44,0,0,0,.38-1.45l1.09.35a3.16,3.16,0,0,1-.66,2,2.37,2.37,0,0,1-1.32.31ZM277.36,325l.63-1.27h-4.81l.52,1.27Zm0,8.8-1,.67a12.54,12.54,0,0,0-1.57-1.87l1-.61A12.9,12.9,0,0,1,277.33,333.84Zm5.56,1.3-1,.67a24.1,24.1,0,0,0-2.05-2.9l.92-.57A23,23,0,0,1,282.89,335.14Z"/><path class="cls-1" d="M287.22,331.38a15.83,15.83,0,0,1-2,4.64l-1-.63a13.67,13.67,0,0,0,1.85-4.24Zm9.36-9v7.4h-10v-7.4ZM291,325.6v-2.1H287.7v2.1Zm0,1H287.7v2.08H291Zm-1.18,9.65a1.48,1.48,0,0,1-1.64-1.69v-3.46h1.14v3.2a.77.77,0,0,0,.86.87h3.54a.88.88,0,0,0,.74-.29,4.67,4.67,0,0,0,.37-1.94l1.1.37a4.31,4.31,0,0,1-.66,2.56,1.93,1.93,0,0,1-1.34.38Zm3.64-3.1-1.05.46a19.57,19.57,0,0,0-1.62-2.93l1-.33A16.52,16.52,0,0,1,293.47,333.17Zm-1.37-7.57h3.34v-2.1H292.1Zm3.34,1H292.1v2.08h3.34Zm3.41,8.34-1,.48a26.52,26.52,0,0,0-2.38-4.32l1.09-.35A25.83,25.83,0,0,1,298.85,335Z"/><path class="cls-1" d="M304.14,330.66a46,46,0,0,1-2.68,5.65l-1.09-.47a42.57,42.57,0,0,0,2.77-5.58Zm-.3-2.55-.78.79a15.61,15.61,0,0,0-2.68-2.29l.8-.77A19.81,19.81,0,0,1,303.84,328.11Zm.48-3.84-.78.78a17.55,17.55,0,0,0-2.79-2.25l.8-.75A19,19,0,0,1,304.32,324.27Zm4.23-.06v-2.39h1.13v2.39h3.65v4.7h1.43V330H310a12.14,12.14,0,0,0,5,5.54l-.77.88a13.77,13.77,0,0,1-5.06-6,9.46,9.46,0,0,1-4.9,6.1l-.72-.95a8.25,8.25,0,0,0,4.58-5.57h-3.46v-1.09h3.68a13.25,13.25,0,0,0,.2-2.34v-1.26h-3.22v-1.1Zm1.13,2.11a16.16,16.16,0,0,1-.19,2.59h2.72v-3.6h-2.53Z"/><path class="cls-1" d="M328.32,326.56v1.09h-4.06v2.81H329v1.09h-4.77v3.32a32,32,0,0,0,4.06.27c.82,0,1.65,0,2.52-.1l-.21,1.15h-1.79a19.48,19.48,0,0,1-6.95-.89,6.1,6.1,0,0,1-2.58-2.31,11.8,11.8,0,0,1-2.3,3.46l-.74-.91a13.07,13.07,0,0,0,3.11-6.58l1.12.19a19.42,19.42,0,0,1-.74,2.74,5.18,5.18,0,0,0,2.88,2.61l.47.13v-7h-4.2v-1.09Zm1.83.29H329v-2.36H318.18v2.44h-1.12v-3.49h6.11a11.79,11.79,0,0,0-.8-1.59l1.23-.19a16,16,0,0,1,.74,1.78h5.81Z"/></g></g><g id="ユーザーエクスペリエンス" class="cls-4"><g class="cls-4"><path class="cls-1" d="M72.44,462.43l-.72,9.24h3v1.15H61.44v-1.15h9l.63-8.07H63v-1.17Z"/><path class="cls-1" d="M90.06,466.51v1.17H78.16v-1.17Z"/><path class="cls-1" d="M96.26,463.55v-3.22h1.25v3.22h5v-3.41h1.22v3.41h3.31v1.17h-3.31v2a7.64,7.64,0,0,1-1.14,4.37,7.84,7.84,0,0,1-3.87,2.75l-.67-1a7.09,7.09,0,0,0,3.46-2.32,6.41,6.41,0,0,0,1-3.78v-1.95h-5v3.84H96.26v-3.84H93.14v-1.17Zm10.28-1-.68.48a11,11,0,0,0-1.68-2.14l.64-.5A9.73,9.73,0,0,1,106.54,462.51Zm1.42-1.09-.69.5a11.49,11.49,0,0,0-1.66-2.15l.62-.49A9.86,9.86,0,0,1,108,461.42Z"/><path class="cls-1" d="M122.06,466.51v1.17h-11.9v-1.17Z"/><path class="cls-1" d="M137.42,462.48v1.17h-4.69v8h5.78v1.17H125.7V471.6h5.78v-8h-4.69v-1.17Z"/><path class="cls-1" d="M147.94,460.6c-.22.61-.48,1.22-.75,1.8h5.44l.77.41a14.89,14.89,0,0,1-2.88,6.74,13.89,13.89,0,0,1-5.91,4.26l-.65-1.07a13.19,13.19,0,0,0,5.14-3.44,12.37,12.37,0,0,0,2.88-5.73h-5.41c-.23.36-.45.72-.69,1.07a16,16,0,0,1-3.12,3.25l-.87-.83a16.65,16.65,0,0,0,3-3.16,14.58,14.58,0,0,0,1.88-3.68Z"/><path class="cls-1" d="M164.49,468.93a21.23,21.23,0,0,1-6.44,4.8l-.77-1a18.62,18.62,0,0,0,9.46-9.78h-7.82v-1.17h8.7l.79.53a25.21,25.21,0,0,1-3.11,5.65c.95.64,1.88,1.33,2.79,2.06a26,26,0,0,1,3.1,2.85l-1,.82a26.41,26.41,0,0,0-3-2.74,33.57,33.57,0,0,0-2.72-2Z"/><path class="cls-1" d="M179,463a4.21,4.21,0,0,1,1,.82q4.13,4.49,7.54,7.54l-.86,1a85,85,0,0,1-7.43-7.49,4.28,4.28,0,0,0-.56-.57.55.55,0,0,0-.34-.16c-.16,0-.32.12-.51.38-1.38,1.68-2.8,3.28-4.24,4.8l-1-.93c1.29-1.28,2.72-2.86,4.27-4.72a1.87,1.87,0,0,1,1.43-.83A1.4,1.4,0,0,1,179,463Zm6-1.44a1.65,1.65,0,0,1,0,2.37,1.7,1.7,0,0,1-2.37,0,1.68,1.68,0,0,1,0-2.37,1.68,1.68,0,0,1,2.37,0Zm-1.87.48a1,1,0,0,0-.29.71.92.92,0,0,0,.29.68.91.91,0,0,0,.69.29,1,1,0,0,0,1-1,1,1,0,0,0-.29-.71.94.94,0,0,0-.69-.27A.93.93,0,0,0,183.11,462.06Z"/></g><g class="cls-4"><path class="cls-1" d="M96.89,489.33V497H95.62v-7.69Zm7.69-.34v5.27a8,8,0,0,1-1.37,4.86,8,8,0,0,1-4.63,2.75l-.57-1.1a7.26,7.26,0,0,0,4.22-2.48,6.84,6.84,0,0,0,1.11-4.11V489Z"/><path class="cls-1" d="M121.42,490.48v1.17h-4.69v8h5.78v1.17H109.7V499.6h5.78v-8h-4.69v-1.17Z"/><path class="cls-1" d="M131.29,492.21l-.8,1a37.29,37.29,0,0,0-4.55-3l.61-1.08A36.46,36.46,0,0,1,131.29,492.21Zm7.22,0a17.3,17.3,0,0,1-4.28,6.07,16.56,16.56,0,0,1-6.93,3.58l-.58-1.12a15.48,15.48,0,0,0,6.49-3.31,16.11,16.11,0,0,0,4.14-5.68Z"/><path class="cls-1" d="M148.49,496.93a21.23,21.23,0,0,1-6.44,4.8l-.77-1a18.62,18.62,0,0,0,9.46-9.78h-7.82v-1.17h8.7l.79.53a25.21,25.21,0,0,1-3.11,5.65c.95.64,1.88,1.33,2.79,2.06a26,26,0,0,1,3.1,2.85l-1,.82a26.41,26.41,0,0,0-3-2.74,33.57,33.57,0,0,0-2.72-2Z"/></g></g><g id="データアーク" class="cls-4"><g class="cls-4"><path class="cls-1" d="M275.09,465.3v1.15h-5.78a9.78,9.78,0,0,1-1,4.18,8.83,8.83,0,0,1-3.6,3.29l-.83-.93a6.8,6.8,0,0,0,4.16-6.54h-6.11V465.3Zm-2.31-3.93v1.16h-9.46v-1.16Zm1.94.84-.69.48a11.09,11.09,0,0,0-1.68-2.15l.64-.49A9.9,9.9,0,0,1,274.72,462.21Zm1.72-.76-.68.5a10.75,10.75,0,0,0-1.68-2.14l.64-.52A10.59,10.59,0,0,1,276.44,461.45Z"/><path class="cls-1" d="M290.56,466.51v1.17h-11.9v-1.17Z"/><path class="cls-1" d="M300.44,460.56c-.19.54-.4,1.09-.65,1.63h5.44l.77.43a14.63,14.63,0,0,1-2.87,6.69,14,14,0,0,1-6,4.5l-.67-1.07a13.8,13.8,0,0,0,5.42-3.8l.15-.17c-.45-.32-.95-.66-1.46-1a23.68,23.68,0,0,0-2.39-1.38l.74-.9c.74.39,1.54.84,2.37,1.35.53.32,1,.64,1.46,1a12.94,12.94,0,0,0,1.88-4.45h-5.44a13.29,13.29,0,0,1-.85,1.31,16.11,16.11,0,0,1-3.05,3.22l-.85-.83a17.92,17.92,0,0,0,3-3.17,14.53,14.53,0,0,0,1.88-3.7Z"/><path class="cls-1" d="M322.38,461.42l.66.59a20.26,20.26,0,0,1-1.88,3,15,15,0,0,1-2.64,2.64l-.88-.88a13.19,13.19,0,0,0,3.67-4.21H310.66v-1.17Zm-5.38,2.8v2.2a9.15,9.15,0,0,1-1,4.4,7.36,7.36,0,0,1-3.33,3l-.79-1a6.81,6.81,0,0,0,2.95-2.47,7.62,7.62,0,0,0,.89-3.93v-2.2Z"/><path class="cls-1" d="M338.56,466.51v1.17h-11.9v-1.17Z"/><path class="cls-1" d="M348.44,460.6c-.22.61-.48,1.22-.75,1.8h5.44l.77.41a14.89,14.89,0,0,1-2.88,6.74,13.89,13.89,0,0,1-5.91,4.26l-.65-1.07a13.19,13.19,0,0,0,5.14-3.44,12.37,12.37,0,0,0,2.88-5.73h-5.41c-.23.36-.45.72-.69,1.07a16,16,0,0,1-3.12,3.25l-.87-.83a16.65,16.65,0,0,0,3-3.16,14.58,14.58,0,0,0,1.88-3.68Z"/></g></g><g id="ダッシュボード" class="cls-4"><g class="cls-4"><path class="cls-1" d="M75.94,141.56c-.19.54-.4,1.09-.65,1.63h5.44l.77.43a14.63,14.63,0,0,1-2.87,6.69,14,14,0,0,1-6,4.5l-.67-1.07a13.8,13.8,0,0,0,5.42-3.8l.15-.17c-.45-.32-1-.66-1.46-1a23.68,23.68,0,0,0-2.39-1.38l.74-.9c.74.39,1.54.84,2.37,1.35.53.32,1,.64,1.46,1a12.94,12.94,0,0,0,1.88-4.45H74.66a13.29,13.29,0,0,1-.85,1.31,16.11,16.11,0,0,1-3,3.22l-.85-.83a17.92,17.92,0,0,0,3-3.17,14.53,14.53,0,0,0,1.88-3.7Zm5.84.93-.67.48a11.09,11.09,0,0,0-1.68-2.15l.64-.51A9.5,9.5,0,0,1,81.78,142.49Zm2.15-.05-.69.49a10.45,10.45,0,0,0-1.68-2.14l.64-.5A10.88,10.88,0,0,1,83.93,142.44Z"/><path class="cls-1" d="M90.17,149.32l-1,.61a29.36,29.36,0,0,0-2-3.36l1-.61A33.57,33.57,0,0,1,90.17,149.32ZM97,145.65a13.39,13.39,0,0,1-2.18,5.56,10.52,10.52,0,0,1-4.73,3.46l-.68-1a9.93,9.93,0,0,0,4.37-3.13,11.92,11.92,0,0,0,2-5.09Zm-5,1.09c.36.55.66,1.11,1,1.65L92,149c-.53-1-1.2-2.14-2-3.39l1-.57C91.38,145.67,91.75,146.25,92.05,146.74Z"/><path class="cls-1" d="M107,147.43l-.64,1.06a19.23,19.23,0,0,0-4.58-1.84l.51-1.12A18.62,18.62,0,0,1,107,147.43Zm7.43-2a16,16,0,0,1-4.18,5.74,16.22,16.22,0,0,1-6.9,3.62l-.58-1.15a15.8,15.8,0,0,0,6.52-3.35,14.41,14.41,0,0,0,4-5.31Zm-6-1.57-.67,1a16.14,16.14,0,0,0-4.56-1.87l.51-1.12A16.63,16.63,0,0,1,108.42,143.88Z"/><path class="cls-1" d="M127.48,146.06l-.51,6.73h2.29v1.12H119v-1.12h6.82l.43-5.61h-6v-1.12Z"/><path class="cls-1" d="M137.41,147.72a19.44,19.44,0,0,1-3.21,5.89l-1.08-.64a18.62,18.62,0,0,0,3.14-5.65Zm2.08-3.41v-2.85h1.25v2.85h6v1.15h-6v7.48a1.55,1.55,0,0,1-1.84,1.77,12.5,12.5,0,0,1-1.82-.19v-1.18a15.88,15.88,0,0,0,1.77.17c.42,0,.64-.22.64-.67v-7.38h-6v-1.15Zm5.94,5.75a24.38,24.38,0,0,1,1.57,3.1l-1.14.48a26.52,26.52,0,0,0-1.55-3,20.29,20.29,0,0,0-1.87-2.71l1-.67A20.4,20.4,0,0,1,145.43,150.06Zm.5-6.74-.67.48a11.09,11.09,0,0,0-1.68-2.15l.64-.51A10.08,10.08,0,0,1,145.93,143.32Zm1.86-.71-.71.52a10.66,10.66,0,0,0-1.66-2.16l.64-.5A11.52,11.52,0,0,1,147.79,142.61Z"/><path class="cls-1" d="M162.06,147.51v1.17h-11.9v-1.17Z"/><path class="cls-1" d="M170.47,141.4v5.07a28.17,28.17,0,0,1,3.83,1,26.87,26.87,0,0,1,3.5,1.4l-.54,1a26.67,26.67,0,0,0-3.24-1.29,24.66,24.66,0,0,0-3.55-.93v7.18H169.2V141.4Zm6.31,3.42-.69.48a10.45,10.45,0,0,0-1.68-2.14l.64-.51A9.72,9.72,0,0,1,176.78,144.82Zm1.6-1.12-.69.5a10,10,0,0,0-1.67-2.15l.63-.49A10.35,10.35,0,0,1,178.38,143.7Z"/></g></g><g id="SQLアドホッククエリ" class="cls-4"><g class="cls-4"><path class="cls-1" d="M81.57,307.17a11.49,11.49,0,0,1-3-.51V305a8.11,8.11,0,0,0,3.21.9,2.29,2.29,0,0,0,1.56-.5A1.7,1.7,0,0,0,84,304.1a1.79,1.79,0,0,0-.39-1.16,5.15,5.15,0,0,0-1.42-1.06l-.8-.46a7.41,7.41,0,0,1-2.08-1.59,2.71,2.71,0,0,1-.61-1.74,2.84,2.84,0,0,1,1-2.2,3.61,3.61,0,0,1,2.47-.86,9.73,9.73,0,0,1,2.82.45V297a8.43,8.43,0,0,0-2.73-.72,2.16,2.16,0,0,0-1.4.45,1.41,1.41,0,0,0-.56,1.14,1.45,1.45,0,0,0,.41,1,6.43,6.43,0,0,0,1.48,1.07l.83.47A7.09,7.09,0,0,1,85,302a2.88,2.88,0,0,1,.59,1.82,3,3,0,0,1-1.11,2.42A4.52,4.52,0,0,1,81.57,307.17Z"/><path class="cls-1" d="M98.18,309.19a18.33,18.33,0,0,1-4.57-2.1c-.48.05-.86.08-1.13.08a4.74,4.74,0,0,1-3.78-1.69,7.34,7.34,0,0,1,0-8.8,5.51,5.51,0,0,1,7.87,0,6.42,6.42,0,0,1,1.47,4.43q0,4-3,5.52a18.22,18.22,0,0,0,4.13,1.25Zm-5.58-3.25a3.23,3.23,0,0,0,2.74-1.27,5.82,5.82,0,0,0,1-3.6,5.73,5.73,0,0,0-1-3.54,3.49,3.49,0,0,0-5.39,0,7,7,0,0,0,0,7.12A3.13,3.13,0,0,0,92.6,305.94Z"/><path class="cls-1" d="M100.35,306.88V295.32H102v10.34h5.2v1.22Z"/></g><g class="cls-4"><path class="cls-1" d="M121.17,295.4l.66.59a21.34,21.34,0,0,1-1.88,3,16.08,16.08,0,0,1-2.64,2.64l-.88-.88a13.3,13.3,0,0,0,3.67-4.21H109.45V295.4Zm-5.38,2.8v2.19a9.07,9.07,0,0,1-1,4.41,7.28,7.28,0,0,1-3.32,3l-.79-1a6.88,6.88,0,0,0,3-2.47,7.64,7.64,0,0,0,.89-3.94V298.2Z"/><path class="cls-1" d="M129.76,294.38v5.07a26.32,26.32,0,0,1,3.82,1,27.89,27.89,0,0,1,3.51,1.39l-.54,1.06a28.4,28.4,0,0,0-3.24-1.3,25.92,25.92,0,0,0-3.55-.92v7.18h-1.27V294.38Zm6.31,3.42-.69.48a10.45,10.45,0,0,0-1.68-2.14l.64-.52A10.31,10.31,0,0,1,136.07,297.8Zm1.6-1.12-.69.5a10,10,0,0,0-1.67-2.15l.63-.49A10.35,10.35,0,0,1,137.67,296.68Z"/><path class="cls-1" d="M144.7,300.7a19.24,19.24,0,0,1-3.22,5.89l-1.07-.64a18.62,18.62,0,0,0,3.14-5.65Zm3.33-6.26v2.85h6v1.15h-6v7.48a1.55,1.55,0,0,1-1.84,1.77,12.5,12.5,0,0,1-1.82-.19v-1.18a15.88,15.88,0,0,0,1.77.17c.42,0,.64-.22.64-.67v-7.38h-6v-1.15h6v-2.85Zm4.69,8.6a23.73,23.73,0,0,1,1.57,3.1l-1.14.48a25.69,25.69,0,0,0-1.55-3,20.29,20.29,0,0,0-1.87-2.71l1-.67A20.4,20.4,0,0,1,152.72,303Z"/><path class="cls-1" d="M161.45,302.3l-1,.61a29.36,29.36,0,0,0-2-3.36l1-.61A31.6,31.6,0,0,1,161.45,302.3Zm6.87-3.67a13.53,13.53,0,0,1-2.18,5.56,10.43,10.43,0,0,1-4.73,3.45l-.68-1a9.93,9.93,0,0,0,4.37-3.13,12,12,0,0,0,2-5.09Zm-5,1.09c.36.55.66,1.11.95,1.65l-1,.59a38.66,38.66,0,0,0-2-3.39l1-.58C162.67,298.65,163,299.23,163.34,299.72Z"/></g><g class="cls-4"><path class="cls-1" d="M100.44,322.58c-.22.61-.48,1.22-.75,1.8h5.44l.77.41a14.89,14.89,0,0,1-2.88,6.74,14,14,0,0,1-5.91,4.26l-.65-1.07a13.21,13.21,0,0,0,5.14-3.45,12.34,12.34,0,0,0,2.88-5.72H99.07c-.23.36-.45.72-.69,1.07a16.25,16.25,0,0,1-3.12,3.25l-.87-.84a16.3,16.3,0,0,0,3-3.15,14.74,14.74,0,0,0,1.88-3.68Z"/><path class="cls-1" d="M116.44,322.58c-.22.61-.48,1.22-.75,1.8h5.44l.77.41a14.89,14.89,0,0,1-2.88,6.74,14,14,0,0,1-5.91,4.26l-.65-1.07a13.21,13.21,0,0,0,5.14-3.45,12.34,12.34,0,0,0,2.88-5.72h-5.41c-.23.36-.45.72-.69,1.07a16.25,16.25,0,0,1-3.12,3.25l-.87-.84a16.3,16.3,0,0,0,3-3.15,14.74,14.74,0,0,0,1.88-3.68Z"/><path class="cls-1" d="M137.92,324.46v1.17h-4.69v7.95H139v1.17H126.2v-1.17H132v-7.95h-4.69v-1.17Z"/><path class="cls-1" d="M145.39,323.3V331h-1.27v-7.7Zm7.69-.33v5.26a7,7,0,0,1-6,7.62l-.57-1.1a7.26,7.26,0,0,0,4.22-2.48,6.85,6.85,0,0,0,1.11-4.12V323Z"/></g></g></g></g></svg>