<?xml version="1.0" encoding="utf-8"?>
<!-- Generator: Adobe Illustrator 25.1.0, SVG Export Plug-In . SVG Version: 6.00 Build 0)  -->
<svg version="1.1" id="图层_1" xmlns="http://www.w3.org/2000/svg" xmlns:xlink="http://www.w3.org/1999/xlink" x="0px" y="0px"
	 viewBox="0 0 433.6 542.6" style="enable-background:new 0 0 433.6 542.6;" xml:space="preserve">
<style type="text/css">
	.st0{fill:#3F3D56;}
	.st1{fill:#FFFFFF;}
	.st2{fill:#FF6584;}
	.st3{enable-background:new    ;}
</style>
<g id="组_4570" transform="translate(-1062.404 -4757.118)">
	<g id="组_2001" transform="translate(1076.073 4772.225)">
		<path id="路径_10108" class="st0" d="M1.3,4.1H0V0h4.1v1.3H1.3L1.3,4.1z"/>
		<path id="路径_10109" class="st0" d="M408.9,1.3h-6.3V0h6.3V1.3z M396.3,1.3H390V0h6.3V1.3z M383.6,1.3h-6.3V0h6.3L383.6,1.3z
			 M371,1.3h-6.3V0h6.3V1.3z M358.4,1.3h-6.3V0h6.3V1.3z M345.7,1.3h-6.3V0h6.3V1.3z M333.1,1.3h-6.3V0h6.3V1.3z M320.5,1.3h-6.3V0
			h6.3V1.3z M307.9,1.3h-6.3V0h6.3V1.3z M295.2,1.3h-6.3V0h6.3V1.3z M282.6,1.3h-6.3V0h6.3V1.3z M270,1.3h-6.3V0h6.3V1.3z
			 M257.3,1.3H251V0h6.3V1.3z M244.7,1.3h-6.3V0h6.3V1.3z M232.1,1.3h-6.3V0h6.3V1.3z M219.4,1.3h-6.3V0h6.3V1.3z M206.8,1.3h-6.3V0
			h6.3V1.3z M194.2,1.3h-6.3V0h6.3V1.3z M181.5,1.3h-6.3V0h6.3L181.5,1.3z M168.9,1.3h-6.3V0h6.3V1.3z M156.3,1.3H150V0h6.3V1.3z
			 M143.7,1.3h-6.3V0h6.3V1.3z M131,1.3h-6.3V0h6.3V1.3z M118.4,1.3h-6.3V0h6.3V1.3z M105.8,1.3h-6.3V0h6.3V1.3z M93.1,1.3h-6.3V0
			h6.3V1.3z M80.5,1.3h-6.3V0h6.3V1.3z M67.9,1.3h-6.3V0h6.3V1.3z M55.2,1.3h-6.3V0h6.3V1.3z M42.6,1.3h-6.3V0h6.3V1.3z M30,1.3
			h-6.3V0H30V1.3z M17.3,1.3H11V0h6.3V1.3z"/>
		<path id="路径_10110" class="st0" d="M419.9,4.1h-1.3V1.3h-2.8V0h4.1L419.9,4.1z"/>
		<path id="路径_10111" class="st0" d="M419.9,516.5h-1.3v-7.5h1.3V516.5z M419.9,501.4h-1.3v-7.5h1.3V501.4z M419.9,486.3h-1.3
			v-7.5h1.3V486.3z M419.9,471.2h-1.3v-7.5h1.3V471.2z M419.9,456.1h-1.3v-7.5h1.3V456.1z M419.9,441h-1.3v-7.5h1.3V441z
			 M419.9,425.9h-1.3v-7.5h1.3V425.9z M419.9,410.9h-1.3v-7.6h1.3V410.9z M419.9,395.8h-1.3v-7.5h1.3V395.8z M419.9,380.7h-1.3v-7.5
			h1.3V380.7z M419.9,365.6h-1.3V358h1.3V365.6z M419.9,350.5h-1.3V343h1.3V350.5z M419.9,335.4h-1.3v-7.5h1.3V335.4z M419.9,320.3
			h-1.3v-7.5h1.3V320.3z M419.9,305.2h-1.3v-7.5h1.3V305.2z M419.9,290.1h-1.3v-7.5h1.3V290.1z M419.9,275.1h-1.3v-7.5h1.3V275.1z
			 M419.9,260h-1.3v-7.5h1.3V260z M419.9,244.9h-1.3v-7.5h1.3V244.9z M419.9,229.8h-1.3v-7.5h1.3V229.8z M419.9,214.7h-1.3v-7.5h1.3
			V214.7z M419.9,199.6h-1.3v-7.5h1.3V199.6z M419.9,184.5h-1.3V177h1.3V184.5z M419.9,169.4h-1.3v-7.5h1.3V169.4z M419.9,154.4
			h-1.3v-7.6h1.3V154.4z M419.9,139.3h-1.3v-7.5h1.3V139.3z M419.9,124.2h-1.3v-7.5h1.3V124.2z M419.9,109.1h-1.3v-7.5h1.3V109.1z
			 M419.9,94h-1.3v-7.5h1.3V94z M419.9,78.9h-1.3v-7.5h1.3V78.9z M419.9,63.8h-1.3v-7.6h1.3V63.8z M419.9,48.7h-1.3v-7.6h1.3V48.7z
			 M419.9,33.6h-1.3v-7.5h1.3V33.6z M419.9,18.6h-1.3V11h1.3V18.6z"/>
		<path id="路径_10112" class="st0" d="M419.9,527.5h-4.1v-1.3h2.8v-2.8h1.3L419.9,527.5z"/>
		<path id="路径_10113" class="st0" d="M408.9,527.5h-6.3v-1.3h6.3V527.5z M396.3,527.5H390v-1.3h6.3V527.5z M383.6,527.5h-6.3
			v-1.3h6.3L383.6,527.5z M371,527.5h-6.3v-1.3h6.3V527.5z M358.4,527.5h-6.3v-1.3h6.3V527.5z M345.8,527.5h-6.3v-1.3h6.3V527.5z
			 M333.1,527.5h-6.3v-1.3h6.3V527.5z M320.5,527.5h-6.3v-1.3h6.3V527.5z M307.9,527.5h-6.3v-1.3h6.3V527.5z M295.2,527.5h-6.3v-1.3
			h6.3V527.5z M282.6,527.5h-6.3v-1.3h6.3V527.5z M270,527.5h-6.3v-1.3h6.3V527.5z M257.3,527.5H251v-1.3h6.3V527.5z M244.7,527.5
			h-6.3v-1.3h6.3V527.5z M232.1,527.5h-6.3v-1.3h6.3V527.5z M219.4,527.5h-6.3v-1.3h6.3V527.5z M206.8,527.5h-6.3v-1.3h6.3V527.5z
			 M194.2,527.5h-6.3v-1.3h6.3V527.5z M181.5,527.5h-6.3v-1.3h6.3L181.5,527.5z M168.9,527.5h-6.3v-1.3h6.3V527.5z M156.3,527.5H150
			v-1.3h6.3V527.5z M143.7,527.5h-6.3v-1.3h6.3V527.5z M131,527.5h-6.3v-1.3h6.3V527.5z M118.4,527.5h-6.3v-1.3h6.3V527.5z
			 M105.8,527.5h-6.3v-1.3h6.3V527.5z M93.1,527.5h-6.3v-1.3h6.3V527.5z M80.5,527.5h-6.3v-1.3h6.3V527.5z M67.9,527.5h-6.3v-1.3
			h6.3V527.5z M55.2,527.5h-6.3v-1.3h6.3V527.5z M42.6,527.5h-6.3v-1.3h6.3V527.5z M30,527.5h-6.3v-1.3H30V527.5z M17.3,527.5H11
			v-1.3h6.3V527.5z"/>
		<path id="路径_10114" class="st0" d="M4.1,527.5H0v-4.1h1.3v2.8h2.8L4.1,527.5z"/>
		<path id="路径_10115" class="st0" d="M1.3,516.5H0v-7.5h1.3V516.5z M1.3,501.4H0v-7.5h1.3V501.4z M1.3,486.3H0v-7.5h1.3V486.3z
			 M1.3,471.2H0v-7.5h1.3V471.2z M1.3,456.1H0v-7.5h1.3V456.1z M1.3,441H0v-7.5h1.3V441z M1.3,425.9H0v-7.5h1.3V425.9z M1.3,410.9H0
			v-7.5h1.3V410.9z M1.3,395.8H0v-7.5h1.3V395.8z M1.3,380.7H0v-7.5h1.3V380.7z M1.3,365.6H0V358h1.3V365.6z M1.3,350.5H0V343h1.3
			V350.5z M1.3,335.4H0v-7.5h1.3V335.4z M1.3,320.3H0v-7.5h1.3V320.3z M1.3,305.2H0v-7.5h1.3V305.2z M1.3,290.1H0v-7.5h1.3V290.1z
			 M1.3,275.1H0v-7.5h1.3V275.1z M1.3,260H0v-7.5h1.3V260z M1.3,244.9H0v-7.5h1.3V244.9z M1.3,229.8H0v-7.5h1.3V229.8z M1.3,214.7H0
			v-7.5h1.3V214.7z M1.3,199.6H0v-7.5h1.3V199.6z M1.3,184.5H0V177h1.3V184.5z M1.3,169.4H0v-7.5h1.3V169.4z M1.3,154.3H0v-7.5h1.3
			V154.3z M1.3,139.3H0v-7.5h1.3V139.3z M1.3,124.2H0v-7.5h1.3V124.2z M1.3,109.1H0v-7.5h1.3V109.1z M1.3,94H0v-7.5h1.3V94z
			 M1.3,78.9H0v-7.5h1.3V78.9z M1.3,63.8H0v-7.5h1.3V63.8z M1.3,48.7H0v-7.5h1.3V48.7z M1.3,33.6H0v-7.5h1.3V33.6z M1.3,18.6H0V11
			h1.3V18.6z"/>
	</g>
	<g id="组_2002" transform="translate(1076.485 4772.637)">
		<path id="路径_10116" class="st0" d="M1.3,4.1H0V0h4.1v1.3H1.3L1.3,4.1z"/>
		<path id="路径_10117" class="st0" d="M408.1,1.3h-6.3V0h6.3V1.3z M395.5,1.3h-6.3V0h6.3V1.3z M382.9,1.3h-6.3V0h6.3V1.3z
			 M370.3,1.3H364V0h6.3V1.3z M357.7,1.3h-6.3V0h6.3V1.3z M345.1,1.3h-6.3V0h6.3V1.3z M332.5,1.3h-6.3V0h6.3V1.3z M319.9,1.3h-6.3V0
			h6.3V1.3z M307.3,1.3H301V0h6.3V1.3z M294.7,1.3h-6.3V0h6.3V1.3z M282,1.3h-6.3V0h6.3V1.3z M269.4,1.3h-6.3V0h6.3V1.3z M256.8,1.3
			h-6.3V0h6.3V1.3z M244.2,1.3h-6.3V0h6.3V1.3z M231.6,1.3h-6.3V0h6.3V1.3z M219,1.3h-6.3V0h6.3V1.3z M206.4,1.3h-6.3V0h6.3V1.3z
			 M193.8,1.3h-6.3V0h6.3V1.3z M181.2,1.3h-6.3V0h6.3V1.3z M168.6,1.3h-6.3V0h6.3V1.3z M156,1.3h-6.3V0h6.3V1.3z M143.4,1.3h-6.3V0
			h6.3V1.3z M130.8,1.3h-6.3V0h6.3V1.3z M118.2,1.3h-6.3V0h6.3V1.3z M105.6,1.3h-6.3V0h6.3V1.3z M93,1.3h-6.3V0H93V1.3z M80.4,1.3
			h-6.3V0h6.3V1.3z M67.8,1.3h-6.3V0h6.3V1.3z M55.1,1.3h-6.3V0h6.3V1.3z M42.5,1.3h-6.3V0h6.3V1.3z M29.9,1.3h-6.3V0h6.3V1.3z
			 M17.3,1.3H11V0h6.3V1.3z"/>
		<path id="路径_10118" class="st0" d="M419.1,4.1h-1.3V1.3H415V0h4.1L419.1,4.1z"/>
		<path id="路径_10119" class="st0" d="M419.1,515.7h-1.3v-7.5h1.3V515.7z M419.1,500.6h-1.3v-7.5h1.3V500.6z M419.1,485.5h-1.3
			V478h1.3V485.5z M419.1,470.5h-1.3v-7.5h1.3V470.5z M419.1,455.4h-1.3v-7.5h1.3V455.4z M419.1,440.3h-1.3v-7.5h1.3V440.3z
			 M419.1,425.3h-1.3v-7.5h1.3V425.3z M419.1,410.2h-1.3v-7.5h1.3V410.2z M419.1,395.1h-1.3v-7.5h1.3V395.1z M419.1,380.1h-1.3v-7.5
			h1.3V380.1z M419.1,365h-1.3v-7.5h1.3V365z M419.1,349.9h-1.3v-7.5h1.3V349.9z M419.1,334.9h-1.3v-7.5h1.3V334.9z M419.1,319.8
			h-1.3v-7.5h1.3V319.8z M419.1,304.8h-1.3v-7.5h1.3V304.8z M419.1,289.7h-1.3v-7.5h1.3V289.7z M419.1,274.6h-1.3v-7.5h1.3V274.6z
			 M419.1,259.6h-1.3V252h1.3V259.6z M419.1,244.5h-1.3V237h1.3V244.5z M419.1,229.4h-1.3v-7.5h1.3V229.4z M419.1,214.4h-1.3v-7.5
			h1.3V214.4z M419.1,199.3h-1.3v-7.5h1.3V199.3z M419.1,184.2h-1.3v-7.5h1.3V184.2z M419.1,169.2h-1.3v-7.5h1.3V169.2z
			 M419.1,154.1h-1.3v-7.5h1.3V154.1z M419.1,139h-1.3v-7.5h1.3V139z M419.1,124h-1.3v-7.5h1.3V124z M419.1,108.9h-1.3v-7.5h1.3
			V108.9z M419.1,93.9h-1.3v-7.5h1.3V93.9z M419.1,78.8h-1.3v-7.5h1.3V78.8z M419.1,63.7h-1.3v-7.5h1.3V63.7z M419.1,48.7h-1.3v-7.5
			h1.3V48.7z M419.1,33.6h-1.3v-7.5h1.3V33.6z M419.1,18.5h-1.3V11h1.3V18.5z"/>
		<path id="路径_10120" class="st0" d="M419.1,526.6H415v-1.3h2.8v-2.8h1.3L419.1,526.6z"/>
		<path id="路径_10121" class="st0" d="M408.1,526.6h-6.3v-1.3h6.3V526.6z M395.5,526.6h-6.3v-1.3h6.3V526.6z M382.9,526.6h-6.3
			v-1.3h6.3V526.6z M370.3,526.6H364v-1.3h6.3V526.6z M357.7,526.6h-6.3v-1.3h6.3V526.6z M345.1,526.6h-6.3v-1.3h6.3V526.6z
			 M332.5,526.6h-6.3v-1.3h6.3V526.6z M319.9,526.6h-6.3v-1.3h6.3V526.6z M307.3,526.6H301v-1.3h6.3V526.6z M294.6,526.6h-6.3v-1.3
			h6.3V526.6z M282,526.6h-6.3v-1.3h6.3V526.6z M269.4,526.6h-6.3v-1.3h6.3V526.6z M256.8,526.6h-6.3v-1.3h6.3V526.6z M244.2,526.6
			h-6.3v-1.3h6.3V526.6z M231.6,526.6h-6.3v-1.3h6.3V526.6z M219,526.6h-6.3v-1.3h6.3V526.6z M206.4,526.6h-6.3v-1.3h6.3V526.6z
			 M193.8,526.6h-6.3v-1.3h6.3V526.6z M181.2,526.6h-6.3v-1.3h6.3V526.6z M168.6,526.6h-6.3v-1.3h6.3V526.6z M156,526.6h-6.3v-1.3
			h6.3V526.6z M143.4,526.6h-6.3v-1.3h6.3V526.6z M130.8,526.6h-6.3v-1.3h6.3V526.6z M118.2,526.6h-6.3v-1.3h6.3V526.6z
			 M105.6,526.6h-6.3v-1.3h6.3V526.6z M93,526.6h-6.3v-1.3H93V526.6z M80.4,526.6h-6.3v-1.3h6.3V526.6z M67.8,526.6h-6.3v-1.3h6.3
			V526.6z M55.2,526.6h-6.3v-1.3h6.3V526.6z M42.5,526.6h-6.3v-1.3h6.3V526.6z M29.9,526.6h-6.3v-1.3h6.3V526.6z M17.3,526.6H11
			v-1.3h6.3V526.6z"/>
		<path id="路径_10122" class="st0" d="M4.1,526.6H0v-4.1h1.3v2.8h2.8L4.1,526.6z"/>
		<path id="路径_10123" class="st0" d="M1.3,515.7H0v-7.5h1.3V515.7z M1.3,500.6H0v-7.5h1.3V500.6z M1.3,485.5H0V478h1.3V485.5z
			 M1.3,470.5H0v-7.5h1.3V470.5z M1.3,455.4H0v-7.5h1.3V455.4z M1.3,440.3H0v-7.5h1.3V440.3z M1.3,425.3H0v-7.5h1.3V425.3z
			 M1.3,410.2H0v-7.5h1.3V410.2z M1.3,395.1H0v-7.5h1.3V395.1z M1.3,380.1H0v-7.5h1.3V380.1z M1.3,365H0v-7.5h1.3V365z M1.3,349.9H0
			v-7.5h1.3V349.9z M1.3,334.9H0v-7.5h1.3V334.9z M1.3,319.8H0v-7.5h1.3V319.8z M1.3,304.8H0v-7.5h1.3V304.8z M1.3,289.7H0v-7.5h1.3
			V289.7z M1.3,274.6H0v-7.5h1.3V274.6z M1.3,259.6H0V252h1.3V259.6z M1.3,244.5H0V237h1.3V244.5z M1.3,229.4H0v-7.5h1.3V229.4z
			 M1.3,214.4H0v-7.5h1.3V214.4z M1.3,199.3H0v-7.5h1.3V199.3z M1.3,184.2H0v-7.5h1.3V184.2z M1.3,169.2H0v-7.5h1.3V169.2z
			 M1.3,154.1H0v-7.5h1.3V154.1z M1.3,139H0v-7.5h1.3V139z M1.3,124H0v-7.5h1.3V124z M1.3,108.9H0v-7.5h1.3V108.9z M1.3,93.9H0v-7.5
			h1.3V93.9z M1.3,78.8H0v-7.5h1.3V78.8z M1.3,63.7H0v-7.5h1.3V63.7z M1.3,48.7H0v-7.5h1.3V48.7z M1.3,33.6H0v-7.5h1.3V33.6z
			 M1.3,18.5H0V11h1.3V18.5z"/>
	</g>
	<g id="组_2023" transform="translate(1062.404 4757.118)">
		<rect id="矩形_2565" x="0.7" y="0.7" class="st1" width="418.6" height="526.2"/>
		<path id="路径_10258" class="st0" d="M419.9,527.5H0V0h419.9L419.9,527.5z M1.2,526.1h417.5V1.4H1.2V526.1z"/>
	</g>
	<g id="组_2024" transform="translate(1062.816 4757.53)">
		<rect id="矩形_2566" x="0.7" y="0.7" class="st1" width="417.8" height="525.3"/>
		<path id="路径_10259" class="st0" d="M419.1,526.6H0V0h419.1V526.6z M1.2,525.2h416.7V1.4H1.2V525.2z"/>
	</g>
	<rect id="矩形_2570" x="1172.4" y="4987.8" class="st1" width="18" height="4"/>
	<g id="Group_33" transform="translate(1150.198 4807.234)">
		<rect id="Rectangle_13" x="25" y="17" class="st2" width="28" height="18"/>
		<g id="dashboard的副本">
			<path id="Path_301" class="st0" d="M62,0H0v42h20v10h-8v5c0,2.8,2.2,5,5,5h36c2.8,0,5-2.2,5-5V42h4L62,0z M60,2v6H2V2H60z M20,24
				h-4.6l-6-6c3.1-2.5,7.4-2.6,10.6-0.5L20,24z M8,19.4l5.6,5.6L8,30.6C5.3,27.4,5.3,22.7,8,19.4L8,19.4z M15.4,26H20v6.5
				c-3.3,2.2-7.6,2-10.6-0.5L15.4,26z M17,60c-1.7,0-3-1.3-3-3l0,0v-3h34v3c0,1.1,0.4,2.1,1,3H17z M36,52V40h16v16h-2v-4L36,52z
				 M56,57c0,1.7-1.3,3-3,3c-1.3,0-2.4-0.8-2.8-2H54V38H34v14H22V14h34L56,57z M58,40V12H20v3.2C14.6,12.4,8,14.6,5.2,20
				s-0.6,12,4.8,14.8c3.1,1.6,6.9,1.6,10,0V40H2V10h58v30L58,40z"/>
			<path id="Path_302" class="st0" d="M4,4h2v2H4V4z"/>
			<path id="Path_303" class="st0" d="M8,4h2v2H8V4z"/>
			<path id="Path_304" class="st0" d="M12,4h2v2h-2V4z"/>
			<path id="Path_305" class="st0" d="M54,16H24v20h30V16z M52,20H42v-2h10L52,20z M40,22v12h-6V22L40,22z M34,20v-2h6v2H34z M42,22
				h4v12h-4V22z M32,18v2h-6v-2H32z M26,22h6v12h-6V22z M48,34V22h4v12L48,34z"/>
			<path id="Path_306" class="st0" d="M24,38h8v2h-8V38z"/>
			<path id="Path_307" class="st0" d="M24,42h8v2h-8V42z"/>
			<path id="Path_308" class="st0" d="M24,46h8v2h-8V46z"/>
		</g>
	</g>
	<g id="Group_32" transform="translate(1150.198 4966.979)">
		<ellipse id="Ellipse_17" class="st2" cx="18.5" cy="23.5" rx="18.5" ry="17.5"/>
		<g id="query" transform="translate(0)">
			<path id="Path_309" class="st0" d="M62,20V2H48v8H32.9c-1-1-2.1-2-3.3-2.8C29.9,6.9,30,6.4,30,6V2c0-1.1-0.9-2-2-2H10
				C8.9,0,8,0.9,8,2v4c0,0.4,0.2,0.9,0.4,1.2c-8.7,5.8-11.1,17.6-5.2,26.4c2.7,4.1,7,7,11.8,8V45c0,0.5,0.1,1,0.4,1.5
				C14.5,47.1,14,48,14,49v8c0,2.8,2.2,5,5,5c2.8,0,5-2.2,5-5v-5h24v8h14V42H48v8H24v-1c0-1-0.5-2-1.4-2.5c0.3-0.4,0.4-1,0.4-1.5
				v-3.4c5.4-1.2,10.1-4.7,12.7-9.6H48v8h14V22H48v8H36.7c2.4-6,1.6-12.8-2.1-18H48v8H62z M50,44h10v14H50V44z M50,24h10v14H50V24z
				 M30,16.1c3.8,6.1,2,14.1-4.1,17.9S11.9,36.1,8,30c-2.7-4.2-2.7-9.6,0-13.9c0,1.1,0.9,1.9,2,1.9v2c-1.1,0-2,0.9-2,2v4
				c0,1.1,0.9,2,2,2h18c1.1,0,2-0.9,2-2v-4c0-1.1-0.9-2-2-2v-2C29.1,18,30,17.2,30,16.1L30,16.1z M28,22v4H10v-4H28z M12,20v-2h14v2
				H12z M10,16v-4h18v4H10z M12,10V8h14v2H12z M10,2h18v4H10V2z M22,57.1c0,1.7-1.3,3-3,3s-3-1.3-3-3l0,0v-8c0-0.6,0.4-1,1-1h4
				c0.6,0,1,0.4,1,1V57.1z M21,45c0,0.6-0.4,1-1,1h-2c-0.6,0-1-0.4-1-1v-3.1c1.3,0.1,2.7,0.1,4,0V45z M19,40C9.6,40,2,32.4,2,23
				c0-5.9,3-11.3,8-14.4V10c-1.1,0-2,0.9-2,2v0.8c-5.6,6.1-5.3,15.6,0.8,21.2c6.1,5.6,15.6,5.3,21.2-0.8c5.3-5.8,5.3-14.7,0-20.4V12
				c0-1.1-0.9-2-2-2V8.6c8,5,10.4,15.5,5.4,23.4C30.3,37,24.9,40,19,40L19,40z M50,4h10v14H50V4z"/>
			<path id="Path_310" class="st0" d="M56,6h-4v2h2v6h-2v2h6v-2h-2V6z"/>
			<path id="Path_311" class="st0" d="M56.8,31.4c1.3-1,1.6-2.9,0.6-4.2s-2.9-1.6-4.2-0.6C52.5,27.2,52,28.1,52,29v1h2v-1
				c0-0.6,0.4-1,1-1s1,0.4,1,1c0,0.3-0.1,0.6-0.4,0.8L52,32.5V36h6v-2h-4v-0.5L56.8,31.4z"/>
			<path id="Path_312" class="st0" d="M55,46h-3v2h3c0.6,0,1,0.4,1,1s-0.4,1-1,1h-3v2h3c0.6,0,1,0.4,1,1s-0.4,1-1,1h-3v2h3
				c1.7,0,3-1.3,3-3c0-0.7-0.3-1.5-0.8-2c1.1-1.2,1-3.1-0.2-4.2C56.5,46.3,55.8,46,55,46z"/>
			<rect id="矩形_2563" x="10" y="12" class="st1" width="18" height="4.1"/>
			<rect id="矩形_2564" x="10" y="22" class="st1" width="18" height="4.1"/>
		</g>
	</g>
	<g id="Group_42" transform="translate(1334.118 4805.355)">
		<path id="Path_328" class="st2" d="M14,20.3L27.3,7.6l9.4,11L49.7,5.5h-5.1V0.9h13v13.3h-4.4V8.9l-16.6,16l-9.4-10.7L17,24
			L14,20.3z"/>
		<g id="Out_line">
			<path id="Path_321" class="st0" d="M22.8,40.1V28.2c0-0.6-0.5-1.1-1.1-1.1c0,0,0,0,0,0h-4.3c-0.6,0-1.1,0.5-1.1,1.1l0,0v11.9h2.2
				V29.3h2.2v10.8L22.8,40.1z"/>
			<path id="Path_322" class="st0" d="M40.1,44.4V29.3c0-0.6-0.5-1.1-1.1-1.1h-4.3c-0.6,0-1.1,0.5-1.1,1.1l0,0v15.2h2.2V30.3h2.2
				v14.1L40.1,44.4z"/>
			<path id="Path_323" class="st0" d="M31.4,44.4V24.9c0-0.6-0.5-1.1-1.1-1.1H26c-0.6,0-1.1,0.5-1.1,1.1l0,0l0,0v17.3h2.2V26h2.2
				v18.4L31.4,44.4z"/>
			<path id="Path_324" class="st0" d="M48.8,35.8V24.9c0-0.6-0.5-1.1-1.1-1.1l0,0h-4.3c-0.6,0-1.1,0.5-1.1,1.1c0,0,0,0,0,0l0,0v11.9
				h2.2V26h2.2v9.8H48.8z"/>
			<path id="Path_325" class="st0" d="M57.4,34.7V18.4c0-0.6-0.5-1.1-1.1-1.1H52c-0.6,0-1.1,0.5-1.1,1.1l0,0v16.3h2.2V19.5h2.2v15.2
				H57.4z"/>
			<path id="Path_326" class="st0" d="M16.6,24.6c0.4,0.4,1.1,0.4,1.5,0l8.9-8.9l9,10c0.2,0.2,0.5,0.4,0.8,0.4h0
				c0.3,0,0.6-0.1,0.8-0.3L52,11.3v2.8c0,0.6,0.5,1.1,1.1,1.1h4.3c0.6,0,1.1-0.5,1.1-1.1v-13C58.5,0.5,58,0,57.4,0c0,0,0,0,0,0h-13
				c-0.6,0-1.1,0.5-1.1,1.1c0,0,0,0,0,0v4.3c0,0.6,0.5,1.1,1.1,1.1l0,0h2.8L36.9,16.8l-9-10c-0.4-0.4-1.1-0.5-1.5-0.1c0,0,0,0,0,0
				c0,0,0,0,0,0l-13,13c-0.4,0.4-0.4,1.1,0,1.5L16.6,24.6z M27,9.2l9,10c0.4,0.4,1.1,0.5,1.5,0.1l0,0l13-13c0.4-0.4,0.4-1.1,0-1.5
				c-0.2-0.2-0.5-0.3-0.8-0.3h-4.3V2.2h10.8V13h-2.2V8.7c0-0.6-0.5-1.1-1.1-1.1c-0.3,0-0.6,0.1-0.8,0.3L36.9,23.3l-9-10
				c-0.2-0.2-0.5-0.4-0.8-0.4h0c-0.3,0-0.6,0.1-0.8,0.3l-9,9l-1.7-1.7L27,9.2z"/>
			<path id="Path_327" class="st0" d="M9.8,63.9v-2.2H13c0.6,0,1.1-0.5,1.1-1.1l0,0l0,0v-2.8c10.8,9.9,27.4,9.5,37.7-0.8l11.8-11.8
				c1.6-1.6,1.6-4.2,0-5.9c-1.3-1.3-3.4-1.6-5.1-0.6c-1.3-2-3.9-2.5-5.8-1.3c0,0,0,0,0,0c-0.4,0.3-0.8,0.6-1.1,1l-0.5,0.6
				c-2-1.6-5-1.2-6.5,0.9c-0.2,0.3-0.4,0.6-0.6,0.9l-2.7,6.1c-0.6-0.2-1.2-0.3-1.8-0.3H26.4l-1.8-1.8c-2.8-2.8-7.1-3.4-10.5-1.4
				v-1.1c0-0.6-0.5-1.1-1.1-1.1H9.7v-1.1c0-0.6-0.5-1.1-1.1-1.1H0v2.2h7.6v21.7H0V65h8.7C9.3,65,9.7,64.5,9.8,63.9
				C9.8,63.9,9.8,63.9,9.8,63.9z M56.1,39.2c0.4,0.2,0.7,0.6,0.8,1l-8.6,8.6c-1.2,1.2-2.5,2.1-3.9,3l8.9-12
				C54,38.9,55.2,38.7,56.1,39.2L56.1,39.2z M46.1,41.8c0.6-1.2,2-1.8,3.3-1.2c0.2,0.1,0.4,0.2,0.5,0.3L43.8,49
				c-0.2-0.3-0.4-0.6-0.6-0.8L46.1,41.8z M23.1,46.3l2.2,2.2c0.2,0.2,0.5,0.3,0.8,0.3h13.5c1.5,0,2.7,1.2,2.7,2.7
				c0,1.5-1.2,2.7-2.7,2.7c0,0,0,0,0,0H26v2.2h13.5c1.4,0,2.7-0.6,3.6-1.6c2.5-1,4.8-2.6,6.7-4.5l9.5-9.5c0.7-0.8,2-0.8,2.8-0.1
				s0.8,2,0.1,2.8c0,0,0,0-0.1,0.1l0,0L50.2,55.5c-9.8,9.8-25.7,9.8-35.5,0c0,0,0,0,0,0l-0.7-0.7V46C16.7,43.7,20.6,43.8,23.1,46.3
				L23.1,46.3z M11.9,43.3v16.3H9.8V43.3L11.9,43.3z"/>
		</g>
	</g>
	<g id="Group_43" transform="translate(1335.257 4966.979)">
		<path id="Path_334" class="st2" d="M15.7,41.4l3.1,1.8l3.5-1.8v2.9l1.5,1.6l-0.9,1.8l-2.1,1.3H18l-2.3-0.9l-1.4-1.8l1.4-1.9
			L15.7,41.4z"/>
		<circle id="Ellipse_21" class="st2" cx="44" cy="18" r="11"/>
		<g id="thinking">
			<path id="Path_329" class="st0" d="M18,52h2v2h-2V52z"/>
			<path id="Path_330" class="st0" d="M18,56h2v2h-2V56z"/>
			<path id="Path_331" class="st0" d="M44,6c-6.6,0-12,5.4-12,12s5.4,12,12,12c6.6,0,12-5.4,12-12c0,0,0,0,0,0C56,11.4,50.7,6,44,6z
				 M44,28c-5.5,0-10-4.5-10-10c0-5.5,4.5-10,10-10c5.5,0,10,4.5,10,10c0,0,0,0,0,0C54,23.5,49.6,28,44,28C44,28,44,28,44,28z"/>
			<path id="Path_332" class="st0" d="M44,12c-3.3,0-6,2.7-6,6s2.7,6,6,6s6-2.7,6-6S47.3,12,44,12z M44,22c-2.2,0-4-1.8-4-4
				s1.8-4,4-4s4,1.8,4,4S46.2,22,44,22L44,22L44,22z"/>
			<path id="Path_333" class="st0" d="M62,21.8v-7.6l-2.6-0.6c-0.3-1.2-0.8-2.3-1.4-3.3L59.5,8l-5.4-5.4L51.8,4
				c-1.1-0.6-2.2-1-3.3-1.4L47.8,0h-7.6l-0.6,2.6C38.5,3,37.3,3.4,36.3,4L34,2.6L28.6,8l1.4,2.3c-0.6,1.1-1.1,2.2-1.4,3.3L26,14.2
				v5.2c-0.6-0.3-1.3-0.4-2-0.4c-0.3,0-0.6,0-0.9,0.1c-1.6-2.2-4.7-2.8-6.9-1.2c-0.5,0.3-0.9,0.7-1.2,1.2C14.6,19,14.3,19,14,19
				c-2.5,0-4.7,1.9-5,4.4c-2.5,1.1-3.7,4-2.6,6.5c0.2,0.5,0.4,0.9,0.8,1.3c-1.6,1.6-1.5,4.1,0,5.7C7.9,37.6,9,38,10,38h1.7
				c0.8,1.5,1.9,2.8,3.3,3.8v1.2c0,0.8-0.5,1.5-1.2,1.8l-6.4,3C2.9,50,0,54.6,0,59.7V62h38v-2.4c0-5.1-2.9-9.6-7.5-11.8l-6.4-3
				c-0.7-0.3-1.2-1-1.2-1.8v-1.2c1.3-1.1,2.4-2.4,3.3-3.8H28c2.2,0,4-1.8,4-4c0-1.1-0.4-2.1-1.2-2.8c0.1-0.2,0.3-0.3,0.4-0.5
				l2.7,2.7l2.3-1.4c0.2,0.1,0.4,0.2,0.5,0.3c-1.5,0.7-2.2,2.4-1.5,3.9c0.1,0.3,0.3,0.6,0.5,0.8c-1.1,1.2-1,3.1,0.2,4.2
				c0.3,0.3,0.7,0.5,1.1,0.6c0.5,3.8,4,6.6,7.8,6.1c3.2-0.4,5.7-2.9,6.1-6.1c1.6-0.5,2.4-2.2,1.9-3.7c-0.1-0.4-0.3-0.8-0.6-1.1
				c1.1-1.2,1-3.1-0.2-4.2c-0.2-0.2-0.5-0.4-0.8-0.5c0.2-0.1,0.4-0.2,0.5-0.3l2.3,1.4l5.4-5.4L58,25.8c0.6-1.1,1-2.2,1.4-3.3
				L62,21.8z M10.3,25.1l0.8-0.2l0-0.8c0-0.1,0-0.1,0-0.1c0-1.6,1.3-3,2.9-3c0.4,0,0.8,0.1,1.1,0.2l0.9,0.3l0.4-0.8
				c0.7-1.5,2.5-2.1,4-1.4c0.6,0.3,1.1,0.8,1.4,1.4l0.4,0.8l0.9-0.3c1.5-0.6,3.3,0.2,3.9,1.7c0.1,0.3,0.2,0.7,0.2,1.1l0,1l0.8,0.2
				c1.6,0.4,2.6,2,2.2,3.6c-0.1,0.6-0.4,1.1-0.9,1.5C28.7,30.1,28.4,30,28,30v-2h-2.4c-2.2,0-4.3-0.6-6.1-1.8L19,25.8l-0.6,0.4
				c-1.8,1.2-3.9,1.8-6.1,1.8H10v2c-0.4,0-0.7,0.1-1.1,0.2c-1.2-1.1-1.3-3-0.2-4.2C9.2,25.6,9.7,25.3,10.3,25.1L10.3,25.1z M10,36
				c-1.1,0-2-0.9-2-2s0.9-2,2-2h0c0.1,1.4,0.3,2.7,0.8,4H10z M36,59.7V60h-4v-6h-2v6H8v-6H6v6H2v-0.4c0-4.3,2.5-8.2,6.4-10l5.5-2.6
				c1.7,2.8,5.3,3.8,8.2,2.1c0.9-0.5,1.6-1.2,2.1-2.1l5.5,2.6C33.6,51.5,36,55.4,36,59.7L36,59.7z M22.4,46.1
				c-1.1,1.9-3.6,2.5-5.5,1.3c-0.5-0.3-1-0.8-1.3-1.3c0.8-0.7,1.3-1.8,1.4-2.9c0.5,0.3,1.1,0.5,1.7,0.8l0.4,0.1l0.4-0.1
				c0.6-0.2,1.1-0.5,1.7-0.8C21,44.3,21.5,45.4,22.4,46.1L22.4,46.1z M19,42c-4.2-1.8-7-5.9-7-10.5V30h0.4c4.1-2.4,9.1-2.4,13.2,0
				H26v1.5C26,36.1,23.2,40.2,19,42L19,42z M28,36h-0.8c0.5-1.3,0.7-2.6,0.8-4h0c1.1,0,2,0.9,2,2S29.1,36,28,36L28,36z M50,34
				c0.6,0,1,0.4,1,1s-0.4,1-1,1H38c-0.6,0-1-0.4-1-1s0.4-1,1-1H50z M44,46c-2.4,0-4.4-1.7-4.9-4h9.8C48.5,44.4,46.4,46,44,46L44,46z
				 M50,40H38c-0.6,0-1-0.4-1-1s0.4-1,1-1h12c0.6,0,1,0.4,1,1S50.6,40,50,40L50,40z M57.8,20.8l-0.1,0.6c-0.3,1.4-0.9,2.7-1.6,3.9
				l-0.3,0.5l1.2,2l-3.1,3.1l-2-1.2L51.3,30c-0.5,0.3-1.1,0.6-1.6,0.8L49,31.1V32H39v-0.9l-0.6-0.3c-0.6-0.2-1.1-0.5-1.6-0.8
				l-0.5-0.3l-2,1.2L32,28.6c0.3-2.2-1-4.3-3-5.2c-0.1-0.9-0.4-1.7-1-2.4v-5.2l2.3-0.5l0.1-0.6c0.3-1.4,0.9-2.7,1.6-3.9l0.3-0.5
				l-1.2-2l3.1-3.1l2,1.2l0.5-0.3c1.2-0.7,2.5-1.3,3.9-1.6l0.6-0.1L41.8,2h4.4l0.5,2.3l0.6,0.1c1.4,0.3,2.7,0.9,3.9,1.6l0.5,0.3
				l2-1.2l3.1,3.1l-1.2,2l0.3,0.5c0.7,1.2,1.3,2.5,1.6,3.9l0.1,0.6l2.3,0.5v4.4L57.8,20.8z"/>
		</g>
	</g>
	<g id="Group_44" transform="translate(1336.965 5130.129)">
		<path id="Path_360" class="st2" d="M38.7,31.6l14.1-3.8l5.1,17.8l-14.9,4L38.7,31.6z"/>
		<rect id="Rectangle_14" x="0.6" y="30.7" class="st2" width="31" height="19"/>
		<g id="archives">
			<path id="Path_350" class="st0" d="M59,45.3L47.1,0.9c-0.2-0.6-0.8-1-1.4-0.8l0,0L32.5,3.6V3.5c0-0.6-0.5-1.2-1.2-1.2
				c0,0,0,0,0,0H1.2C0.5,2.3,0,2.9,0,3.5c0,0,0,0,0,0v46c0,0.6,0.5,1.2,1.2,1.2l0,0h30.2c0.6,0,1.1-0.5,1.1-1.2V13.8l9.6,36
				c0.2,0.6,0.8,1,1.4,0.8c0,0,0,0,0,0l0,0l14.6-3.9C58.8,46.5,59.1,45.9,59,45.3L59,45.3L59,45.3z M30.2,29.9H17.4V4.7h12.8V29.9z
				 M15.1,4.7v25.2H2.3V4.7L15.1,4.7z M2.3,32.2h12.8v16.1H2.3V32.2z M17.4,48.3V32.2h12.8v16.1L17.4,48.3z M45.2,2.6l6.5,24.4
				l-12.4,3.3L32.8,5.9L45.2,2.6z M44.1,48.1l-4.2-15.6l12.4-3.3l4.2,15.6L44.1,48.1z"/>
			<ellipse id="Ellipse_22" class="st0" cx="8.7" cy="12.1" rx="2.9" ry="2.9"/>
			<path id="Path_351" class="st0" d="M5.8,36.8h5.9c0.6,0,1.2-0.5,1.2-1.1c0-0.6-0.4-1.1-1-1.2c0,0-0.1,0-0.1,0H5.8
				c-0.6,0-1.2,0.5-1.2,1.1c0,0.6,0.4,1.1,1,1.2C5.7,36.8,5.7,36.8,5.8,36.8z"/>
			<path id="Path_352" class="st0" d="M11.7,39.1H5.8c-0.6,0-1.2,0.5-1.2,1.1c0,0.6,0.4,1.1,1,1.2c0,0,0.1,0,0.1,0h5.9
				c0.6,0,1.1-0.6,1.1-1.2C12.7,39.6,12.2,39.1,11.7,39.1z"/>
			<path id="Path_353" class="st0" d="M11.7,43.7H5.8c-0.6,0-1.1,0.6-1.1,1.2c0,0.6,0.5,1,1.1,1.1h5.9c0.6,0,1.1-0.6,1.1-1.2
				C12.7,44.2,12.2,43.8,11.7,43.7z"/>
			<ellipse id="Ellipse_23" class="st0" cx="40.9" cy="11.5" rx="2.9" ry="2.9"/>
			<path id="Path_354" class="st0" d="M50.1,34.5c0.6-0.2,1-0.8,0.8-1.4s-0.8-1-1.4-0.8l0,0l-5.7,1.5c-0.6,0.2-1,0.8-0.8,1.4
				s0.8,1,1.4,0.8L50.1,34.5z"/>
			<path id="Path_355" class="st0" d="M51.3,39c0.6-0.2,1-0.8,0.8-1.4s-0.8-1-1.4-0.8L45,38.3c-0.6,0.2-1,0.8-0.8,1.4
				c0.2,0.6,0.8,0.9,1.4,0.8L51.3,39z"/>
			<path id="Path_356" class="st0" d="M51.9,41.2l-5.7,1.5c-0.6,0.2-1,0.8-0.8,1.4s0.8,1,1.4,0.8l0,0l5.7-1.5c0.6-0.2,1-0.8,0.8-1.4
				S52.5,41,51.9,41.2L51.9,41.2z"/>
			<ellipse id="Ellipse_24" class="st0" cx="23.8" cy="12.1" rx="2.9" ry="2.9"/>
			<path id="Path_357" class="st0" d="M26.8,34.5h-5.9c-0.6-0.1-1.2,0.4-1.3,1c-0.1,0.6,0.4,1.2,1,1.3c0,0,0.1,0,0.1,0
				c0,0,0.1,0,0.1,0h5.9c0.6,0,1.1-0.6,1.1-1.2C27.8,35,27.3,34.5,26.8,34.5z"/>
			<path id="Path_358" class="st0" d="M26.8,39.1h-5.9c-0.6-0.1-1.2,0.4-1.3,1c-0.1,0.6,0.4,1.2,1,1.3c0,0,0.1,0,0.1,0
				c0,0,0.1,0,0.1,0h5.9c0.6,0,1.1-0.6,1.1-1.2C27.8,39.6,27.3,39.1,26.8,39.1z"/>
			<path id="Path_359" class="st0" d="M26.8,43.7h-5.9c-0.6-0.1-1.2,0.4-1.3,1c-0.1,0.6,0.4,1.2,1,1.3c0,0,0.1,0,0.1,0
				c0,0,0.1,0,0.1,0h5.9c0.6,0,1.1-0.6,1.1-1.2C27.8,44.2,27.3,43.8,26.8,43.7z"/>
		</g>
	</g>
	<g id="组_2085" transform="translate(1150.198 5124.435)">
		<ellipse id="Ellipse_19" class="st2" cx="7.3" cy="29.8" rx="5" ry="5"/>
		<ellipse id="Ellipse_19-2" class="st2" cx="47.5" cy="14.3" rx="5" ry="5"/>
		<ellipse id="Ellipse_19-3" class="st2" cx="41.7" cy="52.8" rx="5" ry="5"/>
		<g id="user-experience" transform="translate(0)">
			<path id="Path_313" class="st0" d="M58.2,31.2c1.3-2.5,2.3-5.1,3.1-7.8c2.2-8.1,1.2-14.9-3.1-19.2s-11-5.3-19.2-3.1
				c-2.7,0.8-5.3,1.8-7.8,3.1c-3.1-1.6-6.3-2.8-9.7-3.5C14.2-0.9,8.1,0.3,4.2,4.2C1.6,6.9,0.1,10.5,0,14.3
				c-0.1,4.2,0.6,8.4,2.2,12.3c-2.5,2-3,5.6-1,8.1c0.3,0.4,0.6,0.7,1,1C0.7,39.7-0.1,43.9,0,48.1c0.1,3.8,1.6,7.4,4.2,10.1
				c2.8,2.8,6.7,4.2,11.4,4.2c1,0,2-0.1,2.9-0.2c4.4-0.6,8.7-2,12.7-4c2.5,1.3,5.1,2.3,7.8,3.1c2.5,0.7,5.2,1.1,7.8,1.1
				c4.7,0,8.6-1.4,11.4-4.2c3.9-3.9,5.1-10,3.5-17.3C61,37.5,59.8,34.3,58.2,31.2z M39.5,2.9C47,0.8,53.2,1.8,56.9,5.5
				s4.7,9.9,2.6,17.4c-0.6,2.2-1.4,4.3-2.4,6.3c-1.9-3.3-4-6.4-6.5-9.3c1.6-2.1,1.7-5,0-7.1l-1.4,1.1c1.3,1.7,1,4.2-0.7,5.6
				c-0.7,0.5-1.5,0.8-2.4,0.8c-2.2,0-4-1.8-4-4c0-2.2,1.8-4,4-4c0.7,0,1.4,0.2,2,0.6l0.9-1.6c-2.1-1.2-4.7-1.1-6.5,0.4
				c-2.9-2.4-6-4.6-9.3-6.5C35.2,4.3,37.4,3.5,39.5,2.9L39.5,2.9z M5.5,5.5c5-5,14-4.8,23.7-0.2c-5,2.8-9.5,6.3-13.6,10.4
				c-3.1,3.1-5.8,6.4-8.2,10c-0.5-0.2-1.1-0.2-1.6-0.2c-0.7,0-1.3,0.1-2,0.3C0.7,17.1,1.2,9.8,5.5,5.5L5.5,5.5z M15.6,60.6
				c-4.1,0-7.7-1.2-10.1-3.7c-4.3-4.3-4.8-11.6-1.7-20.3c1.2,0.4,2.4,0.5,3.6,0.1c2.4,3.6,5.1,7,8.2,10c4,4.1,8.6,7.6,13.6,10.4
				C25,59.3,20.3,60.4,15.6,60.6L15.6,60.6z M31.2,56.2c-5.3-2.8-10.1-6.4-14.3-10.7c-2.9-2.9-5.5-6.1-7.8-9.5
				c1.6-1.1,2.5-2.9,2.5-4.8c0-0.2,0-0.3,0-0.5l-1.8,0.2c0,0.1,0,0.2,0,0.4c0,2.2-1.8,4-4,4c-2.2,0-4-1.8-4-4c0-2.2,1.8-4,4-4
				c1.5,0,2.9,0.9,3.5,2.2l1.6-0.8c-0.4-0.9-1.1-1.6-1.9-2.2c2.3-3.4,4.9-6.6,7.8-9.5c4.2-4.3,9-7.8,14.3-10.7
				c3.6,1.9,7,4.2,10.1,6.8c-1.8,2.7-1.1,6.3,1.6,8c2,1.3,4.5,1.3,6.4,0c2.6,3.1,4.9,6.5,6.8,10.1c-2.8,5.3-6.4,10.1-10.7,14.3
				c-0.5,0.5-1,1-1.5,1.4c-2.1-1.8-5.1-1.8-7.3-0.2l1.1,1.4c1.7-1.3,4.2-1,5.6,0.7c1.3,1.7,1,4.2-0.7,5.6c-1.7,1.3-4.2,1-5.6-0.7
				c-1-1.3-1.1-3-0.3-4.4l-1.6-0.9c-1,1.7-1.1,3.8-0.2,5.5C33.8,54.8,32.5,55.5,31.2,56.2L31.2,56.2z M56.9,56.9
				c-3.7,3.7-9.9,4.7-17.4,2.6c-2.2-0.6-4.3-1.4-6.3-2.4c1-0.5,1.9-1.1,2.9-1.7c2.2,2.3,5.9,2.3,8.2,0.1c1.9-1.9,2.3-4.9,0.9-7.2
				c0.5-0.5,1.1-1,1.6-1.5c4.1-4,7.6-8.6,10.4-13.6C61.7,42.9,61.9,52,56.9,56.9L56.9,56.9z"/>
			<path id="Path_318" class="st0" d="M45.2,15.4H47v1.8h-1.8V15.4z"/>
			<path id="Path_319" class="st0" d="M39.3,50.5h1.8v1.8h-1.8V50.5z"/>
			<path id="Path_320" class="st0" d="M4.9,30.3h1.8v1.8H4.9V30.3z"/>
		</g>
		<circle id="Ellipse_20" class="st2" cx="31.2" cy="29.8" r="5.5"/>
		<g id="组_2043" transform="translate(16.19 12.995)">
			<path id="Path_314" class="st0" d="M30,27.7h-1.9v-4.6c0-2-1.4-3.8-3.3-4.4l-0.7-0.2l-0.5,1.8l0.7,0.2c1.2,0.3,2,1.4,2,2.6v4.6
				H23v-2.5h-1.8v2.5h-8.2v1.8H30L30,27.7z"/>
			<path id="Path_315" class="st0" d="M18.1,18.7l3.8,1.1l0.5-1.8l-3.7-1.1v-2.4c1.8-1.2,2.8-3.2,2.8-5.3V6.5C21.5,3,18.6,0,15.1,0
				c-3.5,0-6.4,2.8-6.5,6.3c0,0.1,0,0.1,0,0.2v2.7c0,2.1,1.1,4.1,2.8,5.3v2.4l-6.2,1.7c-2,0.6-3.3,2.4-3.3,4.4v4.6H0v1.8h11.1v-1.8
				H8.9v-2.5H7v2.5H3.7v-4.6c0-1.2,0.8-2.3,2-2.6l6.3-1.8c1.5,1.7,4.1,1.8,5.8,0.3c0,0,0,0,0,0C17.9,18.8,18,18.8,18.1,18.7
				L18.1,18.7z M15,1.9c2.5,0,4.6,2.1,4.6,4.6v1L17.7,5h-7C11.4,3.1,13.1,1.9,15,1.9L15,1.9z M10.4,9.2V6.8h6.3l2.7,3.6
				c-0.7,2.4-3.2,3.9-5.6,3.2C11.8,13.1,10.4,11.3,10.4,9.2L10.4,9.2z M13.3,17.3v-2c1.2,0.3,2.4,0.3,3.5,0v2
				c-0.8,1-2.2,1.1-3.2,0.3C13.5,17.6,13.4,17.4,13.3,17.3L13.3,17.3z"/>
			<path id="Path_316" class="st0" d="M19.9,23l-2.6-0.7l0.5-1.8l2.6,0.7L19.9,23z"/>
			<path id="Path_317" class="st0" d="M23.9,22.2L23.4,24l-1.8-0.5l0.5-1.8L23.9,22.2z"/>
		</g>
	</g>
	<g class="st3">
		<path class="st0" d="M1303.3,4906.4v7.7h-1.3v-7.7H1303.3z M1311,4906.1v5.3c0,2-0.5,3.6-1.4,4.9c-1,1.3-2.5,2.2-4.6,2.8l-0.6-1.1
			c2-0.5,3.4-1.3,4.2-2.5c0.7-1,1.1-2.4,1.1-4.1v-5.2H1311z"/>
		<path class="st0" d="M1322.9,4914c-1.7,1.9-3.8,3.5-6.4,4.8l-0.8-1c4.5-2.1,7.6-5.4,9.5-9.8h-7.8v-1.2h8.7l0.8,0.5
			c-0.9,2.2-1.9,4.1-3.1,5.7c0.9,0.6,1.9,1.3,2.8,2.1c1.3,1,2.3,2,3.1,2.8l-1,0.8c-0.7-0.8-1.7-1.7-3-2.7
			C1324.7,4915.3,1323.8,4914.6,1322.9,4914L1322.9,4914z"/>
		<path class="st0" d="M1338.3,4905.7c-0.2,0.6-0.5,1.2-0.8,1.8h5.4l0.8,0.4c-0.4,2.6-1.4,4.9-2.9,6.7c-1.5,1.9-3.5,3.3-5.9,4.3
			l-0.7-1.1c2.1-0.8,3.8-2,5.1-3.4c1.4-1.6,2.4-3.5,2.9-5.7h-5.4c-0.2,0.4-0.4,0.7-0.7,1.1c-0.9,1.2-1.9,2.3-3.1,3.2l-0.9-0.8
			c1.1-0.9,2.1-2,3-3.2c0.8-1.2,1.5-2.4,1.9-3.7L1338.3,4905.7z"/>
		<path class="st0" d="M1360.3,4906.7l0.7,0.7c-0.7,1.2-1.5,2.5-2.7,3.9c-1,1.3-2,2.4-3,3.4c1.2,1.1,2.4,2.3,3.5,3.5l-1,0.8
			c-1-1.2-2.3-2.5-3.8-3.8c-1.5-1.3-2.9-2.4-4.1-3.2l0.8-0.9c1.2,0.8,2.4,1.7,3.7,2.8c0.9-0.9,1.7-1.8,2.5-2.8
			c0.9-1.2,1.7-2.2,2.3-3.3H1348v-1.2H1360.3z"/>
		<path class="st0" d="M1371.2,4905.2v2.1h3.8l0.8,0.6c-1.1,1.9-2.7,3.6-4.6,5.1v5.9h-1.2v-5c-1.5,1-3.2,1.9-5.1,2.7l-0.6-1.1
			c2-0.8,3.8-1.8,5.4-3c1.7-1.2,3.2-2.6,4.2-4.1h-8.8v-1.2h4.8v-2.1H1371.2z M1375.2,4914.1c0.9,0.5,1.7,1.1,2.5,1.6l-0.8,1
			c-0.8-0.5-1.6-1.1-2.5-1.6c-1-0.6-1.9-1.1-2.5-1.4l0.7-1C1373.3,4913,1374.1,4913.5,1375.2,4914.1z"/>
		<path class="st0" d="M1385.4,4911.5l-0.6,1.1c-1.4-0.8-2.9-1.4-4.6-1.8l0.5-1.1C1382.3,4910,1383.8,4910.7,1385.4,4911.5z
			 M1392.8,4909.6c-0.9,2.2-2.3,4.1-4.2,5.7c-2,1.8-4.3,3-6.9,3.6l-0.6-1.2c2.4-0.6,4.6-1.7,6.5-3.3c1.8-1.5,3.1-3.3,4-5.3
			L1392.8,4909.6z M1386.8,4908l-0.7,1c-1.2-0.8-2.7-1.4-4.6-1.9l0.5-1.1C1383.9,4906.5,1385.5,4907.1,1386.8,4908z M1391.8,4907.9
			l-0.7,0.5c-0.5-0.8-1.1-1.5-1.7-2.1l0.7-0.5C1390.8,4906.4,1391.4,4907.1,1391.8,4907.9z M1393.4,4906.8l-0.7,0.5
			c-0.5-0.8-1-1.5-1.7-2.1l0.6-0.5C1392.4,4905.3,1393,4906,1393.4,4906.8z"/>
		<path class="st0" d="M1403.4,4911.3c0.8-1.5,1.5-3.4,2.1-5.5l1.2,0.3c-0.6,2.3-1.4,4.2-2.3,5.9c1.6,1.1,3.2,2.4,4.7,3.9l-0.9,0.9
			c-1.5-1.4-3-2.6-4.4-3.7c-0.1,0.2-0.2,0.4-0.4,0.5c-1.6,2.3-3.6,4-6.1,5.2l-0.8-1c2.4-1.2,4.4-2.8,5.9-4.9
			c0.1-0.2,0.2-0.4,0.4-0.5c-1.5-1-3.1-1.8-4.8-2.6l0.6-1.1C1400.3,4909.5,1401.9,4910.3,1403.4,4911.3z"/>
		<path class="st0" d="M1417.7,4909.3l-0.8,1c-1.8-1.3-3.3-2.3-4.5-3l0.6-1.1C1414.3,4906.9,1415.9,4908,1417.7,4909.3z
			 M1424.9,4909.3c-1.1,2.4-2.5,4.5-4.3,6.1c-1.9,1.7-4.2,2.9-6.9,3.6l-0.6-1.1c2.5-0.6,4.6-1.7,6.5-3.3c1.8-1.5,3.2-3.4,4.1-5.7
			L1424.9,4909.3z"/>
		<path class="st0" d="M1432.9,4905.5v5.1c1.2,0.2,2.5,0.5,3.8,1c1.2,0.4,2.4,0.9,3.5,1.4l-0.5,1.1c-1-0.5-2.1-0.9-3.2-1.3
			c-1.3-0.4-2.4-0.7-3.6-0.9v7.2h-1.3v-13.5H1432.9z"/>
	</g>
	<g class="st3">
		<path class="st0" d="M1310.8,5052.4v7.7h-1.3v-7.7H1310.8z M1318.5,5052.1v5.3c0,2-0.5,3.6-1.4,4.9c-1,1.3-2.5,2.2-4.6,2.8
			l-0.6-1.1c2-0.5,3.4-1.3,4.2-2.5c0.7-1,1.1-2.4,1.1-4.1v-5.2H1318.5z"/>
		<path class="st0" d="M1335.8,5052.5l0.7,0.6c-0.6,1.2-1.2,2.2-1.9,3c-0.8,1-1.6,1.9-2.6,2.6l-0.9-0.9c1.7-1.3,2.9-2.7,3.7-4.2
			h-10.6v-1.2H1335.8z M1330.4,5055.3v2.2c0,1.8-0.3,3.2-1,4.4c-0.7,1.3-1.8,2.3-3.3,3l-0.8-1c1.3-0.7,2.3-1.5,2.9-2.5
			c0.6-1,0.9-2.3,0.9-3.9v-2.2H1330.4z"/>
		<path class="st0" d="M1343.5,5052.5v4.9c0,1.9-0.2,3.3-0.7,4.4c-0.5,1.1-1.4,2.1-2.7,3l-0.8-0.9c1.1-0.9,1.9-1.8,2.3-2.7
			c0.4-0.9,0.6-2.2,0.6-3.8v-4.9H1343.5z M1348,5052.1v10.7c1.8-1.2,3.3-2.8,4.6-4.7l1,0.7c-0.8,1.1-1.7,2.2-2.7,3.2
			c-1.1,1-2.2,1.8-3.3,2.4l-0.8-0.4v-11.9H1348z"/>
		<path class="st0" d="M1361.8,5051.7c-0.2,0.5-0.4,1.1-0.7,1.6h5.4l0.8,0.4c-0.4,2.5-1.4,4.7-2.9,6.7c-1.6,2-3.6,3.5-6,4.5
			l-0.7-1.1c2.2-0.9,4-2.1,5.4-3.8c0-0.1,0.1-0.1,0.1-0.2c-0.4-0.3-0.9-0.7-1.5-1c-0.9-0.6-1.7-1-2.4-1.4l0.7-0.9
			c0.7,0.4,1.5,0.8,2.4,1.3c0.5,0.3,1,0.6,1.5,1c0.9-1.3,1.5-2.8,1.9-4.4h-5.4c-0.3,0.4-0.5,0.9-0.8,1.3c-0.9,1.2-1.9,2.3-3.1,3.2
			l-0.8-0.8c1.1-0.9,2.1-2,3-3.2c0.8-1.2,1.5-2.4,1.9-3.7L1361.8,5051.7z"/>
		<path class="st0" d="M1383.3,5052.3c-1.2,1.3-2.7,2.6-4.4,3.9v8.7h-1.2v-7.8c-1.9,1.3-3.7,2.3-5.6,3.1l-0.7-1.1
			c1.9-0.8,3.9-1.9,5.9-3.4c2-1.4,3.7-2.8,5-4.2L1383.3,5052.3z"/>
		<path class="st0" d="M1400.8,5064.6l-1.1,0.6c-0.4-0.7-0.7-1.3-1-1.9c-3,0.4-6.8,0.7-11.4,0.9l0-1.2l1.5-0.1
			c1.2-3.2,2.6-7.1,4.3-11.6l1.2,0.4c-1.3,3.4-2.7,7.1-4.1,11.1c3.1-0.2,5.8-0.4,8-0.7l-0.5-0.8c-0.9-1.4-1.6-2.6-2.4-3.5l1-0.7
			C1397.5,5058.8,1399.1,5061.3,1400.8,5064.6z"/>
		<path class="st0" d="M1406.4,5052c-0.6,2.3-0.9,4.6-0.9,6.9c0,2.1,0.3,4,0.9,5.5l-1.1,0.4c-0.7-1.7-1-3.7-1-5.9
			c0-2.4,0.3-4.8,0.9-7.2L1406.4,5052z M1410,5059.1c-0.6,0.9-0.9,1.7-0.9,2.3c0,0.6,0.4,1,1.1,1.2c0.6,0.2,1.6,0.4,3,0.4
			c1,0,2.1-0.1,3.3-0.2l0.1,1.2c-1.5,0.1-2.6,0.2-3.4,0.2c-1.8,0-3.1-0.2-4-0.6c-0.9-0.4-1.3-1.1-1.3-2.1c0-0.8,0.3-1.7,1-2.9
			L1410,5059.1z M1415.9,5054.6c-2.7,0-5.3,0.1-7.7,0.3l-0.2-1.2c2.6-0.2,5.2-0.3,7.9-0.3L1415.9,5054.6z"/>
	</g>
	<g class="st3">
		<path class="st0" d="M1333.4,5089.8c-0.4,1.3-0.9,2.4-1.6,3.3l-1-0.6c0.7-0.9,1.1-1.9,1.4-2.9L1333.4,5089.8z M1331.8,5080.9v-1
			h5.5c-0.1-0.4-0.3-0.7-0.5-0.9l1.2-0.2c0.2,0.3,0.3,0.7,0.5,1.1h5.6v1h-2.6l-0.6,1.3h4v1h-13.9v-1h3.8l-0.5-1.3H1331.8z
			 M1343.1,5084.1v4.7h-10.2v-4.7H1343.1z M1342,5086v-1h-8v1H1342z M1342,5086.9h-8v1.1h8V5086.9z M1336.3,5093.3
			c-1.1,0-1.6-0.5-1.6-1.5v-2.1h1.2v1.9c0,0.4,0.3,0.7,0.8,0.7h3.4c0.4,0,0.6-0.1,0.7-0.2c0.2-0.2,0.3-0.7,0.4-1.5l1.1,0.4
			c-0.1,1.1-0.3,1.8-0.7,2c-0.3,0.2-0.7,0.3-1.3,0.3H1336.3z M1339.8,5082.2l0.6-1.3h-4.8l0.5,1.3H1339.8z M1339.7,5091l-1,0.7
			c-0.4-0.6-0.9-1.2-1.6-1.9l1-0.6C1338.9,5089.8,1339.4,5090.4,1339.7,5091z M1345.3,5092.3l-1,0.7c-0.5-0.9-1.2-1.8-2-2.9l0.9-0.6
			C1344.1,5090.5,1344.8,5091.5,1345.3,5092.3z"/>
		<path class="st0" d="M1349.6,5088.5c-0.5,1.8-1.1,3.3-2,4.6l-1-0.6c0.8-1.3,1.5-2.7,1.9-4.2L1349.6,5088.5z M1359,5079.5v7.4h-10
			v-7.4H1359z M1353.4,5082.7v-2.1h-3.3v2.1H1353.4z M1353.4,5083.7h-3.3v2.1h3.3V5083.7z M1352.2,5093.4c-1.1,0-1.6-0.6-1.6-1.7
			v-3.5h1.1v3.2c0,0.6,0.3,0.9,0.9,0.9h3.5c0.4,0,0.6-0.1,0.7-0.3c0.2-0.2,0.3-0.9,0.4-1.9l1.1,0.4c-0.1,1.4-0.3,2.3-0.7,2.6
			c-0.3,0.3-0.7,0.4-1.3,0.4H1352.2z M1355.9,5090.3l-1.1,0.5c-0.5-1.1-1-2.1-1.6-2.9l1-0.3
			C1354.9,5088.4,1355.4,5089.3,1355.9,5090.3z M1354.5,5082.7h3.3v-2.1h-3.3V5082.7z M1357.8,5083.7h-3.3v2.1h3.3V5083.7z
			 M1361.3,5092.1l-1,0.5c-0.7-1.6-1.5-3.1-2.4-4.3l1.1-0.4C1359.8,5089.2,1360.6,5090.6,1361.3,5092.1z"/>
		<path class="st0" d="M1366.5,5087.8c-0.8,2-1.7,3.9-2.7,5.7l-1.1-0.5c1.1-1.8,2-3.7,2.8-5.6L1366.5,5087.8z M1366.2,5085.2
			l-0.8,0.8c-0.6-0.7-1.5-1.5-2.7-2.3l0.8-0.8C1364.6,5083.7,1365.5,5084.5,1366.2,5085.2z M1366.7,5081.4l-0.8,0.8
			c-0.7-0.7-1.6-1.5-2.8-2.3l0.8-0.8C1365,5079.9,1366,5080.7,1366.7,5081.4z M1370.9,5081.3v-2.4h1.1v2.4h3.6v4.7h1.4v1.1h-4.8
			c1,2.3,2.7,4.1,5,5.5l-0.8,0.9c-2.3-1.6-4-3.6-5.1-6c-0.8,2.8-2.4,4.8-4.9,6.1l-0.7-0.9c2.4-1.1,3.9-3,4.6-5.6h-3.5v-1.1h3.7
			c0.1-0.7,0.2-1.5,0.2-2.3v-1.3h-3.2v-1.1H1370.9z M1372.1,5083.4c0,0.9-0.1,1.8-0.2,2.6h2.7v-3.6h-2.5V5083.4z"/>
		<path class="st0" d="M1390.7,5083.7v1.1h-4.1v2.8h4.8v1.1h-4.8v3.3c1.1,0.2,2.5,0.3,4.1,0.3c0.8,0,1.6,0,2.5-0.1l-0.2,1.2h-1.8
			c-3.2,0-5.5-0.3-6.9-0.9c-1.1-0.5-1.9-1.3-2.6-2.3c-0.6,1.4-1.4,2.5-2.3,3.5l-0.7-0.9c1.5-1.6,2.6-3.8,3.1-6.6l1.1,0.2
			c-0.2,1-0.4,1.9-0.7,2.7c0.8,1.4,1.7,2.2,2.9,2.6c0.1,0,0.3,0.1,0.5,0.1v-7h-4.2v-1.1H1390.7z M1392.5,5084h-1.1v-2.4h-10.9v2.4
			h-1.1v-3.5h6.1c-0.2-0.6-0.5-1.1-0.8-1.6l1.2-0.2c0.3,0.5,0.5,1.1,0.7,1.8h5.8V5084z"/>
	</g>
	<g class="st3">
		<path class="st0" d="M1134.8,5219.5l-0.7,9.2h3v1.2h-13.3v-1.2h9l0.6-8.1h-8.1v-1.2H1134.8z"/>
		<path class="st0" d="M1152.5,5223.6v1.2h-11.9v-1.2H1152.5z"/>
		<path class="st0" d="M1158.7,5220.7v-3.2h1.2v3.2h5v-3.4h1.2v3.4h3.3v1.2h-3.3v2c0,1.8-0.4,3.2-1.1,4.4c-0.8,1.2-2.1,2.1-3.9,2.8
			l-0.7-1c1.6-0.6,2.8-1.4,3.5-2.3c0.7-0.9,1-2.2,1-3.8v-2h-5v3.8h-1.2v-3.8h-3.1v-1.2H1158.7z M1168.9,5219.6l-0.7,0.5
			c-0.5-0.8-1-1.5-1.7-2.1l0.6-0.5C1167.9,5218.1,1168.5,5218.8,1168.9,5219.6z M1170.4,5218.5l-0.7,0.5c-0.5-0.8-1-1.5-1.7-2.1
			l0.6-0.5C1169.4,5217.1,1169.9,5217.8,1170.4,5218.5z"/>
		<path class="st0" d="M1184.5,5223.6v1.2h-11.9v-1.2H1184.5z"/>
		<path class="st0" d="M1199.8,5219.6v1.2h-4.7v8h5.8v1.2h-12.8v-1.2h5.8v-8h-4.7v-1.2H1199.8z"/>
		<path class="st0" d="M1210.3,5217.7c-0.2,0.6-0.5,1.2-0.8,1.8h5.4l0.8,0.4c-0.4,2.6-1.4,4.9-2.9,6.7c-1.5,1.9-3.5,3.3-5.9,4.3
			l-0.7-1.1c2.1-0.8,3.8-2,5.1-3.4c1.4-1.6,2.4-3.5,2.9-5.7h-5.4c-0.2,0.4-0.4,0.7-0.7,1.1c-0.9,1.2-1.9,2.3-3.1,3.2l-0.9-0.8
			c1.1-0.9,2.1-2,3-3.2c0.8-1.2,1.5-2.4,1.9-3.7L1210.3,5217.7z"/>
		<path class="st0" d="M1226.9,5226c-1.7,1.9-3.8,3.5-6.4,4.8l-0.8-1c4.5-2.1,7.6-5.4,9.5-9.8h-7.8v-1.2h8.7l0.8,0.5
			c-0.9,2.2-1.9,4.1-3.1,5.7c0.9,0.6,1.9,1.3,2.8,2.1c1.3,1,2.3,2,3.1,2.8l-1,0.8c-0.7-0.8-1.7-1.7-3-2.7
			C1228.7,5227.3,1227.8,5226.6,1226.9,5226L1226.9,5226z"/>
		<path class="st0" d="M1241.4,5220.1c0.3,0.1,0.6,0.4,1,0.8c2.8,3,5.3,5.5,7.5,7.5l-0.9,1c-2.4-2.1-4.9-4.6-7.4-7.5
			c-0.3-0.3-0.4-0.5-0.6-0.6c-0.1-0.1-0.2-0.2-0.3-0.2c-0.2,0-0.3,0.1-0.5,0.4c-1.4,1.7-2.8,3.3-4.2,4.8l-1-0.9
			c1.3-1.3,2.7-2.9,4.3-4.7c0.4-0.6,0.9-0.8,1.4-0.8C1241,5219.9,1241.2,5220,1241.4,5220.1z M1247.4,5218.7
			c0.3,0.3,0.5,0.7,0.5,1.2c0,0.5-0.2,0.9-0.5,1.2c-0.3,0.3-0.7,0.5-1.2,0.5c-0.5,0-0.9-0.2-1.2-0.5c-0.3-0.3-0.5-0.7-0.5-1.2
			c0-0.5,0.2-0.9,0.5-1.2c0.3-0.3,0.7-0.5,1.2-0.5C1246.6,5218.2,1247,5218.4,1247.4,5218.7z M1245.5,5219.2
			c-0.2,0.2-0.3,0.4-0.3,0.7s0.1,0.5,0.3,0.7s0.4,0.3,0.7,0.3c0.3,0,0.5-0.1,0.7-0.3c0.2-0.2,0.3-0.4,0.3-0.7s-0.1-0.5-0.3-0.7
			c-0.2-0.2-0.4-0.3-0.7-0.3C1245.9,5218.9,1245.7,5219,1245.5,5219.2z"/>
	</g>
	<g class="st3">
		<path class="st0" d="M1159.3,5246.4v7.7h-1.3v-7.7H1159.3z M1167,5246.1v5.3c0,2-0.5,3.6-1.4,4.9c-1,1.3-2.5,2.2-4.6,2.8l-0.6-1.1
			c2-0.5,3.4-1.3,4.2-2.5c0.7-1,1.1-2.4,1.1-4.1v-5.2H1167z"/>
		<path class="st0" d="M1183.8,5247.6v1.2h-4.7v8h5.8v1.2h-12.8v-1.2h5.8v-8h-4.7v-1.2H1183.8z"/>
		<path class="st0" d="M1193.7,5249.3l-0.8,1c-1.8-1.3-3.3-2.3-4.5-3l0.6-1.1C1190.3,5246.9,1191.9,5248,1193.7,5249.3z
			 M1200.9,5249.3c-1.1,2.4-2.5,4.5-4.3,6.1c-1.9,1.7-4.2,2.9-6.9,3.6l-0.6-1.1c2.5-0.6,4.6-1.7,6.5-3.3c1.8-1.5,3.2-3.4,4.1-5.7
			L1200.9,5249.3z"/>
		<path class="st0" d="M1210.9,5254c-1.7,1.9-3.8,3.5-6.4,4.8l-0.8-1c4.5-2.1,7.6-5.4,9.5-9.8h-7.8v-1.2h8.7l0.8,0.5
			c-0.9,2.2-1.9,4.1-3.1,5.7c0.9,0.6,1.9,1.3,2.8,2.1c1.3,1,2.3,2,3.1,2.8l-1,0.8c-0.7-0.8-1.7-1.7-3-2.7
			C1212.7,5255.3,1211.8,5254.6,1210.9,5254L1210.9,5254z"/>
	</g>
	<g class="st3">
		<path class="st0" d="M1321.5,5222.4v1.2h-5.8c-0.1,1.7-0.4,3.1-1,4.2c-0.7,1.2-1.9,2.3-3.6,3.3l-0.8-0.9c1.5-0.8,2.6-1.8,3.2-2.9
			c0.5-0.9,0.8-2.2,0.9-3.7h-6.1v-1.2H1321.5z M1319.2,5218.5v1.2h-9.5v-1.2H1319.2z M1321.1,5219.3l-0.7,0.5
			c-0.5-0.8-1-1.5-1.7-2.1l0.6-0.5C1320.1,5217.8,1320.7,5218.5,1321.1,5219.3z M1322.8,5218.6l-0.7,0.5c-0.5-0.8-1.1-1.5-1.7-2.1
			l0.6-0.5C1321.8,5217.1,1322.4,5217.8,1322.8,5218.6z"/>
		<path class="st0" d="M1337,5223.6v1.2h-11.9v-1.2H1337z"/>
		<path class="st0" d="M1346.8,5217.7c-0.2,0.5-0.4,1.1-0.7,1.6h5.4l0.8,0.4c-0.4,2.5-1.4,4.7-2.9,6.7c-1.6,2-3.6,3.5-6,4.5
			l-0.7-1.1c2.2-0.9,4-2.1,5.4-3.8c0-0.1,0.1-0.1,0.1-0.2c-0.4-0.3-0.9-0.7-1.5-1c-0.9-0.6-1.7-1-2.4-1.4l0.7-0.9
			c0.7,0.4,1.5,0.8,2.4,1.3c0.5,0.3,1,0.6,1.5,1c0.9-1.3,1.5-2.8,1.9-4.4h-5.4c-0.3,0.4-0.5,0.9-0.8,1.3c-0.9,1.2-1.9,2.3-3.1,3.2
			l-0.8-0.8c1.1-0.9,2.1-2,3-3.2c0.8-1.2,1.5-2.4,1.9-3.7L1346.8,5217.7z"/>
		<path class="st0" d="M1368.8,5218.5l0.7,0.6c-0.6,1.2-1.2,2.2-1.9,3c-0.8,1-1.6,1.9-2.6,2.6l-0.9-0.9c1.7-1.3,2.9-2.7,3.7-4.2
			h-10.6v-1.2H1368.8z M1363.4,5221.3v2.2c0,1.8-0.3,3.2-1,4.4c-0.7,1.3-1.8,2.3-3.3,3l-0.8-1c1.3-0.7,2.3-1.5,2.9-2.5
			c0.6-1,0.9-2.3,0.9-3.9v-2.2H1363.4z"/>
		<path class="st0" d="M1385,5223.6v1.2h-11.9v-1.2H1385z"/>
		<path class="st0" d="M1394.4,5220.4c0.1-0.9,0.1-1.9,0.1-3h1.2c0,1.1-0.1,2.1-0.1,3h5.2l-0.2,5.8c-0.1,1.6-0.3,2.7-0.7,3.3
			c-0.5,0.7-1.2,1.1-2.3,1.1c-0.6,0-1.3-0.1-2-0.2v-1.2c0.7,0.1,1.4,0.2,2,0.2c0.6,0,1-0.3,1.3-0.8c0.3-0.5,0.4-1.4,0.5-2.6l0.2-4.5
			h-4.1c-0.1,0.6-0.1,1.1-0.2,1.5c-0.3,1.7-0.8,3.2-1.6,4.3c-0.9,1.3-2.2,2.4-3.9,3.4l-0.8-0.9c1.2-0.7,2.2-1.5,2.9-2.3
			c0.8-0.9,1.3-2,1.7-3.1c0.2-0.7,0.4-1.6,0.5-2.8h-4.7v-1.2H1394.4z"/>
		<path class="st0" d="M1416.3,5218.3c-1.2,1.3-2.7,2.6-4.4,3.9v8.7h-1.2v-7.8c-1.9,1.3-3.7,2.3-5.6,3.1l-0.7-1.1
			c1.9-0.8,3.9-1.9,5.9-3.4c2-1.4,3.7-2.8,5-4.2L1416.3,5218.3z"/>
		<path class="st0" d="M1431.4,5219.1l0.7,0.5c-0.6,2.7-1.6,4.9-2.9,6.7c-1.5,2-3.4,3.6-5.8,4.6l-0.8-1c2.1-1,3.8-2.3,5.2-4
			c1.3-1.6,2.2-3.5,2.9-5.8h-9.9v-1.2H1431.4z M1433.3,5219.4l-0.7,0.5c-0.5-0.8-1-1.5-1.7-2.1l0.6-0.5
			C1432.3,5217.9,1432.9,5218.7,1433.3,5219.4z M1434.9,5218.5l-0.7,0.5c-0.5-0.8-1-1.5-1.7-2.1l0.6-0.5
			C1433.9,5217,1434.4,5217.8,1434.9,5218.5z"/>
	</g>
	<g class="st3">
		<path class="st0" d="M1138.3,4898.7c-0.2,0.5-0.4,1.1-0.7,1.6h5.4l0.8,0.4c-0.4,2.5-1.4,4.7-2.9,6.7c-1.6,2-3.6,3.5-6,4.5
			l-0.7-1.1c2.2-0.9,4-2.1,5.4-3.8c0-0.1,0.1-0.1,0.1-0.2c-0.4-0.3-0.9-0.7-1.5-1c-0.9-0.6-1.7-1-2.4-1.4l0.7-0.9
			c0.7,0.4,1.5,0.8,2.4,1.3c0.5,0.3,1,0.6,1.5,1c0.9-1.3,1.5-2.8,1.9-4.4h-5.4c-0.3,0.4-0.5,0.9-0.8,1.3c-0.9,1.2-1.9,2.3-3.1,3.2
			l-0.8-0.8c1.1-0.9,2.1-2,3-3.2c0.8-1.2,1.5-2.4,1.9-3.7L1138.3,4898.7z M1144.2,4899.6l-0.7,0.5c-0.5-0.8-1-1.5-1.7-2.1l0.6-0.5
			C1143.2,4898.1,1143.7,4898.8,1144.2,4899.6z M1146.3,4899.6l-0.7,0.5c-0.5-0.8-1-1.5-1.7-2.1l0.6-0.5
			C1145.3,4898.1,1145.9,4898.8,1146.3,4899.6z"/>
		<path class="st0" d="M1152.6,4906.4l-1,0.6c-0.6-1.2-1.3-2.3-2-3.4l1-0.6C1151.4,4904.3,1152,4905.4,1152.6,4906.4z
			 M1159.4,4902.8c-0.4,2.3-1.1,4.1-2.2,5.6c-1.1,1.5-2.7,2.7-4.7,3.5l-0.7-1c1.9-0.8,3.3-1.8,4.4-3.1c1-1.3,1.6-3,2-5.1
			L1159.4,4902.8z M1154.5,4903.9c0.4,0.5,0.7,1.1,0.9,1.6l-1,0.6c-0.5-1-1.2-2.1-2-3.4l1-0.6
			C1153.8,4902.8,1154.2,4903.4,1154.5,4903.9z"/>
		<path class="st0" d="M1169.4,4904.5l-0.6,1.1c-1.4-0.8-2.9-1.4-4.6-1.8l0.5-1.1C1166.3,4903,1167.8,4903.7,1169.4,4904.5z
			 M1176.8,4902.6c-0.9,2.2-2.3,4.1-4.2,5.7c-2,1.8-4.3,3-6.9,3.6l-0.6-1.2c2.4-0.6,4.6-1.7,6.5-3.3c1.8-1.5,3.1-3.3,4-5.3
			L1176.8,4902.6z M1170.8,4901l-0.7,1c-1.2-0.8-2.7-1.4-4.6-1.9l0.5-1.1C1167.9,4899.5,1169.5,4900.1,1170.8,4901z"/>
		<path class="st0" d="M1189.9,4903.2l-0.5,6.7h2.3v1.1h-10.3v-1.1h6.8l0.4-5.6h-6v-1.1H1189.9z"/>
		<path class="st0" d="M1199.8,4904.8c-0.8,2.3-1.9,4.3-3.2,5.9l-1.1-0.6c1.3-1.5,2.3-3.4,3.1-5.7L1199.8,4904.8z M1201.9,4901.4
			v-2.8h1.2v2.8h6v1.2h-6v7.5c0,0.6-0.1,1-0.4,1.3c-0.3,0.3-0.8,0.5-1.5,0.5c-0.4,0-1-0.1-1.8-0.2v-1.2c0.8,0.1,1.4,0.2,1.8,0.2
			c0.4,0,0.6-0.2,0.6-0.7v-7.4h-6v-1.2H1201.9z M1207.8,4907.2c0.6,1,1.1,2,1.6,3.1l-1.1,0.5c-0.4-1-1-2-1.6-3
			c-0.6-1-1.2-1.9-1.9-2.7l1-0.7C1206.5,4905.2,1207.2,4906.1,1207.8,4907.2z M1208.3,4900.4l-0.7,0.5c-0.5-0.8-1-1.5-1.7-2.1
			l0.6-0.5C1207.3,4898.9,1207.9,4899.7,1208.3,4900.4z M1210.2,4899.7l-0.7,0.5c-0.5-0.8-1-1.5-1.7-2.2l0.6-0.5
			C1209.2,4898.3,1209.7,4899,1210.2,4899.7z"/>
		<path class="st0" d="M1224.5,4904.6v1.2h-11.9v-1.2H1224.5z"/>
		<path class="st0" d="M1232.9,4898.5v5.1c1.2,0.2,2.5,0.5,3.8,1c1.2,0.4,2.4,0.9,3.5,1.4l-0.5,1.1c-1-0.5-2.1-0.9-3.2-1.3
			c-1.3-0.4-2.4-0.7-3.6-0.9v7.2h-1.3v-13.5H1232.9z M1239.2,4901.9l-0.7,0.5c-0.5-0.8-1-1.5-1.7-2.1l0.6-0.5
			C1238.1,4900.4,1238.7,4901.1,1239.2,4901.9z M1240.8,4900.8l-0.7,0.5c-0.5-0.8-1-1.5-1.7-2.1l0.6-0.5
			C1239.8,4899.3,1240.3,4900.1,1240.8,4900.8z"/>
	</g>
	<g class="st3">
		<path class="st0" d="M1144,5064.3c-0.8,0-1.8-0.2-3-0.5v-1.6c1.3,0.6,2.4,0.9,3.2,0.9c0.6,0,1.2-0.2,1.6-0.5
			c0.4-0.3,0.6-0.8,0.6-1.3c0-0.5-0.1-0.8-0.4-1.2s-0.7-0.7-1.4-1.1l-0.8-0.5c-1-0.6-1.7-1.1-2.1-1.6c-0.4-0.5-0.6-1.1-0.6-1.7
			c0-0.9,0.3-1.6,1-2.2c0.6-0.6,1.5-0.9,2.5-0.9c0.9,0,1.8,0.1,2.8,0.4v1.5c-1.2-0.5-2.1-0.7-2.7-0.7c-0.6,0-1,0.2-1.4,0.5
			c-0.4,0.3-0.6,0.7-0.6,1.1c0,0.4,0.1,0.7,0.4,1c0.3,0.3,0.8,0.7,1.5,1.1l0.8,0.5c1,0.6,1.7,1.1,2.1,1.6c0.4,0.5,0.6,1.1,0.6,1.8
			c0,1-0.4,1.8-1.1,2.4S1145.2,5064.3,1144,5064.3z"/>
		<path class="st0" d="M1160.6,5066.3c-1.8-0.6-3.3-1.3-4.6-2.1c-0.5,0.1-0.9,0.1-1.1,0.1c-1.6,0-2.8-0.6-3.8-1.7
			c-1-1.1-1.5-2.6-1.5-4.4c0-1.8,0.5-3.3,1.5-4.4c1-1.1,2.3-1.7,3.9-1.7c1.6,0,3,0.6,3.9,1.7c1,1.1,1.5,2.6,1.5,4.4
			c0,2.7-1,4.5-3,5.5c1.3,0.6,2.7,1,4.1,1.2L1160.6,5066.3z M1155,5063.1c1.2,0,2.1-0.4,2.7-1.3c0.6-0.8,1-2,1-3.6
			c0-1.5-0.3-2.7-1-3.5c-0.6-0.9-1.5-1.3-2.7-1.3c-1.2,0-2,0.4-2.7,1.3c-0.6,0.9-1,2-1,3.6c0,1.5,0.3,2.7,1,3.6
			S1153.9,5063.1,1155,5063.1z"/>
		<path class="st0" d="M1162.8,5064v-11.6h1.6v10.3h5.2v1.2H1162.8z"/>
	</g>
	<g class="st3">
		<path class="st0" d="M1183.6,5052.5l0.7,0.6c-0.6,1.2-1.2,2.2-1.9,3c-0.8,1-1.6,1.9-2.6,2.6l-0.9-0.9c1.7-1.3,2.9-2.7,3.7-4.2
			h-10.6v-1.2H1183.6z M1178.2,5055.3v2.2c0,1.8-0.3,3.2-1,4.4c-0.7,1.3-1.8,2.3-3.3,3l-0.8-1c1.3-0.7,2.3-1.5,2.9-2.5
			c0.6-1,0.9-2.3,0.9-3.9v-2.2H1178.2z"/>
		<path class="st0" d="M1192.2,5051.5v5.1c1.2,0.2,2.5,0.5,3.8,1c1.2,0.4,2.4,0.9,3.5,1.4l-0.5,1.1c-1-0.5-2.1-0.9-3.2-1.3
			c-1.3-0.4-2.4-0.7-3.6-0.9v7.2h-1.3v-13.5H1192.2z M1198.5,5054.9l-0.7,0.5c-0.5-0.8-1-1.5-1.7-2.1l0.6-0.5
			C1197.4,5053.4,1198,5054.1,1198.5,5054.9z M1200.1,5053.8l-0.7,0.5c-0.5-0.8-1-1.5-1.7-2.1l0.6-0.5
			C1199,5052.3,1199.6,5053,1200.1,5053.8z"/>
		<path class="st0" d="M1207.1,5057.8c-0.8,2.3-1.9,4.3-3.2,5.9l-1.1-0.6c1.3-1.5,2.3-3.4,3.1-5.7L1207.1,5057.8z M1210.4,5051.6
			v2.8h6v1.2h-6v7.5c0,0.6-0.1,1-0.4,1.3c-0.3,0.3-0.8,0.5-1.5,0.5c-0.4,0-1-0.1-1.8-0.2v-1.2c0.8,0.1,1.4,0.2,1.8,0.2
			c0.4,0,0.6-0.2,0.6-0.7v-7.4h-6v-1.2h6v-2.8H1210.4z M1215.1,5060.2c0.6,1,1.1,2,1.6,3.1l-1.1,0.5c-0.4-1-1-2-1.6-3
			c-0.6-1-1.2-1.9-1.9-2.7l1-0.7C1213.8,5058.2,1214.5,5059.1,1215.1,5060.2z"/>
		<path class="st0" d="M1223.9,5059.4l-1,0.6c-0.6-1.2-1.3-2.3-2-3.4l1-0.6C1222.6,5057.2,1223.3,5058.4,1223.9,5059.4z
			 M1230.7,5055.8c-0.4,2.3-1.1,4.1-2.2,5.6c-1.1,1.5-2.7,2.7-4.7,3.5l-0.7-1c1.9-0.8,3.3-1.8,4.4-3.1c1-1.3,1.6-3,2-5.1
			L1230.7,5055.8z M1225.7,5056.8c0.4,0.5,0.7,1.1,0.9,1.6l-1,0.6c-0.5-1-1.2-2.1-2-3.4l1-0.6
			C1225.1,5055.8,1225.4,5056.3,1225.7,5056.8z"/>
	</g>
	<g class="st3">
		<path class="st0" d="M1162.8,5079.7c-0.2,0.6-0.5,1.2-0.8,1.8h5.4l0.8,0.4c-0.4,2.6-1.4,4.9-2.9,6.7c-1.5,1.9-3.5,3.3-5.9,4.3
			l-0.7-1.1c2.1-0.8,3.8-2,5.1-3.4c1.4-1.6,2.4-3.5,2.9-5.7h-5.4c-0.2,0.4-0.4,0.7-0.7,1.1c-0.9,1.2-1.9,2.3-3.1,3.2l-0.9-0.8
			c1.1-0.9,2.1-2,3-3.2c0.8-1.2,1.5-2.4,1.9-3.7L1162.8,5079.7z"/>
		<path class="st0" d="M1178.8,5079.7c-0.2,0.6-0.5,1.2-0.8,1.8h5.4l0.8,0.4c-0.4,2.6-1.4,4.9-2.9,6.7c-1.5,1.9-3.5,3.3-5.9,4.3
			l-0.7-1.1c2.1-0.8,3.8-2,5.1-3.4c1.4-1.6,2.4-3.5,2.9-5.7h-5.4c-0.2,0.4-0.4,0.7-0.7,1.1c-0.9,1.2-1.9,2.3-3.1,3.2l-0.9-0.8
			c1.1-0.9,2.1-2,3-3.2c0.8-1.2,1.5-2.4,1.9-3.7L1178.8,5079.7z"/>
		<path class="st0" d="M1200.3,5081.6v1.2h-4.7v8h5.8v1.2h-12.8v-1.2h5.8v-8h-4.7v-1.2H1200.3z"/>
		<path class="st0" d="M1207.8,5080.4v7.7h-1.3v-7.7H1207.8z M1215.5,5080.1v5.3c0,2-0.5,3.6-1.4,4.9c-1,1.3-2.5,2.2-4.6,2.8
			l-0.6-1.1c2-0.5,3.4-1.3,4.2-2.5c0.7-1,1.1-2.4,1.1-4.1v-5.2H1215.5z"/>
	</g>
</g>
</svg>
