<svg xmlns="http://www.w3.org/2000/svg" width="711" height="406" viewBox="0 0 711 406">
  <g id="Group_2359" data-name="Group 2359" transform="translate(-43 -9934)">
    <g id="Group_2358" data-name="Group 2358" transform="translate(0 -25)">
      <g id="Group_2198" data-name="Group 2198" transform="translate(0 58)">
        <g id="Rectangle_2591" data-name="Rectangle 2591" transform="translate(61 9922)" fill="none" stroke="#3f3d56" stroke-linecap="square" stroke-width="2" stroke-dasharray="6">
          <rect width="693" height="385" stroke="none"/>
          <rect x="1" y="1" width="691" height="383" fill="none"/>
        </g>
        <g id="Rectangle_2593" data-name="Rectangle 2593" transform="translate(43 9901)" fill="#fff" stroke="#707070" stroke-width="2">
          <rect width="694" height="389" stroke="none"/>
          <rect x="1" y="1" width="692" height="387" fill="none"/>
        </g>
        <g id="Group_43" data-name="Group 43" transform="translate(120.47 10119.73)">
          <path id="Path_334" data-name="Path 334" d="M3159.785,311.634l3.432,1.947,3.808-1.947V314.8l1.605,1.75-.976,2.008-2.318,1.383h-3.015l-2.541-1.047-1.507-1.943,1.507-2.15Z" transform="translate(-3142.471 -265.968)" fill="#ff6584"/>
          <circle id="Ellipse_21" data-name="Ellipse 21" cx="12.15" cy="12.15" r="12.15" transform="translate(36.45 7.732)" fill="#ff6584"/>
          <g id="thinking">
            <path id="Path_329" data-name="Path 329" d="M3161.839,321.921h2.209v2.209h-2.209Z" transform="translate(-3141.957 -264.485)" fill="#3f3d56"/>
            <path id="Path_330" data-name="Path 330" d="M3161.839,325.782h2.209v2.209h-2.209Z" transform="translate(-3141.957 -263.928)" fill="#3f3d56"/>
            <path id="Path_331" data-name="Path 331" d="M3188.608,277.517a13.254,13.254,0,1,0,13.254,13.255A13.255,13.255,0,0,0,3188.608,277.517Zm0,24.3a11.046,11.046,0,1,1,11.046-11.045A11.045,11.045,0,0,1,3188.608,301.817Z" transform="translate(-3140.006 -270.89)" fill="#3f3d56"/>
            <path id="Path_332" data-name="Path 332" d="M3187.771,283.309a6.627,6.627,0,1,0,6.628,6.627A6.628,6.628,0,0,0,3187.771,283.309Zm0,11.045a4.418,4.418,0,1,1,4.419-4.418A4.418,4.418,0,0,1,3187.771,294.354Z" transform="translate(-3139.171 -270.054)" fill="#3f3d56"/>
            <path id="Path_333" data-name="Path 333" d="M3212.945,295.8v-8.377l-2.91-.684a17.508,17.508,0,0,0-1.525-3.681l1.573-2.54-5.923-5.927-2.541,1.576a17.5,17.5,0,0,0-3.68-1.525l-.688-2.911h-8.376l-.685,2.911a17.533,17.533,0,0,0-3.681,1.525l-2.54-1.576-5.926,5.924,1.574,2.54a17.439,17.439,0,0,0-1.525,3.681l-2.912.688v5.771a5.457,5.457,0,0,0-2.208-.478,5.341,5.341,0,0,0-1.044.11,5.492,5.492,0,0,0-8.959,0,5.309,5.309,0,0,0-1.042-.11,5.53,5.53,0,0,0-5.485,4.878,5.5,5.5,0,0,0-2.071,8.586,4.418,4.418,0,0,0,3.137,7.522h1.922a14.848,14.848,0,0,0,3.6,4.249v1.373a2.219,2.219,0,0,1-1.274,2l-7.011,3.274a14.407,14.407,0,0,0-8.284,13.011v2.6h41.973v-2.6a14.411,14.411,0,0,0-8.284-13.011l-7.01-3.274a2.219,2.219,0,0,1-1.275-2v-1.373a14.851,14.851,0,0,0,3.6-4.249h1.921a4.42,4.42,0,0,0,3.138-7.523,5.412,5.412,0,0,0,.413-.571l3.023,3.024,2.541-1.577c.19.1.391.2.591.3a3.289,3.289,0,0,0-1.114,5.237,3.282,3.282,0,0,0,1.408,5.339,7.732,7.732,0,0,0,15.344,0,3.284,3.284,0,0,0,1.407-5.339,3.29,3.29,0,0,0-1.118-5.237c.2-.1.4-.2.59-.3l2.541,1.577,5.924-5.924-1.574-2.54a17.515,17.515,0,0,0,1.525-3.681Zm-57.148,3.654.859-.221-.027-.883c0-.064-.005-.126-.014-.111a3.278,3.278,0,0,1,4.479-3.092l.944.356.442-.909a3.288,3.288,0,0,1,5.943,0l.442.909.944-.356a3.28,3.28,0,0,1,4.477,3.016l-.047,1.079.859.221a3.276,3.276,0,0,1,1.452,5.582,4.319,4.319,0,0,0-1.16-.179v-2.208h-2.65a12.021,12.021,0,0,1-6.684-2.024l-.606-.406-.613.408a12.013,12.013,0,0,1-6.683,2.022h-2.646v2.208a4.336,4.336,0,0,0-1.162.176,3.277,3.277,0,0,1,1.451-5.589Zm-.289,12.04a2.209,2.209,0,0,1,0-4.418h.024a14.56,14.56,0,0,0,.884,4.418Zm28.719,26.115V338h-4.418v-6.628H3177.6V338h-24.3v-6.628h-2.209V338h-4.418V337.6a12.192,12.192,0,0,1,7.011-11.01l6.115-2.856a6.572,6.572,0,0,0,11.3,0l6.115,2.856A12.192,12.192,0,0,1,3184.226,337.6Zm-15.045-14.952a4.374,4.374,0,0,1-7.462,0,4.439,4.439,0,0,0,1.516-3.24,14.554,14.554,0,0,0,1.828.843l.388.144.388-.145a14.392,14.392,0,0,0,1.827-.843A4.439,4.439,0,0,0,3169.181,322.652Zm-3.731-4.618a12.575,12.575,0,0,1-7.731-11.564v-1.609h.442a14.236,14.236,0,0,1,14.58,0h.44v1.609A12.574,12.574,0,0,1,3165.449,318.034Zm9.941-6.545h-.9a14.6,14.6,0,0,0,.884-4.418h.019a2.209,2.209,0,1,1,0,4.418Zm24.3-2.209a1.1,1.1,0,0,1,0,2.209h-13.255a1.1,1.1,0,0,1,0-2.209Zm-6.628,13.255a5.533,5.533,0,0,1-5.412-4.418h10.824A5.533,5.533,0,0,1,3193.063,322.534Zm6.628-6.628h-13.255a1.1,1.1,0,0,1,0-2.208h13.255a1.1,1.1,0,0,1,0,2.208Zm8.536-21.27-.161.658a15.332,15.332,0,0,1-1.789,4.307l-.352.578,1.357,2.194-3.449,3.45-2.2-1.357-.578.351a15.478,15.478,0,0,1-1.815.932l-.664.291v1.031H3187.54v-1.026l-.662-.291a15.463,15.463,0,0,1-1.816-.933l-.578-.351-2.193,1.357-2.521-2.523a5.488,5.488,0,0,0-3.314-5.714,5.48,5.48,0,0,0-1.066-2.651v-5.771l2.509-.59.161-.662a15.338,15.338,0,0,1,1.789-4.308l.351-.578-1.356-2.192,3.451-3.45,2.192,1.358.579-.351a15.3,15.3,0,0,1,4.309-1.786l.663-.161.588-2.512h4.878l.591,2.51.663.161a15.308,15.308,0,0,1,4.307,1.786l.579.351,2.194-1.358,3.45,3.45-1.358,2.193.352.578a15.334,15.334,0,0,1,1.787,4.308l.161.657,2.508.6v4.878Z" transform="translate(-3144.463 -271.725)" fill="#3f3d56"/>
          </g>
        </g>
        <g id="Group_44" data-name="Group 44" transform="translate(558.761 10125.707)">
          <path id="Path_360" data-name="Path 360" d="M3182.753,467.791l15.574-4.217,5.665,19.636-16.419,4.363Z" transform="translate(-3140.044 -432.929)" fill="#ff6584"/>
          <rect id="Rectangle_14" data-name="Rectangle 14" width="34.241" height="20.986" transform="translate(0.632 33.914)" fill="#ff6584"/>
          <g id="archives">
            <path id="Path_350" data-name="Path 350" d="M3210.532,486.754,3197.4,437.736a1.274,1.274,0,0,0-1.558-.9h0l-14.512,3.888v-.07a1.272,1.272,0,0,0-1.273-1.273H3146.7a1.273,1.273,0,0,0-1.272,1.273V491.4a1.273,1.273,0,0,0,1.272,1.272h33.359a1.273,1.273,0,0,0,1.268-1.272V452.047l10.637,39.681a1.272,1.272,0,0,0,1.558.9h0l16.111-4.317a1.274,1.274,0,0,0,.9-1.558h0Zm-31.746-16.986h-14.138V441.926h14.138Zm-16.679-27.842v27.842h-14.138V441.926Zm-14.138,30.387h14.138v17.81h-14.138Zm16.679,17.81v-17.81h14.138v17.81Zm30.621-50.5,7.207,26.893-13.652,3.658-7.207-26.893Zm-1.177,50.217-4.61-17.207,13.652-3.658,4.61,17.207Z" transform="translate(-3145.427 -436.792)" fill="#3f3d56"/>
            <ellipse id="Ellipse_22" data-name="Ellipse 22" cx="3.181" cy="3.181" rx="3.181" ry="3.181" transform="translate(6.429 10.222)" fill="#3f3d56"/>
            <path id="Path_351" data-name="Path 351" d="M3151.159,472.6h6.5a1.272,1.272,0,0,0,.151-2.54c-.049,0-.1,0-.151,0h-6.5a1.272,1.272,0,1,0-.151,2.54A1.131,1.131,0,0,0,3151.159,472.6Z" transform="translate(-3144.796 -431.993)" fill="#3f3d56"/>
            <path id="Path_352" data-name="Path 352" d="M3157.657,474.507h-6.5a1.273,1.273,0,0,0-.151,2.542c.05,0,.1,0,.151,0h6.5a1.273,1.273,0,0,0,0-2.542Z" transform="translate(-3144.796 -431.353)" fill="#3f3d56"/>
            <path id="Path_353" data-name="Path 353" d="M3157.638,478.956h-6.5a1.272,1.272,0,0,0,0,2.54h6.5a1.272,1.272,0,0,0,0-2.54Z" transform="translate(-3144.776 -430.71)" fill="#3f3d56"/>
            <ellipse id="Ellipse_23" data-name="Ellipse 23" cx="3.181" cy="3.181" rx="3.181" ry="3.181" transform="translate(41.971 9.484)" fill="#3f3d56"/>
            <path id="Path_354" data-name="Path 354" d="M3194.785,470.394a1.273,1.273,0,1,0-.663-2.458l-6.278,1.682a1.273,1.273,0,0,0,.664,2.458Z" transform="translate(-3139.445 -432.306)" fill="#3f3d56"/>
            <path id="Path_355" data-name="Path 355" d="M3195.932,474.69a1.273,1.273,0,0,0-.663-2.458l-6.277,1.683a1.272,1.272,0,0,0,.662,2.457Z" transform="translate(-3139.28 -431.687)" fill="#3f3d56"/>
            <path id="Path_356" data-name="Path 356" d="M3196.424,476.529l-6.276,1.682a1.273,1.273,0,1,0,.663,2.458h0l6.277-1.682a1.273,1.273,0,1,0-.664-2.458Z" transform="translate(-3139.114 -431.067)" fill="#3f3d56"/>
            <ellipse id="Ellipse_24" data-name="Ellipse 24" cx="3.181" cy="3.181" rx="3.181" ry="3.181" transform="translate(23.108 10.212)" fill="#3f3d56"/>
            <path id="Path_357" data-name="Path 357" d="M3172.234,470.059h-6.5a1.273,1.273,0,1,0-.15,2.541c.049,0,.1,0,.15,0h6.5a1.273,1.273,0,0,0,0-2.541Z" transform="translate(-3142.694 -431.994)" fill="#3f3d56"/>
            <path id="Path_358" data-name="Path 358" d="M3172.234,474.507h-6.5a1.273,1.273,0,1,0-.15,2.542c.049,0,.1,0,.15,0h6.5a1.273,1.273,0,0,0,0-2.542Z" transform="translate(-3142.694 -431.353)" fill="#3f3d56"/>
            <path id="Path_359" data-name="Path 359" d="M3172.234,478.956h-6.5a1.272,1.272,0,1,0-.15,2.54c.049,0,.1,0,.15,0h6.5a1.272,1.272,0,0,0,0-2.54Z" transform="translate(-3142.694 -430.711)" fill="#3f3d56"/>
          </g>
        </g>
        <g id="Group_2196" data-name="Group 2196" transform="translate(341.608 10119.73)">
          <ellipse id="Ellipse_19" data-name="Ellipse 19" cx="5.475" cy="5.475" rx="5.475" ry="5.475" transform="translate(2.551 27.362)" fill="#ff6584"/>
          <ellipse id="Ellipse_19-2" data-name="Ellipse 19" cx="5.475" cy="5.475" rx="5.475" ry="5.475" transform="translate(46.924 10.361)" fill="#ff6584"/>
          <ellipse id="Ellipse_19-3" data-name="Ellipse 19" cx="5.475" cy="5.475" rx="5.475" ry="5.475" transform="translate(40.529 52.784)" fill="#ff6584"/>
          <g id="user-experience" transform="translate(0)">
            <path id="Path_313" data-name="Path 313" d="M2978.012,464.5a47.8,47.8,0,0,0,3.385-8.66c2.484-8.966,1.282-16.479-3.39-21.148s-12.179-5.869-21.151-3.389a47.836,47.836,0,0,0-8.66,3.385,45.913,45.913,0,0,0-10.669-3.887c-8.059-1.767-14.854-.384-19.133,3.892a16.8,16.8,0,0,0-4.6,11.15,34.087,34.087,0,0,0,2.4,13.63,6.4,6.4,0,0,0,0,10.052,34.086,34.086,0,0,0-2.4,13.629,16.8,16.8,0,0,0,4.6,11.149c3.065,3.065,7.364,4.644,12.557,4.644a27.856,27.856,0,0,0,3.238-.192,42.408,42.408,0,0,0,14.013-4.445,47.9,47.9,0,0,0,8.654,3.381,32.384,32.384,0,0,0,8.6,1.263c5.157,0,9.475-1.571,12.554-4.652,4.276-4.274,5.659-11.068,3.893-19.129A46.014,46.014,0,0,0,2978.012,464.5Zm-20.617-31.247c8.24-2.282,15.052-1.263,19.183,2.872s5.151,10.945,2.872,19.183a44.913,44.913,0,0,1-2.61,6.983,66.116,66.116,0,0,0-7.149-10.3,6.4,6.4,0,0,0,.02-7.875l-1.6,1.241a4.333,4.333,0,0,1,.921,2.688,4.377,4.377,0,1,1-2.15-3.77l1.034-1.738a6.394,6.394,0,0,0-7.213.469,66.362,66.362,0,0,0-10.3-7.148A44.823,44.823,0,0,1,2957.395,433.249Zm-37.566,2.87c5.467-5.468,15.493-5.265,26.16-.269a68.918,68.918,0,0,0-14.976,11.453,70.8,70.8,0,0,0-9.05,11.045,6.448,6.448,0,0,0-1.8-.257,6.345,6.345,0,0,0-2.179.382C2914.477,448.923,2915.131,440.812,2919.828,436.119Zm11.177,60.795c-4.574,0-8.464-1.325-11.178-4.045-4.7-4.695-5.351-12.8-1.848-22.354a6.386,6.386,0,0,0,3.977.123,70.765,70.765,0,0,0,9.056,11.047,68.927,68.927,0,0,0,14.971,11.45A36.131,36.131,0,0,1,2931.005,496.913Zm17.19-4.88a66.1,66.1,0,0,1-15.753-11.781,68.848,68.848,0,0,1-8.64-10.493,6.407,6.407,0,0,0,2.765-5.264c0-.19-.008-.382-.025-.57l-2.014.179c.012.129.017.26.017.391a4.375,4.375,0,1,1-.46-1.961l1.808-.908a6.407,6.407,0,0,0-2.086-2.4,68.851,68.851,0,0,1,8.636-10.493,66.061,66.061,0,0,1,15.76-11.78,63.447,63.447,0,0,1,11.127,7.538,6.4,6.4,0,0,0,8.88,8.878,63.4,63.4,0,0,1,7.535,11.129,65.977,65.977,0,0,1-11.782,15.756c-.539.539-1.092,1.074-1.656,1.6a6.4,6.4,0,0,0-8.063-.168l1.25,1.592a4.379,4.379,0,1,1-1.693,3.457,4.384,4.384,0,0,1,.61-2.23l-1.738-1.033a6.4,6.4,0,0,0-.237,6.1Q2950.316,490.922,2948.2,492.033Zm28.382.834c-4.132,4.133-10.944,5.151-19.182,2.872a44.831,44.831,0,0,1-6.981-2.605q1.6-.892,3.193-1.914a6.4,6.4,0,0,0,10.025-7.836c.6-.557,1.185-1.127,1.759-1.7a68.968,68.968,0,0,0,11.454-14.978c5,10.67,5.2,20.7-.268,26.163Z" transform="translate(-2913.753 -430.038)" fill="#3f3d56"/>
            <path id="Path_318" data-name="Path 318" d="M2957.352,444.89h2.023v2.022h-2.023Z" transform="translate(-2907.464 -427.895)" fill="#3f3d56"/>
            <path id="Path_319" data-name="Path 319" d="M2951.7,478.709h2.021v2.021H2951.7Z" transform="translate(-2908.279 -423.017)" fill="#3f3d56"/>
            <path id="Path_320" data-name="Path 320" d="M2918.467,459.266h2.026v2.023h-2.026Z" transform="translate(-2913.072 -425.822)" fill="#3f3d56"/>
          </g>
          <circle id="Ellipse_20" data-name="Ellipse 20" cx="6.075" cy="6.075" r="6.075" transform="translate(28.379 26.762)" fill="#ff6584"/>
          <g id="Group_2043" data-name="Group 2043" transform="translate(17.87 14.343)">
            <path id="Path_314" data-name="Path 314" d="M2960.733,470.565h-2.09v-5.1a5.081,5.081,0,0,0-3.683-4.866l-.756-.213-.552,1.946.755.213a3.047,3.047,0,0,1,2.21,2.919v5.1h-3.646V467.8h-2.021v2.761h-9.1v2.023h18.877Z" transform="translate(-2927.568 -440.003)" fill="#3f3d56"/>
            <path id="Path_315" data-name="Path 315" d="M2949.294,463.168l4.215,1.19.553-1.948-4.133-1.165V458.56a7.073,7.073,0,0,0,3.1-5.854v-2.967a7.079,7.079,0,1,0-14.156-.176c0,.058,0,.118,0,.176v2.967a7.074,7.074,0,0,0,3.1,5.854v2.685l-6.833,1.927a5.082,5.082,0,0,0-3.684,4.866v5.1h-2.09v2.023h12.271v-2.023h-2.495v-2.761h-2.022v2.761h-3.646v-5.1a3.048,3.048,0,0,1,2.21-2.919l6.915-1.951a4.535,4.535,0,0,0,6.408.281c.1-.089.192-.183.282-.281Zm-3.344-18.482a5.063,5.063,0,0,1,5.056,5.056v1.127l-2.127-2.813h-7.7a5.064,5.064,0,0,1,4.769-3.372Zm-5.056,8.022v-2.629h6.979l2.966,3.92a5.056,5.056,0,0,1-9.942-1.291Zm3.1,8.977v-2.174a7.038,7.038,0,0,0,3.911,0v2.175a2.516,2.516,0,0,1-3.911,0Z" transform="translate(-2929.369 -442.573)" fill="#3f3d56"/>
            <path id="Path_316" data-name="Path 316" d="M2948.887,465.084l-2.849-.8.552-1.946,2.849.8Z" transform="translate(-2926.966 -439.722)" fill="#3f3d56"/>
            <path id="Path_317" data-name="Path 317" d="M2952.722,464.062l-.551,1.946-1.947-.552.552-1.946Z" transform="translate(-2926.361 -439.552)" fill="#3f3d56"/>
          </g>
        </g>
        <rect id="Rectangle_2594" data-name="Rectangle 2594" width="19.882" height="4.418" transform="translate(580.676 9988.243)" fill="#fff"/>
        <g id="Group_33" data-name="Group 33" transform="translate(120.47 9956.367)">
          <rect id="Rectangle_13" data-name="Rectangle 13" width="30.927" height="19.882" transform="translate(27.613 18.778)" fill="#ff6584"/>
          <g id="dashboard的副本">
            <path id="Path_301" data-name="Path 301" d="M2983.2,107.622H2914.72v46.391h22.091v11.047h-8.837v5.522a5.531,5.531,0,0,0,5.522,5.523h39.764a5.531,5.531,0,0,0,5.523-5.523V154.013h4.418Zm-2.209,2.21v6.627h-64.064v-6.627Zm-44.182,24.3h-5.065l-6.655-6.655a9.9,9.9,0,0,1,11.721-.5Zm-13.283-5.093,6.2,6.2-6.2,6.2A9.9,9.9,0,0,1,2923.528,129.039Zm8.218,7.3h5.065V143.5a9.9,9.9,0,0,1-11.721-.5Zm1.75,37.555a3.313,3.313,0,0,1-3.312-3.314h0v-3.314h37.554v3.314a5.505,5.505,0,0,0,1.1,3.314Zm20.988-8.836V151.8h17.672v17.673h-2.209v-4.418Zm22.09,5.522a3.306,3.306,0,0,1-6.424,1.1h4.215V149.6h-22.091v15.464H2939.02V123.086h37.555Zm2.209-18.777V120.877h-41.972v3.535a12.15,12.15,0,1,0,0,21.649V151.8h-19.883V118.668h64.064V151.8Z" transform="translate(-2914.72 -107.622)" fill="#3f3d56"/>
            <path id="Path_302" data-name="Path 302" d="M2918.581,111.484h2.207v2.208h-2.207Z" transform="translate(-2914.164 -107.065)" fill="#3f3d56"/>
            <path id="Path_303" data-name="Path 303" d="M2922.442,111.484h2.211v2.208h-2.211Z" transform="translate(-2913.606 -107.065)" fill="#3f3d56"/>
            <path id="Path_304" data-name="Path 304" d="M2926.3,111.484h2.209v2.208H2926.3Z" transform="translate(-2913.049 -107.065)" fill="#3f3d56"/>
            <path id="Path_305" data-name="Path 305" d="M2971.022,123.067h-33.135v22.092h33.135Zm-2.207,4.419h-11.046v-2.21h11.046Zm-13.255,2.208v13.255h-6.628V129.694Zm-6.628-2.208v-2.21h6.628v2.21Zm8.837,2.208h4.418v13.255h-4.418Zm-11.047-4.418v2.21H2940.1v-2.21Zm-6.625,4.418h6.625v13.255H2940.1Zm24.3,13.255V129.694h4.42v13.255Z" transform="translate(-2911.378 -105.394)" fill="#3f3d56"/>
            <path id="Path_306" data-name="Path 306" d="M2937.887,144.3h8.835v2.21h-8.835Z" transform="translate(-2911.378 -102.331)" fill="#3f3d56"/>
            <path id="Path_307" data-name="Path 307" d="M2937.887,148.165h8.835v2.21h-8.835Z" transform="translate(-2911.378 -101.774)" fill="#3f3d56"/>
            <path id="Path_308" data-name="Path 308" d="M2937.887,152.027h8.835v2.208h-8.835Z" transform="translate(-2911.378 -101.217)" fill="#3f3d56"/>
          </g>
        </g>
        <g id="Group_32" data-name="Group 32" transform="translate(556.769 9956.367)">
          <ellipse id="Ellipse_17" data-name="Ellipse 17" cx="20.434" cy="19.33" rx="20.434" ry="19.33" transform="translate(0.003 6.627)" fill="#ff6584"/>
          <g id="query" transform="translate(0)">
            <path id="Path_309" data-name="Path 309" d="M2983.2,289.955V270.072h-15.464v8.837h-16.716a20.918,20.918,0,0,0-3.638-3.07,2.177,2.177,0,0,0,.472-1.348v-4.419a2.208,2.208,0,0,0-2.208-2.208h-19.88a2.208,2.208,0,0,0-2.21,2.208v4.419a2.186,2.186,0,0,0,.473,1.348,20.975,20.975,0,0,0,7.259,37.938v3.791a3.281,3.281,0,0,0,.442,1.625,3.31,3.31,0,0,0-1.547,2.793v8.836a5.523,5.523,0,1,0,11.046,0V325.3h26.508v8.836H2983.2V314.255h-15.464v8.836H2941.23v-1.1a3.309,3.309,0,0,0-1.546-2.793,3.3,3.3,0,0,0,.442-1.625v-3.791a21.054,21.054,0,0,0,14.057-10.568h13.556v8.836H2983.2V292.164h-15.464V301H2955.2a20.936,20.936,0,0,0-2.372-19.882h14.911v8.837Zm-13.254,26.509h11.045v15.464h-11.045Zm0-22.091h11.045v15.463h-11.045Zm-22.1-8.756a14.359,14.359,0,1,1-24.284,0,2.209,2.209,0,0,0,2.2,2.128v2.21a2.209,2.209,0,0,0-2.21,2.21v4.418a2.208,2.208,0,0,0,2.21,2.208h19.88a2.208,2.208,0,0,0,2.208-2.208v-4.418a2.208,2.208,0,0,0-2.208-2.21v-2.21A2.209,2.209,0,0,0,2947.849,285.617Zm-2.2,6.547v4.418h-19.88v-4.418Zm-17.673-2.21v-2.21h15.464v2.21Zm-2.208-4.418v-4.419h19.88v4.419Zm2.208-6.627V276.7h15.464v2.21Zm-2.208-8.837h19.88v4.419h-19.88Zm13.252,60.75a3.313,3.313,0,1,1-6.626,0h0v-8.836a1.1,1.1,0,0,1,1.1-1.1h4.419a1.1,1.1,0,0,1,1.1,1.1Zm-1.1-13.254a1.1,1.1,0,0,1-1.1,1.1h-2.21a1.1,1.1,0,0,1-1.1-1.1v-3.433a20.671,20.671,0,0,0,4.419,0Zm-2.209-5.523a18.777,18.777,0,0,1-9.939-34.7v1.568a2.208,2.208,0,0,0-2.21,2.208v.91a16.571,16.571,0,1,0,24.3,0v-.914a2.208,2.208,0,0,0-2.208-2.208v-1.568a18.777,18.777,0,0,1-9.941,34.7Zm34.242-39.764h11.045v15.463h-11.045Z" transform="translate(-2914.717 -267.864)" fill="#3f3d56"/>
            <path id="Path_310" data-name="Path 310" d="M2969.333,273.656h-4.417v2.208h2.207v6.627h-2.207v2.21h6.625v-2.21h-2.208Z" transform="translate(-2907.476 -267.029)" fill="#3f3d56"/>
            <path id="Path_311" data-name="Path 311" d="M2970.217,298.926a3.313,3.313,0,1,0-5.3-2.65v1.1h2.207v-1.1a1.1,1.1,0,1,1,1.768.883l-3.975,2.982v3.866h6.625V301.8h-4.418v-.551Z" transform="translate(-2907.476 -264.244)" fill="#3f3d56"/>
            <path id="Path_312" data-name="Path 312" d="M2968.229,312.268h-3.313v2.21h3.313a1.1,1.1,0,0,1,0,2.208h-3.313V318.9h3.313a1.1,1.1,0,0,1,0,2.208h-3.313v2.21h3.313a3.3,3.3,0,0,0,2.452-5.522,3.3,3.3,0,0,0-2.452-5.523Z" transform="translate(-2907.476 -261.459)" fill="#3f3d56"/>
            <rect id="Rectangle_2563" data-name="Rectangle 2563" width="19.882" height="4.499" transform="translate(11.048 13.254)" fill="#fff"/>
            <rect id="Rectangle_2564" data-name="Rectangle 2564" width="19.882" height="4.499" transform="translate(11.048 24.259)" fill="#fff"/>
          </g>
        </g>
        <g id="Group_42" data-name="Group 42" transform="translate(339.615 9954.375)">
          <path id="Path_328" data-name="Path 328" d="M3156.071,129.928l14.591-14.075,10.384,12.116,14.405-14.406h-5.663v-5.114h14.381v14.717h-4.835V117.3l-18.287,17.689-10.384-11.819-11.306,10.862Z" transform="translate(-3140.58 -107.503)" fill="#ff6584"/>
          <g id="Out_line" data-name="Out line">
            <path id="Path_321" data-name="Path 321" d="M3165.391,148.106V134.95a1.2,1.2,0,0,0-1.2-1.2h-4.787a1.2,1.2,0,0,0-1.2,1.2h0v13.157h2.393V136.146H3163v11.961Z" transform="translate(-3140.271 -103.853)" fill="#3f3d56"/>
            <path id="Path_322" data-name="Path 322" d="M3182.115,152.738V135.995a1.2,1.2,0,0,0-1.2-1.2h-4.788a1.2,1.2,0,0,0-1.2,1.2h0v16.744h2.393V137.192h2.393V152.74Z" transform="translate(-3137.859 -103.702)" fill="#3f3d56"/>
            <path id="Path_323" data-name="Path 323" d="M3173.753,153.341V131.814a1.2,1.2,0,0,0-1.2-1.2h-4.788a1.2,1.2,0,0,0-1.195,1.2h0V150.95h2.391V133.011h2.393v20.332Z" transform="translate(-3139.066 -104.305)" fill="#3f3d56"/>
            <path id="Path_324" data-name="Path 324" d="M3190.476,143.774V131.814a1.2,1.2,0,0,0-1.2-1.2h-4.787a1.2,1.2,0,0,0-1.2,1.2h0V144.97h2.391v-11.96h2.393v10.764Z" transform="translate(-3136.653 -104.305)" fill="#3f3d56"/>
            <path id="Path_325" data-name="Path 325" d="M3198.839,143.482V125.543a1.2,1.2,0,0,0-1.2-1.2h-4.787a1.2,1.2,0,0,0-1.2,1.2h0v17.939h2.393V126.739h2.393v16.744Z" transform="translate(-3135.447 -105.21)" fill="#3f3d56"/>
            <path id="Path_326" data-name="Path 326" d="M3159.013,134.781a1.2,1.2,0,0,0,1.692,0l9.871-9.873,9.921,11.024a1.2,1.2,0,0,0,.857.4h.031a1.2,1.2,0,0,0,.847-.35l15.9-15.9v3.093a1.2,1.2,0,0,0,1.2,1.2h4.789a1.2,1.2,0,0,0,1.2-1.2V108.819a1.2,1.2,0,0,0-1.2-1.2h-14.358a1.2,1.2,0,0,0-1.2,1.2V113.6a1.2,1.2,0,0,0,1.194,1.2h3.1l-11.418,11.415-9.92-11.022a1.2,1.2,0,0,0-1.69-.089c-.016.014-.032.029-.046.043L3155.426,129.5a1.2,1.2,0,0,0,0,1.691Zm11.565-17.048,9.92,11.024a1.2,1.2,0,0,0,1.69.088l.045-.043,14.351-14.352a1.2,1.2,0,0,0-.845-2.041h-4.784v-2.393h11.959v11.961h-2.393V117.19a1.2,1.2,0,0,0-2.039-.842l-17.05,17.046-9.92-11.024a1.194,1.194,0,0,0-.858-.395h-.03a1.2,1.2,0,0,0-.847.35l-9.918,9.918-1.9-1.9Z" transform="translate(-3140.723 -107.622)" fill="#3f3d56"/>
            <path id="Path_327" data-name="Path 327" d="M3153.295,173.071v-2.393h3.59a1.2,1.2,0,0,0,1.195-1.2h0v-3.134a30.069,30.069,0,0,0,41.6-.889l13.071-13.069a4.579,4.579,0,0,0-5.594-7.164,4.662,4.662,0,0,0-7.652-.255l-.507.68a5.134,5.134,0,0,0-7.806,1.967l-3.015,6.7a5.376,5.376,0,0,0-1.987-.381h-14.454l-2.041-2.041a9.67,9.67,0,0,0-11.61-1.556v-1.185a1.2,1.2,0,0,0-1.2-1.2h-3.59v-1.2a1.2,1.2,0,0,0-1.2-1.2h-9.567v2.393h8.372v23.92h-8.372v2.393h9.567A1.194,1.194,0,0,0,3153.295,173.071Zm51.111-27.261a2.272,2.272,0,0,1,.916,1.053l-9.489,9.49a20.255,20.255,0,0,1-4.266,3.262l9.851-13.215a2.263,2.263,0,0,1,2.99-.59Zm-11.038,2.788a2.738,2.738,0,0,1,4.2-1.029l-6.737,9.033a5.41,5.41,0,0,0-.664-.9ZM3168,153.585l2.392,2.393a1.2,1.2,0,0,0,.846.35h14.95a2.99,2.99,0,1,1,0,5.98h-14.95V164.7h14.95a5.369,5.369,0,0,0,3.942-1.722,22.575,22.575,0,0,0,7.4-4.934l10.438-10.439a2.187,2.187,0,0,1,3.125,3.061l-.032.032-13.08,13.068a27.678,27.678,0,0,1-39.144,0l-.761-.761v-9.749a7.27,7.27,0,0,1,9.919.326Zm-12.311-3.238v17.939h-2.394V150.346Z" transform="translate(-3142.532 -102.506)" fill="#3f3d56"/>
          </g>
        </g>
        <g id="Dashboard-2" transform="translate(106.524 10050.002)" style="isolation: isolate">
          <g id="Group_2003" data-name="Group 2003" style="isolation: isolate">
            <path id="Path_10124" data-name="Path 10124" d="M2907.34,213.8h-5.459V198.519h5.459q3.729,0,4.95,2.954a11.614,11.614,0,0,1,.7,4.467q0,5.77-2.869,7.268A5.975,5.975,0,0,1,2907.34,213.8Zm3.9-7.862q0-4.4-1.963-5.481a3.954,3.954,0,0,0-1.939-.442h-3.753V212.3h3.753Q2911.243,212.3,2911.242,205.941Z" transform="translate(-2901.881 -197.948)" fill="#3f3d56"/>
            <path id="Path_10125" data-name="Path 10125" d="M2921.956,205.583v5.663q.067.819,1.283.971l-.063,1.294a3.6,3.6,0,0,1-2.631-.873,9.575,9.575,0,0,1-3.97.873,3.014,3.014,0,0,1-2.319-.857,3.494,3.494,0,0,1-.8-2.472,3.122,3.122,0,0,1,.813-2.378,4.292,4.292,0,0,1,2.562-.939l3.472-.334v-.949a2.212,2.212,0,0,0-.484-1.606,1.8,1.8,0,0,0-1.326-.486,32.616,32.616,0,0,0-3.667.215l-.692.066-.064-1.251a22.076,22.076,0,0,1,4.31-.487,3.072,3.072,0,0,1,3.576,3.549Zm-6.795,4.509q0,2.027,1.671,2.026a8.988,8.988,0,0,0,2.965-.507l.507-.171V207.8l-3.266.314a2.125,2.125,0,0,0-1.435.571A2.029,2.029,0,0,0,2915.161,210.093Z" transform="translate(-2900.211 -197.441)" fill="#3f3d56"/>
            <path id="Path_10126" data-name="Path 10126" d="M2927.292,203.512q-2.406,0-2.407,1.673a1.16,1.16,0,0,0,.55,1.094,9.545,9.545,0,0,0,2.519.665,6.671,6.671,0,0,1,2.783.965,2.766,2.766,0,0,1,.815,2.318,2.865,2.865,0,0,1-1.091,2.491,5.368,5.368,0,0,1-3.191.794,20.332,20.332,0,0,1-3.227-.3l-.666-.108.095-1.446a27.939,27.939,0,0,0,3.8.378,3.816,3.816,0,0,0,1.959-.41,1.479,1.479,0,0,0,.672-1.37,1.377,1.377,0,0,0-.578-1.3,8.631,8.631,0,0,0-2.518-.653,6.77,6.77,0,0,1-2.763-.905,2.566,2.566,0,0,1-.819-2.207,2.681,2.681,0,0,1,1.139-2.385,4.96,4.96,0,0,1,2.843-.771,23.886,23.886,0,0,1,3.376.3l.615.11-.044,1.422A28.555,28.555,0,0,0,2927.292,203.512Z" transform="translate(-2898.803 -197.441)" fill="#3f3d56"/>
            <path id="Path_10127" data-name="Path 10127" d="M2934.377,213.875h-1.66V198.02h1.66v5.424a7.8,7.8,0,0,1,3.4-.831q2.211,0,2.979,1.192a8.387,8.387,0,0,1,.766,4.234v5.836h-1.662v-5.792a7.4,7.4,0,0,0-.455-3.144,1.959,1.959,0,0,0-1.907-.847,7.369,7.369,0,0,0-2.7.508l-.421.15Z" transform="translate(-2897.433 -198.02)" fill="#3f3d56"/>
            <path id="Path_10128" data-name="Path 10128" d="M2947.962,202.613a3.573,3.573,0,0,1,3.129,1.268,8.1,8.1,0,0,1,.894,4.45q0,3.184-1.117,4.471t-4.1,1.29c-.62,0-1.638-.058-3.062-.173l-.625-.064V198.02h1.641v5.36A7.835,7.835,0,0,1,2947.962,202.613Zm-1.219,10q2.167,0,2.865-.981a5.97,5.97,0,0,0,.694-3.322,7,7,0,0,0-.548-3.281,2.085,2.085,0,0,0-1.963-.938,7.778,7.778,0,0,0-2.634.485l-.44.152V212.5C2945.672,212.578,2946.348,212.613,2946.743,212.613Z" transform="translate(-2895.939 -198.02)" fill="#3f3d56"/>
            <path id="Path_10129" data-name="Path 10129" d="M2952.805,207.752a6.985,6.985,0,0,1,1.083-4.373,5.632,5.632,0,0,1,7.3,0,7.051,7.051,0,0,1,1.073,4.373,7.477,7.477,0,0,1-1.013,4.4q-1.015,1.366-3.71,1.365t-3.715-1.365A7.427,7.427,0,0,1,2952.805,207.752Zm1.7-.032a7.016,7.016,0,0,0,.587,3.388,2.66,2.66,0,0,0,2.456.969,2.621,2.621,0,0,0,2.437-.96,7.118,7.118,0,0,0,.57-3.386,6.219,6.219,0,0,0-.64-3.345,2.7,2.7,0,0,0-2.373-.917,2.736,2.736,0,0,0-2.383.917A6.076,6.076,0,0,0,2954.509,207.72Z" transform="translate(-2894.536 -197.441)" fill="#3f3d56"/>
            <path id="Path_10130" data-name="Path 10130" d="M2971.307,205.583v5.663q.065.819,1.282.971l-.064,1.294a3.6,3.6,0,0,1-2.632-.873,9.568,9.568,0,0,1-3.97.873,3.016,3.016,0,0,1-2.319-.857,3.5,3.5,0,0,1-.8-2.472,3.12,3.12,0,0,1,.815-2.378,4.286,4.286,0,0,1,2.562-.939l3.472-.334v-.949a2.214,2.214,0,0,0-.484-1.606,1.8,1.8,0,0,0-1.327-.486,32.675,32.675,0,0,0-3.668.215l-.691.066-.063-1.251a22.091,22.091,0,0,1,4.309-.487,3.073,3.073,0,0,1,3.578,3.549Zm-6.8,4.509q0,2.027,1.671,2.026a9,9,0,0,0,2.966-.507l.506-.171V207.8l-3.267.314a2.13,2.13,0,0,0-1.437.571A2.036,2.036,0,0,0,2964.511,210.093Z" transform="translate(-2893.094 -197.441)" fill="#3f3d56"/>
            <path id="Path_10131" data-name="Path 10131" d="M2973.092,213.3V202.254h1.64v1.5a10.727,10.727,0,0,1,4.042-1.747v1.684a11.391,11.391,0,0,0-1.935.55,12.2,12.2,0,0,0-1.537.666l-.55.283v8.11Z" transform="translate(-2891.61 -197.445)" fill="#3f3d56"/>
            <path id="Path_10132" data-name="Path 10132" d="M2988.061,198.02v15.855h-1.64v-.755a6.727,6.727,0,0,1-3.354.971,4.991,4.991,0,0,1-1.547-.216,3.033,3.033,0,0,1-1.235-.8q-1.2-1.2-1.2-4.406a7.8,7.8,0,0,1,1.072-4.632,4.16,4.16,0,0,1,3.544-1.425,14.055,14.055,0,0,1,2.718.283V198.02Zm-5.743,14.443a2.922,2.922,0,0,0,1.023.15,5.572,5.572,0,0,0,1.414-.209,9.163,9.163,0,0,0,1.224-.405l.442-.2v-7.486a13.459,13.459,0,0,0-2.622-.259,2.541,2.541,0,0,0-2.346,1.066,6.482,6.482,0,0,0-.663,3.324q0,2.566.775,3.452A1.9,1.9,0,0,0,2982.318,212.463Z" transform="translate(-2890.745 -198.02)" fill="#3f3d56"/>
          </g>
        </g>
        <g id="SQL_Ad-hoc_Query" data-name="SQL Ad-hoc Query" transform="translate(506.963 10050.002)" style="isolation: isolate">
          <g id="Group_2004" data-name="Group 2004" style="isolation: isolate">
            <path id="Path_10133" data-name="Path 10133" d="M2876.277,362.948q-3.314,0-3.312,2.492a2.153,2.153,0,0,0,.76,1.909,10.212,10.212,0,0,0,3.092,1.036,7.85,7.85,0,0,1,3.305,1.349,3.4,3.4,0,0,1,.977,2.728q0,4.7-4.888,4.7a27.932,27.932,0,0,1-4.044-.366l-.787-.119.173-1.413a37.628,37.628,0,0,0,4.573.4q3.27,0,3.269-3.074a2.087,2.087,0,0,0-.716-1.779,6.93,6.93,0,0,0-2.682-.905,9.071,9.071,0,0,1-3.674-1.425,3.563,3.563,0,0,1-1.082-2.935q0-4.109,4.929-4.109a26.908,26.908,0,0,1,3.862.334l.752.108-.149,1.436A42.17,42.17,0,0,0,2876.277,362.948Z" transform="translate(-2871.241 -361.115)" fill="#3f3d56"/>
            <path id="Path_10134" data-name="Path 10134" d="M2887.913,377.185q-3.42,0-4.725-1.878t-1.3-5.907q0-4.027,1.32-5.986t4.7-1.959q3.378,0,4.719,1.948t1.337,5.992a14.218,14.218,0,0,1-.578,4.491,4.459,4.459,0,0,1-1.967,2.51l1.885,3.018-1.6.755-1.942-3.182A7.394,7.394,0,0,1,2887.913,377.185Zm-4.281-7.8a9.853,9.853,0,0,0,.877,4.829q.881,1.467,3.409,1.467t3.4-1.423a9.725,9.725,0,0,0,.874-4.817,10.177,10.177,0,0,0-.905-4.935,3.6,3.6,0,0,0-3.392-1.542q-2.488,0-3.376,1.531A10.158,10.158,0,0,0,2883.632,369.389Z" transform="translate(-2869.705 -361.113)" fill="#3f3d56"/>
            <path id="Path_10135" data-name="Path 10135" d="M2903.57,376.94h-8.413V361.655h1.7v13.764h6.709Z" transform="translate(-2867.791 -361.084)" fill="#3f3d56"/>
            <path id="Path_10136" data-name="Path 10136" d="M2907.456,376.94l4.2-15.285h3.708l4.2,15.285h-1.674L2916.779,373h-6.54l-1.1,3.936Zm5.481-13.829-2.32,8.371h5.792l-2.319-8.371Z" transform="translate(-2866.016 -361.084)" fill="#3f3d56"/>
            <path id="Path_10137" data-name="Path 10137" d="M2928.318,361.156v15.856h-1.64v-.755a6.737,6.737,0,0,1-3.354.971,5.022,5.022,0,0,1-1.547-.216,3.035,3.035,0,0,1-1.235-.8q-1.2-1.2-1.2-4.408a7.8,7.8,0,0,1,1.073-4.632,4.156,4.156,0,0,1,3.544-1.425,14.045,14.045,0,0,1,2.717.283v-4.876Zm-5.742,14.443a2.927,2.927,0,0,0,1.023.15,5.559,5.559,0,0,0,1.413-.209,8.995,8.995,0,0,0,1.224-.405l.442-.2v-7.484a13.442,13.442,0,0,0-2.622-.26,2.538,2.538,0,0,0-2.345,1.066,6.477,6.477,0,0,0-.663,3.324q0,2.568.776,3.452A1.892,1.892,0,0,0,2922.576,375.6Z" transform="translate(-2864.302 -361.156)" fill="#3f3d56"/>
            <path id="Path_10138" data-name="Path 10138" d="M2929.9,370.568v-1.542h6.7v1.542Z" transform="translate(-2862.779 -360.021)" fill="#3f3d56"/>
            <path id="Path_10139" data-name="Path 10139" d="M2940.1,377.012h-1.662V361.156h1.662v5.424a7.8,7.8,0,0,1,3.4-.831q2.213,0,2.979,1.192a8.388,8.388,0,0,1,.767,4.235v5.836h-1.663v-5.793a7.414,7.414,0,0,0-.454-3.144,1.96,1.96,0,0,0-1.907-.846,7.357,7.357,0,0,0-2.7.507l-.421.15Z" transform="translate(-2861.549 -361.156)" fill="#3f3d56"/>
            <path id="Path_10140" data-name="Path 10140" d="M2948.371,370.888a6.991,6.991,0,0,1,1.082-4.373,5.632,5.632,0,0,1,7.3,0,7.052,7.052,0,0,1,1.071,4.373,7.481,7.481,0,0,1-1.012,4.4q-1.014,1.365-3.71,1.365t-3.715-1.365A7.428,7.428,0,0,1,2948.371,370.888Zm1.7-.032a7.016,7.016,0,0,0,.587,3.388,2.656,2.656,0,0,0,2.456.969c1.241,0,2.056-.318,2.435-.96a7.1,7.1,0,0,0,.572-3.386,6.228,6.228,0,0,0-.64-3.345,3.542,3.542,0,0,0-4.755,0A6.066,6.066,0,0,0,2950.074,370.856Z" transform="translate(-2860.115 -360.577)" fill="#3f3d56"/>
            <path id="Path_10141" data-name="Path 10141" d="M2963.175,365.17a19.585,19.585,0,0,1,2.479.26l.528.066-.063,1.347c-1.178-.13-2.051-.193-2.61-.193a3.041,3.041,0,0,0-2.553.894,5.824,5.824,0,0,0-.674,3.313,6.438,6.438,0,0,0,.633,3.365c.418.633,1.292.949,2.615.949l2.611-.193.064,1.37a20.879,20.879,0,0,1-3.073.3q-2.589,0-3.57-1.323a7.7,7.7,0,0,1-.983-4.471q0-3.15,1.063-4.418A4.379,4.379,0,0,1,2963.175,365.17Z" transform="translate(-2858.643 -360.577)" fill="#3f3d56"/>
            <path id="Path_10142" data-name="Path 10142" d="M2977.383,377.185q-3.418,0-4.724-1.878t-1.305-5.907q0-4.027,1.322-5.986t4.7-1.959q3.378,0,4.718,1.948t1.339,5.992a14.214,14.214,0,0,1-.579,4.491,4.456,4.456,0,0,1-1.967,2.51l1.886,3.018-1.595.755-1.943-3.182A7.39,7.39,0,0,1,2977.383,377.185Zm-4.281-7.8a9.85,9.85,0,0,0,.879,4.829q.881,1.467,3.407,1.467t3.4-1.423a9.733,9.733,0,0,0,.875-4.817,10.169,10.169,0,0,0-.907-4.935,3.6,3.6,0,0,0-3.392-1.542q-2.489,0-3.376,1.531A10.149,10.149,0,0,0,2973.1,369.389Z" transform="translate(-2856.8 -361.113)" fill="#3f3d56"/>
            <path id="Path_10143" data-name="Path 10143" d="M2991.278,365.359h1.662v11.047h-1.662v-.776a6.367,6.367,0,0,1-3.268.992q-2.257,0-2.994-1.172a8.791,8.791,0,0,1-.737-4.318v-5.773h1.661V371.1a8.079,8.079,0,0,0,.421,3.226q.421.82,1.9.819a5.557,5.557,0,0,0,1.484-.209,7.3,7.3,0,0,0,1.149-.405l.387-.2Z" transform="translate(-2854.935 -360.55)" fill="#3f3d56"/>
            <path id="Path_10144" data-name="Path 10144" d="M3002.2,375.063l.637-.066.043,1.306a30.231,30.231,0,0,1-4.3.347,3.89,3.89,0,0,1-3.381-1.381,7.406,7.406,0,0,1-1-4.293q0-5.817,4.616-5.8a4.233,4.233,0,0,1,3.337,1.247,5.8,5.8,0,0,1,1.1,3.92l-.085,1.251h-7.293a4.52,4.52,0,0,0,.665,2.72,2.7,2.7,0,0,0,2.307.884Q3000.491,375.192,3002.2,375.063Zm-.6-4.79a4.808,4.808,0,0,0-.648-2.869,2.5,2.5,0,0,0-2.118-.842,2.729,2.729,0,0,0-2.212.879,4.45,4.45,0,0,0-.76,2.832Z" transform="translate(-2853.506 -360.577)" fill="#3f3d56"/>
            <path id="Path_10145" data-name="Path 10145" d="M3004.364,376.437V365.39h1.642v1.5a10.707,10.707,0,0,1,4.042-1.748v1.684a11.37,11.37,0,0,0-1.937.55,12.242,12.242,0,0,0-1.535.667l-.552.281v8.112Z" transform="translate(-2852.038 -360.581)" fill="#3f3d56"/>
            <path id="Path_10146" data-name="Path 10146" d="M3010.135,365.359h1.662l2.763,9.61h.721l2.782-9.61h1.663l-4.6,15.954h-1.661l1.445-4.908h-1.641Z" transform="translate(-2851.207 -360.55)" fill="#3f3d56"/>
          </g>
        </g>
        <g id="Risk_Management" data-name="Risk Management" transform="translate(291.802 10050.002)" style="isolation: isolate">
          <g id="Group_2006" data-name="Group 2006" style="isolation: isolate">
            <path id="Path_10165" data-name="Path 10165" d="M3104.368,209.878v5.856h-1.7V200.449h5.651a5.237,5.237,0,0,1,3.656,1.127,4.542,4.542,0,0,1,1.231,3.513q0,3.534-2.8,4.443l2.933,6.2h-1.876l-2.764-5.856Zm3.971-1.5q3.114,0,3.117-3.215t-3.14-3.214h-3.948v6.43Z" transform="translate(-3102.665 -199.878)" fill="#3f3d56"/>
            <path id="Path_10166" data-name="Path 10166" d="M3114.3,202.219v-1.931h1.66v1.931Zm0,13.538V204.712h1.66v11.045Z" transform="translate(-3100.987 -199.901)" fill="#3f3d56"/>
            <path id="Path_10167" data-name="Path 10167" d="M3122.069,205.443q-2.4,0-2.406,1.673a1.159,1.159,0,0,0,.55,1.094,9.51,9.51,0,0,0,2.518.665,6.645,6.645,0,0,1,2.782.965,2.766,2.766,0,0,1,.816,2.318,2.868,2.868,0,0,1-1.091,2.491,5.38,5.38,0,0,1-3.191.794,20.35,20.35,0,0,1-3.227-.3l-.667-.106.1-1.447a27.756,27.756,0,0,0,3.8.379,3.832,3.832,0,0,0,1.959-.41,1.48,1.48,0,0,0,.672-1.37,1.38,1.38,0,0,0-.578-1.3,8.646,8.646,0,0,0-2.518-.652,6.756,6.756,0,0,1-2.763-.906,2.562,2.562,0,0,1-.819-2.206,2.682,2.682,0,0,1,1.137-2.385,4.958,4.958,0,0,1,2.844-.771,23.884,23.884,0,0,1,3.377.3l.613.11-.043,1.421A28.684,28.684,0,0,0,3122.069,205.443Z" transform="translate(-3100.453 -199.371)" fill="#3f3d56"/>
            <path id="Path_10168" data-name="Path 10168" d="M3129.156,215.806h-1.66V199.95h1.66v9.362l1.726-.086,3.161-4.466h1.878l-3.6,5.08,3.754,5.965h-1.877l-3.29-5.124-1.747.064Z" transform="translate(-3099.083 -199.95)" fill="#3f3d56"/>
            <path id="Path_10169" data-name="Path 10169" d="M3141.23,215.734V200.449h3.073l4.325,12.923,4.337-12.923h3.064v15.285h-1.694V202.26h-.311l-4.445,12.923h-1.9l-4.443-12.923h-.3v13.473Z" transform="translate(-3097.102 -199.878)" fill="#3f3d56"/>
            <path id="Path_10170" data-name="Path 10170" d="M3165.078,207.514v5.663q.064.819,1.282.971l-.065,1.294a3.6,3.6,0,0,1-2.632-.874,9.564,9.564,0,0,1-3.97.874,3.012,3.012,0,0,1-2.318-.858,3.5,3.5,0,0,1-.8-2.47,3.12,3.12,0,0,1,.814-2.378,4.276,4.276,0,0,1,2.562-.939l3.472-.334v-.949a2.212,2.212,0,0,0-.483-1.607,1.8,1.8,0,0,0-1.327-.487,32.667,32.667,0,0,0-3.667.216l-.69.066-.065-1.252a22.17,22.17,0,0,1,4.309-.486,3.072,3.072,0,0,1,3.578,3.549Zm-6.8,4.508q0,2.029,1.672,2.028a8.99,8.99,0,0,0,2.965-.507l.507-.171v-3.648l-3.267.315a2.112,2.112,0,0,0-1.435.571A2.033,2.033,0,0,0,3158.281,212.023Z" transform="translate(-3094.889 -199.371)" fill="#3f3d56"/>
            <path id="Path_10171" data-name="Path 10171" d="M3168.522,215.227h-1.661V204.181h1.641v.778a7.055,7.055,0,0,1,3.417-.994q2.212,0,2.979,1.192a8.388,8.388,0,0,1,.767,4.234v5.836h-1.641v-5.792a7.432,7.432,0,0,0-.452-3.144,1.991,1.991,0,0,0-1.932-.847,5.823,5.823,0,0,0-1.493.209,7.911,7.911,0,0,0-1.2.405l-.42.2Z" transform="translate(-3093.406 -199.371)" fill="#3f3d56"/>
            <path id="Path_10172" data-name="Path 10172" d="M3185.108,207.514v5.663q.064.819,1.284.971l-.066,1.294a3.6,3.6,0,0,1-2.63-.874,9.574,9.574,0,0,1-3.97.874,3.01,3.01,0,0,1-2.318-.858,3.494,3.494,0,0,1-.8-2.47,3.12,3.12,0,0,1,.814-2.378,4.282,4.282,0,0,1,2.563-.939l3.471-.334v-.949a2.206,2.206,0,0,0-.485-1.607,1.792,1.792,0,0,0-1.326-.487,32.645,32.645,0,0,0-3.667.216l-.692.066-.063-1.252a22.139,22.139,0,0,1,4.31-.486,3.069,3.069,0,0,1,3.575,3.549Zm-6.795,4.508q0,2.029,1.673,2.028a8.981,8.981,0,0,0,2.963-.507l.508-.171v-3.648l-3.266.315a2.114,2.114,0,0,0-1.437.571A2.03,2.03,0,0,0,3178.313,212.023Z" transform="translate(-3091.998 -199.371)" fill="#3f3d56"/>
            <path id="Path_10173" data-name="Path 10173" d="M3191.225,220.413a6.932,6.932,0,0,1-3.7-.716,2.941,2.941,0,0,1-1.052-2.616,2.472,2.472,0,0,1,.4-1.466,6.281,6.281,0,0,1,1.349-1.273,1.71,1.71,0,0,1-.617-1.521,3.8,3.8,0,0,1,.551-1.393l.2-.355q-1.75-.8-1.74-3.333,0-3.774,4.131-3.776a8.445,8.445,0,0,1,1.964.216l.336.065,3.267-.086v1.412l-2.1-.042a3.005,3.005,0,0,1,.732,2.211,3.534,3.534,0,0,1-1.027,2.905,5.145,5.145,0,0,1-3.231.826,6.293,6.293,0,0,1-1.09-.086,4.7,4.7,0,0,0-.4,1.251c0,.453.143.738.422.854a10.188,10.188,0,0,0,2.541.173,5.393,5.393,0,0,1,3.046.658,3,3,0,0,1,.929,2.588Q3196.134,220.415,3191.225,220.413Zm-3.117-3.46a1.836,1.836,0,0,0,.651,1.623,4.576,4.576,0,0,0,2.406.449,4.878,4.878,0,0,0,2.518-.487,1.768,1.768,0,0,0,.767-1.623c0-.76-.186-1.246-.555-1.467a4.784,4.784,0,0,0-2.163-.327l-2.385-.11a3.842,3.842,0,0,0-.985.928A1.848,1.848,0,0,0,3188.108,216.953Zm.152-9.212a2.461,2.461,0,0,0,.586,1.855,2.793,2.793,0,0,0,1.937.55,2.725,2.725,0,0,0,1.92-.55,3.341,3.341,0,0,0,0-3.738,3.6,3.6,0,0,0-3.856.012A2.522,2.522,0,0,0,3188.26,207.741Z" transform="translate(-3090.577 -199.371)" fill="#3f3d56"/>
            <path id="Path_10174" data-name="Path 10174" d="M3204.39,213.857l.638-.066.043,1.307a30.376,30.376,0,0,1-4.3.346,3.891,3.891,0,0,1-3.381-1.381,7.4,7.4,0,0,1-1-4.293q0-5.815,4.616-5.8a4.238,4.238,0,0,1,3.338,1.246,5.8,5.8,0,0,1,1.105,3.92l-.086,1.252h-7.292a4.512,4.512,0,0,0,.666,2.719,2.7,2.7,0,0,0,2.306.884Q3202.687,213.986,3204.39,213.857Zm-.6-4.789a4.809,4.809,0,0,0-.649-2.87,2.5,2.5,0,0,0-2.118-.841,2.725,2.725,0,0,0-2.211.878,4.443,4.443,0,0,0-.759,2.833Z" transform="translate(-3089.147 -199.371)" fill="#3f3d56"/>
            <path id="Path_10175" data-name="Path 10175" d="M3208.219,215.227h-1.661V204.181h1.64v.778a6.281,6.281,0,0,1,3.226-.994,3.327,3.327,0,0,1,2.869,1.121,8.135,8.135,0,0,1,1.892-.78,7.378,7.378,0,0,1,2.047-.341q2.21,0,2.97,1.183a8.376,8.376,0,0,1,.761,4.243v5.836H3220.3v-5.792a7.615,7.615,0,0,0-.441-3.144,1.917,1.917,0,0,0-1.875-.847,5.787,5.787,0,0,0-1.507.209,8.1,8.1,0,0,0-1.191.405l-.411.2a10.77,10.77,0,0,1,.282,3.226v5.738H3213.5v-5.695a8.138,8.138,0,0,0-.431-3.237q-.431-.85-1.9-.851a5.275,5.275,0,0,0-1.444.209,7.447,7.447,0,0,0-1.133.405l-.378.2Z" transform="translate(-3087.679 -199.371)" fill="#3f3d56"/>
            <path id="Path_10176" data-name="Path 10176" d="M3230.276,213.857l.637-.066.044,1.307a30.4,30.4,0,0,1-4.305.346,3.889,3.889,0,0,1-3.381-1.381,7.4,7.4,0,0,1-1-4.293q0-5.815,4.617-5.8a4.236,4.236,0,0,1,3.337,1.246,5.794,5.794,0,0,1,1.106,3.92l-.086,1.252h-7.292a4.523,4.523,0,0,0,.664,2.719,2.708,2.708,0,0,0,2.309.884Q3228.571,213.986,3230.276,213.857Zm-.6-4.789a4.8,4.8,0,0,0-.65-2.87,2.5,2.5,0,0,0-2.117-.841,2.724,2.724,0,0,0-2.212.878,4.448,4.448,0,0,0-.76,2.833Z" transform="translate(-3085.412 -199.371)" fill="#3f3d56"/>
            <path id="Path_10177" data-name="Path 10177" d="M3234.1,215.227h-1.66V204.181h1.64v.778a7.057,7.057,0,0,1,3.418-.994q2.21,0,2.978,1.192a8.375,8.375,0,0,1,.768,4.234v5.836h-1.641v-5.792a7.419,7.419,0,0,0-.454-3.144,1.99,1.99,0,0,0-1.931-.847,5.824,5.824,0,0,0-1.493.209,7.978,7.978,0,0,0-1.2.405l-.421.2Z" transform="translate(-3083.944 -199.371)" fill="#3f3d56"/>
            <path id="Path_10178" data-name="Path 10178" d="M3248.6,206.015h-3.516V211.3a7.073,7.073,0,0,0,.277,2.491q.272.594,1.321.594l1.96-.129.109,1.37a14.728,14.728,0,0,1-2.253.248,2.876,2.876,0,0,1-2.386-.842,5.518,5.518,0,0,1-.658-3.2v-5.813h-1.573V204.58h1.573V201.2h1.629v3.377h3.516Z" transform="translate(-3082.584 -199.769)" fill="#3f3d56"/>
          </g>
        </g>
        <g id="Improved_Experience" data-name="Improved Experience" transform="translate(279.849 10219.342)" style="isolation: isolate">
          <g id="Group_2005" data-name="Group 2005" style="isolation: isolate">
            <path id="Path_10147" data-name="Path 10147" d="M2861.337,540.078V524.793h1.7v15.285Z" transform="translate(-2861.337 -524.222)" fill="#3f3d56"/>
            <path id="Path_10148" data-name="Path 10148" d="M2867.486,539.571h-1.661V528.524h1.64v.778a6.28,6.28,0,0,1,3.224-.993,3.327,3.327,0,0,1,2.869,1.121,8.131,8.131,0,0,1,1.893-.78,7.366,7.366,0,0,1,2.046-.341q2.21,0,2.972,1.183a8.393,8.393,0,0,1,.76,4.243v5.836h-1.662v-5.792a7.613,7.613,0,0,0-.441-3.144,1.921,1.921,0,0,0-1.877-.847,5.788,5.788,0,0,0-1.505.209,8.032,8.032,0,0,0-1.192.405l-.411.2a10.721,10.721,0,0,1,.283,3.226v5.739h-1.653v-5.695a8.141,8.141,0,0,0-.43-3.237q-.431-.849-1.9-.851A5.3,5.3,0,0,0,2869,530a7.414,7.414,0,0,0-1.132.405l-.377.2Z" transform="translate(-2860.691 -523.715)" fill="#3f3d56"/>
            <path id="Path_10149" data-name="Path 10149" d="M2881.962,544.478V528.524h1.641v.8a6.391,6.391,0,0,1,3.31-1.014,3.49,3.49,0,0,1,3.053,1.333,7.789,7.789,0,0,1,.949,4.406,6.879,6.879,0,0,1-1.116,4.405,4.584,4.584,0,0,1-3.7,1.333,12.069,12.069,0,0,1-2.471-.237v4.928Zm4.714-14.691a5.153,5.153,0,0,0-1.425.221,7.767,7.767,0,0,0-1.208.437l-.42.227v7.442a15.112,15.112,0,0,0,2.384.237,2.863,2.863,0,0,0,2.507-1.013,5.882,5.882,0,0,0,.717-3.312,6.126,6.126,0,0,0-.647-3.267A2.142,2.142,0,0,0,2886.676,529.787Z" transform="translate(-2858.362 -523.715)" fill="#3f3d56"/>
            <path id="Path_10150" data-name="Path 10150" d="M2892.134,539.575V528.528h1.641v1.5a10.7,10.7,0,0,1,4.042-1.747v1.683a11.621,11.621,0,0,0-1.936.55,12.283,12.283,0,0,0-1.535.667l-.551.281v8.111Z" transform="translate(-2856.894 -523.719)" fill="#3f3d56"/>
            <path id="Path_10151" data-name="Path 10151" d="M2898.2,534.026a6.977,6.977,0,0,1,1.083-4.372,5.63,5.63,0,0,1,7.3,0,7.041,7.041,0,0,1,1.072,4.372,7.478,7.478,0,0,1-1.013,4.4q-1.014,1.365-3.71,1.365t-3.715-1.365A7.429,7.429,0,0,1,2898.2,534.026Zm1.7-.032a7.017,7.017,0,0,0,.587,3.388,2.656,2.656,0,0,0,2.455.969c1.242,0,2.058-.318,2.437-.96a7.109,7.109,0,0,0,.571-3.386,6.214,6.214,0,0,0-.64-3.343,3.538,3.538,0,0,0-4.755,0A6.061,6.061,0,0,0,2899.9,533.994Z" transform="translate(-2856.02 -523.715)" fill="#3f3d56"/>
            <path id="Path_10152" data-name="Path 10152" d="M2907.735,528.5h1.768l2.59,9.61h.81l2.676-9.61h1.7l-3.12,11.047h-3.311Z" transform="translate(-2854.644 -523.688)" fill="#3f3d56"/>
            <path id="Path_10153" data-name="Path 10153" d="M2925.334,538.2l.637-.066.043,1.307a30.308,30.308,0,0,1-4.3.346,3.886,3.886,0,0,1-3.38-1.381,7.388,7.388,0,0,1-1-4.293q0-5.815,4.617-5.8a4.231,4.231,0,0,1,3.337,1.246,5.8,5.8,0,0,1,1.105,3.92l-.085,1.252h-7.292a4.517,4.517,0,0,0,.666,2.719,2.7,2.7,0,0,0,2.306.885Q2923.629,538.33,2925.334,538.2Zm-.6-4.79a4.807,4.807,0,0,0-.649-2.869,2.5,2.5,0,0,0-2.118-.842,2.725,2.725,0,0,0-2.211.879,4.453,4.453,0,0,0-.761,2.832Z" transform="translate(-2853.259 -523.715)" fill="#3f3d56"/>
            <path id="Path_10154" data-name="Path 10154" d="M2936.052,524.294V540.15h-1.64v-.755a6.734,6.734,0,0,1-3.354.971,5.022,5.022,0,0,1-1.547-.216,3.043,3.043,0,0,1-1.235-.8q-1.2-1.2-1.2-4.406a7.81,7.81,0,0,1,1.072-4.633,4.159,4.159,0,0,1,3.544-1.423,14.036,14.036,0,0,1,2.716.281v-4.875Zm-5.742,14.443a2.9,2.9,0,0,0,1.024.15,5.522,5.522,0,0,0,1.413-.209,9.068,9.068,0,0,0,1.224-.4l.442-.2v-7.486a13.463,13.463,0,0,0-2.621-.26,2.535,2.535,0,0,0-2.345,1.068,6.463,6.463,0,0,0-.663,3.324q0,2.566.776,3.451A1.877,1.877,0,0,0,2930.31,538.737Z" transform="translate(-2851.854 -524.294)" fill="#3f3d56"/>
            <path id="Path_10155" data-name="Path 10155" d="M2942.208,540.078V524.793h9.3v1.5h-7.6v5.284h6.269v1.48h-6.269v5.522h7.6v1.5Z" transform="translate(-2849.671 -524.222)" fill="#3f3d56"/>
            <path id="Path_10156" data-name="Path 10156" d="M2951.663,528.5h1.813l2.7,4.325,2.7-4.325h1.813l-3.518,5.481,3.5,5.566h-1.812l-2.676-4.3-2.7,4.3h-1.813l3.474-5.522Z" transform="translate(-2848.307 -523.688)" fill="#3f3d56"/>
            <path id="Path_10157" data-name="Path 10157" d="M2961.347,544.478V528.524h1.641v.8a6.4,6.4,0,0,1,3.311-1.014,3.49,3.49,0,0,1,3.051,1.333,7.789,7.789,0,0,1,.949,4.406,6.873,6.873,0,0,1-1.116,4.405,4.585,4.585,0,0,1-3.7,1.333,12.069,12.069,0,0,1-2.471-.237v4.928Zm4.715-14.691a5.142,5.142,0,0,0-1.425.221,7.746,7.746,0,0,0-1.208.437l-.421.227v7.442a15.112,15.112,0,0,0,2.384.237,2.858,2.858,0,0,0,2.507-1.013,5.878,5.878,0,0,0,.717-3.312,6.142,6.142,0,0,0-.646-3.267A2.144,2.144,0,0,0,2966.062,529.787Z" transform="translate(-2846.911 -523.715)" fill="#3f3d56"/>
            <path id="Path_10158" data-name="Path 10158" d="M2979.1,538.2l.637-.066.042,1.307a30.3,30.3,0,0,1-4.3.346,3.889,3.889,0,0,1-3.38-1.381,7.4,7.4,0,0,1-1-4.293q0-5.815,4.616-5.8a4.232,4.232,0,0,1,3.338,1.246,5.8,5.8,0,0,1,1.107,3.92l-.088,1.252h-7.292a4.513,4.513,0,0,0,.666,2.719,2.7,2.7,0,0,0,2.306.885Q2977.392,538.33,2979.1,538.2Zm-.6-4.79a4.807,4.807,0,0,0-.649-2.869,2.5,2.5,0,0,0-2.118-.842,2.73,2.73,0,0,0-2.212.879,4.454,4.454,0,0,0-.759,2.832Z" transform="translate(-2845.505 -523.715)" fill="#3f3d56"/>
            <path id="Path_10159" data-name="Path 10159" d="M2981.264,539.575V528.528h1.641v1.5a10.688,10.688,0,0,1,4.043-1.747v1.683a11.573,11.573,0,0,0-1.936.55,12.341,12.341,0,0,0-1.536.667l-.549.281v8.111Z" transform="translate(-2844.038 -523.719)" fill="#3f3d56"/>
            <path id="Path_10160" data-name="Path 10160" d="M2987.938,526.563v-1.931h1.661v1.931Zm0,13.538V529.055h1.661V540.1Z" transform="translate(-2843.075 -524.245)" fill="#3f3d56"/>
            <path id="Path_10161" data-name="Path 10161" d="M2999.74,538.2l.638-.066.043,1.307a30.35,30.35,0,0,1-4.3.346,3.887,3.887,0,0,1-3.381-1.381,7.388,7.388,0,0,1-1-4.293q0-5.815,4.616-5.8a4.23,4.23,0,0,1,3.337,1.246,5.794,5.794,0,0,1,1.108,3.92l-.088,1.252h-7.292a4.514,4.514,0,0,0,.665,2.719,2.7,2.7,0,0,0,2.307.885Q2998.037,538.33,2999.74,538.2Zm-.6-4.79a4.8,4.8,0,0,0-.649-2.869,2.5,2.5,0,0,0-2.118-.842,2.722,2.722,0,0,0-2.209.879,4.444,4.444,0,0,0-.762,2.832Z" transform="translate(-2842.528 -523.715)" fill="#3f3d56"/>
            <path id="Path_10162" data-name="Path 10162" d="M3003.57,539.571h-1.661V528.524h1.641v.778a7.061,7.061,0,0,1,3.416-.993q2.213,0,2.979,1.191a8.377,8.377,0,0,1,.767,4.235v5.836h-1.64v-5.792a7.425,7.425,0,0,0-.453-3.144,1.99,1.99,0,0,0-1.932-.847,5.818,5.818,0,0,0-1.491.209,7.775,7.775,0,0,0-1.2.405l-.422.2Z" transform="translate(-2841.061 -523.715)" fill="#3f3d56"/>
            <path id="Path_10163" data-name="Path 10163" d="M3016.461,528.309a19.5,19.5,0,0,1,2.479.259l.527.067-.064,1.347q-1.768-.194-2.609-.193a3.038,3.038,0,0,0-2.552.894,5.831,5.831,0,0,0-.675,3.313,6.452,6.452,0,0,0,.633,3.365q.628.949,2.614.949l2.612-.193.064,1.37a20.912,20.912,0,0,1-3.074.3q-2.589,0-3.57-1.322a7.7,7.7,0,0,1-.982-4.472q0-3.149,1.063-4.418A4.378,4.378,0,0,1,3016.461,528.309Z" transform="translate(-2839.624 -523.715)" fill="#3f3d56"/>
            <path id="Path_10164" data-name="Path 10164" d="M3028.145,538.2l.636-.066.043,1.307a30.33,30.33,0,0,1-4.3.346,3.893,3.893,0,0,1-3.382-1.381,7.408,7.408,0,0,1-1-4.293q0-5.815,4.616-5.8a4.233,4.233,0,0,1,3.337,1.246,5.8,5.8,0,0,1,1.1,3.92l-.084,1.252h-7.292a4.517,4.517,0,0,0,.665,2.719,2.7,2.7,0,0,0,2.307.885Q3026.439,538.33,3028.145,538.2Zm-.6-4.79a4.812,4.812,0,0,0-.647-2.869,2.5,2.5,0,0,0-2.118-.842,2.729,2.729,0,0,0-2.212.879,4.456,4.456,0,0,0-.76,2.832Z" transform="translate(-2838.43 -523.715)" fill="#3f3d56"/>
          </g>
        </g>
        <g id="Group_2197" data-name="Group 2197" transform="translate(68.672 10219.342)" style="isolation: isolate">
          <path id="Path_10179" data-name="Path 10179" d="M3100.507,374.945V380.8h-1.7V365.516h5.652a5.245,5.245,0,0,1,3.657,1.127,4.545,4.545,0,0,1,1.23,3.513q0,3.534-2.806,4.443l2.936,6.2h-1.877l-2.762-5.856Zm3.971-1.5q3.116,0,3.117-3.215t-3.139-3.214h-3.949v6.43Z" transform="translate(-3098.803 -364.945)" fill="#3f3d56"/>
          <path id="Path_10180" data-name="Path 10180" d="M3117.845,378.924l.637-.066.043,1.307a30.376,30.376,0,0,1-4.3.346,3.889,3.889,0,0,1-3.38-1.381,7.391,7.391,0,0,1-1-4.293q0-5.815,4.616-5.8a4.235,4.235,0,0,1,3.337,1.246,5.794,5.794,0,0,1,1.106,3.92l-.086,1.252h-7.293a4.5,4.5,0,0,0,.666,2.719,2.705,2.705,0,0,0,2.306.885Q3116.141,379.053,3117.845,378.924Zm-.6-4.789a4.8,4.8,0,0,0-.65-2.87,2.5,2.5,0,0,0-2.117-.841,2.725,2.725,0,0,0-2.211.878,4.445,4.445,0,0,0-.76,2.833Z" transform="translate(-3097.212 -364.438)" fill="#3f3d56"/>
          <path id="Path_10181" data-name="Path 10181" d="M3127.9,372.581v5.663c.042.546.47.871,1.282.971l-.066,1.294a3.592,3.592,0,0,1-2.629-.874,9.574,9.574,0,0,1-3.97.874,3.01,3.01,0,0,1-2.318-.858,3.5,3.5,0,0,1-.8-2.471,3.121,3.121,0,0,1,.815-2.378,4.283,4.283,0,0,1,2.562-.939l3.472-.334v-.949a2.2,2.2,0,0,0-.486-1.606,1.789,1.789,0,0,0-1.325-.487,32.659,32.659,0,0,0-3.667.216l-.691.066-.064-1.252a22.16,22.16,0,0,1,4.31-.486,3.071,3.071,0,0,1,3.577,3.549Zm-6.8,4.508q0,2.029,1.672,2.028a9,9,0,0,0,2.965-.507l.507-.17v-3.648l-3.267.315a2.12,2.12,0,0,0-1.437.571A2.037,2.037,0,0,0,3121.106,377.09Z" transform="translate(-3095.833 -364.438)" fill="#3f3d56"/>
          <path id="Path_10182" data-name="Path 10182" d="M3129.81,380.873V365.017h1.65v15.856Z" transform="translate(-3094.332 -365.017)" fill="#3f3d56"/>
          <path id="Path_10183" data-name="Path 10183" d="M3134.069,374.43v-1.543h6.7v1.543Z" transform="translate(-3093.717 -363.882)" fill="#3f3d56"/>
          <path id="Path_10184" data-name="Path 10184" d="M3148.161,371.081h-3.516v5.285a7.083,7.083,0,0,0,.275,2.491c.182.4.624.594,1.322.594l1.962-.129.109,1.37a14.7,14.7,0,0,1-2.255.248,2.864,2.864,0,0,1-2.383-.842,5.5,5.5,0,0,1-.659-3.2v-5.813h-1.575v-1.435h1.575V366.27h1.628v3.377h3.516Z" transform="translate(-3092.654 -364.836)" fill="#3f3d56"/>
          <path id="Path_10185" data-name="Path 10185" d="M3149.077,367.286v-1.931h1.661v1.931Zm0,13.538V369.779h1.661v11.045Z" transform="translate(-3091.552 -364.968)" fill="#3f3d56"/>
          <path id="Path_10186" data-name="Path 10186" d="M3154.963,380.294H3153.3V369.248h1.641v.778a6.274,6.274,0,0,1,3.224-.994,3.325,3.325,0,0,1,2.869,1.121,8.126,8.126,0,0,1,1.893-.78,7.374,7.374,0,0,1,2.047-.341q2.21,0,2.97,1.183a8.37,8.37,0,0,1,.761,4.243v5.836h-1.661V374.5a7.606,7.606,0,0,0-.442-3.144,1.917,1.917,0,0,0-1.876-.847,5.761,5.761,0,0,0-1.505.209,8.04,8.04,0,0,0-1.193.405l-.41.2a10.763,10.763,0,0,1,.281,3.226v5.738h-1.65v-5.7a8.109,8.109,0,0,0-.431-3.237,1.925,1.925,0,0,0-1.9-.851,5.28,5.28,0,0,0-1.444.209,7.509,7.509,0,0,0-1.134.405l-.376.2Z" transform="translate(-3090.943 -364.438)" fill="#3f3d56"/>
          <path id="Path_10187" data-name="Path 10187" d="M3177.017,378.924l.638-.066.043,1.307a30.348,30.348,0,0,1-4.3.346,3.888,3.888,0,0,1-3.381-1.381,7.4,7.4,0,0,1-1-4.293q0-5.815,4.618-5.8a4.238,4.238,0,0,1,3.337,1.246,5.8,5.8,0,0,1,1.106,3.92l-.088,1.252h-7.29a4.527,4.527,0,0,0,.663,2.719,2.71,2.71,0,0,0,2.308.885Q3175.313,379.053,3177.017,378.924Zm-.6-4.789a4.806,4.806,0,0,0-.649-2.87,2.5,2.5,0,0,0-2.118-.841,2.726,2.726,0,0,0-2.212.878,4.466,4.466,0,0,0-.76,2.833Z" transform="translate(-3088.676 -364.438)" fill="#3f3d56"/>
          <path id="Path_10188" data-name="Path 10188" d="M3189.141,380.8h-5.46V365.516h5.46q3.729,0,4.949,2.956a11.577,11.577,0,0,1,.7,4.466q0,5.772-2.869,7.269A5.979,5.979,0,0,1,3189.141,380.8Zm3.9-7.863q0-4.4-1.962-5.481a3.976,3.976,0,0,0-1.941-.441h-3.754V379.3h3.754Q3193.043,379.3,3193.044,372.938Z" transform="translate(-3086.56 -364.945)" fill="#3f3d56"/>
          <path id="Path_10189" data-name="Path 10189" d="M3203.448,378.924l.638-.066.043,1.307a30.359,30.359,0,0,1-4.3.346,3.889,3.889,0,0,1-3.382-1.381,7.408,7.408,0,0,1-.995-4.293q0-5.815,4.615-5.8a4.236,4.236,0,0,1,3.337,1.246,5.8,5.8,0,0,1,1.105,3.92l-.085,1.252h-7.293a4.515,4.515,0,0,0,.665,2.719,2.7,2.7,0,0,0,2.307.885Q3201.744,379.053,3203.448,378.924Zm-.6-4.789a4.813,4.813,0,0,0-.649-2.87,2.5,2.5,0,0,0-2.117-.841,2.727,2.727,0,0,0-2.212.878,4.457,4.457,0,0,0-.76,2.833Z" transform="translate(-3084.864 -364.438)" fill="#3f3d56"/>
          <path id="Path_10190" data-name="Path 10190" d="M3209.811,369.032a19.515,19.515,0,0,1,2.479.258l.528.066-.064,1.347c-1.177-.129-2.049-.193-2.609-.193a3.039,3.039,0,0,0-2.553.895,5.828,5.828,0,0,0-.673,3.313,6.449,6.449,0,0,0,.632,3.364q.628.949,2.615.949l2.611-.193.063,1.37a20.893,20.893,0,0,1-3.074.3q-2.591,0-3.57-1.322a7.7,7.7,0,0,1-.982-4.471q0-3.151,1.063-4.419A4.379,4.379,0,0,1,3209.811,369.032Z" transform="translate(-3083.455 -364.438)" fill="#3f3d56"/>
          <path id="Path_10191" data-name="Path 10191" d="M3214.029,367.286v-1.931h1.66v1.931Zm0,13.538V369.779h1.66v11.045Z" transform="translate(-3082.183 -364.968)" fill="#3f3d56"/>
          <path id="Path_10192" data-name="Path 10192" d="M3221.8,370.51q-2.406,0-2.408,1.673a1.16,1.16,0,0,0,.552,1.094,9.533,9.533,0,0,0,2.519.665,6.654,6.654,0,0,1,2.782.965,2.762,2.762,0,0,1,.814,2.318,2.869,2.869,0,0,1-1.09,2.491,5.376,5.376,0,0,1-3.192.794,20.33,20.33,0,0,1-3.226-.3l-.667-.106.1-1.448a27.772,27.772,0,0,0,3.8.378,3.817,3.817,0,0,0,1.958-.409,1.479,1.479,0,0,0,.675-1.37,1.38,1.38,0,0,0-.579-1.3,8.638,8.638,0,0,0-2.517-.652,6.754,6.754,0,0,1-2.763-.906,2.562,2.562,0,0,1-.819-2.206,2.683,2.683,0,0,1,1.137-2.385,4.956,4.956,0,0,1,2.845-.771,23.88,23.88,0,0,1,3.376.3l.614.11-.042,1.421A28.709,28.709,0,0,0,3221.8,370.51Z" transform="translate(-3081.649 -364.438)" fill="#3f3d56"/>
          <path id="Path_10193" data-name="Path 10193" d="M3227.226,367.286v-1.931h1.662v1.931Zm0,13.538V369.779h1.662v11.045Z" transform="translate(-3080.281 -364.968)" fill="#3f3d56"/>
          <path id="Path_10194" data-name="Path 10194" d="M3231.025,374.749a6.975,6.975,0,0,1,1.083-4.372,5.631,5.631,0,0,1,7.3,0,7.036,7.036,0,0,1,1.072,4.372,7.47,7.47,0,0,1-1.013,4.4q-1.012,1.365-3.71,1.365t-3.715-1.365A7.425,7.425,0,0,1,3231.025,374.749Zm1.7-.031a7.011,7.011,0,0,0,.587,3.387,2.656,2.656,0,0,0,2.455.969,2.618,2.618,0,0,0,2.437-.96,7.106,7.106,0,0,0,.571-3.385,6.209,6.209,0,0,0-.641-3.345,3.539,3.539,0,0,0-4.755,0A6.061,6.061,0,0,0,3232.729,374.718Z" transform="translate(-3079.732 -364.438)" fill="#3f3d56"/>
          <path id="Path_10195" data-name="Path 10195" d="M3243.3,380.294h-1.661V369.248h1.641v.778a7.049,7.049,0,0,1,3.417-.994q2.211,0,2.979,1.192a8.389,8.389,0,0,1,.766,4.234v5.836H3248.8V374.5a7.433,7.433,0,0,0-.452-3.144,1.993,1.993,0,0,0-1.932-.847,5.809,5.809,0,0,0-1.492.209,7.933,7.933,0,0,0-1.2.405l-.421.2Z" transform="translate(-3078.201 -364.438)" fill="#3f3d56"/>
        </g>
        <g id="Data_Archive" data-name="Data Archive" transform="translate(532.862 10219.342)" style="isolation: isolate">
          <g id="Group_2008" data-name="Group 2008" transform="translate(0)" style="isolation: isolate">
            <path id="Path_10196" data-name="Path 10196" d="M3130.324,538.147h-5.458V522.862h5.458q3.729,0,4.952,2.956a11.649,11.649,0,0,1,.7,4.466q0,5.772-2.87,7.269A5.979,5.979,0,0,1,3130.324,538.147Zm3.905-7.863q0-4.4-1.964-5.48a3.959,3.959,0,0,0-1.941-.442h-3.753v12.285h3.753Q3134.23,536.648,3134.229,530.284Z" transform="translate(-3124.867 -522.291)" fill="#3f3d56"/>
            <path id="Path_10197" data-name="Path 10197" d="M3144.944,529.927v5.663q.063.819,1.282.971l-.066,1.294a3.591,3.591,0,0,1-2.629-.873,9.578,9.578,0,0,1-3.971.873,3.01,3.01,0,0,1-2.318-.857,3.5,3.5,0,0,1-.8-2.471,3.121,3.121,0,0,1,.815-2.378,4.288,4.288,0,0,1,2.562-.939l3.472-.334v-.949a2.209,2.209,0,0,0-.485-1.606,1.8,1.8,0,0,0-1.326-.488,32.682,32.682,0,0,0-3.668.216l-.691.067-.063-1.252a22.139,22.139,0,0,1,4.308-.486,3.073,3.073,0,0,1,3.578,3.549Zm-6.8,4.51q0,2.027,1.672,2.026a9,9,0,0,0,2.966-.507l.506-.171v-3.648l-3.267.315a2.134,2.134,0,0,0-1.437.571A2.039,2.039,0,0,0,3138.147,534.437Z" transform="translate(-3123.197 -521.784)" fill="#3f3d56"/>
            <path id="Path_10198" data-name="Path 10198" d="M3152.58,528.428h-3.516v5.285a7.109,7.109,0,0,0,.274,2.492c.182.4.624.594,1.321.594l1.961-.13.111,1.37a14.738,14.738,0,0,1-2.255.248,2.868,2.868,0,0,1-2.383-.842,5.5,5.5,0,0,1-.659-3.2v-5.814h-1.574v-1.435h1.574v-3.377h1.63v3.377h3.516Z" transform="translate(-3121.839 -522.182)" fill="#3f3d56"/>
            <path id="Path_10199" data-name="Path 10199" d="M3161.384,529.927v5.663q.066.819,1.285.971l-.067,1.294a3.591,3.591,0,0,1-2.629-.873,9.581,9.581,0,0,1-3.97.873,3.009,3.009,0,0,1-2.319-.857,3.5,3.5,0,0,1-.8-2.471,3.123,3.123,0,0,1,.814-2.378,4.294,4.294,0,0,1,2.563-.939l3.472-.334v-.949a2.211,2.211,0,0,0-.485-1.606,1.8,1.8,0,0,0-1.327-.488,32.665,32.665,0,0,0-3.667.216l-.693.067-.062-1.252a22.153,22.153,0,0,1,4.31-.486,3.071,3.071,0,0,1,3.575,3.549Zm-6.795,4.51q0,2.027,1.672,2.026a8.987,8.987,0,0,0,2.963-.507l.508-.171v-3.648l-3.268.315a2.128,2.128,0,0,0-1.436.571A2.03,2.03,0,0,0,3154.589,534.437Z" transform="translate(-3120.825 -521.784)" fill="#3f3d56"/>
            <path id="Path_10200" data-name="Path 10200" d="M3166.484,538.147l4.2-15.285h3.708l4.2,15.285h-1.672l-1.111-3.936h-6.538l-1.1,3.936Zm5.481-13.828-2.321,8.37h5.793l-2.318-8.37Z" transform="translate(-3118.863 -522.291)" fill="#3f3d56"/>
            <path id="Path_10201" data-name="Path 10201" d="M3178.91,537.644V526.6h1.641v1.5a10.731,10.731,0,0,1,4.042-1.747v1.683a11.474,11.474,0,0,0-1.935.552,12.176,12.176,0,0,0-1.536.666l-.55.283v8.11Z" transform="translate(-3117.072 -521.788)" fill="#3f3d56"/>
            <path id="Path_10202" data-name="Path 10202" d="M3189.585,526.378a19.352,19.352,0,0,1,2.481.26l.528.065-.064,1.347q-1.768-.194-2.608-.193a3.037,3.037,0,0,0-2.553.9,5.827,5.827,0,0,0-.675,3.312,6.453,6.453,0,0,0,.633,3.365,2.952,2.952,0,0,0,2.613.949l2.613-.193.064,1.37a20.9,20.9,0,0,1-3.075.3q-2.591,0-3.568-1.322a7.679,7.679,0,0,1-.984-4.471q0-3.149,1.062-4.419A4.383,4.383,0,0,1,3189.585,526.378Z" transform="translate(-3116.194 -521.784)" fill="#3f3d56"/>
            <path id="Path_10203" data-name="Path 10203" d="M3195.467,538.219H3193.8V522.363h1.662v5.425a7.8,7.8,0,0,1,3.4-.831q2.211,0,2.978,1.192a8.391,8.391,0,0,1,.767,4.234v5.836h-1.663v-5.792a7.409,7.409,0,0,0-.454-3.144,1.96,1.96,0,0,0-1.908-.847,7.338,7.338,0,0,0-2.7.508l-.42.15Z" transform="translate(-3114.923 -522.363)" fill="#3f3d56"/>
            <path id="Path_10204" data-name="Path 10204" d="M3204.166,524.634V522.7h1.661v1.932Zm0,13.536V527.124h1.661V538.17Z" transform="translate(-3113.429 -522.314)" fill="#3f3d56"/>
            <path id="Path_10205" data-name="Path 10205" d="M3207.485,526.567h1.768l2.59,9.61h.81l2.675-9.61h1.7l-3.119,11.045H3210.6Z" transform="translate(-3112.95 -521.757)" fill="#3f3d56"/>
            <path id="Path_10206" data-name="Path 10206" d="M3225.083,536.27l.637-.065.042,1.306a30.22,30.22,0,0,1-4.3.346,3.889,3.889,0,0,1-3.381-1.381,7.4,7.4,0,0,1-1-4.293q0-5.815,4.615-5.8a4.234,4.234,0,0,1,3.339,1.247,5.8,5.8,0,0,1,1.1,3.919l-.085,1.252h-7.292a4.507,4.507,0,0,0,.665,2.718,2.7,2.7,0,0,0,2.306.886Q3223.378,536.4,3225.083,536.27Zm-.6-4.789a4.814,4.814,0,0,0-.648-2.87,2.5,2.5,0,0,0-2.119-.841,2.729,2.729,0,0,0-2.212.878,4.46,4.46,0,0,0-.76,2.833Z" transform="translate(-3111.566 -521.784)" fill="#3f3d56"/>
          </g>
        </g>
      </g>
    </g>
  </g>
</svg>
