<svg xmlns="http://www.w3.org/2000/svg" xmlns:xlink="http://www.w3.org/1999/xlink" width="506" height="404" viewBox="0 0 506 404">
  <defs>
    <clipPath id="clip-云原生的分布式数据库">
      <rect width="506" height="404"/>
    </clipPath>
  </defs>
  <g id="云原生的分布式数据库" clip-path="url(#clip-云原生的分布式数据库)">
    <g id="组_4576" data-name="组 4576" transform="translate(-177.692 2407.438)">
      <path id="路径_13747" data-name="路径 13747" d="M200.258,220.926C136.631,216.084,60.753,166.783,64.616,116.02S141.968,18,205.6,22.843s100.253,99.71,96.39,150.473S263.886,225.768,200.258,220.926Z" transform="translate(180.218 -2322.887)" fill="#f7f8f9"/>
      <path id="路径_13692" data-name="路径 13692" d="M769.888,362.938c-2.806,0-5.629-.09-8.408-.267l.089-1.4c2.753.175,5.549.265,8.311.265h.083v1.4H769.9Zm8.563-.279-.092-1.4c2.783-.182,5.6-.457,8.358-.818l.182,1.391C784.106,362.2,781.264,362.476,778.451,362.66Zm-25.421-.8c-2.8-.363-5.617-.823-8.379-1.367l.271-1.377c2.732.539,5.521.994,8.289,1.352Zm42.247-1.4L795,359.078c2.733-.543,5.486-1.183,8.179-1.9l.363,1.355c-2.723.729-5.5,1.376-8.269,1.924Zm-58.9-1.881c-2.718-.724-5.453-1.55-8.128-2.455l.449-1.329c2.646.895,5.351,1.712,8.039,2.428Zm75.291-2.509-.451-1.329c2.631-.894,5.27-1.889,7.844-2.957l.539,1.3C817,354.153,814.331,355.159,811.67,356.064Zm-91.38-2.936c-2.6-1.077-5.209-2.257-7.744-3.507l.621-1.258c2.507,1.236,5.084,2.4,7.66,3.469Zm107.033-3.561-.622-1.258c2.5-1.236,4.987-2.569,7.4-3.963l.7,1.214C832.366,346.969,829.851,348.317,827.324,349.566Zm-122.272-3.954c-2.442-1.41-4.869-2.921-7.214-4.489l.78-1.166c2.32,1.551,4.721,3.045,7.136,4.44ZM842,341.071l-.781-1.166c2.313-1.548,4.607-3.195,6.82-4.9l.855,1.113C846.658,337.842,844.338,339.506,842,341.071Zm-151.067-4.9c-2.235-1.715-4.444-3.528-6.566-5.388l.925-1.055c2.1,1.84,4.284,3.632,6.5,5.33Zm164.521-5.441-.926-1.054c2.1-1.839,4.157-3.771,6.129-5.743l.992.992C859.656,326.921,857.572,328.874,855.454,330.733Zm-177.287-5.749c-2-1.993-3.95-4.076-5.809-6.192l1.054-.926c1.84,2.093,3.773,4.154,5.747,6.125Zm189.289-6.252-1.055-.926c1.84-2.1,3.635-4.281,5.334-6.492l1.112.855C871.131,314.4,869.316,316.612,867.457,318.731Zm-200.492-6.5c-1.718-2.233-3.385-4.551-4.954-6.891l1.165-.782c1.552,2.315,3.2,4.608,4.9,6.817ZM877.8,305.267l-1.166-.78c1.553-2.32,3.048-4.72,4.445-7.134l1.214.7C880.883,300.5,879.372,302.923,877.8,305.267Zm-220.285-7.119c-1.414-2.439-2.763-4.954-4.011-7.474l1.257-.623c1.235,2.493,2.57,4.981,3.968,7.393Zm228.79-7.584-1.258-.621c1.235-2.5,2.4-5.077,3.474-7.657l1.3.537C888.739,285.432,887.557,288.036,886.308,290.564Zm-236.313-7.609c-1.081-2.6-2.089-5.268-3-7.93l1.328-.452c.9,2.633,1.894,5.272,2.963,7.844Zm242.822-8.091-1.329-.45c.9-2.642,1.714-5.346,2.433-8.038l1.355.362C894.55,269.459,893.722,272.194,892.817,274.864ZM644.527,266.9c-.731-2.722-1.38-5.5-1.931-8.268l1.376-.274c.544,2.734,1.187,5.486,1.91,8.178ZM897.2,258.467l-1.377-.272c.541-2.734,1-5.522,1.359-8.288l1.391.182C898.2,252.884,897.742,255.7,897.2,258.467Zm-255.983-8.209c-.367-2.787-.647-5.629-.833-8.448l1.4-.093c.184,2.788.461,5.6.824,8.357Zm258.178-8.618-1.4-.09c.179-2.772.27-5.6.27-8.394v-.333h1.4v.329C899.664,235.983,899.572,238.837,899.391,241.64ZM641.5,233.323h-1.4v-.172c0-2.764.088-5.562.262-8.311l1.4.088c-.172,2.72-.259,5.488-.259,8.228Zm256.469-8.894c-.186-2.783-.467-5.595-.835-8.356l1.391-.185c.371,2.792.655,5.634.844,8.447Zm-255.407-7.861-1.391-.18c.36-2.8.819-5.615,1.361-8.38l1.377.271C643.371,211.014,642.918,213.8,642.562,216.568Zm253.193-8.779c-.548-2.732-1.193-5.483-1.92-8.175l1.355-.366c.734,2.722,1.387,5.5,1.941,8.266ZM645.8,200.1l-1.356-.36c.724-2.726,1.549-5.461,2.45-8.13l1.329.449C647.328,194.694,646.513,197.4,645.8,200.1Zm245.583-8.514c-.9-2.635-1.9-5.272-2.973-7.84l1.295-.541c1.084,2.6,2.095,5.262,3.006,7.926Zm-240.207-7.4-1.3-.536c1.077-2.607,2.255-5.213,3.5-7.746l1.258.62C653.4,179.024,652.237,181.6,651.173,184.18Zm233.75-8.068c-1.234-2.487-2.572-4.973-3.977-7.388l1.213-.705c1.42,2.442,2.772,4.955,4.021,7.469ZM658.6,169.1l-1.215-.7c1.408-2.441,2.917-4.87,4.484-7.217l1.167.779C661.482,164.285,659.989,166.686,658.6,169.1Zm217.9-7.491c-1.557-2.315-3.208-4.606-4.909-6.81l1.111-.857c1.719,2.228,3.389,4.545,4.963,6.884Zm-208.568-6.481-1.114-.854c1.715-2.238,3.527-4.448,5.384-6.569l1.056.924C671.413,150.729,669.621,152.915,667.924,155.129Zm198.315-6.808c-1.841-2.089-3.776-4.148-5.755-6.118l.991-.994c2,1.992,3.956,4.073,5.816,6.185Zm-187.253-5.829-.993-.991c1.991-2,4.073-3.952,6.188-5.813l.927,1.053C683.015,138.584,680.955,140.518,678.986,142.493Zm175.357-6.021c-2.1-1.838-4.289-3.628-6.5-5.322l.852-1.114c2.237,1.712,4.448,3.522,6.573,5.379ZM691.589,131.4l-.856-1.111c2.231-1.72,4.549-3.388,6.888-4.958l.782,1.165C696.089,128.052,693.8,129.7,691.589,131.4Zm149.416-5.141c-2.321-1.548-4.724-3.038-7.142-4.431l.7-1.216c2.444,1.408,4.874,2.915,7.22,4.48ZM705.52,122.048l-.7-1.213c2.434-1.413,4.947-2.764,7.471-4.016l.623,1.257C710.414,119.314,707.928,120.651,705.52,122.048Zm120.924-4.173c-2.506-1.232-5.084-2.4-7.664-3.459l.534-1.3c2.608,1.075,5.215,2.252,7.748,3.5Zm-105.9-3.278-.54-1.3c2.6-1.083,5.267-2.093,7.928-3l.453,1.328C725.753,112.528,723.115,113.527,720.544,114.6Zm90.359-3.129c-2.642-.89-5.348-1.7-8.042-2.418l.359-1.356c2.725.722,5.46,1.545,8.131,2.445Zm-74.484-2.289-.365-1.355c2.72-.732,5.5-1.384,8.266-1.936l.275,1.376c-2.735.547-5.485,1.191-8.176,1.916Zm58.257-2.012c-2.732-.535-5.521-.986-8.29-1.341l.178-1.391c2.8.359,5.618.815,8.381,1.356Zm-41.8-1.277L752.7,104.5c2.787-.369,5.629-.651,8.448-.839l.093,1.4c-2.788.186-5.6.465-8.357.829Zm25.147-.861c-2.693-.169-5.433-.254-8.145-.254h-.25v-1.4h.247c2.744,0,5.514.086,8.236.257Z" transform="translate(-331.109 -2420.264)" fill="#3f3d56"/>
      <g id="组_4523" data-name="组 4523" transform="translate(347.041 -2106.65)">
        <ellipse id="椭圆_1292" data-name="椭圆 1292" cx="33.012" cy="33.012" rx="33.012" ry="33.012" transform="translate(-0.349 0.213)" fill="#6c63ff"/>
        <g id="kubernetes-icon" transform="translate(16.652 16.739)">
          <path id="减去_1" data-name="减去 1" d="M10.086,31.876a2.177,2.177,0,0,1-1.7-.805l-7.9-9.828C.445,21.19.4,21.132.363,21.071A2.13,2.13,0,0,1,.055,19.4l2.8-12.248a2.156,2.156,0,0,1,1.181-1.47L15.477.226A2.182,2.182,0,0,1,16.321,0H16.4a2.205,2.205,0,0,1,.972.227L28.794,5.67a2.16,2.16,0,0,1,1.181,1.47L32.793,19.4a2.122,2.122,0,0,1-.411,1.833l-7.9,9.83a2.236,2.236,0,0,1-1.7.814H10.086ZM7.99,19.258h0a8.884,8.884,0,0,0,3.942,4.93l-.125.262a.689.689,0,0,1,.061.386,6.631,6.631,0,0,1-.619,1.121,5.707,5.707,0,0,0-.368.547l-.087.185a.686.686,0,1,0,1.235.584l.085-.175a5.732,5.732,0,0,0,.2-.626c.056-.138.1-.28.151-.417a2.572,2.572,0,0,1,.378-.81.553.553,0,0,1,.294-.144l.154-.28a8.849,8.849,0,0,0,6.309.015l.136.262a.536.536,0,0,1,.349.211,6.453,6.453,0,0,1,.468,1.15,5.742,5.742,0,0,0,.2.627l.085.175a.685.685,0,0,0,.568.441.688.688,0,0,0,.651-.306.684.684,0,0,0,.016-.72l-.089-.185a5.749,5.749,0,0,0-.368-.545A7.293,7.293,0,0,1,21,24.86a.535.535,0,0,1,.07-.41,2.327,2.327,0,0,1-.114-.276,8.9,8.9,0,0,0,3.924-4.948l.292.051a.543.543,0,0,1,.367-.142h.016a7.356,7.356,0,0,1,1.193.349,5.186,5.186,0,0,0,.614.236c.027.007.062.014.1.021l.081.017h.013a.686.686,0,1,0,.3-1.331l-.2-.047A5.694,5.694,0,0,0,27,18.328a6.287,6.287,0,0,1-1.225-.2.765.765,0,0,1-.3-.3l-.277-.082A8.87,8.87,0,0,0,23.776,11.6l.242-.224a.545.545,0,0,1,.127-.388,6.493,6.493,0,0,1,1.016-.715,5.73,5.73,0,0,0,.567-.331l.15-.121a.688.688,0,0,0-.363-1.272.682.682,0,0,0-.488.2l-.152.121a5.69,5.69,0,0,0-.449.477,6.46,6.46,0,0,1-.9.845.76.76,0,0,1-.415.045l-.26.185A8.963,8.963,0,0,0,17.174,7.68c0-.073-.007-.174-.011-.241,0-.028,0-.05,0-.064a.535.535,0,0,1-.224-.341A6.421,6.421,0,0,1,17.013,5.8a5.817,5.817,0,0,0,.095-.65V4.94a.719.719,0,0,0-.673-.759l-.009-.005a.728.728,0,0,0-.673.76v.193a5.768,5.768,0,0,0,.095.65,6.426,6.426,0,0,1,.068,1.242.748.748,0,0,1-.224.354l-.016.29a9.011,9.011,0,0,0-1.235.191,8.761,8.761,0,0,0-4.47,2.551l-.247-.175a.528.528,0,0,1-.153.023.535.535,0,0,1-.252-.064A6.421,6.421,0,0,1,8.4,9.359a5.817,5.817,0,0,0-.449-.478L7.8,8.76a.814.814,0,0,0-.475-.179H7.289a.653.653,0,0,0-.51.243.726.726,0,0,0,.168,1.009l.142.113a5.664,5.664,0,0,0,.567.332A5.907,5.907,0,0,1,8.68,11a.76.76,0,0,1,.136.394l.224.205A8.835,8.835,0,0,0,7.646,17.76l-.287.082a.945.945,0,0,1-.294.3,6.422,6.422,0,0,1-1.226.2,5.7,5.7,0,0,0-.657.051L5,18.432H4.98a.686.686,0,1,0,.305,1.331H5.3l.185-.02A5.464,5.464,0,0,0,6.1,19.52a6.423,6.423,0,0,1,1.193-.349.748.748,0,0,1,.392.138l.308-.051Zm8.444,4.324h0a7.059,7.059,0,0,1-2.28-.377L15.9,20.067a.61.61,0,0,1,.513-.3l-.009-.019h.019a.606.606,0,0,1,.533.317h.013L18.707,23.2l-.695.205A7.089,7.089,0,0,1,16.434,23.582Zm3.815-1.1h0l-1.375-3.33a.606.606,0,0,1,.522-.841l0-.016a.7.7,0,0,1,.073,0,.509.509,0,0,1,.066,0l3.559.6a7.015,7.015,0,0,1-2.848,3.586ZM12.6,22.464h0a7.064,7.064,0,0,1-2.831-3.548l3.528-.6a.549.549,0,0,1,.059,0,.564.564,0,0,1,.06,0l.006-.009a.6.6,0,0,1,.545.84v.013l-1.367,3.3Zm3.815-4.688h0l-.99-.475-.233-1.068.684-.854h1.1l.672.854L17.4,17.3l-.988.475Zm-7.03-.53h0a7.041,7.041,0,0,1,1-4.453l2.689,2.4v.015a.6.6,0,0,1-.237,1.036v.01l-3.451.992Zm14.093-.012h0l-3.456-1v-.013a.6.6,0,0,1-.428-.446.609.609,0,0,1,.191-.589L22.453,12.8l0-.008a7.168,7.168,0,0,1,1.029,4.441Zm-5.389-3.577a.6.6,0,0,1-.258-.058.608.608,0,0,1-.345-.538l-.2-3.582a7.109,7.109,0,0,1,4.1,1.975l-2.914,2.07A.6.6,0,0,1,18.088,13.656Zm-3.337-.01a.614.614,0,0,1-.358-.12l-2.941-2.084A7.035,7.035,0,0,1,14.842,9.6a7.274,7.274,0,0,1,.726-.117h0l-.205,3.586h-.016a.622.622,0,0,1-.341.517A.543.543,0,0,1,14.751,13.646Z" transform="translate(-0.001 0.474)" fill="#fff"/>
        </g>
      </g>
      <g id="组_4521" data-name="组 4521" transform="translate(399.83 -2371.438)">
        <g id="组_1275" data-name="组 1275" transform="translate(0 0)">
          <rect id="矩形_2036" data-name="矩形 2036" width="83.063" height="25.098" transform="translate(0 73.502)" fill="#3f3d56"/>
          <ellipse id="椭圆_223" data-name="椭圆 223" cx="41.532" cy="8.665" rx="41.532" ry="8.665" transform="translate(0 64.538)" fill="#6c63ff"/>
          <ellipse id="椭圆_224" data-name="椭圆 224" cx="41.532" cy="8.964" rx="41.532" ry="8.964" transform="translate(0 90.234)" fill="#3f3d56"/>
          <rect id="矩形_2036-2" data-name="矩形 2036" width="83.063" height="25.098" transform="translate(0 40.635)" fill="#3f3d56"/>
          <ellipse id="椭圆_223-2" data-name="椭圆 223" cx="41.532" cy="9.262" rx="41.532" ry="9.262" transform="translate(0 31.672)" fill="#6c63ff"/>
          <ellipse id="椭圆_224-2" data-name="椭圆 224" cx="41.532" cy="9.561" rx="41.532" ry="9.561" transform="translate(0 57.368)" fill="#3f3d56"/>
          <rect id="矩形_2036-3" data-name="矩形 2036" width="83.063" height="25.098" transform="translate(0 9.561)" fill="#3f3d56"/>
          <ellipse id="椭圆_223-3" data-name="椭圆 223" cx="41.532" cy="9.262" rx="41.532" ry="9.262" transform="translate(0)" fill="#6c63ff"/>
          <ellipse id="椭圆_224-3" data-name="椭圆 224" cx="41.532" cy="9.262" rx="41.532" ry="9.262" transform="translate(0 25.696)" fill="#3f3d56"/>
        </g>
        <g id="组_1276" data-name="组 1276" transform="translate(33.082 33.791)">
          <rect id="矩形_2037" data-name="矩形 2037" width="4.443" height="4.443" transform="translate(6.387)" fill="#ff6584" opacity="0.8"/>
          <rect id="矩形_2038" data-name="矩形 2038" width="4.443" height="4.443" transform="translate(12.774)" fill="#ff6584"/>
          <rect id="矩形_2039" data-name="矩形 2039" width="4.443" height="4.443" fill="#ff6584" opacity="0.4"/>
        </g>
        <g id="组_1277" data-name="组 1277" transform="translate(33.082 65.665)">
          <rect id="矩形_2037-2" data-name="矩形 2037" width="4.443" height="4.443" transform="translate(6.387)" fill="#ff6584" opacity="0.8"/>
          <rect id="矩形_2038-2" data-name="矩形 2038" width="4.443" height="4.443" transform="translate(12.774)" fill="#ff6584"/>
          <rect id="矩形_2039-2" data-name="矩形 2039" width="4.443" height="4.443" fill="#ff6584" opacity="0.4"/>
        </g>
        <g id="组_1278" data-name="组 1278" transform="translate(33.082 97.803)">
          <rect id="矩形_2037-3" data-name="矩形 2037" width="4.443" height="4.443" transform="translate(6.387 0)" fill="#ff6584" opacity="0.8"/>
          <rect id="矩形_2038-3" data-name="矩形 2038" width="4.443" height="4.443" transform="translate(12.774 0)" fill="#ff6584"/>
          <rect id="矩形_2039-3" data-name="矩形 2039" width="4.443" height="4.443" transform="translate(0 0)" fill="#ff6584" opacity="0.4"/>
        </g>
      </g>
      <g id="组_4524" data-name="组 4524" transform="translate(267.071 -2240.676)">
        <g id="组_1275-2" data-name="组 1275" transform="translate(0 0)">
          <rect id="矩形_2036-4" data-name="矩形 2036" width="83.063" height="25.098" transform="translate(0 73.502)" fill="#3f3d56"/>
          <ellipse id="椭圆_223-4" data-name="椭圆 223" cx="41.532" cy="8.665" rx="41.532" ry="8.665" transform="translate(0 64.538)" fill="#6c63ff"/>
          <ellipse id="椭圆_224-4" data-name="椭圆 224" cx="41.532" cy="8.964" rx="41.532" ry="8.964" transform="translate(0 90.234)" fill="#3f3d56"/>
          <rect id="矩形_2036-5" data-name="矩形 2036" width="83.063" height="25.098" transform="translate(0 40.635)" fill="#3f3d56"/>
          <ellipse id="椭圆_223-5" data-name="椭圆 223" cx="41.532" cy="9.262" rx="41.532" ry="9.262" transform="translate(0 31.672)" fill="#6c63ff"/>
          <ellipse id="椭圆_224-5" data-name="椭圆 224" cx="41.532" cy="9.561" rx="41.532" ry="9.561" transform="translate(0 57.368)" fill="#3f3d56"/>
          <rect id="矩形_2036-6" data-name="矩形 2036" width="83.063" height="25.098" transform="translate(0 9.561)" fill="#3f3d56"/>
          <ellipse id="椭圆_223-6" data-name="椭圆 223" cx="41.532" cy="9.262" rx="41.532" ry="9.262" transform="translate(0)" fill="#6c63ff"/>
          <ellipse id="椭圆_224-6" data-name="椭圆 224" cx="41.532" cy="9.262" rx="41.532" ry="9.262" transform="translate(0 25.696)" fill="#3f3d56"/>
        </g>
        <g id="组_1276-2" data-name="组 1276" transform="translate(33.082 33.791)">
          <rect id="矩形_2037-4" data-name="矩形 2037" width="4.443" height="4.443" transform="translate(6.387)" fill="#ff6584" opacity="0.8"/>
          <rect id="矩形_2038-4" data-name="矩形 2038" width="4.443" height="4.443" transform="translate(12.774)" fill="#ff6584"/>
          <rect id="矩形_2039-4" data-name="矩形 2039" width="4.443" height="4.443" fill="#ff6584" opacity="0.4"/>
        </g>
        <g id="组_1277-2" data-name="组 1277" transform="translate(33.082 65.665)">
          <rect id="矩形_2037-5" data-name="矩形 2037" width="4.443" height="4.443" transform="translate(6.387)" fill="#ff6584" opacity="0.8"/>
          <rect id="矩形_2038-5" data-name="矩形 2038" width="4.443" height="4.443" transform="translate(12.774)" fill="#ff6584"/>
          <rect id="矩形_2039-5" data-name="矩形 2039" width="4.443" height="4.443" fill="#ff6584" opacity="0.4"/>
        </g>
        <g id="组_1278-2" data-name="组 1278" transform="translate(33.082 97.803)">
          <rect id="矩形_2037-6" data-name="矩形 2037" width="4.443" height="4.443" transform="translate(6.387 0)" fill="#ff6584" opacity="0.8"/>
          <rect id="矩形_2038-6" data-name="矩形 2038" width="4.443" height="4.443" transform="translate(12.774 0)" fill="#ff6584"/>
          <rect id="矩形_2039-6" data-name="矩形 2039" width="4.443" height="4.443" transform="translate(0 0)" fill="#ff6584" opacity="0.4"/>
        </g>
      </g>
      <g id="组_4525" data-name="组 4525" transform="translate(533.06 -2240.676)">
        <g id="组_1275-3" data-name="组 1275" transform="translate(0 0)">
          <rect id="矩形_2036-7" data-name="矩形 2036" width="83.063" height="25.098" transform="translate(0 73.502)" fill="#3f3d56"/>
          <ellipse id="椭圆_223-7" data-name="椭圆 223" cx="41.532" cy="8.665" rx="41.532" ry="8.665" transform="translate(0 64.538)" fill="#6c63ff"/>
          <ellipse id="椭圆_224-7" data-name="椭圆 224" cx="41.532" cy="8.964" rx="41.532" ry="8.964" transform="translate(0 90.234)" fill="#3f3d56"/>
          <rect id="矩形_2036-8" data-name="矩形 2036" width="83.063" height="25.098" transform="translate(0 40.635)" fill="#3f3d56"/>
          <ellipse id="椭圆_223-8" data-name="椭圆 223" cx="41.532" cy="9.262" rx="41.532" ry="9.262" transform="translate(0 31.672)" fill="#6c63ff"/>
          <ellipse id="椭圆_224-8" data-name="椭圆 224" cx="41.532" cy="9.561" rx="41.532" ry="9.561" transform="translate(0 57.368)" fill="#3f3d56"/>
          <rect id="矩形_2036-9" data-name="矩形 2036" width="83.063" height="25.098" transform="translate(0 9.561)" fill="#3f3d56"/>
          <ellipse id="椭圆_223-9" data-name="椭圆 223" cx="41.532" cy="9.262" rx="41.532" ry="9.262" transform="translate(0)" fill="#6c63ff"/>
          <ellipse id="椭圆_224-9" data-name="椭圆 224" cx="41.532" cy="9.262" rx="41.532" ry="9.262" transform="translate(0 25.696)" fill="#3f3d56"/>
        </g>
        <g id="组_1276-3" data-name="组 1276" transform="translate(33.082 33.791)">
          <rect id="矩形_2037-7" data-name="矩形 2037" width="4.443" height="4.443" transform="translate(6.387)" fill="#ff6584" opacity="0.8"/>
          <rect id="矩形_2038-7" data-name="矩形 2038" width="4.443" height="4.443" transform="translate(12.774)" fill="#ff6584"/>
          <rect id="矩形_2039-7" data-name="矩形 2039" width="4.443" height="4.443" fill="#ff6584" opacity="0.4"/>
        </g>
        <g id="组_1277-3" data-name="组 1277" transform="translate(33.082 65.665)">
          <rect id="矩形_2037-8" data-name="矩形 2037" width="4.443" height="4.443" transform="translate(6.387)" fill="#ff6584" opacity="0.8"/>
          <rect id="矩形_2038-8" data-name="矩形 2038" width="4.443" height="4.443" transform="translate(12.774)" fill="#ff6584"/>
          <rect id="矩形_2039-8" data-name="矩形 2039" width="4.443" height="4.443" fill="#ff6584" opacity="0.4"/>
        </g>
        <g id="组_1278-3" data-name="组 1278" transform="translate(33.082 97.803)">
          <rect id="矩形_2037-9" data-name="矩形 2037" width="4.443" height="4.443" transform="translate(6.387 0)" fill="#ff6584" opacity="0.8"/>
          <rect id="矩形_2038-9" data-name="矩形 2038" width="4.443" height="4.443" transform="translate(12.774 0)" fill="#ff6584"/>
          <rect id="矩形_2039-9" data-name="矩形 2039" width="4.443" height="4.443" transform="translate(0 0)" fill="#ff6584" opacity="0.4"/>
        </g>
      </g>
      <g id="组_4527" data-name="组 4527" transform="translate(421.676 -2206.76)">
        <ellipse id="椭圆_1293" data-name="椭圆 1293" cx="19.876" cy="19.876" rx="19.876" ry="19.876" transform="translate(0 0)" fill="#6c63ff"/>
        <path id="路径_13707" data-name="路径 13707" d="M681.31,153.875h-12.1v-12.1H666.62v12.1h-12.1v2.593h12.1v12.1h2.592v-12.1h12.1Z" transform="translate(-648.041 -135.296)" fill="#fff"/>
      </g>
      <g id="组_4528" data-name="组 4528" transform="translate(475.512 -2121.609)">
        <g id="undraw_data_extraction_ih3n" transform="translate(0 0)">
          <path id="路径_13684" data-name="路径 13684" d="M608.539,199.734a36.179,36.179,0,1,1,36.179-36.179A36.22,36.22,0,0,1,608.539,199.734Zm0-72.008a35.829,35.829,0,1,0,35.829,35.829A35.87,35.87,0,0,0,608.539,127.725Z" transform="translate(-572.36 -125.294)" fill="#e6e6e6"/>
          <path id="路径_13685" data-name="路径 13685" d="M656.4,237.459a26.042,26.042,0,1,1,26.042-26.042A26.071,26.071,0,0,1,656.4,237.459Zm0-51.734a25.692,25.692,0,1,0,25.692,25.692A25.721,25.721,0,0,0,656.4,185.725Z" transform="translate(-620.223 -173.157)" fill="#e6e6e6"/>
          <path id="路径_13686" data-name="路径 13686" d="M704.809,275.614a15.79,15.79,0,1,1,15.79-15.79,15.79,15.79,0,0,1-15.79,15.79Zm0-31.23a15.44,15.44,0,1,0,15.44,15.44A15.44,15.44,0,0,0,704.809,244.384Z" transform="translate(-668.63 -221.563)" fill="#e6e6e6"/>
          <ellipse id="椭圆_1278" data-name="椭圆 1278" cx="8.018" cy="8.018" rx="8.018" ry="8.018" transform="translate(28.161 30.243)" fill="#6c63ff"/>
          <ellipse id="椭圆_1279" data-name="椭圆 1279" cx="2.542" cy="2.542" rx="2.542" ry="2.542" transform="translate(39.373 0)" fill="#ff6584"/>
          <ellipse id="椭圆_1280" data-name="椭圆 1280" cx="2.542" cy="2.542" rx="2.542" ry="2.542" transform="translate(7.498 60.426)" fill="#ff6584"/>
          <ellipse id="椭圆_1281" data-name="椭圆 1281" cx="2.542" cy="2.542" rx="2.542" ry="2.542" transform="translate(7.847 38.578)" fill="#e6e6e6"/>
          <ellipse id="椭圆_1282" data-name="椭圆 1282" cx="2.542" cy="2.542" rx="2.542" ry="2.542" transform="translate(55.387 21.45)" fill="#e6e6e6"/>
          <ellipse id="椭圆_1283" data-name="椭圆 1283" cx="2.542" cy="2.542" rx="2.542" ry="2.542" transform="translate(65.349 53.085)" fill="#e6e6e6"/>
          <ellipse id="椭圆_1284" data-name="椭圆 1284" cx="2.542" cy="2.542" rx="2.542" ry="2.542" transform="translate(57.95 41.848)" fill="#ff6584"/>
          <ellipse id="椭圆_1285" data-name="椭圆 1285" cx="2.542" cy="2.542" rx="2.542" ry="2.542" transform="translate(2.218 17.6)" fill="#6c63ff"/>
          <ellipse id="椭圆_1286" data-name="椭圆 1286" cx="2.542" cy="2.542" rx="2.542" ry="2.542" transform="translate(43.088 70.594)" fill="#6c63ff"/>
        </g>
        <g id="组_4526" data-name="组 4526" transform="translate(31.794 35.908)">
          <path id="路径_13622" data-name="路径 13622" d="M2384.646,512.776a1.738,1.738,0,0,0-.2.012.036.036,0,0,1-.037-.022,2.522,2.522,0,0,0-2.332-1.561h-1.006a.036.036,0,0,0-.036.036v.164a.036.036,0,0,1-.021.033,2.522,2.522,0,0,0-1.459,2.288c0,.014,0,.028,0,.041a.036.036,0,0,1-.037.037h-.036a1.207,1.207,0,0,0-.266,2.385h5.714v0a1.717,1.717,0,0,0-.282-3.411Z" transform="translate(-2377.274 -511.205)" fill="#3f3d56"/>
          <path id="路径_13623" data-name="路径 13623" d="M2330.646,512.776a1.744,1.744,0,0,0-.2.012.036.036,0,0,1-.038-.022,2.522,2.522,0,0,0-4.854.961c0,.014,0,.028,0,.041a.036.036,0,0,1-.038.037h-.037a1.207,1.207,0,0,0-.266,2.385h5.714v0a1.717,1.717,0,0,0-.282-3.411Z" transform="translate(-2324.273 -511.205)" fill="#fff"/>
        </g>
      </g>
    </g>
  </g>
</svg>
