<svg xmlns="http://www.w3.org/2000/svg" width="750" height="550" viewBox="0 0 750 550">
  <g id="Group_2214" data-name="Group 2214" transform="translate(-3192 -1957)">
    <g id="Group_1933" data-name="Group 1933" transform="translate(2724.999 -2211)">
      <g id="Group_1579" data-name="Group 1579" transform="translate(0)">
        <ellipse id="Ellipse_238" data-name="Ellipse 238" cx="334.824" cy="26.868" rx="334.824" ry="26.868" transform="translate(507 4554.364)" fill="#f7f8f9"/>
        <g id="Group_1275" data-name="Group 1275" transform="translate(576 4400)">
          <rect id="Rectangle_2036" data-name="Rectangle 2036" width="139" height="42" transform="translate(0 123)" fill="#3f3d56"/>
          <ellipse id="Ellipse_223" data-name="Ellipse 223" cx="69.5" cy="14.5" rx="69.5" ry="14.5" transform="translate(0 108)" fill="#6c63ff"/>
          <ellipse id="Ellipse_224" data-name="Ellipse 224" cx="69.5" cy="15" rx="69.5" ry="15" transform="translate(0 151)" fill="#3f3d56"/>
          <rect id="Rectangle_2036-2" data-name="Rectangle 2036" width="139" height="42" transform="translate(0 68)" fill="#3f3d56"/>
          <ellipse id="Ellipse_223-2" data-name="Ellipse 223" cx="69.5" cy="15.5" rx="69.5" ry="15.5" transform="translate(0 53)" fill="#6c63ff"/>
          <ellipse id="Ellipse_224-2" data-name="Ellipse 224" cx="69.5" cy="16" rx="69.5" ry="16" transform="translate(0 96)" fill="#3f3d56"/>
          <rect id="Rectangle_2036-3" data-name="Rectangle 2036" width="139" height="42" transform="translate(0 16)" fill="#3f3d56"/>
          <ellipse id="Ellipse_223-3" data-name="Ellipse 223" cx="69.5" cy="15.5" rx="69.5" ry="15.5" fill="#6c63ff"/>
          <ellipse id="Ellipse_224-3" data-name="Ellipse 224" cx="69.5" cy="15.5" rx="69.5" ry="15.5" transform="translate(0 43)" fill="#3f3d56"/>
        </g>
        <g id="Group_1276" data-name="Group 1276" transform="translate(630.887 4456.546)">
          <rect id="Rectangle_2037" data-name="Rectangle 2037" width="7.435" height="7.435" transform="translate(10.688)" fill="#ff6584" opacity="0.8"/>
          <rect id="Rectangle_2038" data-name="Rectangle 2038" width="7.435" height="7.435" transform="translate(21.376)" fill="#ff6584"/>
          <rect id="Rectangle_2039" data-name="Rectangle 2039" width="7.435" height="7.435" fill="#ff6584" opacity="0.4"/>
        </g>
        <g id="Group_1277" data-name="Group 1277" transform="translate(630.887 4509.885)">
          <rect id="Rectangle_2037-2" data-name="Rectangle 2037" width="7.435" height="7.435" transform="translate(10.688)" fill="#ff6584" opacity="0.8"/>
          <rect id="Rectangle_2038-2" data-name="Rectangle 2038" width="7.435" height="7.435" transform="translate(21.376)" fill="#ff6584"/>
          <rect id="Rectangle_2039-2" data-name="Rectangle 2039" width="7.435" height="7.435" fill="#ff6584" opacity="0.4"/>
        </g>
        <g id="Group_1278" data-name="Group 1278" transform="translate(630.887 4563.666)">
          <rect id="Rectangle_2037-3" data-name="Rectangle 2037" width="7.435" height="7.435" transform="translate(10.688 0)" fill="#ff6584" opacity="0.8"/>
          <rect id="Rectangle_2038-3" data-name="Rectangle 2038" width="7.435" height="7.435" transform="translate(21.376 0)" fill="#ff6584"/>
          <rect id="Rectangle_2039-3" data-name="Rectangle 2039" width="7.435" height="7.435" transform="translate(0 0)" fill="#ff6584" opacity="0.4"/>
        </g>
        <g id="Group_1275-2" data-name="Group 1275" transform="translate(772.737 4400)">
          <rect id="Rectangle_2036-4" data-name="Rectangle 2036" width="138" height="42" transform="translate(0.263 123)" fill="#3f3d56"/>
          <ellipse id="Ellipse_223-4" data-name="Ellipse 223" cx="69" cy="14.5" rx="69" ry="14.5" transform="translate(0.263 108)" fill="#6c63ff"/>
          <ellipse id="Ellipse_224-4" data-name="Ellipse 224" cx="69" cy="15" rx="69" ry="15" transform="translate(0.263 151)" fill="#3f3d56"/>
          <rect id="Rectangle_2036-5" data-name="Rectangle 2036" width="138" height="42" transform="translate(0.263 68)" fill="#3f3d56"/>
          <ellipse id="Ellipse_223-5" data-name="Ellipse 223" cx="69" cy="15.5" rx="69" ry="15.5" transform="translate(0.263 53)" fill="#6c63ff"/>
          <ellipse id="Ellipse_224-5" data-name="Ellipse 224" cx="69" cy="16" rx="69" ry="16" transform="translate(0.263 96)" fill="#3f3d56"/>
          <rect id="Rectangle_2036-6" data-name="Rectangle 2036" width="138" height="42" transform="translate(0.263 16)" fill="#3f3d56"/>
          <ellipse id="Ellipse_223-6" data-name="Ellipse 223" cx="69" cy="15.5" rx="69" ry="15.5" transform="translate(0.263)" fill="#6c63ff"/>
          <ellipse id="Ellipse_224-6" data-name="Ellipse 224" cx="69" cy="15.5" rx="69" ry="15.5" transform="translate(0.263 43)" fill="#3f3d56"/>
        </g>
        <g id="Group_1276-2" data-name="Group 1276" transform="translate(827.624 4456.546)">
          <rect id="Rectangle_2037-4" data-name="Rectangle 2037" width="7.435" height="7.435" transform="translate(10.688)" fill="#ff6584" opacity="0.8"/>
          <rect id="Rectangle_2038-4" data-name="Rectangle 2038" width="7.435" height="7.435" transform="translate(21.376)" fill="#ff6584"/>
          <rect id="Rectangle_2039-4" data-name="Rectangle 2039" width="7.435" height="7.435" fill="#ff6584" opacity="0.4"/>
        </g>
        <g id="Group_1277-2" data-name="Group 1277" transform="translate(827.624 4509.885)">
          <rect id="Rectangle_2037-5" data-name="Rectangle 2037" width="7.435" height="7.435" transform="translate(10.688)" fill="#ff6584" opacity="0.8"/>
          <rect id="Rectangle_2038-5" data-name="Rectangle 2038" width="7.435" height="7.435" transform="translate(21.376)" fill="#ff6584"/>
          <rect id="Rectangle_2039-5" data-name="Rectangle 2039" width="7.435" height="7.435" fill="#ff6584" opacity="0.4"/>
        </g>
        <g id="Group_1278-2" data-name="Group 1278" transform="translate(827.624 4563.666)">
          <rect id="Rectangle_2037-6" data-name="Rectangle 2037" width="7.435" height="7.435" transform="translate(10.688 0)" fill="#ff6584" opacity="0.8"/>
          <rect id="Rectangle_2038-6" data-name="Rectangle 2038" width="7.435" height="7.435" transform="translate(21.376 0)" fill="#ff6584"/>
          <rect id="Rectangle_2039-6" data-name="Rectangle 2039" width="7.435" height="7.435" transform="translate(0 0)" fill="#ff6584" opacity="0.4"/>
        </g>
        <line id="Line_89" data-name="Line 89" y1="96" transform="translate(645.5 4304.5)" fill="none" stroke="#707070" stroke-width="1" stroke-dasharray="6"/>
        <line id="Line_90" data-name="Line 90" y1="96" transform="translate(841.5 4304.5)" fill="none" stroke="#707070" stroke-width="1" stroke-dasharray="6"/>
        <line id="Line_91" data-name="Line 91" y1="96" transform="translate(1038.5 4304.5)" fill="none" stroke="#707070" stroke-width="1" stroke-dasharray="6"/>
        <line id="Line_92" data-name="Line 92" x2="600" transform="translate(547.5 4304.5)" fill="none" stroke="#707070" stroke-width="1"/>
        <g id="Ellipse_239" data-name="Ellipse 239" transform="translate(618 4277)" fill="#fff" stroke="#707070" stroke-width="1">
          <circle cx="27.5" cy="27.5" r="27.5" stroke="none"/>
          <circle cx="27.5" cy="27.5" r="27" fill="none"/>
        </g>
        <g id="Group_1304" data-name="Group 1304" transform="translate(-21 122)">
          <g id="Ellipse_240" data-name="Ellipse 240" transform="translate(639 4155)" fill="#fff" stroke="#707070" stroke-width="1">
            <circle cx="27.5" cy="27.5" r="27.5" stroke="none"/>
            <circle cx="27.5" cy="27.5" r="27" fill="none"/>
          </g>
          <circle id="Ellipse_241" data-name="Ellipse 241" cx="21.5" cy="21.5" r="21.5" transform="translate(645 4161)" fill="#6c63ff"/>
          <g id="Group_1303" data-name="Group 1303">
            <line id="Line_93" data-name="Line 93" x2="20" transform="translate(656.5 4182.5)" fill="none" stroke="#fff" stroke-width="2"/>
            <line id="Line_94" data-name="Line 94" x2="20" transform="translate(666.5 4172.5) rotate(90)" fill="none" stroke="#fff" stroke-width="2"/>
          </g>
        </g>
        <g id="Group_1305" data-name="Group 1305" transform="translate(175 122)">
          <g id="Ellipse_240-2" data-name="Ellipse 240" transform="translate(639 4155)" fill="#fff" stroke="#707070" stroke-width="1">
            <circle cx="27.5" cy="27.5" r="27.5" stroke="none"/>
            <circle cx="27.5" cy="27.5" r="27" fill="none"/>
          </g>
          <circle id="Ellipse_241-2" data-name="Ellipse 241" cx="21.5" cy="21.5" r="21.5" transform="translate(645 4161)" fill="#6c63ff"/>
          <g id="Group_1303-2" data-name="Group 1303">
            <line id="Line_93-2" data-name="Line 93" x2="20" transform="translate(656.5 4182.5)" fill="none" stroke="#fff" stroke-width="2"/>
            <line id="Line_94-2" data-name="Line 94" x2="20" transform="translate(666.5 4172.5) rotate(90)" fill="none" stroke="#fff" stroke-width="2"/>
          </g>
        </g>
        <g id="Group_1306" data-name="Group 1306" transform="translate(372 122)">
          <g id="Ellipse_240-3" data-name="Ellipse 240" transform="translate(639 4155)" fill="#fff" stroke="#707070" stroke-width="1">
            <circle cx="27.5" cy="27.5" r="27.5" stroke="none"/>
            <circle cx="27.5" cy="27.5" r="27" fill="none"/>
          </g>
          <circle id="Ellipse_241-3" data-name="Ellipse 241" cx="21.5" cy="21.5" r="21.5" transform="translate(645 4161)" fill="#6c63ff"/>
          <g id="Group_1303-3" data-name="Group 1303">
            <line id="Line_93-3" data-name="Line 93" x2="20" transform="translate(656.5 4182.5)" fill="none" stroke="#fff" stroke-width="2"/>
            <line id="Line_94-3" data-name="Line 94" x2="20" transform="translate(666.5 4172.5) rotate(90)" fill="none" stroke="#fff" stroke-width="2"/>
          </g>
        </g>
        <g id="Group_1382" data-name="Group 1382">
          <g id="Group_1275-3" data-name="Group 1275" transform="translate(969.474 4400)">
            <rect id="Rectangle_2036-7" data-name="Rectangle 2036" width="139" height="42" transform="translate(-0.474 123)" fill="#3f3d56"/>
            <ellipse id="Ellipse_223-7" data-name="Ellipse 223" cx="69.5" cy="14.5" rx="69.5" ry="14.5" transform="translate(-0.474 108)" fill="#6c63ff"/>
            <ellipse id="Ellipse_224-7" data-name="Ellipse 224" cx="69.5" cy="15" rx="69.5" ry="15" transform="translate(-0.474 151)" fill="#3f3d56"/>
            <rect id="Rectangle_2036-8" data-name="Rectangle 2036" width="139" height="42" transform="translate(-0.474 68)" fill="#3f3d56"/>
            <ellipse id="Ellipse_223-8" data-name="Ellipse 223" cx="69.5" cy="15.5" rx="69.5" ry="15.5" transform="translate(-0.474 53)" fill="#6c63ff"/>
            <ellipse id="Ellipse_224-8" data-name="Ellipse 224" cx="69.5" cy="16" rx="69.5" ry="16" transform="translate(-0.474 96)" fill="#3f3d56"/>
            <rect id="Rectangle_2036-9" data-name="Rectangle 2036" width="139" height="42" transform="translate(-0.474 16)" fill="#3f3d56"/>
            <ellipse id="Ellipse_223-9" data-name="Ellipse 223" cx="69.5" cy="15.5" rx="69.5" ry="15.5" transform="translate(-0.474)" fill="#6c63ff"/>
            <ellipse id="Ellipse_224-9" data-name="Ellipse 224" cx="69.5" cy="15.5" rx="69.5" ry="15.5" transform="translate(-0.474 43)" fill="#3f3d56"/>
          </g>
          <g id="Group_1276-3" data-name="Group 1276" transform="translate(1024.36 4456.546)">
            <rect id="Rectangle_2037-7" data-name="Rectangle 2037" width="7.435" height="7.435" transform="translate(10.688)" fill="#ff6584" opacity="0.8"/>
            <rect id="Rectangle_2038-7" data-name="Rectangle 2038" width="7.435" height="7.435" transform="translate(21.376)" fill="#ff6584"/>
            <rect id="Rectangle_2039-7" data-name="Rectangle 2039" width="7.435" height="7.435" fill="#ff6584" opacity="0.4"/>
          </g>
          <g id="Group_1277-3" data-name="Group 1277" transform="translate(1024.36 4509.885)">
            <rect id="Rectangle_2037-8" data-name="Rectangle 2037" width="7.435" height="7.435" transform="translate(10.688)" fill="#ff6584" opacity="0.8"/>
            <rect id="Rectangle_2038-8" data-name="Rectangle 2038" width="7.435" height="7.435" transform="translate(21.376)" fill="#ff6584"/>
            <rect id="Rectangle_2039-8" data-name="Rectangle 2039" width="7.435" height="7.435" fill="#ff6584" opacity="0.4"/>
          </g>
          <g id="Group_1278-3" data-name="Group 1278" transform="translate(1024.36 4563.666)">
            <rect id="Rectangle_2037-9" data-name="Rectangle 2037" width="7.435" height="7.435" transform="translate(10.688 0)" fill="#ff6584" opacity="0.8"/>
            <rect id="Rectangle_2038-9" data-name="Rectangle 2038" width="7.435" height="7.435" transform="translate(21.376 0)" fill="#ff6584"/>
            <rect id="Rectangle_2039-9" data-name="Rectangle 2039" width="7.435" height="7.435" transform="translate(0 0)" fill="#ff6584" opacity="0.4"/>
          </g>
        </g>
      </g>
    </g>
    <g id="Rectangle_2602" data-name="Rectangle 2602" transform="translate(3192 1957)" fill="none" stroke="#707070" stroke-width="1" opacity="0">
      <rect width="750" height="550" stroke="none"/>
      <rect x="0.5" y="0.5" width="749" height="549" fill="none"/>
    </g>
  </g>
</svg>
