<svg xmlns="http://www.w3.org/2000/svg" xmlns:xlink="http://www.w3.org/1999/xlink" width="448" height="340" viewBox="0 0 448 340">
  <defs>
    <clipPath id="clip-path">
      <rect id="矩形_3144" data-name="矩形 3144" width="448" height="340" transform="translate(283 2784)" fill="none" stroke="#707070" stroke-width="1"/>
    </clipPath>
  </defs>
  <g id="蒙版组_81" data-name="蒙版组 81" transform="translate(-283 -2784)" clip-path="url(#clip-path)">
    <g id="组_1933" data-name="组 1933" transform="translate(-227 -1434)">
      <g id="组_1579" data-name="组 1579" transform="translate(507 4277)">
        <ellipse id="椭圆_238" data-name="椭圆 238" cx="224" cy="17.975" rx="224" ry="17.975" transform="translate(0 185.559)" fill="#f7f8f9"/>
        <g id="组_1275" data-name="组 1275" transform="translate(46.162 82.288)">
          <rect id="矩形_2036" data-name="矩形 2036" width="92.992" height="28.098" transform="translate(0 82.288)" fill="#3f3d56"/>
          <ellipse id="椭圆_223" data-name="椭圆 223" cx="46.496" cy="9.701" rx="46.496" ry="9.701" transform="translate(0 72.253)" fill="#6c63ff"/>
          <ellipse id="椭圆_224" data-name="椭圆 224" cx="46.496" cy="10.035" rx="46.496" ry="10.035" transform="translate(0 101.02)" fill="#3f3d56"/>
          <rect id="矩形_2036-2" data-name="矩形 2036" width="92.992" height="28.098" transform="translate(0 45.493)" fill="#3f3d56"/>
          <ellipse id="椭圆_223-2" data-name="椭圆 223" cx="46.496" cy="10.37" rx="46.496" ry="10.37" transform="translate(0 35.457)" fill="#6c63ff"/>
          <ellipse id="椭圆_224-2" data-name="椭圆 224" cx="46.496" cy="10.704" rx="46.496" ry="10.704" transform="translate(0 64.225)" fill="#3f3d56"/>
          <rect id="矩形_2036-3" data-name="矩形 2036" width="92.992" height="28.098" transform="translate(0 10.704)" fill="#3f3d56"/>
          <ellipse id="椭圆_223-3" data-name="椭圆 223" cx="46.496" cy="10.37" rx="46.496" ry="10.37" fill="#6c63ff"/>
          <ellipse id="椭圆_224-3" data-name="椭圆 224" cx="46.496" cy="10.37" rx="46.496" ry="10.37" transform="translate(0 28.767)" fill="#3f3d56"/>
        </g>
        <g id="组_1276" data-name="组 1276" transform="translate(82.881 120.118)">
          <rect id="矩形_2037" data-name="矩形 2037" width="4.974" height="4.974" transform="translate(7.151)" fill="#ff6584" opacity="0.8"/>
          <rect id="矩形_2038" data-name="矩形 2038" width="4.974" height="4.974" transform="translate(14.301)" fill="#ff6584"/>
          <rect id="矩形_2039" data-name="矩形 2039" width="4.974" height="4.974" fill="#ff6584" opacity="0.4"/>
        </g>
        <g id="组_1277" data-name="组 1277" transform="translate(82.881 155.802)">
          <rect id="矩形_2037-2" data-name="矩形 2037" width="4.974" height="4.974" transform="translate(7.151)" fill="#ff6584" opacity="0.8"/>
          <rect id="矩形_2038-2" data-name="矩形 2038" width="4.974" height="4.974" transform="translate(14.301)" fill="#ff6584"/>
          <rect id="矩形_2039-2" data-name="矩形 2039" width="4.974" height="4.974" fill="#ff6584" opacity="0.4"/>
        </g>
        <g id="组_1278" data-name="组 1278" transform="translate(82.881 191.781)">
          <rect id="矩形_2037-3" data-name="矩形 2037" width="4.974" height="4.974" transform="translate(7.151 0)" fill="#ff6584" opacity="0.8"/>
          <rect id="矩形_2038-3" data-name="矩形 2038" width="4.974" height="4.974" transform="translate(14.301 0)" fill="#ff6584"/>
          <rect id="矩形_2039-3" data-name="矩形 2039" width="4.974" height="4.974" transform="translate(0 0)" fill="#ff6584" opacity="0.4"/>
        </g>
        <g id="组_1275-2" data-name="组 1275" transform="translate(177.956 82.288)">
          <rect id="矩形_2036-4" data-name="矩形 2036" width="92.323" height="28.098" transform="translate(0 82.288)" fill="#3f3d56"/>
          <ellipse id="椭圆_223-4" data-name="椭圆 223" cx="46.162" cy="9.701" rx="46.162" ry="9.701" transform="translate(0 72.253)" fill="#6c63ff"/>
          <ellipse id="椭圆_224-4" data-name="椭圆 224" cx="46.162" cy="10.035" rx="46.162" ry="10.035" transform="translate(0 101.02)" fill="#3f3d56"/>
          <rect id="矩形_2036-5" data-name="矩形 2036" width="92.323" height="28.098" transform="translate(0 45.493)" fill="#3f3d56"/>
          <ellipse id="椭圆_223-5" data-name="椭圆 223" cx="46.162" cy="10.37" rx="46.162" ry="10.37" transform="translate(0 35.457)" fill="#6c63ff"/>
          <ellipse id="椭圆_224-5" data-name="椭圆 224" cx="46.162" cy="10.704" rx="46.162" ry="10.704" transform="translate(0 64.225)" fill="#3f3d56"/>
          <rect id="矩形_2036-6" data-name="矩形 2036" width="92.323" height="28.098" transform="translate(0 10.704)" fill="#3f3d56"/>
          <ellipse id="椭圆_223-6" data-name="椭圆 223" cx="46.162" cy="10.37" rx="46.162" ry="10.37" transform="translate(0)" fill="#6c63ff"/>
          <ellipse id="椭圆_224-6" data-name="椭圆 224" cx="46.162" cy="10.37" rx="46.162" ry="10.37" transform="translate(0 28.767)" fill="#3f3d56"/>
        </g>
        <g id="组_1276-2" data-name="组 1276" transform="translate(214.5 120.118)">
          <rect id="矩形_2037-4" data-name="矩形 2037" width="4.974" height="4.974" transform="translate(7.151)" fill="#ff6584" opacity="0.8"/>
          <rect id="矩形_2038-4" data-name="矩形 2038" width="4.974" height="4.974" transform="translate(14.301)" fill="#ff6584"/>
          <rect id="矩形_2039-4" data-name="矩形 2039" width="4.974" height="4.974" fill="#ff6584" opacity="0.4"/>
        </g>
        <g id="组_1277-2" data-name="组 1277" transform="translate(214.5 155.802)">
          <rect id="矩形_2037-5" data-name="矩形 2037" width="4.974" height="4.974" transform="translate(7.151)" fill="#ff6584" opacity="0.8"/>
          <rect id="矩形_2038-5" data-name="矩形 2038" width="4.974" height="4.974" transform="translate(14.301)" fill="#ff6584"/>
          <rect id="矩形_2039-5" data-name="矩形 2039" width="4.974" height="4.974" fill="#ff6584" opacity="0.4"/>
        </g>
        <g id="组_1278-2" data-name="组 1278" transform="translate(214.5 191.781)">
          <rect id="矩形_2037-6" data-name="矩形 2037" width="4.974" height="4.974" transform="translate(7.151 0)" fill="#ff6584" opacity="0.8"/>
          <rect id="矩形_2038-6" data-name="矩形 2038" width="4.974" height="4.974" transform="translate(14.301 0)" fill="#ff6584"/>
          <rect id="矩形_2039-6" data-name="矩形 2039" width="4.974" height="4.974" transform="translate(0 0)" fill="#ff6584" opacity="0.4"/>
        </g>
        <line id="直线_89" data-name="直线 89" y1="64.225" transform="translate(92.658 18.398)" fill="none" stroke="#707070" stroke-width="1" stroke-dasharray="6"/>
        <line id="直线_90" data-name="直线 90" y1="64.225" transform="translate(223.783 18.398)" fill="none" stroke="#707070" stroke-width="1" stroke-dasharray="6"/>
        <line id="直线_91" data-name="直线 91" y1="64.225" transform="translate(355.578 18.398)" fill="none" stroke="#707070" stroke-width="1" stroke-dasharray="6"/>
        <line id="直线_92" data-name="直线 92" x2="401.405" transform="translate(27.095 18.398)" fill="none" stroke="#707070" stroke-width="1"/>
        <g id="椭圆_239" data-name="椭圆 239" transform="translate(74.26)" fill="#fff" stroke="#707070" stroke-width="1">
          <circle cx="18.398" cy="18.398" r="18.398" stroke="none"/>
          <circle cx="18.398" cy="18.398" r="17.898" fill="none"/>
        </g>
        <g id="组_1304" data-name="组 1304" transform="translate(74.26)">
          <g id="椭圆_240" data-name="椭圆 240" fill="#fff" stroke="#707070" stroke-width="1">
            <circle cx="18.398" cy="18.398" r="18.398" stroke="none"/>
            <circle cx="18.398" cy="18.398" r="17.898" fill="none"/>
          </g>
          <circle id="椭圆_241" data-name="椭圆 241" cx="14.384" cy="14.384" r="14.384" transform="translate(4.014 4.014)" fill="#6c63ff"/>
          <g id="组_1303" data-name="组 1303" transform="translate(11.708 11.708)">
            <line id="直线_93" data-name="直线 93" x2="13.38" transform="translate(0 6.69)" fill="none" stroke="#fff" stroke-width="2"/>
            <line id="直线_94" data-name="直线 94" x2="13.38" transform="translate(6.69) rotate(90)" fill="none" stroke="#fff" stroke-width="2"/>
          </g>
        </g>
        <g id="组_1305" data-name="组 1305" transform="translate(205.385)">
          <g id="椭圆_240-2" data-name="椭圆 240" transform="translate(0)" fill="#fff" stroke="#707070" stroke-width="1">
            <circle cx="18.398" cy="18.398" r="18.398" stroke="none"/>
            <circle cx="18.398" cy="18.398" r="17.898" fill="none"/>
          </g>
          <circle id="椭圆_241-2" data-name="椭圆 241" cx="14.384" cy="14.384" r="14.384" transform="translate(4.014 4.014)" fill="#6c63ff"/>
          <g id="组_1303-2" data-name="组 1303" transform="translate(11.708 11.708)">
            <line id="直线_93-2" data-name="直线 93" x2="13.38" transform="translate(0 6.69)" fill="none" stroke="#fff" stroke-width="2"/>
            <line id="直线_94-2" data-name="直线 94" x2="13.38" transform="translate(6.69) rotate(90)" fill="none" stroke="#fff" stroke-width="2"/>
          </g>
        </g>
        <g id="组_1306" data-name="组 1306" transform="translate(337.18)">
          <g id="椭圆_240-3" data-name="椭圆 240" transform="translate(0)" fill="#fff" stroke="#707070" stroke-width="1">
            <circle cx="18.398" cy="18.398" r="18.398" stroke="none"/>
            <circle cx="18.398" cy="18.398" r="17.898" fill="none"/>
          </g>
          <circle id="椭圆_241-3" data-name="椭圆 241" cx="14.384" cy="14.384" r="14.384" transform="translate(4.014 4.014)" fill="#6c63ff"/>
          <g id="组_1303-3" data-name="组 1303" transform="translate(11.708 11.708)">
            <line id="直线_93-3" data-name="直线 93" x2="13.38" transform="translate(0 6.69)" fill="none" stroke="#fff" stroke-width="2"/>
            <line id="直线_94-3" data-name="直线 94" x2="13.38" transform="translate(6.69) rotate(90)" fill="none" stroke="#fff" stroke-width="2"/>
          </g>
        </g>
        <g id="组_1382" data-name="组 1382" transform="translate(309.081 82.288)">
          <g id="组_1275-3" data-name="组 1275" transform="translate(0)">
            <rect id="矩形_2036-7" data-name="矩形 2036" width="92.992" height="28.098" transform="translate(0 82.288)" fill="#3f3d56"/>
            <ellipse id="椭圆_223-7" data-name="椭圆 223" cx="46.496" cy="9.701" rx="46.496" ry="9.701" transform="translate(0 72.253)" fill="#6c63ff"/>
            <ellipse id="椭圆_224-7" data-name="椭圆 224" cx="46.496" cy="10.035" rx="46.496" ry="10.035" transform="translate(0 101.02)" fill="#3f3d56"/>
            <rect id="矩形_2036-8" data-name="矩形 2036" width="92.992" height="28.098" transform="translate(0 45.493)" fill="#3f3d56"/>
            <ellipse id="椭圆_223-8" data-name="椭圆 223" cx="46.496" cy="10.37" rx="46.496" ry="10.37" transform="translate(0 35.457)" fill="#6c63ff"/>
            <ellipse id="椭圆_224-8" data-name="椭圆 224" cx="46.496" cy="10.704" rx="46.496" ry="10.704" transform="translate(0 64.225)" fill="#3f3d56"/>
            <rect id="矩形_2036-9" data-name="矩形 2036" width="92.992" height="28.098" transform="translate(0 10.704)" fill="#3f3d56"/>
            <ellipse id="椭圆_223-9" data-name="椭圆 223" cx="46.496" cy="10.37" rx="46.496" ry="10.37" fill="#6c63ff"/>
            <ellipse id="椭圆_224-9" data-name="椭圆 224" cx="46.496" cy="10.37" rx="46.496" ry="10.37" transform="translate(0 28.767)" fill="#3f3d56"/>
          </g>
          <g id="组_1276-3" data-name="组 1276" transform="translate(37.037 37.83)">
            <rect id="矩形_2037-7" data-name="矩形 2037" width="4.974" height="4.974" transform="translate(7.151)" fill="#ff6584" opacity="0.8"/>
            <rect id="矩形_2038-7" data-name="矩形 2038" width="4.974" height="4.974" transform="translate(14.301)" fill="#ff6584"/>
            <rect id="矩形_2039-7" data-name="矩形 2039" width="4.974" height="4.974" fill="#ff6584" opacity="0.4"/>
          </g>
          <g id="组_1277-3" data-name="组 1277" transform="translate(37.037 73.514)">
            <rect id="矩形_2037-8" data-name="矩形 2037" width="4.974" height="4.974" transform="translate(7.151)" fill="#ff6584" opacity="0.8"/>
            <rect id="矩形_2038-8" data-name="矩形 2038" width="4.974" height="4.974" transform="translate(14.301)" fill="#ff6584"/>
            <rect id="矩形_2039-8" data-name="矩形 2039" width="4.974" height="4.974" fill="#ff6584" opacity="0.4"/>
          </g>
          <g id="组_1278-3" data-name="组 1278" transform="translate(37.037 109.494)">
            <rect id="矩形_2037-9" data-name="矩形 2037" width="4.974" height="4.974" transform="translate(7.151 0)" fill="#ff6584" opacity="0.8"/>
            <rect id="矩形_2038-9" data-name="矩形 2038" width="4.974" height="4.974" transform="translate(14.301 0)" fill="#ff6584"/>
            <rect id="矩形_2039-9" data-name="矩形 2039" width="4.974" height="4.974" transform="translate(0 0)" fill="#ff6584" opacity="0.4"/>
          </g>
        </g>
      </g>
    </g>
  </g>
</svg>
