<svg xmlns="http://www.w3.org/2000/svg" xmlns:xlink="http://www.w3.org/1999/xlink" width="506" height="404" viewBox="0 0 506 404">
  <defs>
    <clipPath id="clip-path">
      <rect id="矩形_4005" data-name="矩形 4005" width="448" height="340" transform="translate(952 3179)" fill="none" stroke="#707070" stroke-width="1"/>
    </clipPath>
    <clipPath id="clip-金融级高可用">
      <rect width="506" height="404"/>
    </clipPath>
  </defs>
  <g id="金融级高可用" clip-path="url(#clip-金融级高可用)">
    <g id="蒙版组_137" data-name="蒙版组 137" transform="translate(-923 -3147)" clip-path="url(#clip-path)">
      <g id="组_4567" data-name="组 4567" transform="translate(0 0.442)">
        <path id="路径_13756" data-name="路径 13756" d="M218,41.4c-24.054-.836-46.964-8.6-68.844-17.1S105.608,6.4,82.129,1.9c-15.1-2.9-32.368-3.3-44.537,4.791C25.885,14.492,22.1,27.928,20.065,40.408,18.537,49.8,17.638,59.679,21.83,68.469c2.91,6.1,8.08,11.232,11.655,17.074,12.436,20.338,3.646,45.432-9.827,65.276C17.341,160.137,10,169.031,5.124,178.939s-7.136,21.278-2.869,31.395c4.233,10.035,14.317,17.558,25.24,22.854,22.181,10.778,48.317,13.837,73.817,15.58,56.426,3.862,113.157,2.189,169.732.517,20.94-.621,41.968-1.249,62.57-4.486,11.436-1.8,23.248-4.65,31.551-11.522,10.54-8.745,13.153-23.553,6.092-34.52-11.849-18.394-44.6-22.962-52.892-42.7-4.56-10.868.123-22.969,6.746-33.049,14.212-21.616,38.033-40.582,39.289-65.291.862-16.97-10.589-33.967-28.295-42-18.561-8.415-44.3-7.355-57.98,6.575C264.008,36.621,239.225,42.148,218,41.4Z" transform="translate(952.48 3284.259) rotate(-17)" fill="#f7f8f9"/>
        <path id="路径_13757" data-name="路径 13757" d="M0,0C10.683,14.078,29.614,9.667,40.242,9.284S76.811,14.045,81,37.441" transform="matrix(0.995, -0.105, 0.105, 0.995, 1187.534, 3340.473)" fill="none" stroke="#3f3d56" stroke-width="1"/>
        <g id="组_4554" data-name="组 4554" transform="translate(999.165 3255.16)">
          <rect id="矩形_3962" data-name="矩形 3962" width="60.765" height="12.101" transform="translate(18.569 60.765) rotate(-90)" fill="#3351ff"/>
          <rect id="矩形_3963" data-name="矩形 3963" width="37.297" height="12.101" transform="translate(37.139 60.765) rotate(-90)" fill="#ff6584"/>
          <rect id="矩形_3964" data-name="矩形 3964" width="46.935" height="12.101" transform="translate(0 60.765) rotate(-90)" fill="#6c63ff"/>
        </g>
        <g id="组_4556" data-name="组 4556" transform="translate(1078.991 3256.233)">
          <path id="路径_13758" data-name="路径 13758" d="M3.156,0A29.781,29.781,0,0,0,29.773,43.124V15.756Z" transform="translate(62.922 43.129) rotate(180)" fill="#3f3d56"/>
          <path id="路径_13759" data-name="路径 13759" d="M0,0V61.071A30.536,30.536,0,0,0,30.536,30.536,30.536,30.536,0,0,0,0,0Z" transform="translate(30.536 61.071) rotate(180)" fill="#6c63ff"/>
          <path id="路径_13760" data-name="路径 13760" d="M25.081,0A28.052,28.052,0,0,0,0,15.478L25.081,30.318Z" transform="translate(58.23 60.922) rotate(180)" fill="#ff6584"/>
          <g id="组_4555" data-name="组 4555" transform="translate(43.05 8.59)">
            <path id="路径_13761" data-name="路径 13761" d="M437.5,159.39l-.212-.2L453.052,144H480.5v.288H453.176Z" transform="translate(-437.293 -144)" fill="#2f2e41"/>
          </g>
        </g>
        <g id="组_4559" data-name="组 4559" transform="translate(999.185 3339.958)">
          <rect id="矩形_3965" data-name="矩形 3965" width="6.352" height="14.436" transform="translate(17.323 0)" fill="#3351ff"/>
          <rect id="矩形_3966" data-name="矩形 3966" width="6.352" height="6.352" transform="translate(0 0)" fill="#6c63ff"/>
          <rect id="矩形_3967" data-name="矩形 3967" width="6.352" height="14.436" transform="translate(0 8.662)" fill="#dcdfe8"/>
          <rect id="矩形_3968" data-name="矩形 3968" width="6.352" height="6.929" transform="translate(17.323 16.168)" fill="#dcdfe8"/>
          <rect id="矩形_3969" data-name="矩形 3969" width="6.352" height="10.394" transform="translate(8.662 0)" fill="#ff6584"/>
          <rect id="矩形_3970" data-name="矩形 3970" width="6.352" height="10.394" transform="translate(8.662 12.704)" fill="#dcdfe8"/>
          <g id="组_4557" data-name="组 4557" transform="translate(25.407 0)">
            <rect id="矩形_3971" data-name="矩形 3971" width="6.352" height="14.436" transform="translate(17.323)" fill="#dcdfe8"/>
            <rect id="矩形_3972" data-name="矩形 3972" width="6.929" height="6.352" transform="translate(0)" fill="#dcdfe8"/>
            <rect id="矩形_3973" data-name="矩形 3973" width="6.929" height="14.436" transform="translate(0 8.662)" fill="#dcdfe8"/>
            <rect id="矩形_3974" data-name="矩形 3974" width="6.352" height="6.929" transform="translate(17.323 16.168)" fill="#dcdfe8"/>
            <rect id="矩形_3975" data-name="矩形 3975" width="6.352" height="10.394" transform="translate(8.662)" fill="#dcdfe8"/>
            <rect id="矩形_3976" data-name="矩形 3976" width="6.352" height="10.394" transform="translate(8.662 12.704)" fill="#dcdfe8"/>
          </g>
          <g id="组_4558" data-name="组 4558" transform="translate(0 24.83)">
            <rect id="矩形_3977" data-name="矩形 3977" width="6.352" height="14.436" transform="translate(17.323 0)" fill="#dcdfe8"/>
            <rect id="矩形_3978" data-name="矩形 3978" width="6.352" height="6.929" transform="translate(0 0)" fill="#dcdfe8"/>
            <rect id="矩形_3979" data-name="矩形 3979" width="6.352" height="14.436" transform="translate(0 8.662)" fill="#dcdfe8"/>
            <rect id="矩形_3980" data-name="矩形 3980" width="6.352" height="6.352" transform="translate(17.323 16.746)" fill="#dcdfe8"/>
            <rect id="矩形_3981" data-name="矩形 3981" width="6.352" height="10.394" transform="translate(8.662 0)" fill="#dcdfe8"/>
            <rect id="矩形_3982" data-name="矩形 3982" width="6.352" height="10.394" transform="translate(8.662 12.704)" fill="#dcdfe8"/>
          </g>
          <rect id="矩形_3983" data-name="矩形 3983" width="6.352" height="14.436" transform="translate(42.73 24.83)" fill="#dcdfe8"/>
          <rect id="矩形_3984" data-name="矩形 3984" width="6.929" height="6.929" transform="translate(25.407 24.83)" fill="#dcdfe8"/>
          <rect id="矩形_3985" data-name="矩形 3985" width="6.929" height="14.436" transform="translate(25.407 33.491)" fill="#3351ff"/>
          <rect id="矩形_3986" data-name="矩形 3986" width="6.352" height="6.352" transform="translate(42.73 41.576)" fill="#6c63ff"/>
          <rect id="矩形_3987" data-name="矩形 3987" width="6.352" height="10.394" transform="translate(34.069 24.83)" fill="#dcdfe8"/>
          <rect id="矩形_3988" data-name="矩形 3988" width="6.352" height="10.394" transform="translate(34.069 37.533)" fill="#ff6584"/>
        </g>
        <g id="组_4564" data-name="组 4564" transform="translate(1284.439 3346.312)">
          <g id="组_4560" data-name="组 4560" transform="translate(0 0)">
            <rect id="矩形_3989" data-name="矩形 3989" width="80.264" height="24.252" transform="translate(0 71.025)" fill="#3f3d56"/>
            <ellipse id="椭圆_1320" data-name="椭圆 1320" cx="40.132" cy="8.373" rx="40.132" ry="8.373" transform="translate(0 62.363)" fill="#6c63ff"/>
            <ellipse id="椭圆_1321" data-name="椭圆 1321" cx="40.132" cy="8.662" rx="40.132" ry="8.662" transform="translate(0 87.193)" fill="#3f3d56"/>
            <rect id="矩形_3990" data-name="矩形 3990" width="80.264" height="24.252" transform="translate(0 39.266)" fill="#3f3d56"/>
            <ellipse id="椭圆_1322" data-name="椭圆 1322" cx="40.132" cy="8.95" rx="40.132" ry="8.95" transform="translate(0 30.604)" fill="#6c63ff"/>
            <ellipse id="椭圆_1323" data-name="椭圆 1323" cx="40.132" cy="9.239" rx="40.132" ry="9.239" transform="translate(0 55.434)" fill="#3f3d56"/>
            <rect id="矩形_3991" data-name="矩形 3991" width="80.264" height="24.252" transform="translate(0 9.239)" fill="#3f3d56"/>
            <ellipse id="椭圆_1324" data-name="椭圆 1324" cx="40.132" cy="8.95" rx="40.132" ry="8.95" transform="translate(0)" fill="#6c63ff"/>
            <ellipse id="椭圆_1325" data-name="椭圆 1325" cx="40.132" cy="8.95" rx="40.132" ry="8.95" transform="translate(0 24.83)" fill="#3f3d56"/>
          </g>
          <g id="组_4561" data-name="组 4561" transform="translate(31.967 32.652)">
            <rect id="矩形_3992" data-name="矩形 3992" width="4.293" height="4.293" transform="translate(6.172)" fill="#ff6584" opacity="0.8"/>
            <rect id="矩形_3993" data-name="矩形 3993" width="4.293" height="4.293" transform="translate(12.343)" fill="#ff6584"/>
            <rect id="矩形_3994" data-name="矩形 3994" width="4.293" height="4.293" fill="#ff6584" opacity="0.4"/>
          </g>
          <g id="组_4562" data-name="组 4562" transform="translate(31.967 63.452)">
            <rect id="矩形_3995" data-name="矩形 3995" width="4.293" height="4.293" transform="translate(6.172)" fill="#ff6584" opacity="0.8"/>
            <rect id="矩形_3996" data-name="矩形 3996" width="4.293" height="4.293" transform="translate(12.343)" fill="#ff6584"/>
            <rect id="矩形_3997" data-name="矩形 3997" width="4.293" height="4.293" fill="#ff6584" opacity="0.4"/>
          </g>
          <g id="组_4563" data-name="组 4563" transform="translate(31.967 94.507)">
            <rect id="矩形_3998" data-name="矩形 3998" width="4.293" height="4.293" transform="translate(6.172 0)" fill="#ff6584" opacity="0.8"/>
            <rect id="矩形_3999" data-name="矩形 3999" width="4.293" height="4.293" transform="translate(12.343 0)" fill="#ff6584"/>
            <rect id="矩形_4000" data-name="矩形 4000" width="4.293" height="4.293" transform="translate(0 0)" fill="#ff6584" opacity="0.4"/>
          </g>
        </g>
        <g id="矩形_4001" data-name="矩形 4001" transform="translate(964.539 3231.978)" fill="none" stroke="#3f3d56" stroke-width="1" stroke-dasharray="6">
          <rect width="239.637" height="179.583" stroke="none"/>
          <rect x="0.5" y="0.5" width="238.637" height="178.583" fill="none"/>
        </g>
        <g id="组_4565" data-name="组 4565" transform="translate(1083.61 3339.964)">
          <path id="路径_13762" data-name="路径 13762" d="M-7339.8,11623.9v48.1h72.812" transform="translate(7339.796 -11623.898)" fill="none" stroke="#3f3d56" stroke-width="1"/>
          <path id="路径_13763" data-name="路径 13763" d="M-7318.5,11661.186l17.7-12.518,21.389,5,20.206-14.073" transform="translate(7328.486 -11633.478)" fill="none" stroke="#3f3d56" stroke-width="1"/>
          <circle id="椭圆_1326" data-name="椭圆 1326" cx="3.465" cy="3.465" r="3.465" transform="translate(6.81 24.252)" fill="#3351ff"/>
          <circle id="椭圆_1327" data-name="椭圆 1327" cx="3.465" cy="3.465" r="3.465" transform="translate(24.711 12.126)" fill="#3351ff"/>
          <circle id="椭圆_1328" data-name="椭圆 1328" cx="3.465" cy="3.465" r="3.465" transform="translate(46.076 16.745)" fill="#3351ff"/>
          <circle id="椭圆_1329" data-name="椭圆 1329" cx="3.465" cy="3.465" r="3.465" transform="translate(65.709 3.464)" fill="#3351ff"/>
        </g>
        <line id="直线_435" data-name="直线 435" x2="63.518" transform="translate(991.389 3315.998)" fill="none" stroke="#3f3d56" stroke-width="1"/>
        <path id="路径_13764" data-name="路径 13764" d="M390.938,334.624l-7.011-7.516,7.516-7.01,7.01,7.516Zm-5.893-7.477,5.932,6.36,6.36-5.932-5.932-6.36Z" transform="translate(1002.026 3078.322)" fill="#6c63ff"/>
        <g id="组_4566" data-name="组 4566" transform="translate(1254.445 3449.028) rotate(-14)">
          <path id="多边形_16" data-name="多边形 16" d="M9.816,0l9.816,16.746H0Z" transform="translate(0 5.197)" fill="#2e2fff"/>
          <g id="多边形_17" data-name="多边形 17" transform="translate(0 0)" fill="none">
            <path d="M12.7,0l12.7,21.943H0Z" stroke="none"/>
            <path d="M 12.70364475250244 1.995872497558594 L 1.734447479248047 20.94265937805176 L 23.67283248901367 20.94265937805176 L 12.70364475250244 1.995872497558594 M 12.70364475250244 -1.9073486328125e-06 L 25.40728569030762 21.94265937805176 L -5.7220458984375e-06 21.94265937805176 L 12.70364475250244 -1.9073486328125e-06 Z" stroke="none" fill="#2e2fff"/>
          </g>
        </g>
        <ellipse id="椭圆_1330" data-name="椭圆 1330" cx="4.697" cy="4.697" rx="4.697" ry="4.697" transform="translate(1303.241 3319.661)" fill="#ff6584"/>
        <rect id="矩形_4002" data-name="矩形 4002" width="9.239" height="2.887" transform="translate(1156.248 3270.666)" fill="#6c63ff"/>
        <rect id="矩形_4003" data-name="矩形 4003" width="9.239" height="2.887" transform="translate(1156.248 3277.599)" fill="#ff6584"/>
        <rect id="矩形_4004" data-name="矩形 4004" width="9.239" height="2.887" transform="translate(1156.248 3284.528)" fill="#dcdfe8"/>
      </g>
    </g>
  </g>
</svg>
