<svg xmlns="http://www.w3.org/2000/svg" xmlns:xlink="http://www.w3.org/1999/xlink" width="506" height="404" viewBox="0 0 506 404">
  <defs>
    <clipPath id="clip-path">
      <rect id="矩形_3961" data-name="矩形 3961" width="448" height="340" transform="translate(283 2784)" fill="none" stroke="#707070" stroke-width="1"/>
    </clipPath>
    <clipPath id="clip-一键水平扩缩容">
      <rect width="506" height="404"/>
    </clipPath>
  </defs>
  <g id="一键水平扩缩容" clip-path="url(#clip-一键水平扩缩容)">
    <g id="蒙版组_136" data-name="蒙版组 136" transform="translate(-254 -2752)" clip-path="url(#clip-path)">
      <g id="组_4553" data-name="组 4553" transform="translate(-227 -1434)">
        <g id="组_4552" data-name="组 4552" transform="translate(507 4277)">
          <ellipse id="椭圆_1294" data-name="椭圆 1294" cx="224" cy="17.975" rx="224" ry="17.975" transform="translate(0 185.559)" fill="#f7f8f9"/>
          <g id="组_4533" data-name="组 4533" transform="translate(46.162 82.288)">
            <rect id="矩形_3925" data-name="矩形 3925" width="92.992" height="28.098" transform="translate(0 82.288)" fill="#3f3d56"/>
            <ellipse id="椭圆_1295" data-name="椭圆 1295" cx="46.496" cy="9.701" rx="46.496" ry="9.701" transform="translate(0 72.253)" fill="#6c63ff"/>
            <ellipse id="椭圆_1296" data-name="椭圆 1296" cx="46.496" cy="10.035" rx="46.496" ry="10.035" transform="translate(0 101.02)" fill="#3f3d56"/>
            <rect id="矩形_3926" data-name="矩形 3926" width="92.992" height="28.098" transform="translate(0 45.493)" fill="#3f3d56"/>
            <ellipse id="椭圆_1297" data-name="椭圆 1297" cx="46.496" cy="10.37" rx="46.496" ry="10.37" transform="translate(0 35.457)" fill="#6c63ff"/>
            <ellipse id="椭圆_1298" data-name="椭圆 1298" cx="46.496" cy="10.704" rx="46.496" ry="10.704" transform="translate(0 64.225)" fill="#3f3d56"/>
            <rect id="矩形_3927" data-name="矩形 3927" width="92.992" height="28.098" transform="translate(0 10.704)" fill="#3f3d56"/>
            <ellipse id="椭圆_1299" data-name="椭圆 1299" cx="46.496" cy="10.37" rx="46.496" ry="10.37" fill="#6c63ff"/>
            <ellipse id="椭圆_1300" data-name="椭圆 1300" cx="46.496" cy="10.37" rx="46.496" ry="10.37" transform="translate(0 28.767)" fill="#3f3d56"/>
          </g>
          <g id="组_4534" data-name="组 4534" transform="translate(82.881 120.118)">
            <rect id="矩形_3928" data-name="矩形 3928" width="4.974" height="4.974" transform="translate(7.151)" fill="#ff6584" opacity="0.8"/>
            <rect id="矩形_3929" data-name="矩形 3929" width="4.974" height="4.974" transform="translate(14.301)" fill="#ff6584"/>
            <rect id="矩形_3930" data-name="矩形 3930" width="4.974" height="4.974" fill="#ff6584" opacity="0.4"/>
          </g>
          <g id="组_4535" data-name="组 4535" transform="translate(82.881 155.802)">
            <rect id="矩形_3931" data-name="矩形 3931" width="4.974" height="4.974" transform="translate(7.151)" fill="#ff6584" opacity="0.8"/>
            <rect id="矩形_3932" data-name="矩形 3932" width="4.974" height="4.974" transform="translate(14.301)" fill="#ff6584"/>
            <rect id="矩形_3933" data-name="矩形 3933" width="4.974" height="4.974" fill="#ff6584" opacity="0.4"/>
          </g>
          <g id="组_4536" data-name="组 4536" transform="translate(82.881 191.781)">
            <rect id="矩形_3934" data-name="矩形 3934" width="4.974" height="4.974" transform="translate(7.151 0)" fill="#ff6584" opacity="0.8"/>
            <rect id="矩形_3935" data-name="矩形 3935" width="4.974" height="4.974" transform="translate(14.301 0)" fill="#ff6584"/>
            <rect id="矩形_3936" data-name="矩形 3936" width="4.974" height="4.974" transform="translate(0 0)" fill="#ff6584" opacity="0.4"/>
          </g>
          <g id="组_4537" data-name="组 4537" transform="translate(177.956 82.288)">
            <rect id="矩形_3937" data-name="矩形 3937" width="92.323" height="28.098" transform="translate(0 82.288)" fill="#3f3d56"/>
            <ellipse id="椭圆_1301" data-name="椭圆 1301" cx="46.162" cy="9.701" rx="46.162" ry="9.701" transform="translate(0 72.253)" fill="#6c63ff"/>
            <ellipse id="椭圆_1302" data-name="椭圆 1302" cx="46.162" cy="10.035" rx="46.162" ry="10.035" transform="translate(0 101.02)" fill="#3f3d56"/>
            <rect id="矩形_3938" data-name="矩形 3938" width="92.323" height="28.098" transform="translate(0 45.493)" fill="#3f3d56"/>
            <ellipse id="椭圆_1303" data-name="椭圆 1303" cx="46.162" cy="10.37" rx="46.162" ry="10.37" transform="translate(0 35.457)" fill="#6c63ff"/>
            <ellipse id="椭圆_1304" data-name="椭圆 1304" cx="46.162" cy="10.704" rx="46.162" ry="10.704" transform="translate(0 64.225)" fill="#3f3d56"/>
            <rect id="矩形_3939" data-name="矩形 3939" width="92.323" height="28.098" transform="translate(0 10.704)" fill="#3f3d56"/>
            <ellipse id="椭圆_1305" data-name="椭圆 1305" cx="46.162" cy="10.37" rx="46.162" ry="10.37" transform="translate(0)" fill="#6c63ff"/>
            <ellipse id="椭圆_1306" data-name="椭圆 1306" cx="46.162" cy="10.37" rx="46.162" ry="10.37" transform="translate(0 28.767)" fill="#3f3d56"/>
          </g>
          <g id="组_4538" data-name="组 4538" transform="translate(214.5 120.118)">
            <rect id="矩形_3940" data-name="矩形 3940" width="4.974" height="4.974" transform="translate(7.151)" fill="#ff6584" opacity="0.8"/>
            <rect id="矩形_3941" data-name="矩形 3941" width="4.974" height="4.974" transform="translate(14.301)" fill="#ff6584"/>
            <rect id="矩形_3942" data-name="矩形 3942" width="4.974" height="4.974" fill="#ff6584" opacity="0.4"/>
          </g>
          <g id="组_4539" data-name="组 4539" transform="translate(214.5 155.802)">
            <rect id="矩形_3943" data-name="矩形 3943" width="4.974" height="4.974" transform="translate(7.151)" fill="#ff6584" opacity="0.8"/>
            <rect id="矩形_3944" data-name="矩形 3944" width="4.974" height="4.974" transform="translate(14.301)" fill="#ff6584"/>
            <rect id="矩形_3945" data-name="矩形 3945" width="4.974" height="4.974" fill="#ff6584" opacity="0.4"/>
          </g>
          <g id="组_4540" data-name="组 4540" transform="translate(214.5 191.781)">
            <rect id="矩形_3946" data-name="矩形 3946" width="4.974" height="4.974" transform="translate(7.151 0)" fill="#ff6584" opacity="0.8"/>
            <rect id="矩形_3947" data-name="矩形 3947" width="4.974" height="4.974" transform="translate(14.301 0)" fill="#ff6584"/>
            <rect id="矩形_3948" data-name="矩形 3948" width="4.974" height="4.974" transform="translate(0 0)" fill="#ff6584" opacity="0.4"/>
          </g>
          <line id="直线_425" data-name="直线 425" y1="64.225" transform="translate(92.658 18.398)" fill="none" stroke="#707070" stroke-width="1" stroke-dasharray="6"/>
          <line id="直线_426" data-name="直线 426" y1="64.225" transform="translate(223.783 18.398)" fill="none" stroke="#707070" stroke-width="1" stroke-dasharray="6"/>
          <line id="直线_427" data-name="直线 427" y1="64.225" transform="translate(355.578 18.398)" fill="none" stroke="#707070" stroke-width="1" stroke-dasharray="6"/>
          <line id="直线_428" data-name="直线 428" x2="401.405" transform="translate(27.095 18.398)" fill="none" stroke="#707070" stroke-width="1"/>
          <g id="椭圆_1307" data-name="椭圆 1307" transform="translate(74.26)" fill="#fff" stroke="#707070" stroke-width="1">
            <circle cx="18.398" cy="18.398" r="18.398" stroke="none"/>
            <circle cx="18.398" cy="18.398" r="17.898" fill="none"/>
          </g>
          <g id="组_4542" data-name="组 4542" transform="translate(74.26)">
            <g id="椭圆_1308" data-name="椭圆 1308" fill="#fff" stroke="#707070" stroke-width="1">
              <circle cx="18.398" cy="18.398" r="18.398" stroke="none"/>
              <circle cx="18.398" cy="18.398" r="17.898" fill="none"/>
            </g>
            <circle id="椭圆_1309" data-name="椭圆 1309" cx="14.384" cy="14.384" r="14.384" transform="translate(4.014 4.014)" fill="#6c63ff"/>
            <g id="组_4541" data-name="组 4541" transform="translate(11.708 11.708)">
              <line id="直线_429" data-name="直线 429" x2="13.38" transform="translate(0 6.69)" fill="none" stroke="#fff" stroke-width="2"/>
              <line id="直线_430" data-name="直线 430" x2="13.38" transform="translate(6.69) rotate(90)" fill="none" stroke="#fff" stroke-width="2"/>
            </g>
          </g>
          <g id="组_4544" data-name="组 4544" transform="translate(205.385)">
            <g id="椭圆_1310" data-name="椭圆 1310" transform="translate(0)" fill="#fff" stroke="#707070" stroke-width="1">
              <circle cx="18.398" cy="18.398" r="18.398" stroke="none"/>
              <circle cx="18.398" cy="18.398" r="17.898" fill="none"/>
            </g>
            <circle id="椭圆_1311" data-name="椭圆 1311" cx="14.384" cy="14.384" r="14.384" transform="translate(4.014 4.014)" fill="#6c63ff"/>
            <g id="组_4543" data-name="组 4543" transform="translate(11.708 11.708)">
              <line id="直线_431" data-name="直线 431" x2="13.38" transform="translate(0 6.69)" fill="none" stroke="#fff" stroke-width="2"/>
              <line id="直线_432" data-name="直线 432" x2="13.38" transform="translate(6.69) rotate(90)" fill="none" stroke="#fff" stroke-width="2"/>
            </g>
          </g>
          <g id="组_4546" data-name="组 4546" transform="translate(337.18)">
            <g id="椭圆_1312" data-name="椭圆 1312" transform="translate(0)" fill="#fff" stroke="#707070" stroke-width="1">
              <circle cx="18.398" cy="18.398" r="18.398" stroke="none"/>
              <circle cx="18.398" cy="18.398" r="17.898" fill="none"/>
            </g>
            <circle id="椭圆_1313" data-name="椭圆 1313" cx="14.384" cy="14.384" r="14.384" transform="translate(4.014 4.014)" fill="#6c63ff"/>
            <g id="组_4545" data-name="组 4545" transform="translate(11.708 11.708)">
              <line id="直线_433" data-name="直线 433" x2="13.38" transform="translate(0 6.69)" fill="none" stroke="#fff" stroke-width="2"/>
              <line id="直线_434" data-name="直线 434" x2="13.38" transform="translate(6.69) rotate(90)" fill="none" stroke="#fff" stroke-width="2"/>
            </g>
          </g>
          <g id="组_4551" data-name="组 4551" transform="translate(309.081 82.288)">
            <g id="组_4547" data-name="组 4547" transform="translate(0)">
              <rect id="矩形_3949" data-name="矩形 3949" width="92.992" height="28.098" transform="translate(0 82.288)" fill="#3f3d56"/>
              <ellipse id="椭圆_1314" data-name="椭圆 1314" cx="46.496" cy="9.701" rx="46.496" ry="9.701" transform="translate(0 72.253)" fill="#6c63ff"/>
              <ellipse id="椭圆_1315" data-name="椭圆 1315" cx="46.496" cy="10.035" rx="46.496" ry="10.035" transform="translate(0 101.02)" fill="#3f3d56"/>
              <rect id="矩形_3950" data-name="矩形 3950" width="92.992" height="28.098" transform="translate(0 45.493)" fill="#3f3d56"/>
              <ellipse id="椭圆_1316" data-name="椭圆 1316" cx="46.496" cy="10.37" rx="46.496" ry="10.37" transform="translate(0 35.457)" fill="#6c63ff"/>
              <ellipse id="椭圆_1317" data-name="椭圆 1317" cx="46.496" cy="10.704" rx="46.496" ry="10.704" transform="translate(0 64.225)" fill="#3f3d56"/>
              <rect id="矩形_3951" data-name="矩形 3951" width="92.992" height="28.098" transform="translate(0 10.704)" fill="#3f3d56"/>
              <ellipse id="椭圆_1318" data-name="椭圆 1318" cx="46.496" cy="10.37" rx="46.496" ry="10.37" fill="#6c63ff"/>
              <ellipse id="椭圆_1319" data-name="椭圆 1319" cx="46.496" cy="10.37" rx="46.496" ry="10.37" transform="translate(0 28.767)" fill="#3f3d56"/>
            </g>
            <g id="组_4548" data-name="组 4548" transform="translate(37.037 37.83)">
              <rect id="矩形_3952" data-name="矩形 3952" width="4.974" height="4.974" transform="translate(7.151)" fill="#ff6584" opacity="0.8"/>
              <rect id="矩形_3953" data-name="矩形 3953" width="4.974" height="4.974" transform="translate(14.301)" fill="#ff6584"/>
              <rect id="矩形_3954" data-name="矩形 3954" width="4.974" height="4.974" fill="#ff6584" opacity="0.4"/>
            </g>
            <g id="组_4549" data-name="组 4549" transform="translate(37.037 73.514)">
              <rect id="矩形_3955" data-name="矩形 3955" width="4.974" height="4.974" transform="translate(7.151)" fill="#ff6584" opacity="0.8"/>
              <rect id="矩形_3956" data-name="矩形 3956" width="4.974" height="4.974" transform="translate(14.301)" fill="#ff6584"/>
              <rect id="矩形_3957" data-name="矩形 3957" width="4.974" height="4.974" fill="#ff6584" opacity="0.4"/>
            </g>
            <g id="组_4550" data-name="组 4550" transform="translate(37.037 109.494)">
              <rect id="矩形_3958" data-name="矩形 3958" width="4.974" height="4.974" transform="translate(7.151 0)" fill="#ff6584" opacity="0.8"/>
              <rect id="矩形_3959" data-name="矩形 3959" width="4.974" height="4.974" transform="translate(14.301 0)" fill="#ff6584"/>
              <rect id="矩形_3960" data-name="矩形 3960" width="4.974" height="4.974" transform="translate(0 0)" fill="#ff6584" opacity="0.4"/>
            </g>
          </g>
        </g>
      </g>
    </g>
  </g>
</svg>
