<svg xmlns="http://www.w3.org/2000/svg" width="750" height="550" viewBox="0 0 750 550">
  <g id="Group_2211" data-name="Group 2211" transform="translate(-3192 -1311)">
    <g id="Rectangle_2598" data-name="Rectangle 2598" transform="translate(3192 1311)" fill="none" stroke="#707070" stroke-width="1" opacity="0">
      <rect width="750" height="550" stroke="none"/>
      <rect x="0.5" y="0.5" width="749" height="549" fill="none"/>
    </g>
    <g id="Group_1932" data-name="Group 1932" transform="translate(1651 -2337.853)">
      <g id="Rectangle_1978" data-name="Rectangle 1978" transform="translate(1698 3785)" fill="none" stroke="#3f3d56" stroke-width="1" stroke-dasharray="6">
        <rect width="415" height="239" stroke="none"/>
        <rect x="0.5" y="0.5" width="414" height="238" fill="none"/>
      </g>
      <g id="Group_1254" data-name="Group 1254" transform="translate(0 131)">
        <ellipse id="Ellipse_201" data-name="Ellipse 201" cx="144.35" cy="7.252" rx="144.35" ry="7.252" transform="translate(1911.62 4002.936)" fill="#f7f8f9"/>
        <path id="Path_5384" data-name="Path 5384" d="M575.923,763v3.369H476.28v-2.736a32.746,32.746,0,0,0,2.253-60.481h96.726A32.774,32.774,0,0,0,575.923,763Z" transform="translate(1524.132 3237.352)" fill="#c9cedd"/>
        <path id="Path_5385" data-name="Path 5385" d="M578.247,703.15a32.785,32.785,0,0,0-18.1,21.712H499.627a32.785,32.785,0,0,0-18.1-21.711Z" transform="translate(1521.144 3237.352)" opacity="0.1"/>
        <path id="Path_5386" data-name="Path 5386" d="M211.48,663.31v18.915c0,10.444,7.644,18.911,17.075,18.911H521.71c9.432,0,17.075-8.467,17.075-18.911V663.31Z" transform="translate(1674.838 3260.026)" fill="#c9cedd"/>
        <path id="Path_5387" data-name="Path 5387" d="M575.923,837.48v3.369H476.28v-2.736a32.794,32.794,0,0,0,7.687-4.093h85.846A32.77,32.77,0,0,0,575.923,837.48Z" transform="translate(1524.132 3162.87)" opacity="0.1"/>
        <rect id="Rectangle_1976" data-name="Rectangle 1976" width="165.493" height="9.983" rx="4.992" transform="translate(1967.485 3997.941)" fill="#c9cedd"/>
        <path id="Path_5388" data-name="Path 5388" d="M538.786,159.725A17.075,17.075,0,0,0,521.71,142.65H228.555a17.075,17.075,0,0,0-17.075,17.075v210.94H538.786Z" transform="translate(1674.52 3556.35)" fill="#474157"/>
        <ellipse id="Ellipse_205" data-name="Ellipse 205" cx="2" cy="2" rx="2" ry="2" transform="translate(2048 3705.205)" fill="#fff"/>
        <ellipse id="Ellipse_206" data-name="Ellipse 206" cx="9.72" cy="9.72" rx="9.72" ry="9.72" transform="translate(2040.25 3933.319)" fill="#f7f8f9"/>
        <rect id="Rectangle_1980" data-name="Rectangle 1980" width="302" height="198" transform="translate(1900 3714)" fill="#f4f4f7"/>
      </g>
      <rect id="Rectangle_2085" data-name="Rectangle 2085" width="209.455" height="271.246" transform="translate(1630.445 3698.853)" fill="#fff" stroke="#3f3d56" stroke-width="1"/>
      <rect id="Rectangle_2000" data-name="Rectangle 2000" width="209.455" height="271.246" transform="translate(1618 3710.853)" fill="#f7f8f9"/>
      <g id="Group_1321" data-name="Group 1321" transform="translate(0 55)">
        <g id="Group_1260" data-name="Group 1260" transform="translate(1 78)">
          <rect id="Rectangle_1981" data-name="Rectangle 1981" width="250" height="145.944" rx="6" transform="translate(1925 3735.977)" fill="#3f3d56"/>
          <g id="Group_1259" data-name="Group 1259" transform="translate(30 19)">
            <path id="Rectangle_1979" data-name="Rectangle 1979" d="M6,0H244a6,6,0,0,1,6,6v6a0,0,0,0,1,0,0H0a0,0,0,0,1,0,0V6A6,6,0,0,1,6,0Z" transform="translate(1895 3716)" fill="#c9cedd"/>
          </g>
          <ellipse id="Ellipse_207" data-name="Ellipse 207" cx="2.103" cy="2.103" rx="2.103" ry="2.103" transform="translate(1931.549 3739.39)" fill="#6c63ff"/>
          <ellipse id="Ellipse_208" data-name="Ellipse 208" cx="2.103" cy="2.103" rx="2.103" ry="2.103" transform="translate(1937.853 3739.39)" fill="#6c63ff"/>
          <ellipse id="Ellipse_209" data-name="Ellipse 209" cx="2.103" cy="2.103" rx="2.103" ry="2.103" transform="translate(1944.161 3739.39)" fill="#6c63ff"/>
        </g>
        <path id="Path_5390" data-name="Path 5390" d="M475.852,262.139H413.529a.756.756,0,0,1,0-1.513h62.324a.756.756,0,0,1,0,1.513Z" transform="translate(1531.946 3579.82)" fill="#f2f2f2"/>
        <path id="Path_5391" data-name="Path 5391" d="M608.364,286.9H510.34a.756.756,0,1,1,0-1.513h98.024a.756.756,0,1,1,0,1.513Z" transform="translate(1467.658 3563.374)" fill="#f2f2f2"/>
        <path id="Path_5392" data-name="Path 5392" d="M476.753,311.67H414.429a.756.756,0,1,1,0-1.513h62.324a.756.756,0,1,1,0,1.513Z" transform="translate(1531.348 3546.928)" fill="#f2f2f2"/>
        <path id="Path_5393" data-name="Path 5393" d="M678.931,312.121H616.607a.756.756,0,1,1,0-1.513h62.324a.756.756,0,1,1,0,1.513Z" transform="translate(1397.09 3546.629)" fill="#f2f2f2"/>
        <path id="Path_5394" data-name="Path 5394" d="M477.2,336.436H414.879a.756.756,0,1,1,0-1.513H477.2a.756.756,0,1,1,0,1.513Z" transform="translate(1531.049 3530.482)" fill="#ff4f5e"/>
        <path id="Path_5395" data-name="Path 5395" d="M477.653,361.2H415.33a.756.756,0,0,1,0-1.513h62.324a.756.756,0,1,1,0,1.513Z" transform="translate(1530.75 3514.036)" fill="#f2f2f2"/>
        <path id="Path_5396" data-name="Path 5396" d="M649.767,262.589h-17.85a.756.756,0,1,1,0-1.513h17.85a.756.756,0,1,1,0,1.513Z" transform="translate(1386.924 3579.521)" fill="#ff4f5e"/>
        <path id="Path_5397" data-name="Path 5397" d="M649.767,336.436h-17.85a.756.756,0,1,1,0-1.513h17.85a.756.756,0,1,1,0,1.513Z" transform="translate(1386.924 3530.482)" fill="#ff4f5e"/>
        <path id="Path_5398" data-name="Path 5398" d="M649.767,360.752h-17.85a.756.756,0,0,1,0-1.513h17.85a.756.756,0,0,1,0,1.513Z" transform="translate(1386.924 3514.335)" fill="#f2f2f2"/>
        <path id="Path_5399" data-name="Path 5399" d="M738.924,360.752h-17.85a.756.756,0,1,1,0-1.513h17.85a.756.756,0,1,1,0,1.513Z" transform="translate(1327.719 3514.335)" fill="#f2f2f2"/>
        <path id="Path_5400" data-name="Path 5400" d="M430.928,286.9h-17.85a.756.756,0,1,1,0-1.513h17.85a.756.756,0,1,1,0,1.513Z" transform="translate(1532.245 3563.374)" fill="#ff4f5e"/>
        <path id="Path_5401" data-name="Path 5401" d="M475.555,626.858H413.747a.75.75,0,1,1,0-1.5h61.807a.75.75,0,0,1,0,1.5Z" transform="translate(1532.815 3277.077)" fill="#f2f2f2"/>
        <path id="Path_5402" data-name="Path 5402" d="M474.654,676.389H412.847a.75.75,0,0,1,0-1.5h61.807a.75.75,0,1,1,0,1.5Z" transform="translate(1533.416 3244.047)" fill="#f4f4f7"/>
        <path id="Path_5403" data-name="Path 5403" d="M475.1,701.155H413.3a.75.75,0,1,1,0-1.5H475.1a.75.75,0,1,1,0,1.5Z" transform="translate(1533.115 3227.532)" fill="#f2f2f2"/>
        <path id="Path_5404" data-name="Path 5404" d="M642.634,676.84h-17.7a.75.75,0,0,1,0-1.5h17.7a.75.75,0,1,1,0,1.5Z" transform="translate(1391.989 3243.747)" fill="#ff4f5e"/>
        <path id="Path_5405" data-name="Path 5405" d="M642.634,701.155h-17.7a.75.75,0,0,1,0-1.5h17.7a.75.75,0,1,1,0,1.5Z" transform="translate(1391.989 3227.532)" fill="#f2f2f2"/>
        <path id="Path_5406" data-name="Path 5406" d="M731.79,676.84h-17.7a.75.75,0,0,1,0-1.5h17.7a.75.75,0,1,1,0,1.5Z" transform="translate(1332.536 3243.747)" fill="#ff4f5e"/>
        <path id="Path_5407" data-name="Path 5407" d="M607.771,651.624H510.559a.75.75,0,0,1,0-1.5h97.212a.75.75,0,0,1,0,1.5Z" transform="translate(1468.258 3260.562)" fill="#ff4f5e"/>
        <path id="Path_5408" data-name="Path 5408" d="M431,651.624H413.3a.75.75,0,0,1,0-1.5H431a.75.75,0,1,1,0,1.5Z" transform="translate(1533.115 3260.562)" fill="#ff4f5e"/>
        <path id="Path_5409" data-name="Path 5409" d="M607.771,726.371H510.559a.75.75,0,1,1,0-1.5h97.212a.75.75,0,0,1,0,1.5Z" transform="translate(1468.258 3210.718)" fill="#f2f2f2"/>
        <path id="Path_5410" data-name="Path 5410" d="M431,726.371H413.3a.75.75,0,1,1,0-1.5H431a.75.75,0,1,1,0,1.5Z" transform="translate(1533.115 3210.718)" fill="#ff4f5e"/>
        <g id="Group_1321-2" data-name="Group 1321">
          <path id="Path_5411" data-name="Path 5411" d="M462.786,401.13l-15.772,15.575,15.772,15.575,3.549-3.549L454.407,416.8l12.026-12.027Z" transform="translate(1649.931 3505.076)" fill="#6c63ff"/>
          <path id="Path_5412" data-name="Path 5412" d="M612.314,401.13l15.772,15.575-15.772,15.575-3.549-3.549L620.693,416.8l-12.026-12.027Z" transform="translate(1527.804 3505.076)" fill="#6c63ff"/>
        </g>
      </g>
      <text id="SQL" transform="translate(1698 3749)" fill="#6c63ff" font-size="30" font-family="TitilliumWeb-Bold, Titillium Web" font-weight="700"><tspan x="0" y="0">SQL</tspan></text>
      <g id="Group_1366" data-name="Group 1366">
        <rect id="Rectangle_2135" data-name="Rectangle 2135" width="136" height="80" rx="4" transform="translate(1655 3766)" fill="#6c63ff"/>
        <g id="Group_1363" data-name="Group 1363" transform="translate(-240 50)">
          <path id="Rectangle_1979-2" data-name="Rectangle 1979" d="M4,0H132a4,4,0,0,1,4,4v8a0,0,0,0,1,0,0H0a0,0,0,0,1,0,0V4A4,4,0,0,1,4,0Z" transform="translate(1895 3716)" fill="#c9cedd"/>
        </g>
        <ellipse id="Ellipse_284" data-name="Ellipse 284" cx="2.103" cy="2.103" rx="2.103" ry="2.103" transform="translate(1661.549 3770.39)" fill="#f7f8f9"/>
        <ellipse id="Ellipse_285" data-name="Ellipse 285" cx="2.103" cy="2.103" rx="2.103" ry="2.103" transform="translate(1667.853 3770.39)" fill="#f7f8f9"/>
        <ellipse id="Ellipse_286" data-name="Ellipse 286" cx="2.103" cy="2.103" rx="2.103" ry="2.103" transform="translate(1674.161 3770.39)" fill="#f7f8f9"/>
        <g id="Group_1365" data-name="Group 1365" opacity="0.5">
          <line id="Line_99" data-name="Line 99" x2="116" transform="translate(1663.5 3793.5)" fill="none" stroke="#fff" stroke-width="1"/>
          <line id="Line_100" data-name="Line 100" x2="116" transform="translate(1663.5 3806.5)" fill="none" stroke="#fff" stroke-width="1"/>
          <line id="Line_101" data-name="Line 101" x2="116" transform="translate(1663.5 3819.5)" fill="none" stroke="#fff" stroke-width="1"/>
          <line id="Line_102" data-name="Line 102" x2="116" transform="translate(1663.5 3832.5)" fill="none" stroke="#fff" stroke-width="1"/>
          <g id="Group_1364" data-name="Group 1364" transform="translate(0.5)">
            <line id="Line_103" data-name="Line 103" y2="56" transform="translate(1683.5 3783.5)" fill="none" stroke="#fff" stroke-width="1"/>
            <line id="Line_104" data-name="Line 104" y2="56" transform="translate(1708.5 3783.5)" fill="none" stroke="#fff" stroke-width="1"/>
            <line id="Line_105" data-name="Line 105" y2="56" transform="translate(1733.5 3783.5)" fill="none" stroke="#fff" stroke-width="1"/>
            <line id="Line_106" data-name="Line 106" y2="56" transform="translate(1758.5 3783.5)" fill="none" stroke="#fff" stroke-width="1"/>
          </g>
        </g>
      </g>
      <g id="Group_1367" data-name="Group 1367" transform="translate(0 102)">
        <path id="Path_5627" data-name="Path 5627" d="M4,0H132a4,4,0,0,1,4,4V76a4,4,0,0,1-4,4H4a4,4,0,0,1-4-4V4A4,4,0,0,1,4,0Z" transform="translate(1655 3766)" fill="#6c63ff"/>
        <g id="Group_1363-2" data-name="Group 1363" transform="translate(-240 50)">
          <path id="Rectangle_1979-3" data-name="Rectangle 1979" d="M4,0H132a4,4,0,0,1,4,4v8a0,0,0,0,1,0,0H0a0,0,0,0,1,0,0V4A4,4,0,0,1,4,0Z" transform="translate(1895 3716)" fill="#c9cedd"/>
        </g>
        <ellipse id="Ellipse_284-2" data-name="Ellipse 284" cx="2.103" cy="2.103" rx="2.103" ry="2.103" transform="translate(1661.549 3770.39)" fill="#f7f8f9"/>
        <ellipse id="Ellipse_285-2" data-name="Ellipse 285" cx="2.103" cy="2.103" rx="2.103" ry="2.103" transform="translate(1667.853 3770.39)" fill="#f7f8f9"/>
        <ellipse id="Ellipse_286-2" data-name="Ellipse 286" cx="2.103" cy="2.103" rx="2.103" ry="2.103" transform="translate(1674.161 3770.39)" fill="#f7f8f9"/>
        <g id="Group_1365-2" data-name="Group 1365" opacity="0.5">
          <line id="Line_99-2" data-name="Line 99" x2="116" transform="translate(1663.5 3793.5)" fill="none" stroke="#fff" stroke-width="1"/>
          <line id="Line_100-2" data-name="Line 100" x2="116" transform="translate(1663.5 3806.5)" fill="none" stroke="#fff" stroke-width="1"/>
          <line id="Line_101-2" data-name="Line 101" x2="116" transform="translate(1663.5 3819.5)" fill="none" stroke="#fff" stroke-width="1"/>
          <line id="Line_102-2" data-name="Line 102" x2="116" transform="translate(1663.5 3832.5)" fill="none" stroke="#fff" stroke-width="1"/>
          <g id="Group_1364-2" data-name="Group 1364" transform="translate(0.5)">
            <line id="Line_103-2" data-name="Line 103" y2="56" transform="translate(1683.5 3783.5)" fill="none" stroke="#fff" stroke-width="1"/>
            <line id="Line_104-2" data-name="Line 104" y2="56" transform="translate(1708.5 3783.5)" fill="none" stroke="#fff" stroke-width="1"/>
            <line id="Line_105-2" data-name="Line 105" y2="56" transform="translate(1733.5 3783.5)" fill="none" stroke="#fff" stroke-width="1"/>
            <line id="Line_106-2" data-name="Line 106" y2="56" transform="translate(1758.5 3783.5)" fill="none" stroke="#fff" stroke-width="1"/>
          </g>
        </g>
      </g>
      <g id="Group_1368" data-name="Group 1368">
        <path id="Path_5628" data-name="Path 5628" d="M-7293.316,10530.56h11.67v86h-11.67" transform="translate(9091 -6733.523)" fill="none" stroke="#c9cedd" stroke-width="1"/>
        <path id="Path_5630" data-name="Path 5630" d="M-7272.057,10555.476v4.43h4.419" transform="translate(14406.983 1558.178) rotate(45)" fill="none" stroke="#c9cedd" stroke-width="1"/>
        <path id="Path_5631" data-name="Path 5631" d="M-7272.057,10555.476v4.43h4.419" transform="translate(14406.983 1472.179) rotate(45)" fill="none" stroke="#c9cedd" stroke-width="1"/>
      </g>
      <g id="Group_1369" data-name="Group 1369" transform="translate(3446.037 7715.069) rotate(180)">
        <path id="Path_5628-2" data-name="Path 5628" d="M-7293.316,10530.56h11.67v86h-11.67" transform="translate(9091 -6733.523)" fill="none" stroke="#c9cedd" stroke-width="1"/>
        <path id="Path_5630-2" data-name="Path 5630" d="M-7272.057,10555.476v4.43h4.419" transform="translate(14406.983 1558.178) rotate(45)" fill="none" stroke="#c9cedd" stroke-width="1"/>
        <path id="Path_5631-2" data-name="Path 5631" d="M-7272.057,10555.476v4.43h4.419" transform="translate(14406.983 1472.179) rotate(45)" fill="none" stroke="#c9cedd" stroke-width="1"/>
      </g>
    </g>
  </g>
</svg>
