<svg xmlns="http://www.w3.org/2000/svg" xmlns:xlink="http://www.w3.org/1999/xlink" width="448" height="340" viewBox="0 0 448 340">
  <defs>
    <clipPath id="clip-path">
      <rect id="矩形_3143" data-name="矩形 3143" width="448" height="340" transform="translate(335 3567)" fill="none" stroke="#707070" stroke-width="1"/>
    </clipPath>
  </defs>
  <g id="蒙版组_80" data-name="蒙版组 80" transform="translate(-335 -3567)" clip-path="url(#clip-path)">
    <g id="组_1935" data-name="组 1935" transform="translate(-200 -1719)">
      <g id="组_1344" data-name="组 1344" transform="translate(591 5296)">
        <g id="组_1313" data-name="组 1313" transform="translate(3.283 0)">
          <rect id="矩形_2062" data-name="矩形 2062" width="206.165" height="256.065" transform="translate(8.535)" fill="#f7f8f9"/>
          <rect id="矩形_2063" data-name="矩形 2063" width="206.165" height="256.065" transform="translate(0 8.535)" fill="none" stroke="#3f3d56" stroke-width="1"/>
          <rect id="矩形_2044" data-name="矩形 2044" width="9.849" height="9.192" transform="translate(97.173 115.557)" fill="#3351ff"/>
          <rect id="矩形_2045" data-name="矩形 2045" width="9.849" height="9.849" transform="translate(97.173 135.255)" fill="#ff6584"/>
          <rect id="矩形_2047" data-name="矩形 2047" width="69.092" height="13.76" transform="translate(147.154 144.695) rotate(-90)" fill="#3351ff"/>
          <rect id="矩形_2048" data-name="矩形 2048" width="42.408" height="13.76" transform="translate(168.268 144.695) rotate(-90)" fill="#ff6584"/>
          <path id="路径_5544" data-name="路径 5544" d="M419.811,154.454a35.97,35.97,0,0,0,32.15,52.085V173.484Z" transform="translate(-392.886 25.429)" fill="#6c63ff"/>
          <line id="直线_87" data-name="直线 87" x1="158.674" transform="translate(23.354 145.053)" fill="none" stroke="#d0cde1" stroke-width="1"/>
          <line id="直线_88" data-name="直线 88" x1="158.674" transform="translate(23.354 245.593)" fill="none" stroke="#d0cde1" stroke-width="1"/>
          <ellipse id="椭圆_236" data-name="椭圆 236" cx="3.611" cy="3.283" rx="3.611" ry="3.283" transform="translate(175.306 198.943)" fill="#6c63ff"/>
          <g id="组_1298" data-name="组 1298" transform="translate(114.244 177.276)">
            <rect id="矩形_2068" data-name="矩形 2068" width="3.939" height="3.939" fill="#3351ff"/>
            <rect id="矩形_2076" data-name="矩形 2076" width="3.939" height="3.939" transform="translate(0 7.222)" fill="#3351ff"/>
            <rect id="矩形_2077" data-name="矩形 2077" width="3.939" height="3.939" transform="translate(0 14.445)" fill="#3351ff"/>
          </g>
          <rect id="矩形_2078" data-name="矩形 2078" width="9" height="10" transform="translate(97.717 95)" fill="#6c63ff"/>
          <rect id="矩形_2079" data-name="矩形 2079" width="53.368" height="13.76" transform="translate(126.04 144.695) rotate(-90)" fill="#6c63ff"/>
          <g id="组_1295" data-name="组 1295" transform="translate(121.467 178.589)">
            <rect id="矩形_2067" data-name="矩形 2067" width="21.667" height="1.313" transform="translate(0 0)" fill="#3f3d56"/>
            <rect id="矩形_2069" data-name="矩形 2069" width="21.667" height="1.313" transform="translate(0 7.222)" fill="#3f3d56"/>
            <rect id="矩形_2071" data-name="矩形 2071" width="21.667" height="1.97" transform="translate(0 14.445)" fill="#3f3d56"/>
          </g>
          <g id="组_1296" data-name="组 1296" transform="translate(22.98 28.233)">
            <rect id="矩形_2064" data-name="矩形 2064" width="159.548" height="3.939" fill="#c9cedd"/>
            <rect id="矩形_2065" data-name="矩形 2065" width="159.548" height="4.596" transform="translate(0 15.101)" fill="#c9cedd"/>
            <rect id="矩形_2066" data-name="矩形 2066" width="78.789" height="4.596" transform="translate(0 29.546)" fill="#c9cedd"/>
            <path id="路径_5542" data-name="路径 5542" d="M591,61.441v72.311a36.155,36.155,0,0,0,0-72.311Z" transform="translate(-552.07 70.205)" fill="#dcdfe8"/>
            <path id="路径_5543" data-name="路径 5543" d="M474.013,68.694a33.041,33.041,0,0,0-29.538,18.229L474.013,104.4Z" transform="translate(-438.135 62.952)" fill="#dcdfe8"/>
            <rect id="矩形_2073" data-name="矩形 2073" width="52.526" height="1.313" transform="translate(0.657 76.163)" fill="#c9cedd"/>
            <rect id="矩形_2074" data-name="矩形 2074" width="52.526" height="1.97" transform="translate(0.657 87.981)" fill="#c9cedd"/>
            <rect id="矩形_2075" data-name="矩形 2075" width="52.526" height="1.97" transform="translate(0.657 100.456)" fill="#c9cedd"/>
          </g>
          <path id="路径_5636" data-name="路径 5636" d="M437.6,167.256l-.31-.307L460.244,144h39.973v.437H460.424Z" transform="translate(-387.959 41.982)" fill="#2f2e41"/>
        </g>
        <g id="组_1314" data-name="组 1314" transform="translate(164.032 134.456)">
          <path id="路径_5206" data-name="路径 5206" d="M254.587,593.754a86.411,86.411,0,1,0-148.352,0Z" transform="translate(-94 -463)" fill="#3f3d56"/>
          <line id="直线_81" data-name="直线 81" y1="27.904" x2="37.753" transform="translate(86.123 52.997)" fill="none" stroke="#6c63ff" stroke-linecap="round" stroke-miterlimit="10" stroke-width="4"/>
          <g id="组_1241" data-name="组 1241" transform="translate(15.869 9.61)">
            <circle id="椭圆_126" data-name="椭圆 126" cx="3.939" cy="3.939" r="3.939" transform="translate(0 80.483)" fill="#6c63ff"/>
            <circle id="椭圆_127" data-name="椭圆 127" cx="4.169" cy="4.169" r="4.169" transform="translate(2.495 44.483)" fill="#6c63ff"/>
            <circle id="椭圆_128" data-name="椭圆 128" cx="4.169" cy="4.169" r="4.169" transform="translate(23.189 14.792)" fill="#6c63ff"/>
            <circle id="椭圆_129" data-name="椭圆 129" cx="4.169" cy="4.169" r="4.169" transform="translate(56.219)" fill="#6c63ff"/>
            <circle id="椭圆_130" data-name="椭圆 130" cx="4.169" cy="4.169" r="4.169" transform="translate(92.15 4.333)" fill="#6c63ff"/>
            <circle id="椭圆_131" data-name="椭圆 131" cx="4.169" cy="4.169" r="4.169" transform="translate(120.718 26.552)" fill="#6c63ff"/>
            <circle id="椭圆_132" data-name="椭圆 132" cx="4.169" cy="4.169" r="4.169" transform="translate(133.761 60.311)" fill="#6c63ff"/>
            <circle id="椭圆_133" data-name="椭圆 133" cx="4.169" cy="4.169" r="4.169" transform="translate(127.554 95.966)" fill="#6c63ff"/>
          </g>
          <ellipse id="椭圆_151" data-name="椭圆 151" cx="8.535" cy="8.207" rx="8.535" ry="8.207" transform="translate(77.587 73.022)" fill="#6c63ff"/>
        </g>
        <ellipse id="椭圆_261" data-name="椭圆 261" cx="168.412" cy="13.132" rx="168.412" ry="13.132" transform="translate(0 295.459)" fill="#f7f8f9"/>
      </g>
    </g>
  </g>
</svg>
