<svg xmlns="http://www.w3.org/2000/svg" width="750" height="550" viewBox="0 0 750 550">
  <g id="Group_2213" data-name="Group 2213" transform="translate(-3192 -3268)">
    <g id="Group_1935" data-name="Group 1935" transform="translate(2719 -1998)">
      <g id="Group_1344" data-name="Group 1344" transform="translate(0 -18)">
        <g id="Group_1313" data-name="Group 1313" transform="translate(0 134)">
          <rect id="Rectangle_2062" data-name="Rectangle 2062" width="314" height="390" transform="translate(609 5180)" fill="#f7f8f9"/>
          <rect id="Rectangle_2063" data-name="Rectangle 2063" width="314" height="390" transform="translate(596 5193)" fill="none" stroke="#3f3d56" stroke-width="1"/>
          <rect id="Rectangle_2044" data-name="Rectangle 2044" width="15" height="14" transform="translate(744 5356)" fill="#3351ff"/>
          <rect id="Rectangle_2045" data-name="Rectangle 2045" width="15" height="15" transform="translate(744 5386)" fill="#ff6584"/>
          <rect id="Rectangle_2047" data-name="Rectangle 2047" width="105.231" height="20.957" transform="translate(820.123 5400.378) rotate(-90)" fill="#3351ff"/>
          <rect id="Rectangle_2048" data-name="Rectangle 2048" width="64.59" height="20.957" transform="translate(852.282 5400.378) rotate(-90)" fill="#ff6584"/>
          <path id="Path_5544" data-name="Path 5544" d="M421.805,154.454a54.785,54.785,0,0,0,48.965,79.329V183.438Z" transform="translate(215.207 5299.518)" fill="#6c63ff"/>
          <line id="Line_87" data-name="Line 87" x1="241.669" transform="translate(631.569 5400.923)" fill="none" stroke="#d0cde1" stroke-width="1"/>
          <line id="Line_88" data-name="Line 88" x1="241.669" transform="translate(631.569 5554.052)" fill="none" stroke="#d0cde1" stroke-width="1"/>
          <ellipse id="Ellipse_236" data-name="Ellipse 236" cx="5.5" cy="5" rx="5.5" ry="5" transform="translate(863 5483)" fill="#6c63ff"/>
          <g id="Group_1298" data-name="Group 1298" transform="translate(-1 51)">
            <rect id="Rectangle_2068" data-name="Rectangle 2068" width="6" height="6" transform="translate(771 5399)" fill="#3351ff"/>
            <rect id="Rectangle_2076" data-name="Rectangle 2076" width="6" height="6" transform="translate(771 5410)" fill="#3351ff"/>
            <rect id="Rectangle_2077" data-name="Rectangle 2077" width="6" height="6" transform="translate(771 5421)" fill="#3351ff"/>
          </g>
          <rect id="Rectangle_2078" data-name="Rectangle 2078" width="15" height="15" transform="translate(744 5324)" fill="#6c63ff"/>
          <rect id="Rectangle_2079" data-name="Rectangle 2079" width="81.282" height="20.957" transform="translate(787.965 5400.378) rotate(-90)" fill="#6c63ff"/>
          <g id="Group_1295" data-name="Group 1295" transform="translate(-1 51)">
            <rect id="Rectangle_2067" data-name="Rectangle 2067" width="33" height="2" transform="translate(782 5401)" fill="#3f3d56"/>
            <rect id="Rectangle_2069" data-name="Rectangle 2069" width="33" height="2" transform="translate(782 5412)" fill="#3f3d56"/>
            <rect id="Rectangle_2071" data-name="Rectangle 2071" width="33" height="3" transform="translate(782 5423)" fill="#3f3d56"/>
          </g>
          <g id="Group_1296" data-name="Group 1296" transform="translate(-1 51)">
            <rect id="Rectangle_2064" data-name="Rectangle 2064" width="243" height="6" transform="translate(632 5172)" fill="#c9cedd"/>
            <rect id="Rectangle_2065" data-name="Rectangle 2065" width="243" height="7" transform="translate(632 5195)" fill="#c9cedd"/>
            <rect id="Rectangle_2066" data-name="Rectangle 2066" width="120" height="7" transform="translate(632 5217)" fill="#c9cedd"/>
            <path id="Path_5542" data-name="Path 5542" d="M591,61.441V171.573a55.066,55.066,0,1,0,0-110.132Z" transform="translate(100.296 5311.063)" fill="#dcdfe8"/>
            <path id="Path_5543" data-name="Path 5543" d="M489.461,68.694a50.315,50.315,0,0,0-44.986,27.763l44.986,26.617Z" transform="translate(197.183 5303.81)" fill="#dcdfe8"/>
            <rect id="Rectangle_2073" data-name="Rectangle 2073" width="80" height="2" transform="translate(633 5288)" fill="#c9cedd"/>
            <rect id="Rectangle_2074" data-name="Rectangle 2074" width="80" height="3" transform="translate(633 5306)" fill="#c9cedd"/>
            <rect id="Rectangle_2075" data-name="Rectangle 2075" width="80" height="3" transform="translate(633 5325)" fill="#c9cedd"/>
          </g>
          <path id="Path_5636" data-name="Path 5636" d="M437.762,179.42l-.469-.469L472.244,144h60.882v.664H472.519Z" transform="translate(233.844 5319.261)" fill="#2f2e41"/>
        </g>
        <g id="Group_1314" data-name="Group 1314" transform="translate(0 135)">
          <path id="Path_5206" data-name="Path 5206" d="M338.583,662.145a131.609,131.609,0,1,0-225.948,0Z" transform="translate(746.83 4920.783)" fill="#3f3d56"/>
          <line id="Line_81" data-name="Line 81" y1="42.5" x2="57.5" transform="translate(972 5464.5)" fill="none" stroke="#6c63ff" stroke-linecap="round" stroke-miterlimit="10" stroke-width="4"/>
          <g id="Group_1241" data-name="Group 1241" transform="translate(864.851 5398.42)">
            <circle id="Ellipse_126" data-name="Ellipse 126" cx="6" cy="6" r="6" transform="translate(0.149 122.58)" fill="#6c63ff"/>
            <circle id="Ellipse_127" data-name="Ellipse 127" cx="6.35" cy="6.35" r="6.35" transform="translate(3.949 67.75)" fill="#6c63ff"/>
            <circle id="Ellipse_128" data-name="Ellipse 128" cx="6.35" cy="6.35" r="6.35" transform="translate(35.467 22.529)" fill="#6c63ff"/>
            <circle id="Ellipse_129" data-name="Ellipse 129" cx="6.35" cy="6.35" r="6.35" transform="translate(85.774)" fill="#6c63ff"/>
            <circle id="Ellipse_130" data-name="Ellipse 130" cx="6.35" cy="6.35" r="6.35" transform="translate(140.498 6.599)" fill="#6c63ff"/>
            <circle id="Ellipse_131" data-name="Ellipse 131" cx="6.35" cy="6.35" r="6.35" transform="translate(184.008 40.44)" fill="#6c63ff"/>
            <circle id="Ellipse_132" data-name="Ellipse 132" cx="6.35" cy="6.35" r="6.35" transform="translate(203.873 91.857)" fill="#6c63ff"/>
            <circle id="Ellipse_133" data-name="Ellipse 133" cx="6.35" cy="6.35" r="6.35" transform="translate(194.42 146.162)" fill="#6c63ff"/>
          </g>
          <ellipse id="Ellipse_151" data-name="Ellipse 151" cx="13" cy="12.5" rx="13" ry="12.5" transform="translate(959 5495)" fill="#6c63ff"/>
        </g>
        <ellipse id="Ellipse_261" data-name="Ellipse 261" cx="256.5" cy="20" rx="256.5" ry="20" transform="translate(591 5764)" fill="#f7f8f9"/>
      </g>
    </g>
    <g id="Rectangle_2604" data-name="Rectangle 2604" transform="translate(3192 3268)" fill="none" stroke="#707070" stroke-width="1" opacity="0">
      <rect width="750" height="550" stroke="none"/>
      <rect x="0.5" y="0.5" width="749" height="549" fill="none"/>
    </g>
  </g>
</svg>
