<svg xmlns="http://www.w3.org/2000/svg" width="750" height="700" viewBox="0 0 750 700">
  <g id="Group_2362" data-name="Group 2362" transform="translate(-378 -2576)">
    <g id="Group_2361" data-name="Group 2361">
      <g id="Group_2207" data-name="Group 2207" transform="translate(31.426 90.167)">
        <g id="Group_1576" data-name="Group 1576" transform="translate(456.933 2614)">
          <g id="Rectangle_2231" data-name="Rectangle 2231" transform="translate(34.57 54.238)" fill="none" stroke="#3f3d56" stroke-width="1" stroke-dasharray="6">
            <rect width="406.782" height="269.544" stroke="none"/>
            <rect x="0.5" y="0.5" width="405.782" height="268.544" fill="none"/>
          </g>
          <rect id="Rectangle_2204" data-name="Rectangle 2204" width="288.585" height="180.035" transform="translate(195.027 17.54)" fill="#f7f8f9"/>
          <rect id="Rectangle_2205" data-name="Rectangle 2205" width="288.585" height="180.035" transform="translate(213.229)" fill="none" stroke="#3f3d56" stroke-miterlimit="10" stroke-width="2"/>
          <path id="Path_6108" data-name="Path 6108" d="M329.995,183.312A62.218,62.218,0,0,0,286,77.1v62.218Z" transform="translate(71.852 -49.631)" fill="#3f3d56"/>
          <path id="Path_6109" data-name="Path 6109" d="M254.215,77.1a62.225,62.225,0,0,0-29.764,116.867l29.764-54.649Z" transform="translate(103.637 -49.631)" fill="#6c63ff"/>
          <path id="Path_6110" data-name="Path 6110" d="M314.791,215.094,270.8,171.1l-29.764,54.649A62.25,62.25,0,0,0,314.791,215.094Z" transform="translate(87.057 -81.413)" fill="#ceccfc"/>
          <rect id="Rectangle_2206" data-name="Rectangle 2206" width="11.914" height="11.914" transform="translate(224.15 142.638)" fill="#6c63ff"/>
          <rect id="Rectangle_2207" data-name="Rectangle 2207" width="11.914" height="11.914" transform="translate(241.359 142.638)" fill="#3f3d56"/>
          <rect id="Rectangle_2208" data-name="Rectangle 2208" width="11.914" height="11.914" transform="translate(258.569 142.638)" fill="#ceccfc"/>
          <rect id="Rectangle_2209" data-name="Rectangle 2209" width="48.98" height="1.986" transform="translate(429.999 145.286)" fill="#3f3d56"/>
          <rect id="Rectangle_2210" data-name="Rectangle 2210" width="48.98" height="1.986" transform="translate(429.999 151.242)" fill="#3f3d56"/>
          <rect id="Rectangle_2211" data-name="Rectangle 2211" width="48.98" height="1.986" transform="translate(429.999 157.2)" fill="#3f3d56"/>
          <rect id="Rectangle_2220" data-name="Rectangle 2220" width="164.149" height="180.035" transform="translate(348.586 264.426)" fill="#f7f8f9"/>
          <rect id="Rectangle_2221" data-name="Rectangle 2221" width="164.149" height="180.035" transform="translate(365.133 247.217)" fill="none" stroke="#3f3d56" stroke-miterlimit="10" stroke-width="2"/>
          <path id="Path_6130" data-name="Path 6130" d="M556,227.5V365.174H689.04" transform="translate(-174.981 30.969)" fill="none" stroke="#3f3d56" stroke-miterlimit="10" stroke-width="2"/>
          <rect id="Rectangle_2222" data-name="Rectangle 2222" width="29.785" height="47.656" transform="translate(388.299 347.824)" fill="#ff4f5e"/>
          <rect id="Rectangle_2223" data-name="Rectangle 2223" width="29.785" height="80.089" transform="translate(431.322 315.392)" fill="#2e2fff"/>
          <rect id="Rectangle_2224" data-name="Rectangle 2224" width="29.785" height="117.817" transform="translate(474.345 277.664)" fill="#6c63ff"/>
          <rect id="Rectangle_2225" data-name="Rectangle 2225" width="8.85" height="8.85" transform="translate(379.033 406.941)" fill="#6c63ff"/>
          <rect id="Rectangle_2226" data-name="Rectangle 2226" width="8.85" height="8.85" transform="translate(391.817 406.941)" fill="#2e2fff"/>
          <path id="Path_6132" data-name="Path 6132" d="M0,0H8.85V8.85H0Z" transform="translate(404.601 406.941)" fill="#ff4f5e"/>
          <rect id="Rectangle_2228" data-name="Rectangle 2228" width="34.418" height="1.395" transform="translate(478.317 410.785)" fill="#3f3d56"/>
          <rect id="Rectangle_2229" data-name="Rectangle 2229" width="34.418" height="1.395" transform="translate(478.317 414.971)" fill="#3f3d56"/>
          <rect id="Rectangle_2230" data-name="Rectangle 2230" width="34.418" height="1.395" transform="translate(478.317 419.157)" fill="#3f3d56"/>
          <rect id="Rectangle_2245" data-name="Rectangle 2245" width="164.149" height="180.035" transform="translate(127.782 241.787)" fill="#f7f8f9"/>
          <g id="Group_1550" data-name="Group 1550" transform="translate(151.342 257.146)">
            <rect id="Rectangle_2246" data-name="Rectangle 2246" width="8.85" height="8.85" transform="translate(0 127.953)" fill="#6c63ff"/>
            <rect id="Rectangle_2247" data-name="Rectangle 2247" width="8.85" height="8.85" transform="translate(12.784 127.953)" fill="#3f3d56"/>
            <rect id="Rectangle_2248" data-name="Rectangle 2248" width="8.85" height="8.85" transform="translate(25.568 127.953)" fill="#ceccfc"/>
            <rect id="Rectangle_2249" data-name="Rectangle 2249" width="34.418" height="1.395" transform="translate(99.284 131.797)" fill="#3f3d56"/>
            <rect id="Rectangle_2250" data-name="Rectangle 2250" width="34.418" height="1.395" transform="translate(99.284 135.983)" fill="#3f3d56"/>
            <rect id="Rectangle_2251" data-name="Rectangle 2251" width="34.418" height="1.395" transform="translate(99.284 140.169)" fill="#3f3d56"/>
            <path id="Path_6168" data-name="Path 6168" d="M326,463.1v14.562a43.685,43.685,0,0,1,30.89,74.575l10.3,10.3A58.247,58.247,0,0,0,326,463.1Z" transform="translate(-252.53 -463.1)" fill="#3f3d56"/>
            <path id="Path_6169" data-name="Path 6169" d="M349.183,608.065l-10.3-10.3a43.674,43.674,0,0,1-57.32,3.886l-8.814,11.6A58.245,58.245,0,0,0,349.183,608.065Z" transform="translate(-234.527 -508.633)" fill="#ceccfc"/>
            <path id="Path_6170" data-name="Path 6170" d="M252.56,521.346a43.685,43.685,0,0,1,43.685-43.685V463.1A58.246,58.246,0,0,0,261,567.719l8.814-11.6a43.609,43.609,0,0,1-17.255-34.776Z" transform="translate(-222.775 -463.1)" fill="#6c63ff"/>
          </g>
          <rect id="Rectangle_2246-2" data-name="Rectangle 2246" width="164.149" height="180.035" transform="translate(142.738 225.375)" fill="none" stroke="#3f3d56" stroke-miterlimit="10" stroke-width="2"/>
          <g id="Group_1552" data-name="Group 1552" transform="translate(0 22.521)">
            <circle id="Ellipse_381" data-name="Ellipse 381" cx="54.819" cy="54.819" r="54.819" fill="#3f3d56"/>
            <circle id="Ellipse_382" data-name="Ellipse 382" cx="43.578" cy="43.578" r="43.578" transform="translate(11.241 11.241)" fill="#f7f8f9"/>
            <rect id="Rectangle_2252" data-name="Rectangle 2252" width="2.464" height="38.496" transform="translate(53.587 18.94)" fill="#535461"/>
            <rect id="Rectangle_2253" data-name="Rectangle 2253" width="24.718" height="3.08" transform="translate(32.877 41.76) rotate(27.64)" fill="#535461"/>
            <circle id="Ellipse_383" data-name="Ellipse 383" cx="4.62" cy="4.62" r="4.62" transform="translate(50.199 50.199)" fill="#535461"/>
            <g id="Group_1551" data-name="Group 1551" transform="translate(11.238 11.241)" opacity="0.1">
              <path id="Path_6188" data-name="Path 6188" d="M323.387,214.084a43.581,43.581,0,0,1,78.4-26.2,43.583,43.583,0,1,0-73.034,47.169A43.38,43.38,0,0,1,323.387,214.084Z" transform="translate(-320 -165.27)"/>
            </g>
          </g>
          <g id="Group_1553" data-name="Group 1553" transform="translate(54.933 97.606)">
            <ellipse id="Ellipse_378" data-name="Ellipse 378" cx="22.61" cy="22.61" rx="22.61" ry="22.61" transform="translate(0 0)" fill="#2e2fff" stroke="#fff" stroke-width="4"/>
            <path id="Path_6131" data-name="Path 6131" d="M21.685,29.105l8.479,7.771L42.17,19.21l4.243,3.535-16.249,21.2L18.15,30.522Z" transform="translate(-10.863 -7.911)" fill="#fff"/>
          </g>
        </g>
      </g>
      <g id="Rectangle_2601" data-name="Rectangle 2601" transform="translate(378 2576)" fill="none" stroke="#707070" stroke-width="1" opacity="0">
        <rect width="750" height="700" stroke="none"/>
        <rect x="0.5" y="0.5" width="749" height="699" fill="none"/>
      </g>
    </g>
  </g>
</svg>
