<svg xmlns="http://www.w3.org/2000/svg" width="411" height="383" viewBox="0 0 411 383">
  <g id="Group_2468" data-name="Group 2468" transform="translate(-1235 -2473)">
    <g id="Group_1543" data-name="Group 1543" transform="translate(1264.729 2598.122)">
      <rect id="Rectangle_2085" data-name="Rectangle 2085" width="126.195" height="151.967" transform="translate(7.498)" fill="#fff" stroke="#3f3d56" stroke-width="1"/>
      <rect id="Rectangle_2000" data-name="Rectangle 2000" width="126.195" height="151.967" transform="translate(0 7.23)" fill="#f7f8f9"/>
      <g id="Group_1366" data-name="Group 1366" transform="translate(22.38 28.843)">
        <rect id="Rectangle_2135" data-name="Rectangle 2135" width="81.332" height="48.581" rx="4" transform="translate(0 0)" fill="#6c63ff"/>
        <g id="Group_1363" data-name="Group 1363" transform="translate(0 0)">
          <path id="Rectangle_1979" data-name="Rectangle 1979" d="M4,0H77.332a4,4,0,0,1,4,4V7.1a0,0,0,0,1,0,0H0a0,0,0,0,1,0,0V4A4,4,0,0,1,4,0Z" transform="translate(0 0)" fill="#c9cedd"/>
        </g>
        <ellipse id="Ellipse_284" data-name="Ellipse 284" cx="1.267" cy="1.267" rx="1.267" ry="1.267" transform="translate(3.858 2.801)" fill="#f7f8f9"/>
        <ellipse id="Ellipse_285" data-name="Ellipse 285" cx="1.267" cy="1.267" rx="1.267" ry="1.267" transform="translate(7.656 2.801)" fill="#f7f8f9"/>
        <ellipse id="Ellipse_286" data-name="Ellipse 286" cx="1.267" cy="1.267" rx="1.267" ry="1.267" transform="translate(11.457 2.801)" fill="#f7f8f9"/>
        <g id="Group_1365" data-name="Group 1365" transform="translate(5.034 10.7)" opacity="0.5">
          <line id="Line_99" data-name="Line 99" x2="69.889" transform="translate(0 6.025)" fill="none" stroke="#fff" stroke-width="1"/>
          <line id="Line_100" data-name="Line 100" x2="69.889" transform="translate(0 13.857)" fill="none" stroke="#fff" stroke-width="1"/>
          <line id="Line_101" data-name="Line 101" x2="69.889" transform="translate(0 21.69)" fill="none" stroke="#fff" stroke-width="1"/>
          <line id="Line_102" data-name="Line 102" x2="69.889" transform="translate(0 29.522)" fill="none" stroke="#fff" stroke-width="1"/>
          <g id="Group_1364" data-name="Group 1364" transform="translate(12.351)">
            <line id="Line_103" data-name="Line 103" y2="33.74" fill="none" stroke="#fff" stroke-width="1"/>
            <line id="Line_104" data-name="Line 104" y2="33.74" transform="translate(15.062)" fill="none" stroke="#fff" stroke-width="1"/>
            <line id="Line_105" data-name="Line 105" y2="33.74" transform="translate(30.125)" fill="none" stroke="#fff" stroke-width="1"/>
            <line id="Line_106" data-name="Line 106" y2="33.74" transform="translate(45.187)" fill="none" stroke="#fff" stroke-width="1"/>
          </g>
        </g>
      </g>
      <g id="Group_1367" data-name="Group 1367" transform="translate(22.292 90.454)">
        <path id="Path_5627" data-name="Path 5627" d="M2.41,0H79.529a2.41,2.41,0,0,1,2.41,2.41V45.789a2.41,2.41,0,0,1-2.41,2.41H2.41A2.41,2.41,0,0,1,0,45.789V2.41A2.41,2.41,0,0,1,2.41,0Z" fill="#6c63ff"/>
        <g id="Group_1363-2" data-name="Group 1363" transform="translate(0.088 0.071)">
          <path id="Rectangle_1979-2" data-name="Rectangle 1979" d="M4,0H77.332a4,4,0,0,1,4,4V7.1a0,0,0,0,1,0,0H0a0,0,0,0,1,0,0V4A4,4,0,0,1,4,0Z" fill="#c9cedd"/>
        </g>
        <ellipse id="Ellipse_284-2" data-name="Ellipse 284" cx="1.267" cy="1.267" rx="1.267" ry="1.267" transform="translate(3.946 2.645)" fill="#f7f8f9"/>
        <ellipse id="Ellipse_285-2" data-name="Ellipse 285" cx="1.267" cy="1.267" rx="1.267" ry="1.267" transform="translate(7.744 2.645)" fill="#f7f8f9"/>
        <ellipse id="Ellipse_286-2" data-name="Ellipse 286" cx="1.267" cy="1.267" rx="1.267" ry="1.267" transform="translate(11.544 2.645)" fill="#f7f8f9"/>
        <g id="Group_1365-2" data-name="Group 1365" transform="translate(5.121 10.544)" opacity="0.5">
          <line id="Line_99-2" data-name="Line 99" x2="69.889" transform="translate(0 6.025)" fill="none" stroke="#fff" stroke-width="1"/>
          <line id="Line_100-2" data-name="Line 100" x2="69.889" transform="translate(0 13.857)" fill="none" stroke="#fff" stroke-width="1"/>
          <line id="Line_101-2" data-name="Line 101" x2="69.889" transform="translate(0 21.69)" fill="none" stroke="#fff" stroke-width="1"/>
          <line id="Line_102-2" data-name="Line 102" x2="69.889" transform="translate(0 29.522)" fill="none" stroke="#fff" stroke-width="1"/>
          <g id="Group_1364-2" data-name="Group 1364" transform="translate(12.351)">
            <line id="Line_103-2" data-name="Line 103" y2="33.74" fill="none" stroke="#fff" stroke-width="1"/>
            <line id="Line_104-2" data-name="Line 104" y2="33.74" transform="translate(15.062)" fill="none" stroke="#fff" stroke-width="1"/>
            <line id="Line_105-2" data-name="Line 105" y2="33.74" transform="translate(30.125)" fill="none" stroke="#fff" stroke-width="1"/>
            <line id="Line_106-2" data-name="Line 106" y2="33.74" transform="translate(45.187)" fill="none" stroke="#fff" stroke-width="1"/>
          </g>
        </g>
      </g>
      <g id="Group_1368" data-name="Group 1368" transform="translate(108.258 45.813)">
        <path id="Path_5628" data-name="Path 5628" d="M-7293.316,10530.559h7.031v51.813h-7.031" transform="translate(7293.316 -10528.673)" fill="none" stroke="#c9cedd" stroke-width="1"/>
        <path id="Path_5630" data-name="Path 5630" d="M0,0V2.669H2.662" transform="translate(2.008 51.814) rotate(45)" fill="none" stroke="#c9cedd" stroke-width="1"/>
        <path id="Path_5631" data-name="Path 5631" d="M0,0V2.669H2.662" transform="translate(2.008 0) rotate(45)" fill="none" stroke="#c9cedd" stroke-width="1"/>
      </g>
      <g id="Group_1369" data-name="Group 1369" transform="translate(18.287 122.485) rotate(180)">
        <path id="Path_5628-2" data-name="Path 5628" d="M0,0H7.031V51.814H0" transform="translate(0 1.885)" fill="none" stroke="#c9cedd" stroke-width="1"/>
        <path id="Path_5630-2" data-name="Path 5630" d="M0,0V2.669H2.662" transform="translate(2.007 51.814) rotate(45)" fill="none" stroke="#c9cedd" stroke-width="1"/>
        <path id="Path_5631-2" data-name="Path 5631" d="M0,0V2.669H2.662" transform="translate(2.007 0) rotate(45)" fill="none" stroke="#c9cedd" stroke-width="1"/>
      </g>
    </g>
    <g id="Group_1549" data-name="Group 1549" transform="translate(1430.121 2618.232)">
      <g id="Group_1535" data-name="Group 1535" transform="translate(65.502 0)">
        <g id="Group_1275" data-name="Group 1275" transform="translate(0 0)">
          <rect id="Rectangle_2036" data-name="Rectangle 2036" width="46.943" height="14.192" transform="translate(0 40.939)" fill="#3f3d56"/>
          <ellipse id="Ellipse_223" data-name="Ellipse 223" cx="23.472" cy="5.186" rx="23.472" ry="5.186" transform="translate(0 35.48)" fill="#6c63ff"/>
          <ellipse id="Ellipse_224" data-name="Ellipse 224" cx="23.472" cy="4.913" rx="23.472" ry="4.913" transform="translate(0 50.218)" fill="#3f3d56"/>
          <rect id="Rectangle_2036-2" data-name="Rectangle 2036" width="46.943" height="13.646" transform="translate(0 22.38)" fill="#3f3d56"/>
          <ellipse id="Ellipse_223-2" data-name="Ellipse 223" cx="23.472" cy="5.186" rx="23.472" ry="5.186" transform="translate(0 17.467)" fill="#6c63ff"/>
          <ellipse id="Ellipse_224-2" data-name="Ellipse 224" cx="23.472" cy="5.458" rx="23.472" ry="5.458" transform="translate(0 31.113)" fill="#3f3d56"/>
          <rect id="Rectangle_2036-3" data-name="Rectangle 2036" width="46.943" height="14.192" transform="translate(0 4.913)" fill="#3f3d56"/>
          <ellipse id="Ellipse_223-3" data-name="Ellipse 223" cx="23.472" cy="4.913" rx="23.472" ry="4.913" fill="#6c63ff"/>
          <ellipse id="Ellipse_224-3" data-name="Ellipse 224" cx="23.472" cy="5.186" rx="23.472" ry="5.186" transform="translate(0 14.192)" fill="#3f3d56"/>
        </g>
        <g id="Group_1276" data-name="Group 1276" transform="translate(18.841 18.598)">
          <rect id="Rectangle_2037" data-name="Rectangle 2037" width="2.497" height="2.497" transform="translate(3.59)" fill="#ff6584" opacity="0.8"/>
          <rect id="Rectangle_2038" data-name="Rectangle 2038" width="2.497" height="2.497" transform="translate(7.18)" fill="#ff6584"/>
          <rect id="Rectangle_2039" data-name="Rectangle 2039" width="2.497" height="2.497" fill="#ff6584" opacity="0.4"/>
        </g>
        <g id="Group_1277" data-name="Group 1277" transform="translate(18.841 36.515)">
          <rect id="Rectangle_2037-2" data-name="Rectangle 2037" width="2.497" height="2.497" transform="translate(3.59)" fill="#ff6584" opacity="0.8"/>
          <rect id="Rectangle_2038-2" data-name="Rectangle 2038" width="2.497" height="2.497" transform="translate(7.18)" fill="#ff6584"/>
          <rect id="Rectangle_2039-2" data-name="Rectangle 2039" width="2.497" height="2.497" fill="#ff6584" opacity="0.4"/>
        </g>
        <g id="Group_1278" data-name="Group 1278" transform="translate(18.841 54.579)">
          <rect id="Rectangle_2037-3" data-name="Rectangle 2037" width="2.497" height="2.497" transform="translate(3.59 0)" fill="#ff6584" opacity="0.8"/>
          <rect id="Rectangle_2038-3" data-name="Rectangle 2038" width="2.497" height="2.497" transform="translate(7.18 0)" fill="#ff6584"/>
          <rect id="Rectangle_2039-3" data-name="Rectangle 2039" width="2.497" height="2.497" transform="translate(0 0)" fill="#ff6584" opacity="0.4"/>
        </g>
      </g>
      <g id="Group_1536" data-name="Group 1536" transform="translate(33.843 19.105)">
        <g id="Group_1275-2" data-name="Group 1275" transform="translate(0 0)">
          <rect id="Rectangle_2036-4" data-name="Rectangle 2036" width="46.397" height="14.192" transform="translate(0 40.939)" fill="#3f3d56"/>
          <ellipse id="Ellipse_223-4" data-name="Ellipse 223" cx="23.199" cy="4.64" rx="23.199" ry="4.64" transform="translate(0 36.026)" fill="#6c63ff"/>
          <ellipse id="Ellipse_224-4" data-name="Ellipse 224" cx="23.199" cy="5.186" rx="23.199" ry="5.186" transform="translate(0 50.218)" fill="#3f3d56"/>
          <rect id="Rectangle_2036-5" data-name="Rectangle 2036" width="46.397" height="14.738" transform="translate(0 21.834)" fill="#3f3d56"/>
          <ellipse id="Ellipse_223-5" data-name="Ellipse 223" cx="23.199" cy="5.458" rx="23.199" ry="5.458" transform="translate(0 16.921)" fill="#6c63ff"/>
          <ellipse id="Ellipse_224-5" data-name="Ellipse 224" cx="23.199" cy="5.186" rx="23.199" ry="5.186" transform="translate(0 31.659)" fill="#3f3d56"/>
          <rect id="Rectangle_2036-6" data-name="Rectangle 2036" width="46.397" height="13.646" transform="translate(0 5.458)" fill="#3f3d56"/>
          <ellipse id="Ellipse_223-6" data-name="Ellipse 223" cx="23.199" cy="5.186" rx="23.199" ry="5.186" transform="translate(0 0)" fill="#6c63ff"/>
          <ellipse id="Ellipse_224-6" data-name="Ellipse 224" cx="23.199" cy="5.731" rx="23.199" ry="5.731" transform="translate(0 13.1)" fill="#3f3d56"/>
        </g>
        <g id="Group_1276-2" data-name="Group 1276" transform="translate(18.666 18.594)">
          <rect id="Rectangle_2037-4" data-name="Rectangle 2037" width="2.497" height="2.497" transform="translate(3.59)" fill="#ff6584" opacity="0.8"/>
          <rect id="Rectangle_2038-4" data-name="Rectangle 2038" width="2.497" height="2.497" transform="translate(7.18)" fill="#ff6584"/>
          <rect id="Rectangle_2039-4" data-name="Rectangle 2039" width="2.497" height="2.497" fill="#ff6584" opacity="0.4"/>
        </g>
        <g id="Group_1277-2" data-name="Group 1277" transform="translate(18.666 36.51)">
          <rect id="Rectangle_2037-5" data-name="Rectangle 2037" width="2.497" height="2.497" transform="translate(3.59)" fill="#ff6584" opacity="0.8"/>
          <rect id="Rectangle_2038-5" data-name="Rectangle 2038" width="2.497" height="2.497" transform="translate(7.18)" fill="#ff6584"/>
          <rect id="Rectangle_2039-5" data-name="Rectangle 2039" width="2.497" height="2.497" fill="#ff6584" opacity="0.4"/>
        </g>
        <g id="Group_1278-2" data-name="Group 1278" transform="translate(18.666 54.575)">
          <rect id="Rectangle_2037-6" data-name="Rectangle 2037" width="2.497" height="2.497" transform="translate(3.59 0)" fill="#ff6584" opacity="0.8"/>
          <rect id="Rectangle_2038-6" data-name="Rectangle 2038" width="2.497" height="2.497" transform="translate(7.18 0)" fill="#ff6584"/>
          <rect id="Rectangle_2039-6" data-name="Rectangle 2039" width="2.497" height="2.497" transform="translate(0 0)" fill="#ff6584" opacity="0.4"/>
        </g>
      </g>
      <g id="Group_1537" data-name="Group 1537" transform="translate(99.89 19.105)">
        <g id="Group_1275-3" data-name="Group 1275" transform="translate(0 0)">
          <rect id="Rectangle_2036-7" data-name="Rectangle 2036" width="46.943" height="14.192" transform="translate(0 40.939)" fill="#3f3d56"/>
          <ellipse id="Ellipse_223-7" data-name="Ellipse 223" cx="23.472" cy="4.64" rx="23.472" ry="4.64" transform="translate(0 36.026)" fill="#6c63ff"/>
          <ellipse id="Ellipse_224-7" data-name="Ellipse 224" cx="23.472" cy="5.186" rx="23.472" ry="5.186" transform="translate(0 50.218)" fill="#3f3d56"/>
          <rect id="Rectangle_2036-8" data-name="Rectangle 2036" width="46.943" height="14.738" transform="translate(0 21.834)" fill="#3f3d56"/>
          <ellipse id="Ellipse_223-8" data-name="Ellipse 223" cx="23.472" cy="5.458" rx="23.472" ry="5.458" transform="translate(0 16.921)" fill="#6c63ff"/>
          <ellipse id="Ellipse_224-8" data-name="Ellipse 224" cx="23.472" cy="5.186" rx="23.472" ry="5.186" transform="translate(0 31.659)" fill="#3f3d56"/>
          <rect id="Rectangle_2036-9" data-name="Rectangle 2036" width="46.943" height="13.646" transform="translate(0 5.458)" fill="#3f3d56"/>
          <ellipse id="Ellipse_223-9" data-name="Ellipse 223" cx="23.472" cy="5.186" rx="23.472" ry="5.186" transform="translate(0 0)" fill="#6c63ff"/>
          <ellipse id="Ellipse_224-9" data-name="Ellipse 224" cx="23.472" cy="5.731" rx="23.472" ry="5.731" transform="translate(0 13.1)" fill="#3f3d56"/>
        </g>
        <g id="Group_1276-3" data-name="Group 1276" transform="translate(18.939 18.594)">
          <rect id="Rectangle_2037-7" data-name="Rectangle 2037" width="2.497" height="2.497" transform="translate(3.59)" fill="#ff6584" opacity="0.8"/>
          <rect id="Rectangle_2038-7" data-name="Rectangle 2038" width="2.497" height="2.497" transform="translate(7.18)" fill="#ff6584"/>
          <rect id="Rectangle_2039-7" data-name="Rectangle 2039" width="2.497" height="2.497" fill="#ff6584" opacity="0.4"/>
        </g>
        <g id="Group_1277-3" data-name="Group 1277" transform="translate(18.939 36.51)">
          <rect id="Rectangle_2037-8" data-name="Rectangle 2037" width="2.497" height="2.497" transform="translate(3.59)" fill="#ff6584" opacity="0.8"/>
          <rect id="Rectangle_2038-8" data-name="Rectangle 2038" width="2.497" height="2.497" transform="translate(7.18)" fill="#ff6584"/>
          <rect id="Rectangle_2039-8" data-name="Rectangle 2039" width="2.497" height="2.497" fill="#ff6584" opacity="0.4"/>
        </g>
        <g id="Group_1278-3" data-name="Group 1278" transform="translate(18.939 54.575)">
          <rect id="Rectangle_2037-9" data-name="Rectangle 2037" width="2.497" height="2.497" transform="translate(3.59 0)" fill="#ff6584" opacity="0.8"/>
          <rect id="Rectangle_2038-9" data-name="Rectangle 2038" width="2.497" height="2.497" transform="translate(7.18 0)" fill="#ff6584"/>
          <rect id="Rectangle_2039-9" data-name="Rectangle 2039" width="2.497" height="2.497" transform="translate(0 0)" fill="#ff6584" opacity="0.4"/>
        </g>
      </g>
      <g id="Group_1538" data-name="Group 1538" transform="translate(65.502 46.943)">
        <g id="Group_1275-4" data-name="Group 1275" transform="translate(0 0)">
          <rect id="Rectangle_2036-10" data-name="Rectangle 2036" width="55.677" height="17.467" transform="translate(0 48.581)" fill="#3f3d56"/>
          <ellipse id="Ellipse_223-10" data-name="Ellipse 223" cx="27.838" cy="6.004" rx="27.838" ry="6.004" transform="translate(0 43.122)" fill="#6c63ff"/>
          <ellipse id="Ellipse_224-10" data-name="Ellipse 224" cx="27.838" cy="5.731" rx="27.838" ry="5.731" transform="translate(0 60.589)" fill="#3f3d56"/>
          <rect id="Rectangle_2036-11" data-name="Rectangle 2036" width="55.677" height="16.375" transform="translate(0 27.292)" fill="#3f3d56"/>
          <ellipse id="Ellipse_223-11" data-name="Ellipse 223" cx="27.838" cy="6.277" rx="27.838" ry="6.277" transform="translate(0 21.288)" fill="#6c63ff"/>
          <ellipse id="Ellipse_224-11" data-name="Ellipse 224" cx="27.838" cy="6.277" rx="27.838" ry="6.277" transform="translate(0 38.755)" fill="#3f3d56"/>
          <rect id="Rectangle_2036-12" data-name="Rectangle 2036" width="55.677" height="16.375" transform="translate(0 7.096)" fill="#3f3d56"/>
          <ellipse id="Ellipse_223-12" data-name="Ellipse 223" cx="27.838" cy="6.55" rx="27.838" ry="6.55" fill="#6c63ff"/>
          <ellipse id="Ellipse_224-12" data-name="Ellipse 224" cx="27.838" cy="6.277" rx="27.838" ry="6.277" transform="translate(0 17.467)" fill="#3f3d56"/>
        </g>
        <g id="Group_1276-4" data-name="Group 1276" transform="translate(22.275 22.914)">
          <rect id="Rectangle_2037-10" data-name="Rectangle 2037" width="2.959" height="2.959" transform="translate(4.253)" fill="#ff6584" opacity="0.8"/>
          <rect id="Rectangle_2038-10" data-name="Rectangle 2038" width="2.959" height="2.959" transform="translate(8.506)" fill="#ff6584"/>
          <rect id="Rectangle_2039-10" data-name="Rectangle 2039" width="2.959" height="2.959" fill="#ff6584" opacity="0.4"/>
        </g>
        <g id="Group_1277-4" data-name="Group 1277" transform="translate(22.275 44.138)">
          <rect id="Rectangle_2037-11" data-name="Rectangle 2037" width="2.959" height="2.959" transform="translate(4.253)" fill="#ff6584" opacity="0.8"/>
          <rect id="Rectangle_2038-11" data-name="Rectangle 2038" width="2.959" height="2.959" transform="translate(8.506)" fill="#ff6584"/>
          <rect id="Rectangle_2039-11" data-name="Rectangle 2039" width="2.959" height="2.959" fill="#ff6584" opacity="0.4"/>
        </g>
        <g id="Group_1278-4" data-name="Group 1278" transform="translate(22.275 65.539)">
          <rect id="Rectangle_2037-12" data-name="Rectangle 2037" width="2.959" height="2.959" transform="translate(4.253 0)" fill="#ff6584" opacity="0.8"/>
          <rect id="Rectangle_2038-12" data-name="Rectangle 2038" width="2.959" height="2.959" transform="translate(8.506 0)" fill="#ff6584"/>
          <rect id="Rectangle_2039-12" data-name="Rectangle 2039" width="2.959" height="2.959" transform="translate(0 0)" fill="#ff6584" opacity="0.4"/>
        </g>
      </g>
      <g id="Group_1540" data-name="Group 1540" transform="translate(0 46.943)">
        <g id="Group_1275-5" data-name="Group 1275" transform="translate(0 0)">
          <rect id="Rectangle_2036-13" data-name="Rectangle 2036" width="55.131" height="17.467" transform="translate(0 48.581)" fill="#3f3d56"/>
          <ellipse id="Ellipse_223-13" data-name="Ellipse 223" cx="27.565" cy="6.004" rx="27.565" ry="6.004" transform="translate(0 43.122)" fill="#6c63ff"/>
          <ellipse id="Ellipse_224-13" data-name="Ellipse 224" cx="27.565" cy="5.731" rx="27.565" ry="5.731" transform="translate(0 60.589)" fill="#3f3d56"/>
          <rect id="Rectangle_2036-14" data-name="Rectangle 2036" width="55.131" height="16.375" transform="translate(0 27.292)" fill="#3f3d56"/>
          <ellipse id="Ellipse_223-14" data-name="Ellipse 223" cx="27.565" cy="6.277" rx="27.565" ry="6.277" transform="translate(0 21.288)" fill="#6c63ff"/>
          <ellipse id="Ellipse_224-14" data-name="Ellipse 224" cx="27.565" cy="6.277" rx="27.565" ry="6.277" transform="translate(0 38.755)" fill="#3f3d56"/>
          <rect id="Rectangle_2036-15" data-name="Rectangle 2036" width="55.131" height="16.375" transform="translate(0 7.096)" fill="#3f3d56"/>
          <ellipse id="Ellipse_223-15" data-name="Ellipse 223" cx="27.565" cy="6.55" rx="27.565" ry="6.55" fill="#6c63ff"/>
          <ellipse id="Ellipse_224-15" data-name="Ellipse 224" cx="27.565" cy="6.277" rx="27.565" ry="6.277" transform="translate(0 17.467)" fill="#3f3d56"/>
        </g>
        <g id="Group_1276-5" data-name="Group 1276" transform="translate(22.119 22.914)">
          <rect id="Rectangle_2037-13" data-name="Rectangle 2037" width="2.959" height="2.959" transform="translate(4.253)" fill="#ff6584" opacity="0.8"/>
          <rect id="Rectangle_2038-13" data-name="Rectangle 2038" width="2.959" height="2.959" transform="translate(8.506)" fill="#ff6584"/>
          <rect id="Rectangle_2039-13" data-name="Rectangle 2039" width="2.959" height="2.959" fill="#ff6584" opacity="0.4"/>
        </g>
        <g id="Group_1277-5" data-name="Group 1277" transform="translate(22.119 44.138)">
          <rect id="Rectangle_2037-14" data-name="Rectangle 2037" width="2.959" height="2.959" transform="translate(4.253)" fill="#ff6584" opacity="0.8"/>
          <rect id="Rectangle_2038-14" data-name="Rectangle 2038" width="2.959" height="2.959" transform="translate(8.506)" fill="#ff6584"/>
          <rect id="Rectangle_2039-14" data-name="Rectangle 2039" width="2.959" height="2.959" fill="#ff6584" opacity="0.4"/>
        </g>
        <g id="Group_1278-5" data-name="Group 1278" transform="translate(22.119 65.539)">
          <rect id="Rectangle_2037-15" data-name="Rectangle 2037" width="2.959" height="2.959" transform="translate(4.253 0)" fill="#ff6584" opacity="0.8"/>
          <rect id="Rectangle_2038-15" data-name="Rectangle 2038" width="2.959" height="2.959" transform="translate(8.506 0)" fill="#ff6584"/>
          <rect id="Rectangle_2039-15" data-name="Rectangle 2039" width="2.959" height="2.959" transform="translate(0 0)" fill="#ff6584" opacity="0.4"/>
        </g>
      </g>
      <g id="Group_1548" data-name="Group 1548" transform="translate(132.096 46.943)">
        <g id="Group_1275-6" data-name="Group 1275" transform="translate(0 0)">
          <rect id="Rectangle_2036-16" data-name="Rectangle 2036" width="54.585" height="17.467" transform="translate(0 48.581)" fill="#3f3d56"/>
          <ellipse id="Ellipse_223-16" data-name="Ellipse 223" cx="27.292" cy="6.004" rx="27.292" ry="6.004" transform="translate(0 43.122)" fill="#6c63ff"/>
          <ellipse id="Ellipse_224-16" data-name="Ellipse 224" cx="27.292" cy="5.731" rx="27.292" ry="5.731" transform="translate(0 60.589)" fill="#3f3d56"/>
          <rect id="Rectangle_2036-17" data-name="Rectangle 2036" width="54.585" height="16.375" transform="translate(0 27.292)" fill="#3f3d56"/>
          <ellipse id="Ellipse_223-17" data-name="Ellipse 223" cx="27.292" cy="6.277" rx="27.292" ry="6.277" transform="translate(0 21.288)" fill="#6c63ff"/>
          <ellipse id="Ellipse_224-17" data-name="Ellipse 224" cx="27.292" cy="6.277" rx="27.292" ry="6.277" transform="translate(0 38.755)" fill="#3f3d56"/>
          <rect id="Rectangle_2036-18" data-name="Rectangle 2036" width="54.585" height="16.375" transform="translate(0 7.096)" fill="#3f3d56"/>
          <ellipse id="Ellipse_223-18" data-name="Ellipse 223" cx="27.292" cy="6.55" rx="27.292" ry="6.55" fill="#6c63ff"/>
          <ellipse id="Ellipse_224-18" data-name="Ellipse 224" cx="27.292" cy="6.277" rx="27.292" ry="6.277" transform="translate(0 17.467)" fill="#3f3d56"/>
        </g>
        <g id="Group_1276-6" data-name="Group 1276" transform="translate(21.736 22.914)">
          <rect id="Rectangle_2037-16" data-name="Rectangle 2037" width="2.959" height="2.959" transform="translate(4.253)" fill="#ff6584" opacity="0.8"/>
          <rect id="Rectangle_2038-16" data-name="Rectangle 2038" width="2.959" height="2.959" transform="translate(8.506)" fill="#ff6584"/>
          <rect id="Rectangle_2039-16" data-name="Rectangle 2039" width="2.959" height="2.959" fill="#ff6584" opacity="0.4"/>
        </g>
        <g id="Group_1277-6" data-name="Group 1277" transform="translate(21.736 44.138)">
          <rect id="Rectangle_2037-17" data-name="Rectangle 2037" width="2.959" height="2.959" transform="translate(4.253)" fill="#ff6584" opacity="0.8"/>
          <rect id="Rectangle_2038-17" data-name="Rectangle 2038" width="2.959" height="2.959" transform="translate(8.506)" fill="#ff6584"/>
          <rect id="Rectangle_2039-17" data-name="Rectangle 2039" width="2.959" height="2.959" fill="#ff6584" opacity="0.4"/>
        </g>
        <g id="Group_1278-6" data-name="Group 1278" transform="translate(21.736 65.539)">
          <rect id="Rectangle_2037-18" data-name="Rectangle 2037" width="2.959" height="2.959" transform="translate(4.253 0)" fill="#ff6584" opacity="0.8"/>
          <rect id="Rectangle_2038-18" data-name="Rectangle 2038" width="2.959" height="2.959" transform="translate(8.506 0)" fill="#ff6584"/>
          <rect id="Rectangle_2039-18" data-name="Rectangle 2039" width="2.959" height="2.959" transform="translate(0 0)" fill="#ff6584" opacity="0.4"/>
        </g>
      </g>
    </g>
    <path id="Path_6164" data-name="Path 6164" d="M-5616,8691.487v17.521h195.342v-37" transform="translate(6944.216 -5927.544)" fill="none" stroke="#3f3d56" stroke-width="1" stroke-dasharray="6"/>
    <path id="Path_6165" data-name="Path 6165" d="M-5468.906,8353h113.127v37.449" transform="translate(6875.331 -5779.485)" fill="none" stroke="#3f3d56" stroke-width="1" stroke-dasharray="6"/>
    <path id="Path_6166" data-name="Path 6166" d="M0,0V4.287H4.287" transform="translate(1516.494 2607.205) rotate(-45)" fill="none" stroke="#3f3d56" stroke-width="1"/>
    <path id="Path_6167" data-name="Path 6167" d="M0,0V4.287H4.287" transform="translate(1331.248 2766.361) rotate(135)" fill="none" stroke="#3f3d56" stroke-width="1"/>
    <g id="Rectangle_2600" data-name="Rectangle 2600" transform="translate(1235 2473)" fill="none" stroke="#707070" stroke-width="1" opacity="0">
      <rect width="411" height="383" stroke="none"/>
      <rect x="0.5" y="0.5" width="410" height="382" fill="none"/>
    </g>
    <text id="Single-Server_Database" data-name="Single-Server Database" transform="translate(1265 2578)" fill="#3f3d56" font-size="13.2" font-family="TitilliumWeb-Bold, Titillium Web" font-weight="700"><tspan x="0" y="0">Single-Server Database</tspan></text>
  </g>
</svg>
