<svg xmlns="http://www.w3.org/2000/svg" width="750" height="700" viewBox="0 0 750 700">
  <g id="Group_2208" data-name="Group 2208" transform="translate(-378 -571)">
    <g id="Group_2133" data-name="Group 2133" transform="translate(-66 24.5)">
      <g id="Group_2132" data-name="Group 2132" transform="translate(497 655.5)">
        <path id="Path_5637" data-name="Path 5637" d="M665.077,319.372c0-39.563-16.743-74.506-42.318-95.518q.528-6,.535-12.162c0-64.236-44.126-116.31-98.557-116.31A86.7,86.7,0,0,0,476.9,109.99C438.363,80.5,388.061,62.644,333.029,62.644c-89.543,0-166.564,47.263-200.735,115.039-1.9-.129-3.811-.2-5.737-.2C72.126,177.482,28,229.556,28,293.792a131.12,131.12,0,0,0,16.218,63.93h0A104.682,104.682,0,0,0,148.937,462.367H568.312A82.193,82.193,0,0,0,650.534,380.2h0A131.678,131.678,0,0,0,665.077,319.372Z" transform="translate(-28 -62.644)" fill="#f7f8f9"/>
        <g id="Group_2131" data-name="Group 2131" transform="translate(41.298 75.734)">
          <path id="Path_5674" data-name="Path 5674" d="M549.232,360.354V664.812c0,9.055-8.742,16.417-19.536,16.417H116.211c-10.794,0-19.536-7.362-19.536-16.417V360.354c0-9.071,8.742-18.316,19.536-18.316H529.7C540.49,342.038,549.232,351.283,549.232,360.354Z" transform="translate(-34.632 -274.314)" fill="#fff" stroke="#3f3d56" stroke-width="2"/>
          <path id="Path_5675" data-name="Path 5675" d="M549.232,361.555v47.862H96.675V361.555a19.52,19.52,0,0,1,19.536-19.517H529.7a19.52,19.52,0,0,1,19.536,19.517Z" transform="translate(-34.632 -274.314)" fill="#3f3d56"/>
          <circle id="Ellipse_291" data-name="Ellipse 291" cx="13.051" cy="13.051" r="13.051" transform="translate(73.787 88.362)" fill="#fff"/>
          <circle id="Ellipse_292" data-name="Ellipse 292" cx="13.051" cy="13.051" r="13.051" transform="translate(111.843 88.362)" fill="#fff"/>
          <circle id="Ellipse_293" data-name="Ellipse 293" cx="13.051" cy="13.051" r="13.051" transform="translate(149.842 88.362)" fill="#fff"/>
          <path id="Path_5722" data-name="Path 5722" d="M716.776,266.452v79.127c0,4.176-4.028,7.572-9,7.572H517.253c-4.974,0-9-3.4-9-7.572V266.452c0-4.184,4.028-8.448,9-8.448H707.774C712.748,258,716.776,262.268,716.776,266.452Z" transform="translate(-114.074 -258.004)" fill="#fff"/>
          <path id="Path_5723" data-name="Path 5723" d="M716.776,267.006V289.08H508.251V267.006a9,9,0,0,1,9-9H707.774a9,9,0,0,1,9,9Z" transform="translate(-114.074 -258.004)" fill="#3f3d56"/>
          <circle id="Ellipse_295" data-name="Ellipse 295" cx="6.019" cy="6.019" r="6.019" transform="translate(399.451 9.519)" fill="#fff"/>
          <circle id="Ellipse_296" data-name="Ellipse 296" cx="6.019" cy="6.019" r="6.019" transform="translate(416.977 9.519)" fill="#fff"/>
          <circle id="Ellipse_297" data-name="Ellipse 297" cx="6.019" cy="6.019" r="6.019" transform="translate(434.503 9.519)" fill="#fff"/>
          <circle id="Ellipse_298" data-name="Ellipse 298" cx="16.835" cy="16.835" r="16.835" transform="translate(550.379 46.883)" fill="#2e2fff"/>
          <rect id="Rectangle_2163" data-name="Rectangle 2163" width="99.239" height="3.503" transform="translate(511.35 50.27) rotate(180)" fill="#e1e0ff"/>
          <rect id="Rectangle_2164" data-name="Rectangle 2164" width="99.239" height="3.503" transform="translate(511.35 58.808) rotate(180)" fill="#6c63ff" opacity="0.2"/>
          <rect id="Rectangle_2165" data-name="Rectangle 2165" width="99.239" height="3.503" transform="translate(511.35 67.345) rotate(180)" fill="#6c63ff" opacity="0.2"/>
          <rect id="Rectangle_2166" data-name="Rectangle 2166" width="99.239" height="3.503" transform="translate(511.35 75.883) rotate(180)" fill="#6c63ff" opacity="0.2"/>
          <path id="github_1_" data-name="github (1)" d="M51.39.5C23,.5,0,23.112,0,51A50.584,50.584,0,0,0,35.138,98.913c2.57.475,3.512-1.088,3.512-2.428,0-1.2-.043-4.377-.064-8.586-14.3,3.045-17.31-6.775-17.31-6.775-2.338-5.829-5.717-7.387-5.717-7.387-4.655-3.131.36-3.066.36-3.066,5.16.351,7.871,5.2,7.871,5.2,4.582,7.721,12.03,5.49,14.967,4.2a10.692,10.692,0,0,1,3.255-6.754C30.6,72.057,18.6,67.714,18.6,48.366a19.294,19.294,0,0,1,5.289-13.55c-.578-1.276-2.313-6.411.45-13.366,0,0,4.3-1.353,14.132,5.178a49.273,49.273,0,0,1,25.7,0C73.934,20.1,78.238,21.45,78.238,21.45c2.762,6.955,1.028,12.09.514,13.366a19.372,19.372,0,0,1,5.268,13.55c0,19.4-12.013,23.67-23.447,24.912,1.8,1.516,3.469,4.612,3.469,9.345,0,6.758-.064,12.188-.064,13.828,0,1.323.9,2.9,3.533,2.4A50.43,50.43,0,0,0,102.781,51C102.781,23.112,79.771.5,51.39.5Z" transform="translate(244.658 219.325)" fill="#3f3d56"/>
          <g id="Group_2129" data-name="Group 2129" transform="translate(0 168.481)">
            <g id="Group_1397" data-name="Group 1397">
              <g id="Ellipse_259" data-name="Ellipse 259" transform="translate(11.162 11.162)" fill="#ff4f5e" stroke="#ff4f5e" stroke-width="1.5">
                <circle cx="12.278" cy="12.278" r="12.278" stroke="none"/>
                <circle cx="12.278" cy="12.278" r="11.528" fill="none"/>
              </g>
              <g id="Ellipse_260" data-name="Ellipse 260" fill="none" stroke="#2e2fff" stroke-width="2" stroke-dasharray="3">
                <circle cx="23.44" cy="23.44" r="23.44" stroke="none"/>
                <circle cx="23.44" cy="23.44" r="22.44" fill="none"/>
              </g>
            </g>
          </g>
        </g>
      </g>
      <path id="Icon_ionic-ios-checkmark-circle" data-name="Icon ionic-ios-checkmark-circle" d="M24.045,3.375a20.67,20.67,0,1,0,20.67,20.67A20.667,20.667,0,0,0,24.045,3.375ZM34.628,18.331,21.342,31.677h-.01a1.8,1.8,0,0,1-1.153.547,1.74,1.74,0,0,1-1.163-.566l-5.565-5.565a.4.4,0,0,1,0-.566l1.769-1.769a.384.384,0,0,1,.556,0l4.412,4.412L32.313,15.956a.392.392,0,0,1,.278-.119h0a.361.361,0,0,1,.278.119l1.739,1.8A.392.392,0,0,1,34.628,18.331Z" transform="translate(976.343 1061.459)" fill="#ff4f5e"/>
      <g id="Rectangle_2577" data-name="Rectangle 2577" transform="translate(786.206 705.203) rotate(45)" fill="none" stroke="#2e2fff" stroke-width="2">
        <rect width="26.788" height="26.788" stroke="none"/>
        <rect x="1" y="1" width="24.788" height="24.788" fill="none"/>
      </g>
    </g>
    <g id="Rectangle_2599" data-name="Rectangle 2599" transform="translate(378 571)" fill="none" stroke="#707070" stroke-width="1" opacity="0">
      <rect width="750" height="700" stroke="none"/>
      <rect x="0.5" y="0.5" width="749" height="699" fill="none"/>
    </g>
  </g>
</svg>
