<svg xmlns="http://www.w3.org/2000/svg" width="129" height="167" viewBox="0 0 129 167">
  <g id="组_2402" data-name="组 2402" transform="translate(-969 -4400.489)">
    <g id="组_1275" data-name="组 1275" transform="translate(969 4400)">
      <rect id="矩形_2036" data-name="矩形 2036" width="129" height="39" transform="translate(0 114.49)" fill="#3f3d56"/>
      <ellipse id="椭圆_223" data-name="椭圆 223" cx="64.5" cy="13.5" rx="64.5" ry="13.5" transform="translate(0 100.49)" fill="#6c63ff"/>
      <ellipse id="椭圆_224" data-name="椭圆 224" cx="64.5" cy="13.5" rx="64.5" ry="13.5" transform="translate(0 140.49)" fill="#3f3d56"/>
      <rect id="矩形_2036-2" data-name="矩形 2036" width="129" height="39" transform="translate(0 63.49)" fill="#3f3d56"/>
      <ellipse id="椭圆_223-2" data-name="椭圆 223" cx="64.5" cy="14" rx="64.5" ry="14" transform="translate(0 49.49)" fill="#6c63ff"/>
      <ellipse id="椭圆_224-2" data-name="椭圆 224" cx="64.5" cy="14.5" rx="64.5" ry="14.5" transform="translate(0 89.49)" fill="#3f3d56"/>
      <rect id="矩形_2036-3" data-name="矩形 2036" width="129" height="39" transform="translate(0 14.49)" fill="#3f3d56"/>
      <ellipse id="椭圆_223-3" data-name="椭圆 223" cx="64.5" cy="14" rx="64.5" ry="14" transform="translate(0 0.49)" fill="#6c63ff"/>
      <ellipse id="椭圆_224-3" data-name="椭圆 224" cx="64.5" cy="14.5" rx="64.5" ry="14.5" transform="translate(0 39.49)" fill="#3f3d56"/>
    </g>
    <g id="组_1276" data-name="组 1276" transform="translate(1020.378 4452.478)">
      <rect id="矩形_2037" data-name="矩形 2037" width="6.9" height="6.9" transform="translate(9.92)" fill="#ff6584" opacity="0.8"/>
      <rect id="矩形_2038" data-name="矩形 2038" width="6.9" height="6.9" transform="translate(19.838)" fill="#ff6584"/>
      <rect id="矩形_2039" data-name="矩形 2039" width="6.9" height="6.9" fill="#ff6584" opacity="0.4"/>
    </g>
    <g id="组_1277" data-name="组 1277" transform="translate(1020.378 4501.98)">
      <rect id="矩形_2037-2" data-name="矩形 2037" width="6.9" height="6.9" transform="translate(9.92)" fill="#ff6584" opacity="0.8"/>
      <rect id="矩形_2038-2" data-name="矩形 2038" width="6.9" height="6.9" transform="translate(19.838)" fill="#ff6584"/>
      <rect id="矩形_2039-2" data-name="矩形 2039" width="6.9" height="6.9" fill="#ff6584" opacity="0.4"/>
    </g>
    <g id="组_1278" data-name="组 1278" transform="translate(1020.378 4551.892)">
      <rect id="矩形_2037-3" data-name="矩形 2037" width="6.9" height="6.9" transform="translate(9.92 0)" fill="#ff6584" opacity="0.8"/>
      <rect id="矩形_2038-3" data-name="矩形 2038" width="6.9" height="6.9" transform="translate(19.838 0)" fill="#ff6584"/>
      <rect id="矩形_2039-3" data-name="矩形 2039" width="6.9" height="6.9" transform="translate(0 0)" fill="#ff6584" opacity="0.4"/>
    </g>
  </g>
</svg>
