<svg xmlns="http://www.w3.org/2000/svg" xmlns:xlink="http://www.w3.org/1999/xlink" width="201.079" height="100.326" viewBox="0 0 201.079 100.326">
  <defs>
    <linearGradient id="linear-gradient" x1="-1.487" y1="0.893" x2="-1.487" y2="0.279" gradientUnits="objectBoundingBox">
      <stop offset="0" stop-color="gray" stop-opacity="0.251"/>
      <stop offset="0.54" stop-color="gray" stop-opacity="0.122"/>
      <stop offset="1" stop-color="gray" stop-opacity="0.102"/>
    </linearGradient>
    <linearGradient id="linear-gradient-2" x1="-2.825" y1="0.844" x2="-2.825" y2="0.229" xlink:href="#linear-gradient"/>
    <linearGradient id="linear-gradient-3" x1="-0.315" y1="0.895" x2="-0.315" y2="0.281" xlink:href="#linear-gradient"/>
    <linearGradient id="linear-gradient-4" x1="-1.653" y1="0.845" x2="-1.653" y2="0.231" xlink:href="#linear-gradient"/>
  </defs>
  <g id="Group_1593" data-name="Group 1593" transform="translate(-1982.594 -473.064)">
    <path id="Path_289" data-name="Path 289" d="M133.161,160.062s15.983-2.231,10.414-13.212c-13.375-26.369-53.665,2.739-69.934-10.6a38.313,38.313,0,0,1-13.949-33.533" transform="translate(1892.272 488.213) rotate(-40)" fill="none" stroke="#6e77a3" stroke-linecap="round" stroke-miterlimit="10" stroke-width="1" stroke-dasharray="2 6.01"/>
    <g id="undraw_mail_box_kd5i" transform="translate(2063.569 462.377)">
      <path id="Path_6194" data-name="Path 6194" d="M270.85,158.06h38.683a4.739,4.739,0,0,1,4.739,4.739V186.35H270.85Z" transform="translate(-231.987 -119.412)" fill="#6c63ff"/>
      <path id="Path_6195" data-name="Path 6195" d="M183.4,158.06h0A10.494,10.494,0,0,1,193.9,168.554v12.66a5.136,5.136,0,0,1-5.136,5.136H178.046a5.136,5.136,0,0,1-5.136-5.136v-12.66A10.494,10.494,0,0,1,183.4,158.06Z" transform="translate(-145.456 -119.412)" fill="#6c63ff"/>
      <path id="Path_6196" data-name="Path 6196" d="M183.4,158.06h0A10.494,10.494,0,0,1,193.9,168.554v12.66a5.136,5.136,0,0,1-5.136,5.136H178.046a5.136,5.136,0,0,1-5.136-5.136v-12.66A10.494,10.494,0,0,1,183.4,158.06Z" transform="translate(-145.456 -119.412)" opacity="0.2"/>
      <rect id="Rectangle_2276" data-name="Rectangle 2276" width="8.932" height="14.534" transform="matrix(0.121, -0.993, 0.993, 0.121, 26.46, 52.915)" fill="url(#linear-gradient)"/>
      <path id="Path_6267" data-name="Path 6267" d="M0,0H8.336V14.041H0Z" transform="matrix(0.121, -0.993, 0.993, 0.121, 26.682, 52.565)" fill="#d2d0ef"/>
      <g id="Group_1581" data-name="Group 1581" transform="translate(28.056 44.996)" opacity="0.6">
        <rect id="Rectangle_2278" data-name="Rectangle 2278" width="1.787" height="1.322" transform="matrix(-0.993, -0.121, 0.121, -0.993, 1.774, 1.528)" fill="#6c63ff"/>
        <rect id="Rectangle_2279" data-name="Rectangle 2279" width="6.86" height="0.429" transform="matrix(-0.993, -0.121, 0.121, -0.993, 7.954, 4.871)" fill="#6c63ff"/>
        <rect id="Rectangle_2280" data-name="Rectangle 2280" width="5.002" height="0.285" transform="matrix(-0.993, -0.121, 0.121, -0.993, 7.842, 5.794)" fill="#6c63ff"/>
      </g>
      <rect id="Rectangle_2281" data-name="Rectangle 2281" width="8.932" height="14.534" transform="matrix(0.121, -0.993, 0.993, 0.121, 32.339, 54.866)" fill="url(#linear-gradient-2)"/>
      <path id="Path_6266" data-name="Path 6266" d="M0,0H8.336V14.041H0Z" transform="matrix(0.121, -0.993, 0.993, 0.121, 32.561, 54.517)" fill="#d2d0ef"/>
      <g id="Group_1582" data-name="Group 1582" transform="translate(33.935 46.948)" opacity="0.6">
        <rect id="Rectangle_2283" data-name="Rectangle 2283" width="1.787" height="1.322" transform="matrix(-0.993, -0.121, 0.121, -0.993, 1.774, 1.528)" fill="#6c63ff"/>
        <rect id="Rectangle_2284" data-name="Rectangle 2284" width="6.86" height="0.429" transform="matrix(-0.993, -0.121, 0.121, -0.993, 7.954, 4.871)" fill="#6c63ff"/>
        <rect id="Rectangle_2285" data-name="Rectangle 2285" width="5.002" height="0.285" transform="matrix(-0.993, -0.121, 0.121, -0.993, 7.839, 5.793)" fill="#6c63ff"/>
      </g>
      <rect id="Rectangle_2286" data-name="Rectangle 2286" width="12.108" height="19.7" transform="matrix(0.121, -0.993, 0.993, 0.121, 19.465, 58.851)" fill="url(#linear-gradient-3)"/>
      <path id="Path_6268" data-name="Path 6268" d="M0,0H11.3V19.033H0Z" transform="matrix(0.121, -0.993, 0.993, 0.121, 19.767, 58.376)" fill="#fff"/>
      <g id="Group_1583" data-name="Group 1583" transform="translate(21.628 48.117)" opacity="0.6">
        <rect id="Rectangle_2288" data-name="Rectangle 2288" width="2.422" height="1.792" transform="matrix(-0.993, -0.121, 0.121, -0.993, 2.404, 2.071)" fill="#6c63ff"/>
        <rect id="Rectangle_2289" data-name="Rectangle 2289" width="9.299" height="0.581" transform="matrix(-0.993, -0.121, 0.121, -0.993, 10.78, 6.603)" fill="#6c63ff"/>
        <rect id="Rectangle_2290" data-name="Rectangle 2290" width="6.781" height="0.388" transform="matrix(-0.993, -0.121, 0.121, -0.993, 10.629, 7.853)" fill="#6c63ff"/>
      </g>
      <rect id="Rectangle_2291" data-name="Rectangle 2291" width="12.108" height="19.7" transform="matrix(0.121, -0.993, 0.993, 0.121, 27.433, 61.495)" fill="url(#linear-gradient-4)"/>
      <path id="Path_6269" data-name="Path 6269" d="M0,0H11.3V19.033H0Z" transform="matrix(0.121, -0.993, 0.993, 0.121, 27.734, 61.022)" fill="#fff"/>
      <g id="Group_1584" data-name="Group 1584" transform="translate(29.596 50.763)" opacity="0.6">
        <rect id="Rectangle_2293" data-name="Rectangle 2293" width="2.422" height="1.792" transform="matrix(-0.993, -0.121, 0.121, -0.993, 2.404, 2.071)" fill="#6c63ff"/>
        <rect id="Rectangle_2294" data-name="Rectangle 2294" width="9.299" height="0.581" transform="matrix(-0.993, -0.121, 0.121, -0.993, 10.78, 6.603)" fill="#6c63ff"/>
        <rect id="Rectangle_2295" data-name="Rectangle 2295" width="6.781" height="0.388" transform="matrix(-0.993, -0.121, 0.121, -0.993, 10.628, 7.853)" fill="#6c63ff"/>
      </g>
      <path id="Path_6199" data-name="Path 6199" d="M417.471,242.35h0a10.46,10.46,0,0,0-4,.792,10.574,10.574,0,0,1,1.492-.107h0a10.494,10.494,0,0,1,10.494,10.494v16.658h2.509V252.844A10.494,10.494,0,0,0,417.471,242.35Z" transform="translate(-379.634 -203.588)" opacity="0.2"/>
      <path id="Path_6200" data-name="Path 6200" d="M66.9,369.58H97.015v3.651H63.25A3.651,3.651,0,0,1,66.9,369.58Z" transform="translate(-48.569 -306.293)" fill="#6c63ff"/>
      <path id="Path_6201" data-name="Path 6201" d="M66.9,369.58H97.015v3.651H63.25A3.651,3.651,0,0,1,66.9,369.58Z" transform="translate(-48.569 -306.293)" fill="#2e2fff" opacity="0.091"/>
      <rect id="Rectangle_2296" data-name="Rectangle 2296" width="7.3" height="25.529" transform="translate(48.445 66.937)" fill="#3f3d56"/>
    </g>
    <g id="Group_1591" data-name="Group 1591" transform="matrix(0.819, -0.574, 0.574, 0.819, -231.393, 1068.9)">
      <path id="Path_6221" data-name="Path 6221" d="M9.717,35.284l-4.557,7.9,33.406,5.439L17.05,33.64Z" transform="translate(2121 790.362)" fill="#443bd3"/>
      <path id="Path_6222" data-name="Path 6222" d="M9.49,58.294l32.084.614L11.623,48.27Z" transform="translate(2118.186 780.178)" fill="#6c63ff"/>
      <path id="Path_6223" data-name="Path 6223" d="M26.667,8.99,50.029,30.984,21.18,17.646Z" transform="translate(2109.537 808)" fill="#6c63ff"/>
    </g>
    <path id="Path_6224" data-name="Path 6224" d="M278.677,134.762s14.162-2.279,10.418-18.394-3.255-29.137,6.267-34.346,20.591,1.628,20.591,1.628" transform="translate(2358.461 734.979) rotate(-155)" fill="none" stroke="#6e77a3" stroke-linecap="round" stroke-miterlimit="10" stroke-width="1" stroke-dasharray="2 6.01"/>
    <g id="Group_1592" data-name="Group 1592" transform="matrix(0.921, -0.391, 0.391, 0.921, 2156.185, 490.848)">
      <path id="Path_6221-2" data-name="Path 6221" d="M25.224,34.783l3.169,5.494L5.16,44.06,20.124,33.64Z" transform="translate(-5.026 -28.763)" fill="#443bd3"/>
      <path id="Path_6222-2" data-name="Path 6222" d="M31.8,55.242,9.49,55.669l20.83-7.4Z" transform="translate(-9.49 -40.301)" fill="#6c63ff"/>
      <path id="Path_6223-2" data-name="Path 6223" d="M37.428,8.99,21.18,24.287,41.244,15.01Z" transform="translate(-21.045 -8.99)" fill="#6c63ff"/>
    </g>
  </g>
</svg>
