<svg id="file的副本" xmlns="http://www.w3.org/2000/svg" width="113.307" height="150.672" viewBox="0 0 113.307 150.672">
  <g id="Group_2443" data-name="Group 2443" transform="translate(2.224 2.224)">
    <path id="Path_10649" data-name="Path 10649" d="M123.927,45.277h-67.6a5.993,5.993,0,0,0-5.986,5.98V156.926a6,6,0,0,0,5.986,5.971h84.3a6,6,0,0,0,5.987-5.971V72.358c0-.751,0-1.435-.009-2.068Zm0,0" transform="translate(-37.753 -34.177)" fill="#b5b5ed" fill-rule="evenodd"/>
    <path id="Path_10650" data-name="Path 10650" d="M300.345,45.277l-.017,19.032a6,6,0,0,0,5.987,5.98h16.707c-.084-4.987-.652-6.613-4.751-11.059l-4.042-4.395L310.5,50.8C306.548,46.5,306.19,45.277,300.345,45.277Zm0,0" transform="translate(-214.172 -34.177)" fill="#fff" fill-rule="evenodd"/>
    <path id="Path_10652" data-name="Path 10652" d="M144.548,296.375a3.056,3.056,0,0,0-3.157,2.919v21.634h-4.25c-10.127.5-10.353,8.489-6.17,13.861l4.141,5.313,10.311,13.244c4.675,5.679,12.224,5.679,16.3,0L172.033,340.1l4.142-5.313c4.182-5.371,3.957-13.361-6.171-13.861h-4.258V299.294a3.05,3.05,0,0,0-3.157-2.919Zm0,0" transform="translate(-92.848 -211.382)" fill="#fff" fill-rule="evenodd"/>
  </g>
  <path id="Path_10654" data-name="Path 10654" d="M160.058,217.145H105.611a2.224,2.224,0,1,0,0,4.448h54.447a2.224,2.224,0,0,0,0-4.448Zm0,0" transform="translate(-72.962 -153.243)" fill="#083862"/>
  <path id="Path_10655" data-name="Path 10655" d="M160.058,170.41H105.611a2.224,2.224,0,1,0,0,4.448h54.447a2.224,2.224,0,0,0,0-4.448Zm0,0" transform="translate(-72.962 -120.262)" fill="#083862"/>
  <path id="Path_10656" data-name="Path 10656" d="M111.083,79.743a2.227,2.227,0,0,0,2.224-2.224V40.4c0-.716,0-1.377-.013-2,0-.023,0-.046,0-.069,0-.047,0-.093-.007-.139-.1-5.31-.781-7.494-5.333-12.428l-3.452-3.744V8.412A8.438,8.438,0,0,0,96.062,0H8.444A8.438,8.438,0,0,0,0,8.412V63.106a2.224,2.224,0,1,0,4.448,0V8.412a3.985,3.985,0,0,1,4-3.965H96.062a3.984,3.984,0,0,1,4,3.965V17.2c-.385-.42-.74-.814-1.062-1.176C95.713,12.366,94.277,11.1,88.4,11.1H20.8a8.215,8.215,0,0,0-8.209,8.2V121.765H8.444a3.985,3.985,0,0,1-4-3.965V73.29A2.224,2.224,0,1,0,0,73.29V117.8a8.438,8.438,0,0,0,8.444,8.412h4.242a8.216,8.216,0,0,0,8.115,6.957H43.4l9.647,12.386c.011.015.024.03.036.047a13.173,13.173,0,0,0,10.088,5.069c.129,0,.259,0,.389-.009a12,12,0,0,0,9.32-5.151l9.615-12.343h22.6a8.214,8.214,0,0,0,8.212-8.2V88.584a2.224,2.224,0,1,0-4.449,0v36.389a3.761,3.761,0,0,1-3.762,3.747H85.96L87.3,127c2.986-3.83,3.842-8.39,2.232-11.894-.885-1.934-3.368-5.222-10.047-5.552-.036,0-.074,0-.109,0H77.345V90.137a5.272,5.272,0,0,0-5.378-5.146H53.924a5.276,5.276,0,0,0-5.382,5.146v19.409H46.518c-.039,0-.074,0-.109,0-6.682.33-9.165,3.619-10.05,5.552-1.606,3.5-.749,8.064,2.234,11.894l1.342,1.724H20.8a3.762,3.762,0,0,1-3.764-3.747v-.961c0-.008,0-.016,0-.024s0-.015,0-.023V19.3A3.766,3.766,0,0,1,20.8,15.549H86.171l-.015,16.807a8.217,8.217,0,0,0,8.211,8.2h14.491V77.519A2.227,2.227,0,0,0,111.083,79.743ZM42.1,124.266c-1.9-2.442-2.583-5.381-1.7-7.311,1.021-2.23,3.907-2.842,6.17-2.96h4.192a2.224,2.224,0,0,0,2.224-2.223V90.137a.872.872,0,0,1,.932-.7H71.967a.858.858,0,0,1,.93.7v21.634a2.226,2.226,0,0,0,2.224,2.223h4.2c2.265.118,5.151.73,6.172,2.96.886,1.93.2,4.869-1.7,7.309l-3.475,4.457-3.466,4.449-7.515,9.645-.053.07a7.5,7.5,0,0,1-5.878,3.334,8.682,8.682,0,0,1-6.877-3.422l-7.5-9.626L45.57,128.72Zm48.5-91.908.015-16.734c2.23.214,2.911.968,5.066,3.369.371.415.777.866,1.23,1.36l7.773,8.432c2.968,3.216,3.822,4.554,4.068,7.327H94.368A3.763,3.763,0,0,1,90.605,32.358Zm0,0" fill="#083862"/>
  <path id="Path_10657" data-name="Path 10657" d="M105.611,128.1h34.641a2.224,2.224,0,0,0,0-4.449H105.611a2.224,2.224,0,0,0,0,4.449Zm0,0" transform="translate(-72.962 -87.261)" fill="#083862"/>
</svg>
