<svg xmlns="http://www.w3.org/2000/svg" width="116.081" height="102.645" viewBox="0 0 116.081 102.645">
  <g id="Group_3131" data-name="Group 3131" transform="translate(-1382 -1436)">
    <g id="_007-cloud-3" data-name="007-cloud-3" transform="translate(1382 1436)">
      <path id="Path_10735" data-name="Path 10735" d="M92.9,44.376a16.77,16.77,0,0,1-2.1,33.392H27.916a16.77,16.77,0,0,1-2.1-33.392v-.147a16.77,16.77,0,0,1,16.77-16.77h2.1a16.77,16.77,0,0,1,33.539,0v.147A16.77,16.77,0,0,1,92.9,44.229v.147Z" transform="translate(-11.261 -10.69)" fill="#3333ce" opacity="0.2"/>
      <circle id="Ellipse_640" data-name="Ellipse 640" cx="6.289" cy="6.289" r="6.289" transform="translate(61.58 27.182)" fill="#f2f2f2"/>
      <g id="Group_3008" data-name="Group 3008" transform="translate(15.463 2.023)">
        <path id="Path_10739" data-name="Path 10739" d="M203.79,341.971a2.1,2.1,0,0,0-1.482-.614h-16.77a4.192,4.192,0,0,0-4.192,4.192V370.7a4.192,4.192,0,0,0,4.192,4.192H206.5a4.192,4.192,0,0,0,4.192-4.192V349.742a2.1,2.1,0,0,0-.614-1.482ZM185.538,370.7V345.549h14.673v4.192a2.1,2.1,0,0,0,2.1,2.1H206.5V370.7Z" transform="translate(-145.71 -274.274)" fill="#083863"/>
        <path id="Path_10740" data-name="Path 10740" d="M385.123,341.971a2.1,2.1,0,0,0-1.482-.614h-16.77a4.192,4.192,0,0,0-4.192,4.192V370.7a4.192,4.192,0,0,0,4.192,4.192h20.962a4.192,4.192,0,0,0,4.192-4.192V349.742a2.1,2.1,0,0,0-.614-1.482ZM366.871,370.7V345.549h14.673v4.192a2.1,2.1,0,0,0,2.1,2.1h4.192V370.7Z" transform="translate(-291.408 -274.274)" fill="#083863"/>
        <path id="Path_10741" data-name="Path 10741" d="M22.456,341.971a2.1,2.1,0,0,0-1.482-.614H4.2a4.192,4.192,0,0,0-4.192,4.192V370.7A4.192,4.192,0,0,0,4.2,374.9H25.166a4.192,4.192,0,0,0,4.192-4.192V349.742a2.1,2.1,0,0,0-.614-1.482ZM4.2,370.7V345.549H18.878v4.192a2.1,2.1,0,0,0,2.1,2.1h4.192V370.7Z" transform="translate(-0.012 -274.274)" fill="#083863"/>
        <path id="Path_10742" data-name="Path 10742" d="M85.887,34.012a18.891,18.891,0,0,0-14.673-16.77,18.866,18.866,0,0,0-37.545-.468h-.117a18.893,18.893,0,0,0-18.8,17.237A18.883,18.883,0,0,0,.012,52.41v2.1H4.2v-2.1A14.674,14.674,0,0,1,17.05,37.864a2.239,2.239,0,0,0,1.828-2.224A14.69,14.69,0,0,1,33.551,20.967h2.1a2.1,2.1,0,0,0,2.1-2.1,14.673,14.673,0,0,1,29.347.054,2.1,2.1,0,0,0,1.834,2.17,14.673,14.673,0,0,1,12.839,14.6,2.1,2.1,0,0,0,1.834,2.17A14.673,14.673,0,0,1,96.437,52.41v2.1h4.192v-2.1A18.882,18.882,0,0,0,85.887,34.012Z" transform="translate(-0.012 0)" fill="#083863"/>
        <path id="Path_10743" data-name="Path 10743" d="M223.826,46.882V42.69a10.493,10.493,0,0,0-10.481,10.481h4.192A6.289,6.289,0,0,1,223.826,46.882Z" transform="translate(-171.421 -34.301)" fill="#083863"/>
        <path id="Path_10744" data-name="Path 10744" d="M42.678,405.357h8.385v4.192H42.678Z" transform="translate(-34.293 -325.697)" fill="#083863"/>
        <path id="Path_10745" data-name="Path 10745" d="M42.678,448.023H55.255v4.192H42.678Z" transform="translate(-34.293 -359.978)" fill="#083863"/>
        <path id="Path_10746" data-name="Path 10746" d="M224.012,405.357H232.4v4.192h-8.385Z" transform="translate(-179.992 -325.697)" fill="#083863"/>
        <path id="Path_10747" data-name="Path 10747" d="M224.012,448.023h12.577v4.192H224.012Z" transform="translate(-179.992 -359.978)" fill="#083863"/>
        <path id="Path_10748" data-name="Path 10748" d="M405.345,405.357h8.385v4.192h-8.385Z" transform="translate(-325.689 -325.697)" fill="#083863"/>
        <path id="Path_10749" data-name="Path 10749" d="M405.345,448.023h12.577v4.192H405.345Z" transform="translate(-325.689 -359.978)" fill="#083863"/>
        <path id="Path_10750" data-name="Path 10750" d="M74.668,238.7v4.192H78.86V238.7a1.918,1.918,0,0,1,2.1-2.1h27.251a6.112,6.112,0,0,0,6.289-5.931q.005-.179,0-.357v-6.289H110.3v6.263a1.925,1.925,0,0,1-2.1,2.121H80.956a6.112,6.112,0,0,0-6.289,5.931q-.005.179,0,.357Z" transform="translate(-59.994 -179.998)" fill="#083863"/>
        <path id="Path_10751" data-name="Path 10751" d="M317.359,277.16v-4.192a6.112,6.112,0,0,0-5.931-6.289q-.179-.005-.357,0H288.012v4.192h23.033a1.925,1.925,0,0,1,2.121,2.1v4.192Z" transform="translate(-231.415 -214.27)" fill="#083863"/>
        <path id="Path_10752" data-name="Path 10752" d="M181.345,127.838h8.682a8.345,8.345,0,0,0,16.174,0h8.682v-4.192H206.2a8.345,8.345,0,0,0-16.174,0h-8.682Zm16.77-6.289a4.192,4.192,0,1,1-4.192,4.192A4.192,4.192,0,0,1,198.115,121.549Z" transform="translate(-145.71 -94.294)" fill="#083863"/>
      </g>
    </g>
  </g>
</svg>
