<svg xmlns="http://www.w3.org/2000/svg" width="893.13" height="411.735" viewBox="0 0 893.13 411.735">
  <g id="Group_2450" data-name="Group 2450" transform="translate(-6527 1590.926)">
    <g id="Group_2437" data-name="Group 2437" transform="translate(6616.815 -1567.875)" opacity="0.1">
      <path id="Path_10487" data-name="Path 10487" d="M239.708,254.04a22.756,22.756,0,0,0-1.487-5.694,2.578,2.578,0,0,0-1.31-1.614,2.7,2.7,0,0,0-1.3-.015l-6.676,1.021a2.559,2.559,0,0,0-1.523.592c-.869.914-.013,2.387-.04,3.648a3.429,3.429,0,0,1-2.657,2.951,10.044,10.044,0,0,1-4.222-.052l-9.335-1.451a15.391,15.391,0,0,0,7.062-4.713c1.228-1.455,1.882-4.172.107-4.861a4.359,4.359,0,0,0-1.621-.13c-4.229.033-7.557-3.5-11.517-4.985a12.734,12.734,0,0,0-14.331,4.272l4.973.24a2.207,2.207,0,0,1,1.325.353c1.09.9-.265,2.615-.112,4.017.2,1.822,2.618,2.211,4.441,2.395s4.136,1.666,3.259,3.275c-9.164,3.156-18.489-6.17-28.113-5.022-2.436.291-4.736,1.247-7.114,1.849-14.527,3.676-29.545-6.131-44.386-4.054a56.364,56.364,0,0,0-9.689,2.555c-2.02.663-4.127,1.38-5.594,2.918s-2.026,4.168-.636,5.777a32.512,32.512,0,0,1-11.393-1.083,6.383,6.383,0,0,1,3.282,5.625,67.6,67.6,0,0,0-17.318,5.28,29.166,29.166,0,0,0,3.584,4.775l-7.575,4.866a4.323,4.323,0,0,1,2.394,6.314c2.653-1.18,4.3-4.234,7.135-4.853,1.859-.406,3.75.355,5.514,1.069s3.7,1.407,5.527.871,3.172-2.9,2.012-4.411a94.452,94.452,0,0,1,23.992-3.748,3.009,3.009,0,0,1,1.817.345c1.058.734.779,2.319.722,3.6s.945,2.976,2.095,2.4c-1.352,1.173-.2,3.38,1.1,4.613s2.861,2.935,2.067,4.539c-.207.419-.559.754-.758,1.176-.589,1.247.346,2.7,1.449,3.529s2.453,1.407,3.219,2.553.418,3.154-.952,3.314l-3.893-4.943a10.135,10.135,0,0,0-2.63,4.984,10.457,10.457,0,0,1,1.293,14.3c-1.766,2.075-4.278,3.336-6.47,4.954s-4.22,3.923-4.215,6.648c.01,4.707-.375,9.081,1.389,13.445a207.114,207.114,0,0,0,11.244,23.459c1.112,1.99,2.55,4.17,4.8,4.513q-4.272-10.4-7.691-21.123c1.485.006,3.2.124,4.071,1.326.721,1,.566,2.35.79,3.559a11.024,11.024,0,0,0,1.406,3.305l13.6,24.225c1.127,2.008,2.421,4.164,4.575,4.977,1.378.52,2.971.422,4.239,1.171.994.587,1.663,1.628,2.676,2.181,2.865,1.563,6.849-1.435,9.526.431A26.818,26.818,0,0,1,173.8,387.5c2.473,2.141,6.529.709,9.383,2.306,1.84,1.03,2.793,3.088,3.774,4.954,2.458,4.674,6.435,9.253,11.7,9.625,1.655.117,3.345-.2,4.962.171s3.21,1.78,2.95,3.418c-.445,2.809.943,5.884.57,8.7-.679,5.135-7.963,7.392-8.589,12.534a29.091,29.091,0,0,1-.191,3.39c-.329,1.351-1.343,2.45-1.7,3.793-.683,2.544,1.14,5.076,3.142,6.788s4.391,3.188,5.486,5.583c1.157,2.532.589,5.485.965,8.244.822,6.023,6.023,10.487,11.377,13.366,1.631.877,3.382,1.726,4.438,3.248,1.378,1.986,1.241,4.6,1.7,6.977,1.127,5.812,6.019,10.6,6.158,16.518.1,4.206-2.24,8.023-3.636,11.992a27.966,27.966,0,0,0,2.284,23.193,37.135,37.135,0,0,1,3.034,5.341c1.319,3.413.891,7.293,2.107,10.745,1.608,4.563,6.026,8.332,5.6,13.151,2.006,4.165,6.435,6.212,10.889,7.452l7.982,2.222a10.258,10.258,0,0,0,4.682.546,3.514,3.514,0,0,0,3-3.186c-3.914-.883-7.954-1.822-11.181-4.207s-5.437-6.633-4.213-10.455c.568-1.772,1.775-3.818.627-5.282-.657-.838-1.86-1.057-2.6-1.822-1.157-1.193-.759-3.2.072-4.636s2.033-2.724,2.369-4.352a4.54,4.54,0,0,0-2.128-4.724,11.286,11.286,0,0,0,3.951-2.535,3.852,3.852,0,0,0,.7-4.365c2.427.308,5.293.459,6.886-1.4,1.272-1.483,1.185-3.7.682-5.587s-1.352-3.722-1.379-5.675a103.425,103.425,0,0,0,16.779-.569,10.88,10.88,0,0,0-5.1-6.389c2.522-.427,4.819-3.446,5.616-5.876a15.119,15.119,0,0,0,.1-7.588,4.071,4.071,0,0,1-.075-1.988,3.874,3.874,0,0,1,2-1.93L291.49,482a7.291,7.291,0,0,0,2-1.478c1.311-1.541,1.117-3.866.446-5.774s-1.747-3.7-2.006-5.71c-.774-6,5.65-10.307,7.818-15.956a24.04,24.04,0,0,0,1.189-7c.177-2.544.19-5.5-1.763-7.139-1.873-1.572-4.8-1.221-6.758-2.683-1.8-1.34-2.416-3.943-4.379-5.026-1.782-.983-4.017-.358-6-.82-3.49-.814-5.686-4.836-9.251-5.209-2.011-.21-4.287.773-5.936-.4-1.452-1.032-1.511-3.106-1.787-4.867a13.591,13.591,0,0,0-10.969-11c-2.074-.333-4.331-.206-6.095-1.346-1.786-1.154-2.605-3.314-4.008-4.912-2.261-2.575-5.823-3.49-9.159-4.275l-13.571-3.19c-2.409-.566-5.514-.867-6.807,1.244a9.754,9.754,0,0,0-.805,2.533,7.843,7.843,0,0,1-7.375,5.551,8.722,8.722,0,0,0-5.143-3.98,32.042,32.042,0,0,1-4.161-.99,5.845,5.845,0,0,1-2.536-8.109,7.276,7.276,0,0,0-1.243-8.752c-2.308-2.072-5.646-2.572-8.741-2.365-.81-1.768.545-3.764,2-5.049s3.234-2.549,3.552-4.468c.5-3.019-3.352-5.312-6.276-4.411s-4.791,3.741-6.025,6.541a19.257,19.257,0,0,1-2.427,4.653,4.768,4.768,0,0,1-4.616,1.89c-2.408-.615-3.338-3.477-3.871-5.9a38.4,38.4,0,0,1-1.285-9.891,12.934,12.934,0,0,1,3.729-9.007c4-3.675,10.144-3.315,15.547-2.729a3.949,3.949,0,0,1,.4-5.215,5.929,5.929,0,0,1,5.374-1.32,7.406,7.406,0,0,1,4.164,2.489c1.535,1.872,1.972,4.4,3.132,6.524s3.77,3.937,5.905,2.8c1.845-.985,2.137-3.542,1.678-5.582s-1.434-4.024-1.268-6.108c.317-3.977,4.44-6.371,8.078-8.009s7.8-3.841,8.38-7.789a7.1,7.1,0,0,1,.432-2.264,4.441,4.441,0,0,1,1.629-1.532c10.618-7.017,21.412-14.12,33.548-17.954.631-.2.705.022,1.349-.134.9-.52.3-1.96-.56-2.54s-2.017-1.025-2.237-2.042c-.161-.747.279-1.481.394-2.237a2.793,2.793,0,0,0-3.667-2.83c-.975-1.291.954-2.791,2.514-3.221a68.261,68.261,0,0,1,14.342-2.343,2.583,2.583,0,0,1,1.632.278,1.951,1.951,0,0,1,.133,2.664,15.676,15.676,0,0,1-2.195,1.993,5.991,5.991,0,0,0-1.554,6.026c2.532,1.288,5.285,2.614,8.089,2.16s5.293-3.6,3.975-6.121c-1.228-2.343-4.915-2.872-5.549-5.44-.742-3.007,3.514-5.682,2.556-8.627-.42-1.29-1.706-2.049-2.692-2.981a8.088,8.088,0,0,1-1.77-8.968,10.2,10.2,0,0,1-8.949-2.8c-2.141-2.16-3.848-5.568-6.888-5.471-2.789.089-5.192,3.343-7.8,2.35-.642-.244-1.318-.741-1.94-.45a1.6,1.6,0,0,0-.724,1.2c-.663,3.169.477,6.78-1.25,9.518-1.88,2.98-6.227,3.393-8.505,6.08-1.237,1.459-1.716,3.424-2.853,4.962s-3.55,2.516-4.914,1.175a6.773,6.773,0,0,0-1.84-8.236A18.074,18.074,0,0,0,221.275,280a24.105,24.105,0,0,1-4.54-2.53,4.473,4.473,0,0,1-1.667-1.784,4.064,4.064,0,0,1,.114-2.82,11.532,11.532,0,0,1,9.177-7.607c1.817-.247,3.931-.16,5.133-1.544.636-.732.97-1.84,1.893-2.137a2.793,2.793,0,0,1,1.748.215l6.78,2.387a4.759,4.759,0,0,0,2.415.4,1.638,1.638,0,0,0,1.416-1.721c-.217-1.126-1.949-1.666-1.792-2.8a1.87,1.87,0,0,1,.567-.954,24.241,24.241,0,0,1,19.226-7.592c.856,1.406-.5,3.07-1.624,4.27s-2.031,3.344-.669,4.267a3.734,3.734,0,0,0,1.805.407,15.764,15.764,0,0,1,4.805,1.457q3.515,1.529,6.894,3.347a8.741,8.741,0,0,1,.174-4.44c.563-1.389,2.163-2.478,3.561-1.938,1.347.521,2.038,2.305,3.473,2.468,1.914.218,2.67-2.61,1.87-4.363s-2.383-3.221-2.515-5.143c-.089-1.3.4-2.905-.632-3.691a2.819,2.819,0,0,0-1.222-.429l-25.866-4.76c-1.536-.283-3.755-.066-3.823,1.494-.038.871.74,1.733.4,2.533-.368.855-1.576.777-2.456,1.079A3.357,3.357,0,0,0,244,251.6a9.817,9.817,0,0,0,1.62,3.976C243.938,254.873,241.39,254.743,239.708,254.04Z" transform="translate(-79.791 -221.938)" fill="#3f3d56"/>
      <path id="Path_10488" data-name="Path 10488" d="M285.249,228.834a8.376,8.376,0,0,0-9.2,2.755,1.843,1.843,0,0,0-.427,1.941c.511.871,1.814.527,2.774.215a6.982,6.982,0,0,1,4.382-.1c.9.31,1.708.857,2.614,1.155a2.632,2.632,0,0,0,2.684-.392,3.494,3.494,0,0,0,.662-2.507,2.016,2.016,0,0,0-.514-1.657,2.635,2.635,0,0,0-1.188-.352,4.093,4.093,0,0,1-2.4-1.4" transform="translate(-145.973 -218.689)" fill="#3f3d56"/>
      <path id="Path_10489" data-name="Path 10489" d="M303.189,225.125a2.131,2.131,0,0,0-2.059,3,8.636,8.636,0,0,0,3.443.225,2.943,2.943,0,0,0,2.407-2.207,5.541,5.541,0,0,1-3.923-.749" transform="translate(-154.584 -217.577)" fill="#3f3d56"/>
      <path id="Path_10490" data-name="Path 10490" d="M347.108,217.131a39.612,39.612,0,0,0-8.83,3,6.634,6.634,0,0,1,4.237,6.663,3.47,3.47,0,0,0,.04,1.647c.324.786,1.264,1.081,2.09,1.283a13.78,13.78,0,0,0,4.584.585,4.67,4.67,0,0,0,3.795-2.319,16.525,16.525,0,0,1,.789-1.865c1.98-3.016,7.863.631,9.989-2.284.749-1.027.68-2.572,1.657-3.386a3.721,3.721,0,0,1,1.7-.65,119.6,119.6,0,0,1,12.937-1.843c2.058-.179,4.74-.918,4.757-2.983A35.836,35.836,0,0,0,362,218.054c-2.548,1.276-5.918,3.961-8.373,2.269-.919-.634-.874-2.34-2.138-3.052C350.192,216.543,348.48,216.839,347.108,217.131Z" transform="translate(-167.212 -213.92)" fill="#3f3d56"/>
      <path id="Path_10491" data-name="Path 10491" d="M389.262,221.673l3.638.7a4.715,4.715,0,0,0-4.906,5.109c3.407,1.138,7.121.031,10.71.182s7.765,2.715,7.152,6.254c-.185,1.07-.8,2.14-.482,3.177a11.827,11.827,0,0,0,1.229,1.913c.754,1.4.151,3.161-.8,4.429s-2.233,2.281-3.069,3.629c-2.079,3.353-.9,7.688.341,11.434a10.08,10.08,0,0,0,1.938,3.871c1.835,1.951,4.826,2.121,7.5,2.16,1.949.028,4.182-.068,5.415-1.578,1.609-1.972.484-5.048,1.544-7.362.962-2.1,3.414-3,5.635-3.643a84.322,84.322,0,0,0,12.064-3.937c4.777-2.2,9.242-5.622,14.493-5.9a19.893,19.893,0,0,0,4.4-.309c1.419-.4,2.767-1.63,2.659-3.1-.092-1.257-1.155-2.18-1.986-3.128s-1.484-2.4-.72-3.408l13.763-2.571c-.976-2.659-1.736-6.16.506-7.891.809-.624,1.892-.874,2.581-1.629,1.174-1.287.584-3.5-.771-4.6a8.84,8.84,0,0,0-4.923-1.492,132.077,132.077,0,0,0-18.151.161l-35.459,1.944c-2.379.13-5.127-.069-7.309.743-1.848.687-3.161,1.949-5.274,2.392C397.085,220.037,392.792,219.483,389.262,221.673Z" transform="translate(-184.019 -213.722)" fill="#3f3d56"/>
      <path id="Path_10492" data-name="Path 10492" d="M487.645,267.832a1.464,1.464,0,0,0-1.059.24,1.337,1.337,0,0,0-.345.817,5.393,5.393,0,0,0,.783,3.86,3.78,3.78,0,0,0,3.46,1.659c1.638-.209,2.845-1.606,4.352-2.288,2.321-1.05,12.179-2.687,5.36-6.371-2.35-1.27-3.868-.149-5.721.687A13.017,13.017,0,0,1,487.645,267.832Z" transform="translate(-217.225 -231.123)" fill="#3f3d56"/>
      <path id="Path_10493" data-name="Path 10493" d="M577.587,221.4a3.894,3.894,0,0,0-1.894,1.649,1.664,1.664,0,0,0,.624,2.207,2.484,2.484,0,0,0,.929.147l3.238.1c1.375.041,3.093.334,3.463,1.659.274.984-.34,2.249.4,2.952a2.087,2.087,0,0,0,1.1.43,7.505,7.505,0,0,0,3.262.105c2.356-.632,1.118-2.07,1.86-3.35,1.135-1.959.939-.773,2.939-1.9,1.477-.829,3.386-2.333,2.153-4.446C593.519,217.28,580.751,219.821,577.587,221.4Z" transform="translate(-247.44 -215.529)" fill="#3f3d56"/>
      <path id="Path_10494" data-name="Path 10494" d="M667.82,219.619l-1.88.251a75.725,75.725,0,0,0-12.586,2.41,20.948,20.948,0,0,0,5.512,1.353,16.928,16.928,0,0,1,3.088.439c1.8.537,3.621,1.923,5.363,1.213,1.08-.44,1.433-1.565,2.328-2.161.618-.412,2.962-1.078,3.224-1.493C674.986,218.271,669.448,219.4,667.82,219.619Z" transform="translate(-273.77 -215.595)" fill="#3f3d56"/>
      <path id="Path_10495" data-name="Path 10495" d="M683.267,231.822a35.257,35.257,0,0,0-6.938,5.081c-.883.83-1.786,1.863-1.706,3.073.107,1.608,1.819,2.54,3.3,3.169l6.01,2.545c.729-1.028.062-2.446-.692-3.456s-1.649-2.178-1.316-3.393c.38-1.387,2.071-1.859,3.489-2.1,2.31-.389,8.542-.358,7.793-4.081C692.328,228.273,685.586,230.526,683.267,231.822Z" transform="translate(-280.961 -219.253)" fill="#3f3d56"/>
      <path id="Path_10496" data-name="Path 10496" d="M685.651,595a5.735,5.735,0,0,0,.363,5.054,5.121,5.121,0,0,0,5.256,1.816,9.468,9.468,0,0,0,4.88-3.138,16.8,16.8,0,0,0,2.807-4.3,33.6,33.6,0,0,0,2.08-7.612l1.866-9.8c.417-2.19.4-8.9-3.624-6.716-1.1.6-3.645,5.315-4.8,6.653-2.077,2.411-2.351,4.751-3.445,7.672C689.668,588.285,686.916,591.334,685.651,595Z" transform="translate(-284.554 -334.17)" fill="#3f3d56"/>
      <path id="Path_10497" data-name="Path 10497" d="M1004.1,682.667a29.34,29.34,0,0,1-3.824-1.821,32.24,32.24,0,0,0-1.938,10.566l9.011-5.1c1.356-.767,2.892-1.833,2.863-3.39a1.073,1.073,0,0,0-.5-.975,1.216,1.216,0,0,0-.632-.074,15.252,15.252,0,0,0-3.815,1.226,4.656,4.656,0,0,1-3.891.02" transform="translate(-390.443 -371.702)" fill="#3f3d56"/>
      <path id="Path_10498" data-name="Path 10498" d="M1071.409,686.562a19.489,19.489,0,0,0-2.89,1.037c-2.068,1.052-3.475,3.05-5.336,4.436a21.166,21.166,0,0,1-6.029,2.762,1.445,1.445,0,0,0,.337,2.13,4.179,4.179,0,0,0,2.38.535c2.186.048,4.49.069,6.4-.987a20.2,20.2,0,0,0,3.015-2.393,31.929,31.929,0,0,1,7.589-4.292,8.715,8.715,0,0,0,2.645-1.582c1.672-1.648,1.79-4.19-.622-4.75C1076.957,683.005,1073.265,685.961,1071.409,686.562Z" transform="translate(-410.218 -372.57)" fill="#3f3d56"/>
      <path id="Path_10499" data-name="Path 10499" d="M1106.533,664.294a7.517,7.517,0,0,0-2.3-6.159c-.025,2.268-.094,4.685-1.37,6.561-.909,1.337-2.334,2.239-3.33,3.512s-1.438,3.291-.27,4.408a4.378,4.378,0,0,0,2.595.894c2.325.274,5.017.426,6.648-1.254.89-.917,1.323-2.275,2.409-2.949a2.933,2.933,0,0,0,1.057-.756c.448-.713-.264-1.652-1.066-1.909s-1.685-.136-2.491-.38-1.545-1.15-1.132-1.883" transform="translate(-424.339 -364.021)" fill="#3f3d56"/>
      <path id="Path_10500" data-name="Path 10500" d="M1035.566,537.771a10.456,10.456,0,0,1-3.73.22c-2.07-.381-3.682-1.941-5.353-3.22a23.611,23.611,0,0,0-13.8-4.82c-4.542-.086-9.126,1.145-13.586.286a5.359,5.359,0,0,0,3.158,3.559c1.48.723,3.113,1.086,4.6,1.794a10.984,10.984,0,0,1,5.32,5.535,15.631,15.631,0,0,0,1.506,3.311c1.483,2,4.294,2.433,6.774,2.27,3.234-.213,6.612-1.143,9.621.062,2.3.922,3.949,2.936,5.871,4.5s4.629,2.729,6.836,1.6A11.3,11.3,0,0,1,1034.968,542c2.164.2,8.4.122,8.063-3.556C1042.746,535.324,1037.424,537.435,1035.566,537.771Z" transform="translate(-390.7 -320.668)" fill="#3f3d56"/>
      <path id="Path_10501" data-name="Path 10501" d="M978.384,574.637c.384-2.108,2.486-3.969,1.831-6.009-.453-1.411-2.089-2.107-3.57-2.142s-2.936.406-4.417.448a21.522,21.522,0,0,0-2.893.041c-2.94.483-4.752,3.565-7.523,4.661-1.685.666-3.577.539-5.33,1-3.977,1.046-6.494,4.8-9.274,7.834a33.1,33.1,0,0,1-16.8,9.8c-2.261.524-4.692.859-6.49,2.327-2.38,1.945-2.966,5.279-3.5,8.307a137.2,137.2,0,0,1-6.68,24.52l9.444,1.206a12.838,12.838,0,0,0,5.386-.078,15.635,15.635,0,0,0,3.543-1.887,35.369,35.369,0,0,1,13.818-4.988,14.67,14.67,0,0,1,7.387.518,6.869,6.869,0,0,1,4.507,5.493,5.8,5.8,0,0,1,5.8,1.41,10.079,10.079,0,0,1,2.768,5.527c.249,1.292.5,2.84,1.7,3.382.978.442,2.1-.034,3.17-.12,3.631-.291,6.644,3.943,10.213,3.214,3.828-.782,4.767-6.514,8.5-7.662,2.145-.659,5.153.142,6.18-1.852.905-1.758-.9-3.787-.714-5.756.229-2.424,3.089-3.453,5.293-4.488,7.6-3.566,11.207-13.8,7.524-21.339-2.182-4.47-6.476-7.989-7.269-12.9-.61-3.778.879-8.184-1.53-11.158-1.225-1.513-3.3-2.348-4.029-4.153-.459-1.136-.274-2.425-.521-3.626s-1.294-2.456-2.48-2.145c-3.441.9-4.538,11.532-6.38,14.114C983.251,582.059,977.5,579.473,978.384,574.637Z" transform="translate(-361.832 -332.175)" fill="#3f3d56"/>
      <path id="Path_10502" data-name="Path 10502" d="M912.823,547.624a5.539,5.539,0,0,0-3.586-.183c-1.127.471-1.785,2.125-.88,2.946,7.074-.276,14.191-.549,21.2.411,8.081,1.107,16.078,3.848,24.194,3.042a123.119,123.119,0,0,0-14.114-3.275l-7.945-1.518a61.453,61.453,0,0,0-6.452-1C920.711,547.675,917.28,548.873,912.823,547.624Z" transform="translate(-359.867 -326.505)" fill="#3f3d56"/>
      <path id="Path_10503" data-name="Path 10503" d="M922.56,506.255c-.587-.049-1.315-.091-1.618.414-.29.482.042,1.12-.114,1.661-.213.739-1.181.928-1.944.827a3.724,3.724,0,0,0-2.263.026,1.918,1.918,0,0,0-.742,2.179,5.609,5.609,0,0,0,1.308,2.085,21.3,21.3,0,0,0,3.393,3.4c2.431,1.794,5.725,2.659,7.256,5.264a3.494,3.494,0,0,0,.969,1.3,2.693,2.693,0,0,0,2.485-.25l2.774-1.268a3.152,3.152,0,0,0,1.3-.882c.634-.86.244-2.083-.288-3.009a5.172,5.172,0,0,1-1.1-2.947c.2-1.894,2.639-2.618,3.64-4.239s.352-3.738.469-5.654c.136-2.241,1.544-5.157-.721-6.831-1.926-1.423-3.766-.108-5.149,1.463C929.3,503.114,927.92,506.7,922.56,506.255Z" transform="translate(-362.523 -309.772)" fill="#3f3d56"/>
      <path id="Path_10504" data-name="Path 10504" d="M951.207,456.674c.947,1.814,2.922,2.9,3.954,4.662,1.12,1.914.992,4.388,2.207,6.243,1.246,1.9,3.753,2.914,4.452,5.08.763,2.364-.968,5.237.412,7.3a3.065,3.065,0,0,0,4.5.413,3.3,3.3,0,0,0-.136-4.6c-.817-.745-1.99-1.067-2.672-1.937a4.066,4.066,0,0,1-.692-1.685,11.031,11.031,0,0,1,.173-5.287,2.353,2.353,0,0,0,.133-1.383c-.307-.893-1.516-.956-2.364-1.37-1.927-.94-1.88-3.659-1.543-5.777-.224,1.41-5.245-.988-5.771-1.786-1.045-1.586-.476-4.646-.683-6.4A4.982,4.982,0,0,0,951.207,456.674Z" transform="translate(-374.329 -293.681)" fill="#3f3d56"/>
      <path id="Path_10505" data-name="Path 10505" d="M872.7,501.312c-.927-1.037-2.323-2.123-3.565-1.5a2.257,2.257,0,0,0-.837,2.783,6.126,6.126,0,0,0,2.022,2.41c2.589,2.136,5.378,4.063,7.637,6.545,4.042,4.442,6.184,10.437,10.58,14.529a5.934,5.934,0,0,0,3.331,1.8,2.589,2.589,0,0,0,2.866-1.979,3.772,3.772,0,0,0-1.33-2.775c-1.708-1.858-3.577-3.567-5.19-5.508a4.629,4.629,0,0,1-1.327-2.771c-.008-1.045.945-2.139,1.957-1.88-1.231-.315-2.145-2.366-3.952-2.752-1.51-.322-1.876.613-3.674-.158C877.79,508.592,875.1,504,872.7,501.312Z" transform="translate(-346.407 -310.415)" fill="#3f3d56"/>
      <path id="Path_10506" data-name="Path 10506" d="M987.483,348.908a28.372,28.372,0,0,1-2.9-1.035c-2.546-.764-5.914,1.107-5.575,3.743.226,1.751,1.856,2.932,2.756,4.452,1.335,2.253.979,5.111.278,7.634a5.967,5.967,0,0,1-.963,2.172,7.356,7.356,0,0,1-2.281,1.641,30.514,30.514,0,0,0-8.928,7.585,2.187,2.187,0,0,0-.539,1.016c-.121.89.773,1.538,1.279,2.281,1.124,1.649.311,3.868.423,5.86a1.657,1.657,0,0,0,.7,1.454c.677.344,1.48-.24,1.847-.905,1.218-2.207.3-5.749,2.586-6.813.432-.2.956-.286,1.245-.666.457-.6.016-1.494.248-2.214.348-1.081,1.827-1.13,2.961-1.082a16.808,16.808,0,0,0,5.774-.769,3.843,3.843,0,0,0,1.911-1.107,4.159,4.159,0,0,0,.486-3.149,42.679,42.679,0,0,0-5.042-15.387c2.007.256,4.191.478,5.923-.568.97-.586,2.133-2.338,1.652-3.53C990.564,347.636,989.189,349.223,987.483,348.908Z" transform="translate(-380.629 -259.033)" fill="#3f3d56"/>
      <path id="Path_10507" data-name="Path 10507" d="M565.761,387.215a7.73,7.73,0,0,1,.054,3.886,2.658,2.658,0,0,1-3,1.9c-.973-.3-1.536-1.274-2.227-2.02-3.844-4.15-12.516-1.747-14.891-6.881-.969-2.1-.31-4.605-.971-6.817a6.068,6.068,0,0,0-6.145-4.174,12.625,12.625,0,0,0-3.536,1.056,89.162,89.162,0,0,1-23.429,5.86,19.246,19.246,0,0,0-4.5.819c-3.3,1.2-5.556,4.257-7.161,7.38s-2.79,6.5-4.942,9.278c-2.262,2.916-5.431,4.958-8.387,7.166a8.557,8.557,0,0,0-2.767,2.9,9.07,9.07,0,0,0-.555,4.309l.6,17.765a16.045,16.045,0,0,0,1.2,6.7c1.277,2.553,3.8,4.226,5.55,6.482a12.7,12.7,0,0,1,2.634,8.107c-.037,1.176-.154,2.567.762,3.306a3.351,3.351,0,0,0,1.873.539l24.031,1.967c4.227.346,8.912.915,11.672,4.135,1.3,1.52,2.349,3.706,4.344,3.869a16.146,16.146,0,0,0,2.544-.349c2.16-.171,4.057,1.468,5.254,3.273a14.522,14.522,0,0,1,2.332,9.318c-.2,2.059-.835,4.061-.972,6.126-.524,7.854,6.134,14.678,6.263,22.548.076,4.629-2.122,8.955-4.264,13.06,3.458,5.239.626,12.215,2,18.339,1.306,5.81,6.151,10.359,7.358,16.191.553,2.67.585,5.955,2.939,7.33a6.7,6.7,0,0,0,3.325.666,43.838,43.838,0,0,0,19.963-4.545c2.911-1.445,5.928-3.6,6.436-6.811.41-2.588-.9-5.484.433-7.738,1.574-2.657,5.608-2.447,7.924-4.49,3.758-3.315.828-9.636,2.35-14.41,1.369-4.291,6.08-6.571,8.416-10.422a18.521,18.521,0,0,0,1.956-5.3,75.594,75.594,0,0,0,1.99-13.518,81.042,81.042,0,0,1,.612-8.28c2.518-15.644,17.983-26.119,23-41.147.479-1.435.7-3.347-.572-4.159a3.657,3.657,0,0,0-2.432-.254l-11.078,1.4a7.626,7.626,0,0,1-4.1-.236c-1.264-.572-2.169-2.17-1.5-3.384,1.881-3.408-1.989-7.715-3.708-11.207a165.38,165.38,0,0,0-16.469-26.708,2.715,2.715,0,0,1-.722-1.568l3.144.1c-1.061-3.808-2.813-7.976-6.513-9.369-2.085-.785-4.394-.514-6.618-.392C578.9,389.152,572.067,388.19,565.761,387.215Z" transform="translate(-216.25 -267.621)" fill="#3f3d56"/>
      <path id="Path_10508" data-name="Path 10508" d="M595.7,251.574c1.667,1.771,3.535,3.648,5.948,3.956,4.261.545,7.324-3.861,9.274-7.688a3.757,3.757,0,0,0,3.92,3.475,7.739,7.739,0,0,0,2.948-1.153,58.083,58.083,0,0,1,27.517-7.113,2.972,2.972,0,0,1,2.269-3.267c1.956-.388,3.718,1.3,4.661,3.06s1.532,3.793,3.031,5.107,4.4,1.258,4.993-.646c.568-1.828-1.336-3.387-2.918-4.465s-3.25-3.072-2.184-4.663c8.083-1.789,16.216-3.585,24.486-3.941a10.254,10.254,0,0,0,4.122-.71,3.2,3.2,0,0,0,1.925-3.387,9.334,9.334,0,0,1-9.741-3.674c11.476-.947,23.683-1.754,33.853,3.646,1.22,2.62-5,4.8-3.336,7.163a3.013,3.013,0,0,0,2.516.859c7.068.131,14.176.26,21.164-.807a28.339,28.339,0,0,1,7.7-.624c4.27.527,7.923,3.376,12.124,4.3a6.487,6.487,0,0,0,5.069-.6c1.441-.995,2.061-3.259.88-4.552,3.956-3.877,10.521-2.916,15.739-1.06s10.162,4.849,15.686,5.263c3.961.3,7.977-.769,11.89-.092,2.459.426,4.748,1.52,7.152,2.192,4.546,1.271,9.355,1,14.075,1.064a98.624,98.624,0,0,1,35.146,6.984,10.45,10.45,0,0,1,3.907,2.308,3.831,3.831,0,0,1,.872,4.2l-11.563-1.69c1.089,2.145,3.908,2.51,6.2,3.25s4.662,3.268,3.287,5.241c-2.48-.79-4.728,1.69-5.98,3.971s-2.78,5.014-5.379,5.153c-2.327.124-5.142-1.857-6.659-.088a45.42,45.42,0,0,1,5.351,8.555c1.5,3.122,2.566,7.057.541,9.866a2.558,2.558,0,0,1-1.367,1.06c-1.654.419-2.729-1.605-3.916-2.832-1.5-1.546-3.756-1.984-5.781-2.709s-4.158-2.151-4.316-4.3a8.579,8.579,0,0,1,1.125-3.808,14.672,14.672,0,0,0,1.115-6.581,7.474,7.474,0,0,0-1.921-4.958,3.849,3.849,0,0,0-4.94-.508c-.651.54-1.173,1.405-2.019,1.437-1.494.057-2.641-2.548-3.844-1.659a4.085,4.085,0,0,1-.555,2.732c-3.587,3.12-9.1,1.8-13.723,2.9a25.758,25.758,0,0,0-6.261,2.734,4.029,4.029,0,0,0-1.79,1.5,2.77,2.77,0,0,0,1.077,3.3,8.547,8.547,0,0,0,3.55,1.212c5.638,1.068,11.359,2.721,15.81,6.342s7.371,9.608,5.962,15.171L813.272,291.4q.634,6.691.719,13.42a6.033,6.033,0,0,1-.352,2.581c-.793,1.751-2.941,2.34-4.824,2.726a3.778,3.778,0,0,0-2.9,4.841c.669,2.18,2.337,3.88,3.864,5.574s3.03,3.619,3.23,5.89-1.514,4.832-3.789,4.674c-1.725-.12-3-1.664-3.74-3.228s-1.173-3.307-2.279-4.637c-3.345-4.023-10.86-2.3-13.856-6.589a6.777,6.777,0,0,0-1.4,6.45c1.394-.873,3.3-.062,4.35,1.206s1.542,2.894,2.364,4.319c1.11,1.922,2.877,3.626,3.032,5.84a19.059,19.059,0,0,0,.042,2.512c.275,1.342,1.409,2.3,2.2,3.426,1.829,2.609,1.739,6.194.56,9.154s-3.3,5.434-5.4,7.833a94.483,94.483,0,0,1-11.749,11.833,12.343,12.343,0,0,0-3.335,3.357,3.64,3.64,0,0,0,.375,4.392c-.849.043-2.372.46-3.221.5a74.874,74.874,0,0,1-.194-10.243c-3.35-1.609-6.958,2.7-6.526,6.391s3.1,6.654,5,9.848c1.39,2.335,2.423,5.059,1.959,7.737s-2.855,5.148-5.562,4.912c-4.307-.376-6.108-6.559-10.373-7.266a1.743,1.743,0,0,0-1.122.111c-.633.347-.743,1.195-.779,1.916-.174,3.54-.326,7.221,1.056,10.485,2.022,4.775,7.244,8.785,6.149,13.853-5.9-2.743-8.97-9.362-10.364-15.719s-1.625-13.032-4.123-19.042c-1.9,2.431-5.882.421-7.615-2.129-1.643-2.417-2.654-5.214-4.248-7.664s-4.035-4.644-6.955-4.779c-3.061-.141-5.716,1.959-8.051,3.944-1.92,1.632-3.891,3.328-5.013,5.585-1.633,3.283-1.206,7.154-1.285,10.82-.085,3.963-.925,8.145-3.626,11.046s-7.687,3.912-10.666,1.3c-1.555-1.365-2.309-3.4-2.979-5.363a262.515,262.515,0,0,1-8.066-28.8c-.5,2.224-2.454,5.09-4.319,3.78a3.869,3.869,0,0,1-1-1.282c-3.48-5.9-9.924-9.436-16.436-11.557s-13.362-3.111-19.8-5.442a50.157,50.157,0,0,1-10.272-5.117,8.079,8.079,0,0,0-.494,8.264,6.583,6.583,0,0,0,7.427,3.108c1.43-.457,2.637-1.449,4.056-1.94s3.323-.25,3.943,1.117c.594,1.308-.3,2.891.141,4.257.678,2.08,3.816,2.241,4.913,4.134.816,1.409.145,3.279-1.021,4.416a18.479,18.479,0,0,1-4.144,2.551c-4.617,2.567-7.9,6.95-11.935,10.36s-9.728,5.9-14.536,3.712c1.146-5.8-5.768-10.065-7.04-15.843-.419-1.9-.2-3.922-.8-5.775-.865-2.683-3.246-4.528-5.2-6.562a25.752,25.752,0,0,1-7.063-18.736c.106-2.388.544-4.815,0-7.142s-2.471-4.58-4.859-4.475c-5.454.241-12.325.647-15.186-4-1.021-1.659-1.466-4.09.011-5.361,1.042-.9,2.579-.812,3.947-.678l12.288,1.209c2.874.283,5.981.516,8.447-.986s3.535-5.491,1.251-7.259c-1.669-1.292-4.658-1.222-5.143-3.275-.4-1.71,1.489-3.651.467-5.08-.733-1.025-2.381-.741-3.38.028s-1.723,1.892-2.841,2.474c-1.961,1.021-4.3.049-6.414-.611s-4.938-.716-5.961,1.243c-1.144,2.191,1.015,5.063-.121,7.259-1.5,2.9-6.587,1.25-8.7,3.748-2.42,2.866,1.647,7.138.831,10.8a6.722,6.722,0,0,1-6.623-.372,6.433,6.433,0,0,1-2.78-5.99c.2-1.647,1.061-3.328.485-4.884a5.731,5.731,0,0,0-2.9-2.656l-11.942-6.6c-1.109,2.057.293,4.606,2.046,6.151s3.949,2.708,5.1,4.741a6.223,6.223,0,0,1-2.342,8.2,1.436,1.436,0,0,1-1.184.206,1.651,1.651,0,0,1-.768-1.032c-2.107-5.392-5.27-10.708-10.328-13.525s-12.325-2.238-15.641,2.507c-.788,1.127-1.316,2.412-2,3.6-3.646,6.33-11.462,9.328-18.765,9.132a3.727,3.727,0,0,1-2.047-.481c-1.18-.815-1.127-2.545-.946-3.968l.767-6.038a4.8,4.8,0,0,1,1.337-3.31c1.353-1.067,3.3-.394,5.027-.418a6.371,6.371,0,0,0,5.783-4.463,7.18,7.18,0,0,0-2-7.14c-.79-.742-1.849-1.673-1.432-2.673a2.21,2.21,0,0,1,1.55-1.044c3.095-.9,6.365-1.134,9.408-2.195s5.994-3.23,6.715-6.371c.221-.963.321-2.129,1.186-2.606a3.556,3.556,0,0,1,1.371-.28,6.669,6.669,0,0,0,5.721-6.953c1.458-1.019,3.5-.269,4.912.814s2.657,2.516,4.373,2.983c3.2.871,6.291-1.962,9.607-1.975,1.394-.005,2.838.488,4.149.015,1.33-.479,2.124-1.8,3.144-2.781s2.811-1.574,3.754-.521l-.8-5.944a11.686,11.686,0,0,0,9.51-1.719l-10.372-3.5a2.255,2.255,0,0,1-.97-.519c-.754-.812-.005-2.077.608-3,1.467-2.208,1.713-5.845-.7-6.945-1.647-.75-3.536.15-5.117,1.032l-7.57,4.221c-.241,1.439,1.519,2.254,2.609,3.224a4.375,4.375,0,0,1-2.853,7.645,5.452,5.452,0,0,1,.974,4.622l-5.093.366a2.206,2.206,0,0,1-1.652-.322c-.545-.484-.471-1.332-.6-2.049a4.447,4.447,0,0,0-3.731-3.257,13.123,13.123,0,0,0-5.215.482,3.113,3.113,0,0,1-2.242-.052,2.238,2.238,0,0,1-.887-1.119,5.751,5.751,0,0,1,1.158-5.521,30.641,30.641,0,0,1,4.342-3.994,25.309,25.309,0,0,0,7.526-11.673c2.8-1.175,5.707-2.771,8.51-3.946a26.042,26.042,0,0,1,14-2.712l9.5.181c2.811.054,5.7.123,8.3,1.194s4.884,3.39,5.063,6.2a1.9,1.9,0,0,1-.609,1.739,2.243,2.243,0,0,1-1.2.271C599.444,250.828,598.326,251.482,595.7,251.574Z" transform="translate(-226.678 -217.799)" fill="#3f3d56"/>
      <path id="Path_10509" data-name="Path 10509" d="M518.986,308.117a2.779,2.779,0,0,0,.758-2.795,5.2,5.2,0,0,0-5.382,1.016,9.075,9.075,0,0,0-1.442,1.906c-1.248,2.036-2.351,4.467-1.628,6.743a1.915,1.915,0,0,0,.877,1.2,2.3,2.3,0,0,0,1.022.16,34.249,34.249,0,0,0,4.112-.253c.838-.1,1.811-.339,2.135-1.119.426-1.025-.6-2.184-.3-3.253a3.553,3.553,0,0,1,.877-1.257,1.661,1.661,0,0,0,.517-1.395c-.121-.5-.889-.786-1.165-.35" transform="translate(-225.646 -244.583)" fill="#3f3d56"/>
      <path id="Path_10510" data-name="Path 10510" d="M531.164,295.61a11.5,11.5,0,0,0-3.726-.234,1.625,1.625,0,0,0-.794.18,1.324,1.324,0,0,0-.489.709,3.52,3.52,0,0,0,2.05,4.314,4.407,4.407,0,0,1,1.271.511c1.054.818.382,2.489.582,3.808.224,1.481,1.658,2.724,1.395,4.2-.207,1.162-1.448,2.082-1.248,3.245.209,1.218,1.755,1.584,2.987,1.682a3.757,3.757,0,0,0,2.116-.243,3.277,3.277,0,0,0,1.335-1.934,12.4,12.4,0,0,0,.624-4.667,4.426,4.426,0,0,0-.526-2.06,11.5,11.5,0,0,0-1.23-1.408C533.149,300.966,535.635,296.87,531.164,295.61Z" transform="translate(-230.697 -241.318)" fill="#3f3d56"/>
    </g>
    <g id="undraw_inspection_9phc" transform="translate(6752.955 -1590.926)">
      <ellipse id="Ellipse_752" data-name="Ellipse 752" cx="4.269" cy="4.269" rx="4.269" ry="4.269" transform="translate(224.571 250.963)" fill="#6c63ff"/>
      <path id="Path_10602" data-name="Path 10602" d="M402.569,561.511c1.387-.381,2.774-.8,4.122-1.234l-.441-1.354c-1.326.432-2.692.841-4.058,1.215Z" transform="translate(-189.317 -299.384)" fill="#3f3d56"/>
      <path id="Path_10603" data-name="Path 10603" d="M577.758,540.828l.031-1.423c-2.85-.062-5.7-.2-8.466-.425l-.113,1.419C572.005,540.621,574.881,540.765,577.758,540.828Zm8.555-.044c2.814-.089,5.687-.254,8.539-.489l-.117-1.419c-2.827.234-5.676.4-8.466.486Zm-25.612-1.32.2-1.409c-2.825-.4-5.632-.891-8.343-1.461l-.292,1.392C555.006,538.564,557.844,539.06,560.7,539.465Zm42.653-.083c2.952-.387,5.8-.842,8.45-1.352l-.268-1.4c-2.627.505-5.443.955-8.368,1.34Zm-59.4-3.453.392-1.367c-2.737-.785-5.44-1.675-8.035-2.645l-.5,1.333c2.63.984,5.369,1.885,8.142,2.68Zm-16.04-6.018.61-1.285c-2.561-1.214-5.072-2.547-7.463-3.96l-.724,1.226c2.428,1.435,4.978,2.787,7.577,4.02Zm-14.747-8.732.838-1.151c-1-.725-1.988-1.483-2.951-2.251-1.18-.942-2.4-1.967-3.625-3.049l-.941,1.067c1.243,1.1,2.481,2.138,3.679,3.093C511.139,519.671,512.149,520.441,513.161,521.179Zm-12.908-11.252,1-1.009c-2.078-2.065-4.156-4.222-5.941-6.081l-1.027.985C496.079,505.687,498.164,507.851,500.252,509.926ZM488.376,497.7l1.014-1c-2.308-2.347-4.255-4.244-6.125-5.97l-.964,1.046C484.153,493.488,486.084,495.37,488.376,497.7Zm-12.513-11.4.871-1.126a68.35,68.35,0,0,0-7.1-4.846l-.724,1.225a66.87,66.87,0,0,1,6.952,4.747Zm-14.482-8.48.538-1.317a66.384,66.384,0,0,0-8.164-2.714l-.363,1.376a65.005,65.005,0,0,1,7.989,2.656Zm-16.252-4.35.214-1.407c-2.686-.408-5.553-.717-8.524-.918l-.1,1.42C439.654,472.764,442.482,473.068,445.128,473.471Zm-25.36-1.072c2.65-.092,5.058-.136,7.364-.136l1.123,0,.01-1.423-1.132,0c-2.322,0-4.747.045-7.413.137Z" transform="translate(-406.899 -273.973)" fill="#3f3d56"/>
      <path id="Path_10604" data-name="Path 10604" d="M701.681,473.28q2.122-.131,4.259-.256l-.082-1.421q-2.139.123-4.264.256Z" transform="translate(-701.593 -261.938)" fill="#3f3d56"/>
      <path id="Path_10605" data-name="Path 10605" d="M310.224,441.367q.808-1.973,1.632-3.938l-1.312-.551q-.828,1.971-1.636,3.95Z" transform="translate(-28.107 -247.818)" fill="#3f3d56"/>
      <path id="Path_10606" data-name="Path 10606" d="M317.062,511.064a91.347,91.347,0,0,0,6-7.048l-1.128-.868a89.867,89.867,0,0,1-5.91,6.938Zm11.325-14.612c1.6-2.476,3.19-5.145,4.734-7.933l-1.245-.689c-1.529,2.76-3.1,5.4-4.685,7.851Zm8.984-16.124c1.291-2.651,2.556-5.388,3.865-8.369l-1.3-.573c-1.3,2.963-2.559,5.684-3.842,8.318Zm7.446-16.853q1.577-3.874,3.134-7.789l.3-.741-1.321-.529-.3.741q-1.562,3.9-3.131,7.78Z" transform="translate(-69.565 -269.235)" fill="#3f3d56"/>
      <path id="Path_10607" data-name="Path 10607" d="M370.191,545.162c1.151-.843,2.295-1.735,3.4-2.652l-.91-1.1c-1.081.9-2.2,1.773-3.33,2.6Z" transform="translate(-132.848 -294.333)" fill="#3f3d56"/>
      <path id="Path_10608" data-name="Path 10608" d="M177.979,359.856l.9-1.1a37.789,37.789,0,0,0-3.526-2.546l-.765,1.2a36.425,36.425,0,0,1,3.393,2.45Z" transform="translate(200.443 -213.991)" fill="#3f3d56"/>
      <path id="Path_10609" data-name="Path 10609" d="M192.717,384.05c1.685-2.673,3.445-5.224,5.231-7.582l-1.134-.86c-1.811,2.391-3.6,4.976-5.3,7.683Zm11.144-14.63c.708-.76,1.437-1.514,2.168-2.241,1.41-1.4,2.926-2.768,4.5-4.052l-.9-1.1c-1.615,1.314-3.166,2.71-4.61,4.147-.743.739-1.485,1.506-2.205,2.279Zm14.18-11.553a65.721,65.721,0,0,1,8.173-4.158l-.554-1.31a67.127,67.127,0,0,0-8.351,4.249Zm43.888-6.788.45-1.35a42.7,42.7,0,0,0-9.212-1.944l-.142,1.416A41.268,41.268,0,0,1,261.929,351.078Zm-27.04-.321a56.171,56.171,0,0,1,9.012-1.579l-.128-1.417a57.66,57.66,0,0,0-9.24,1.618Z" transform="translate(104.899 -213.909)" fill="#3f3d56"/>
      <path id="Path_10610" data-name="Path 10610" d="M297.217,413.49c.652-1.291,1.313-2.559,1.965-3.77l-1.254-.674c-.657,1.221-1.323,2.5-1.981,3.8Z" transform="translate(-6.211 -236.171)" fill="#3f3d56"/>
      <path id="Path_10611" data-name="Path 10611" d="M158.771,376.254a5.692,5.692,0,1,0-5.692-5.692,5.692,5.692,0,0,0,5.692,5.692Zm0-9.961a4.269,4.269,0,1,1-4.269,4.269A4.269,4.269,0,0,1,158.771,366.293Z" transform="translate(230.161 -218.419)" fill="#3f3d56"/>
      <path id="Path_10612" data-name="Path 10612" d="M302.771,430.254a5.692,5.692,0,1,0-5.692-5.692A5.692,5.692,0,0,0,302.771,430.254Zm0-9.961a4.269,4.269,0,1,1-4.269,4.269A4.269,4.269,0,0,1,302.771,420.293Z" transform="translate(-16.298 -241.16)" fill="#3f3d56"/>
      <path id="Path_10613" data-name="Path 10613" d="M383.771,556.254a5.692,5.692,0,1,0-5.692-5.692A5.692,5.692,0,0,0,383.771,556.254Zm0-9.961a4.269,4.269,0,1,1-4.269,4.269,4.269,4.269,0,0,1,4.269-4.269Z" transform="translate(-154.931 -295.33)" fill="#3f3d56"/>
      <rect id="Rectangle_2787" data-name="Rectangle 2787" width="1.423" height="4.269" transform="translate(226.706 237.444)" fill="#3f3d56"/>
      <path id="Path_10614" data-name="Path 10614" d="M387.079,420.377H388.5v-5.933h-1.423Zm0-11.866H388.5v-5.933h-1.423Zm0-11.866H388.5v-5.933h-1.423Zm0-11.866H388.5v-5.933h-1.423Zm0-11.866H388.5V366.98h-1.423Zm0-11.866H388.5v-5.933h-1.423Zm0-11.866H388.5v-5.933h-1.423Zm0-11.866H388.5v-5.933h-1.423Zm0-11.866H388.5v-5.933h-1.423Z" transform="translate(-160.373 -191.169)" fill="#3f3d56"/>
      <path id="Path_10615" data-name="Path 10615" d="M385.337,289.87a43.006,43.006,0,0,1-6.768,12.163l6.768-2.448,6.766,2.448A42.969,42.969,0,0,1,385.337,289.87Z" transform="translate(-157.92 -170.259)" fill="#3f3d56"/>
      <path id="Path_10616" data-name="Path 10616" d="M317.079,225.712H417.4V111.87H317.079Zm98.9-1.423H318.5v-111h97.478Z" transform="translate(-139.468 -111.87)" fill="#3f3d56"/>
      <rect id="Rectangle_2789" data-name="Rectangle 2789" width="21.345" height="21.345" transform="translate(250.186 19.211)" fill="#6c63ff"/>
      <path id="Path_10617" data-name="Path 10617" d="M330.079,153.638h22.769V130.87H330.079Zm21.346-1.423H331.5V132.293h19.922Z" transform="translate(-84.162 -117.351)" fill="#3f3d56"/>
      <rect id="Rectangle_2790" data-name="Rectangle 2790" width="29.172" height="1.423" transform="translate(195.399 22.057)" fill="#3f3d56"/>
      <rect id="Rectangle_2791" data-name="Rectangle 2791" width="29.172" height="1.423" transform="translate(195.399 27.749)" fill="#3f3d56"/>
      <rect id="Rectangle_2792" data-name="Rectangle 2792" width="72.575" height="1.423" transform="translate(195.399 49.446)" fill="#3f3d56"/>
      <rect id="Rectangle_2793" data-name="Rectangle 2793" width="72.575" height="1.423" transform="translate(195.399 58.224)" fill="#3f3d56"/>
      <rect id="Rectangle_2794" data-name="Rectangle 2794" width="72.575" height="1.423" transform="translate(195.399 54.213)" fill="#3f3d56"/>
      <rect id="Rectangle_2795" data-name="Rectangle 2795" width="72.575" height="1.423" transform="translate(195.399 62.537)" fill="#3f3d56"/>
      <rect id="Rectangle_2796" data-name="Rectangle 2796" width="72.575" height="1.423" transform="translate(195.399 67.535)" fill="#3f3d56"/>
      <rect id="Rectangle_2797" data-name="Rectangle 2797" width="72.575" height="1.423" transform="translate(195.399 71.701)" fill="#3f3d56"/>
    </g>
    <g id="undraw_server_cluster_jwwq的副本" transform="translate(6542.163 -1180.361)">
      <rect id="Rectangle_2699" data-name="Rectangle 2699" width="877.967" height="1.17" transform="translate(0 0)" fill="#3f3d56"/>
    </g>
    <g id="undraw_file_analysis_8k9b" transform="translate(6527 -1580.164)">
      <ellipse id="Ellipse_641" data-name="Ellipse 641" cx="3.987" cy="3.987" rx="3.987" ry="3.987" transform="translate(0 0)" fill="#e6e6e6"/>
      <ellipse id="Ellipse_642" data-name="Ellipse 642" cx="3.987" cy="3.987" rx="3.987" ry="3.987" transform="translate(20.183 0)" fill="#e6e6e6"/>
      <ellipse id="Ellipse_643" data-name="Ellipse 643" cx="3.987" cy="3.987" rx="3.987" ry="3.987" transform="translate(40.366 0)" fill="#e6e6e6"/>
      <ellipse id="Ellipse_644" data-name="Ellipse 644" cx="3.987" cy="3.987" rx="3.987" ry="3.987" transform="translate(60.548 0)" fill="#e6e6e6"/>
      <ellipse id="Ellipse_645" data-name="Ellipse 645" cx="3.987" cy="3.987" rx="3.987" ry="3.987" transform="translate(80.731 0)" fill="#e6e6e6"/>
      <ellipse id="Ellipse_646" data-name="Ellipse 646" cx="3.987" cy="3.987" rx="3.987" ry="3.987" transform="translate(100.914 0)" fill="#e6e6e6"/>
      <ellipse id="Ellipse_647" data-name="Ellipse 647" cx="3.987" cy="3.987" rx="3.987" ry="3.987" transform="translate(121.097 0)" fill="#e6e6e6"/>
      <ellipse id="Ellipse_648" data-name="Ellipse 648" cx="3.987" cy="3.987" rx="3.987" ry="3.987" transform="translate(141.28 0)" fill="#e6e6e6"/>
      <ellipse id="Ellipse_649" data-name="Ellipse 649" cx="3.987" cy="3.987" rx="3.987" ry="3.987" transform="translate(161.463 0)" fill="#e6e6e6"/>
      <ellipse id="Ellipse_650" data-name="Ellipse 650" cx="3.987" cy="3.987" rx="3.987" ry="3.987" transform="translate(181.645 0)" fill="#e6e6e6"/>
      <ellipse id="Ellipse_651" data-name="Ellipse 651" cx="3.987" cy="3.987" rx="3.987" ry="3.987" transform="translate(0 20.436)" fill="#e6e6e6"/>
      <ellipse id="Ellipse_652" data-name="Ellipse 652" cx="3.987" cy="3.987" rx="3.987" ry="3.987" transform="translate(20.183 20.436)" fill="#e6e6e6"/>
      <ellipse id="Ellipse_653" data-name="Ellipse 653" cx="3.987" cy="3.987" rx="3.987" ry="3.987" transform="translate(40.366 20.436)" fill="#e6e6e6"/>
      <ellipse id="Ellipse_654" data-name="Ellipse 654" cx="3.987" cy="3.987" rx="3.987" ry="3.987" transform="translate(60.548 20.436)" fill="#6c63ff"/>
      <ellipse id="Ellipse_655" data-name="Ellipse 655" cx="3.987" cy="3.987" rx="3.987" ry="3.987" transform="translate(80.731 20.436)" fill="#e6e6e6"/>
      <ellipse id="Ellipse_656" data-name="Ellipse 656" cx="3.987" cy="3.987" rx="3.987" ry="3.987" transform="translate(100.914 20.436)" fill="#e6e6e6"/>
      <ellipse id="Ellipse_657" data-name="Ellipse 657" cx="3.987" cy="3.987" rx="3.987" ry="3.987" transform="translate(121.097 20.436)" fill="#e6e6e6"/>
      <ellipse id="Ellipse_658" data-name="Ellipse 658" cx="3.987" cy="3.987" rx="3.987" ry="3.987" transform="translate(141.28 20.436)" fill="#e6e6e6"/>
      <ellipse id="Ellipse_659" data-name="Ellipse 659" cx="3.987" cy="3.987" rx="3.987" ry="3.987" transform="translate(161.463 20.436)" fill="#e6e6e6"/>
      <ellipse id="Ellipse_660" data-name="Ellipse 660" cx="3.987" cy="3.987" rx="3.987" ry="3.987" transform="translate(181.645 20.436)" fill="#e6e6e6"/>
      <ellipse id="Ellipse_661" data-name="Ellipse 661" cx="3.987" cy="3.987" rx="3.987" ry="3.987" transform="translate(0 40.872)" fill="#e6e6e6"/>
      <ellipse id="Ellipse_662" data-name="Ellipse 662" cx="3.987" cy="3.987" rx="3.987" ry="3.987" transform="translate(20.183 40.872)" fill="#e6e6e6"/>
      <ellipse id="Ellipse_663" data-name="Ellipse 663" cx="3.987" cy="3.987" rx="3.987" ry="3.987" transform="translate(40.366 40.872)" fill="#e6e6e6"/>
      <ellipse id="Ellipse_664" data-name="Ellipse 664" cx="3.987" cy="3.987" rx="3.987" ry="3.987" transform="translate(60.548 40.872)" fill="#e6e6e6"/>
      <ellipse id="Ellipse_665" data-name="Ellipse 665" cx="3.987" cy="3.987" rx="3.987" ry="3.987" transform="translate(80.731 40.872)" fill="#e6e6e6"/>
      <ellipse id="Ellipse_666" data-name="Ellipse 666" cx="3.987" cy="3.987" rx="3.987" ry="3.987" transform="translate(100.914 40.872)" fill="#e6e6e6"/>
      <ellipse id="Ellipse_667" data-name="Ellipse 667" cx="3.987" cy="3.987" rx="3.987" ry="3.987" transform="translate(121.097 40.872)" fill="#e6e6e6"/>
      <ellipse id="Ellipse_668" data-name="Ellipse 668" cx="3.987" cy="3.987" rx="3.987" ry="3.987" transform="translate(141.28 40.872)" fill="#e6e6e6"/>
      <ellipse id="Ellipse_669" data-name="Ellipse 669" cx="3.987" cy="3.987" rx="3.987" ry="3.987" transform="translate(161.463 40.872)" fill="#e6e6e6"/>
      <ellipse id="Ellipse_670" data-name="Ellipse 670" cx="3.987" cy="3.987" rx="3.987" ry="3.987" transform="translate(181.645 40.872)" fill="#e6e6e6"/>
      <ellipse id="Ellipse_671" data-name="Ellipse 671" cx="3.987" cy="3.987" rx="3.987" ry="3.987" transform="translate(0 61.308)" fill="#e6e6e6"/>
      <ellipse id="Ellipse_672" data-name="Ellipse 672" cx="3.987" cy="3.987" rx="3.987" ry="3.987" transform="translate(20.183 61.308)" fill="#e6e6e6"/>
      <ellipse id="Ellipse_673" data-name="Ellipse 673" cx="3.987" cy="3.987" rx="3.987" ry="3.987" transform="translate(40.366 61.308)" fill="#e6e6e6"/>
      <ellipse id="Ellipse_674" data-name="Ellipse 674" cx="3.987" cy="3.987" rx="3.987" ry="3.987" transform="translate(60.548 61.308)" fill="#e6e6e6"/>
      <ellipse id="Ellipse_675" data-name="Ellipse 675" cx="3.987" cy="3.987" rx="3.987" ry="3.987" transform="translate(80.731 61.308)" fill="#e6e6e6"/>
      <ellipse id="Ellipse_676" data-name="Ellipse 676" cx="3.987" cy="3.987" rx="3.987" ry="3.987" transform="translate(100.914 61.308)" fill="#e6e6e6"/>
      <ellipse id="Ellipse_677" data-name="Ellipse 677" cx="3.987" cy="3.987" rx="3.987" ry="3.987" transform="translate(121.097 61.308)" fill="#e6e6e6"/>
      <ellipse id="Ellipse_678" data-name="Ellipse 678" cx="3.987" cy="3.987" rx="3.987" ry="3.987" transform="translate(141.28 61.308)" fill="#e6e6e6"/>
      <ellipse id="Ellipse_679" data-name="Ellipse 679" cx="3.987" cy="3.987" rx="3.987" ry="3.987" transform="translate(161.463 61.308)" fill="#e6e6e6"/>
      <ellipse id="Ellipse_680" data-name="Ellipse 680" cx="3.987" cy="3.987" rx="3.987" ry="3.987" transform="translate(181.645 61.308)" fill="#e6e6e6"/>
      <ellipse id="Ellipse_681" data-name="Ellipse 681" cx="3.987" cy="3.987" rx="3.987" ry="3.987" transform="translate(0 81.745)" fill="#e6e6e6"/>
      <ellipse id="Ellipse_682" data-name="Ellipse 682" cx="3.987" cy="3.987" rx="3.987" ry="3.987" transform="translate(20.183 81.745)" fill="#6c63ff"/>
      <ellipse id="Ellipse_683" data-name="Ellipse 683" cx="3.987" cy="3.987" rx="3.987" ry="3.987" transform="translate(40.366 81.745)" fill="#e6e6e6"/>
      <ellipse id="Ellipse_684" data-name="Ellipse 684" cx="3.987" cy="3.987" rx="3.987" ry="3.987" transform="translate(60.548 81.745)" fill="#e6e6e6"/>
      <ellipse id="Ellipse_685" data-name="Ellipse 685" cx="3.987" cy="3.987" rx="3.987" ry="3.987" transform="translate(80.731 81.745)" fill="#e6e6e6"/>
      <ellipse id="Ellipse_686" data-name="Ellipse 686" cx="3.987" cy="3.987" rx="3.987" ry="3.987" transform="translate(100.914 81.745)" fill="#e6e6e6"/>
      <ellipse id="Ellipse_687" data-name="Ellipse 687" cx="3.987" cy="3.987" rx="3.987" ry="3.987" transform="translate(121.097 81.745)" fill="#e6e6e6"/>
      <ellipse id="Ellipse_688" data-name="Ellipse 688" cx="3.987" cy="3.987" rx="3.987" ry="3.987" transform="translate(141.28 81.745)" fill="#e6e6e6"/>
      <ellipse id="Ellipse_689" data-name="Ellipse 689" cx="3.987" cy="3.987" rx="3.987" ry="3.987" transform="translate(161.463 81.745)" fill="#e6e6e6"/>
      <ellipse id="Ellipse_690" data-name="Ellipse 690" cx="3.987" cy="3.987" rx="3.987" ry="3.987" transform="translate(181.645 81.745)" fill="#e6e6e6"/>
      <ellipse id="Ellipse_691" data-name="Ellipse 691" cx="3.987" cy="3.987" rx="3.987" ry="3.987" transform="translate(0 102.181)" fill="#e6e6e6"/>
      <ellipse id="Ellipse_692" data-name="Ellipse 692" cx="3.987" cy="3.987" rx="3.987" ry="3.987" transform="translate(20.183 102.181)" fill="#e6e6e6"/>
      <ellipse id="Ellipse_693" data-name="Ellipse 693" cx="3.987" cy="3.987" rx="3.987" ry="3.987" transform="translate(40.366 102.181)" fill="#e6e6e6"/>
      <ellipse id="Ellipse_694" data-name="Ellipse 694" cx="3.987" cy="3.987" rx="3.987" ry="3.987" transform="translate(60.548 102.181)" fill="#e6e6e6"/>
      <ellipse id="Ellipse_695" data-name="Ellipse 695" cx="3.987" cy="3.987" rx="3.987" ry="3.987" transform="translate(80.731 102.181)" fill="#e6e6e6"/>
      <ellipse id="Ellipse_696" data-name="Ellipse 696" cx="3.987" cy="3.987" rx="3.987" ry="3.987" transform="translate(100.914 102.181)" fill="#e6e6e6"/>
      <ellipse id="Ellipse_697" data-name="Ellipse 697" cx="3.987" cy="3.987" rx="3.987" ry="3.987" transform="translate(121.097 102.181)" fill="#e6e6e6"/>
      <ellipse id="Ellipse_698" data-name="Ellipse 698" cx="3.987" cy="3.987" rx="3.987" ry="3.987" transform="translate(141.28 102.181)" fill="#e6e6e6"/>
      <ellipse id="Ellipse_699" data-name="Ellipse 699" cx="3.987" cy="3.987" rx="3.987" ry="3.987" transform="translate(161.463 102.181)" fill="#e6e6e6"/>
      <ellipse id="Ellipse_700" data-name="Ellipse 700" cx="3.987" cy="3.987" rx="3.987" ry="3.987" transform="translate(181.645 102.181)" fill="#e6e6e6"/>
      <ellipse id="Ellipse_701" data-name="Ellipse 701" cx="3.987" cy="3.987" rx="3.987" ry="3.987" transform="translate(0 122.617)" fill="#e6e6e6"/>
      <ellipse id="Ellipse_702" data-name="Ellipse 702" cx="3.987" cy="3.987" rx="3.987" ry="3.987" transform="translate(20.183 122.617)" fill="#e6e6e6"/>
      <ellipse id="Ellipse_703" data-name="Ellipse 703" cx="3.987" cy="3.987" rx="3.987" ry="3.987" transform="translate(40.366 122.617)" fill="#6c63ff"/>
      <ellipse id="Ellipse_704" data-name="Ellipse 704" cx="3.987" cy="3.987" rx="3.987" ry="3.987" transform="translate(60.548 122.617)" fill="#e6e6e6"/>
      <ellipse id="Ellipse_705" data-name="Ellipse 705" cx="3.987" cy="3.987" rx="3.987" ry="3.987" transform="translate(80.731 122.617)" fill="#e6e6e6"/>
      <ellipse id="Ellipse_706" data-name="Ellipse 706" cx="3.987" cy="3.987" rx="3.987" ry="3.987" transform="translate(100.914 122.617)" fill="#e6e6e6"/>
      <ellipse id="Ellipse_707" data-name="Ellipse 707" cx="3.987" cy="3.987" rx="3.987" ry="3.987" transform="translate(121.097 122.617)" fill="#e6e6e6"/>
      <ellipse id="Ellipse_708" data-name="Ellipse 708" cx="3.987" cy="3.987" rx="3.987" ry="3.987" transform="translate(141.28 122.617)" fill="#e6e6e6"/>
      <ellipse id="Ellipse_709" data-name="Ellipse 709" cx="3.987" cy="3.987" rx="3.987" ry="3.987" transform="translate(161.463 122.617)" fill="#e6e6e6"/>
      <ellipse id="Ellipse_710" data-name="Ellipse 710" cx="3.987" cy="3.987" rx="3.987" ry="3.987" transform="translate(181.645 122.617)" fill="#e6e6e6"/>
      <ellipse id="Ellipse_711" data-name="Ellipse 711" cx="3.987" cy="3.987" rx="3.987" ry="3.987" transform="translate(0 143.053)" fill="#e6e6e6"/>
      <ellipse id="Ellipse_712" data-name="Ellipse 712" cx="3.987" cy="3.987" rx="3.987" ry="3.987" transform="translate(20.183 143.053)" fill="#e6e6e6"/>
      <ellipse id="Ellipse_713" data-name="Ellipse 713" cx="3.987" cy="3.987" rx="3.987" ry="3.987" transform="translate(40.366 143.053)" fill="#e6e6e6"/>
      <ellipse id="Ellipse_714" data-name="Ellipse 714" cx="3.987" cy="3.987" rx="3.987" ry="3.987" transform="translate(60.548 143.053)" fill="#e6e6e6"/>
      <ellipse id="Ellipse_715" data-name="Ellipse 715" cx="3.987" cy="3.987" rx="3.987" ry="3.987" transform="translate(80.731 143.053)" fill="#e6e6e6"/>
      <ellipse id="Ellipse_716" data-name="Ellipse 716" cx="3.987" cy="3.987" rx="3.987" ry="3.987" transform="translate(100.914 143.053)" fill="#e6e6e6"/>
      <ellipse id="Ellipse_717" data-name="Ellipse 717" cx="3.987" cy="3.987" rx="3.987" ry="3.987" transform="translate(121.097 143.053)" fill="#e6e6e6"/>
      <ellipse id="Ellipse_718" data-name="Ellipse 718" cx="3.987" cy="3.987" rx="3.987" ry="3.987" transform="translate(141.28 143.053)" fill="#e6e6e6"/>
      <ellipse id="Ellipse_719" data-name="Ellipse 719" cx="3.987" cy="3.987" rx="3.987" ry="3.987" transform="translate(161.463 143.053)" fill="#e6e6e6"/>
      <ellipse id="Ellipse_720" data-name="Ellipse 720" cx="3.987" cy="3.987" rx="3.987" ry="3.987" transform="translate(181.645 143.053)" fill="#e6e6e6"/>
      <ellipse id="Ellipse_721" data-name="Ellipse 721" cx="3.987" cy="3.987" rx="3.987" ry="3.987" transform="translate(0 163.489)" fill="#e6e6e6"/>
      <ellipse id="Ellipse_722" data-name="Ellipse 722" cx="3.987" cy="3.987" rx="3.987" ry="3.987" transform="translate(20.183 163.489)" fill="#e6e6e6"/>
      <ellipse id="Ellipse_723" data-name="Ellipse 723" cx="3.987" cy="3.987" rx="3.987" ry="3.987" transform="translate(40.366 163.489)" fill="#e6e6e6"/>
      <ellipse id="Ellipse_724" data-name="Ellipse 724" cx="3.987" cy="3.987" rx="3.987" ry="3.987" transform="translate(60.548 163.489)" fill="#e6e6e6"/>
      <ellipse id="Ellipse_725" data-name="Ellipse 725" cx="3.987" cy="3.987" rx="3.987" ry="3.987" transform="translate(80.731 163.489)" fill="#e6e6e6"/>
      <ellipse id="Ellipse_726" data-name="Ellipse 726" cx="3.987" cy="3.987" rx="3.987" ry="3.987" transform="translate(100.914 163.489)" fill="#e6e6e6"/>
      <ellipse id="Ellipse_727" data-name="Ellipse 727" cx="3.987" cy="3.987" rx="3.987" ry="3.987" transform="translate(121.097 163.489)" fill="#e6e6e6"/>
      <ellipse id="Ellipse_728" data-name="Ellipse 728" cx="3.987" cy="3.987" rx="3.987" ry="3.987" transform="translate(141.28 163.489)" fill="#e6e6e6"/>
      <ellipse id="Ellipse_729" data-name="Ellipse 729" cx="3.987" cy="3.987" rx="3.987" ry="3.987" transform="translate(161.463 163.489)" fill="#e6e6e6"/>
      <ellipse id="Ellipse_730" data-name="Ellipse 730" cx="3.987" cy="3.987" rx="3.987" ry="3.987" transform="translate(181.645 163.489)" fill="#e6e6e6"/>
      <ellipse id="Ellipse_731" data-name="Ellipse 731" cx="3.987" cy="3.987" rx="3.987" ry="3.987" transform="translate(0 183.925)" fill="#e6e6e6"/>
      <ellipse id="Ellipse_732" data-name="Ellipse 732" cx="3.987" cy="3.987" rx="3.987" ry="3.987" transform="translate(20.183 183.925)" fill="#e6e6e6"/>
      <ellipse id="Ellipse_733" data-name="Ellipse 733" cx="3.987" cy="3.987" rx="3.987" ry="3.987" transform="translate(40.366 183.925)" fill="#e6e6e6"/>
      <ellipse id="Ellipse_734" data-name="Ellipse 734" cx="3.987" cy="3.987" rx="3.987" ry="3.987" transform="translate(60.548 183.925)" fill="#e6e6e6"/>
      <ellipse id="Ellipse_735" data-name="Ellipse 735" cx="3.987" cy="3.987" rx="3.987" ry="3.987" transform="translate(80.731 183.925)" fill="#e6e6e6"/>
      <ellipse id="Ellipse_736" data-name="Ellipse 736" cx="3.987" cy="3.987" rx="3.987" ry="3.987" transform="translate(100.914 183.925)" fill="#e6e6e6"/>
      <ellipse id="Ellipse_737" data-name="Ellipse 737" cx="3.987" cy="3.987" rx="3.987" ry="3.987" transform="translate(121.097 183.925)" fill="#e6e6e6"/>
      <ellipse id="Ellipse_738" data-name="Ellipse 738" cx="3.987" cy="3.987" rx="3.987" ry="3.987" transform="translate(141.28 183.925)" fill="#e6e6e6"/>
      <ellipse id="Ellipse_739" data-name="Ellipse 739" cx="3.987" cy="3.987" rx="3.987" ry="3.987" transform="translate(161.463 183.925)" fill="#e6e6e6"/>
      <ellipse id="Ellipse_740" data-name="Ellipse 740" cx="3.987" cy="3.987" rx="3.987" ry="3.987" transform="translate(181.645 183.925)" fill="#e6e6e6"/>
      <path id="Path_10488-2" data-name="Path 10488" d="M503.087,193.831a5.192,5.192,0,0,1,5.041,5.33V412.37a5.192,5.192,0,0,1-5.041,5.33H358.415a5.192,5.192,0,0,1-5.041-5.33V199.161a5.192,5.192,0,0,1,5.041-5.33H503.087" transform="translate(-268.772 -170.35)" fill="#e6e6e6"/>
      <path id="Path_10489-2" data-name="Path 10489" d="M362.991,403.908h143.5V203.447h-143.5Z" transform="translate(-272.762 -162.186)" fill="#fff"/>
      <path id="Path_10490-2" data-name="Path 10490" d="M496.479,257.643a1.008,1.008,0,0,1,1.008,1.008v2.016a1.008,1.008,0,0,1-1.008,1.008H416.833a1.008,1.008,0,0,1-1.008-1.008v-2.016a1.008,1.008,0,0,1,1.008-1.008h79.646" transform="translate(-294.678 -184.667)" fill="#e6e6e6"/>
      <path id="Path_10491-2" data-name="Path 10491" d="M496.479,274.009a1.008,1.008,0,0,1,1.008,1.008v2.016a1.008,1.008,0,0,1-1.008,1.008H416.833a1.008,1.008,0,0,1-1.008-1.008v-2.016a1.008,1.008,0,0,1,1.008-1.008h79.646" transform="translate(-294.678 -191.456)" fill="#e6e6e6"/>
      <path id="Path_10492-2" data-name="Path 10492" d="M496.479,290.376a1.008,1.008,0,0,1,1.008,1.008V293.4a1.008,1.008,0,0,1-1.008,1.008H416.833a1.008,1.008,0,0,1-1.008-1.008v-2.016a1.008,1.008,0,0,1,1.008-1.008h79.646" transform="translate(-294.678 -198.245)" fill="#6c63ff"/>
      <path id="Path_10493-2" data-name="Path 10493" d="M496.479,307.1a1.008,1.008,0,0,1,1.008,1.008v2.016a1.008,1.008,0,0,1-1.008,1.008H416.833a1.008,1.008,0,0,1-1.008-1.008v-2.016a1.008,1.008,0,0,1,1.008-1.008h79.646" transform="translate(-294.678 -205.182)" fill="#e6e6e6"/>
      <path id="Path_10494-2" data-name="Path 10494" d="M496.479,323.467a1.008,1.008,0,0,1,1.008,1.008v2.016a1.008,1.008,0,0,1-1.008,1.008H416.833a1.008,1.008,0,0,1-1.008-1.008v-2.016a1.008,1.008,0,0,1,1.008-1.008h79.646" transform="translate(-294.678 -211.971)" fill="#e6e6e6"/>
      <path id="Path_10495-2" data-name="Path 10495" d="M496.479,339.834a1.008,1.008,0,0,1,1.008,1.008v2.016a1.008,1.008,0,0,1-1.008,1.008H416.833a1.008,1.008,0,0,1-1.008-1.008v-2.016a1.008,1.008,0,0,1,1.008-1.008h79.646" transform="translate(-294.678 -218.76)" fill="#e6e6e6"/>
      <path id="Path_10496-2" data-name="Path 10496" d="M417.588,394.89a1.172,1.172,0,0,0-1.17,1.17v54.374a1.172,1.172,0,0,0,1.17,1.17H496.08a1.172,1.172,0,0,0,1.17-1.17V396.06a1.172,1.172,0,0,0-1.17-1.17Z" transform="translate(-294.923 -241.598)" fill="#6c63ff"/>
      <path id="Path_10497-2" data-name="Path 10497" d="M276.657,113.081l-.824-.219,17.981-67.641h104.3v.853H294.469Z" transform="translate(-114.416 -18.758)" fill="#3f3d56"/>
      <path id="Path_10498-2" data-name="Path 10498" d="M701.81,181.494a8.948,8.948,0,1,1,8.948-8.948A8.948,8.948,0,0,1,701.81,181.494Zm0-17.044a8.1,8.1,0,1,0,8.1,8.1,8.1,8.1,0,0,0-8.1-8.1Z" transform="translate(-409.594 -145.656)" fill="#3f3d56"/>
      <ellipse id="Ellipse_741" data-name="Ellipse 741" cx="3.409" cy="3.409" rx="3.409" ry="3.409" transform="translate(288.807 23.48)" fill="#6c63ff"/>
      <path id="Path_10499-2" data-name="Path 10499" d="M186.3,356.941l.823.22-18.11,67.606-104.3-.2,0-.853,103.641.2Z" transform="translate(-26.842 -148.061)" fill="#3f3d56"/>
      <path id="Path_10500-2" data-name="Path 10500" d="M252.63,589.4a8.948,8.948,0,1,1-8.965,8.931,8.948,8.948,0,0,1,8.965-8.931ZM252.6,606.44a8.1,8.1,0,1,0-8.08-8.112A8.1,8.1,0,0,0,252.6,606.44Z" transform="translate(-223.264 -322.279)" fill="#3f3d56"/>
      <ellipse id="Ellipse_742" data-name="Ellipse 742" cx="3.409" cy="3.409" rx="3.409" ry="3.409" transform="translate(25.939 272.655)" fill="#6c63ff"/>
    </g>
    <g id="undraw_download_files_aydf" transform="translate(7156.849 -1521.489)">
      <path id="Path_10577" data-name="Path 10577" d="M705.492,189.62a3.608,3.608,0,0,0-3.6,3.6V334.518a3.608,3.608,0,0,0,3.6,3.6H870.525a3.608,3.608,0,0,0,3.6-3.6V193.224a3.608,3.608,0,0,0-3.6-3.6Z" transform="translate(-628.121 -189.62)" fill="#e6e6e6"/>
      <path id="Path_10578" data-name="Path 10578" d="M746.452,335.6a1.585,1.585,0,0,0,0,3.106H867.193a1.585,1.585,0,0,0,0-3.106Z" transform="translate(-646.193 -250.55)" fill="#fff"/>
      <path id="Path_10579" data-name="Path 10579" d="M743.9,367.269a1.585,1.585,0,0,0,0,3.106H864.645a1.585,1.585,0,0,0,0-3.106Z" transform="translate(-645.13 -263.771)" fill="#fff"/>
      <path id="Path_10580" data-name="Path 10580" d="M746.451,398.943a1.585,1.585,0,0,0,0,3.106H867.193a1.585,1.585,0,0,0,0-3.106Z" transform="translate(-646.193 -276.992)" fill="#fff"/>
      <path id="Path_10581" data-name="Path 10581" d="M746.451,229.863a1.585,1.585,0,0,0,0,3.107H867.193a1.585,1.585,0,0,0,0-3.107Z" transform="translate(-646.193 -206.417)" fill="#fff"/>
      <path id="Path_10582" data-name="Path 10582" d="M743.9,261.536a1.585,1.585,0,0,0,0,3.107H864.645a1.585,1.585,0,0,0,0-3.107Z" transform="translate(-645.13 -219.638)" fill="#fff"/>
      <path id="Path_10583" data-name="Path 10583" d="M746.452,293.21a1.585,1.585,0,0,0,0,3.107H867.193a1.585,1.585,0,0,0,0-3.107Z" transform="translate(-646.193 -232.858)" fill="#fff"/>
      <path id="Path_10584" data-name="Path 10584" d="M578.877,288.793a3.608,3.608,0,0,0-3.6,3.6V433.691a3.608,3.608,0,0,0,3.6,3.6H743.91a3.608,3.608,0,0,0,3.6-3.6V292.4a3.608,3.608,0,0,0-3.6-3.6Z" transform="translate(-575.272 -231.015)" fill="#6c63ff"/>
      <path id="Path_10585" data-name="Path 10585" d="M619.837,434.769a1.585,1.585,0,0,0,0,3.106H740.578a1.585,1.585,0,0,0,0-3.106Z" transform="translate(-593.344 -291.946)" fill="#fff"/>
      <path id="Path_10586" data-name="Path 10586" d="M617.289,466.443a1.585,1.585,0,0,0,0,3.106H738.03a1.585,1.585,0,0,0,0-3.106Z" transform="translate(-592.281 -305.166)" fill="#fff"/>
      <path id="Path_10587" data-name="Path 10587" d="M619.837,498.116a1.585,1.585,0,0,0,0,3.106H740.578a1.585,1.585,0,0,0,0-3.106Z" transform="translate(-593.344 -318.387)" fill="#fff"/>
      <path id="Path_10588" data-name="Path 10588" d="M619.837,329.036a1.585,1.585,0,0,0,0,3.107H740.578a1.585,1.585,0,0,0,0-3.107Z" transform="translate(-593.344 -247.812)" fill="#fff"/>
      <path id="Path_10589" data-name="Path 10589" d="M617.289,360.71a1.585,1.585,0,0,0,0,3.107H738.03a1.585,1.585,0,0,0,0-3.107Z" transform="translate(-592.281 -261.033)" fill="#fff"/>
      <path id="Path_10590" data-name="Path 10590" d="M619.837,392.383a1.585,1.585,0,0,0,0,3.107H740.578a1.585,1.585,0,0,0,0-3.107Z" transform="translate(-593.344 -274.254)" fill="#fff"/>
      <ellipse id="Ellipse_751" data-name="Ellipse 751" cx="42.14" cy="42.14" rx="42.14" ry="42.14" transform="translate(127.794 13.277)" fill="#3f3d56"/>
      <path id="Path_10591" data-name="Path 10591" d="M662.822,82.258V60.764H651.752V82.258h-5.168l5.351,9.269,5.352,9.269,5.352-9.269,5.351-9.269Z" transform="translate(-487.353 -25.363)" fill="#fff"/>
    </g>
    <g id="Group_2438" data-name="Group 2438" transform="translate(6777.494 -1306.061)">
      <g id="Group_1275" data-name="Group 1275" transform="translate(0)">
        <rect id="Rectangle_2036" data-name="Rectangle 2036" width="96.916" height="26.807" transform="translate(0 86.606)" fill="#3f3d56"/>
        <ellipse id="Ellipse_223" data-name="Ellipse 223" cx="48.458" cy="10.31" rx="48.458" ry="10.31" transform="translate(0 74.234)" fill="#6c63ff"/>
        <ellipse id="Ellipse_224" data-name="Ellipse 224" cx="48.458" cy="10.31" rx="48.458" ry="10.31" transform="translate(0 105.165)" fill="#3f3d56"/>
        <rect id="Rectangle_2036-2" data-name="Rectangle 2036" width="96.916" height="30.931" transform="translate(0 45.365)" fill="#3f3d56"/>
        <ellipse id="Ellipse_223-2" data-name="Ellipse 223" cx="48.458" cy="10.31" rx="48.458" ry="10.31" transform="translate(0 37.117)" fill="#6c63ff"/>
        <ellipse id="Ellipse_224-2" data-name="Ellipse 224" cx="48.458" cy="11.341" rx="48.458" ry="11.341" transform="translate(0 65.986)" fill="#3f3d56"/>
        <rect id="Rectangle_2036-3" data-name="Rectangle 2036" width="96.916" height="26.807" transform="translate(0 12.372)" fill="#3f3d56"/>
        <ellipse id="Ellipse_223-3" data-name="Ellipse 223" cx="48.458" cy="10.31" rx="48.458" ry="10.31" transform="translate(0 0)" fill="#6c63ff"/>
        <ellipse id="Ellipse_224-3" data-name="Ellipse 224" cx="48.458" cy="11.341" rx="48.458" ry="11.341" transform="translate(0 28.869)" fill="#3f3d56"/>
      </g>
      <g id="Group_1276" data-name="Group 1276" transform="translate(38.256 38.97)">
        <rect id="Rectangle_2037" data-name="Rectangle 2037" width="5.182" height="5.182" transform="translate(7.45)" fill="#ff6584" opacity="0.8"/>
        <rect id="Rectangle_2038" data-name="Rectangle 2038" width="5.182" height="5.182" transform="translate(14.899)" fill="#ff6584"/>
        <rect id="Rectangle_2039" data-name="Rectangle 2039" width="5.182" height="5.182" fill="#ff6584" opacity="0.4"/>
      </g>
      <g id="Group_1277" data-name="Group 1277" transform="translate(38.256 76.148)">
        <rect id="Rectangle_2037-2" data-name="Rectangle 2037" width="5.182" height="5.182" transform="translate(7.45)" fill="#ff6584" opacity="0.8"/>
        <rect id="Rectangle_2038-2" data-name="Rectangle 2038" width="5.182" height="5.182" transform="translate(14.899)" fill="#ff6584"/>
        <rect id="Rectangle_2039-2" data-name="Rectangle 2039" width="5.182" height="5.182" fill="#ff6584" opacity="0.4"/>
      </g>
      <g id="Group_1278" data-name="Group 1278" transform="translate(38.256 113.633)">
        <rect id="Rectangle_2037-3" data-name="Rectangle 2037" width="5.182" height="5.182" transform="translate(7.45 0)" fill="#ff6584" opacity="0.8"/>
        <rect id="Rectangle_2038-3" data-name="Rectangle 2038" width="5.182" height="5.182" transform="translate(14.899 0)" fill="#ff6584"/>
        <rect id="Rectangle_2039-3" data-name="Rectangle 2039" width="5.182" height="5.182" transform="translate(0 0)" fill="#ff6584" opacity="0.4"/>
      </g>
    </g>
    <g id="Group_2440" data-name="Group 2440" transform="translate(6932.542 -1306.061)">
      <g id="Group_1275-2" data-name="Group 1275" transform="translate(0)">
        <rect id="Rectangle_2036-4" data-name="Rectangle 2036" width="96.916" height="26.807" transform="translate(0 86.606)" fill="#3f3d56"/>
        <ellipse id="Ellipse_223-4" data-name="Ellipse 223" cx="48.458" cy="10.31" rx="48.458" ry="10.31" transform="translate(0 74.234)" fill="#6c63ff"/>
        <ellipse id="Ellipse_224-4" data-name="Ellipse 224" cx="48.458" cy="10.31" rx="48.458" ry="10.31" transform="translate(0 105.165)" fill="#3f3d56"/>
        <rect id="Rectangle_2036-5" data-name="Rectangle 2036" width="96.916" height="30.931" transform="translate(0 45.365)" fill="#3f3d56"/>
        <ellipse id="Ellipse_223-5" data-name="Ellipse 223" cx="48.458" cy="10.31" rx="48.458" ry="10.31" transform="translate(0 37.117)" fill="#6c63ff"/>
        <ellipse id="Ellipse_224-5" data-name="Ellipse 224" cx="48.458" cy="11.341" rx="48.458" ry="11.341" transform="translate(0 65.986)" fill="#3f3d56"/>
        <rect id="Rectangle_2036-6" data-name="Rectangle 2036" width="96.916" height="26.807" transform="translate(0 12.372)" fill="#3f3d56"/>
        <ellipse id="Ellipse_223-6" data-name="Ellipse 223" cx="48.458" cy="10.31" rx="48.458" ry="10.31" transform="translate(0 0)" fill="#6c63ff"/>
        <ellipse id="Ellipse_224-6" data-name="Ellipse 224" cx="48.458" cy="11.341" rx="48.458" ry="11.341" transform="translate(0 28.869)" fill="#3f3d56"/>
      </g>
      <g id="Group_1276-2" data-name="Group 1276" transform="translate(38.256 38.97)">
        <rect id="Rectangle_2037-4" data-name="Rectangle 2037" width="5.182" height="5.182" transform="translate(7.45)" fill="#ff6584" opacity="0.8"/>
        <rect id="Rectangle_2038-4" data-name="Rectangle 2038" width="5.182" height="5.182" transform="translate(14.899)" fill="#ff6584"/>
        <rect id="Rectangle_2039-4" data-name="Rectangle 2039" width="5.182" height="5.182" fill="#ff6584" opacity="0.4"/>
      </g>
      <g id="Group_1277-2" data-name="Group 1277" transform="translate(38.256 76.148)">
        <rect id="Rectangle_2037-5" data-name="Rectangle 2037" width="5.182" height="5.182" transform="translate(7.45)" fill="#ff6584" opacity="0.8"/>
        <rect id="Rectangle_2038-5" data-name="Rectangle 2038" width="5.182" height="5.182" transform="translate(14.899)" fill="#ff6584"/>
        <rect id="Rectangle_2039-5" data-name="Rectangle 2039" width="5.182" height="5.182" fill="#ff6584" opacity="0.4"/>
      </g>
      <g id="Group_1278-2" data-name="Group 1278" transform="translate(38.256 113.633)">
        <rect id="Rectangle_2037-6" data-name="Rectangle 2037" width="5.182" height="5.182" transform="translate(7.45 0)" fill="#ff6584" opacity="0.8"/>
        <rect id="Rectangle_2038-6" data-name="Rectangle 2038" width="5.182" height="5.182" transform="translate(14.899 0)" fill="#ff6584"/>
        <rect id="Rectangle_2039-6" data-name="Rectangle 2039" width="5.182" height="5.182" transform="translate(0 0)" fill="#ff6584" opacity="0.4"/>
      </g>
    </g>
    <g id="Group_2441" data-name="Group 2441" transform="translate(7087.591 -1306.061)">
      <g id="Group_1275-3" data-name="Group 1275" transform="translate(0)">
        <rect id="Rectangle_2036-7" data-name="Rectangle 2036" width="96.916" height="26.807" transform="translate(0 86.606)" fill="#3f3d56"/>
        <ellipse id="Ellipse_223-7" data-name="Ellipse 223" cx="48.458" cy="10.31" rx="48.458" ry="10.31" transform="translate(0 74.234)" fill="#6c63ff"/>
        <ellipse id="Ellipse_224-7" data-name="Ellipse 224" cx="48.458" cy="10.31" rx="48.458" ry="10.31" transform="translate(0 105.165)" fill="#3f3d56"/>
        <rect id="Rectangle_2036-8" data-name="Rectangle 2036" width="96.916" height="30.931" transform="translate(0 45.365)" fill="#3f3d56"/>
        <ellipse id="Ellipse_223-8" data-name="Ellipse 223" cx="48.458" cy="10.31" rx="48.458" ry="10.31" transform="translate(0 37.117)" fill="#6c63ff"/>
        <ellipse id="Ellipse_224-8" data-name="Ellipse 224" cx="48.458" cy="11.341" rx="48.458" ry="11.341" transform="translate(0 65.986)" fill="#3f3d56"/>
        <rect id="Rectangle_2036-9" data-name="Rectangle 2036" width="96.916" height="26.807" transform="translate(0 12.372)" fill="#3f3d56"/>
        <ellipse id="Ellipse_223-9" data-name="Ellipse 223" cx="48.458" cy="10.31" rx="48.458" ry="10.31" transform="translate(0 0)" fill="#6c63ff"/>
        <ellipse id="Ellipse_224-9" data-name="Ellipse 224" cx="48.458" cy="11.341" rx="48.458" ry="11.341" transform="translate(0 28.869)" fill="#3f3d56"/>
      </g>
      <g id="Group_1276-3" data-name="Group 1276" transform="translate(38.256 38.97)">
        <rect id="Rectangle_2037-7" data-name="Rectangle 2037" width="5.182" height="5.182" transform="translate(7.45)" fill="#ff6584" opacity="0.8"/>
        <rect id="Rectangle_2038-7" data-name="Rectangle 2038" width="5.182" height="5.182" transform="translate(14.899)" fill="#ff6584"/>
        <rect id="Rectangle_2039-7" data-name="Rectangle 2039" width="5.182" height="5.182" fill="#ff6584" opacity="0.4"/>
      </g>
      <g id="Group_1277-3" data-name="Group 1277" transform="translate(38.256 76.148)">
        <rect id="Rectangle_2037-8" data-name="Rectangle 2037" width="5.182" height="5.182" transform="translate(7.45)" fill="#ff6584" opacity="0.8"/>
        <rect id="Rectangle_2038-8" data-name="Rectangle 2038" width="5.182" height="5.182" transform="translate(14.899)" fill="#ff6584"/>
        <rect id="Rectangle_2039-8" data-name="Rectangle 2039" width="5.182" height="5.182" fill="#ff6584" opacity="0.4"/>
      </g>
      <g id="Group_1278-3" data-name="Group 1278" transform="translate(38.256 113.633)">
        <rect id="Rectangle_2037-9" data-name="Rectangle 2037" width="5.182" height="5.182" transform="translate(7.45 0)" fill="#ff6584" opacity="0.8"/>
        <rect id="Rectangle_2038-9" data-name="Rectangle 2038" width="5.182" height="5.182" transform="translate(14.899 0)" fill="#ff6584"/>
        <rect id="Rectangle_2039-9" data-name="Rectangle 2039" width="5.182" height="5.182" transform="translate(0 0)" fill="#ff6584" opacity="0.4"/>
      </g>
    </g>
  </g>
</svg>
