<svg id="download_1_" data-name="download (1)" xmlns="http://www.w3.org/2000/svg" width="138.391" height="149.17" viewBox="0 0 138.391 149.17">
  <g id="Group_2442" data-name="Group 2442" transform="translate(2.202 2.201)">
    <path id="Path_10618" data-name="Path 10618" d="M207.665,407.388,188.2,400.121l-19.461,7.267-2.9,11.163,20.879,8.5,23.857-8.5Zm0,0" transform="translate(-119.725 -285.749)" fill="#b5b5ed" fill-rule="evenodd"/>
    <path id="Path_10619" data-name="Path 10619" d="M180.458,463.379H129.32a6,6,0,0,0-5.981,5.977v3.287a2.7,2.7,0,0,0,2.7,2.7h64.1a2.7,2.7,0,0,0,2.7-2.7v-3.287a6,6,0,0,0-5.973-5.977Zm0,0" transform="translate(-89.608 -330.577)" fill="#eceff1" fill-rule="evenodd"/>
    <path id="Path_10622" data-name="Path 10622" d="M28.265,73.645H14.636a7.106,7.106,0,0,0-7.078,7.084v82.716l71.465,6.432,62.523-6.432V80.787a7.156,7.156,0,0,0-7.079-7.084l-12.308-.025v-.033Zm0,0" transform="translate(-7.559 -54.39)" fill="#b5b5ed" fill-rule="evenodd"/>
    <path id="Path_10623" data-name="Path 10623" d="M135.717,109.07H44.263a1.516,1.516,0,0,0-1.509,1.511V177.7a1.511,1.511,0,0,0,1.509,1.511h110.4a1.512,1.512,0,0,0,1.51-1.511V110.582a1.518,1.518,0,0,0-1.51-1.511Zm0,0" transform="translate(-32.5 -79.494)" fill="#f7f8f9" fill-rule="evenodd"/>
    <path id="Path_10626" data-name="Path 10626" d="M141.546,381.871H7.559v5.5a7.1,7.1,0,0,0,7.078,7.084H134.468a7.1,7.1,0,0,0,7.079-7.084Zm0,0" transform="translate(-7.559 -272.816)" fill="#eceff1" fill-rule="evenodd"/>
    <path id="Path_10628" data-name="Path 10628" d="M147.945,7.63V81.288h55.18a7.039,7.039,0,0,0,7.012-7.01l.017-59.712a7.022,7.022,0,0,0-7-7.01Zm0,0" transform="translate(-107.044 -7.555)" fill="#fff" fill-rule="evenodd"/>
    <path id="Path_10629" data-name="Path 10629" d="M172.4,243.584H111.341c-4.339,0-6.616,2.891-6.748,5.854v.545c.132,2.931,2.359,5.755,6.748,5.755H172.5a6.957,6.957,0,0,0,6.913-7.018V236.574A7.038,7.038,0,0,1,172.4,243.584Zm0,0" transform="translate(-76.323 -169.851)" fill="#eceff1" fill-rule="evenodd"/>
    <path id="Path_10630" data-name="Path 10630" d="M117.224,81.435V7.777c-5.619,0-12.094-.685-12.63,7.364V87.289c.132-2.965,2.409-5.854,6.749-5.854Zm0,0" transform="translate(-76.323 -7.702)" fill="#f7f8f9" fill-rule="evenodd"/>
    <path id="Path_10632" data-name="Path 10632" d="M111.366,248.7h61.063a7.035,7.035,0,0,0,6.987-6.473V236.57a7.035,7.035,0,0,1-6.913,7.01H111.341c-4.339,0-6.616,2.89-6.748,5.854v.545a6.231,6.231,0,0,0,.569,2.3A6.425,6.425,0,0,1,111.366,248.7Zm0,0" transform="translate(-76.323 -169.848)" fill="#c4cccf" fill-rule="evenodd"/>
    <path id="Path_10633" data-name="Path 10633" d="M219.026,54.348H186.49a2.114,2.114,0,0,0-2.1,2.113V68.54a2.115,2.115,0,0,0,2.1,2.115h32.536a2.118,2.118,0,0,0,2.112-2.115V56.461A2.117,2.117,0,0,0,219.026,54.348Zm0,0" transform="translate(-132.869 -40.715)" fill="#b5b5ed" fill-rule="evenodd"/>
    <path id="Path_10634" data-name="Path 10634" d="M199.217,177.684a2.108,2.108,0,0,0-2.17,2.014v14.887h-2.92c-6.954.346-7.111,5.845-4.24,9.536l9.933,12.774c3.209,3.914,8.4,3.914,11.194,0l9.924-12.774c2.879-3.691,2.722-9.189-4.239-9.536h-2.92V179.7a2.1,2.1,0,0,0-2.17-2.014Zm0,0" transform="translate(-135.523 -128.117)" fill="#b5b5ed" fill-rule="evenodd"/>
  </g>
  <path id="Path_10637" data-name="Path 10637" d="M129.158,19.313h-.041l-21.606-.052,0-10.043A9.224,9.224,0,0,0,98.3,0L43.1.074c-.4,0-.8,0-1.211-.007C36.72.022,28.911-.046,28.276,9.495c0,.049,0,.1,0,.147v9.613H9.28A9.293,9.293,0,0,0,0,28.54v88.215a9.294,9.294,0,0,0,9.28,9.287H48.372L46.614,132.8h-4.7a8.191,8.191,0,0,0-8.183,8.18v3.286a4.907,4.907,0,0,0,4.9,4.9h64.1a4.907,4.907,0,0,0,4.9-4.9v-3.286a8.187,8.187,0,0,0-8.175-8.18h-4.7l-1.763-6.759h36.12a9.293,9.293,0,0,0,9.28-9.287V28.6A9.411,9.411,0,0,0,129.158,19.313ZM75.879,89.7l-.051.069a4.493,4.493,0,0,1-3.512,2.006,5.3,5.3,0,0,1-4.173-2.1L58.229,76.928a.231.231,0,0,0-.015-.02c-.084-.109-.165-.222-.244-.337l-.084-.125a6.883,6.883,0,0,1-.447-.8l-.02-.044c-.067-.143-.129-.289-.183-.435a3.452,3.452,0,0,1-.089-2.578c.56-1.222,2.278-1.572,3.643-1.646h2.862a2.2,2.2,0,0,0,2.2-2.2v-14.7H78.181v14.7a2.2,2.2,0,0,0,2.2,2.2h2.862c1.135.063,3.061.362,3.65,1.647a3.41,3.41,0,0,1-.071,2.514c-.006.013-.009.025-.014.038s-.013.026-.017.04c-.05.137-.108.273-.171.411l-.035.075c-.056.117-.116.234-.181.351-.018.033-.036.066-.056.1-.063.108-.129.215-.2.321-.027.042-.055.084-.083.125-.084.123-.172.246-.265.365l-.017.023Zm-43.2-7.858c.1-1.721,1.34-3.707,4.547-3.707H53.769l.011.02c.032.057.064.112.1.167.092.158.188.314.289.47.048.076.1.153.147.226.137.2.279.4.43.6a.129.129,0,0,1,.011.015l4.862,6.256H37.222c-3.2,0-4.449-1.855-4.547-3.608Zm56.4-1.943.207-.267.011-.015q.184-.237.353-.48c.019-.026.038-.052.056-.08.207-.3.4-.609.571-.922h8.013a9.141,9.141,0,0,0,4.811-1.363v4.3a4.77,4.77,0,0,1-4.712,4.816H84.425ZM32.675,9.717C33,5.132,35.353,4.476,40.9,4.467v29.8a2.2,2.2,0,0,0,4.4,0V4.475l53-.072a4.82,4.82,0,0,1,4.8,4.807l-.016,59.709a4.824,4.824,0,0,1-4.811,4.813H91.5a6.936,6.936,0,0,0-.6-2.974c-.673-1.468-2.539-3.968-7.486-4.215l-.11,0h-.718V53.856a4.3,4.3,0,0,0-4.371-4.217H65.822a4.3,4.3,0,0,0-4.371,4.217V66.54h-.719l-.109,0c-4.94.247-6.806,2.744-7.478,4.211a6.938,6.938,0,0,0-.605,2.978H45.305V44.361a2.2,2.2,0,1,0-4.4,0V73.732H37.222a9.686,9.686,0,0,0-4.547,1.054ZM9.28,23.658H28.271v5.917H13.965a3.717,3.717,0,0,0-3.711,3.714v67.119a3.717,3.717,0,0,0,3.711,3.714H66.523a2.2,2.2,0,0,0,0-4.4H14.658V33.979H28.272V82.333c0,.033,0,.066,0,.1.17,3.784,3.043,7.857,8.947,7.857H63.043L64.686,92.4l.036.046a9.708,9.708,0,0,0,7.452,3.734c.1,0,.192,0,.288-.006a8.913,8.913,0,0,0,6.919-3.807L81,90.29H98.382A9.178,9.178,0,0,0,107.5,81.07V68.925l.01-34.945h16.168V99.716H76.6a2.2,2.2,0,0,0,0,4.4h47.765a3.716,3.716,0,0,0,3.71-3.714V33.288a3.717,3.717,0,0,0-3.71-3.714h-16.86V23.664l21.574.052a4.924,4.924,0,0,1,4.9,4.882v80.457H4.4V28.54A4.886,4.886,0,0,1,9.28,23.658ZM103.226,140.98v3.287a.5.5,0,0,1-.5.5h-64.1a.5.5,0,0,1-.5-.5V140.98a3.783,3.783,0,0,1,3.78-3.776H99.456A3.778,3.778,0,0,1,103.226,140.98ZM90.2,132.8H51.164l1.758-6.759H88.44Zm38.908-11.163H9.28A4.885,4.885,0,0,1,4.4,116.755v-3.3H133.988v3.3A4.884,4.884,0,0,1,129.111,121.638Zm0,0" fill="#083862"/>
  <path id="Path_10638" data-name="Path 10638" d="M181.133,67.5H213.67a4.319,4.319,0,0,0,4.313-4.316V51.1a4.319,4.319,0,0,0-4.313-4.316H181.133a4.315,4.315,0,0,0-4.305,4.316V63.184A4.315,4.315,0,0,0,181.133,67.5Zm.1-16.307H213.58V63.1H181.231Zm0,0" transform="translate(-125.31 -33.157)" fill="#083862"/>
</svg>
