<svg xmlns="http://www.w3.org/2000/svg" width="90.239" height="70.19" viewBox="0 0 90.239 70.19">
  <g id="Group_3103" data-name="Group 3103" transform="translate(163.016 1637.776)">
    <circle id="Ellipse_74" data-name="Ellipse 74" cx="30.235" cy="30.235" r="30.235" transform="translate(-133.246 -1628.072)" fill="#d3d3e8"/>
    <g id="shuttle" transform="translate(-163.016 -1637.776)">
      <path id="Path_10646" data-name="Path 10646" d="M70.107,5.24A5.456,5.456,0,0,0,64.95.082C59.324-.225,48.315.074,37.788,5.519A53.324,53.324,0,0,0,22.217,18.431l-.165.2-10.279.794a5.426,5.426,0,0,0-4.135,2.433L.625,32.466a3.759,3.759,0,0,0,2.56,5.787l8.66,1.341c-.031.168-.061.337-.089.5a5.453,5.453,0,0,0,1.529,4.743L25.347,56.905a5.466,5.466,0,0,0,3.858,1.6,5.375,5.375,0,0,0,.885-.073c.168-.028.337-.059.5-.089L31.937,67a3.755,3.755,0,0,0,5.787,2.56l10.607-7.013a5.425,5.425,0,0,0,2.433-4.135l.794-10.279.2-.165A53.319,53.319,0,0,0,64.671,32.4c5.445-10.527,5.744-21.536,5.437-27.162ZM46.063,59.121,35.917,65.829l-1.307-8.44A46.066,46.066,0,0,0,47.181,51.4l-.517,6.7a1.34,1.34,0,0,1-.6,1.021ZM28.255,54,16.193,41.934a1.333,1.333,0,0,1-.38-1.157,35.375,35.375,0,0,1,1.606-6.109l18.1,18.1a35.524,35.524,0,0,1-6.105,1.61A1.333,1.333,0,0,1,28.255,54ZM12.089,23.526l6.7-.517A46.063,46.063,0,0,0,12.8,35.581L4.36,34.273l6.708-10.146A1.34,1.34,0,0,1,12.089,23.526ZM49.125,44.815a47.147,47.147,0,0,1-9.519,6.226L19.149,30.583a47.963,47.963,0,0,1,6.226-9.518,49.075,49.075,0,0,1,14.3-11.893c9.661-5,19.84-5.266,25.048-4.983A1.349,1.349,0,0,1,66,5.464c.284,5.208.014,15.387-4.983,25.048A49.075,49.075,0,0,1,49.125,44.815Z" transform="translate(0 0)" fill="#083863"/>
      <path id="Path_10647" data-name="Path 10647" d="M286,106.872a10.273,10.273,0,1,0-7.27-3.007A10.252,10.252,0,0,0,286,106.872Zm-4.362-14.639a6.169,6.169,0,1,1-1.807,4.362A6.149,6.149,0,0,1,281.642,92.233Z" transform="translate(-237.924 -74.485)" fill="#083863"/>
      <path id="Path_10648" data-name="Path 10648" d="M2.358,353.791a2.049,2.049,0,0,0,1.454-.6l6.714-6.714a2.056,2.056,0,1,0-2.908-2.908L.9,350.28a2.056,2.056,0,0,0,1.454,3.51Z" transform="translate(-0.26 -295.948)" fill="#083863"/>
      <path id="Path_10649" data-name="Path 10649" d="M16.418,388.448a2.056,2.056,0,0,0-2.908,0L.6,401.356a2.056,2.056,0,1,0,2.908,2.908l12.908-12.907A2.056,2.056,0,0,0,16.418,388.448Z" transform="translate(0 -334.676)" fill="#083863"/>
      <path id="Path_10650" data-name="Path 10650" d="M97.378,433.329l-6.714,6.714a2.056,2.056,0,1,0,2.908,2.908l6.714-6.714a2.056,2.056,0,1,0-2.908-2.908Z" transform="translate(-77.716 -373.404)" fill="#083863"/>
    </g>
  </g>
</svg>
