<svg xmlns="http://www.w3.org/2000/svg" width="31.304" height="30" viewBox="0 0 31.304 30">
  <path id="github_1_" data-name="github (1)" d="M15.652.5A15.516,15.516,0,0,0,0,15.881,15.406,15.406,0,0,0,10.7,30.473c.783.145,1.07-.331,1.07-.74,0-.365-.013-1.333-.02-2.615C7.4,28.046,6.48,25.055,6.48,25.055a4.1,4.1,0,0,0-1.741-2.25c-1.418-.953.11-.934.11-.934a3.274,3.274,0,0,1,2.4,1.585,3.37,3.37,0,0,0,4.559,1.28,3.257,3.257,0,0,1,.991-2.057c-3.476-.385-7.129-1.707-7.129-7.6a5.876,5.876,0,0,1,1.611-4.127,5.381,5.381,0,0,1,.137-4.071s1.311-.412,4.3,1.577a15.007,15.007,0,0,1,7.826,0c2.974-1.989,4.285-1.577,4.285-1.577a5.53,5.53,0,0,1,.157,4.071,5.9,5.9,0,0,1,1.6,4.127c0,5.909-3.659,7.209-7.141,7.587A3.65,3.65,0,0,1,19.5,25.512c0,2.058-.02,3.712-.02,4.212,0,.4.274.884,1.076.73A15.36,15.36,0,0,0,31.3,15.881,15.519,15.519,0,0,0,15.652.5Z" transform="translate(0 -0.5)" fill="#6e77a3"/>
</svg>
