<svg xmlns="http://www.w3.org/2000/svg" width="20" height="19.998" viewBox="0 0 20 19.998">
  <g id="horn" transform="translate(0 -0.029)">
    <g id="组_3303" data-name="组 3303" transform="translate(0 1.959)">
      <g id="组_3302" data-name="组 3302" transform="translate(0)">
        <g id="组_3301" data-name="组 3301">
          <path id="路径_11016" data-name="路径 11016" d="M9.428,49.445l-.829.829.707.707L8.968,53.2A10.73,10.73,0,0,1,5.932,59.18a3,3,0,0,1-2.153.869A3.732,3.732,0,1,0,3.7,67.513h.027a3.732,3.732,0,0,0,3.73-3.828,2.931,2.931,0,0,1,.87-2.106,10.734,10.734,0,0,1,5.976-3.036L16.53,58.2l.707.707.829-.829ZM6.29,63.715a2.56,2.56,0,0,1-4.4,1.85,2.564,2.564,0,0,1,.049-3.618,2.624,2.624,0,0,1,1.821-.726A4.107,4.107,0,0,0,6.3,60.414l.8.8A4.024,4.024,0,0,0,6.29,63.715Zm7.841-6.33A11.865,11.865,0,0,0,7.953,60.32l-.762-.762a11.843,11.843,0,0,0,1.794-2.61,11.845,11.845,0,0,0,1.142-3.568l.209-1.371L15.5,57.176Z" transform="translate(0 -49.445)" fill="#fff"/>
        </g>
      </g>
    </g>
    <path id="路径_11017" data-name="路径 11017" d="M0,0H3.83V1.172H0Z" transform="translate(14.793 4.407) rotate(-45)" fill="#fff"/>
    <path id="路径_11018" data-name="路径 11018" d="M307.725.029H308.9v2.5h-1.172Z" transform="translate(-295.706)" fill="#fff"/>
    <path id="路径_11019" data-name="路径 11019" d="M448.059,174.363h2.5v1.172h-2.5Z" transform="translate(-430.559 -167.525)" fill="#fff"/>
  </g>
</svg>
