<svg id="undraw_online_connection_6778_1_" data-name="undraw_online_connection_6778 (1)" xmlns="http://www.w3.org/2000/svg" width="528.4" height="398.951" viewBox="0 0 528.4 398.951">
  <path id="Path_10574" data-name="Path 10574" d="M452.575,210.194H322.225a2.417,2.417,0,0,1-2.414-2.414V175.446a2.417,2.417,0,0,1,2.414-2.414h130.35a2.417,2.417,0,0,1,2.414,2.414V207.78A2.417,2.417,0,0,1,452.575,210.194ZM322.225,174a1.45,1.45,0,0,0-1.448,1.448V207.78a1.45,1.45,0,0,0,1.448,1.448h130.35a1.45,1.45,0,0,0,1.448-1.448V175.446A1.45,1.45,0,0,0,452.575,174Z" transform="translate(-208.902 -125.085)" fill="#3f3d56"/>
  <circle id="Ellipse_1062" data-name="Ellipse 1062" cx="9.833" cy="9.833" r="9.833" transform="translate(123.745 55.455)" fill="#6c63ff"/>
  <path id="Path_10575" data-name="Path 10575" d="M401.4,192.745a1.639,1.639,0,1,0,0,3.278h77.258a1.639,1.639,0,1,0,0-3.278Z" transform="translate(-245.109 -134.013)" fill="#e6e6e6"/>
  <path id="Path_10576" data-name="Path 10576" d="M401.4,210.718a1.639,1.639,0,0,0,0,3.278h33.245a1.639,1.639,0,1,0,0-3.278Z" transform="translate(-245.109 -142.153)" fill="#e6e6e6"/>
  <path id="Path_10577" data-name="Path 10577" d="M409.087,397.684H351.153a2.417,2.417,0,0,1-2.414-2.414V334.934a2.417,2.417,0,0,1,2.414-2.414h57.934a2.417,2.417,0,0,1,2.414,2.414V395.27A2.417,2.417,0,0,1,409.087,397.684Zm-57.934-64.2a1.45,1.45,0,0,0-1.448,1.448V395.27a1.45,1.45,0,0,0,1.448,1.448h57.934a1.45,1.45,0,0,0,1.448-1.448V334.934a1.45,1.45,0,0,0-1.448-1.448Z" transform="translate(-222.003 -197.318)" fill="#3f3d56"/>
  <path id="Path_10578" data-name="Path 10578" d="M374.359,355.263a1.639,1.639,0,0,0,0,3.278H407.6a1.639,1.639,0,0,0,0-3.278Z" transform="translate(-232.864 -207.618)" fill="#e6e6e6"/>
  <path id="Path_10579" data-name="Path 10579" d="M374.359,372.911a1.639,1.639,0,1,0,0,3.278H407.6a1.639,1.639,0,1,0,0-3.278Z" transform="translate(-232.864 -215.611)" fill="#e6e6e6"/>
  <path id="Path_10580" data-name="Path 10580" d="M397.559,411.806a10.316,10.316,0,1,1,10.316-10.316A10.316,10.316,0,0,1,397.559,411.806Z" transform="translate(-239.441 -223.882)" fill="#6c63ff"/>
  <path id="Path_10581" data-name="Path 10581" d="M630.515,85.393h57.934a2.417,2.417,0,0,1,2.414,2.414v60.335a2.417,2.417,0,0,1-2.414,2.414H630.515a2.417,2.417,0,0,1-2.414-2.414V87.807A2.417,2.417,0,0,1,630.515,85.393Zm57.934,64.2a1.45,1.45,0,0,0,1.448-1.448V87.807a1.45,1.45,0,0,0-1.448-1.448H630.515a1.45,1.45,0,0,0-1.448,1.448v60.335a1.45,1.45,0,0,0,1.448,1.448Z" transform="translate(-348.526 -85.393)" fill="#3f3d56"/>
  <path id="Path_10582" data-name="Path 10582" d="M686.964,179.044a1.639,1.639,0,0,0,0-3.278H653.72a1.639,1.639,0,0,0,0,3.278Z" transform="translate(-359.387 -126.324)" fill="#e6e6e6"/>
  <path id="Path_10583" data-name="Path 10583" d="M686.964,161.4a1.639,1.639,0,0,0,0-3.278H653.72a1.639,1.639,0,0,0,0,3.278Z" transform="translate(-359.387 -118.33)" fill="#e6e6e6"/>
  <path id="Path_10584" data-name="Path 10584" d="M676.919,108.135A10.316,10.316,0,1,1,666.6,118.451a10.316,10.316,0,0,1,10.316-10.316Z" transform="translate(-365.964 -95.693)" fill="#6c63ff"/>
  <path id="Path_10585" data-name="Path 10585" d="M320.183,298.153a82.587,82.587,0,0,1,34.962-15.805,81.393,81.393,0,0,1,38.586,1.983,82.32,82.32,0,0,1,18.006,7.8,104.789,104.789,0,0,1,16.019,11.936c5.088,4.459,10.008,9.116,15.319,13.314a85.824,85.824,0,0,0,53.4,18.785q2.405,0,4.808-.133c.868-.048.874-1.4,0-1.357a84.441,84.441,0,0,1-55.2-16.68c-5.5-4.116-10.531-8.823-15.662-13.384a121.146,121.146,0,0,0-15.727-12.275,83.081,83.081,0,0,0-91.727,2.091c-1.274.886-2.518,1.811-3.742,2.764-.688.536.278,1.489.959.959Z" transform="translate(-208.528 -173.328)" fill="#3f3d56"/>
  <circle id="Ellipse_1063" data-name="Ellipse 1063" cx="7.05" cy="7.05" r="7.05" transform="translate(103.884 117.282)" fill="#3f3d56"/>
  <circle id="Ellipse_1064" data-name="Ellipse 1064" cx="7.05" cy="7.05" r="7.05" transform="translate(366.151 210.884)" fill="#3f3d56"/>
  <path id="Path_10586" data-name="Path 10586" d="M769.515,356.79H654.484a2.417,2.417,0,0,1-2.414-2.414V294.524a2.417,2.417,0,0,1,2.414-2.414H769.515a2.417,2.417,0,0,1,2.414,2.414v59.853A2.417,2.417,0,0,1,769.515,356.79ZM654.484,293.076a1.45,1.45,0,0,0-1.448,1.448v59.853a1.45,1.45,0,0,0,1.448,1.448H769.515a1.45,1.45,0,0,0,1.448-1.448V294.524a1.45,1.45,0,0,0-1.448-1.448Z" transform="translate(-359.382 -179.016)" fill="#3f3d56"/>
  <circle id="Ellipse_1065" data-name="Ellipse 1065" cx="9.833" cy="9.833" r="9.833" transform="translate(304.557 124.464)" fill="#6c63ff"/>
  <path id="Path_10587" data-name="Path 10587" d="M731.889,318.883a1.639,1.639,0,1,0,0,3.278h61.94a1.639,1.639,0,1,0,0-3.278Z" transform="translate(-394.79 -191.141)" fill="#e6e6e6"/>
  <path id="Path_10588" data-name="Path 10588" d="M731.889,336.856a1.639,1.639,0,1,0,0,3.278h33.245a1.639,1.639,0,0,0,0-3.278Z" transform="translate(-394.79 -199.281)" fill="#e6e6e6"/>
  <path id="Path_10589" data-name="Path 10589" d="M676.08,365.589c-1.247,0-2.261.735-2.261,1.639s1.014,1.639,2.261,1.639h91.274c1.247,0,2.261-.735,2.261-1.639s-1.014-1.639-2.261-1.639Z" transform="translate(-369.232 -212.294)" fill="#e6e6e6"/>
  <path id="Path_10590" data-name="Path 10590" d="M676.08,383.562c-1.247,0-2.261.735-2.261,1.639s1.014,1.639,2.261,1.639h91.274c1.247,0,2.261-.735,2.261-1.639s-1.014-1.639-2.261-1.639Z" transform="translate(-369.232 -220.434)" fill="#e6e6e6"/>
  <path id="Path_10591" data-name="Path 10591" d="M638.72,488.461c6.49-2.815,13.735-.361,19.852,2.234,3.15,1.336,6.267,2.763,9.527,3.818a54.3,54.3,0,0,0,8.4,1.991,59.365,59.365,0,0,0,17.255.106,60.25,60.25,0,0,0,16.652-4.842,56.311,56.311,0,0,0,14.412-9.422q.819-.74,1.606-1.514c.625-.612-.335-1.571-.959-.959a54.706,54.706,0,0,1-14.059,9.925,58.893,58.893,0,0,1-16.335,5.248,57.687,57.687,0,0,1-17.213.3,54.178,54.178,0,0,1-8.428-1.832,89.165,89.165,0,0,1-9.3-3.613c-6.174-2.651-13.033-5.248-19.818-3.419a16.53,16.53,0,0,0-2.276.813C637.236,487.637,637.926,488.806,638.72,488.461Z" transform="translate(-352.865 -263.965)" fill="#3f3d56"/>
  <path id="Path_10592" data-name="Path 10592" d="M590.008,500.967H535.661l12.79-22.153a2.612,2.612,0,0,1,4.524,0l5.463,9.463,9.29-16.091a3.27,3.27,0,0,1,5.664,0Z" transform="translate(-306.66 -259.833)" fill="#6c63ff"/>
  <path id="Path_10593" data-name="Path 10593" d="M585.134,495.371H527.2a2.417,2.417,0,0,1-2.414-2.414V460.623a2.417,2.417,0,0,1,2.414-2.414h57.934a2.417,2.417,0,0,1,2.414,2.414v32.334A2.417,2.417,0,0,1,585.134,495.371Zm-57.934-36.2a1.45,1.45,0,0,0-1.448,1.448v32.334a1.45,1.45,0,0,0,1.448,1.448h57.934a1.45,1.45,0,0,0,1.448-1.448V460.623a1.45,1.45,0,0,0-1.448-1.448Z" transform="translate(-301.735 -254.242)" fill="#3f3d56"/>
  <path id="Path_10594" data-name="Path 10594" d="M826.8,441.087l-10.327,5.244c-3.686,1.872-7.243,1.552-8.6-2.351h0a6.828,6.828,0,0,1,5.194-8.962l9.814-1.832,42.033-13.946,25.462-18.055,9.334,14.871-29.421,15.876Z" transform="translate(-429.77 -228.416)" fill="#ffb8b8"/>
  <path id="Path_10595" data-name="Path 10595" d="M807.267,693.428l-7.9-1.317.878-14.924h8.34Z" transform="translate(-362.035 -306.699)" fill="#ffb8b8"/>
  <path id="Path_10596" data-name="Path 10596" d="M942.719,667.736l-7.646,2.385L929.131,656.4l7.444-3.759Z" transform="translate(-420.805 -295.585)" fill="#ffb8b8"/>
  <path id="Path_10597" data-name="Path 10597" d="M990.624,623.993l-9.657,3.95L934.88,567.371l-14.485,71.107-9.656-1.756c-6.194-61.3-11.246-123.832-5.048-153.406l35.773-1.536,16.24,51.794,7.9,35.114Z" transform="translate(-472.968 -264.917)" fill="#2f2e41"/>
  <path id="Path_10598" data-name="Path 10598" d="M914.405,799.314h0a6.931,6.931,0,0,1-4.3-.457l-4.693-2.112c-3.935-.2-6.615.582-8.806-2.277a5.742,5.742,0,0,1-.671-5.789h0a5.782,5.782,0,0,1,4.722-3.436l6.446-4.062.338,3.045c2.946,1.669,6.444.948,10.151-.677l2.023,7.082a6.933,6.933,0,0,1-5.213,8.683Z" transform="translate(-469.607 -400.517)" fill="#2f2e41"/>
  <path id="Path_10599" data-name="Path 10599" d="M1059.438,774.573h0a6.935,6.935,0,0,1-4.213.964l-5.125-.474c-3.788,1.087-6.068,2.7-9.069.705a5.743,5.743,0,0,1-2.514-5.258h0a5.782,5.782,0,0,1,3.351-4.783l4.778-5.935,1.309,2.77c3.329.622,6.4-1.2,9.381-3.936l4.213,6.041a6.933,6.933,0,0,1-2.111,9.906Z" transform="translate(-534.395 -390.302)" fill="#2f2e41"/>
  <circle id="Ellipse_1066" data-name="Ellipse 1066" cx="15.801" cy="15.801" r="15.801" transform="translate(439.526 122.931)" fill="#ffb8b8"/>
  <path id="Path_10600" data-name="Path 10600" d="M848.3,294.205l-20.63-4.389L825.04,272.7l14.484-3.073Z" transform="translate(-373.662 -122.114)" fill="#ffb8b8"/>
  <path id="Path_10601" data-name="Path 10601" d="M943.7,439.59h-36.87l8.311-20.865c-.6-7.179,2.439-12.46,6.794-17.057l5.525-13.872c8.927-5.875,15.657-5.437,22.824,2.195C958.778,402.022,952.9,420.107,943.7,439.59Z" transform="translate(-474.762 -220.533)" fill="#6c63ff"/>
  <path id="Path_10602" data-name="Path 10602" d="M933.035,504.688l-1.049,11.534c-.374,4.117-2.536,6.959-6.566,6.038h0a6.828,6.828,0,0,1-4.83-9.164l3.666-9.287,10.534-43.015-1.756-31.164h17.557L948.4,462.989Z" transform="translate(-480.78 -241.299)" fill="#ffb8b8"/>
  <path id="Path_10603" data-name="Path 10603" d="M961.515,413.076H941.325L942.74,399.9a9.137,9.137,0,0,1,8.673-8.753h0A9.137,9.137,0,0,1,961,399.92Z" transform="translate(-490.386 -223.867)" fill="#6c63ff"/>
  <circle id="Ellipse_1067" data-name="Ellipse 1067" cx="5.939" cy="5.939" r="5.939" transform="translate(468.945 110.606)" fill="#2f2e41"/>
  <path id="Path_10604" data-name="Path 10604" d="M973.284,291.12a5.935,5.935,0,0,1,5.937-5.551c-.123-.016-.244-.034-.369-.043a5.939,5.939,0,1,0-.762,11.854c.125.008.248,0,.371.005A5.935,5.935,0,0,1,973.284,291.12Z" transform="translate(-504.519 -176.028)" fill="#2f2e41"/>
  <path id="Path_10605" data-name="Path 10605" d="M945.653,299.051c-5.3-4.394-20.49,1.191-21.47,4.145-7.163.976-12.586,5.155-12.586,12.586h0c4.259,1.745,9.1,1.53,14.338,0,8.346,6.8,8.918,15.352,3.843,25.172l6.245.125,7.74-11.313.37,11.475,14.314-.287V324.51a34.38,34.38,0,0,0-3.671-15.751C952.544,304.426,949.082,301.9,945.653,299.051Z" transform="translate(-476.922 -181.423)" fill="#2f2e41"/>
  <ellipse id="Ellipse_1068" data-name="Ellipse 1068" cx="2.84" cy="3.976" rx="2.84" ry="3.976" transform="translate(452.562 138.728)" fill="#ffb8b8"/>
  <path id="Path_10606" data-name="Path 10606" d="M296.282,335.7s1.71-29.593,10.586-22.868-3.876,25.613-3.876,25.613Z" transform="translate(-198.245 -187.951)" fill="#ffb9b9"/>
  <path id="Path_10607" data-name="Path 10607" d="M230.39,515.9s19.716,22.134,8.685,23.656S223.7,518.7,223.7,518.7Z" transform="translate(-165.375 -280.371)" fill="#ffb9b9"/>
  <path id="Path_10608" data-name="Path 10608" d="M176.524,324.3h0a12.985,12.985,0,0,1,9.554,10.751l6.271,44.638,8.792,35.607s4.4,3.956,2.638,6.154,2.2,11.43,2.2,11.43l-10.99,3.517s-1.319-9.232-3.517-9.671c-1.932-.386-23.555-58.15-28.767-72.144-.719-1.93-1.125-3.027-1.125-3.027S162.457,322.1,176.524,324.3Z" transform="translate(-137.237 -193.541)" fill="#575a89"/>
  <path id="Path_10609" data-name="Path 10609" d="M185.607,749.885l6.75,11.962c5.227,11.161.582,13.188-12.235,7.656L177.2,755.378Z" transform="translate(-144.313 -386.343)" fill="#ffb9b9"/>
  <path id="Path_10610" data-name="Path 10610" d="M186.391,775.267s3.2-5.217,4.363-4.344,5.94,4.657,5.94,4.657l6.227,5.964s21.038,2.224,7.67,9.6-20.755,1.259-20.755,1.259-18.723.974-18.421-4.25,6.34-13.488,6.34-13.488S185.365,779.764,186.391,775.267Z" transform="translate(-141.69 -395.827)" fill="#2f2e41"/>
  <path id="Path_10611" data-name="Path 10611" d="M137.815,494.524l6.328,76.574s.211,45.776,6.961,54.635,6.961,13.29,6.961,13.29l13.923-7.172s-7.172-11.951-5.7-13.78a10.2,10.2,0,0,0,1.9-3.939l-3.8-47.252,7.172-82.269Z" transform="translate(-126.475 -266.199)" fill="#2f2e41"/>
  <path id="Path_10612" data-name="Path 10612" d="M155.551,766.85" transform="translate(-134.508 -394.026)" fill="none" stroke="#3f3d56" stroke-miterlimit="10" stroke-width="1"/>
  <path id="Path_10613" data-name="Path 10613" d="M36.366,663.095,30.459,678.7l-13.4-5.6,7.067-11.7Z" transform="translate(-7.728 -299.553)" fill="#ffb9b9"/>
  <path id="Path_10614" data-name="Path 10614" d="M135.871,765.293s5.024-3.14,5.652-1.884,3.14,6.594,3.14,6.594l2.826,7.85s17.27,10.99,2.512,11.618-18.526-7.85-18.526-7.85S114.834,774.4,117.346,770s11.3-8.955,11.3-8.955S133.045,768.747,135.871,765.293Z" transform="translate(-117.087 -391.398)" fill="#2f2e41"/>
  <path id="Path_10615" data-name="Path 10615" d="M191.4,501.371l3.375,70.456s-30.8,63.706-34.173,65.394a8.473,8.473,0,0,0-4.219,5.063l-18.563-4.641,8.438-13.5L164.816,579a7.442,7.442,0,0,0,3.8-5.485c.844-4.219,2.531-4.219-1.688-5.063a5.24,5.24,0,0,1-4.219-5.063l-13.922-64.128Z" transform="translate(-126.475 -272.835)" fill="#2f2e41"/>
  <circle id="Ellipse_1069" data-name="Ellipse 1069" cx="16.876" cy="16.876" r="16.876" transform="translate(30.371 115.078) rotate(-80.783)" fill="#ffb9b9"/>
  <path id="Path_10616" data-name="Path 10616" d="M178.083,272.159s-1.266,21.517-2.953,23.626,17.72,1.688,17.72,1.688-1.266-18.141,0-19.829S178.083,272.159,178.083,272.159Z" transform="translate(-143.328 -169.98)" fill="#ffb9b9"/>
  <path id="Path_10617" data-name="Path 10617" d="M191.263,417.078s-47.674-4.218-56.532,0c0,0,3.261-12.1,2.418-13.36-.613-.925,1.078-35.381.547-55.257-.3-11.216-2.889-22.168,4.634-30.5a23.416,23.416,0,0,1,8.431-6.363s-.843-8.015,3.376-8.436c0,0,16.035-1.69,21.939,3.376,1.888,1.608,3.075,6.51,3.2,10.734-2.922,14.367-1.888,30.309.793,46.848.164,1.05.345,2.106.525,3.162C183.439,383.689,187.74,400.6,191.263,417.078Z" transform="translate(-125.078 -183.901)" fill="#575a89"/>
  <path id="Path_10618" data-name="Path 10618" d="M182.748,253.911a22.471,22.471,0,0,1,4.238.585,10.727,10.727,0,0,0,11.465-8,6.135,6.135,0,0,1,.586-1.911c.78-1.274,2.558-1.517,4.023-1.224a31.058,31.058,0,0,0,4.346,1.057,6.655,6.655,0,0,0,5.743-3.251,11.023,11.023,0,0,0,1.41-6.657l-1.1,1.159a5.609,5.609,0,0,1-.5-3.049,3.538,3.538,0,0,0-3.351.857c-.974.1-.239-1.806-.962-2.466a1.674,1.674,0,0,0-1.178-.22c-2.072.02-3.748-1.565-5.38-2.84a22.862,22.862,0,0,0-9.656-4.4,12.7,12.7,0,0,0-7.046.342,15.051,15.051,0,0,0-4.758,3.375c-3.473,3.34-6.549,7.264-7.994,11.861a19.967,19.967,0,0,0-.1,11.578c.582,1.965,2.337,8.7,4.906,8.852C180.669,259.755,178.731,254.151,182.748,253.911Z" transform="translate(-141.832 -147.814)" fill="#2f2e41"/>
  <path id="Path_10619" data-name="Path 10619" d="M194.868,328.181l6.046.648s5.935,11.514,5.5,13.916-1.37.944,1.3,4.786,10.251,13.775,11.19,15.233,26.528-18.066,24.937-23.916c0,0,8.082,5.8,11.544,6.57,0,0-26.372,34.586-30.047,39.013s-6.633,3.517-11.683.893-30.6-28.8-30.6-28.8Z" transform="translate(-146.967 -195.352)" fill="#575a89"/>
  <path id="Path_10620" data-name="Path 10620" d="M201.165,401.759l-21.014-21.014,5.318-1.734L200.64,398.6C200.8,399.647,200.985,400.7,201.165,401.759Z" transform="translate(-145.649 -218.373)" opacity="0.1" style="isolation: isolate"/>
</svg>
