<svg xmlns="http://www.w3.org/2000/svg" width="172" height="172" viewBox="0 0 172 172">
  <g id="Group_2460" data-name="Group 2460" transform="translate(-592 -2639)">
    <path id="Path_10570" data-name="Path 10570" d="M903.68,391.816a9.017,9.017,0,0,0-6.066,2.344H884.559V375.953H866.352V363.11a9.062,9.062,0,1,0-13.437,0v12.843H834.708V425.8h18.207v-7.538a9.062,9.062,0,1,1,13.438,0V425.8h18.206V407.6h13.055a9.058,9.058,0,1,0,6.066-15.781Z" transform="translate(-209.237 2296.47)" fill="#7684d8"/>
    <path id="Path_10571" data-name="Path 10571" d="M977.461,596.142V546.291H959.254v7.538a9.062,9.062,0,1,1-13.437,0v-7.538H927.609V564.5H914.555a9.062,9.062,0,1,0,0,13.437h13.055v18.207h18.207v12.843a9.062,9.062,0,1,0,13.438,0V596.142Z" transform="translate(-246.779 2181.434)" fill="#7684d8"/>
    <path id="Path_10572" data-name="Path 10572" d="M912.6,378.944a14.488,14.488,0,0,0-11.5,5.728h-2.074V365.7a2.725,2.725,0,0,0-2.726-2.724h-9.12a2.725,2.725,0,0,0,0,5.451h6.4V387.4a2.724,2.724,0,0,0,2.724,2.726h6.245a2.724,2.724,0,0,0,2.344-1.334,8.954,8.954,0,1,1,0,9.119,2.724,2.724,0,0,0-2.344-1.334H896.3a2.724,2.724,0,0,0-2.724,2.726v18.974H874.6A2.725,2.725,0,0,0,871.877,421v6.246a2.724,2.724,0,0,0,1.334,2.342,8.953,8.953,0,1,1-9.12,0,2.724,2.724,0,0,0,1.334-2.342V421a2.725,2.725,0,0,0-2.724-2.726H843.726V402.025H845.8a14.4,14.4,0,1,0,0-17.353h-2.075V368.423H878.1a2.725,2.725,0,0,0,0-5.451H822.026V360.9a14.405,14.405,0,1,0-17.354,0v2.075H785.7a2.726,2.726,0,0,0-2.726,2.726v74.275H780.9a14.4,14.4,0,1,0,0,17.354h2.075V476.3a2.726,2.726,0,0,0,2.726,2.727h9.665a2.725,2.725,0,0,0,0-5.451h-6.94V454.6a2.724,2.724,0,0,0-2.725-2.725h-6.246a2.727,2.727,0,0,0-2.344,1.334,8.953,8.953,0,1,1,0-9.12,2.725,2.725,0,0,0,2.344,1.334H785.7a2.724,2.724,0,0,0,2.726-2.724V423.724H807.4A2.725,2.725,0,0,0,810.123,421v-6.246a2.727,2.727,0,0,0-1.334-2.344,8.953,8.953,0,1,1,9.119,0,2.729,2.729,0,0,0-1.334,2.344V421a2.724,2.724,0,0,0,2.726,2.724h18.974v16.249H836.2a14.4,14.4,0,1,0,0,17.354h2.075v16.249H803.843a2.725,2.725,0,0,0,0,5.451h56.13V481.1a14.406,14.406,0,1,0,17.354,0v-2.075H896.3a2.726,2.726,0,0,0,2.726-2.727V402.025H901.1a14.4,14.4,0,1,0,11.5-23.081Zm-90.572,39.33V416.2a14.4,14.4,0,1,0-17.353,0v2.074H788.423V368.423H807.4a2.726,2.726,0,0,0,2.727-2.726v-6.245a2.725,2.725,0,0,0-1.334-2.342,8.954,8.954,0,1,1,9.12,0,2.731,2.731,0,0,0-1.335,2.344V365.7a2.724,2.724,0,0,0,2.726,2.724h18.974V387.4A2.726,2.726,0,0,0,841,390.123h6.246a2.724,2.724,0,0,0,2.342-1.334,8.953,8.953,0,1,1,0,9.12,2.725,2.725,0,0,0-2.342-1.335H841a2.726,2.726,0,0,0-2.726,2.726v18.974Zm71.552,36.087v19.216H874.6a2.724,2.724,0,0,0-2.726,2.724v6.246a2.728,2.728,0,0,0,1.334,2.344,8.953,8.953,0,1,1-9.12,0,2.729,2.729,0,0,0,1.334-2.344V476.3a2.723,2.723,0,0,0-2.724-2.724H843.726V454.6A2.725,2.725,0,0,0,841,451.877h-6.246a2.727,2.727,0,0,0-2.344,1.334,8.955,8.955,0,1,1,0-9.12,2.729,2.729,0,0,0,2.344,1.334H841a2.726,2.726,0,0,0,2.726-2.726V423.724h16.247V425.8a14.4,14.4,0,1,0,17.354,0v-2.075h16.249Zm0,0" transform="translate(-163 2304)" fill="#172d72"/>
  </g>
</svg>
