<svg xmlns="http://www.w3.org/2000/svg" width="96.091" height="136.434" viewBox="0 0 96.091 136.434">
  <g id="Group_2461" data-name="Group 2461" transform="translate(-1392 -2145.878)">
    <path id="Path_10566" data-name="Path 10566" d="M914.471,516.806h-1.8a2.813,2.813,0,0,1-1.7-5.056V471.593c0-10.148-2.717-19.652-7.651-26.763-4.715-6.8-10.884-10.54-17.369-10.54h-23.26c-6.485,0-12.654,3.743-17.37,10.54-4.934,7.11-7.651,16.614-7.651,26.763V511.75a2.813,2.813,0,0,1-1.7,5.056h-1.8c-.672.321-2.26,2.951-2.26,7.607s1.589,7.286,2.26,7.608h80.309c.67-.321,2.26-2.951,2.26-7.608s-1.589-7.285-2.26-7.607Zm-40.153-36.615a12.059,12.059,0,0,1,2.814,23.786v4.449a2.815,2.815,0,1,1-5.63,0v-4.449a12.08,12.08,0,0,1-9.246-11.726,2.815,2.815,0,1,1,5.63,0,6.43,6.43,0,1,0,6.43-6.429,12.06,12.06,0,0,1-2.814-23.787v-4.449a2.816,2.816,0,0,1,5.631,0v4.449a12.079,12.079,0,0,1,9.245,11.726,2.816,2.816,0,1,1-5.631,0,6.43,6.43,0,1,0-6.429,6.43Zm0,0" transform="translate(565.728 1744.661)" fill="#7684d8"/>
    <path id="Path_10567" data-name="Path 10567" d="M917.975,373.716l-1.254-4.039a2.816,2.816,0,0,1,5.379-1.668l1.771,5.707h.77l1.771-5.707a2.815,2.815,0,1,1,5.377,1.668l-1.253,4.039h2.454l8.738-19.551c-.586-.8-3.11-2.259-7.263-2.259-4.773,0-7.395,1.926-7.395,2.564a2.816,2.816,0,1,1-5.631,0c0-.639-2.623-2.564-7.4-2.564-4.152,0-6.679,1.459-7.263,2.259l8.74,19.551Zm0,0" transform="translate(515.791 1799.603)" fill="#dbdeef"/>
    <path id="Path_10568" data-name="Path 10568" d="M935.093,508.34a6.436,6.436,0,0,1,6.429,6.43,2.816,2.816,0,1,0,5.631,0,12.08,12.08,0,0,0-9.245-11.726V498.6a2.816,2.816,0,0,0-5.631,0v4.447a12.06,12.06,0,0,0,2.814,23.787,6.43,6.43,0,1,1-6.43,6.43,2.815,2.815,0,1,0-5.63,0,12.081,12.081,0,0,0,9.246,11.726v4.447a2.815,2.815,0,1,0,5.63,0v-4.447a12.06,12.06,0,0,0-2.814-23.787,6.43,6.43,0,0,1,0-12.861Zm0,0" transform="translate(504.953 1703.652)" fill="#172d72"/>
    <path id="Path_10569" data-name="Path 10569" d="M905.327,445.369V405.376c0-11.285-3.073-21.929-8.655-29.973-5.06-7.294-11.653-11.727-18.823-12.738l8.189-18.32a2.815,2.815,0,0,0,.245-1.149c0-4.672-5.6-8.2-13.026-8.2a16.7,16.7,0,0,0-10.21,2.988A16.711,16.711,0,0,0,852.835,335c-7.426,0-13.026,3.523-13.026,8.2a2.819,2.819,0,0,0,.245,1.149l8.189,18.32c-7.169,1.011-13.764,5.444-18.824,12.737-5.582,8.045-8.655,18.689-8.655,29.974v39.993C817.328,446.788,815,451.748,815,458.2c0,7.672,3.293,13.238,7.829,13.238h80.432c4.537,0,7.83-5.566,7.83-13.238,0-6.447-2.328-11.408-5.764-12.827ZM845.572,342.889c.586-.8,3.111-2.257,7.263-2.257,4.773,0,7.4,1.926,7.4,2.564a2.816,2.816,0,1,0,5.631,0c0-.639,2.622-2.564,7.395-2.564,4.153,0,6.678,1.459,7.263,2.259l-8.738,19.551h-2.454l1.253-4.039a2.815,2.815,0,1,0-5.377-1.669l-1.772,5.708h-.769l-1.772-5.708a2.815,2.815,0,0,0-5.378,1.669l1.253,4.039h-2.453ZM903.2,465.8H822.891c-.671-.321-2.26-2.951-2.26-7.608s1.589-7.285,2.26-7.606h1.8a2.813,2.813,0,0,0,1.7-5.056V405.376c0-10.148,2.717-19.652,7.651-26.763,4.715-6.8,10.885-10.54,17.37-10.54h23.259c6.485,0,12.654,3.743,17.37,10.54,4.934,7.11,7.651,16.614,7.651,26.763v40.157a2.813,2.813,0,0,0,1.7,5.056h1.8c.672.321,2.26,2.951,2.26,7.606s-1.59,7.286-2.261,7.608Zm0,0" transform="translate(577 1810.878)" fill="#172d72"/>
  </g>
</svg>
