<svg xmlns="http://www.w3.org/2000/svg" xmlns:xlink="http://www.w3.org/1999/xlink" width="118.336" height="127.336" viewBox="0 0 118.336 127.336">
  <defs>
    <clipPath id="clip-path">
      <rect id="Rectangle_2770" data-name="Rectangle 2770" width="118.336" height="127.336" fill="none"/>
    </clipPath>
  </defs>
  <g id="Group_2458" data-name="Group 2458" transform="translate(-2144.832 -2638.976)">
    <rect id="Rectangle_2765" data-name="Rectangle 2765" width="32.59" height="68.635" transform="translate(2160.03 2692.137)" fill="#7684d8"/>
    <rect id="Rectangle_2766" data-name="Rectangle 2766" width="42.546" height="22.755" transform="translate(2150.073 2664.141)" fill="#7684d8"/>
    <rect id="Rectangle_2767" data-name="Rectangle 2767" width="32.59" height="68.635" transform="translate(2215.37 2692.137)" fill="#7684d8"/>
    <rect id="Rectangle_2768" data-name="Rectangle 2768" width="42.546" height="22.755" transform="translate(2215.37 2664.141)" fill="#7684d8"/>
    <g id="Group_2457" data-name="Group 2457" transform="translate(2144.832 2638.976)" clip-path="url(#clip-path)">
      <path id="Path_10573" data-name="Path 10573" d="M0,0H12.272V96.631H0Z" transform="translate(53.026 25.166)" fill="#dbdeef"/>
      <path id="Path_10565" data-name="Path 10565" d="M884.705,355.147h-30.7a16.378,16.378,0,0,0,4.42-11.2c0-2.868-.742-4.974-2.27-6.439-2.533-2.431-6.247-2.276-10.544-2.1-1.174.05-2.387.1-3.628.1a16.439,16.439,0,0,0-13.821,7.553,16.441,16.441,0,0,0-13.821-7.553c-1.241,0-2.454-.051-3.628-.1-4.3-.179-8.011-.334-10.544,2.1-1.528,1.465-2.27,3.571-2.27,6.439a16.365,16.365,0,0,0,4.43,11.2H771.62a2.62,2.62,0,0,0-2.62,2.62v28a2.619,2.619,0,0,0,2.62,2.62h7.337v71.256a2.62,2.62,0,0,0,2.621,2.62h93.169a2.62,2.62,0,0,0,2.62-2.62V388.383H884.7a2.62,2.62,0,0,0,2.621-2.62v-28a2.62,2.62,0,0,0-2.62-2.62Zm-53.923-3.2a11.213,11.213,0,0,1,11.2-11.2c1.35,0,2.618-.053,3.846-.1,2.84-.118,5.777-.241,6.7.642a4.1,4.1,0,0,1,.658,2.657,11.215,11.215,0,0,1-11.2,11.2h-11.2ZM803.8,341.289c.6-.578,2.063-.725,3.8-.725.92,0,1.916.042,2.9.082,1.227.052,2.5.1,3.846.1a11.213,11.213,0,0,1,11.2,11.2v3.2h-11.2a11.215,11.215,0,0,1-11.2-11.2,4.1,4.1,0,0,1,.657-2.657Zm12.99,115.73H784.2V388.383h32.589Zm0-73.876H774.241V360.387h42.546ZM834.3,457.019H822.027V360.388H834.3Zm37.83,0H839.538V388.383h32.589Zm9.957-73.876H839.538V360.387h42.546Zm0,0" transform="translate(-769 -335.221)" fill="#172d72"/>
    </g>
  </g>
</svg>
