<svg xmlns="http://www.w3.org/2000/svg" width="70" height="72.5" viewBox="0 0 70 72.5">
  <g id="组_4153" data-name="组 4153" transform="translate(-920.758 -396)">
    <path id="路径_13410" data-name="路径 13410" d="M85.155,90.233a3.683,3.683,0,0,1-3.75,3.75h-60a3.683,3.683,0,0,1-3.75-3.75v-60a3.683,3.683,0,0,1,3.75-3.75h53.75l10,10Z" transform="translate(904.353 373.267)" fill="#fff"/>
    <path id="路径_13411" data-name="路径 13411" d="M129.526,35.31H88.276V54.06a3.683,3.683,0,0,0,3.75,3.75h33.75a3.683,3.683,0,0,0,3.75-3.75V35.31Z" transform="translate(843.731 365.69)" fill="#6c63ff"/>
    <path id="路径_13412" data-name="路径 13412" d="M73.828,87.656h-60a5.015,5.015,0,0,1-5-5v-60a5.015,5.015,0,0,1,5-5h54.25l10.75,10.75v54.25A5.015,5.015,0,0,1,73.828,87.656Zm-60-67.5a2.507,2.507,0,0,0-2.5,2.5v60a2.507,2.507,0,0,0,2.5,2.5h60a2.507,2.507,0,0,0,2.5-2.5V29.406l-9.25-9.25Z" transform="translate(911.93 380.844)" fill="#3f3d56"/>
    <path id="路径_13413" data-name="路径 13413" d="M187.646,33.828h-25a3.683,3.683,0,0,1-3.75-3.75V8.828h32.5v21.25A3.683,3.683,0,0,1,187.646,33.828Z" transform="translate(783.111 388.422)" fill="#fff"/>
    <path id="路径_13414" data-name="路径 13414" d="M180.069,27.5h-25a5.015,5.015,0,0,1-5-5V0h35V22.5A5.015,5.015,0,0,1,180.069,27.5Zm-27.5-25v20a2.507,2.507,0,0,0,2.5,2.5h25a2.507,2.507,0,0,0,2.5-2.5V2.5Z" transform="translate(790.688 396)" fill="#3f3d56"/>
    <path id="路径_13415" data-name="路径 13415" d="M135.776,304.905V277.4a3.683,3.683,0,0,0-3.75-3.75h-40a3.683,3.683,0,0,0-3.75,3.75v27.5" transform="translate(843.731 161.095)" fill="#6c63ff" opacity="0.1"/>
    <path id="路径_13416" data-name="路径 13416" d="M129.448,297.328h-2.5v-27.5a2.507,2.507,0,0,0-2.5-2.5h-40a2.507,2.507,0,0,0-2.5,2.5v27.5h-2.5v-27.5a5.015,5.015,0,0,1,5-5h40a5.015,5.015,0,0,1,5,5v27.5Z" transform="translate(851.31 168.672)" fill="#3f3d56"/>
    <path id="路径_13417" data-name="路径 13417" d="M313.966,55.388a2.507,2.507,0,0,1-2.5,2.5h0a2.507,2.507,0,0,1-2.5-2.5v-8.75a2.507,2.507,0,0,1,2.5-2.5h0a2.507,2.507,0,0,1,2.5,2.5Z" transform="translate(654.292 358.112)" fill="#6c63ff"/>
    <rect id="矩形_3528" data-name="矩形 3528" width="2.5" height="2.5" transform="translate(925.758 458.5)" fill="#ff6584"/>
    <rect id="矩形_3529" data-name="矩形 3529" width="2.5" height="2.5" transform="translate(983.258 458.5)" fill="#ff6584"/>
    <g id="组_4132" data-name="组 4132" transform="translate(-17 -43)">
      <rect id="矩形_3530" data-name="矩形 3530" width="12.207" height="2.5" transform="translate(954.258 484)" fill="#3f3d56"/>
      <rect id="矩形_3531" data-name="矩形 3531" width="12.207" height="2.5" transform="translate(954.258 490.5)" fill="#3f3d56"/>
    </g>
    <g id="组_4131" data-name="组 4131" transform="translate(918.479 436)">
      <rect id="矩形_3463" data-name="矩形 3463" width="2" height="13" transform="translate(36.521 14)" fill="#3f3d56"/>
      <path id="路径_13355" data-name="路径 13355" d="M217.219,138.894l-6.819-6.819,1.675-1.675,5.145,5.145,5.145-5.145,1.675,1.675Z" transform="translate(-179.414 -110.646)" fill="#3f3d56"/>
      <rect id="矩形_3464" data-name="矩形 3464" width="2" height="2" transform="translate(36.521 10)" fill="#3f3d56"/>
      <rect id="矩形_3465" data-name="矩形 3465" width="2" height="2" transform="translate(36.521 6)" fill="#3f3d56"/>
      <rect id="矩形_3466" data-name="矩形 3466" width="2" height="2" transform="translate(36.521 2)" fill="#3f3d56"/>
    </g>
  </g>
</svg>
