<svg xmlns="http://www.w3.org/2000/svg" width="80" height="80" viewBox="0 0 80 80">
  <g id="组_4152" data-name="组 4152" transform="translate(-800 -401)">
    <circle id="椭圆_1146" data-name="椭圆 1146" cx="40" cy="40" r="40" transform="translate(800 401)" fill="#f0efff"/>
    <rect id="矩形_3554" data-name="矩形 3554" width="22.391" height="41.893" transform="translate(808.668 424.835)" fill="#fff"/>
    <path id="路径_13440" data-name="路径 13440" d="M239.726,113.106V56H200v57.106" transform="translate(631.036 353.69)" fill="#fff"/>
    <g id="组_4146" data-name="组 4146">
      <path id="路径_13440-2" data-name="路径 13440" d="M50.483,183.726H48V145.241A1.173,1.173,0,0,1,49.241,144H71.587v2.483h-21.1Z" transform="translate(759.448 279.346)" fill="#3f3d56"/>
      <path id="路径_13441" data-name="路径 13441" d="M234.209,102.623h-2.483V50.483H194.483v52.14H192V49.241A1.173,1.173,0,0,1,193.241,48h39.726a1.173,1.173,0,0,1,1.241,1.241Z" transform="translate(637.794 360.449)" fill="#3f3d56"/>
      <path id="路径_13443" data-name="路径 13443" d="M246.207,103.449h-4.966A1.173,1.173,0,0,1,240,102.207V97.241A1.173,1.173,0,0,1,241.241,96h4.966a1.173,1.173,0,0,1,1.241,1.241v4.966A1.173,1.173,0,0,1,246.207,103.449Zm-3.724-2.483h2.483V98.483h-2.483Z" transform="translate(597.243 319.897)" fill="#3f3d56"/>
      <path id="路径_13444" data-name="路径 13444" d="M310.207,103.449h-4.966A1.173,1.173,0,0,1,304,102.207V97.241A1.173,1.173,0,0,1,305.241,96h4.966a1.173,1.173,0,0,1,1.241,1.241v4.966A1.173,1.173,0,0,1,310.207,103.449Zm-3.724-2.483h2.483V98.483h-2.483Z" transform="translate(543.174 319.897)" fill="#3f3d56"/>
      <path id="路径_13445" data-name="路径 13445" d="M374.207,103.449h-4.966A1.173,1.173,0,0,1,368,102.207V97.241A1.173,1.173,0,0,1,369.241,96h4.966a1.173,1.173,0,0,1,1.241,1.241v4.966A1.173,1.173,0,0,1,374.207,103.449Zm-3.724-2.483h2.483V98.483h-2.483Z" transform="translate(489.105 319.897)" fill="#3f3d56"/>
      <path id="路径_13446" data-name="路径 13446" d="M246.207,167.449h-4.966A1.173,1.173,0,0,1,240,166.207v-4.966A1.173,1.173,0,0,1,241.241,160h4.966a1.173,1.173,0,0,1,1.241,1.241v4.966A1.173,1.173,0,0,1,246.207,167.449Zm-3.724-2.483h2.483v-2.483h-2.483Z" transform="translate(597.243 265.829)" fill="#3f3d56"/>
      <path id="路径_13447" data-name="路径 13447" d="M310.207,167.449h-4.966A1.173,1.173,0,0,1,304,166.207v-4.966A1.173,1.173,0,0,1,305.241,160h4.966a1.173,1.173,0,0,1,1.241,1.241v4.966A1.173,1.173,0,0,1,310.207,167.449Zm-3.724-2.483h2.483v-2.483h-2.483Z" transform="translate(543.174 265.829)" fill="#3f3d56"/>
      <path id="路径_13448" data-name="路径 13448" d="M374.207,167.449h-4.966A1.173,1.173,0,0,1,368,166.207v-4.966A1.173,1.173,0,0,1,369.241,160h4.966a1.173,1.173,0,0,1,1.241,1.241v4.966A1.173,1.173,0,0,1,374.207,167.449Zm-3.724-2.483h2.483v-2.483h-2.483Z" transform="translate(489.105 265.829)" fill="#3f3d56"/>
      <path id="路径_13449" data-name="路径 13449" d="M246.207,231.449h-4.966A1.173,1.173,0,0,1,240,230.207v-4.966A1.173,1.173,0,0,1,241.241,224h4.966a1.173,1.173,0,0,1,1.241,1.241v4.966A1.173,1.173,0,0,1,246.207,231.449Zm-3.724-2.483h2.483v-2.483h-2.483Z" transform="translate(597.243 211.76)" fill="#3f3d56"/>
      <path id="路径_13450" data-name="路径 13450" d="M310.207,231.449h-4.966A1.173,1.173,0,0,1,304,230.207v-4.966A1.173,1.173,0,0,1,305.241,224h4.966a1.173,1.173,0,0,1,1.241,1.241v4.966A1.173,1.173,0,0,1,310.207,231.449Zm-3.724-2.483h2.483v-2.483h-2.483Z" transform="translate(543.174 211.76)" fill="#3f3d56"/>
      <path id="路径_13451" data-name="路径 13451" d="M374.207,231.449h-4.966A1.173,1.173,0,0,1,368,230.207v-4.966A1.173,1.173,0,0,1,369.241,224h4.966a1.173,1.173,0,0,1,1.241,1.241v4.966A1.173,1.173,0,0,1,374.207,231.449Zm-3.724-2.483h2.483v-2.483h-2.483Z" transform="translate(489.105 211.76)" fill="#3f3d56"/>
      <path id="路径_13452" data-name="路径 13452" d="M246.207,295.449h-4.966A1.173,1.173,0,0,1,240,294.207v-4.966A1.173,1.173,0,0,1,241.241,288h4.966a1.173,1.173,0,0,1,1.241,1.241v4.966A1.173,1.173,0,0,1,246.207,295.449Zm-3.724-2.483h2.483v-2.483h-2.483Z" transform="translate(597.243 157.692)" fill="#3f3d56"/>
      <path id="路径_13453" data-name="路径 13453" d="M310.207,295.449h-4.966A1.173,1.173,0,0,1,304,294.207v-4.966A1.173,1.173,0,0,1,305.241,288h4.966a1.173,1.173,0,0,1,1.241,1.241v4.966A1.173,1.173,0,0,1,310.207,295.449Zm-3.724-2.483h2.483v-2.483h-2.483Z" transform="translate(543.174 157.692)" fill="#3f3d56"/>
      <path id="路径_13454" data-name="路径 13454" d="M374.207,295.449h-4.966A1.173,1.173,0,0,1,368,294.207v-4.966A1.173,1.173,0,0,1,369.241,288h4.966a1.173,1.173,0,0,1,1.241,1.241v4.966A1.173,1.173,0,0,1,374.207,295.449Zm-3.724-2.483h2.483v-2.483h-2.483Z" transform="translate(489.105 157.692)" fill="#3f3d56"/>
      <rect id="矩形_3554-2" data-name="矩形 3554" width="4.334" height="2.167" transform="translate(837.559 455.894)" fill="#3f3d56"/>
      <rect id="矩形_3555" data-name="矩形 3555" width="4.334" height="2.167" transform="translate(859.95 455.894)" fill="#3f3d56"/>
    </g>
    <g id="组_4148" data-name="组 4148">
      <rect id="矩形_3534" data-name="矩形 3534" width="2.167" height="2.889" transform="translate(813.723 430.614)" fill="#ff6584"/>
      <rect id="矩形_3535" data-name="矩形 3535" width="2.167" height="2.889" transform="translate(818.779 430.614)" fill="#ff6584"/>
      <rect id="矩形_3536" data-name="矩形 3536" width="2.167" height="2.889" transform="translate(823.835 430.614)" fill="#ff6584"/>
      <rect id="矩形_3537" data-name="矩形 3537" width="2.167" height="2.889" transform="translate(813.723 435.67)" fill="#ff6584"/>
      <rect id="矩形_3538" data-name="矩形 3538" width="2.167" height="2.889" transform="translate(818.779 435.67)" fill="#ff6584"/>
      <rect id="矩形_3539" data-name="矩形 3539" width="2.167" height="2.889" transform="translate(823.835 435.67)" fill="#ff6584"/>
      <rect id="矩形_3540" data-name="矩形 3540" width="2.167" height="2.167" transform="translate(813.723 440.726)" fill="#ff6584"/>
      <rect id="矩形_3541" data-name="矩形 3541" width="2.167" height="2.167" transform="translate(818.779 440.726)" fill="#ff6584"/>
      <rect id="矩形_3542" data-name="矩形 3542" width="2.167" height="2.167" transform="translate(823.835 440.726)" fill="#ff6584"/>
      <rect id="矩形_3543" data-name="矩形 3543" width="2.167" height="2.167" transform="translate(813.723 445.782)" fill="#ff6584"/>
      <rect id="矩形_3544" data-name="矩形 3544" width="2.167" height="2.167" transform="translate(818.779 445.782)" fill="#ff6584"/>
      <rect id="矩形_3545" data-name="矩形 3545" width="2.167" height="2.167" transform="translate(823.835 445.782)" fill="#ff6584"/>
      <rect id="矩形_3546" data-name="矩形 3546" width="2.167" height="2.167" transform="translate(813.723 450.838)" fill="#ff6584"/>
      <rect id="矩形_3547" data-name="矩形 3547" width="2.167" height="2.167" transform="translate(818.779 450.838)" fill="#ff6584"/>
      <rect id="矩形_3548" data-name="矩形 3548" width="2.167" height="2.167" transform="translate(823.835 450.838)" fill="#ff6584"/>
      <rect id="矩形_3549" data-name="矩形 3549" width="2.167" height="2.167" transform="translate(813.723 455.894)" fill="#ff6584"/>
      <rect id="矩形_3550" data-name="矩形 3550" width="2.167" height="2.167" transform="translate(818.779 455.894)" fill="#ff6584"/>
      <rect id="矩形_3551" data-name="矩形 3551" width="2.167" height="2.167" transform="translate(823.835 455.894)" fill="#ff6584"/>
    </g>
    <rect id="矩形_3556" data-name="矩形 3556" width="10" height="9" transform="translate(846 457)" fill="#6c63ff"/>
    <path id="路径_13455" data-name="路径 13455" d="M299.173,364.414h-9.931A1.173,1.173,0,0,1,288,363.173v-9.932A1.173,1.173,0,0,1,289.241,352h9.931a1.173,1.173,0,0,1,1.241,1.241v9.932A1.173,1.173,0,0,1,299.173,364.414Zm-8.69-2.483h7.449v-7.449h-7.449Z" transform="translate(556.691 103.624)" fill="#3f3d56"/>
    <g id="组_4149" data-name="组 4149" transform="translate(0 -13)">
      <path id="路径_13439" data-name="路径 13439" d="M0,0H62.117V5.056H0Z" transform="translate(808.668 478.729)" fill="#6c63ff"/>
      <path id="路径_13423" data-name="路径 13423" d="M111.313,423.449H49.241A1.173,1.173,0,0,1,48,422.207v-4.966A1.173,1.173,0,0,1,49.241,416h62.072a1.173,1.173,0,0,1,1.241,1.241v4.966A1.173,1.173,0,0,1,111.313,423.449Zm-60.83-2.483h59.589v-2.483H50.483Z" transform="translate(759.448 61.555)" fill="#3f3d56"/>
    </g>
  </g>
</svg>
