<svg xmlns="http://www.w3.org/2000/svg" width="141.864" height="58.899" viewBox="0 0 141.864 58.899">
  <g id="Group_2448" data-name="Group 2448" transform="translate(-859.203 -1336)">
    <g id="Group_2448-2" data-name="Group 2448" transform="translate(-1771 591.707)">
      <path id="Path_10573" data-name="Path 10573" d="M66.59,77.441a2.027,2.027,0,0,0,1.392-3.421c-.817-.8-5.329-4.151-6.506-5.468-.546-.611-1.287-.911-1.6-1.6-.721-1.58-1.227-3.835-.312-5.454.166-.293.272-.162.146.448-.719,3.455,1.531,6.277,2.026,4.83.342-1,.025-2.789.208-4.209.324-2.514,2.612-7.341,3.617-7.617-1.55-2.871,1.818-5.119,1.777-7.639-.027-1.639,1.439,2.015,2.913,2.789,1.646.865,3.455-1.63,6.023-2.9.726-.358,1.658-.77,1.6-1.075-.3-1.474-3.373,1.818-6.116,1.929a2.509,2.509,0,0,1-2.2-.713c-1.462-1.413.149-.234,2.322-.627a9.443,9.443,0,0,0,2.316-.75,30.68,30.68,0,0,1,3.357-1.342c.807-.219.74-.826.426-1.009-.181-.1-.449-.095-.661.272-.5.861-2.839,1.358-3.568,1.581a9.507,9.507,0,0,1-3.354.5c-2.094-.085-1.606-1.045-3.1-1.9-.439-.252-.32-.913.263-1.5.306-.306,1.144-.479,1.559-1.174a5.766,5.766,0,0,1,1.013-.948c.145-.1.158-2.657-1.154-2.71-1.114-.045-1.431.819-1.384,1.68s.5,1.57.806,1.567c.585-.006.037.64-.283.744-.487.159-1.154-1.916-1.077-2.912.08-1.037.62-2.874,1.933-2.839,1.182.032,2.039,1.514,2,4.071-.008.434,1.917-.207,2.56.472.459.485-1.574-4.53,2.953-4.875,1.192.228,2.338.625,2.814,3.367-.176.285.3,2.2-.439,2.425-.9.277-1.453-.04-.934-.9.356-.859.008-3.045-1.81-2.914s-1.577,3.357-1.079,3.421,1.754.954,2.631,1.125c2.876.56.763,2.209,1.136,4.2.422,2.254,1.906,1.659,3.241,7.628.279.364,1.383.708,2.461,5.294.969,4.125-.4,7.126,1.926,6.879a1.68,1.68,0,0,0,1.625-1.371c.872-3.055-.437-6.7-1.757-9.153a11.544,11.544,0,0,0-1.876-2.743,10.84,10.84,0,0,1,3.9,5.875c.587,2.788,1,3.967.118,6.915.512.256,1.787.8,1.787,1.406-1.327-1.091-5.392-1.285-5.5,1.324a1.937,1.937,0,0,0-1.663.6c-1.634,1.939-.117,5.834-.283,7.921-.146,1.838-.656,3.659-.944,5.5-.972-.037-.877-.749-.565-1.748a11.668,11.668,0,0,0,.748-3.045c.027-.959-.078-1.557-.32-1.706s-.621.152-1.143.995c-1.116,1.8-3.534,2.588-5.792,2.871s-4.356.058-5.468-1.187c-.38-.426-1.01.116-1.085.229-.1.151.368.445.721,1.093.516.945,1.005,2.38-.215,3.035.016-3.328-1.038-3.524-2.115-5.558Zm-.807-.088c.809,1.274,3.66,6.636-1.338,7.332-1.671.233-4.362-.973-6.97-1.611-2.342-.573-4.721-.912-6.053-1.287-.8-.224-1.137-.512-1.206-.849-.185-.89.973-2.138,1.032-3.191a4.881,4.881,0,0,0-.747-2.461c-.364-.863-.458-1.508-.167-1.877.226-.287.686-.407,1.434-.334a4.925,4.925,0,0,0,2.708-.475,2.9,2.9,0,0,0,1.057-3.488,2.707,2.707,0,0,1-1.756,2.8c-1.183.658-3.009.126-3.848.854-1.01.876.361,3.139.248,4.8-.086,1.276-1.418,2.713-.824,3.993s3.383,1.429,6.288,2.035c4.129.864,6.536,2.368,8.443,2.438,2.783.1,3.209-2.753,7.578-2.792,1.274-.067,2.521-.106,3.766-.122,1.411-.018,2.82-.006,4.267.029,2.908.07,1.908,1.588,3.794,2.557,1.592.817,4.454.495,5.138-.159a27.883,27.883,0,0,1,5.32-3.97c2.375-1.2,7.954-3.258,3.9-5.77-.944-.586-3.176-1.205-3.363-5.489-.845.751-.747,4.742,1.611,5.534,2.634.885,4.279,2.366-.617,4.041a14.7,14.7,0,0,0-6.359,3.586c-2.6,2.162-6.45,1.3-5.778-3.248a14.606,14.606,0,0,0-.037-6.392,7.284,7.284,0,0,1-.235-3.2c.383-1.761,1.336-2.291,2.271-.6.586,1.061.792,2.3,2.892,2.4,3.3.158,3.952-3.188,5.006-3.34.7-.1,1.406-2.092.871-5.312-.574-3.447-2.6-8.89-5.2-11.65a16.93,16.93,0,0,1-4.382-7.176,20.059,20.059,0,0,1-.973-7A11.287,11.287,0,0,0,79.57,29.1a11.149,11.149,0,0,0-6.408-1.805,7.426,7.426,0,0,0-3.409.7c-3.807,2.067-4.339,5.02-4.282,8.39.054,3.165.161,6.778.521,10.214-.426,1.578-2.643,4.569-4.062,6.389-1.908,1.885-2.872,5.529-4.107,8.712-.659,1.7-1.768,2.464-1.862,4.646-.026.611,0,2.189.578,1.737C58.771,66.359,61.564,70.712,65.784,77.353ZM77.369,31.725c-.12.36-.615.659-.3.911s.495-.352,1.128-.578c.164-.059.924.024,1.064-.337.061-.158-.393-.338-.662-.6s-.535-.487-.789-.471C77.153,30.7,77.475,31.406,77.369,31.725Zm3.879,13.126c.236-.247.357.427.991.827.5.317.991.082,1.118.724.091.461-.2.96-.583.895C82.1,47.184,80.552,45.583,81.247,44.851ZM70.779,40.8c-1.044-.078-1.116.677-.77.664S70.145,40.867,70.779,40.8Zm-1.791-1.928c.123-.027.3.183.244.478-.076.409-.043.666.241.666.047,0,.1-.009.115-.115a1.451,1.451,0,0,0-.461-1.458C68.729,38.342,68.777,38.918,68.988,38.872Zm7.6-.345c.265.079.52.537.575,1.032.005.046.346-.071.348-.179a1.115,1.115,0,0,0-.837-1.156C76.264,38.262,76.38,38.466,76.587,38.528Zm-3.9,2.37c.95-.44,1.282.242.954.351S73.308,40.737,72.692,40.9ZM61.226,57.072c-.449-.055.131-.392.376-.816.27-.467.218-1.05.5-.963s.126.412-.068.947C61.87,56.7,61.392,57.092,61.226,57.072Z" transform="translate(2581 717)" fill="#172d72" fill-rule="evenodd"/>
    </g>
    <g id="vF5thh.tif" transform="translate(385.111 1010.01)">
      <g id="Group_2449" data-name="Group 2449" transform="translate(541.889 344.99)">
        <path id="Path_10574" data-name="Path 10574" d="M637.13,372.067l-2.035-.788a10,10,0,0,1,1.81-1.133c1.116-.41,2.293-.654,3.582-1l.161,1.808c.969-.423,1.863-.86,2.791-1.208,3.473-1.3,5.722.092,5.925,3.8.134,2.443.058,4.9.032,7.35-.009.869.173,1.414,1.19,1.487.324.023.615.5.922.77l-.215.336h-6.725c-.3-.619-.261-1.02.622-1.22a1.308,1.308,0,0,0,.809-.937c.054-2.36.122-4.731-.044-7.082a3.193,3.193,0,0,0-5.073-2.106,1.112,1.112,0,0,0-.287.793c-.021,2.757-.049,5.515.028,8.269.011.384.579.756.9,1.128.266.312.54.617,1.039,1.184H635.4c-.31-.767-.078-1.073.728-1.241.382-.08.949-.608.956-.944C637.159,378.185,637.13,375.043,637.13,372.067Z" transform="translate(-610.601 -362.794)" fill="#172d72"/>
        <path id="Path_10575" data-name="Path 10575" d="M717.157,384.16h-5.012L712,382.7a17.663,17.663,0,0,1-2.124,1.04,10.679,10.679,0,0,1-2.9.693,3.134,3.134,0,0,1-3.536-2.956c-.237-2.473-.193-4.973-.265-7.462-.015-.516,0-1.034,0-1.6l-1.763-.149c-.007-1.182,2.832-2.419,5.209-2.222,0,1.451,0,2.924,0,4.4,0,1.444-.025,2.889.006,4.333.059,2.789,1.317,3.766,4.059,3.263,1-.183,1.468-.534,1.417-1.7-.113-2.613-.035-5.234-.035-7.918l-1.752-.148c-.062-1.215,2.639-2.412,5.178-2.242v1.357c0,3.37.016,6.74-.011,10.11-.007.839.076,1.443,1.129,1.521.311.023.588.521.88.8Z" transform="translate(-659.49 -363.44)" fill="#172d72"/>
        <path id="Path_10576" data-name="Path 10576" d="M541.962,351.107h7.958c.329.825.186,1.319-.833,1.285-.76-.026-1.28.213-1.277,1.1q.026,7.42.042,14.84c0,.078.069.156.167.362,1.635,0,3.334.054,5.025-.046.331-.02.8-.592.9-.987a22.791,22.791,0,0,0,.376-2.823h1.966v5.324H541.963l-.066-1.115a9.6,9.6,0,0,1,.96-.114c.866-.012,1.257-.411,1.254-1.3-.017-4.685-.024-9.37.006-14.054.006-.955-.435-1.249-1.282-1.189C541.84,352.459,541.8,351.9,541.962,351.107Z" transform="translate(-541.889 -349.499)" fill="#172d72"/>
        <path id="Path_10577" data-name="Path 10577" d="M772.767,371.189l-1.474,1.66,2.328,3.474,2.448-3.51L774.6,371.52l.248-.358h5.2a5.4,5.4,0,0,1-.751,1.175c-.594.513-1.272.928-1.9,1.4a1.831,1.831,0,0,0-.307.423c-.782,1.093-2.131,2.159-2.183,3.286-.048,1.054,1.272,2.176,2,3.26a19.469,19.469,0,0,0,1.436,2.034,13.119,13.119,0,0,0,1.37,1.039A13.287,13.287,0,0,1,780.783,385h-6.894l-.227-.279,1.279-1.316-2.578-3.962-2.645,3.873,1.516,1.3-.237.364h-5.256c-.327-.716-.115-1.075.685-1.244a2.235,2.235,0,0,0,1.208-.64c1.251-1.516,2.431-3.091,3.709-4.738-1.272-1.82-2.518-3.654-3.834-5.435-.216-.292-.773-.309-1.114-.538a7.453,7.453,0,0,1-.921-.863l.221-.33Z" transform="translate(-706.717 -364.284)" fill="#172d72"/>
        <path id="Path_10578" data-name="Path 10578" d="M604.124,372.592h-1.77c-.079-1.2,3.006-2.54,5.167-2.243v9.67c0,.569.034,1.141-.008,1.707-.067.9.233,1.384,1.2,1.5.372.043.7.479,1.046.736l-.215.383h-7.16c-.174-.976-.153-.912.645-1.183.412-.14,1.038-.546,1.045-.845C604.153,379.129,604.124,375.943,604.124,372.592Z" transform="translate(-586.423 -363.654)" fill="#172d72"/>
        <path id="Path_10579" data-name="Path 10579" d="M610.553,344.991a2.044,2.044,0,0,1,2,2.146,2.043,2.043,0,1,1-4.086-.073A2.044,2.044,0,0,1,610.553,344.991Z" transform="translate(-590.974 -344.99)" fill="#172d72"/>
      </g>
    </g>
  </g>
</svg>
