<svg xmlns="http://www.w3.org/2000/svg" width="60" height="46.67" viewBox="0 0 60 46.67">
  <g id="组_4134" data-name="组 4134" transform="translate(-1158.846 -341.365)">
    <path id="路径_13456" data-name="路径 13456" d="M20.1,0A20.1,20.1,0,1,1,0,20.1,20.1,20.1,0,0,1,20.1,0Z" transform="translate(1178.639 347.817)" fill="#f0efff"/>
    <circle id="椭圆_1144" data-name="椭圆 1144" cx="4.93" cy="4.93" r="4.93" transform="translate(1186.149 350.775)" fill="#6c63ff"/>
    <g id="shuttle" transform="translate(1158.846 341.365)">
      <path id="路径_10646" data-name="路径 10646" d="M46.615,3.484A3.628,3.628,0,0,0,43.186.055,36.026,36.026,0,0,0,25.126,3.67a35.456,35.456,0,0,0-10.353,8.585l-.11.134-6.835.528a3.608,3.608,0,0,0-2.749,1.618L.416,21.587a2.5,2.5,0,0,0,1.7,3.848l5.758.892c-.02.112-.041.224-.059.336a3.626,3.626,0,0,0,1.016,3.154l8.021,8.021A3.635,3.635,0,0,0,19.419,38.9a3.574,3.574,0,0,0,.589-.049c.112-.019.224-.039.336-.059l.892,5.758a2.5,2.5,0,0,0,3.848,1.7l7.053-4.663a3.607,3.607,0,0,0,1.618-2.749l.528-6.835.134-.11A35.452,35.452,0,0,0,43,21.544a36.028,36.028,0,0,0,3.615-18.06ZM30.628,39.31l-6.746,4.46-.869-5.612a30.63,30.63,0,0,0,8.359-3.98l-.344,4.452a.891.891,0,0,1-.4.679ZM18.787,35.9l-8.021-8.021a.886.886,0,0,1-.253-.769,23.521,23.521,0,0,1,1.068-4.062L23.616,35.086a23.621,23.621,0,0,1-4.059,1.07.887.887,0,0,1-.769-.253ZM8.038,15.643l4.452-.344a30.628,30.628,0,0,0-3.98,8.359L2.9,22.789l4.46-6.746A.891.891,0,0,1,8.038,15.643ZM32.664,29.8a31.348,31.348,0,0,1-6.329,4.139l-13.6-13.6a31.891,31.891,0,0,1,4.14-6.329A32.631,32.631,0,0,1,26.382,6.1,33.259,33.259,0,0,1,43.037,2.785a.9.9,0,0,1,.848.848,33.256,33.256,0,0,1-3.313,16.655A32.631,32.631,0,0,1,32.664,29.8Z" transform="translate(0 0)" fill="#3f3d56"/>
      <path id="路径_10647" data-name="路径 10647" d="M282.559,99.985a6.831,6.831,0,1,0-4.834-2A6.817,6.817,0,0,0,282.559,99.985Zm-2.9-9.733a4.1,4.1,0,1,1-1.2,2.9A4.089,4.089,0,0,1,279.659,90.251Z" transform="translate(-250.59 -78.45)" fill="#3f3d56"/>
      <path id="路径_10648" data-name="路径 10648" d="M1.669,350.163a1.362,1.362,0,0,0,.967-.4L7.1,345.3a1.367,1.367,0,0,0-1.934-1.934L.7,347.829a1.367,1.367,0,0,0,.967,2.334Z" transform="translate(-0.274 -311.702)" fill="#3f3d56"/>
      <path id="路径_10649" data-name="路径 10649" d="M10.917,388.246a1.367,1.367,0,0,0-1.934,0L.4,396.828a1.367,1.367,0,1,0,1.934,1.933l8.582-8.582A1.367,1.367,0,0,0,10.917,388.246Z" transform="translate(0 -352.492)" fill="#3f3d56"/>
      <path id="路径_10650" data-name="路径 10650" d="M94.927,433.127l-4.464,4.464a1.367,1.367,0,1,0,1.934,1.934l4.464-4.464a1.367,1.367,0,1,0-1.934-1.934Z" transform="translate(-81.853 -393.282)" fill="#3f3d56"/>
    </g>
  </g>
</svg>
