<svg id="Group_28" data-name="Group 28" xmlns="http://www.w3.org/2000/svg" width="95.849" height="95.849" viewBox="0 0 95.849 95.849">
  <path id="Path_272" data-name="Path 272" d="M1520.817,271.883h29.937l12.258,11.662,1.089,26.131v13.645l-2.82,2.75h-40.37l-2.1-2.75V274.359Z" transform="translate(-1479.123 -270.025)" fill="#6c63ff"/>
  <g id="Computer-Accounting-File-Calculator-Financial">
    <path id="Path_258" data-name="Path 258" d="M1582.691,286.735h-1.6v-1.6a1.6,1.6,0,0,0-.469-1.129l-12.781-12.779a1.588,1.588,0,0,0-1.129-.468h-28.755a4.792,4.792,0,0,0-4.793,4.793v11.182h-6.389V275.553a4.792,4.792,0,0,0-4.793-4.793h-22.365a4.791,4.791,0,0,0-4.792,4.793V310.7a4.791,4.791,0,0,0,4.792,4.793H1510.8v23.963a8,8,0,0,0,7.988,7.988h18.957l-1.2,9.583h-1.784a4.793,4.793,0,1,0,0,9.585h31.949a4.793,4.793,0,0,0,0-9.585h-1.784l-1.2-9.583h18.957a8,8,0,0,0,7.986-7.988v-44.73A8,8,0,0,0,1582.691,286.735Zm-14.378-10.522,7.326,7.326h-5.729a1.6,1.6,0,0,1-1.6-1.6Zm-31.95-.66a1.6,1.6,0,0,1,1.6-1.6h27.159v7.988a4.792,4.792,0,0,0,4.791,4.793h7.988v36.742a1.6,1.6,0,0,1-1.6,1.6h-38.341a1.6,1.6,0,0,1-1.6-1.6ZM1498.025,310.7V275.553a1.6,1.6,0,0,1,1.6-1.6h22.365a1.6,1.6,0,0,1,1.6,1.6V310.7a1.6,1.6,0,0,1-1.6,1.6h-22.365A1.6,1.6,0,0,1,1498.025,310.7Zm23.961,4.793a4.792,4.792,0,0,0,4.793-4.793V289.929h6.389v33.548a4.794,4.794,0,0,0,4.793,4.793H1576.3a4.793,4.793,0,0,0,4.792-4.793V289.929h1.6a4.794,4.794,0,0,1,4.793,4.793v36.742H1514V315.489Zm46.327,46.327a1.6,1.6,0,0,1-1.6,1.6h-31.949a1.6,1.6,0,1,1,0-3.2h31.949A1.6,1.6,0,0,1,1568.313,361.816Zm-6.6-4.793h-21.939l1.2-9.583h19.545Zm20.981-12.779h-63.9a4.792,4.792,0,0,1-4.792-4.793v-4.793h73.484v4.793A4.793,4.793,0,0,1,1582.691,344.244Z" transform="translate(-1494.829 -270.76)" fill="#3f3d56"/>
    <path id="Path_259" data-name="Path 259" d="M1545.025,311.3h3.2V314.5h-3.2Z" transform="translate(-1461.955 -244.208)" fill="#3f3d56"/>
    <path id="Path_260" data-name="Path 260" d="M1516.263,282.343h-15.976a1.6,1.6,0,0,0-1.6,1.6v15.975a1.6,1.6,0,0,0,1.6,1.6h15.976a1.6,1.6,0,0,0,1.6-1.6V283.942A1.6,1.6,0,0,0,1516.263,282.343Zm-1.6,7.988h-4.792v-4.793h4.792Zm-7.987-4.793v4.793h-4.792v-4.793Zm-4.792,7.988h4.792v4.791h-4.792Zm7.987,4.791v-4.791h4.792v4.791Z" transform="translate(-1492.3 -263.174)" fill="#3f3d56"/>
    <path id="Path_261" data-name="Path 261" d="M1516.263,274.621h-15.976a1.6,1.6,0,0,0-1.6,1.6v6.39a1.6,1.6,0,0,0,1.6,1.6h15.976a1.6,1.6,0,0,0,1.6-1.6v-6.39A1.6,1.6,0,0,0,1516.263,274.621Zm-1.6,6.39h-12.779v-3.194h12.779Z" transform="translate(-1492.3 -268.231)" fill="#3f3d56"/>
    <path id="Path_262" data-name="Path 262" d="M1521.858,295.858h15.975v3.194h-15.975Z" transform="translate(-1477.128 -254.323)" fill="#3f3d56"/>
    <path id="Path_263" data-name="Path 263" d="M1533.441,295.858h15.975v3.194h-15.975Z" transform="translate(-1469.542 -254.323)" fill="#3f3d56"/>
    <path id="Path_264" data-name="Path 264" d="M1521.858,299.719h15.975v3.2h-15.975Z" transform="translate(-1477.128 -251.795)" fill="#3f3d56"/>
    <path id="Path_265" data-name="Path 265" d="M1533.441,299.719h15.975v3.2h-15.975Z" transform="translate(-1469.542 -251.795)" fill="#3f3d56"/>
    <path id="Path_266" data-name="Path 266" d="M1521.858,278.482h15.975v3.2h-15.975Z" transform="translate(-1477.128 -265.703)" fill="#3f3d56"/>
    <path id="Path_267" data-name="Path 267" d="M1521.858,274.621h3.194v3.2h-3.194Z" transform="translate(-1477.128 -268.231)" fill="#3f3d56"/>
    <path id="Path_268" data-name="Path 268" d="M1525.719,274.621h9.585v3.2h-9.585Z" transform="translate(-1474.599 -268.231)" fill="#3f3d56"/>
    <path id="Path_269" data-name="Path 269" d="M1533.407,282.343v1.6a4.793,4.793,0,0,0,0,9.585h3.194a1.6,1.6,0,1,1,0,3.194h-3.194a1.6,1.6,0,0,1-1.6-1.6h-3.194a4.793,4.793,0,0,0,4.793,4.793v1.6h3.194v-1.6a4.793,4.793,0,1,0,0-9.585h-3.194a1.6,1.6,0,1,1,0-3.2h3.194a1.6,1.6,0,0,1,1.6,1.6h3.194a4.791,4.791,0,0,0-4.793-4.793v-1.6Z" transform="translate(-1472.702 -263.174)" fill="#3f3d56"/>
    <path id="Path_270" data-name="Path 270" d="M1538.268,287.17h3.194v3.2h-3.194Z" transform="translate(-1466.381 -260.013)" fill="#3f3d56"/>
    <path id="Path_271" data-name="Path 271" d="M1524.753,287.17h3.2v3.2h-3.2Z" transform="translate(-1475.232 -260.013)" fill="#3f3d56"/>
  </g>
</svg>
