<svg id="Group_29" data-name="Group 29" xmlns="http://www.w3.org/2000/svg" width="91.02" height="94.159" viewBox="0 0 91.02 94.159">
  <path id="Path_300" data-name="Path 300" d="M1757.8,437.842h35.417l1.306,2.754V461.03l-2.661,2h-19.49l-5.791,7.551-.619-7.551h-7.25l-2.055-3.045Z" transform="translate(-1705.16 -436.106)" fill="#6c63ff"/>
  <g id="online-class">
    <path id="Path_292" data-name="Path 292" d="M1810.281,521.276a1.567,1.567,0,0,1-1.567,1.569h-15.7v-5.367a11.034,11.034,0,0,0-8.093-10.6l-9.169-2.494v-2.375a10.987,10.987,0,0,0,4.708-8.98v-2.972c.4-.184.654-.319.7-.333a1.568,1.568,0,0,0,.867-1.4V478.9l8.408-3.234a1.569,1.569,0,0,0,0-2.932l-20.4-7.846a1.572,1.572,0,0,0-1.125,0l-20.4,7.846a1.57,1.57,0,0,0-1.006,1.46v7.2l-4.248,4.248,2.219,2.219,2.029-2.029v2.489h3.137v-2.489l2.029,2.029,2.219-2.219-4.248-4.248v-4.9l6.277,2.423v9.416a1.568,1.568,0,0,0,.867,1.412c.049.025.3.151.7.333v2.964a10.763,10.763,0,0,0,4.708,8.983v2.371l-9.175,2.5a11.031,11.031,0,0,0-8.087,10.6v5.367h-15.692a1.568,1.568,0,0,1-1.569-1.569h0V460.072h43.939v-3.138h-43.939v-7.848a1.568,1.568,0,0,1,1.569-1.569h42.37v-3.139h-42.37a4.708,4.708,0,0,0-4.708,4.708v72.188a4.708,4.708,0,0,0,4.708,4.708h78.466a4.707,4.707,0,0,0,4.707-4.708V463.21h-3.138Zm-43.939-15.693v-2.041a10.672,10.672,0,0,0,6.275,0v2.041a1.554,1.554,0,0,0,.548,1.167l-3.686,3.072-3.684-3.07a1.558,1.558,0,0,0,.545-1.168Zm3.138-37.56,16.028,6.166-16.028,6.166-16.029-6.166Zm-.564,15.478a1.588,1.588,0,0,0,1.125,0l8.854-3.4v7.219a18.548,18.548,0,0,1-18.831,0V480.1Zm-7.283,9.519v-1.675a19.116,19.116,0,0,0,15.693,0v1.685a7.845,7.845,0,0,1-11.781,6.782,7.383,7.383,0,0,1-1.614-1.238,7.736,7.736,0,0,1-2.3-5.546Zm-12.554,24.45a7.884,7.884,0,0,1,5.779-7.573l7.4-2.012,6.214,5.186a1.568,1.568,0,0,0,2.011,0l6.214-5.178,7.4,2.011a7.891,7.891,0,0,1,5.786,7.575v5.367h-4.708v-6.275h-3.139v6.275h-25.11v-6.275h-3.138v6.275h-4.708Z" transform="translate(-1725.538 -431.825)" fill="#3f3d56"/>
    <path id="Path_293" data-name="Path 293" d="M1731.227,448.172h3.139v3.139h-3.139Z" transform="translate(-1721.812 -429.341)" fill="#3f3d56"/>
    <path id="Path_294" data-name="Path 294" d="M1735.021,448.172h3.139v3.139h-3.139Z" transform="translate(-1719.327 -429.341)" fill="#3f3d56"/>
    <path id="Path_295" data-name="Path 295" d="M1738.814,448.172h3.138v3.139h-3.138Z" transform="translate(-1716.843 -429.341)" fill="#3f3d56"/>
    <path id="Path_296" data-name="Path 296" d="M1791.976,436.793h-31.385a4.708,4.708,0,0,0-4.708,4.708v18.831a4.707,4.707,0,0,0,4.708,4.707h4.708v6.277a1.569,1.569,0,0,0,2.793.981l5.805-7.258h18.078a4.706,4.706,0,0,0,4.708-4.707V441.5A4.706,4.706,0,0,0,1791.976,436.793Zm1.569,23.539a1.569,1.569,0,0,1-1.569,1.569h-18.831a1.561,1.561,0,0,0-1.224.588l-3.482,4.352V463.47a1.569,1.569,0,0,0-1.569-1.567h-6.277a1.569,1.569,0,0,1-1.569-1.569V441.5a1.568,1.568,0,0,1,1.569-1.569h31.385a1.568,1.568,0,0,1,1.569,1.569Z" transform="translate(-1705.665 -436.793)" fill="#3f3d56"/>
    <path id="Path_297" data-name="Path 297" d="M1761.573,440.586h21.97v3.138h-21.97Z" transform="translate(-1701.938 -434.309)" fill="#3f3d56"/>
    <path id="Path_298" data-name="Path 298" d="M1761.573,444.379h21.97v3.139h-21.97Z" transform="translate(-1701.938 -431.825)" fill="#3f3d56"/>
    <path id="Path_299" data-name="Path 299" d="M1761.573,448.172h21.97v3.139h-21.97Z" transform="translate(-1701.938 -429.341)" fill="#3f3d56"/>
  </g>
</svg>
