<svg xmlns="http://www.w3.org/2000/svg" width="111.428" height="113.19" viewBox="0 0 111.428 113.19">
  <g id="Group_2079" data-name="Group 2079" transform="translate(-654 -288)">
    <g id="Group_26" data-name="Group 26" transform="translate(654 288)">
      <rect id="Rectangle_9" data-name="Rectangle 9" width="62.302" height="28.755" transform="translate(27.156 24.534)" fill="#6c63ff"/>
      <g id="refund">
        <path id="Path_247" data-name="Path 247" d="M1546.44,105.692a53.156,53.156,0,0,0-53.059,53.061,41.753,41.753,0,0,0,.187,4.839l3.724-.371a35.741,35.741,0,0,1-.187-4.473,49.337,49.337,0,1,1,51.2,49.343l4.1-4.1-2.607-2.613-8.751,8.751,8.751,8.749,2.607-2.608-4.472-4.472a53.071,53.071,0,0,0-1.486-106.111Z" transform="translate(-1487.796 -105.692)" fill="#3f3d56"/>
        <path id="Path_248" data-name="Path 248" d="M1572.777,119.192h-67.024V152.7h67.025Zm-3.724,29.788h-59.576V122.916h59.576Z" transform="translate(-1479.688 -96.851)" fill="#3f3d56"/>
        <path id="Path_249" data-name="Path 249" d="M1528.951,139.711a7.447,7.447,0,1,0-7.449-7.447A7.448,7.448,0,0,0,1528.951,139.711Zm0-11.171a3.724,3.724,0,1,1-3.725,3.724h0a3.735,3.735,0,0,1,3.725-3.724Z" transform="translate(-1469.374 -93.167)" fill="#3f3d56"/>
        <path id="Path_250" data-name="Path 250" d="M1513.976,127.416h3.724v-3.724h-7.446v7.447h3.724Z" transform="translate(-1476.74 -93.904)" fill="#3f3d56"/>
        <path id="Path_251" data-name="Path 251" d="M1517.7,134.166h-3.724v-3.724h-3.722v7.449h7.447Z" transform="translate(-1476.74 -89.483)" fill="#3f3d56"/>
        <path id="Path_252" data-name="Path 252" d="M1544.7,130.442h-3.725v3.724h-3.722v3.725h7.449Z" transform="translate(-1459.059 -89.483)" fill="#3f3d56"/>
        <path id="Path_253" data-name="Path 253" d="M1540.975,131.139h3.725v-7.447h-7.447v3.724h3.724Z" transform="translate(-1459.059 -93.904)" fill="#3f3d56"/>
        <path id="Path_254" data-name="Path 254" d="M1515.878,128.192h5.592v3.724h-5.592Z" transform="translate(-1473.057 -90.957)" fill="#3f3d56"/>
        <path id="Path_255" data-name="Path 255" d="M1532.754,128.192h5.592v3.724h-5.592Z" transform="translate(-1462.005 -90.957)" fill="#3f3d56"/>
        <path id="Path_256" data-name="Path 256" d="M1496.754,154.067h3.722v5.592h-3.722Z" transform="translate(-1485.582 -74.011)" fill="#3f3d56"/>
        <path id="Path_257" data-name="Path 257" d="M1583.091,157.673a6.994,6.994,0,0,0-6.889-6.888,6.293,6.293,0,0,0-1.86.185l-22.525,6.515c-.187,0-.559.187-.745,0l-5.214-.932a7.594,7.594,0,0,0,2.98-10.052,7.307,7.307,0,0,0-6.517-3.911h-23.46a5.237,5.237,0,0,0-2.793.746l-3.724,2.419v-2.792H1490v31.648h22.339v-4.655l18.432,7.634a5.167,5.167,0,0,0,3.724.187l43.567-13.592A6.6,6.6,0,0,0,1583.091,157.673Zm-74.473,13.219h-14.892v-24.2h7.447V157.86h3.723V146.69h3.724Zm24.948,3.354a1.578,1.578,0,0,1-1.3,0l-19.922-8.377V150.039l5.592-3.164a1.383,1.383,0,0,1,.932-.187h23.265a3.724,3.724,0,1,1,.018,7.447H1529.1V156l-.372,1.86,21.408,3.537a5.328,5.328,0,0,0,2.42-.187l22.525-6.515a3.177,3.177,0,0,1,3.905,2.221l.005.015a3.069,3.069,0,0,1-1.946,3.879l-.1.031Z" transform="translate(-1490.003 -81.526)" fill="#3f3d56"/>
      </g>
    </g>
  </g>
</svg>
