<svg id="Group_30" data-name="Group 30" xmlns="http://www.w3.org/2000/svg" width="107.956" height="92.671" viewBox="0 0 107.956 92.671">
  <path id="Path_288" data-name="Path 288" d="M1508.163,447.657l4.544-5.273,5.922-4.445,7.316-2.125,8.137-1.047,8.172,1.047,7.682,2.125,5.455,4.445,4.43,5.273-25.739,17.094Z" transform="translate(-1479.673 -433.326)" fill="#6c63ff"/>
  <circle id="Ellipse_11" data-name="Ellipse 11" cx="7.721" cy="7.721" r="7.721" transform="translate(33.473 54.88)" fill="#6c63ff"/>
  <g id="Group_2031" data-name="Group 2031" transform="translate(74.653 41.153)">
    <circle id="Ellipse_13" data-name="Ellipse 13" cx="2.574" cy="2.574" r="2.574" transform="translate(6.863)" fill="#6c63ff"/>
    <circle id="Ellipse_14" data-name="Ellipse 14" cx="2.574" cy="2.574" r="2.574" transform="translate(13.727 6.864)" fill="#6c63ff"/>
    <circle id="Ellipse_15" data-name="Ellipse 15" cx="2.574" cy="2.574" r="2.574" transform="translate(6.863 13.727)" fill="#6c63ff"/>
    <circle id="Ellipse_16" data-name="Ellipse 16" cx="2.574" cy="2.574" r="2.574" transform="translate(0 6.864)" fill="#6c63ff"/>
  </g>
  <circle id="Ellipse_12" data-name="Ellipse 12" cx="7.721" cy="7.721" r="7.721" transform="translate(60.928 54.88)" fill="#6c63ff"/>
  <path id="Path_287" data-name="Path 287" d="M1507.492,459.8c2.385,3.151,7.722,3.457,7.722,7.72,1.028,3.121-1.516,2.628-2.7,4.7-1.3,2.325-2.921,5.2-5.018,4.012-1.4-.8-2.264-2.545-4.05-4.012-1.469-1.178-3.674-2.241-3.674-4.7,0-1.94,2.75-1.723,4.294-3.469C1505.117,462.817,1505.166,459.8,1507.492,459.8Z" transform="translate(-1485.17 -416.931)" fill="#6c63ff"/>
  <g id="game-controller">
    <path id="Path_273" data-name="Path 273" d="M1528.345,444.163c-5.127,0-9.507,2.206-11.431,5.751a1.58,1.58,0,0,0,2.754,1.549l.025-.045c1.349-2.491,4.746-4.1,8.65-4.1s7.3,1.61,8.652,4.1a1.58,1.58,0,1,0,2.8-1.46l-.023-.045C1537.851,446.369,1533.472,444.163,1528.345,444.163Z" transform="translate(-1474.074 -427.172)" fill="#3f3d56"/>
    <path id="Path_274" data-name="Path 274" d="M1547.417,449.677a1.579,1.579,0,0,0,2.777-1.5c-3.149-5.814-10.393-9.425-18.9-9.425s-15.751,3.609-18.9,9.425a1.58,1.58,0,0,0,2.779,1.5c2.6-4.793,8.774-7.77,16.124-7.77S1544.819,444.884,1547.417,449.677Z" transform="translate(-1477.022 -430.718)" fill="#3f3d56"/>
    <path id="Path_275" data-name="Path 275" d="M1508.248,449.344a1.58,1.58,0,0,0,2.142-.637v0c3.9-7.189,13.112-11.66,24.045-11.66s20.145,4.471,24.046,11.66a1.579,1.579,0,1,0,2.777-1.506c-4.453-8.2-14.732-13.3-26.831-13.3s-22.365,5.1-26.823,13.307a1.578,1.578,0,0,0,.64,2.14Z" transform="translate(-1480.164 -433.896)" fill="#3f3d56"/>
    <path id="Path_276" data-name="Path 276" d="M1543.7,466.272a4.112,4.112,0,1,0-4.113-4.111A4.112,4.112,0,0,0,1543.7,466.272Zm0-5.064a.959.959,0,0,1,.946.96.948.948,0,1,1-.946-.96Z" transform="translate(-1459.091 -418.078)" fill="#3f3d56"/>
    <path id="Path_277" data-name="Path 277" d="M1543.707,465.9a4.113,4.113,0,1,0,4.108,4.119v-.007A4.117,4.117,0,0,0,1543.707,465.9Zm0,5.066a.959.959,0,1,1,.946-.97v.012A.958.958,0,0,1,1543.707,470.968Z" transform="translate(-1459.094 -412.935)" fill="#3f3d56"/>
    <path id="Path_278" data-name="Path 278" d="M1543.887,466.088a4.112,4.112,0,1,0-4.113,4.112A4.112,4.112,0,0,0,1543.887,466.088Zm-4.113.958a.8.8,0,1,0,0-.007Z" transform="translate(-1461.664 -415.506)" fill="#3f3d56"/>
    <path id="Path_279" data-name="Path 279" d="M1547.634,461.976a4.113,4.113,0,1,0,4.111,4.114v0A4.117,4.117,0,0,0,1547.634,461.976Zm0,5.066a.959.959,0,1,1,.958-.958.958.958,0,0,1-.958.958Z" transform="translate(-1456.519 -415.506)" fill="#3f3d56"/>
    <path id="Path_280" data-name="Path 280" d="M1517.623,468.115a7.488,7.488,0,1,0,7.488,7.489A7.487,7.487,0,0,0,1517.623,468.115Zm0,11.821a4.328,4.328,0,1,1,4.328-4.328,4.327,4.327,0,0,1-4.328,4.328Z" transform="translate(-1478.381 -411.486)" fill="#3f3d56"/>
    <path id="Path_281" data-name="Path 281" d="M1598.146,498.707l-7.609-31.415a16.964,16.964,0,0,0-6.462-10.237,14.75,14.75,0,0,0-2.09-1.241v-.639a5.966,5.966,0,0,0-5.957-5.963h-3.54a5.969,5.969,0,0,0-5.966,5.963v.9a7.852,7.852,0,0,0-2.886,2.477h-15.24a1.58,1.58,0,1,0,0,3.159h14.661v3.229a3.236,3.236,0,0,1-3.229,3.235h-29.8a3.239,3.239,0,0,1-3.234-3.235v-3.229H1541.1a1.58,1.58,0,0,0,0-3.159h-14.886a7.843,7.843,0,0,0-2.876-2.474v-.915a5.972,5.972,0,0,0-5.964-5.966h-3.546a5.972,5.972,0,0,0-5.966,5.966v.639a14.941,14.941,0,0,0-2.077,1.238,16.948,16.948,0,0,0-6.466,10.239l-7.611,31.428a17.305,17.305,0,0,0,.534,11.622,10.569,10.569,0,0,0,6.62,5.637c6.451,1.984,14-1.327,16.163-7.085l3.654-9.744c.47-1.253.844-1.413.847-1.415.043-.01.329.028.872.424,5.112,4.649,13.5,4.448,19.023-.369h11.01a15.257,15.257,0,0,0,9.209,3.733,13.377,13.377,0,0,0,9.815-3.365c.61-.447.869-.427.87-.424s.376.161.847,1.413l3.651,9.744c1.734,4.62,6.939,7.667,12.261,7.667a13.225,13.225,0,0,0,3.912-.578,10.562,10.562,0,0,0,6.615-5.638A17.3,17.3,0,0,0,1598.146,498.707Zm-25.661-46.344h3.542a2.8,2.8,0,0,1,2.752,2.3,17.659,17.659,0,0,0-4.113-.492h-.065a18.688,18.688,0,0,0-4.9.65A2.81,2.81,0,0,1,1572.485,452.363Zm-58.656,0h3.537a2.807,2.807,0,0,1,2.78,2.464,18.678,18.678,0,0,0-4.9-.652h-.055a17.742,17.742,0,0,0-4.122.492,2.808,2.808,0,0,1,2.752-2.3Zm76.238,60.583c-4.375,1.345-10.56-.581-12.284-5.175l-3.652-9.744a4.844,4.844,0,0,0-2.926-3.335,4.165,4.165,0,0,0-3.707.976c-.042.031-.081.065-.119.1-4.066,3.738-10.907,3.419-15.247-.712a1.58,1.58,0,0,0-1.09-.435h-12.233a1.578,1.578,0,0,0-1.089.435c-4.346,4.132-11.182,4.452-15.247.712a1.34,1.34,0,0,0-.122-.1,4.164,4.164,0,0,0-3.712-.975,4.828,4.828,0,0,0-2.921,3.336l-3.656,9.744c-1.723,4.594-7.9,6.52-12.278,5.177-4.9-1.508-6.724-6.426-5.011-13.5l7.612-31.415c1.375-5.673,4.427-8.4,7.465-9.67a1.6,1.6,0,0,0,.362-.146,14.269,14.269,0,0,1,4.991-.885,14.848,14.848,0,0,1,5.88,1.152l.078.035a4.965,4.965,0,0,1,2.468,1.867v4.559a6.4,6.4,0,0,0,6.39,6.39h29.813a6.4,6.4,0,0,0,6.39-6.39v-4.563a4.894,4.894,0,0,1,2.415-1.845,1.492,1.492,0,0,0,.223-.1,14.81,14.81,0,0,1,5.753-1.111h.056a14.273,14.273,0,0,1,4.985.887,1.547,1.547,0,0,0,.358.144c3.035,1.268,6.093,3.993,7.469,9.67l7.611,31.415C1596.789,506.518,1594.964,511.436,1590.067,512.945Z" transform="translate(-1490.948 -423.875)" fill="#3f3d56"/>
    <path id="Path_282" data-name="Path 282" d="M1536.178,468.115a7.488,7.488,0,1,0,7.489,7.489A7.488,7.488,0,0,0,1536.178,468.115Zm0,11.821a4.328,4.328,0,1,1,4.328-4.328,4.327,4.327,0,0,1-4.328,4.328Z" transform="translate(-1466.229 -411.486)" fill="#3f3d56"/>
    <path id="Path_283" data-name="Path 283" d="M1514.2,464.08h-.478v-.48a4.848,4.848,0,0,0-9.7,0h0v.48h-.478a4.847,4.847,0,1,0,0,9.694h.478v.48a4.848,4.848,0,0,0,9.7,0v-.48h.478a4.847,4.847,0,1,0,0-9.694Zm0,6.535h-2.057a1.58,1.58,0,0,0-1.58,1.58v2.06a1.686,1.686,0,1,1-3.373,0V472.2a1.58,1.58,0,0,0-1.58-1.58h-2.06a1.688,1.688,0,1,1,0-3.376h2.06a1.581,1.581,0,0,0,1.58-1.579V463.6a1.686,1.686,0,1,1,3.373,0v2.064a1.581,1.581,0,0,0,1.58,1.579h2.06a1.688,1.688,0,1,1,0,3.376Z" transform="translate(-1485.873 -417.617)" fill="#3f3d56"/>
    <path id="Path_284" data-name="Path 284" d="M1522.592,465.5H1520.3a1.58,1.58,0,0,0,0,3.159h2.294a1.58,1.58,0,0,0,0-3.159Z" transform="translate(-1472.759 -413.195)" fill="#3f3d56"/>
    <path id="Path_285" data-name="Path 285" d="M1528.991,465.5h-2.3a1.58,1.58,0,0,0,0,3.159h2.305a1.58,1.58,0,0,0,0-3.159Z" transform="translate(-1468.575 -413.195)" fill="#3f3d56"/>
    <path id="Path_286" data-name="Path 286" d="M1526.16,470.508h-2.294a1.58,1.58,0,0,0-.007,3.161h2.3a1.58,1.58,0,0,0,.006-3.161Z" transform="translate(-1470.426 -409.919)" fill="#3f3d56"/>
  </g>
</svg>
