<svg xmlns="http://www.w3.org/2000/svg" xmlns:xlink="http://www.w3.org/1999/xlink" width="647.554" height="487.825" viewBox="0 0 647.554 487.825">
  <defs>
    <linearGradient id="linear-gradient" x1="0.627" y1="0.5" x2="1.626" y2="0.5" gradientUnits="objectBoundingBox">
      <stop offset="0" stop-color="gray" stop-opacity="0.251"/>
      <stop offset="0.54" stop-color="gray" stop-opacity="0.122"/>
      <stop offset="1" stop-color="gray" stop-opacity="0.102"/>
    </linearGradient>
  </defs>
  <g id="Group_2447" data-name="Group 2447" transform="translate(-1049.926 -592.55)">
    <g id="Group_2445" data-name="Group 2445" transform="translate(-711 -216)">
      <path id="Path_10602" data-name="Path 10602" d="M543.651,625.807h-445V414.132h445Zm-442.945-2.056H541.6V416.188H100.707Z" transform="translate(1664.349 394.418)" fill="#3f3d56"/>
      <rect id="Rectangle_2773" data-name="Rectangle 2773" width="338.218" height="149.395" transform="translate(1771.939 856.491)" fill="#f2f2f2"/>
      <rect id="Rectangle_2774" data-name="Rectangle 2774" width="322.03" height="28.573" transform="translate(1788.74 846.451)" fill="#6c63ff"/>
      <rect id="Rectangle_2775" data-name="Rectangle 2775" width="281.101" height="7.723" transform="translate(1809.205 856.877)" fill="#3f3d56"/>
      <circle id="Ellipse_671" data-name="Ellipse 671" cx="10.812" cy="10.812" r="10.812" transform="translate(1938.557 849.54)" fill="#3f3d56"/>
      <rect id="Rectangle_2776" data-name="Rectangle 2776" width="168.352" height="80.315" transform="translate(1865.193 897.42)" fill="#6c63ff"/>
      <circle id="Ellipse_672" data-name="Ellipse 672" cx="15.445" cy="15.445" r="15.445" transform="translate(1933.924 922.132)" opacity="0.15"/>
      <circle id="Ellipse_673" data-name="Ellipse 673" cx="15.445" cy="15.445" r="15.445" transform="translate(1987.982 922.132)" fill="#fff" opacity="0.3"/>
      <circle id="Ellipse_674" data-name="Ellipse 674" cx="15.445" cy="15.445" r="15.445" transform="translate(1879.866 922.132)" opacity="0.3"/>
    </g>
    <g id="Group_2446" data-name="Group 2446" transform="translate(35 11)">
      <g id="undraw_visual_data_b1wx" transform="translate(1041.997 596.242)">
        <ellipse id="Ellipse_640" data-name="Ellipse 640" cx="38.592" cy="10.245" rx="38.592" ry="10.245" transform="translate(543.3 452.642)" fill="#6c63ff" opacity="0.1"/>
        <path id="Path_10580" data-name="Path 10580" d="M367.081,571.5V707.775q-14.93-.73-29.842-1.755l-4.529-.32V571.5a5.318,5.318,0,0,1,5.318-5.318h23.734a5.318,5.318,0,0,1,5.318,5.318Z" transform="translate(-158.142 -259.487)" fill="#3f3d56"/>
        <path id="Path_10581" data-name="Path 10581" d="M462.71,649.522V420.5a5.318,5.318,0,0,1,5.318-5.318h23.734a5.318,5.318,0,0,1,5.318,5.318v229.62Z" transform="translate(-209.752 -199.539)" fill="#3f3d56"/>
        <path id="Path_10582" data-name="Path 10582" d="M592.71,681.6V499.5a5.318,5.318,0,0,1,5.318-5.318h23.734a5.318,5.318,0,0,1,5.318,5.318V681.211Z" transform="translate(-261.363 -230.902)" fill="#3f3d56"/>
        <path id="Path_10583" data-name="Path 10583" d="M757.081,275.5V590.473q-17.185.488-34.371.917V275.5a5.318,5.318,0,0,1,5.318-5.318h23.734A5.318,5.318,0,0,1,757.081,275.5Z" transform="translate(-312.974 -141.973)" fill="#3f3d56"/>
        <path id="Path_10584" data-name="Path 10584" d="M887.081,380.5V629.535c-11.457.555-22.914.947-34.371,1.3V380.5a5.318,5.318,0,0,1,5.318-5.318h23.734a5.318,5.318,0,0,1,5.318,5.318Z" transform="translate(-364.584 -183.659)" fill="#3f3d56"/>
        <path id="Path_10585" data-name="Path 10585" d="M318.5,267.9l78.389-87.434,78.389,44.019L553.668,89.41l78.389,64.52" transform="translate(-126.445 -35.36)" fill="none" stroke="#3f3d56" stroke-linecap="round" stroke-miterlimit="10" stroke-width="7"/>
        <circle id="Ellipse_658" data-name="Ellipse 658" cx="16.884" cy="16.884" r="16.884" transform="translate(174.87 215.653)" fill="#6c63ff"/>
        <circle id="Ellipse_659" data-name="Ellipse 659" cx="16.884" cy="16.884" r="16.884" transform="translate(253.259 128.219)" fill="#6c63ff"/>
        <circle id="Ellipse_660" data-name="Ellipse 660" cx="16.884" cy="16.884" r="16.884" transform="translate(331.648 172.238)" fill="#6c63ff"/>
        <circle id="Ellipse_661" data-name="Ellipse 661" cx="16.884" cy="16.884" r="16.884" transform="translate(410.038 37.167)" fill="#6c63ff"/>
        <circle id="Ellipse_662" data-name="Ellipse 662" cx="16.884" cy="16.884" r="16.884" transform="translate(560.787 180.679)" fill="#6c63ff"/>
        <path id="Path_10590" data-name="Path 10590" d="M892.747,395.407a5.427,5.427,0,0,0,1.206,2.876,10.436,10.436,0,0,0,3.359,2.032,13.266,13.266,0,0,1,6.488,7.459c2.008,5.861,2.267,12.06,4.824,17.716s5.56,11.089,7.767,16.884c1.254,3.286,2.255,6.705,4.094,9.7a15.039,15.039,0,0,0,3.359,3.865c-.139,2.123-.193,4.221-.181,6.344a2.412,2.412,0,0,1,2.062,1.085,6.277,6.277,0,0,1,.9,2.261c.826,3.419-.193,7.061.549,10.5a53.4,53.4,0,0,1-1.809,28.727c-.826,2.34-1.863,10.082-.983,12.4,3.28-.332,6.187,1.682,9.256,3.015a12.735,12.735,0,0,1-.434,5.427c-1.1,3.178-1.1,6.633-1.079,9.992l.151,24.88a37.525,37.525,0,0,0,.832,9.407c.9,3.443,2.786,6.953,2.726,10.51-.163,7.658,3.455,14.954,3.166,22.552-.054,1.459-.253,2.906-.392,4.354a49.522,49.522,0,0,0,.289,11.571c1.1,7.634,4,15.141,3.274,22.817-.048.519-.223,1.206-.711,1.4.6.681,1.242,1.357,1.893,2a1.718,1.718,0,0,1-.525.549,5.332,5.332,0,0,1-2.3.6,4.877,4.877,0,0,0-2.635.856,3.792,3.792,0,0,0-1.1,2.014,5.427,5.427,0,0,0,.724,4.51,5.035,5.035,0,0,0,2.044,1.531c2.786,1.206,5.982.332,8.888-.549l11.385-3.449a3.834,3.834,0,0,0,1.851-.965,2.027,2.027,0,0,0,.452-.977c2.514.6,5.276-.139,7.839-.9l11.385-3.455a3.782,3.782,0,0,0,1.851-.965,2.207,2.207,0,0,0,.464-1.809c.084-.036.169-.06.253-.1.868-.392,1.809-1.158,1.6-2.08-.151-.6-.754-.953-1.013-1.507a2.177,2.177,0,0,1,.422-2.129c.446-.6,1.049-1.1,1.459-1.737,1.315-2.014.422-4.661-.072-7.019-1.067-5.035-.078-10.293-.754-15.394-.229-1.719-.645-3.407-.977-5.113A104.481,104.481,0,0,1,983.2,594.9c-.434-5.837-2.056-11.59-1.128-17.378a67.481,67.481,0,0,0,.573-10.251,44.614,44.614,0,0,0-.283-6.536c-.235-1.616-.651-3.2-.832-4.824a43.736,43.736,0,0,1-.1-5.481,54.217,54.217,0,0,0-1.122-12.132c-1.206-5.481-3.473-10.727-4.438-16.221.326.072.651.145.965.229.036-4.221-3.66-13.4-5.029-17.4a5.061,5.061,0,0,1-.362-1.538,16.584,16.584,0,0,1,.38-2.068c.175-1.459-.6-2.846-.814-4.305a10.1,10.1,0,0,1,.223-3.063c.971-5.4,2.177-10.751,3.383-16.1a17.148,17.148,0,0,0,.537-5.952,7.472,7.472,0,0,1,1.809-5.927,7.026,7.026,0,0,0,1.339-1.682,4.269,4.269,0,0,0,.265-1.682,27.033,27.033,0,0,0-1.085-7.326,18.963,18.963,0,0,0,1.761-6.518,105.839,105.839,0,0,0,1.326-14.852,25.173,25.173,0,0,0-1.085-7.839,31.112,31.112,0,0,0-2.062-4.547c-3.172-6.108-6.2-12.536-10.209-18.132-1.206-1.7-.446-4.046-.362-6.145.09-2.533-.911-4.963-1.893-7.29a11.963,11.963,0,0,0-2.267-3.9,3.685,3.685,0,0,0-2.653-1.206,4,4,0,0,0-2.828,1.731,9.328,9.328,0,0,0-1.694,6.977,13.489,13.489,0,0,0,3.069,6.591,14.933,14.933,0,0,0,2.647,2.515q1.5,4.752,3.015,9.5A118.482,118.482,0,0,0,969.677,427a11.722,11.722,0,0,1,1.459,4.311,12.664,12.664,0,0,1-1.152,4.764,33.62,33.62,0,0,0-1.942,10.046,3.458,3.458,0,0,0-.507.277c-1.9,1.242-2.5,3.95-4.474,5.059-1.152.645-2.551.6-3.841.9a1.325,1.325,0,0,0-.35.1c-.048-.241-.1-.476-.127-.724a1.944,1.944,0,0,1,0-.464,20.254,20.254,0,0,0,7.5-7.139,6.53,6.53,0,0,0,.886-1.809,7,7,0,0,0,.09-2.352,37.533,37.533,0,0,0-1.116-7.748,12.886,12.886,0,0,0-4.034-6.567c-.989-.8-2.129-1.393-3.111-2.195-1.918-1.55-3.232-3.841-5.427-4.993a6.53,6.53,0,0,0-8.207,2.123,4.757,4.757,0,0,1-1.206,1.532,12.387,12.387,0,0,0-1.122.6,2.3,2.3,0,0,0-.482,2.376,24.725,24.725,0,0,1,.687,5.18,12.663,12.663,0,0,0-.036,16.383c0,1.122,0,2.243-.042,3.365a3.258,3.258,0,0,1-.042.639,4.348,4.348,0,0,1-1.809-1.206c-.675-.844-.8-2.086-1.622-2.78a4.576,4.576,0,0,0-1.978-.724,12.283,12.283,0,0,1-4.824-2.285c-1.116-.862-2.273-1.966-3.576-2.219a79.337,79.337,0,0,0-7.839-11.963,23.3,23.3,0,0,1-2.05-2.816c-1.3-2.261-1.682-4.92-2.5-7.4-2.291-6.947-8.008-12.518-9.4-19.706-.507-2.6-2.159-4.872-3.292-7.272-.766-1.622-1.61-3.335-3.142-4.263a5.348,5.348,0,0,0-6.338.971A7.616,7.616,0,0,0,892.747,395.407ZM964.34,639.433a5.33,5.33,0,0,1-2.3.6,11.12,11.12,0,0,0-1.206.193c-.151-1.266-.235-2.551-.332-3.8-.32-4.094-.959-8.159-1.592-12.217-.663-4.221-.977-8.84-2.412-12.892-2.31-6.6-4.649-13.393-4.354-20.381.066-1.586.265-3.16.35-4.74.193-3.913-.356-7.911.6-11.716.428-1.731,1.158-3.383,1.435-5.144a24.412,24.412,0,0,0,.06-4.788,63.631,63.631,0,0,1,1.369-16.492,11.64,11.64,0,0,1,1.809,5.174l2.261,12.265c1.345,7.278,2.533,15,6.1,21.473-.5,2.334-.995,4.824-.169,7.055.356.965.941,1.809,1.3,2.786a20.762,20.762,0,0,1,.7,5.125c.392,3.618,1.887,7.176.79,10.667a52.03,52.03,0,0,0-2.189,11.071,26.955,26.955,0,0,1-.362,3.117c-.193.929-.506,1.809-.681,2.762a9.149,9.149,0,0,0,.175,4.022,8.21,8.21,0,0,1,.494,2.261c0,.772-.947,1.327-1.706,1.447.223.289.464.567.712.838A2.641,2.641,0,0,1,964.34,639.433Z" transform="translate(-380.441 -187.49)" fill="url(#linear-gradient)"/>
        <path id="Path_10591" data-name="Path 10591" d="M969.458,816.513a4.879,4.879,0,0,0-2.635.856,3.714,3.714,0,0,0-1.1,2,5.355,5.355,0,0,0,.724,4.474,5.024,5.024,0,0,0,2.044,1.526c2.786,1.206,5.982.326,8.888-.549l11.385-3.425a3.823,3.823,0,0,0,1.851-.959,2.515,2.515,0,0,0,.048-2.931,5.693,5.693,0,0,0-2.412-1.924c-3.54-1.725-7.531-2.117-11.421-2.189-1.447,0-2.876-.35-3.859.766-.519.6-.422,1.248-1.206,1.761A5.427,5.427,0,0,1,969.458,816.513Z" transform="translate(-409.371 -357.612)" fill="#3f3d56"/>
        <path id="Path_10592" data-name="Path 10592" d="M1005.129,806.135a4.927,4.927,0,0,0-2.635.856,3.739,3.739,0,0,0-1.1,2,5.373,5.373,0,0,0,.724,4.48,5.066,5.066,0,0,0,2.044,1.52c2.792,1.206,5.982.332,8.888-.543l11.385-3.431a3.823,3.823,0,0,0,1.851-.959,2.508,2.508,0,0,0,.048-2.924,5.71,5.71,0,0,0-2.412-1.924c-3.546-1.725-7.537-2.123-11.427-2.195-1.447,0-2.87-.344-3.859.772-.519.6-.422,1.242-1.206,1.755a5.247,5.247,0,0,1-2.3.591Z" transform="translate(-423.533 -353.492)" fill="#3f3d56"/>
        <path id="Path_10593" data-name="Path 10593" d="M978.1,601.895a140.252,140.252,0,0,1,20.194-.567,4.018,4.018,0,0,1,1.308.205c1.483.6,1.713,2.545,1.851,4.13.6,6.44,3.413,12.44,4.824,18.747a53.563,53.563,0,0,1,1.122,12.06,43.254,43.254,0,0,0,.1,5.427c.181,1.61.6,3.19.832,4.794a44.024,44.024,0,0,1,.284,6.494,66.635,66.635,0,0,1-.573,10.173c-.929,5.747.693,11.457,1.128,17.27a103.09,103.09,0,0,0,1.369,12.126c.332,1.694.748,3.371.977,5.077.675,5.071-.314,10.293.754,15.3.494,2.34,1.387,4.969.072,6.971-.41.6-1.013,1.115-1.459,1.725a2.153,2.153,0,0,0-.422,2.117c.259.549.862.911,1.013,1.5.235.923-.73,1.676-1.6,2.068a16.648,16.648,0,0,1-19.392-4.788c.76-.121,1.688-.669,1.706-1.441a8.14,8.14,0,0,0-.494-2.243,9.046,9.046,0,0,1-.175-3.992c.175-.929.488-1.809.681-2.744a26.649,26.649,0,0,0,.362-3.1,51.381,51.381,0,0,1,2.189-11c1.1-3.467-.4-6.977-.79-10.595a20.806,20.806,0,0,0-.7-5.1c-.362-.953-.947-1.809-1.3-2.762-.826-2.225-.332-4.7.169-7.013-3.564-6.434-4.752-14.1-6.1-21.334l-2.261-12.18a11.976,11.976,0,0,0-1.809-5.144,62.808,62.808,0,0,0-1.369,16.383,24.121,24.121,0,0,1-.06,4.758c-.277,1.749-1.007,3.395-1.435,5.107-.935,3.781-.386,7.749-.6,11.638-.085,1.574-.283,3.136-.35,4.709-.3,6.947,2.044,13.7,4.354,20.255,1.417,4.022,1.731,8.593,2.412,12.8.6,4.034,1.272,8.068,1.592,12.138.3,3.739.428,7.785,2.756,10.721a19.752,19.752,0,0,1-6.814,3.262,12.578,12.578,0,0,1-8.394-1.628,26.406,26.406,0,0,1-6.633-5.638c.488-.169.663-.88.711-1.393.724-7.634-2.177-15.075-3.274-22.673a48.839,48.839,0,0,1-.289-11.493c.139-1.441.338-2.882.392-4.33.29-7.544-3.347-14.81-3.214-22.359.06-3.54-1.809-7.025-2.726-10.444a37.8,37.8,0,0,1-.832-9.346l-.151-24.723c0-3.341,0-6.766,1.079-9.919,1.327-3.8-.193-8.159-.422-12.174a50.18,50.18,0,0,0,19.41,2.165Z" transform="translate(-406.397 -272.806)" fill="#696791"/>
        <path id="Path_10594" data-name="Path 10594" d="M930.644,448.384a78.786,78.786,0,0,0-9.232-14.574,23.115,23.115,0,0,1-2.05-2.8c-1.3-2.249-1.682-4.89-2.5-7.351-2.291-6.9-8.008-12.44-9.4-19.573-.507-2.593-2.159-4.824-3.292-7.236-.766-1.61-1.61-3.31-3.142-4.221a5.356,5.356,0,0,0-6.337.965,7.531,7.531,0,0,0-1.942,6.362,5.383,5.383,0,0,0,1.206,2.858,10.514,10.514,0,0,0,3.359,2.02,13.194,13.194,0,0,1,6.488,7.411c2.008,5.819,2.267,11.982,4.824,17.6s5.56,11.011,7.767,16.757c1.254,3.262,2.255,6.633,4.094,9.648s4.709,5.542,8.177,5.994a20.171,20.171,0,0,1,.983-6.44C930.4,453.431,931.735,450.634,930.644,448.384Z" transform="translate(-380.44 -190.329)" fill="#a0616a"/>
        <path id="Path_10595" data-name="Path 10595" d="M1009.261,451.231a33.32,33.32,0,0,1,1.96-12.53,12.986,12.986,0,0,0,1.152-4.734,11.608,11.608,0,0,0-1.459-4.287,109.976,109.976,0,0,1-5.427-14.755l-3.015-9.437a14.663,14.663,0,0,1-2.647-2.5,13.325,13.325,0,0,1-3.069-6.548,9.2,9.2,0,0,1,1.694-6.922,4.01,4.01,0,0,1,2.828-1.725A3.7,3.7,0,0,1,1003.93,389a11.884,11.884,0,0,1,2.267,3.871c.983,2.316,1.984,4.728,1.893,7.236-.084,2.086-.862,4.414.362,6.108,4,5.56,7.037,11.945,10.209,18.017a30.487,30.487,0,0,1,2.062,4.516,24.836,24.836,0,0,1,1.085,7.8,108.284,108.284,0,0,1-1.327,14.755c-.428,3.069-.989,6.41-3.31,8.442A47.8,47.8,0,0,0,1009.261,451.231Z" transform="translate(-421.725 -188.665)" fill="#a0616a"/>
        <circle id="Ellipse_665" data-name="Ellipse 665" cx="12.512" cy="12.512" r="12.512" transform="translate(559.683 239.894)" fill="#a0616a"/>
        <path id="Path_10596" data-name="Path 10596" d="M987.022,492.734a16.737,16.737,0,0,0,2.7,6.241c.712,1.206,1.622,2.49,3.015,2.623a60.775,60.775,0,0,1-11.366,4.571,12.858,12.858,0,0,1-4.149.669,10.15,10.15,0,0,1-3.455-.886A17.179,17.179,0,0,1,964,494.543a22.676,22.676,0,0,0,4.649-.356,3.42,3.42,0,0,0,2.279-1.122,3.618,3.618,0,0,0,.47-2.014c.06-2.086.066-4.179,0-6.265a24.723,24.723,0,0,1,9.093,1.122c1.206.392,2.412.862,3.618,1.17.76.193,2.852,0,3.413.44C988.445,488.14,986.811,491.2,987.022,492.734Z" transform="translate(-408.767 -227.153)" fill="#a0616a"/>
        <path id="Path_10597" data-name="Path 10597" d="M973.566,498.805a7.875,7.875,0,0,1,5.994-7c1.29-.289,2.689-.253,3.841-.892,1.978-1.1,2.575-3.793,4.474-5.029s4.595-.549,6.247,1.013a13.415,13.415,0,0,1,3.166,5.964A30.191,30.191,0,0,1,998.91,502a4.222,4.222,0,0,1-.265,1.67,6.972,6.972,0,0,1-1.339,1.67,7.393,7.393,0,0,0-1.809,5.891,16.884,16.884,0,0,1-.537,5.909c-1.206,5.318-2.412,10.631-3.383,16a9.929,9.929,0,0,0-.223,3.015c.187,1.453.989,2.828.814,4.281a16.2,16.2,0,0,0-.38,2.056,4.984,4.984,0,0,0,.362,1.526c1.369,3.974,5.065,13.079,5.029,17.288-6.422-1.646-15.889-2.014-22.522-2.044a50.133,50.133,0,0,0-5.463.241c-4.36.47-8.822,1.743-13.049.567-3.925-1.091-7.4-4.221-11.457-3.829-.88-2.3.157-9.992.983-12.319a52.726,52.726,0,0,0,1.809-28.54c-.742-3.413.277-7.037-.549-10.426a6.215,6.215,0,0,0-.9-2.249,2.412,2.412,0,0,0-2.062-1.079,76.815,76.815,0,0,1,1.507-16.239c.4-1.9,1.206-4.143,3.154-4.468,1.725-.3,3.172,1.164,4.559,2.231a12.246,12.246,0,0,0,4.824,2.267,4.576,4.576,0,0,1,1.978.724c.826.687.947,1.924,1.622,2.762,1.206,1.5,3.9,1.375,4.758,3.105a11.837,11.837,0,0,1,.452,1.58,5.8,5.8,0,0,0,1.99,2.569A11.192,11.192,0,0,0,973.566,498.805Z" transform="translate(-400.81 -225.62)" fill="#f86d70"/>
        <path id="Path_10598" data-name="Path 10598" d="M975.192,449.327a2.286,2.286,0,0,1,.482-2.364c.332-.259.766-.356,1.122-.6A4.824,4.824,0,0,0,978,444.835a6.548,6.548,0,0,1,8.195-2.08c2.177,1.14,3.491,3.419,5.427,4.957.983.8,2.123,1.387,3.111,2.183a12.789,12.789,0,0,1,4.034,6.524,37.025,37.025,0,0,1,1.115,7.694,6.923,6.923,0,0,1-.09,2.34,6.549,6.549,0,0,1-.886,1.809,20.146,20.146,0,0,1-7.9,7.308,12.209,12.209,0,0,1-10.528.181,1.809,1.809,0,0,1-.808-.645,2.322,2.322,0,0,1-.127-1.393,9.533,9.533,0,0,0-1.049-5.336c-.6-1.206-1.508-2.243-1.99-3.491a12.161,12.161,0,0,1-.567-4.329C975.885,456.762,976.144,452.981,975.192,449.327Z" transform="translate(-413.163 -210.223)" fill="#2d293d"/>
      </g>
      <g id="Group_2442" data-name="Group 2442" transform="translate(-976.316 -44.679)">
        <rect id="Rectangle_2772" data-name="Rectangle 2772" width="588.458" height="1.77" transform="translate(2008.564 1087.786)" fill="#3f3d56"/>
        <path id="Path_10613" data-name="Path 10613" d="M460.931,746.9c-3.78,13.973-16.727,22.627-16.727,22.627s-6.819-14-3.039-27.974,16.727-22.627,16.727-22.627S464.711,732.932,460.931,746.9Z" transform="translate(1585.066 319.123)" fill="#6c63ff"/>
        <path id="Path_10614" data-name="Path 10614" d="M424.642,746.9c3.78,13.973,16.727,22.627,16.727,22.627s6.819-14,3.039-27.974-16.727-22.627-16.727-22.627S420.862,732.932,424.642,746.9Z" transform="translate(1586.967 319.123)" fill="#6c63ff"/>
        <path id="Path_10615" data-name="Path 10615" d="M427.7,745.726c10.372,10.1,11.639,25.618,11.639,25.618s-15.55-.849-25.922-10.946-11.639-25.618-11.639-25.618S417.324,735.629,427.7,745.726Z" transform="translate(1589.468 317.299)" fill="#3f3d56"/>
        <path id="Path_10616" data-name="Path 10616" d="M455.86,745.726c-10.372,10.1-11.639,25.618-11.639,25.618s15.55-.849,25.922-10.946,11.639-25.618,11.639-25.618S466.232,735.629,455.86,745.726Z" transform="translate(1584.583 317.299)" fill="#3f3d56"/>
      </g>
    </g>
  </g>
</svg>
