<svg id="Group_27" data-name="Group 27" xmlns="http://www.w3.org/2000/svg" width="87.076" height="98.949" viewBox="0 0 87.076 98.949">
  <rect id="Rectangle_12" data-name="Rectangle 12" width="81.472" height="19.17" transform="translate(4.787 42.237)" fill="#6c63ff"/>
  <g id="video-2">
    <path id="Path_289" data-name="Path 289" d="M1811.647,313.591h-65.933l63.331-18.34a1.934,1.934,0,0,0,1.319-2.395v0l-3.315-11.44a10.767,10.767,0,0,0-13.323-7.338L1734.264,291.3a10.781,10.781,0,0,0-7.336,13.324l3.237,11.182v46.038A10.768,10.768,0,0,0,1740.92,372.6h23.224a1.933,1.933,0,0,0,0-3.866h-23.222a6.9,6.9,0,0,1-6.889-6.891v-26.3h75.684v26.3a6.9,6.9,0,0,1-6.889,6.891H1779.6a1.933,1.933,0,0,0,0,3.866h23.223a10.768,10.768,0,0,0,10.755-10.757V315.529a1.933,1.933,0,0,0-1.928-1.938Zm-34.076,18.091,8.212-14.219h10.679l-8.211,14.219Zm-15.144,0,8.211-14.219h10.679l-8.211,14.219Zm-15.142,0,8.21-14.219h10.681l-8.21,14.219Zm7.189-25.019-13.756-13.2,10.3-2.984a1.827,1.827,0,0,0,.253.3l13.749,13.206-10.3,2.977a1.977,1.977,0,0,0-.253-.3Zm25.892-24.319,13.751,13.206-10.3,2.984a1.905,1.905,0,0,0-.253-.3l-13.749-13.206,10.3-2.985A1.9,1.9,0,0,0,1780.366,282.345Zm-14.545,4.213,13.751,13.208-10.3,2.985a1.806,1.806,0,0,0-.253-.3l-13.751-13.208,10.3-2.984A1.987,1.987,0,0,0,1765.821,286.558Zm28.981-8.768a6.779,6.779,0,0,1,1.9-.271,6.931,6.931,0,0,1,6.636,4.973l2.777,9.585-7.753,2.246a1.991,1.991,0,0,0-.255-.3l-13.752-13.206Zm-63.57,20.524a6.838,6.838,0,0,1,4.109-3.3l1.135-.329a1.908,1.908,0,0,0,.255.3l13.749,13.208-17.064,4.941-2.777-9.585A6.836,6.836,0,0,1,1731.232,298.315Zm2.8,19.145h17l-8.21,14.219h-8.787Zm58.683,14.219,8.212-14.219h8.786v14.219Z" transform="translate(-1726.506 -273.655)" fill="#3f3d56" fill-rule="evenodd"/>
    <path id="Path_290" data-name="Path 290" d="M1770.241,325.607a1.932,1.932,0,0,0-.96-1.673l-16.978-9.8a1.933,1.933,0,0,0-2.9,1.673V335.41a1.93,1.93,0,0,0,2.9,1.672l16.978-9.8A1.932,1.932,0,0,0,1770.241,325.607Zm-16.979,6.456v-12.9l11.182,6.454Z" transform="translate(-1711.51 -247.317)" fill="#3f3d56" fill-rule="evenodd"/>
    <path id="Path_291" data-name="Path 291" d="M1754.685,331.11a1.933,1.933,0,1,0,1.933,1.933h0A1.936,1.936,0,0,0,1754.685,331.11Z" transform="translate(-1709.318 -236.028)" fill="#3f3d56" fill-rule="evenodd"/>
  </g>
</svg>
