<svg xmlns="http://www.w3.org/2000/svg" xmlns:xlink="http://www.w3.org/1999/xlink" width="450" height="347" viewBox="0 0 450 347">
  <defs>
    <clipPath id="clip-path">
      <rect id="矩形_3679" data-name="矩形 3679" width="450" height="347" transform="translate(280 2445)" fill="none" stroke="#707070" stroke-width="1"/>
    </clipPath>
    <linearGradient id="linear-gradient" y1="0.5" x2="1" y2="0.5" gradientUnits="objectBoundingBox">
      <stop offset="0" stop-color="gray" stop-opacity="0.251"/>
      <stop offset="0.535" stop-color="gray" stop-opacity="0.122"/>
      <stop offset="1" stop-color="gray" stop-opacity="0.102"/>
    </linearGradient>
  </defs>
  <g id="蒙版组_126" data-name="蒙版组 126" transform="translate(-280 -2445)" clip-path="url(#clip-path)">
    <g id="组_3069" data-name="组 3069" transform="translate(-234.102 -1097.102)">
      <path id="路径_10633" data-name="路径 10633" d="M162.115,146.724V73.875h83.452V0H0V219.916H245.567V146.724Z" transform="translate(603.896 3583)" fill="#3f3d56"/>
      <path id="路径_10634" data-name="路径 10634" d="M245.567,73.875V0H160.405V72.849H85.162V0H0V73.875H76.953v72.849H0v73.191H162.8V146.724h-.684V73.875Z" transform="translate(603.896 3583)" opacity="0.1"/>
      <path id="路径_10635" data-name="路径 10635" d="M110.956,117.983a58.828,58.828,0,0,1-58.825,58.827V117.983Z" transform="translate(551.766 3465.017)" fill="#6c63ff"/>
      <path id="路径_10636" data-name="路径 10636" d="M79.491,117.983a27.362,27.362,0,0,1-27.36,27.361v15.049a42.411,42.411,0,0,0,42.41-42.408Z" transform="translate(551.766 3465.017)" opacity="0.1"/>
      <path id="路径_10637" data-name="路径 10637" d="M585.745,20.521V9.918H529.312V0H517V39.332h68.745v-10.6H529.312V20.521Z" transform="translate(263.718 3583)" fill="#d0cde1"/>
      <path id="路径_10639" data-name="路径 10639" d="M579.114,445.263l12.315,21.331,12.316,21.331H554.483L566.8,466.594Z" transform="translate(239.055 3290.024)" fill="#d0cde1"/>
      <path id="路径_10640" data-name="路径 10640" d="M530.873,521.586H506.242l12.316-21.331.086-.148-4.529-7.844L501.8,513.594l-12.316,21.331h49.262l-7.7-13.339Z" transform="translate(281.824 3259.099)" fill="#6c63ff"/>
      <g id="组_2999" data-name="组 2999" transform="translate(701.407 3590.56)">
        <path id="路径_10643" data-name="路径 10643" d="M700.114,289.263l12.315,21.331,12.316,21.331H675.483L687.8,310.594Z" transform="translate(-675.483 -273.24)" fill="#6c63ff"/>
        <path id="路径_10644" data-name="路径 10644" d="M725.835,334.415l5.586,9.677,5.587,9.676H714.661l5.587-9.676Z" transform="translate(-701.261 -302.949)" fill="#d0cde1"/>
        <path id="路径_10645" data-name="路径 10645" d="M725.835,242.415l5.586,9.677,5.587,9.676H714.661l5.587-9.676Z" transform="translate(-701.261 -242.415)" fill="#d0cde1"/>
      </g>
      <ellipse id="椭圆_639" data-name="椭圆 639" cx="158.398" cy="12.299" rx="158.398" ry="12.299" transform="translate(568.602 3825.605)" fill="#6c63ff" opacity="0.1"/>
      <g id="组_3001" data-name="组 3001" transform="translate(828.484 3664.221)">
        <rect id="矩形_2838" data-name="矩形 2838" width="80.118" height="69.102" transform="translate(0 0)" fill="#6c63ff" stroke="#39374d" stroke-width="4"/>
        <g id="组_3000" data-name="组 3000" transform="translate(15.329 11.981)">
          <path id="路径_10725" data-name="路径 10725" d="M544.293,336.643a15.959,15.959,0,0,0-26.513,0,14.312,14.312,0,0,0,26.513,0Z" transform="translate(-506.004 -329.57)" fill="#39374d"/>
          <path id="路径_10726" data-name="路径 10726" d="M496.332,346.618a3.429,3.429,0,0,1-.658-.374,2.639,2.639,0,0,1-.725-.938,2.684,2.684,0,1,0-4.382.651,2.989,2.989,0,0,0,.636.512,1.848,1.848,0,0,1,.714.748,5.4,5.4,0,0,0,1.241,1.63,10.849,10.849,0,0,0,1.7,1.2,24.792,24.792,0,0,0-1.4,7.312,10.11,10.11,0,0,0-2.849.46,4.593,4.593,0,0,0-1.32.658,3.182,3.182,0,0,0-.325-.022,2.688,2.688,0,1,0,2.516,3.634,1.716,1.716,0,0,1,1.387-1.122,6.274,6.274,0,0,1,.692-.045,24.074,24.074,0,0,0,3.2,9.97,7.843,7.843,0,0,0-2.972,4.06,1.118,1.118,0,0,0-.213.153,2.545,2.545,0,0,0-.314.292,2.684,2.684,0,1,0,4.5.879,1.761,1.761,0,0,1,.437-1.9,7.545,7.545,0,0,1,.636-.546c3.032,3.54,6.639,5.81,11.144,6.079v-24.02A16.58,16.58,0,0,1,496.332,346.618Zm37.321,11.858a2.972,2.972,0,0,0-.325.022,5.067,5.067,0,0,0-1.32-.658,10.041,10.041,0,0,0-2.849-.46,25.33,25.33,0,0,0-1.4-7.309,10.837,10.837,0,0,0,1.7-1.2,5.826,5.826,0,0,0,1.286-1.708,1.578,1.578,0,0,1,.662-.654h0a2.684,2.684,0,1,0-3.738-1.185,2.547,2.547,0,0,1-.725.938,7.015,7.015,0,0,1-.658.482,16.465,16.465,0,0,1-13.638,9.155v24.042c4.486-.269,8.116-2.55,11.144-6.079.235.187.434.355.6.512a1.817,1.817,0,0,1,.471,1.955,2.684,2.684,0,1,0,4.516-.871,2.551,2.551,0,0,0-.314-.292c-.123-.1-.213-.153-.213-.153a7.736,7.736,0,0,0-2.991-4.06,24.075,24.075,0,0,0,3.2-9.97,5.947,5.947,0,0,1,.662.045,1.794,1.794,0,0,1,1.439,1.122,2.684,2.684,0,0,0,5.178-.815,2.725,2.725,0,0,0-2.688-2.864Z" transform="translate(-486.279 -337.007)" fill="#39374d"/>
        </g>
      </g>
      <g id="组_2998" data-name="组 2998" transform="matrix(-0.995, -0.105, 0.105, -0.995, 892.563, 3863.659)">
        <g id="组_2998-2" data-name="组 2998" transform="translate(0 0)">
          <path id="路径_10730" data-name="路径 10730" d="M28.806,45.907c-2.31-2.307-2.588-3.324-3.975-3.783s-6.379-3.043-4.811-5.909l4.218-2.786.123-.082.645-1.939L18.627,20.052s-10.515,4.808-11.546-2.3S6.7,8.692,6.426,4.9,6.517,0,5.591,0,4.3,2.494,4.3,2.494s-.058.114-.161.327C2.764,5.681-6.574,26.673,8.383,41.1c0,0,6.928.456,8.6,8.4,1.151,5.491,5.176,5.018,7.851,3.9a8.873,8.873,0,0,0,2.4-1.411,11.823,11.823,0,0,0,1.72-2.045C29.714,48.743,30.129,47.233,28.806,45.907Z" transform="translate(0 29.983)" fill="#d0d2d5"/>
          <path id="路径_10731" data-name="路径 10731" d="M20.869,33.347l.646-1.939L15.135,20.052S4.62,24.859,3.589,17.747,3.212,8.692,2.935,4.9,3.025,0,2.1,0,.808,2.494.808,2.494s-.058.114-.161.327C.183,6.373-2.171,27.149,6.364,26.045c0,0,6.925-3.236,8.032-1.945.876,1.022,4.767,6.9,6.35,9.315Z" transform="translate(3.492 29.983)" opacity="0.1"/>
          <path id="路径_10732" data-name="路径 10732" d="M12.72,11.079,8.5,6.285S3.6-.269,2.588.009a4.744,4.744,0,0,1-.926.108A1.8,1.8,0,0,0,.494,3.148C2.164,4.9,5.243,8.228,5.444,8.967a51.022,51.022,0,0,0,3.143,5.564,8.873,8.873,0,0,0,2.4-1.411,11.822,11.822,0,0,0,1.732-2.042Z" transform="translate(16.232 68.868)" opacity="0.1"/>
          <path id="路径_10733" data-name="路径 10733" d="M129.843,10.988c-.716-1.431-4.381-6.8-5.985-9.145l-.751-1.1s-.292-1.939-5.079.464S.762,51.068.762,51.068L0,53.358l5.55,8.31,123.28-47.63S130.769,12.837,129.843,10.988Z" transform="translate(18.443 0)" fill="#454b69"/>
        </g>
        <path id="路径_10734" data-name="路径 10734" d="M123.858,1.843l-.751-1.1s-.292-1.939-5.079.464S.762,51.068.762,51.068L0,53.358Z" transform="translate(18.443 0)" opacity="0.1"/>
      </g>
      <rect id="矩形_2872" data-name="矩形 2872" width="81.119" height="74.109" transform="translate(688.278 3729.317)" fill="#3f3d56"/>
      <rect id="矩形_2873" data-name="矩形 2873" width="84.124" height="73.107" transform="translate(604.154 3656.209)" fill="#3f3d56"/>
      <g id="组_3066" data-name="组 3066" transform="translate(613.237 3665.954)">
        <g id="组_3066-2" data-name="组 3066" transform="translate(0)">
          <path id="路径_10624" data-name="路径 10624" d="M325.483,108.468a.652.652,0,0,1-.363-.788.317.317,0,0,0,.014-.072h0a.327.327,0,0,0-.587-.217h0a.311.311,0,0,0-.036.064.652.652,0,0,1-.788.363.314.314,0,0,0-.072-.014h0a.327.327,0,0,0-.217.587h0a.312.312,0,0,0,.064.036.652.652,0,0,1,.363.788.312.312,0,0,0-.014.072h0a.327.327,0,0,0,.587.217h0a.316.316,0,0,0,.036-.064.652.652,0,0,1,.787-.363.313.313,0,0,0,.072.014h0a.327.327,0,0,0,.217-.587h0A.314.314,0,0,0,325.483,108.468Z" transform="translate(-296.174 -99.964)" fill="#4d8af0" opacity="0.5"/>
          <path id="路径_10625" data-name="路径 10625" d="M179.483,433.468a.652.652,0,0,1-.363-.788.315.315,0,0,0,.014-.072h0a.327.327,0,0,0-.587-.217h0a.314.314,0,0,0-.036.064.652.652,0,0,1-.788.363.314.314,0,0,0-.072-.014h0a.327.327,0,0,0-.217.587h0a.308.308,0,0,0,.064.036.652.652,0,0,1,.363.788.311.311,0,0,0-.014.072h0a.327.327,0,0,0,.587.217h0a.31.31,0,0,0,.036-.064.652.652,0,0,1,.788-.363.3.3,0,0,0,.072.014h0a.327.327,0,0,0,.217-.587h0A.31.31,0,0,0,179.483,433.468Z" transform="translate(-176.064 -367.332)" fill="#4d8af0" opacity="0.5"/>
          <circle id="椭圆_634" data-name="椭圆 634" cx="1.064" cy="1.064" r="1.064" transform="translate(131.646 43.977)" fill="#f55f44" opacity="0.5"/>
          <circle id="椭圆_635" data-name="椭圆 635" cx="1.064" cy="1.064" r="1.064" transform="translate(20.463 120.05)" fill="#f55f44" opacity="0.5"/>
          <circle id="椭圆_636" data-name="椭圆 636" cx="1.064" cy="1.064" r="1.064" transform="translate(149.734 84.939)" fill="#f55f44" opacity="0.5"/>
          <path id="路径_10626" data-name="路径 10626" d="M864.484,137.468a.652.652,0,0,1-.363-.787.32.32,0,0,0,.014-.072h0a.327.327,0,0,0-.587-.217h0a.311.311,0,0,0-.036.064.652.652,0,0,1-.788.363.315.315,0,0,0-.072-.014h0a.327.327,0,0,0-.216.587h0a.311.311,0,0,0,.064.036.651.651,0,0,1,.363.788.3.3,0,0,0-.014.072h0a.327.327,0,0,0,.587.217h0a.313.313,0,0,0,.036-.064.652.652,0,0,1,.787-.363.315.315,0,0,0,.072.014h0a.327.327,0,0,0,.216-.587h0a.313.313,0,0,0-.064-.036Z" transform="translate(-739.595 -123.821)" fill="#4d8af0" opacity="0.5"/>
          <path id="路径_10627" data-name="路径 10627" d="M964.483,765.468a.652.652,0,0,1-.363-.787.312.312,0,0,0,.014-.072h0a.327.327,0,0,0-.587-.216h0a.306.306,0,0,0-.036.064.651.651,0,0,1-.787.363.318.318,0,0,0-.072-.014h0a.327.327,0,0,0-.217.587h0a.325.325,0,0,0,.064.036.651.651,0,0,1,.363.787.3.3,0,0,0-.014.072h0a.327.327,0,0,0,.587.216h0a.3.3,0,0,0,.036-.064.651.651,0,0,1,.787-.363.318.318,0,0,0,.072.014h0a.327.327,0,0,0,.217-.587h0A.308.308,0,0,0,964.483,765.468Z" transform="translate(-821.862 -640.46)" fill="#4d8af0" opacity="0.5"/>
          <path id="路径_10628" data-name="路径 10628" d="M172.483,243.468a.652.652,0,0,1-.363-.787.314.314,0,0,0,.014-.072h0a.327.327,0,0,0-.587-.217h0a.314.314,0,0,0-.036.064.652.652,0,0,1-.788.363.312.312,0,0,0-.072-.014h0a.327.327,0,0,0-.217.587h0a.314.314,0,0,0,.064.036.652.652,0,0,1,.363.788.313.313,0,0,0-.014.072h0a.327.327,0,0,0,.587.217h0a.313.313,0,0,0,.036-.064.652.652,0,0,1,.787-.363.313.313,0,0,0,.072.014h0a.327.327,0,0,0,.217-.587h0A.317.317,0,0,0,172.483,243.468Z" transform="translate(-170.305 -211.025)" fill="#4d8af0" opacity="0.5"/>
          <circle id="椭圆_637" data-name="椭圆 637" cx="1.064" cy="1.064" r="1.064" transform="translate(13.015 49.297)" fill="#47e6b1" opacity="0.5"/>
          <circle id="椭圆_638" data-name="椭圆 638" cx="1.064" cy="1.064" r="1.064" transform="translate(150.266 57.808)" fill="#47e6b1" opacity="0.5"/>
          <g id="组_2979" data-name="组 2979" transform="translate(102.21)" opacity="0.5">
            <rect id="矩形_2828" data-name="矩形 2828" width="0.532" height="3.015" transform="translate(1.241)" fill="#47e6b1"/>
            <rect id="矩形_2829" data-name="矩形 2829" width="0.532" height="3.015" transform="translate(3.015 1.241) rotate(90)" fill="#47e6b1"/>
          </g>
          <g id="组_2981" data-name="组 2981" transform="translate(3.439 124.483)" opacity="0.5">
            <rect id="矩形_2832" data-name="矩形 2832" width="0.532" height="3.015" transform="translate(1.241)" fill="#47e6b1"/>
            <rect id="矩形_2833" data-name="矩形 2833" width="0.532" height="3.015" transform="translate(3.015 1.241) rotate(90)" fill="#47e6b1"/>
          </g>
          <g id="组_2982" data-name="组 2982" transform="translate(124.553 70.221)" opacity="0.5">
            <rect id="矩形_2834" data-name="矩形 2834" width="0.532" height="3.015" transform="translate(1.241)" fill="#47e6b1"/>
            <rect id="矩形_2835" data-name="矩形 2835" width="0.532" height="3.015" transform="translate(3.015 1.241) rotate(90)" fill="#47e6b1"/>
          </g>
          <path id="路径_10629" data-name="路径 10629" d="M793.4,116.833l1.143,1.047,1.619-2.38.571.476-2.19,2.857-1.619-1.809Z" transform="translate(-652.316 -95.019)" fill="#47e6b1" opacity="0.5"/>
          <path id="路径_10630" data-name="路径 10630" d="M379.823,76.854,332,106.285s0,60.7,47.825,93.811c47.825-33.11,47.825-93.811,47.825-93.811Z" transform="translate(-303.325 -74.949)" fill="#3f3d56" stroke="#d0cde1" stroke-width="4"/>
          <path id="路径_10631" data-name="路径 10631" d="M599.517,76.854l-.818.5V199.523c.271.192.543.384.818.574,47.825-33.11,47.825-93.811,47.825-93.811Z" transform="translate(-522.734 -74.949)" fill="#6c63ff" opacity="0.04"/>
          <g id="组_2983" data-name="组 2983" transform="translate(61.163 53.686)" opacity="0.7">
            <path id="路径_10622" data-name="路径 10622" d="M348.678,310.609l9.016,8.265L368.87,302.75l4.508,3.757-15.685,19.88-12.772-14.275Z" transform="translate(-344.921 -302.75)" fill="url(#linear-gradient)"/>
          </g>
          <path id="路径_10632" data-name="路径 10632" d="M363.968,310.283l7.313,6.7,10.361-15.237L385.3,304.8l-14.018,18.284L360.921,311.5Z" transform="translate(-296.921 -248.242)" fill="#3ad29f"/>
          <g id="组_2986" data-name="组 2986" transform="matrix(-0.875, 0.485, -0.485, -0.875, 125.76, 112.366)">
            <path id="多边形_6" data-name="多边形 6" d="M4.17,0,8.34,7.114H0Z" transform="translate(8.34 7.114) rotate(180)" fill="#6c63ff"/>
            <g id="多边形_7" data-name="多边形 7" transform="translate(10.793 9.321) rotate(180)" fill="none">
              <path d="M5.4,0l5.4,9.321H0Z" stroke="none"/>
              <path d="M 5.396620750427246 1.995872020721436 L 1.734453201293945 8.321437835693359 L 9.058788299560547 8.321437835693359 L 5.396620750427246 1.995872020721436 M 5.396620750427246 -2.86102294921875e-06 L 10.79324054718018 9.321437835693359 L 9.5367431640625e-07 9.321437835693359 L 5.396620750427246 -2.86102294921875e-06 Z" stroke="none" fill="#6c63ff"/>
            </g>
          </g>
          <g id="组_2987" data-name="组 2987" transform="translate(7.942 15.292)">
            <g id="椭圆_259" data-name="椭圆 259" transform="translate(5.007 4.006)" fill="#ff4f5e" stroke="#ff4f5e" stroke-width="1.5">
              <ellipse cx="5.007" cy="5.508" rx="5.007" ry="5.508" stroke="none"/>
              <ellipse cx="5.007" cy="5.508" rx="4.257" ry="4.758" fill="none"/>
            </g>
            <g id="椭圆_260" data-name="椭圆 260" transform="translate(0 0)" fill="none" stroke="#6c63ff" stroke-width="2" stroke-dasharray="3">
              <ellipse cx="9.013" cy="9.514" rx="9.013" ry="9.514" stroke="none"/>
              <ellipse cx="9.013" cy="9.514" rx="8.013" ry="8.514" fill="none"/>
            </g>
          </g>
        </g>
      </g>
    </g>
  </g>
</svg>
