<svg xmlns="http://www.w3.org/2000/svg" width="70" height="70.188" viewBox="0 0 70 70.188">
  <g id="组_4539" data-name="组 4539" transform="translate(-1372 -860)">
    <path id="路径_13585" data-name="路径 13585" d="M68.208,20.393a3.462,3.462,0,0,1-2.084.768,3.231,3.231,0,0,1-3.29-3.29,3.462,3.462,0,0,1,.768-2.084A33.962,33.962,0,0,0,15.786,63.6a3.462,3.462,0,0,1,2.084-.768,3.231,3.231,0,0,1,3.29,3.29,3.462,3.462,0,0,1-.768,2.084A33.962,33.962,0,0,0,68.208,20.393ZM42,68.318A26.32,26.32,0,1,1,68.318,42,26.257,26.257,0,0,1,42,68.318Z" transform="translate(1365.097 853.097)" fill="#f0efff"/>
    <circle id="椭圆_1177" data-name="椭圆 1177" cx="18.5" cy="18.5" r="18.5" transform="translate(1389 877)" fill="#6c63ff"/>
    <circle id="椭圆_1180" data-name="椭圆 1180" cx="3" cy="3" r="3" transform="translate(1428 868)" fill="#f86584"/>
    <circle id="椭圆_1181" data-name="椭圆 1181" cx="3" cy="3" r="3" transform="translate(1380 916)" fill="#f86584"/>
    <g id="组_4538" data-name="组 4538" transform="translate(1372 860)">
      <path id="路径_13586" data-name="路径 13586" d="M75.935,11.735,74.4,10.2A34.992,34.992,0,0,1,99.295,0a35.442,35.442,0,0,1,22.372,7.9l-1.426,1.645A32.836,32.836,0,0,0,99.295,2.084,33.4,33.4,0,0,0,75.935,11.735Z" transform="translate(-64.201 0)" fill="#2b2b2b"/>
      <path id="路径_13587" data-name="路径 13587" d="M404.387,56.773a4.387,4.387,0,1,1,4.387-4.387A4.4,4.4,0,0,1,404.387,56.773Zm0-6.58a2.193,2.193,0,1,0,2.193,2.193A2.2,2.2,0,0,0,404.387,50.193Z" transform="translate(-345.166 -41.42)" fill="#2b2b2b"/>
      <path id="路径_13588" data-name="路径 13588" d="M115.863,437.444A35.066,35.066,0,0,1,93.6,429.438l1.426-1.645a32.977,32.977,0,0,0,44.2-2.193l1.535,1.535A35.016,35.016,0,0,1,115.863,437.444Z" transform="translate(-80.769 -367.256)" fill="#2b2b2b"/>
      <path id="路径_13589" data-name="路径 13589" d="M52.387,408.773a4.387,4.387,0,1,1,4.387-4.387A4.4,4.4,0,0,1,52.387,408.773Zm0-6.58a2.193,2.193,0,1,0,2.193,2.193A2.2,2.2,0,0,0,52.387,402.193Z" transform="translate(-41.42 -345.166)" fill="#2b2b2b"/>
      <path id="路径_13590" data-name="路径 13590" d="M83.417,110.834a27.417,27.417,0,1,1,27.417-27.417A27.427,27.427,0,0,1,83.417,110.834Zm0-52.641a25.224,25.224,0,1,0,25.224,25.224A25.227,25.227,0,0,0,83.417,58.193Z" transform="translate(-48.323 -48.323)" fill="#2b2b2b"/>
      <path id="路径_13591" data-name="路径 13591" d="M166.257,110.834c-8.006,0-14.257-12.063-14.257-27.417S158.251,56,166.257,56s14.257,12.063,14.257,27.417S174.263,110.834,166.257,110.834Zm0-52.641c-6.58,0-12.064,11.515-12.064,25.224s5.483,25.224,12.064,25.224S178.32,97.126,178.32,83.417,172.837,58.193,166.257,58.193Z" transform="translate(-131.163 -48.323)" fill="#2b2b2b"/>
      <rect id="矩形_3689" data-name="矩形 3689" width="2" height="23" transform="translate(34 4)" fill="#2b2b2b"/>
      <rect id="矩形_3690" data-name="矩形 3690" width="2" height="22" transform="translate(34 43)" fill="#2b2b2b"/>
      <rect id="矩形_3691" data-name="矩形 3691" width="23" height="2" transform="translate(4 34)" fill="#2b2b2b"/>
      <rect id="矩形_3692" data-name="矩形 3692" width="22" height="2" transform="translate(43 34)" fill="#2b2b2b"/>
      <path id="路径_13592" data-name="路径 13592" d="M142.1,114.154a26.815,26.815,0,0,1-18.1-6.909l1.426-1.645a25.272,25.272,0,0,0,16.67,6.361,24.727,24.727,0,0,0,16.67-6.361l1.426,1.645A26.816,26.816,0,0,1,142.1,114.154Z" transform="translate(-107.001 -91.124)" fill="#2b2b2b"/>
      <path id="路径_13593" data-name="路径 13593" d="M158.765,352.554a25.272,25.272,0,0,0-16.67-6.361,24.727,24.727,0,0,0-16.67,6.361L124,350.909A27.572,27.572,0,0,1,142.1,344a26.816,26.816,0,0,1,18.1,6.909Z" transform="translate(-107.001 -296.843)" fill="#2b2b2b"/>
      <rect id="矩形_3693" data-name="矩形 3693" width="2" height="2" transform="translate(34 34)" fill="#2b2b2b"/>
      <rect id="矩形_3694" data-name="矩形 3694" width="2" height="1" transform="translate(34 30)" fill="#2b2b2b"/>
      <rect id="矩形_3695" data-name="矩形 3695" width="2" height="3" transform="translate(34 38)" fill="#2b2b2b"/>
      <rect id="矩形_3696" data-name="矩形 3696" width="1" height="2" transform="translate(30 34)" fill="#2b2b2b"/>
      <rect id="矩形_3697" data-name="矩形 3697" width="3" height="2" transform="translate(38 34)" fill="#2b2b2b"/>
      <rect id="矩形_3698" data-name="矩形 3698" width="2" height="2" transform="translate(68 34)" fill="#2b2b2b"/>
      <rect id="矩形_3699" data-name="矩形 3699" width="2" height="2" transform="translate(0 34)" fill="#2b2b2b"/>
    </g>
  </g>
</svg>
