<svg xmlns="http://www.w3.org/2000/svg" width="516.398" height="421.705"><defs><linearGradient id="a" y1=".5" x2="1" y2=".5" gradientUnits="objectBoundingBox"><stop offset="0" stop-color="gray" stop-opacity=".251"/><stop offset=".535" stop-color="gray" stop-opacity=".122"/><stop offset="1" stop-color="gray" stop-opacity=".102"/></linearGradient></defs><g data-name="Group 3069" transform="translate(-568.602 -3583)"><path data-name="Path 10633" d="M867.271 3804.986v-110.217h126.258V3583H622v332.72h371.529v-110.734z" fill="#3f3d56"/><path data-name="Path 10634" d="M993.529 3694.769V3583H864.684v110.217H750.845V3583H622v111.769h116.426v110.217H622v110.734h246.306v-110.734h-1.035v-110.217z" opacity=".1"/><path data-name="Path 10635" d="M711.001 3583a89 89 0 01-89 89v-89z" fill="#6c63ff"/><path data-name="Path 10636" d="M663.396 3583a41.4 41.4 0 01-41.394 41.4v22.768a64.165 64.165 0 0064.164-64.162z" opacity=".1"/><path data-name="Path 10637" d="M993.528 3614.047v-16.041h-85.379V3583h-18.628v59.507h104.007v-16.041h-85.379v-12.419z" fill="#d0cde1"/><path data-name="Path 10639" d="M946.182 3813.401l18.632 32.272 18.633 32.273h-74.53l18.633-32.273z" fill="#d0cde1"/><path data-name="Path 10640" d="M937.9 3882.086h-37.262l18.633-32.273.129-.224-6.852-11.868-18.632 32.272-18.633 32.273h74.53l-11.651-20.181z" fill="#6c63ff"/><g data-name="Group 2999"><path data-name="Path 10643" d="M806.794 3618.679l18.632 32.272 18.633 32.273h-74.53l18.633-32.273z" fill="#6c63ff"/><path data-name="Path 10644" d="M806.706 3642.043l8.452 14.64 8.453 14.64h-33.81l8.453-14.64z" fill="#d0cde1"/><path data-name="Path 10645" d="M806.706 3594.437l8.452 14.64 8.453 14.64h-33.81l8.453-14.64z" fill="#d0cde1"/></g><ellipse data-name="Ellipse 639" cx="239.648" cy="18.608" rx="239.648" ry="18.608" transform="translate(568.602 3950.047)" fill="#6c63ff" opacity=".1"/><g data-name="Group 3001"><path data-name="Rectangle 2838" fill="#6c63ff" stroke="#39374d" stroke-width="4" d="M962 3705h121v106H962z"/><g data-name="Group 3000" fill="#39374d"><path data-name="Path 10725" d="M1042.912 3734.711c-4.938-6.561-12.093-10.7-20.057-10.7s-15.119 4.14-20.056 10.7a21.653 21.653 0 0040.113 0z"/><path data-name="Path 10726" d="M1000.192 3738.552a5.187 5.187 0 01-1-.566 3.993 3.993 0 01-1.1-1.42 4.061 4.061 0 10-6.629.984 4.524 4.524 0 00.962.775 2.794 2.794 0 011.08 1.131 8.167 8.167 0 001.878 2.466 16.409 16.409 0 002.573 1.81 37.507 37.507 0 00-2.115 11.063 15.3 15.3 0 00-4.31.7 6.95 6.95 0 00-2 1 4.8 4.8 0 00-.492-.034 4.067 4.067 0 103.806 5.5 2.6 2.6 0 012.1-1.7 9.489 9.489 0 011.046-.068 36.424 36.424 0 004.836 15.085 11.866 11.866 0 00-4.5 6.143 1.692 1.692 0 00-.322.232 3.849 3.849 0 00-.475.441 4.061 4.061 0 106.816 1.329 2.664 2.664 0 01.662-2.873 11.41 11.41 0 01.962-.826c4.587 5.356 10.045 8.79 16.861 9.2v-36.34c-8.999-.503-16.85-6.368-20.639-14.032zm56.465 17.941a4.506 4.506 0 00-.492.034 7.669 7.669 0 00-2-1 15.2 15.2 0 00-4.31-.7 38.326 38.326 0 00-2.115-11.058 16.4 16.4 0 002.573-1.81 8.811 8.811 0 001.946-2.585 2.387 2.387 0 011-.99 4.061 4.061 0 10-5.656-1.793 3.857 3.857 0 01-1.1 1.42 10.645 10.645 0 01-1 .73 24.911 24.911 0 01-20.633 13.852v36.374c6.787-.407 12.279-3.857 16.861-9.2.356.283.656.537.911.775a2.749 2.749 0 01.713 2.958 4.061 4.061 0 106.833-1.318 3.867 3.867 0 00-.475-.441c-.187-.147-.322-.232-.322-.232a11.7 11.7 0 00-4.525-6.143 36.424 36.424 0 004.836-15.085 8.987 8.987 0 011 .068 2.715 2.715 0 012.178 1.7 4.061 4.061 0 007.834-1.233 4.123 4.123 0 00-4.067-4.333z"/></g></g><g data-name="Group 2998"><g data-name="Group 2998"><path data-name="Path 10730" d="M1027.428 3888.802c3.116 3.841 3.367 5.415 5.383 6.326s9.12 5.59 6.303 9.66l-6.792 3.524-.198.104-1.28 2.817 7.8 18.108s16.593-5.567 17.015 5.304-.872 13.692-1.057 19.45-.914 7.356.48 7.503 2.34-3.55 2.34-3.55.105-.162.294-.467c2.526-4.091 19.918-34.204-.308-58.301 0 0-10.357-1.786-11.606-14.011-.86-8.45-6.994-8.376-11.199-7.118a13.432 13.432 0 00-3.839 1.742 17.897 17.897 0 00-2.911 2.805c-1.342 1.69-2.207 3.898-.425 6.104z" fill="#d0d2d5"/><path data-name="Path 10731" d="M1032.125 3908.415l-1.28 2.817 7.797 18.11s16.595-5.568 17.017 5.303-.872 13.692-1.057 19.45-.914 7.356.48 7.503 2.34-3.55 2.34-3.55.105-.162.294-.467c1.263-5.273 8.108-36.175-4.916-35.864 0 0-10.94 3.775-12.4 1.652-1.158-1.678-6.08-11.147-8.08-15.03z" opacity=".1"/><path data-name="Path 10732" d="M1027.852 3882.671l5.588 7.885s6.333 10.646 7.907 10.39a7.182 7.182 0 011.41-.017 2.723 2.723 0 002.241-4.377c-2.237-2.903-6.342-8.401-6.529-9.543s-2.621-6.332-3.847-8.875a13.431 13.431 0 00-3.838 1.742 17.895 17.895 0 00-2.931 2.799z" opacity=".1"/><path data-name="Path 10733" d="M837.255 3967.523c.85 2.267 5.516 10.932 7.557 14.717l.955 1.781s.132 2.966 7.72.11 184.451-56.439 184.451-56.439l1.511-3.325-7.038-13.391-193.146 52.118s-3.11 1.498-2.01 4.429z" fill="#454b69"/></g><path data-name="Path 10734" d="M844.811 3982.24l.955 1.781s.132 2.966 7.72.11 184.452-56.439 184.452-56.439l1.511-3.325z" opacity=".1"/></g><path data-name="Rectangle 2872" fill="#3f3d56" d="M751 3805h120v111H751z"/><path data-name="Rectangle 2873" fill="#3f3d56" d="M622 3694h129v111H622z"/><g data-name="Group 3066" transform="translate(636.132 3708.505)"><path data-name="Path 10624" d="M44.343 12.866a.986.986 0 01-.549-1.191.472.472 0 00.021-.109.494.494 0 00-.888-.328.47.47 0 00-.055.1.986.986 0 01-1.191.549.475.475 0 00-.109-.021.494.494 0 00-.328.888.474.474 0 00.1.055.986.986 0 01.549 1.191.472.472 0 00-.021.109.494.494 0 00.888.328.475.475 0 00.055-.1.986.986 0 011.191-.549.474.474 0 00.109.021.494.494 0 00.328-.888.474.474 0 00-.1-.055z" fill="#4d8af0" opacity=".5"/><path data-name="Path 10625" d="M5.173 100.058a.986.986 0 01-.549-1.191.476.476 0 00.021-.109.494.494 0 00-.888-.328.475.475 0 00-.055.1.986.986 0 01-1.191.549.477.477 0 00-.109-.021.494.494 0 00-.328.888.474.474 0 00.1.055.986.986 0 01.549 1.192.472.472 0 00-.021.109.494.494 0 00.888.328.472.472 0 00.055-.1.986.986 0 011.191-.549.468.468 0 00.109.021.494.494 0 00.328-.888.471.471 0 00-.1-.056z" fill="#4d8af0" opacity=".5"/><circle data-name="Ellipse 634" cx="1.61" cy="1.61" r="1.61" transform="translate(199.174 66.535)" fill="#f55f44" opacity=".5"/><circle data-name="Ellipse 635" cx="1.61" cy="1.61" r="1.61" transform="translate(30.959 181.629)" fill="#f55f44" opacity=".5"/><circle data-name="Ellipse 636" cx="1.61" cy="1.61" r="1.61" transform="translate(226.539 128.509)" fill="#f55f44" opacity=".5"/><path data-name="Path 10626" d="M188.948 20.646a.986.986 0 01-.549-1.191.474.474 0 00.022-.109.494.494 0 00-.888-.328.466.466 0 00-.055.1.986.986 0 01-1.192.549.472.472 0 00-.109-.021.494.494 0 00-.328.888.469.469 0 00.1.055.986.986 0 01.549 1.191.467.467 0 00-.021.109.494.494 0 00.888.328.475.475 0 00.055-.1.986.986 0 011.191-.549.475.475 0 00.11.021.494.494 0 00.327-.888.47.47 0 00-.1-.055z" fill="#4d8af0" opacity=".5"/><path data-name="Path 10627" d="M215.777 189.13a.986.986 0 01-.549-1.191.472.472 0 00.021-.109.494.494 0 00-.888-.328.469.469 0 00-.055.1.986.986 0 01-1.191.549.477.477 0 00-.109-.021.494.494 0 00-.328.888.485.485 0 00.1.055.985.985 0 01.549 1.191.459.459 0 00-.021.109.494.494 0 00.888.328.453.453 0 00.055-.1.986.986 0 011.191-.549.477.477 0 00.109.021.494.494 0 00.328-.888.473.473 0 00-.1-.055z" fill="#4d8af0" opacity=".5"/><path data-name="Path 10628" d="M3.295 49.084a.986.986 0 01-.549-1.191.476.476 0 00.021-.109.494.494 0 00-.888-.328.474.474 0 00-.055.1.986.986 0 01-1.191.549.472.472 0 00-.109-.021.494.494 0 00-.328.888.474.474 0 00.1.055.986.986 0 01.549 1.191.472.472 0 00-.021.109.494.494 0 00.888.328.473.473 0 00.055-.1.986.986 0 011.191-.549.474.474 0 00.109.021.494.494 0 00.328-.888.476.476 0 00-.1-.055z" fill="#4d8af0" opacity=".5"/><circle data-name="Ellipse 637" cx="1.61" cy="1.61" r="1.61" transform="translate(19.691 74.583)" fill="#47e6b1" opacity=".5"/><circle data-name="Ellipse 638" cx="1.61" cy="1.61" r="1.61" transform="translate(227.344 87.461)" fill="#47e6b1" opacity=".5"/><g data-name="Group 2979" opacity=".5" fill="#47e6b1"><path data-name="Rectangle 2828" d="M156.516 0h.805v4.561h-.805z"/><path data-name="Rectangle 2829" d="M159.199 1.878v.805h-4.561v-.805z"/></g><g data-name="Group 2981" opacity=".5" fill="#47e6b1"><path data-name="Rectangle 2832" d="M7.081 188.336h.805v4.561h-.805z"/><path data-name="Rectangle 2833" d="M9.764 190.214v.805H5.203v-.805z"/></g><g data-name="Group 2982" opacity=".5" fill="#47e6b1"><path data-name="Rectangle 2834" d="M190.32 106.241h.805v4.561h-.805z"/><path data-name="Rectangle 2835" d="M193.003 108.119v.805h-4.561v-.805z"/></g><path data-name="Path 10629" d="M213.448 33.004l1.729 1.584 2.449-3.6.864.72-3.313 4.322-2.449-2.737z" fill="#47e6b1" opacity=".5"/><path data-name="Path 10630" d="M115.737 2.883L43.382 47.411s0 91.838 72.357 141.931c72.357-50.093 72.357-141.931 72.357-141.931z" fill="#3f3d56" stroke="#d0cde1" stroke-width="4"/><path data-name="Path 10631" d="M116.169 2.883l-1.237.761v184.83c.411.29.821.581 1.237.869 72.357-50.093 72.357-141.931 72.357-141.931z" fill="#6c63ff" opacity=".04"/><g data-name="Group 2983"><path data-name="Path 10622" d="M350.6 314.64l13.64 12.5 16.909-24.394 6.82 5.684-23.73 30.077-19.324-21.6z" transform="translate(-252.385 -221.526)" fill="url(#a)" opacity=".7"/></g><path data-name="Path 10632" d="M101.439 93.864l11.069 10.141 15.675-23.052 5.533 4.611-21.208 27.664-15.679-17.523z" fill="#3ad29f"/><g data-name="Group 2986"><path data-name="Polygon 6" d="M179.527 163.646l10.74 6.358-11.04 6.12z" fill="#6c63ff"/><g data-name="Polygon 7" fill="none"><path d="M176.283 161.624L190.266 170l-14.29 7.92z"/><path d="M177.25 163.37l-.24 12.838 11.254-6.238-11.014-6.6m-.968-1.746l13.985 8.38-14.289 7.92.304-16.3z" fill="#6c63ff"/></g></g><g data-name="Group 2987"><g data-name="Ellipse 259" transform="translate(17.867 30.495)" fill="#ff4f5e" stroke="#ff4f5e" stroke-width="1.5"><ellipse cx="7.5" cy="8" rx="7.5" ry="8" stroke="none"/><ellipse cx="7.5" cy="8" rx="6.75" ry="7.25" fill="none"/></g><g data-name="Ellipse 260" transform="translate(10.867 23.495)" fill="none" stroke="#6c63ff" stroke-width="2" stroke-dasharray="3"><circle cx="14.5" cy="14.5" r="14.5" stroke="none"/><circle cx="14.5" cy="14.5" r="13.5"/></g></g></g></g></svg>