<svg xmlns="http://www.w3.org/2000/svg" xmlns:xlink="http://www.w3.org/1999/xlink" width="878.101" height="607.277"><defs><linearGradient id="a" x1=".5" x2=".5" y2="1" gradientUnits="objectBoundingBox"><stop offset="0" stop-color="#e0e0e0"/><stop offset=".31" stop-color="#fccc63"/><stop offset=".77" stop-color="#f55f44"/></linearGradient><linearGradient id="c" x1=".5" y1="0" x2=".5" y2="1" xlink:href="#a"/><linearGradient id="b" x1=".5" y1=".999" x2=".5" y2="-.001" gradientUnits="objectBoundingBox"><stop offset="0" stop-color="gray" stop-opacity=".251"/><stop offset=".54" stop-color="gray" stop-opacity=".122"/><stop offset="1" stop-color="gray" stop-opacity=".102"/></linearGradient><linearGradient id="d" x1=".503" y1="1" x2=".503" y2=".002" xlink:href="#b"/></defs><g data-name="Group 2975"><g data-name="Group 2970" transform="translate(0 178.9)"><path data-name="Rectangle 56" fill="#50576b" d="M0 1.027h49.069v4.588H0z"/><path data-name="Rectangle 57" fill="#50576b" d="M0 11.351h49.069v4.588H0z"/><path data-name="Rectangle 58" fill="#50576b" d="M0 21.674h49.069v4.588H0z"/><path data-name="Path 126" d="M76.777 135.244a67.9 67.9 0 01-58.469-33.635l-.354-.608 58.3-33.61V0h.7a67.621 67.621 0 01-.176 135.242zm-56.9-33.734A66.223 66.223 0 1077.652 1.41v66.792l-.351.2z" fill="#50576b"/><circle data-name="Ellipse 59" cx="25.444" cy="25.444" r="25.444" transform="translate(51.337 42.178)" fill="#3f3d56"/><circle data-name="Ellipse 60" cx="12.691" cy="12.691" r="12.691" transform="translate(64.09 54.931)" fill="#fafbfc"/></g><g data-name="Group 2971" transform="translate(444.553 256.927)"><circle data-name="Ellipse 169" cx="2.425" cy="2.425" r="2.425" transform="translate(26.622 193.489)" fill="#fff"/><circle data-name="Ellipse 170" cx="2.425" cy="2.425" r="2.425" transform="translate(199.671 334.21)" fill="#fff"/><circle data-name="Ellipse 171" cx="1.355" cy="1.355" r="1.355" transform="translate(98.528 347.64)" fill="#fff"/><circle data-name="Ellipse 172" cx="1.355" cy="1.355" r="1.355" transform="translate(398.51 282.034)" fill="#fff"/><circle data-name="Ellipse 173" cx="1.355" cy="1.355" r="1.355" transform="translate(321.019 160.33)" fill="#fff"/><circle data-name="Ellipse 174" cx="1.355" cy="1.355" r="1.355" transform="translate(430.838 219.756)" fill="#fff"/><circle data-name="Ellipse 175" cx="2.425" cy="2.425" r="2.425" transform="translate(69.409 114.096)" fill="#fff"/><path data-name="Path 3755" d="M5.196 280.57H3.038v-2.158h-.879v2.158H0v.879h2.158v2.154h.879v-2.154h2.158z" fill="#fff"/><path data-name="Path 3756" d="M59.392 279.619h-2.158v-2.158h-.879v2.158h-2.159v.879h2.158v2.154h.879v-2.154h2.158z" fill="#fff"/><path data-name="Path 3757" d="M136.884 323.356h-2.158v-2.158h-.88v2.158h-2.158v.88h2.158v2.154h.88v-2.154h2.158z" fill="#fff"/><path data-name="Path 3758" d="M244.815 61.169h-.984v-.984h-.4v.984h-.984v.4h.984v.984h.4v-.984h.984z" fill="#fff"/><path data-name="Path 3759" d="M385.062 151.497h-.984v-.984h-.4v.984h-.984v.4h.984v.984h.4v-.984h.984z" fill="#fff"/><path data-name="Path 3760" d="M302.34 210.447h-.984v-.984h-.4v.984h-.984v.4h.984v.984h.4v-.984h.984z" fill="#fff"/><path data-name="Path 3762" d="M6.161 328.348h-.984v-.984h-.4v.984h-.984v.4h.984v.984h.4v-.984h.984z" fill="#fff"/><path data-name="Path 3763" d="M133.095 73.054h-.984v-.984h-.4v.984h-.984v.4h.984v.984h.4v-.984h.984z" fill="#fff"/><path data-name="Path 3764" d="M73.194 215.201h-.984v-.984h-.4v.984h-.984v.4h.984v.984h.4v-.984h.984z" fill="#fff"/><path data-name="Path 3765" d="M86.029 174.316h-.984v-.984h-.4v.984h-.984v.4h.984v.984h.4v-.984h.984z" fill="#fff"/><path data-name="Path 3767" d="M139.955 277.261h-11.281l2.016-13.7h7.25z" fill="#6a7486"/><g data-name="Group 383"><path data-name="Path 3768" d="M130.129 269.003h8.37l-.561-3.827h-7.25z" opacity=".1"/></g><path data-name="Path 3769" d="M235.532 277.261h-11.277l2.011-13.7h7.259z" fill="#6a7486"/><g data-name="Group 384"><path data-name="Path 3770" d="M225.705 269.003h8.377l-.561-3.827h-7.255z" opacity=".1"/></g><path data-name="Path 3771" d="M176.609 277.261h-11.277l2.011-13.7h7.255z" fill="#6a7486"/><g data-name="Group 385"><path data-name="Path 3772" d="M166.782 269.003h8.377l-.561-3.827h-7.255z" opacity=".1"/></g><path data-name="Path 3773" d="M199.572 277.261h-11.277l2.011-13.7h7.25z" fill="#6a7486"/><g data-name="Group 386"><path data-name="Path 3774" d="M189.745 269.003h8.377l-.566-3.827h-7.25z" opacity=".1"/></g><path data-name="Rectangle 1924" fill="#6a7486" d="M139.955 150.375h80.563v3.223h-80.563z"/><path data-name="Path 3775" d="M232.969 99.468a4.54 4.54 0 00-6.732 0 43.325 43.325 0 00-6.313 9.318 73.575 73.575 0 00-8.267 34.229v124.006h35.656V142.493a73.317 73.317 0 00-7.878-33.345 41.625 41.625 0 00-6.466-9.68z" fill="#d4dae3"/><path data-name="Path 3776" d="M130.723 99.468a4.54 4.54 0 016.732 0 43.345 43.345 0 016.318 9.318 73.637 73.637 0 018.267 34.229v124.006h-35.656V142.493a73.318 73.318 0 017.877-33.345 41.492 41.492 0 016.462-9.68z" fill="#d4dae3" opacity=".999"/><path data-name="Path 3777" d="M116.589 145.136l8.462.043v10.427h-8.462z" fill="#6a7486"/><path data-name="Path 3778" d="M143.578 145.136l8.462.043v10.427h-8.462z" fill="#6a7486"/><path data-name="Path 3779" d="M211.656 145.136l8.458.043v10.427h-8.458z" fill="#6a7486"/><path data-name="Path 3780" d="M238.645 145.136l8.458.043v10.427h-8.458z" fill="#6a7486"/><path data-name="Path 3783" d="M450.875 658.756h-.309a5.486 5.486 0 01-5.486-5.486v-25.13h11.281v25.13a5.486 5.486 0 01-5.486 5.486z" transform="translate(-316.406 -350.879)" fill="url(#a)"/><path data-name="Path 3784" d="M527.985 658.756h-.314a5.486 5.486 0 01-5.481-5.486v-25.13h11.277v25.13a5.486 5.486 0 01-5.482 5.486z" transform="translate(-356.858 -350.879)" fill="url(#c)"/><path data-name="Path 3785" d="M576.28 658.756h-.318a5.486 5.486 0 01-5.472-5.486v-25.13h11.277v25.13a5.486 5.486 0 01-5.487 5.486z" transform="translate(-382.195 -350.879)" fill="url(#c)"/><path data-name="Path 3786" d="M654.235 658.756h-.3a5.486 5.486 0 01-5.5-5.486v-25.13h11.276v25.13a5.486 5.486 0 01-5.476 5.486z" transform="translate(-424.185 -350.879)" fill="url(#c)"/><path data-name="Path 3787" d="M186.321 2.238a6.275 6.275 0 00-9.608 0 66.7 66.7 0 00-9.033 13.963 114.813 114.813 0 00-11.8 51.306v199.01h50.869V66.708a114.443 114.443 0 00-11.238-49.966 61.957 61.957 0 00-9.19-14.504z" fill="#b0bacc"/><rect data-name="Rectangle 1925" width="26.547" height="12.166" rx="6.083" transform="translate(167.714 24.344)" fill="#6a7486"/><g data-name="Group 389"><path data-name="Rectangle 1926" fill="#6a7486" d="M156.157 74.31h50.35v1.954h-50.35z"/></g><g data-name="Group 409"><path data-name="Path 3788" d="M769.176 348.873a21 21 0 00-6.2-5.459 20.824 20.824 0 10-10.415 38.864 11.854 11.854 0 001.316-.048 20.818 20.818 0 0015.3-33.32z" transform="translate(-438.939 -248.537)" fill="url(#b)"/><path data-name="Path 3790" d="M308.771 100.391a21.15 21.15 0 00-2.936 1.547 4.613 4.613 0 00-1.571 1.407 1.82 1.82 0 00-.037 2.008 2.828 2.828 0 002.214.8 5.666 5.666 0 002.536-.255 5.459 5.459 0 001.48-1.074l1.692-1.535c.607-.534 1.213-1.268.977-2.02a1.82 1.82 0 00-1.438-.971 6.017 6.017 0 00-4.246.746" opacity=".1"/><g data-name="Group 390"><circle data-name="Ellipse 179" cx="1.037" cy="1.037" r="1.037" transform="translate(300.667 119.614)" opacity=".1"/></g><g data-name="Group 391"><circle data-name="Ellipse 180" cx="3.797" cy="3.797" r="3.797" transform="translate(318.967 110.291)" opacity=".1"/></g><g data-name="Group 392"><path data-name="Path 3791" d="M329.359 101.022a5.18 5.18 0 11-5.866-5.192 19.769 19.769 0 015.866 5.192z" opacity=".1"/></g><g data-name="Group 393"><path data-name="Path 3792" d="M329.71 124.212a19.635 19.635 0 01-14.849 8.31c0-.273-.036-.546-.036-.825a9.329 9.329 0 0114.886-7.485z" opacity=".1"/></g></g><path data-name="Path 3793" d="M327.463 534.424a11.48 11.48 0 00-3.394-3 11.41 11.41 0 10-5.7 21.251c.243 0 .475 0 .723-.024a11.41 11.41 0 008.367-18.222z" transform="translate(-243.91 -299.317)" fill="url(#d)"/><path data-name="Path 3795" d="M71.81 235.14a11.166 11.166 0 00-1.6.842 2.632 2.632 0 00-.86.77 1.013 1.013 0 000 1.1 1.536 1.536 0 001.207.437 3.094 3.094 0 001.388-.138 2.99 2.99 0 00.813-.59l.922-.837c.323-.295.675-.694.532-1.1a.951.951 0 00-.784-.532 3.266 3.266 0 00-2.315.409" opacity=".1"/><g data-name="Group 394"><circle data-name="Ellipse 181" cx=".566" cy=".566" r=".566" transform="translate(67.379 245.646)" opacity=".1"/></g><g data-name="Group 395"><circle data-name="Ellipse 182" cx="2.078" cy="2.078" r="2.078" transform="translate(77.387 240.55)" opacity=".1"/></g><g data-name="Group 396"><path data-name="Path 3796" d="M83.054 235.482a2.852 2.852 0 11-3.209-2.852 10.778 10.778 0 013.209 2.852z" opacity=".1"/></g><g data-name="Group 397"><path data-name="Path 3797" d="M83.263 248.164a10.739 10.739 0 01-8.12 4.545v-.475a5.1 5.1 0 018.139-4.093z" opacity=".1"/></g><path data-name="Path 3798" d="M330.732 255.473l10.364 5.515-8.091 9.052" fill="none"/><circle data-name="Ellipse 183" cx=".875" cy=".875" r=".875" transform="translate(385.579 201.738)" fill="#fff"/></g><g data-name="Group 2972"><path data-name="Path 3861" d="M79.406 350.39v88.475h82.691" fill="none" stroke="#6a7486" stroke-width=".5" stroke-dasharray="2"/><path data-name="Path 3600" d="M215.883 492.788c-.569 0-1.143-.009-1.708-.027l.013-.41c.81.025 1.636.032 2.45.021l.006.41q-.38.006-.761.006zm3.228-.1l-.024-.409a54.033 54.033 0 002.442-.2l.043.408c-.816.09-1.643.158-2.461.206zm-7.4-.064a55.96 55.96 0 01-2.457-.244l.05-.407c.806.1 1.626.18 2.438.242zm12.31-.451l-.061-.405a53.55 53.55 0 002.413-.422l.08.4a46.36 46.36 0 01-2.433.432zm-17.209-.15a53.688 53.688 0 01-2.424-.468l.087-.4c.794.173 1.6.329 2.406.465zm22.051-.812l-.1-.4c.791-.2 1.587-.412 2.364-.643l.117.393c-.784.24-1.585.458-2.382.655zm-26.875-.235a53.61 53.61 0 01-2.371-.69l.124-.391a53.14 53.14 0 002.352.684zm31.607-1.169l-.135-.387c.768-.267 1.54-.555 2.3-.858l.152.381c-.766.309-1.544.6-2.322.869zm-36.32-.321a52.758 52.758 0 01-2.3-.907l.159-.378c.752.317 1.52.62 2.284.9zm40.9-1.511l-.17-.373a52.32 52.32 0 002.2-1.063l.187.365a47.67 47.67 0 01-2.22 1.076zm4.387-2.243l-.2-.356c.707-.4 1.413-.828 2.1-1.261l.219.346c-.698.443-1.409.87-2.122 1.276zm4.167-2.636l-.239-.33c.666-.465 1.33-.952 1.975-1.448l.25.325c-.648.499-1.318.99-1.989 1.458zm-62.5-.577a50.99 50.99 0 01-1.965-1.5l.256-.32a52.197 52.197 0 001.95 1.485zm66.41-2.429l-.264-.314a54.133 54.133 0 001.836-1.622l.278.3a46.965 46.965 0 01-1.851 1.641zm-70.269-.653a53.12 53.12 0 01-1.82-1.669l.284-.3a54.306 54.306 0 001.806 1.656zm73.893-2.7l-.292-.288c.572-.58 1.138-1.18 1.682-1.783l.3.274a59.734 59.734 0 01-1.694 1.8zm-77.455-.72a53.927 53.927 0 01-1.66-1.827l.31-.269a54.159 54.159 0 001.647 1.813zm80.76-2.948l-.317-.26a53.887 53.887 0 001.513-1.929l.328.245a46.787 46.787 0 01-1.526 1.95zm-83.995-.778a50.452 50.452 0 01-1.486-1.969l.333-.24a54 54 0 001.475 1.954zm86.953-3.177l-.339-.23c.457-.673.905-1.366 1.331-2.06l.35.215a47.899 47.899 0 01-1.343 2.08zm-89.834-.826a51.462 51.462 0 01-1.3-2.1l.353-.208c.413.7.847 1.4 1.29 2.079zm92.42-3.385l-.359-.2c.394-.712.776-1.444 1.137-2.175l.368.182c-.368.743-.75 1.48-1.147 2.198zm2.19-4.433l-.376-.165c.327-.746.641-1.51.933-2.271l.383.147a53.764 53.764 0 01-.941 2.294zm-99.214-.885a54.985 54.985 0 01-.895-2.294l.385-.14c.277.762.576 1.528.888 2.277zm100.988-3.735l-.389-.129c.256-.771.5-1.559.718-2.343l.395.111c-.225.795-.468 1.59-.726 2.367zm-102.672-.9a53.593 53.593 0 01-.681-2.373l.4-.1c.207.787.434 1.58.676 2.355zm104.009-3.854l-.4-.093c.184-.79.351-1.6.5-2.4l.4.074c-.148.817-.317 1.63-.502 2.426zm-105.261-.921a53.67 53.67 0 01-.46-2.425l.4-.067c.133.8.287 1.612.457 2.407zm106.155-3.933l-.406-.056c.11-.8.2-1.622.277-2.434l.408.037a53.623 53.623 0 01-.279 2.453zm-106.963-.936a50.17 50.17 0 01-.236-2.457l.409-.03c.059.813.138 1.633.234 2.439zm107.409-3.979l-.41-.018c.036-.812.055-1.637.055-2.449h.41c0 .819-.019 1.649-.055 2.468zm-107.769-.943c-.014-.5-.021-1.016-.021-1.524q0-.473.008-.945l.41.007q-.008.468-.008.938c0 .5.007 1.014.021 1.513zm.494-4.91l-.409-.026a54.37 54.37 0 01.21-2.46l.408.044a50.4 50.4 0 00-.212 2.448zm106.655-2.5c-.082-.808-.195-1.2-.314-2.007l.406-.06c.12.811.222 1.43.305 2.245zm-106.128-2.368l-.405-.063a54.61 54.61 0 01.434-2.43l.4.081a53.574 53.574 0 00-.431 2.416zm105.4-2.053c-.156-.8-.333-1.605-.525-2.393l.4-.1c.193.794.371 1.605.529 2.411zm-104.429-2.748l-.4-.1c.2-.794.42-1.6.656-2.38l.393.118a54.214 54.214 0 00-.651 2.365zm103.27-2.012a54.113 54.113 0 00-.743-2.335l.388-.133c.266.774.518 1.566.749 2.353zM165.39 421.11l-.387-.136c.273-.775.567-1.554.875-2.315l.38.154c-.31.753-.602 1.528-.868 2.297zm100.262-1.944c-.3-.755-.62-1.512-.952-2.251l.374-.168c.335.745.658 1.508.96 2.268zm-98.426-2.6l-.373-.171c.343-.746.707-1.494 1.083-2.223l.364.188a51.397 51.397 0 00-1.074 2.199zm96.419-1.853a53.754 53.754 0 00-1.156-2.156l.357-.2c.4.712.795 1.443 1.164 2.172zm-94.168-2.507l-.355-.2c.409-.71.84-1.421 1.282-2.113l.346.221c-.439.675-.867 1.38-1.273 2.085zm91.759-1.75a53.738 53.738 0 00-1.348-2.042l.337-.234c.465.671.922 1.363 1.359 2.058zm-89.12-2.383l-.335-.236c.473-.67.967-1.339 1.469-1.986l.324.251a54.562 54.562 0 00-1.458 1.964zm86.331-1.639a53.559 53.559 0 00-1.53-1.912l.314-.263a53.262 53.262 0 011.541 1.927zm-83.326-2.235l-.312-.266a53.909 53.909 0 011.643-1.843l.3.28a47.844 47.844 0 00-1.631 1.823zm80.181-1.519a51.535 51.535 0 00-1.7-1.766l.289-.291c.58.577 1.156 1.175 1.711 1.78zm-76.838-2.063l-.287-.293a57.086 57.086 0 011.8-1.686l.273.306c-.606.541-1.208 1.1-1.79 1.673zm73.363-1.39a46.768 46.768 0 00-1.853-1.6l.262-.316c.63.521 1.258 1.066 1.866 1.617zm-69.71-1.872l-.259-.318a55.088 55.088 0 011.948-1.514l.244.329c-.653.478-1.304.984-1.933 1.496zm3.933-2.915l-.229-.34c.679-.457 1.378-.9 2.077-1.329l.213.35c-.694.415-1.388.859-2.061 1.312zm4.18-2.543l-.2-.36a53.9 53.9 0 012.188-1.133l.18.368c-.725.35-1.455.729-2.168 1.119zm49.488-.95a54.085 54.085 0 00-2.222-1.044l.166-.375c.75.332 1.5.685 2.239 1.052zm-45.1-1.2l-.163-.376c.75-.325 1.518-.637 2.282-.927l.146.383c-.758.288-1.519.6-2.264.92zm40.607-.786a54.252 54.252 0 00-2.31-.835l.131-.389a55.56 55.56 0 012.327.841zm-36.033-.951l-.128-.39c.779-.255 1.574-.5 2.363-.715l.11.4c-.779.208-1.568.447-2.341.7zm31.383-.61a52.557 52.557 0 00-2.371-.617l.094-.4c.8.188 1.6.4 2.389.622zm-26.662-.7l-.091-.4a54.26 54.26 0 012.419-.494l.073.4c-.798.143-1.605.308-2.398.49zm21.895-.424c-.8-.15-1.612-.283-2.417-.4l.057-.406a52.37 52.37 0 012.436.4zm-17.074-.446l-.054-.406c.812-.108 1.637-.2 2.454-.27l.036.408c-.808.066-1.627.156-2.433.264zm12.223-.235a53.61 53.61 0 00-2.444-.174l.02-.41c.82.04 1.648.1 2.462.176zm-7.343-.191l-.017-.41a57.673 57.673 0 012.283-.048h.186v.41h-.184c-.755-.003-1.517.01-2.265.044z" fill="#6a7486"/><g data-name="Group 356"><circle data-name="Ellipse 120" cx="28.054" cy="28.054" r="28.054" transform="translate(188.048 410.475)" fill="#6c63ff"/></g><path data-name="Path 3828" d="M222.169 434.312h-1.278v-2.484a5.106 5.106 0 10-10.211-.069v2.552h-1.276a2.134 2.134 0 00-2.128 2.128v10.21a2.134 2.134 0 002.128 2.127h12.765a2.133 2.133 0 002.127-2.127v-10.21a2.133 2.133 0 00-2.127-2.127zm-5.637 6.637v3.657a.763.763 0 01-.707.766.746.746 0 01-.781-.745v-3.68a1.7 1.7 0 111.489 0zm2.872-6.637h-7.235v-2.552a3.617 3.617 0 117.233 0z" fill="#fff"/><path data-name="Path 3864" d="M269.806 438.865h255.8" fill="none" stroke="#6a7486" stroke-width=".5" stroke-dasharray="2"/><g data-name="Group 431" transform="translate(70.631 337.109)"><circle data-name="Ellipse 201" cx="9.134" cy="9.134" r="9.134" fill="#efefef"/><circle data-name="Ellipse 202" cx="3.996" cy="3.996" r="3.996" transform="translate(3.425 4.567)" fill="#4394fc"/></g></g><g data-name="Group 2973"><g data-name="Group 2974"><g data-name="Group 432" transform="translate(326.377)" fill="#6a7486"><circle data-name="Ellipse 185" cx="5.709" cy="5.709" r="5.709" transform="translate(0 10.575)"/><circle data-name="Ellipse 189" cx="3.996" cy="3.996" r="3.996" transform="translate(199.802 124.748)"/><circle data-name="Ellipse 191" cx="2.854" cy="2.854" r="2.854" transform="translate(202.085 16.284)"/><circle data-name="Ellipse 194" cx="1.713" cy="1.713" r="1.713" transform="translate(91.338 14.001)"/><g data-name="Group 433"><path data-name="Path 3799" d="M132.552 64.262a6.351 6.351 0 116.351-6.351 6.351 6.351 0 01-6.351 6.351zm0-11.855a5.5 5.5 0 105.5 5.5 5.5 5.5 0 00-5.5-5.499z"/><path data-name="Path 3800" d="M120.697 80.35a4.657 4.657 0 114.657-4.657 4.657 4.657 0 01-4.657 4.657zm0-8.468a3.81 3.81 0 103.81 3.81 3.811 3.811 0 00-3.81-3.809z"/><path data-name="Path 3801" d="M146.946 102.789a4.657 4.657 0 114.657-4.657 4.657 4.657 0 01-4.657 4.657zm0-8.467a3.81 3.81 0 103.81 3.81 3.81 3.81 0 00-3.81-3.81z"/><path data-name="Path 3802" d="M138.479 109.139a34.717 34.717 0 1134.717-34.717 34.717 34.717 0 01-34.717 34.717zm0-68.587a33.87 33.87 0 1033.87 33.87 33.87 33.87 0 00-33.87-33.869z"/><path data-name="Path 3803" d="M138.479 88.392c-28.964 0-51.652-6.137-51.652-13.971 0-4.565 6.734-8.488 18.961-11.046l.174.829c-11.623 2.431-18.288 6.155-18.288 10.217 0 7.114 23.266 13.125 50.805 13.125s50.805-6.01 50.805-13.125c0-4.069-6.688-7.8-18.35-10.23l.173-.829c12.268 2.558 19.024 6.486 19.024 11.059-.004 7.836-22.689 13.971-51.652 13.971z"/></g><path data-name="Path 3804" d="M112.417 222.691c-1.175 0-2.361-.019-3.526-.055l.027-.846c1.672.052 3.379.067 5.059.043l.012.847q-.785.011-1.572.011zm6.666-.2l-.05-.845c1.675-.1 3.371-.238 5.042-.413l.089.842c-1.684.185-3.393.325-5.081.424zm-15.282-.132c-1.689-.129-3.4-.3-5.073-.5l.1-.84c1.664.2 3.358.373 5.034.5zm25.419-.931l-.127-.837a112.7 112.7 0 004.983-.872l.165.83a95.786 95.786 0 01-5.021.887zm-35.536-.31a111.871 111.871 0 01-5.006-.967l.18-.828c1.64.356 3.311.679 4.967.959zm45.533-1.677l-.2-.822c1.633-.4 3.276-.851 4.882-1.327l.241.812c-1.622.487-3.277.938-4.923 1.345zm-55.495-.485a111.457 111.457 0 01-4.9-1.424l.255-.807c1.6.506 3.234.981 4.858 1.412zm65.267-2.414l-.278-.8a110.623 110.623 0 004.739-1.771l.314.786c-1.57.634-3.177 1.234-4.775 1.793zm-75-.663a109.724 109.724 0 01-4.753-1.874l.329-.781c1.552.654 3.14 1.28 4.717 1.86zm84.453-3.12l-.351-.771a110.35 110.35 0 004.548-2.195l.385.754a99.948 99.948 0 01-4.581 2.22zm-93.867-.844a110.42 110.42 0 01-4.558-2.3l.4-.747c1.485.793 3.007 1.562 4.523 2.285zm102.926-3.787l-.419-.735c1.46-.833 2.917-1.709 4.331-2.6l.452.715a103.538 103.538 0 01-4.363 2.628zm-111.93-1.024a112.367 112.367 0 01-4.325-2.709l.466-.707c1.406.926 2.85 1.831 4.292 2.689zm120.534-4.42l-.484-.694c1.375-.96 2.747-1.966 4.077-2.989l.516.671a111.776 111.776 0 01-4.109 3.012zm-129.056-1.192a113.322 113.322 0 01-4.058-3.091l.528-.662a110.169 110.169 0 004.027 3.067zm137.133-5.015l-.546-.647a113.1 113.1 0 003.791-3.349l.575.622a108.888 108.888 0 01-3.818 3.382zm-145.1-1.349a112.33 112.33 0 01-3.758-3.446l.586-.611a111.661 111.661 0 003.73 3.421zm152.585-5.572l-.6-.595c1.181-1.2 2.35-2.436 3.472-3.681l.629.566a108.052 108.052 0 01-3.502 3.718zm-159.939-1.478a115.886 115.886 0 01-3.428-3.772l.64-.555c1.1 1.266 2.243 2.525 3.4 3.743zm166.763-6.087l-.654-.537c1.067-1.3 2.118-2.639 3.124-3.984l.678.507a111.919 111.919 0 01-3.148 4.014zm-173.444-1.607a111.481 111.481 0 01-3.069-4.066l.687-.495c.98 1.362 2.005 2.72 3.046 4.036zm179.553-6.561l-.7-.475c.944-1.39 1.869-2.821 2.749-4.254l.722.443a116.292 116.292 0 01-2.771 4.284zm-185.5-1.706a110.951 110.951 0 01-2.684-4.327l.729-.43c.852 1.446 1.748 2.89 2.664 4.294zm190.843-6.99l-.741-.409a113.84 113.84 0 002.348-4.491l.759.375a114.272 114.272 0 01-2.369 4.523zm-196.01-1.78a112.216 112.216 0 01-2.276-4.551l.766-.361a111.172 111.172 0 002.258 4.517zm200.532-7.373l-.776-.34a109.869 109.869 0 001.926-4.69l.79.3a113.782 113.782 0 01-1.943 4.727zM9.593 154.147a110.267 110.267 0 01-1.847-4.738l.8-.289a108.803 108.803 0 001.833 4.7zm208.535-7.715l-.8-.266c.528-1.592 1.027-3.22 1.482-4.837l.815.229c-.466 1.633-.969 3.27-1.497 4.874zM6.116 144.576c-.5-1.614-.977-3.262-1.407-4.9l.819-.215c.426 1.626.9 3.262 1.4 4.863zm214.772-7.957l-.825-.192c.379-1.632.726-3.3 1.03-4.953l.833.153a111.537 111.537 0 01-1.038 4.992zm-217.358-1.9a111.594 111.594 0 01-.95-5.009l.835-.139c.275 1.658.592 3.33.943 4.971zm219.198-8.128l-.839-.115c.228-1.658.42-3.349.572-5.026l.843.076c-.153 1.69-.347 3.394-.576 5.065zm-220.871-1.93c-.2-1.676-.364-3.383-.487-5.074l.845-.062c.123 1.678.286 3.372.484 5.036zm221.793-8.217l-.846-.038c.075-1.678.114-3.38.114-5.058h.847a112.488 112.488 0 01-.115 5.096zM1.113 114.491c-.029-1.038-.044-2.1-.044-3.148q0-.977.017-1.951l.847.015q-.017.966-.017 1.936c0 1.042.015 2.094.043 3.124zm221.8-4.329c-.017-1.679-.074-3.38-.167-5.058l.845-.047c.094 1.69.15 3.4.168 5.1zm-220.778-5.81l-.845-.053c.106-1.692.252-3.4.433-5.079l.842.091a110.35 110.35 0 00-.432 5.046zm220.215-4.291a111.84 111.84 0 00-.625-5.02l.838-.124c.247 1.675.459 3.376.63 5.058zM3.224 94.295l-.837-.129c.259-1.675.561-3.363.9-5.019l.83.168a105.297 105.297 0 00-.895 4.985zm217.646-4.24a111.624 111.624 0 00-1.083-4.942l.823-.2c.4 1.64.766 3.315 1.092 4.979zM5.228 84.391l-.821-.206c.411-1.64.866-3.294 1.354-4.915l.811.244a105.711 105.711 0 00-1.344 4.877zm213.247-4.155a110.597 110.597 0 00-1.533-4.821l.8-.275c.55 1.6 1.07 3.234 1.546 4.858zM8.142 74.69l-.8-.281c.563-1.6 1.17-3.209 1.806-4.78l.785.318a109.035 109.035 0 00-1.79 4.738zm207.045-4.02a111.699 111.699 0 00-1.966-4.648l.773-.348a112.074 112.074 0 011.981 4.684zM11.943 65.291l-.769-.354c.707-1.54 1.46-3.085 2.237-4.59l.753.388a105.882 105.882 0 00-2.221 4.556zm199.1-3.825a110.568 110.568 0 00-2.387-4.452l.737-.417c.832 1.47 1.641 2.979 2.4 4.486zM16.59 56.288l-.734-.423a112.031 112.031 0 012.648-4.363l.714.456a111.817 111.817 0 00-2.627 4.33zm189.478-3.614a112.957 112.957 0 00-2.785-4.218l.7-.482c.96 1.385 1.9 2.815 2.806 4.25zM22.04 47.753l-.692-.488c.976-1.384 2-2.764 3.034-4.1l.669.519a109.679 109.679 0 00-3.01 4.065zm178.268-3.384a111.867 111.867 0 00-3.159-3.949l.649-.544a112.65 112.65 0 013.183 3.979zM28.245 39.751l-.644-.549c1.1-1.287 2.237-2.567 3.393-3.806l.619.578a106.11 106.11 0 00-3.368 3.777zm165.569-3.136a111.826 111.826 0 00-3.506-3.647l.6-.6c1.2 1.191 2.387 2.427 3.533 3.675zM35.148 32.354l-.592-.605a112.08 112.08 0 013.724-3.481l.564.632a116.755 116.755 0 00-3.7 3.454zm151.491-2.87a111.726 111.726 0 00-3.825-3.314l.54-.652c1.3 1.077 2.6 2.2 3.854 3.339zM42.692 25.618l-.535-.657a113.147 113.147 0 014.023-3.126l.5.68c-1.345 1-2.689 2.044-3.988 3.103zm136.15-2.586a113.16 113.16 0 00-4.113-2.954l.478-.7c1.4.954 2.789 1.955 4.144 2.976zM50.813 19.598l-.472-.7a110.17 110.17 0 014.289-2.745l.44.724a108.035 108.035 0 00-4.257 2.721zm119.671-2.282c-1.431-.886-2.9-1.749-4.367-2.566l.412-.74c1.479.824 2.959 1.694 4.4 2.586zM59.445 14.348l-.406-.743c1.483-.811 3-1.6 4.519-2.34l.372.761a110 110 0 00-4.485 2.322zm102.19-1.962a109.886 109.886 0 00-4.587-2.155l.342-.774c1.549.685 3.1 1.415 4.623 2.172zM68.514 9.912l-.337-.777c1.55-.672 3.135-1.316 4.711-1.915l.3.792c-1.56.594-3.136 1.233-4.674 1.9zm83.851-1.621a110.56 110.56 0 00-4.77-1.724l.27-.8c1.609.54 3.226 1.125 4.806 1.738zM77.96 6.328l-.264-.8a110.338 110.338 0 014.88-1.476l.226.816a101.17 101.17 0 00-4.843 1.457zm64.8-1.259c-1.615-.46-3.262-.889-4.9-1.274l.194-.824c1.646.388 3.306.82 4.934 1.284zM87.704 3.623l-.189-.825c1.65-.377 3.33-.72 4.995-1.02l.15.833c-1.652.3-3.319.639-4.956 1.013zm45.211-.875a110.182 110.182 0 00-4.992-.818l.117-.838c1.677.235 3.369.513 5.031.825zm-35.257-.921l-.112-.839c1.676-.224 3.381-.412 5.067-.559l.074.843c-1.673.146-3.364.332-5.028.554zm25.24-.486a112.651 112.651 0 00-5.046-.36l.041-.846c1.693.082 3.4.2 5.084.362zM107.735.948l-.036-.846c1.556-.065 3.142-.1 4.714-.1h.383v.847h-.381c-1.56 0-3.135.033-4.679.1z"/></g><path data-name="Path 3830" d="M264.054 59.141h87.092v101.328h-87.092z" fill="#313446"/><path data-name="Path 3831" d="M255.261 49.092h104.677v36.009H255.261z" fill="#6c63ff"/><path data-name="Path 3867" d="M255.261 91.8h104.677v36.009H255.261z" fill="#6c63ff"/><path data-name="Path 3829" d="M255.261 134.508h104.677v36.009H255.261z" fill="#6c63ff"/><path data-name="Rectangle 34" fill="#fff" d="M345.375 55.372h6.699v6.699h-6.699z"/><g data-name="Group 2969" opacity=".5" fill="#fff"><path data-name="Rectangle 33" opacity=".8" d="M335.745 55.372h6.699v6.699h-6.699z"/><path data-name="Rectangle 36" opacity=".8" d="M335.745 97.662h6.699v6.699h-6.699z"/></g><path data-name="Rectangle 37" fill="#fff" d="M345.375 97.662h6.699v6.699h-6.699z"/><g data-name="Group 21" opacity=".5" fill="#fff"><path data-name="Rectangle 32" opacity=".4" d="M326.114 55.372h6.699v6.699h-6.699z"/><path data-name="Rectangle 35" opacity=".4" d="M326.114 97.662h6.699v6.699h-6.699z"/><path data-name="Rectangle 38" opacity=".4" d="M326.114 139.951h6.699v6.699h-6.699z"/></g><path data-name="Rectangle 39" fill="#7488f8" opacity=".8" d="M341.934 139.952h6.699v6.699h-6.699z"/><path data-name="Rectangle 40" fill="#3351ff" d="M351.564 139.952h6.699v6.699h-6.699z"/><path data-name="Path 3570" d="M228.884 199.201a51.1 51.1 0 0151.031-48.431c1.553 0 3.087.081 4.6.217a67.9 67.9 0 01117.366-.055c1.28-.1 2.57-.161 3.875-.161a51.1 51.1 0 0151.031 48.43" fill="#fff"/><path data-name="Path 3571" d="M239.527 195.269a51.1 51.1 0 0151.031-48.431c1.553 0 3.087.081 4.6.217A67.9 67.9 0 01412.524 147c1.28-.1 2.57-.161 3.875-.161a51.1 51.1 0 0151.031 48.43" fill="none" stroke="#6a7486" stroke-miterlimit="10"/><g data-name="Group 435" transform="translate(340.078 156.716)"><ellipse data-name="Ellipse 196" cx="7.421" cy="8.563" rx="7.421" ry="8.563" fill="#efefef"/><circle data-name="Ellipse 197" cx="4.567" cy="4.567" r="4.567" transform="translate(3.425 4.567)" fill="#69c384"/></g></g><path data-name="Path 10618" d="M348.081 165.69v138.926h180.106" fill="none" stroke="#6a7486" stroke-width=".5" stroke-dasharray="2"/></g><g data-name="Group 2974"><path data-name="Path 3865" d="M752.594 215.92V335.4" fill="none" stroke="#6a7486" stroke-width=".5" stroke-dasharray="2"/><g data-name="Group 2972" transform="translate(655 94.119)"><circle data-name="Ellipse 71" cx="1.609" cy="1.609" r="1.609" transform="translate(4.827 8.628)" fill="#fd746c"/><circle data-name="Ellipse 72" cx="1.609" cy="1.609" r="1.609" transform="translate(9.653 8.628)" fill="#fad375"/><circle data-name="Ellipse 73" cx="1.609" cy="1.609" r="1.609" transform="translate(14.479 8.628)" fill="#69c384"/><path data-name="Rectangle 1783" fill="none" stroke="#6a7486" stroke-miterlimit="10" d="M0 5.971h195.195v115.83H0z"/><path data-name="Line 165" fill="none" stroke="#6a7486" stroke-miterlimit="10" d="M0 14.743h195.195"/><path data-name="Rectangle 1784" fill="none" stroke="#6a7486" stroke-miterlimit="10" d="M42.364 29.566h110.467v34.32H42.364z"/><path data-name="Rectangle 1785" fill="#e3e8ee" d="M21.718 83.41h148.005v4.438H21.718z"/><path data-name="Rectangle 1786" fill="#e3e8ee" d="M21.718 94.061h148.005v4.438H21.718z"/><path data-name="Rectangle 1787" fill="#e3e8ee" d="M21.718 104.712h148.005v4.438H21.718z"/><path data-name="Path 3497" d="M103.013 6.146l-7.143 3.957 7.617-2.687z" fill="#79758c"/><ellipse data-name="Ellipse 95" cx="1.993" cy="4.015" rx="1.993" ry="4.015" transform="rotate(-17.994 60.462 -320.15)" fill="#3f3d56"/><ellipse data-name="Ellipse 96" cx="1.503" cy="2.835" rx="1.503" ry="2.835" transform="rotate(-17.994 57.383 -343.433)" fill="#3f3d56"/><path data-name="Path 3498" d="M105.451 3.903l4.738-1.71 1.007 2.789-4.585 3.1z" fill="#3f3d56"/><path data-name="Rectangle 2827" fill="#ff6584" d="M35.661 36.269h110.467v34.32H35.661z"/></g></g></g></svg>