<svg xmlns="http://www.w3.org/2000/svg" xmlns:xlink="http://www.w3.org/1999/xlink" width="450" height="347" viewBox="0 0 450 347">
  <defs>
    <clipPath id="clip-path">
      <rect id="矩形_3678" data-name="矩形 3678" width="450" height="347" transform="translate(951 2088)" fill="none" stroke="#707070" stroke-width="1"/>
    </clipPath>
  </defs>
  <g id="蒙版组_127" data-name="蒙版组 127" transform="translate(-951 -2088)" clip-path="url(#clip-path)">
    <g id="组_1933" data-name="组 1933" transform="translate(446 -2127)">
      <g id="组_1579" data-name="组 1579" transform="translate(507 4277)">
        <ellipse id="椭圆_238" data-name="椭圆 238" cx="224.5" cy="18.015" rx="224.5" ry="18.015" transform="translate(0 185.973)" fill="#f7f8f9"/>
        <g id="组_1275" data-name="组 1275" transform="translate(45.999 82)">
          <rect id="矩形_2036" data-name="矩形 2036" width="93" height="28" transform="translate(0 83)" fill="#3f3d56"/>
          <ellipse id="椭圆_223" data-name="椭圆 223" cx="46.5" cy="9.5" rx="46.5" ry="9.5" transform="translate(0 73)" fill="#6c63ff"/>
          <ellipse id="椭圆_224" data-name="椭圆 224" cx="46.5" cy="10" rx="46.5" ry="10" transform="translate(0 102)" fill="#3f3d56"/>
          <rect id="矩形_2036-2" data-name="矩形 2036" width="93" height="28" transform="translate(0 46)" fill="#3f3d56"/>
          <ellipse id="椭圆_223-2" data-name="椭圆 223" cx="46.5" cy="10.5" rx="46.5" ry="10.5" transform="translate(0 36)" fill="#6c63ff"/>
          <ellipse id="椭圆_224-2" data-name="椭圆 224" cx="46.5" cy="10.5" rx="46.5" ry="10.5" transform="translate(0 65)" fill="#3f3d56"/>
          <rect id="矩形_2036-3" data-name="矩形 2036" width="93" height="28" transform="translate(0 11)" fill="#3f3d56"/>
          <ellipse id="椭圆_223-3" data-name="椭圆 223" cx="46.5" cy="10.5" rx="46.5" ry="10.5" transform="translate(0)" fill="#6c63ff"/>
          <ellipse id="椭圆_224-3" data-name="椭圆 224" cx="46.5" cy="10.5" rx="46.5" ry="10.5" transform="translate(0 29)" fill="#3f3d56"/>
        </g>
        <g id="组_1276" data-name="组 1276" transform="translate(83.066 120.386)">
          <rect id="矩形_2037" data-name="矩形 2037" width="4.985" height="4.985" transform="translate(7.167)" fill="#ff6584" opacity="0.8"/>
          <rect id="矩形_2038" data-name="矩形 2038" width="4.985" height="4.985" transform="translate(14.333)" fill="#ff6584"/>
          <rect id="矩形_2039" data-name="矩形 2039" width="4.985" height="4.985" fill="#ff6584" opacity="0.4"/>
        </g>
        <g id="组_1277" data-name="组 1277" transform="translate(83.066 156.149)">
          <rect id="矩形_2037-2" data-name="矩形 2037" width="4.985" height="4.985" transform="translate(7.167)" fill="#ff6584" opacity="0.8"/>
          <rect id="矩形_2038-2" data-name="矩形 2038" width="4.985" height="4.985" transform="translate(14.333)" fill="#ff6584"/>
          <rect id="矩形_2039-2" data-name="矩形 2039" width="4.985" height="4.985" fill="#ff6584" opacity="0.4"/>
        </g>
        <g id="组_1278" data-name="组 1278" transform="translate(83.066 192.21)">
          <rect id="矩形_2037-3" data-name="矩形 2037" width="4.985" height="4.985" transform="translate(7.167 0)" fill="#ff6584" opacity="0.8"/>
          <rect id="矩形_2038-3" data-name="矩形 2038" width="4.985" height="4.985" transform="translate(14.333 0)" fill="#ff6584"/>
          <rect id="矩形_2039-3" data-name="矩形 2039" width="4.985" height="4.985" transform="translate(0 0)" fill="#ff6584" opacity="0.4"/>
        </g>
        <g id="组_1275-2" data-name="组 1275" transform="translate(178 82)">
          <rect id="矩形_2036-4" data-name="矩形 2036" width="93" height="28" transform="translate(0 83)" fill="#3f3d56"/>
          <ellipse id="椭圆_223-4" data-name="椭圆 223" cx="46.5" cy="9.5" rx="46.5" ry="9.5" transform="translate(0 73)" fill="#6c63ff"/>
          <ellipse id="椭圆_224-4" data-name="椭圆 224" cx="46.5" cy="10" rx="46.5" ry="10" transform="translate(0 102)" fill="#3f3d56"/>
          <rect id="矩形_2036-5" data-name="矩形 2036" width="93" height="28" transform="translate(0 46)" fill="#3f3d56"/>
          <ellipse id="椭圆_223-5" data-name="椭圆 223" cx="46.5" cy="10.5" rx="46.5" ry="10.5" transform="translate(0 36)" fill="#6c63ff"/>
          <ellipse id="椭圆_224-5" data-name="椭圆 224" cx="46.5" cy="10.5" rx="46.5" ry="10.5" transform="translate(0 65)" fill="#3f3d56"/>
          <rect id="矩形_2036-6" data-name="矩形 2036" width="93" height="28" transform="translate(0 11)" fill="#3f3d56"/>
          <ellipse id="椭圆_223-6" data-name="椭圆 223" cx="46.5" cy="10.5" rx="46.5" ry="10.5" transform="translate(0)" fill="#6c63ff"/>
          <ellipse id="椭圆_224-6" data-name="椭圆 224" cx="46.5" cy="10.5" rx="46.5" ry="10.5" transform="translate(0 29)" fill="#3f3d56"/>
        </g>
        <g id="组_1276-2" data-name="组 1276" transform="translate(214.979 120.386)">
          <rect id="矩形_2037-4" data-name="矩形 2037" width="4.985" height="4.985" transform="translate(7.167)" fill="#ff6584" opacity="0.8"/>
          <rect id="矩形_2038-4" data-name="矩形 2038" width="4.985" height="4.985" transform="translate(14.333)" fill="#ff6584"/>
          <rect id="矩形_2039-4" data-name="矩形 2039" width="4.985" height="4.985" fill="#ff6584" opacity="0.4"/>
        </g>
        <g id="组_1277-2" data-name="组 1277" transform="translate(214.979 156.149)">
          <rect id="矩形_2037-5" data-name="矩形 2037" width="4.985" height="4.985" transform="translate(7.167)" fill="#ff6584" opacity="0.8"/>
          <rect id="矩形_2038-5" data-name="矩形 2038" width="4.985" height="4.985" transform="translate(14.333)" fill="#ff6584"/>
          <rect id="矩形_2039-5" data-name="矩形 2039" width="4.985" height="4.985" fill="#ff6584" opacity="0.4"/>
        </g>
        <g id="组_1278-2" data-name="组 1278" transform="translate(214.979 192.21)">
          <rect id="矩形_2037-6" data-name="矩形 2037" width="4.985" height="4.985" transform="translate(7.167 0)" fill="#ff6584" opacity="0.8"/>
          <rect id="矩形_2038-6" data-name="矩形 2038" width="4.985" height="4.985" transform="translate(14.333 0)" fill="#ff6584"/>
          <rect id="矩形_2039-6" data-name="矩形 2039" width="4.985" height="4.985" transform="translate(0 0)" fill="#ff6584" opacity="0.4"/>
        </g>
        <line id="直线_89" data-name="直线 89" y1="64.368" transform="translate(92.864 18.439)" fill="none" stroke="#707070" stroke-width="1" stroke-dasharray="6"/>
        <line id="直线_90" data-name="直线 90" y1="64.368" transform="translate(224.283 18.439)" fill="none" stroke="#707070" stroke-width="1" stroke-dasharray="6"/>
        <line id="直线_91" data-name="直线 91" y1="64.368" transform="translate(356.371 18.439)" fill="none" stroke="#707070" stroke-width="1" stroke-dasharray="6"/>
        <line id="直线_92" data-name="直线 92" x2="402.301" transform="translate(27.155 18.439)" fill="none" stroke="#707070" stroke-width="1"/>
        <g id="椭圆_239" data-name="椭圆 239" transform="translate(74)" fill="#fff" stroke="#707070" stroke-width="1">
          <circle cx="18.5" cy="18.5" r="18.5" stroke="none"/>
          <circle cx="18.5" cy="18.5" r="18" fill="none"/>
        </g>
        <g id="组_1304" data-name="组 1304" transform="translate(73.999)">
          <g id="椭圆_240" data-name="椭圆 240" transform="translate(0.001)" fill="#fff" stroke="#707070" stroke-width="1">
            <circle cx="18.5" cy="18.5" r="18.5" stroke="none"/>
            <circle cx="18.5" cy="18.5" r="18" fill="none"/>
          </g>
          <circle id="椭圆_241" data-name="椭圆 241" cx="14.5" cy="14.5" r="14.5" transform="translate(4.001 4)" fill="#6c63ff"/>
          <g id="组_1303" data-name="组 1303" transform="translate(12.16 11.734)">
            <line id="直线_93" data-name="直线 93" x2="13.41" transform="translate(0 6.705)" fill="none" stroke="#fff" stroke-width="2"/>
            <line id="直线_94" data-name="直线 94" x2="13.41" transform="translate(6.705) rotate(90)" fill="none" stroke="#fff" stroke-width="2"/>
          </g>
        </g>
        <g id="组_1305" data-name="组 1305" transform="translate(206)">
          <g id="椭圆_240-2" data-name="椭圆 240" transform="translate(0)" fill="#fff" stroke="#707070" stroke-width="1">
            <circle cx="18.5" cy="18.5" r="18.5" stroke="none"/>
            <circle cx="18.5" cy="18.5" r="18" fill="none"/>
          </g>
          <circle id="椭圆_241-2" data-name="椭圆 241" cx="14.5" cy="14.5" r="14.5" transform="translate(4 4)" fill="#6c63ff"/>
          <g id="组_1303-2" data-name="组 1303" transform="translate(11.578 11.734)">
            <line id="直线_93-2" data-name="直线 93" x2="13.41" transform="translate(0 6.705)" fill="none" stroke="#fff" stroke-width="2"/>
            <line id="直线_94-2" data-name="直线 94" x2="13.41" transform="translate(6.705) rotate(90)" fill="none" stroke="#fff" stroke-width="2"/>
          </g>
        </g>
        <g id="组_1306" data-name="组 1306" transform="translate(338)">
          <g id="椭圆_240-3" data-name="椭圆 240" transform="translate(0)" fill="#fff" stroke="#707070" stroke-width="1">
            <circle cx="18.5" cy="18.5" r="18.5" stroke="none"/>
            <circle cx="18.5" cy="18.5" r="18" fill="none"/>
          </g>
          <circle id="椭圆_241-3" data-name="椭圆 241" cx="14.5" cy="14.5" r="14.5" transform="translate(4 4)" fill="#6c63ff"/>
          <g id="组_1303-3" data-name="组 1303" transform="translate(11.666 11.734)">
            <line id="直线_93-3" data-name="直线 93" x2="13.41" transform="translate(0 6.705)" fill="none" stroke="#fff" stroke-width="2"/>
            <line id="直线_94-3" data-name="直线 94" x2="13.41" transform="translate(6.705) rotate(90)" fill="none" stroke="#fff" stroke-width="2"/>
          </g>
        </g>
        <g id="组_1382" data-name="组 1382" transform="translate(310 82)">
          <g id="组_1275-3" data-name="组 1275" transform="translate(0 0)">
            <rect id="矩形_2036-7" data-name="矩形 2036" width="93" height="28" transform="translate(0 83)" fill="#3f3d56"/>
            <ellipse id="椭圆_223-7" data-name="椭圆 223" cx="46.5" cy="9.5" rx="46.5" ry="9.5" transform="translate(0 73)" fill="#6c63ff"/>
            <ellipse id="椭圆_224-7" data-name="椭圆 224" cx="46.5" cy="10" rx="46.5" ry="10" transform="translate(0 102)" fill="#3f3d56"/>
            <rect id="矩形_2036-8" data-name="矩形 2036" width="93" height="28" transform="translate(0 46)" fill="#3f3d56"/>
            <ellipse id="椭圆_223-8" data-name="椭圆 223" cx="46.5" cy="10.5" rx="46.5" ry="10.5" transform="translate(0 36)" fill="#6c63ff"/>
            <ellipse id="椭圆_224-8" data-name="椭圆 224" cx="46.5" cy="10.5" rx="46.5" ry="10.5" transform="translate(0 65)" fill="#3f3d56"/>
            <rect id="矩形_2036-9" data-name="矩形 2036" width="93" height="28" transform="translate(0 11)" fill="#3f3d56"/>
            <ellipse id="椭圆_223-9" data-name="椭圆 223" cx="46.5" cy="10.5" rx="46.5" ry="10.5" transform="translate(0)" fill="#6c63ff"/>
            <ellipse id="椭圆_224-9" data-name="椭圆 224" cx="46.5" cy="10.5" rx="46.5" ry="10.5" transform="translate(0 29)" fill="#3f3d56"/>
          </g>
          <g id="组_1276-3" data-name="组 1276" transform="translate(36.891 38.386)">
            <rect id="矩形_2037-7" data-name="矩形 2037" width="4.985" height="4.985" transform="translate(7.167)" fill="#ff6584" opacity="0.8"/>
            <rect id="矩形_2038-7" data-name="矩形 2038" width="4.985" height="4.985" transform="translate(14.333)" fill="#ff6584"/>
            <rect id="矩形_2039-7" data-name="矩形 2039" width="4.985" height="4.985" fill="#ff6584" opacity="0.4"/>
          </g>
          <g id="组_1277-3" data-name="组 1277" transform="translate(36.891 74.15)">
            <rect id="矩形_2037-8" data-name="矩形 2037" width="4.985" height="4.985" transform="translate(7.167)" fill="#ff6584" opacity="0.8"/>
            <rect id="矩形_2038-8" data-name="矩形 2038" width="4.985" height="4.985" transform="translate(14.333)" fill="#ff6584"/>
            <rect id="矩形_2039-8" data-name="矩形 2039" width="4.985" height="4.985" fill="#ff6584" opacity="0.4"/>
          </g>
          <g id="组_1278-3" data-name="组 1278" transform="translate(36.891 110.21)">
            <rect id="矩形_2037-9" data-name="矩形 2037" width="4.985" height="4.985" transform="translate(7.167 0)" fill="#ff6584" opacity="0.8"/>
            <rect id="矩形_2038-9" data-name="矩形 2038" width="4.985" height="4.985" transform="translate(14.333 0)" fill="#ff6584"/>
            <rect id="矩形_2039-9" data-name="矩形 2039" width="4.985" height="4.985" transform="translate(0 0)" fill="#ff6584" opacity="0.4"/>
          </g>
        </g>
      </g>
    </g>
  </g>
</svg>
