<svg xmlns="http://www.w3.org/2000/svg" width="173.583" height="173.622" viewBox="0 0 173.583 173.622">
  <defs>
    <style>
      .cls-1 {
        fill: #c0c0e0;
      }

      .cls-2 {
        fill: #3333ce;
        opacity: 0.203;
      }

      .cls-3 {
        fill: #083863;
      }
    </style>
  </defs>
  <g id="_005-folder-5" data-name="005-folder-5" transform="translate(-0.057)">
    <g id="Group_3018" data-name="Group 3018" transform="translate(43.456 155.494)">
      <circle id="Ellipse_643" data-name="Ellipse 643" class="cls-1" cx="7.232" cy="7.232" r="7.232" transform="translate(72.322)"/>
      <circle id="Ellipse_644" data-name="Ellipse 644" class="cls-1" cx="7.232" cy="7.232" r="7.232" transform="translate(36.161)"/>
      <circle id="Ellipse_645" data-name="Ellipse 645" class="cls-1" cx="7.232" cy="7.232" r="7.232"/>
    </g>
    <path id="Path_10801" data-name="Path 10801" class="cls-2" d="M90.29,46.828h79.555a7.254,7.254,0,0,1,7.232,7.232v61.474a7.084,7.084,0,0,1-6.932,7.232c-.1,0-.2,0-.3,0H130.067V82.989a3.616,3.616,0,0,0-3.616-3.616H86.673V68.525a3.616,3.616,0,0,0-3.616-3.616H61.36a3.616,3.616,0,0,0-3.616,3.616v54.242H17.967a7.084,7.084,0,0,1-7.232-6.932c0-.1,0-.2,0-.3V17.9a7.254,7.254,0,0,1,7.232-7.232h65.09A7.254,7.254,0,0,1,90.29,17.9V46.828Z" transform="translate(-7.057 -7.051)"/>
    <g id="Group_3019" data-name="Group 3019" transform="translate(0.057)">
      <path id="Path_10803" data-name="Path 10803" class="cls-3" d="M131.863,258.3V246.788h28.929a7.084,7.084,0,0,0,7.232-6.932c0-.1,0-.2,0-.3v-7.232h28.929a7.232,7.232,0,0,0,7.232-7.232V181.7a7.232,7.232,0,0,0-7.232-7.232H160.792v-7.232A7.232,7.232,0,0,0,153.56,160h-21.7a7.232,7.232,0,0,0-7.232,7.232v57.858a7.232,7.232,0,0,0,7.232,7.232h28.929v7.232H131.863a7.084,7.084,0,0,0-7.232,6.932c0,.1,0,.2,0,.3V258.3a10.85,10.85,0,1,0,7.232,0Zm0-91.069h21.7v7.232H142.712V181.7h54.242v43.394h-65.09ZM128.247,272.1a3.616,3.616,0,1,1,3.616-3.616A3.616,3.616,0,0,1,128.247,272.1Z" transform="translate(-77.617 -105.759)"/>
      <path id="Path_10804" data-name="Path 10804" class="cls-3" d="M238.529,434.565v-7.9H231.3v7.9a10.849,10.849,0,1,0,7.232,0Zm-3.616,13.8a3.616,3.616,0,1,1,3.616-3.616A3.616,3.616,0,0,1,234.914,448.364Z" transform="translate(-148.122 -282.022)"/>
      <path id="Path_10805" data-name="Path 10805" class="cls-3" d="M317,413.41V401.9a7.084,7.084,0,0,0-6.932-7.232c-.1,0-.2,0-.3,0h-21.7V401.9h21.7V413.41a10.849,10.849,0,1,0,7.232,0Zm-3.616,13.8A3.616,3.616,0,1,1,317,423.593,3.616,3.616,0,0,1,313.384,427.209Z" transform="translate(-190.431 -260.867)"/>
      <path id="Path_10806" data-name="Path 10806" class="cls-3" d="M295.3,295.232h-7.232v7.232h10.848a3.616,3.616,0,0,0,3.616-3.616V288H295.3v7.232Z" transform="translate(-190.431 -190.364)"/>
      <path id="Path_10807" data-name="Path 10807" class="cls-3" d="M162.788,36.161h-7.214c-.018-2.369-.018-5.359-.018-7.268a7.048,7.048,0,0,0-6.9-7.2c-.1,0-.2,0-.3,0H86.849V10.848A10.848,10.848,0,0,0,76,0H10.91A10.848,10.848,0,0,0,.062,10.848v97.635a10.544,10.544,0,0,0,10.232,10.848q.308.009.617,0H39.839V112.1H10.91a3.309,3.309,0,0,1-3.616-3.616V10.848A3.616,3.616,0,0,1,10.91,7.232H76a3.616,3.616,0,0,1,3.616,3.616V36.161H32.607v7.232H162.788A3.616,3.616,0,0,1,166.4,47.01V108.44a3.324,3.324,0,0,1-3.616,3.66H133.859v7.232h28.929A10.544,10.544,0,0,0,173.636,109.1q.009-.308,0-.617V47.01A10.848,10.848,0,0,0,162.788,36.161ZM86.849,28.929l61.474.065c0,1.909,0,4.831.018,7.164H86.849Z" transform="translate(-0.057)"/>
    </g>
  </g>
</svg>
