<svg xmlns="http://www.w3.org/2000/svg" width="342" height="278.731" viewBox="0 0 342 278.731">
  <g id="组_4533" data-name="组 4533" transform="translate(-966.5 -2551.898)">
    <path id="路径_10633" data-name="路径 10633" d="M162.115,146.724V73.875h83.452V0H0V219.916H245.567V146.724Z" transform="translate(1001.794 2551.898)" fill="#3f3d56"/>
    <path id="路径_10634" data-name="路径 10634" d="M245.567,73.875V0H160.405V72.849H85.162V0H0V73.875H76.953v72.849H0v73.191H162.8V146.724h-.684V73.875Z" transform="translate(1001.794 2552)" opacity="0.1"/>
    <path id="路径_10635" data-name="路径 10635" d="M110.956,117.983a58.828,58.828,0,0,1-58.825,58.827V117.983Z" transform="translate(949.664 2433.916)" fill="#6c63ff"/>
    <path id="路径_10636" data-name="路径 10636" d="M79.491,117.983a27.362,27.362,0,0,1-27.36,27.361v15.049a42.411,42.411,0,0,0,42.41-42.408Z" transform="translate(949.664 2433.916)" opacity="0.1"/>
    <path id="路径_10637" data-name="路径 10637" d="M585.745,20.521V9.918H529.312V0H517V39.332h68.745v-10.6H529.312V20.521Z" transform="translate(661.616 2551.898)" fill="#d0cde1"/>
    <path id="路径_10639" data-name="路径 10639" d="M579.114,445.263l12.315,21.331,12.316,21.331H554.483L566.8,466.594Z" transform="translate(636.953 2258.922)" fill="#d0cde1"/>
    <path id="路径_10640" data-name="路径 10640" d="M530.873,521.586H506.242l12.316-21.331.086-.148-4.529-7.844L501.8,513.594l-12.316,21.331h49.262l-7.7-13.339Z" transform="translate(679.722 2227.997)" fill="#6c63ff"/>
    <g id="组_2999" data-name="组 2999" transform="translate(1099.305 2559.458)">
      <path id="路径_10643" data-name="路径 10643" d="M700.114,289.263l12.315,21.331,12.316,21.331H675.483L687.8,310.594Z" transform="translate(-675.483 -273.24)" fill="#6c63ff"/>
      <path id="路径_10644" data-name="路径 10644" d="M725.835,334.415l5.586,9.677,5.587,9.676H714.661l5.587-9.676Z" transform="translate(-701.261 -302.949)" fill="#d0cde1"/>
      <path id="路径_10645" data-name="路径 10645" d="M725.835,242.415l5.586,9.677,5.587,9.676H714.661l5.587-9.676Z" transform="translate(-701.261 -242.415)" fill="#d0cde1"/>
    </g>
    <ellipse id="椭圆_639" data-name="椭圆 639" cx="158.398" cy="12.299" rx="158.398" ry="12.299" transform="translate(966.5 2794.503)" fill="#6c63ff" opacity="0.1"/>
    <g id="组_3001" data-name="组 3001" transform="translate(1226.382 2633.119)">
      <rect id="矩形_2838" data-name="矩形 2838" width="80.118" height="69.102" transform="translate(0 0)" fill="#6c63ff" stroke="#39374d" stroke-width="4"/>
      <g id="组_3000" data-name="组 3000" transform="translate(15.329 11.981)">
        <path id="路径_10725" data-name="路径 10725" d="M544.293,336.643a15.959,15.959,0,0,0-26.513,0,14.312,14.312,0,0,0,26.513,0Z" transform="translate(-506.004 -329.57)" fill="#39374d"/>
        <path id="路径_10726" data-name="路径 10726" d="M496.332,346.618a3.429,3.429,0,0,1-.658-.374,2.639,2.639,0,0,1-.725-.938,2.684,2.684,0,1,0-4.382.651,2.989,2.989,0,0,0,.636.512,1.848,1.848,0,0,1,.714.748,5.4,5.4,0,0,0,1.241,1.63,10.849,10.849,0,0,0,1.7,1.2,24.792,24.792,0,0,0-1.4,7.312,10.11,10.11,0,0,0-2.849.46,4.593,4.593,0,0,0-1.32.658,3.182,3.182,0,0,0-.325-.022,2.688,2.688,0,1,0,2.516,3.634,1.716,1.716,0,0,1,1.387-1.122,6.274,6.274,0,0,1,.692-.045,24.074,24.074,0,0,0,3.2,9.97,7.843,7.843,0,0,0-2.972,4.06,1.118,1.118,0,0,0-.213.153,2.545,2.545,0,0,0-.314.292,2.684,2.684,0,1,0,4.5.879,1.761,1.761,0,0,1,.437-1.9,7.545,7.545,0,0,1,.636-.546c3.032,3.54,6.639,5.81,11.144,6.079v-24.02A16.58,16.58,0,0,1,496.332,346.618Zm37.321,11.858a2.972,2.972,0,0,0-.325.022,5.067,5.067,0,0,0-1.32-.658,10.041,10.041,0,0,0-2.849-.46,25.33,25.33,0,0,0-1.4-7.309,10.837,10.837,0,0,0,1.7-1.2,5.826,5.826,0,0,0,1.286-1.708,1.578,1.578,0,0,1,.662-.654h0a2.684,2.684,0,1,0-3.738-1.185,2.547,2.547,0,0,1-.725.938,7.015,7.015,0,0,1-.658.482,16.465,16.465,0,0,1-13.638,9.155v24.042c4.486-.269,8.116-2.55,11.144-6.079.235.187.434.355.6.512a1.817,1.817,0,0,1,.471,1.955,2.684,2.684,0,1,0,4.516-.871,2.551,2.551,0,0,0-.314-.292c-.123-.1-.213-.153-.213-.153a7.736,7.736,0,0,0-2.991-4.06,24.075,24.075,0,0,0,3.2-9.97,5.947,5.947,0,0,1,.662.045,1.794,1.794,0,0,1,1.439,1.122,2.684,2.684,0,0,0,5.178-.815,2.725,2.725,0,0,0-2.688-2.864Z" transform="translate(-486.279 -337.007)" fill="#39374d"/>
      </g>
    </g>
    <g id="组_2998" data-name="组 2998" transform="matrix(-0.995, -0.105, 0.105, -0.995, 1290.46, 2832.557)">
      <g id="组_2998-2" data-name="组 2998" transform="translate(0 0)">
        <path id="路径_10730" data-name="路径 10730" d="M28.806,45.907c-2.31-2.307-2.588-3.324-3.975-3.783s-6.379-3.043-4.811-5.909l4.218-2.786.123-.082.645-1.939L18.627,20.052s-10.515,4.808-11.546-2.3S6.7,8.692,6.426,4.9,6.517,0,5.591,0,4.3,2.494,4.3,2.494s-.058.114-.161.327C2.764,5.681-6.574,26.673,8.383,41.1c0,0,6.928.456,8.6,8.4,1.151,5.491,5.176,5.018,7.851,3.9a8.873,8.873,0,0,0,2.4-1.411,11.823,11.823,0,0,0,1.72-2.045C29.714,48.743,30.129,47.233,28.806,45.907Z" transform="translate(0 29.983)" fill="#d0d2d5"/>
        <path id="路径_10731" data-name="路径 10731" d="M20.869,33.347l.646-1.939L15.135,20.052S4.62,24.859,3.589,17.747,3.212,8.692,2.935,4.9,3.025,0,2.1,0,.808,2.494.808,2.494s-.058.114-.161.327C.183,6.373-2.171,27.149,6.364,26.045c0,0,6.925-3.236,8.032-1.945.876,1.022,4.767,6.9,6.35,9.315Z" transform="translate(3.492 29.983)" opacity="0.1"/>
        <path id="路径_10732" data-name="路径 10732" d="M12.72,11.079,8.5,6.285S3.6-.269,2.588.009a4.744,4.744,0,0,1-.926.108A1.8,1.8,0,0,0,.494,3.148C2.164,4.9,5.243,8.228,5.444,8.967a51.022,51.022,0,0,0,3.143,5.564,8.873,8.873,0,0,0,2.4-1.411,11.822,11.822,0,0,0,1.732-2.042Z" transform="translate(16.232 68.868)" opacity="0.1"/>
        <path id="路径_10733" data-name="路径 10733" d="M129.843,10.988c-.716-1.431-4.381-6.8-5.985-9.145l-.751-1.1s-.292-1.939-5.079.464S.762,51.068.762,51.068L0,53.358l5.55,8.31,123.28-47.63S130.769,12.837,129.843,10.988Z" transform="translate(18.443 0)" fill="#454b69"/>
      </g>
      <path id="路径_10734" data-name="路径 10734" d="M123.858,1.843l-.751-1.1s-.292-1.939-5.079.464S.762,51.068.762,51.068L0,53.358Z" transform="translate(18.443 0)" opacity="0.1"/>
    </g>
    <rect id="矩形_2872" data-name="矩形 2872" width="81.119" height="74.109" transform="translate(1082.176 2697.343)" fill="#3f3d56"/>
    <rect id="矩形_2873" data-name="矩形 2873" width="84.124" height="73.107" transform="translate(1002.052 2625.108)" fill="#3f3d56"/>
    <g id="组_4532" data-name="组 4532" transform="translate(180.429 7.939)">
      <path id="路径_13575" data-name="路径 13575" d="M119.5,151.434c-.668.324-1.205.577-1.592.756-.386-.179-.924-.432-1.591-.756-1.481-.718-3.6-1.785-6.147-3.173A152.753,152.753,0,0,1,91.506,136.3c-13.683-10.345-26.76-24.6-26.76-41.047V32.21H171.062V95.253c0,16.448-13.077,30.7-26.76,41.047a152.637,152.637,0,0,1-18.659,11.961C123.1,149.649,120.976,150.716,119.5,151.434Z" transform="translate(787.883 2598.956)" fill="#fff" stroke="#6c63ff" stroke-width="4"/>
      <path id="路径_13576" data-name="路径 13576" d="M80.576,48.209v46.57c0,24.6,39.1,41.956,39.1,41.956s39.1-17.134,39.1-41.956V48.209Z" transform="translate(785.978 2597.031)" fill="#3f3d56"/>
      <g id="组_4528" data-name="组 4528" transform="translate(850.72 2629.407)" opacity="0.5">
        <path id="路径_13577" data-name="路径 13577" d="M172.63,30.21V46.026L62.576,76.34V30.21Z" transform="translate(-62.576 -30.21)" fill="#fff" opacity="0.2"/>
      </g>
      <path id="路径_13578" data-name="路径 13578" d="M137.419,86.494h-4.393V70.239a9.376,9.376,0,0,0-9.446-9.446,9.623,9.623,0,0,0-9.445,9.226V86.494h-4.614V70.239a13.95,13.95,0,0,1,27.9-.22Z" transform="translate(782.496 2596.072)" fill="#3ad29f"/>
      <g id="组_4529" data-name="组 4529" transform="translate(915.415 2677.887)" opacity="0.25">
        <path id="路径_13579" data-name="路径 13579" d="M140.732,85.321h-4.613v1.757h4.613Z" transform="translate(-136.119 -85.321)" opacity="0.25"/>
      </g>
      <g id="组_4530" data-name="组 4530" transform="translate(892.108 2677.887)" opacity="0.25">
        <path id="路径_13580" data-name="路径 13580" d="M114.238,85.321h-4.613v1.757h4.613Z" transform="translate(-109.625 -85.321)" opacity="0.25"/>
      </g>
      <path id="路径_13581" data-name="路径 13581" d="M141.023,87.394H104.777v27.459h36.246Z" transform="translate(783.066 2592.317)" fill="#fff"/>
      <g id="组_4531" data-name="组 4531" transform="translate(901.464 2686.96)">
        <path id="路径_13582" data-name="路径 13582" d="M124.873,104.86a4.613,4.613,0,1,0-4.613-4.613A4.613,4.613,0,0,0,124.873,104.86Z" transform="translate(-120.26 -95.634)" fill="#3f3d56"/>
        <path id="路径_13583" data-name="路径 13583" d="M127.211,103.625h-3.954v8.347h3.954Z" transform="translate(-120.621 -96.596)" fill="#3f3d56"/>
      </g>
      <path id="路径_13584" data-name="路径 13584" d="M142.949,115.861h-40.42v5.272h40.42Z" transform="translate(783.337 2588.892)" fill="#3ad29f"/>
    </g>
  </g>
</svg>
