<svg xmlns="http://www.w3.org/2000/svg" xmlns:xlink="http://www.w3.org/1999/xlink" width="100" height="100" viewBox="0 0 100 100">
  <defs>
    <clipPath id="clip-path">
      <rect id="矩形_3676" data-name="矩形 3676" width="100" height="100" transform="translate(1330 1196)" fill="none" stroke="#707070" stroke-width="1"/>
    </clipPath>
  </defs>
  <g id="蒙版组_122" data-name="蒙版组 122" transform="translate(-1330 -1196)" clip-path="url(#clip-path)">
    <g id="组_4330" data-name="组 4330" transform="translate(1130 -607)">
      <path id="路径_13517" data-name="路径 13517" d="M30.831,248.346,8.505,270.672V272.8l7.442,7.442h2.126L40.4,257.914" transform="translate(210.558 1603.697)" fill="#6c63ff"/>
      <path id="路径_13518" data-name="路径 13518" d="M55.282,49.542,30.831,25.09V24.027c0-9.568-4.253-13.821-12.757-13.821l-2.126,1.063,6.379,6.379-6.379,6.379L9.568,17.648,8.505,19.774c0,8.5,4.252,12.758,13.821,12.758h1.063L47.841,56.984v1.063c0,9.568,4.252,13.821,12.757,13.821L62.724,70.8l-6.379-6.379,6.379-6.379L69.1,64.425,70.166,62.3c0-8.505-4.252-12.757-13.821-12.757H55.282Z" transform="translate(210.558 1812.07)" fill="#fff"/>
      <rect id="矩形_3613" data-name="矩形 3613" width="34.551" height="10.525" transform="translate(258.322 1869.046) rotate(-135)" fill="#ff6584"/>
      <path id="路径_13519" data-name="路径 13519" d="M53.369,65.488h-.213c-9.249,0-13.821-4.89-13.821-14.884v-.638L15.522,26.153h-.638C4.89,26.153,0,21.581,0,12.332V12.12L1.807,8.4l6.7,6.7,4.89-4.89-6.7-6.7L10.419,1.7h.213c9.249,0,13.821,4.89,13.821,14.884v.638L48.266,41.037H48.9c9.993,0,14.884,4.571,14.884,13.821v.213L61.98,58.791l-6.7-6.7-4.89,4.89,6.7,6.7ZM2.126,12.545c.106,7.867,4.04,11.482,12.757,11.482h1.488l25.09,25.09V50.6c0,8.718,3.508,12.651,11.482,12.757l.532-.319-6.06-6.06,7.867-7.867,6.06,6.06.319-.532c-.106-7.867-4.04-11.482-12.757-11.482H47.415l-25.09-25.09V16.585c0-8.718-3.508-12.651-11.482-12.757l-.531.319,6.06,6.06L8.505,18.073l-6.06-6.06Z" transform="translate(218 1819.512)" fill="#3f3d56"/>
      <path id="路径_13520" data-name="路径 13520" d="M11.057,273.86H8.08L0,265.781V262.8l22.645-22.645a1.052,1.052,0,0,1,1.488,1.488L2.126,263.654v1.276l6.8,6.8h1.276l22.007-22.007a1.052,1.052,0,0,1,1.488,1.488Z" transform="translate(218 1611.14)" fill="#3f3d56"/>
      <path id="路径_13521" data-name="路径 13521" d="M204.12,234.525l3.189-3.189,6.379,6.379L210.5,240.9" transform="translate(39.395 1618.581)" fill="#6c63ff"/>
      <path id="路径_13522" data-name="路径 13522" d="M203.056,231.548a.965.965,0,0,1-.744-.319,1.028,1.028,0,0,1,0-1.488l2.445-2.445-4.89-4.89-2.445,2.445a1.052,1.052,0,0,1-1.488-1.488l3.934-3.934,7.867,7.867L203.8,231.23A.965.965,0,0,1,203.056,231.548Z" transform="translate(46.837 1629)" fill="#3f3c55"/>
      <path id="路径_13523" data-name="路径 13523" d="M246.645,38.91l21.262-21.263V14.458l8.505-4.252,2.126,2.126-4.253,8.5H271.1L249.834,42.1" transform="translate(2.186 1812.07)" fill="#fff"/>
      <path id="路径_13524" data-name="路径 13524" d="M242.392,34.232a.965.965,0,0,1-.744-.319,1.028,1.028,0,0,1,0-1.488l21.581-21.581h2.977l3.615-7.229-1.063-1.063-7.229,3.615V9.143L239.947,30.724a1.052,1.052,0,1,1-1.488-1.488L259.4,8.292V4.89L269.183,0l3.189,3.189-4.89,9.781h-3.4L243.136,33.914A.965.965,0,0,1,242.392,34.232Z" transform="translate(9.628 1821)" fill="#3f3c55"/>
      <path id="路径_13525" data-name="路径 13525" d="M43.589,310.007a.965.965,0,0,1-.744-.319,1.028,1.028,0,0,1,0-1.488l17.01-17.01a1.052,1.052,0,0,1,1.488,1.488l-17.01,17.01A.966.966,0,0,1,43.589,310.007Z" transform="translate(180.791 1566.488)" fill="#3f3d56"/>
      <path id="路径_13526" data-name="路径 13526" d="M69.1,335.522a.965.965,0,0,1-.744-.319,1.028,1.028,0,0,1,0-1.488l17.01-17.01a1.052,1.052,0,1,1,1.488,1.488L69.848,335.2A.966.966,0,0,1,69.1,335.522Z" transform="translate(158.465 1544.163)" fill="#3f3d56"/>
    </g>
  </g>
</svg>
