<svg xmlns="http://www.w3.org/2000/svg" xmlns:xlink="http://www.w3.org/1999/xlink" width="450" height="347" viewBox="0 0 450 347">
  <defs>
    <clipPath id="clip-path">
      <rect id="矩形_3677" data-name="矩形 3677" width="450" height="347" transform="translate(280 1725)" fill="none" stroke="#707070" stroke-width="1"/>
    </clipPath>
  </defs>
  <g id="蒙版组_128" data-name="蒙版组 128" transform="translate(-280 -1725)" clip-path="url(#clip-path)">
    <g id="组_1934" data-name="组 1934" transform="translate(-1285.118 -2943.559)">
      <path id="路径_5510" data-name="路径 5510" d="M218.909,41.578c-24.155-.84-47.16-8.636-69.132-17.168S106.05,6.428,82.474,1.9C67.31-1,49.97-1.414,37.75,6.715c-11.757,7.838-15.556,21.33-17.6,33.863-1.534,9.428-2.437,19.352,1.773,28.178,2.922,6.128,8.114,11.279,11.7,17.146,12.488,20.423,3.661,45.623-9.868,65.549-6.345,9.357-13.712,18.288-18.613,28.238s-7.166,21.367-2.881,31.526c4.251,10.077,14.377,17.631,25.346,22.949,22.274,10.823,48.519,13.9,74.126,15.646,56.663,3.878,113.632,2.2,170.444.519,21.027-.623,42.144-1.254,62.832-4.5,11.484-1.8,23.345-4.669,31.683-11.57,10.585-8.782,13.208-23.651,6.117-34.665-11.9-18.471-44.787-23.058-53.113-42.88-4.579-10.913.123-23.065,6.774-33.187,14.272-21.707,38.192-40.752,39.453-65.564.866-17.041-10.633-34.109-28.414-42.174-18.639-8.45-44.481-7.386-58.223,6.6C265.114,36.774,240.228,42.324,218.909,41.578Z" transform="translate(1565.119 4776.719) rotate(-17)" fill="#f7f8f9"/>
      <path id="路径_5573" data-name="路径 5573" d="M0,0C10.727,14.137,29.738,9.708,40.411,9.322S77.133,14.1,81.343,37.6" transform="matrix(0.995, -0.105, 0.105, 0.995, 1801.157, 4833.167)" fill="none" stroke="#3f3d56" stroke-width="1"/>
      <g id="组_1376" data-name="组 1376" transform="translate(1611.998 4747.5)">
        <rect id="矩形_2047" data-name="矩形 2047" width="61.019" height="12.152" transform="translate(18.647 61.019) rotate(-90)" fill="#3351ff"/>
        <rect id="矩形_2048" data-name="矩形 2048" width="37.453" height="12.152" transform="translate(37.295 61.019) rotate(-90)" fill="#ff6584"/>
        <rect id="矩形_2079" data-name="矩形 2079" width="47.132" height="12.152" transform="translate(0 61.019) rotate(-90)" fill="#6c63ff"/>
      </g>
      <g id="组_1377" data-name="组 1377" transform="translate(1692.158 4748.574)">
        <path id="路径_5544" data-name="路径 5544" d="M3.169,0A29.906,29.906,0,0,0,29.9,43.3V15.822Z" transform="translate(63.186 43.309) rotate(180)" fill="#3f3d56"/>
        <path id="路径_5542" data-name="路径 5542" d="M0,0V61.327A30.664,30.664,0,0,0,30.664,30.664,30.664,30.664,0,0,0,0,0Z" transform="translate(30.664 61.327) rotate(180)" fill="#6c63ff"/>
        <path id="路径_5543" data-name="路径 5543" d="M25.186,0A28.17,28.17,0,0,0,0,15.543l25.186,14.9Z" transform="translate(58.474 61.177) rotate(180)" fill="#ff6584"/>
        <g id="组_1373" data-name="组 1373" transform="translate(43.23 8.626)">
          <path id="路径_5632" data-name="路径 5632" d="M437.506,159.454l-.213-.2L453.118,144h27.567v.29H453.243Z" transform="translate(-437.293 -144)" fill="#2f2e41"/>
        </g>
      </g>
      <g id="组_1381" data-name="组 1381" transform="translate(1612.018 4832.653)">
        <rect id="矩形_2139" data-name="矩形 2139" width="6.378" height="14.496" transform="translate(17.396 0)" fill="#3351ff"/>
        <rect id="矩形_2143" data-name="矩形 2143" width="6.378" height="6.378" transform="translate(0 0)" fill="#6c63ff"/>
        <rect id="矩形_2147" data-name="矩形 2147" width="6.378" height="14.496" transform="translate(0 8.698)" fill="#dcdfe8"/>
        <rect id="矩形_2154" data-name="矩形 2154" width="6.378" height="6.958" transform="translate(17.396 16.236)" fill="#dcdfe8"/>
        <rect id="矩形_2155" data-name="矩形 2155" width="6.378" height="10.437" transform="translate(8.698 0)" fill="#ff6584"/>
        <rect id="矩形_2156" data-name="矩形 2156" width="6.378" height="10.437" transform="translate(8.698 12.757)" fill="#dcdfe8"/>
        <g id="组_1379" data-name="组 1379" transform="translate(25.514 0)">
          <rect id="矩形_2139-2" data-name="矩形 2139" width="6.378" height="14.496" transform="translate(17.396)" fill="#dcdfe8"/>
          <rect id="矩形_2143-2" data-name="矩形 2143" width="6.958" height="6.378" transform="translate(0)" fill="#dcdfe8"/>
          <rect id="矩形_2147-2" data-name="矩形 2147" width="6.958" height="14.496" transform="translate(0 8.698)" fill="#dcdfe8"/>
          <rect id="矩形_2154-2" data-name="矩形 2154" width="6.378" height="6.958" transform="translate(17.396 16.236)" fill="#dcdfe8"/>
          <rect id="矩形_2155-2" data-name="矩形 2155" width="6.378" height="10.437" transform="translate(8.698)" fill="#dcdfe8"/>
          <rect id="矩形_2156-2" data-name="矩形 2156" width="6.378" height="10.437" transform="translate(8.698 12.757)" fill="#dcdfe8"/>
        </g>
        <g id="组_1380" data-name="组 1380" transform="translate(0 24.934)">
          <rect id="矩形_2139-3" data-name="矩形 2139" width="6.378" height="14.496" transform="translate(17.396 0)" fill="#dcdfe8"/>
          <rect id="矩形_2143-3" data-name="矩形 2143" width="6.378" height="6.958" transform="translate(0 0)" fill="#dcdfe8"/>
          <rect id="矩形_2147-3" data-name="矩形 2147" width="6.378" height="14.496" transform="translate(0 8.698)" fill="#dcdfe8"/>
          <rect id="矩形_2154-3" data-name="矩形 2154" width="6.378" height="6.378" transform="translate(17.396 16.816)" fill="#dcdfe8"/>
          <rect id="矩形_2155-3" data-name="矩形 2155" width="6.378" height="10.437" transform="translate(8.698 0)" fill="#dcdfe8"/>
          <rect id="矩形_2156-3" data-name="矩形 2156" width="6.378" height="10.437" transform="translate(8.698 12.757)" fill="#dcdfe8"/>
        </g>
        <rect id="矩形_2139-4" data-name="矩形 2139" width="6.378" height="14.496" transform="translate(42.909 24.934)" fill="#dcdfe8"/>
        <rect id="矩形_2143-4" data-name="矩形 2143" width="6.958" height="6.958" transform="translate(25.514 24.934)" fill="#dcdfe8"/>
        <rect id="矩形_2147-4" data-name="矩形 2147" width="6.958" height="14.496" transform="translate(25.514 33.632)" fill="#3351ff"/>
        <rect id="矩形_2154-4" data-name="矩形 2154" width="6.378" height="6.378" transform="translate(42.909 41.75)" fill="#6c63ff"/>
        <rect id="矩形_2155-4" data-name="矩形 2155" width="6.378" height="10.437" transform="translate(34.212 24.934)" fill="#dcdfe8"/>
        <rect id="矩形_2156-4" data-name="矩形 2156" width="6.378" height="10.437" transform="translate(34.212 37.691)" fill="#ff6584"/>
      </g>
      <g id="组_1383" data-name="组 1383" transform="translate(1898.468 4839.032)">
        <g id="组_1275" data-name="组 1275" transform="translate(0)">
          <rect id="矩形_2036" data-name="矩形 2036" width="80.6" height="24.354" transform="translate(0 71.323)" fill="#3f3d56"/>
          <ellipse id="椭圆_223" data-name="椭圆 223" cx="40.3" cy="8.408" rx="40.3" ry="8.408" transform="translate(0 62.625)" fill="#6c63ff"/>
          <ellipse id="椭圆_224" data-name="椭圆 224" cx="40.3" cy="8.698" rx="40.3" ry="8.698" transform="translate(0 87.559)" fill="#3f3d56"/>
          <rect id="矩形_2036-2" data-name="矩形 2036" width="80.6" height="24.354" transform="translate(0 39.43)" fill="#3f3d56"/>
          <ellipse id="椭圆_223-2" data-name="椭圆 223" cx="40.3" cy="8.988" rx="40.3" ry="8.988" transform="translate(0 30.732)" fill="#6c63ff"/>
          <ellipse id="椭圆_224-2" data-name="椭圆 224" cx="40.3" cy="9.278" rx="40.3" ry="9.278" transform="translate(0 55.666)" fill="#3f3d56"/>
          <rect id="矩形_2036-3" data-name="矩形 2036" width="80.6" height="24.354" transform="translate(0 9.278)" fill="#3f3d56"/>
          <ellipse id="椭圆_223-3" data-name="椭圆 223" cx="40.3" cy="8.988" rx="40.3" ry="8.988" fill="#6c63ff"/>
          <ellipse id="椭圆_224-3" data-name="椭圆 224" cx="40.3" cy="8.988" rx="40.3" ry="8.988" transform="translate(0 24.934)" fill="#3f3d56"/>
        </g>
        <g id="组_1276" data-name="组 1276" transform="translate(32.101 32.789)">
          <rect id="矩形_2037" data-name="矩形 2037" width="4.311" height="4.311" transform="translate(6.198)" fill="#ff6584" opacity="0.8"/>
          <rect id="矩形_2038" data-name="矩形 2038" width="4.311" height="4.311" transform="translate(12.395)" fill="#ff6584"/>
          <rect id="矩形_2039" data-name="矩形 2039" width="4.311" height="4.311" fill="#ff6584" opacity="0.4"/>
        </g>
        <g id="组_1277" data-name="组 1277" transform="translate(32.101 63.718)">
          <rect id="矩形_2037-2" data-name="矩形 2037" width="4.311" height="4.311" transform="translate(6.198)" fill="#ff6584" opacity="0.8"/>
          <rect id="矩形_2038-2" data-name="矩形 2038" width="4.311" height="4.311" transform="translate(12.395)" fill="#ff6584"/>
          <rect id="矩形_2039-2" data-name="矩形 2039" width="4.311" height="4.311" fill="#ff6584" opacity="0.4"/>
        </g>
        <g id="组_1278" data-name="组 1278" transform="translate(32.101 94.903)">
          <rect id="矩形_2037-3" data-name="矩形 2037" width="4.311" height="4.311" transform="translate(6.198 0)" fill="#ff6584" opacity="0.8"/>
          <rect id="矩形_2038-3" data-name="矩形 2038" width="4.311" height="4.311" transform="translate(12.395 0)" fill="#ff6584"/>
          <rect id="矩形_2039-3" data-name="矩形 2039" width="4.311" height="4.311" transform="translate(0 0)" fill="#ff6584" opacity="0.4"/>
        </g>
      </g>
      <g id="矩形_2157" data-name="矩形 2157" transform="translate(1577.227 4724.221)" fill="none" stroke="#3f3d56" stroke-width="1" stroke-dasharray="6">
        <rect width="240.641" height="180.336" stroke="none"/>
        <rect x="0.5" y="0.5" width="239.641" height="179.336" fill="none"/>
      </g>
      <g id="组_1385" data-name="组 1385" transform="translate(1696.797 4832.654)">
        <path id="路径_5633" data-name="路径 5633" d="M-7339.794,11623.895v48.3h73.113" transform="translate(7339.794 -11623.895)" fill="none" stroke="#3f3d56" stroke-width="1"/>
        <path id="路径_5634" data-name="路径 5634" d="M-7318.5,11661.287l17.777-12.574,21.47,5.016,20.293-14.13" transform="translate(7328.527 -11633.454)" fill="none" stroke="#3f3d56" stroke-width="1"/>
        <circle id="椭圆_287" data-name="椭圆 287" cx="3.479" cy="3.479" r="3.479" transform="translate(6.839 24.353)" fill="#3351ff"/>
        <circle id="椭圆_288" data-name="椭圆 288" cx="3.479" cy="3.479" r="3.479" transform="translate(24.814 12.176)" fill="#3351ff"/>
        <circle id="椭圆_289" data-name="椭圆 289" cx="3.479" cy="3.479" r="3.479" transform="translate(46.269 16.815)" fill="#3351ff"/>
        <circle id="椭圆_290" data-name="椭圆 290" cx="3.479" cy="3.479" r="3.479" transform="translate(65.984 3.479)" fill="#3351ff"/>
      </g>
      <line id="直线_107" data-name="直线 107" x2="63.784" transform="translate(1604.19 4808.589)" fill="none" stroke="#3f3d56" stroke-width="1"/>
      <path id="路径_5635" data-name="路径 5635" d="M390.968,334.685l-7.04-7.548,7.548-7.04,7.04,7.548Zm-5.918-7.509,5.957,6.387,6.387-5.957-5.957-6.387Z" transform="translate(1616.481 4571.259)" fill="#6c63ff"/>
      <g id="组_1386" data-name="组 1386" transform="translate(1868.348 4942.181) rotate(-14)">
        <path id="多边形_6" data-name="多边形 6" d="M9.858,0l9.858,16.816H0Z" transform="translate(0 5.219)" fill="#2e2fff"/>
        <g id="多边形_7" data-name="多边形 7" fill="none">
          <path d="M12.757,0,25.514,22.035H0Z" stroke="none"/>
          <path d="M 12.75687408447266 1.995874404907227 L 1.734457015991211 21.03460121154785 L 23.7792911529541 21.03460121154785 L 12.75687408447266 1.995874404907227 M 12.75687408447266 0 L 25.51374435424805 22.03460121154785 L 3.814697265625e-06 22.03460121154785 L 12.75687408447266 0 Z" stroke="none" fill="#2e2fff"/>
        </g>
      </g>
      <ellipse id="椭圆_251" data-name="椭圆 251" cx="4.717" cy="4.717" rx="4.717" ry="4.717" transform="translate(1917.349 4812.267)" fill="#ff6584"/>
      <rect id="矩形_2158" data-name="矩形 2158" width="9.278" height="2.899" transform="translate(1769.74 4763.071)" fill="#6c63ff"/>
      <rect id="矩形_2159" data-name="矩形 2159" width="9.278" height="2.899" transform="translate(1769.74 4770.029)" fill="#ff6584"/>
      <rect id="矩形_2160" data-name="矩形 2160" width="9.278" height="2.899" transform="translate(1769.74 4776.987)" fill="#dcdfe8"/>
    </g>
  </g>
</svg>
