<svg xmlns="http://www.w3.org/2000/svg" xmlns:xlink="http://www.w3.org/1999/xlink" width="400" height="320" viewBox="0 0 400 320">
  <defs>
    <clipPath id="clip-path">
      <rect id="矩形_3709" data-name="矩形 3709" width="127" height="136" transform="translate(1444.319 4345.797)" fill="#fff" stroke="#707070" stroke-width="1"/>
    </clipPath>
  </defs>
  <g id="组_4847" data-name="组 4847" transform="translate(0 -900)">
    <rect id="矩形_3708" data-name="矩形 3708" width="400" height="320" transform="translate(0 900)" fill="#19294f"/>
    <g id="组_4839" data-name="组 4839" transform="translate(724.325 1035.247) rotate(180)">
      <path id="路径_13594" data-name="路径 13594" d="M731.344,135.246a55.525,55.525,0,0,1,0-111.05V39.127a40.594,40.594,0,1,0,0,81.188Z" transform="translate(-7.019)" fill="#e30c34"/>
      <g id="组_4542" data-name="组 4542" transform="translate(648.876 60.856)">
        <path id="路径_13595" data-name="路径 13595" d="M723.365,123.628a1.65,1.65,0,1,0-1.65-1.651A1.65,1.65,0,0,0,723.365,123.628Z" transform="translate(-667.85 -85.898)" fill="#fff"/>
        <path id="路径_13596" data-name="路径 13596" d="M705.156,123.628a1.65,1.65,0,1,0-1.651-1.651A1.65,1.65,0,0,0,705.156,123.628Z" transform="translate(-663.107 -85.898)" fill="#fff"/>
        <path id="路径_13597" data-name="路径 13597" d="M686.946,123.628a1.65,1.65,0,1,0-1.651-1.651A1.65,1.65,0,0,0,686.946,123.628Z" transform="translate(-658.363 -85.898)" fill="#fff"/>
        <path id="路径_13598" data-name="路径 13598" d="M668.736,123.628a1.65,1.65,0,1,0-1.651-1.651A1.65,1.65,0,0,0,668.736,123.628Z" transform="translate(-653.62 -85.898)" fill="#fff"/>
        <path id="路径_13599" data-name="路径 13599" d="M650.527,123.628a1.65,1.65,0,1,0-1.651-1.651A1.651,1.651,0,0,0,650.527,123.628Z" transform="translate(-648.876 -85.898)" fill="#fff"/>
        <path id="路径_13600" data-name="路径 13600" d="M723.365,100.35a1.651,1.651,0,1,0-1.65-1.651A1.651,1.651,0,0,0,723.365,100.35Z" transform="translate(-667.85 -79.834)" fill="#fff"/>
        <path id="路径_13601" data-name="路径 13601" d="M705.156,100.35a1.651,1.651,0,1,0-1.651-1.651A1.65,1.65,0,0,0,705.156,100.35Z" transform="translate(-663.107 -79.834)" fill="#fff"/>
        <path id="路径_13602" data-name="路径 13602" d="M686.946,100.35A1.651,1.651,0,1,0,685.3,98.7,1.651,1.651,0,0,0,686.946,100.35Z" transform="translate(-658.363 -79.834)" fill="#fff"/>
        <path id="路径_13603" data-name="路径 13603" d="M668.736,100.35a1.651,1.651,0,1,0-1.651-1.651A1.651,1.651,0,0,0,668.736,100.35Z" transform="translate(-653.62 -79.834)" fill="#fff"/>
        <path id="路径_13604" data-name="路径 13604" d="M650.527,100.35a1.651,1.651,0,1,0-1.651-1.651A1.651,1.651,0,0,0,650.527,100.35Z" transform="translate(-648.876 -79.834)" fill="#fff"/>
        <path id="路径_13605" data-name="路径 13605" d="M723.365,77.071a1.651,1.651,0,1,0-1.65-1.651A1.65,1.65,0,0,0,723.365,77.071Z" transform="translate(-667.85 -73.77)" fill="#fff"/>
        <path id="路径_13606" data-name="路径 13606" d="M705.156,77.071a1.651,1.651,0,1,0-1.651-1.651A1.65,1.65,0,0,0,705.156,77.071Z" transform="translate(-663.107 -73.77)" fill="#fff"/>
        <path id="路径_13607" data-name="路径 13607" d="M686.946,77.071a1.651,1.651,0,1,0-1.651-1.651A1.65,1.65,0,0,0,686.946,77.071Z" transform="translate(-658.363 -73.77)" fill="#fff"/>
        <path id="路径_13608" data-name="路径 13608" d="M668.736,77.071a1.651,1.651,0,1,0-1.651-1.651A1.65,1.65,0,0,0,668.736,77.071Z" transform="translate(-653.62 -73.77)" fill="#fff"/>
        <path id="路径_13609" data-name="路径 13609" d="M650.527,77.071a1.65,1.65,0,1,0-1.651-1.651A1.651,1.651,0,0,0,650.527,77.071Z" transform="translate(-648.876 -73.77)" fill="#fff"/>
      </g>
    </g>
    <g id="蒙版组_4" data-name="蒙版组 4" transform="translate(-1171.319 -3261.797)" clip-path="url(#clip-path)">
      <g id="组_4845" data-name="组 4845" transform="translate(1457.941 4534.352) rotate(-90)">
        <g id="组_4840" data-name="组 4840" transform="translate(0 0)">
          <path id="路径_13634" data-name="路径 13634" d="M36.507,9.77a73.026,73.026,0,0,0-5.383,123.073l-.592.845A74.057,74.057,0,1,0,115.477,12.353l-.582.831A73.136,73.136,0,0,0,36.507,9.77Zm78.05,3.9-.581.83A71.44,71.44,0,0,1,32.034,131.545l-.572.816a72.445,72.445,0,0,1,83.1-118.693Z" fill="#3351ff"/>
          <path id="路径_13635" data-name="路径 13635" d="M9.159,102.68a68.061,68.061,0,0,0,20.013,21.834l-.591.845A69.478,69.478,0,1,0,108.272,11.526l-.581.831A68.458,68.458,0,0,0,9.159,102.68Zm98.194-89.84-.581.831A66.86,66.86,0,0,1,30.081,123.214l-.572.817A67.866,67.866,0,0,1,107.353,12.84Z" transform="translate(4.579 4.578)" fill="#3351ff"/>
          <path id="路径_13636" data-name="路径 13636" d="M8.546,95.812A63.51,63.51,0,0,0,27.22,116.185l-.59.844A64.9,64.9,0,0,0,101.068,10.7l-.582.831A63.879,63.879,0,0,0,8.546,95.812Zm91.6-83.8-.581.83A62.281,62.281,0,1,1,28.13,114.884l-.571.817a63.286,63.286,0,0,1,72.59-103.688Z" transform="translate(9.157 9.157)" fill="#3351ff"/>
          <path id="路径_13637" data-name="路径 13637" d="M7.934,88.944a58.945,58.945,0,0,0,17.334,18.911l-.59.843A60.318,60.318,0,1,0,93.862,9.872l-.58.829A59.3,59.3,0,0,0,7.934,88.944ZM92.943,11.185l-.581.832A57.7,57.7,0,0,1,69.294,116.109a57.324,57.324,0,0,1-43.117-9.555l-.572.818A58.708,58.708,0,0,1,92.943,11.185Z" transform="translate(13.735 13.736)" fill="#3351ff"/>
          <path id="路径_13638" data-name="路径 13638" d="M7.321,82.072a54.377,54.377,0,0,0,16,17.443l-.6.85A55.739,55.739,0,0,0,86.657,9.042l-.584.836A54.715,54.715,0,0,0,7.321,82.072ZM85.734,10.361l-.578.826A53.122,53.122,0,1,1,24.224,98.221l-.567.811A54.12,54.12,0,0,1,85.734,10.361Z" transform="translate(18.315 18.317)" fill="#3351ff"/>
          <path id="路径_13639" data-name="路径 13639" d="M6.709,75.2A49.826,49.826,0,0,0,21.366,91.185l-.594.849a51.157,51.157,0,0,0,73.6-67.555A50.868,50.868,0,0,0,79.451,8.216l-.584.834A50.136,50.136,0,0,0,6.709,75.2ZM78.529,9.533l-.578.827A48.542,48.542,0,0,1,22.272,89.89L21.7,90.7A49.542,49.542,0,0,1,78.529,9.533Z" transform="translate(22.894 22.896)" fill="#3351ff"/>
        </g>
        <g id="组_4844" data-name="组 4844" transform="translate(104.251 44.696)">
          <g id="组_4841" data-name="组 4841" transform="translate(0 36.314)">
            <path id="路径_13640" data-name="路径 13640" d="M2.934,0,0,5.082H5.868Z" fill="#fff"/>
            <path id="路径_13641" data-name="路径 13641" d="M2.934,0,0,5.082H5.868Z" transform="translate(13.138)" fill="#fff"/>
            <path id="路径_13642" data-name="路径 13642" d="M2.934,0,0,5.082H5.868Z" transform="translate(26.277)" fill="#fff"/>
            <path id="路径_13643" data-name="路径 13643" d="M2.934,0,0,5.082H5.868Z" transform="translate(39.415)" fill="#fff"/>
            <path id="路径_13644" data-name="路径 13644" d="M2.934,0,0,5.082H5.868Z" transform="translate(52.554)" fill="#fff"/>
          </g>
          <g id="组_4842" data-name="组 4842" transform="translate(0 18.157)">
            <path id="路径_13645" data-name="路径 13645" d="M2.934,0,0,5.082H5.868Z" fill="#fff"/>
            <path id="路径_13646" data-name="路径 13646" d="M2.934,0,0,5.082H5.868Z" transform="translate(13.138)" fill="#fff"/>
            <path id="路径_13647" data-name="路径 13647" d="M2.934,0,0,5.082H5.868Z" transform="translate(26.277)" fill="#fff"/>
            <path id="路径_13648" data-name="路径 13648" d="M2.934,0,0,5.082H5.868Z" transform="translate(39.415)" fill="#fff"/>
            <path id="路径_13649" data-name="路径 13649" d="M2.934,0,0,5.082H5.868Z" transform="translate(52.554)" fill="#fff"/>
          </g>
          <g id="组_4843" data-name="组 4843">
            <path id="路径_13650" data-name="路径 13650" d="M2.934,0,0,5.082H5.868Z" fill="#fff"/>
            <path id="路径_13651" data-name="路径 13651" d="M2.934,0,0,5.082H5.868Z" transform="translate(13.138)" fill="#fff"/>
            <path id="路径_13652" data-name="路径 13652" d="M2.934,0,0,5.082H5.868Z" transform="translate(26.277)" fill="#fff"/>
            <path id="路径_13653" data-name="路径 13653" d="M2.934,0,0,5.082H5.868Z" transform="translate(39.415)" fill="#fff"/>
            <path id="路径_13654" data-name="路径 13654" d="M2.934,0,0,5.082H5.868Z" transform="translate(52.554)" fill="#fff"/>
          </g>
        </g>
      </g>
    </g>
  </g>
</svg>
