<svg xmlns="http://www.w3.org/2000/svg" xmlns:xlink="http://www.w3.org/1999/xlink" width="100" height="100" viewBox="0 0 100 100">
  <defs>
    <clipPath id="clip-path">
      <rect id="矩形_3675" data-name="矩形 3675" width="100" height="100" transform="translate(790 1196)" fill="none" stroke="#707070" stroke-width="1"/>
    </clipPath>
  </defs>
  <g id="蒙版组_123" data-name="蒙版组 123" transform="translate(-790 -1196)" clip-path="url(#clip-path)">
    <g id="组_4325" data-name="组 4325" transform="translate(277 -607)">
      <rect id="矩形_3637" data-name="矩形 3637" width="53.677" height="16.516" transform="translate(537.032 1822.032)" fill="#fff"/>
      <path id="路径_13550" data-name="路径 13550" d="M125.936,148.645v2.064H82.581v-2.064" transform="translate(459.612 1690.936)" fill="#ff6584"/>
      <circle id="椭圆_1157" data-name="椭圆 1157" cx="3.097" cy="3.097" r="3.097" transform="translate(579.354 1827.193)" fill="#6c63ff"/>
      <rect id="矩形_3648" data-name="矩形 3648" width="53.677" height="16.516" transform="translate(537.032 1842.677)" fill="#fff"/>
      <path id="路径_13552" data-name="路径 13552" d="M125.936,313.806v2.065H82.581v-2.065" transform="translate(459.612 1546.42)" fill="#ff6584"/>
      <circle id="椭圆_1158" data-name="椭圆 1158" cx="3.097" cy="3.097" r="3.097" transform="translate(579.354 1847.839)" fill="#6c63ff"/>
      <rect id="矩形_3659" data-name="矩形 3659" width="53.677" height="16.516" transform="translate(537.032 1863.323)" fill="#fff"/>
      <path id="路径_13554" data-name="路径 13554" d="M125.936,478.968v2.064H82.581v-2.064" transform="translate(459.612 1401.903)" fill="#ff6584"/>
      <circle id="椭圆_1159" data-name="椭圆 1159" cx="3.097" cy="3.097" r="3.097" transform="translate(579.354 1868.484)" fill="#6c63ff"/>
      <g id="组_4318" data-name="组 4318">
        <rect id="矩形_3640" data-name="矩形 3640" width="2.065" height="6.194" transform="translate(542.193 1827.193)" fill="#3f3d56"/>
        <rect id="矩形_3641" data-name="矩形 3641" width="2.065" height="6.194" transform="translate(546.322 1827.193)" fill="#3f3d56"/>
        <rect id="矩形_3642" data-name="矩形 3642" width="2.065" height="6.194" transform="translate(550.451 1827.193)" fill="#3f3d56"/>
        <rect id="矩形_3643" data-name="矩形 3643" width="2.065" height="6.194" transform="translate(554.581 1827.193)" fill="#3f3d56"/>
        <rect id="矩形_3644" data-name="矩形 3644" width="2.065" height="6.194" transform="translate(558.709 1827.193)" fill="#3f3d56"/>
        <rect id="矩形_3645" data-name="矩形 3645" width="2.065" height="2.065" transform="translate(573.161 1829.258)" fill="#3f3d56"/>
        <rect id="矩形_3646" data-name="矩形 3646" width="2.065" height="2.065" transform="translate(569.032 1829.258)" fill="#3f3d56"/>
        <rect id="矩形_3647" data-name="矩形 3647" width="2.065" height="2.065" transform="translate(564.903 1829.258)" fill="#3f3d56"/>
        <rect id="矩形_3651" data-name="矩形 3651" width="2.065" height="6.194" transform="translate(542.193 1847.839)" fill="#3f3d56"/>
        <rect id="矩形_3652" data-name="矩形 3652" width="2.065" height="6.194" transform="translate(546.322 1847.839)" fill="#3f3d56"/>
        <rect id="矩形_3653" data-name="矩形 3653" width="2.065" height="6.194" transform="translate(550.451 1847.839)" fill="#3f3d56"/>
        <rect id="矩形_3654" data-name="矩形 3654" width="2.065" height="6.194" transform="translate(554.581 1847.839)" fill="#3f3d56"/>
        <rect id="矩形_3655" data-name="矩形 3655" width="2.065" height="6.194" transform="translate(558.709 1847.839)" fill="#3f3d56"/>
        <rect id="矩形_3656" data-name="矩形 3656" width="2.065" height="2.065" transform="translate(573.161 1849.903)" fill="#3f3d56"/>
        <rect id="矩形_3657" data-name="矩形 3657" width="2.065" height="2.065" transform="translate(569.032 1849.903)" fill="#3f3d56"/>
        <rect id="矩形_3658" data-name="矩形 3658" width="2.065" height="2.065" transform="translate(564.903 1849.903)" fill="#3f3d56"/>
        <rect id="矩形_3660" data-name="矩形 3660" width="2.065" height="6.194" transform="translate(542.193 1868.484)" fill="#3f3d56"/>
        <rect id="矩形_3661" data-name="矩形 3661" width="2.065" height="6.194" transform="translate(546.322 1868.484)" fill="#3f3d56"/>
        <rect id="矩形_3662" data-name="矩形 3662" width="2.065" height="6.194" transform="translate(550.451 1868.484)" fill="#3f3d56"/>
        <rect id="矩形_3663" data-name="矩形 3663" width="2.065" height="6.194" transform="translate(554.581 1868.484)" fill="#3f3d56"/>
        <rect id="矩形_3664" data-name="矩形 3664" width="2.065" height="6.194" transform="translate(558.709 1868.484)" fill="#3f3d56"/>
        <rect id="矩形_3665" data-name="矩形 3665" width="2.065" height="2.065" transform="translate(573.161 1870.548)" fill="#3f3d56"/>
        <rect id="矩形_3666" data-name="矩形 3666" width="2.065" height="2.065" transform="translate(569.032 1870.548)" fill="#3f3d56"/>
        <rect id="矩形_3667" data-name="矩形 3667" width="2.065" height="2.065" transform="translate(564.903 1870.548)" fill="#3f3d56"/>
      </g>
      <g id="组_4319" data-name="组 4319">
        <path id="路径_13551" data-name="路径 13551" d="M88.774,18.581H33.032V0H88.774V18.581ZM35.1,16.516H86.709V2.065H35.1Z" transform="translate(502.968 1821)" fill="#3f3d56"/>
        <rect id="矩形_3638" data-name="矩形 3638" width="2.065" height="2.065" transform="translate(540.129 1839.581)" fill="#3f3d56"/>
        <rect id="矩形_3639" data-name="矩形 3639" width="2.065" height="2.065" transform="translate(585.548 1839.581)" fill="#3f3d56"/>
        <path id="路径_13553" data-name="路径 13553" d="M88.774,183.742H33.032V165.161H88.774v18.581ZM35.1,181.677H86.709V167.225H35.1Z" transform="translate(502.968 1676.484)" fill="#3f3d56"/>
        <rect id="矩形_3649" data-name="矩形 3649" width="2.065" height="2.065" transform="translate(540.129 1860.226)" fill="#3f3d56"/>
        <rect id="矩形_3650" data-name="矩形 3650" width="2.065" height="2.065" transform="translate(585.548 1860.226)" fill="#3f3d56"/>
        <path id="路径_13555" data-name="路径 13555" d="M88.774,348.9H33.032V330.323H88.774V348.9ZM35.1,346.839H86.709V332.388H35.1Z" transform="translate(502.968 1531.968)" fill="#3f3d56"/>
        <path id="路径_13556" data-name="路径 13556" d="M113.549,483.1H66.065v-4.129H68.13v2.064h43.355v-2.064h2.064Z" transform="translate(474.064 1401.903)" fill="#3f3d56"/>
      </g>
    </g>
  </g>
</svg>
