<svg xmlns="http://www.w3.org/2000/svg" width="37" height="64" viewBox="0 0 37 64">
  <g id="组_4327" data-name="组 4327" transform="translate(-473 -1821)">
    <circle id="椭圆_1156" data-name="椭圆 1156" cx="11" cy="11" r="11" transform="translate(477 1825)" fill="#ff6584"/>
    <path id="路径_13545" data-name="路径 13545" d="M136,144c0-2-6-8-6-8l-6-15a2.946,2.946,0,0,1,3-3,3.7,3.7,0,0,1,3,2l4,8V107a3,3,0,0,1,6,0v11a3,3,0,1,1,6,0v2a3,3,0,0,1,6,0v2a3,3,0,1,1,6,0v7c0,7-4,11-4,13v2" transform="translate(351 1730)" fill="#fff"/>
    <rect id="矩形_3628" data-name="矩形 3628" width="22" height="10" transform="translate(485 1875)" fill="#6c63ff"/>
    <g id="组_4320" data-name="组 4320" transform="translate(473 1821)">
      <rect id="矩形_3631" data-name="矩形 3631" width="2" height="3" transform="translate(29 30)" fill="#3f3d56"/>
      <rect id="矩形_3632" data-name="矩形 3632" width="2" height="3" transform="translate(23 29)" fill="#3f3d56"/>
      <rect id="矩形_3633" data-name="矩形 3633" width="2" height="4" transform="translate(17 27)" fill="#3f3d56"/>
      <g id="组_4320-2" data-name="组 4320">
        <path id="路径_13546" data-name="路径 13546" d="M220,435h-2v-9H198v9h-2V424h24Z" transform="translate(-185 -371)" fill="#3f3d56"/>
        <rect id="矩形_3629" data-name="矩形 3629" width="2" height="2" transform="translate(29 57)" fill="#3f3d56"/>
        <rect id="矩形_3630" data-name="矩形 3630" width="2" height="2" transform="translate(25 57)" fill="#3f3d56"/>
        <path id="路径_13547" data-name="路径 13547" d="M148,137h-2v-2a8.342,8.342,0,0,1,1.2-3.3A19.949,19.949,0,0,0,150,122v-7a2,2,0,0,0-4,0h-2v-2a2,2,0,0,0-4,0h-2v-2a2,2,0,0,0-4,0h-2V100a2,2,0,0,0-4,0v25.2l-5.9-11.8A2.805,2.805,0,0,0,120,112a2.046,2.046,0,0,0-2,1.8l5.8,14.6c1.6,1.6,6.1,6.4,6.1,8.6h-2c0-.9-2.6-4.2-5.7-7.3l-.1-.1L116,114.2V114a4.012,4.012,0,0,1,4-4,4.6,4.6,0,0,1,3.9,2.6l2.1,4.2V100a4,4,0,0,1,8,0v7.5a4.552,4.552,0,0,1,2-.5,4.1,4.1,0,0,1,3.8,2.7,3.957,3.957,0,0,1,6,2,4.1,4.1,0,0,1,2.2-.7,4.012,4.012,0,0,1,4,4v7a21.957,21.957,0,0,1-3,10.6,8.126,8.126,0,0,0-1,2.4Z" transform="translate(-115 -84)" fill="#3f3d56"/>
        <rect id="矩形_3634" data-name="矩形 3634" width="2" height="8" transform="translate(14)" fill="#3f3d56"/>
        <path id="路径_13548" data-name="路径 13548" d="M269,31a.908.908,0,0,1-.7-.3.967.967,0,0,1,0-1.4l5-5a.99.99,0,0,1,1.4,1.4l-5,5A.908.908,0,0,1,269,31Z" transform="translate(-248 -21)" fill="#3f3d56"/>
        <path id="路径_13549" data-name="路径 13549" d="M145,38a.908.908,0,0,1-.7-.3l-4-4a.99.99,0,1,1,1.4-1.4l4,4a.967.967,0,0,1,0,1.4A.908.908,0,0,1,145,38Z" transform="translate(-136 -28)" fill="#3f3d56"/>
        <rect id="矩形_3635" data-name="矩形 3635" width="8" height="2" transform="translate(22 14)" fill="#3f3d56"/>
        <rect id="矩形_3636" data-name="矩形 3636" width="8" height="2" transform="translate(0 14)" fill="#3f3d56"/>
      </g>
    </g>
  </g>
</svg>
