<svg xmlns="http://www.w3.org/2000/svg" width="175.237" height="138.729" viewBox="0 0 175.237 138.729">
  <defs>
    <style>
      .cls-1 {
        fill: #3333ce;
        opacity: 0.2;
      }

      .cls-2 {
        fill: #f2f2f2;
      }

      .cls-3 {
        fill: #083863;
      }
    </style>
  </defs>
  <g id="_022-laptop" data-name="022-laptop" transform="translate(0 -53.333)">
    <path id="Path_10808" data-name="Path 10808" class="cls-1" d="M198.793,190.635v10.952H158.635l-3.651,7.3H118.476l-3.651-7.3H74.667v-94.92H198.793v83.968Z" transform="translate(-49.111 -35.08)"/>
    <g id="Group_3020" data-name="Group 3020" transform="translate(43.809 104.444)">
      <circle id="Ellipse_646" data-name="Ellipse 646" class="cls-2" cx="7.301" cy="7.301" r="7.301" transform="translate(73.016 0)"/>
      <circle id="Ellipse_647" data-name="Ellipse 647" class="cls-2" cx="7.301" cy="7.301" r="7.301" transform="translate(36.508 0)"/>
      <circle id="Ellipse_648" data-name="Ellipse 648" class="cls-2" cx="7.301" cy="7.301" r="7.301" transform="translate(0 0)"/>
    </g>
    <g id="Group_3021" data-name="Group 3021" transform="translate(0 53.333)">
      <path id="Path_10811" data-name="Path 10811" class="cls-3" d="M171.586,373.333H109.523a3.651,3.651,0,0,0-3.268,2.019l-2.64,5.283h-32L69,375.352a3.651,3.651,0,0,0-3.286-2.019H3.651A3.651,3.651,0,0,0,0,376.984v18.254a7.3,7.3,0,0,0,7.3,7.3H167.935a7.3,7.3,0,0,0,7.3-7.3V376.984A3.65,3.65,0,0,0,171.586,373.333Zm-3.651,21.9H7.3v-14.6H63.458l2.64,5.283a3.651,3.651,0,0,0,3.268,2.019h36.508a3.651,3.651,0,0,0,3.268-2.019l2.64-5.283h56.156v14.6Z" transform="translate(0 -263.81)"/>
      <path id="Path_10812" data-name="Path 10812" class="cls-3" d="M28.635,64.285a3.651,3.651,0,0,1,3.651-3.651H171.015a3.651,3.651,0,0,1,3.651,3.651v91.269h7.3V64.285a10.952,10.952,0,0,0-10.952-10.952H32.285A10.952,10.952,0,0,0,21.333,64.285v91.269h7.3V64.285Z" transform="translate(-14.032 -53.333)"/>
      <path id="Path_10813" data-name="Path 10813" class="cls-3" d="M195.428,183.619V99.651A3.651,3.651,0,0,0,191.777,96H67.651A3.651,3.651,0,0,0,64,99.651v83.968h7.3V103.3H188.126v80.317Z" transform="translate(-42.095 -81.397)"/>
      <path id="Path_10814" data-name="Path 10814" class="cls-3" d="M113.968,145.968h7.3v-7.3H110.317a3.651,3.651,0,0,0-3.651,3.651V153.27h7.3Z" transform="translate(-70.159 -109.461)"/>
      <path id="Path_10815" data-name="Path 10815" class="cls-3" d="M42.667,405.333h7.3v7.3h-7.3Z" transform="translate(-28.064 -284.857)"/>
      <path id="Path_10816" data-name="Path 10816" class="cls-3" d="M448,405.333h7.3v7.3H448Z" transform="translate(-294.668 -284.857)"/>
      <path id="Path_10817" data-name="Path 10817" class="cls-3" d="M252.632,232.065h29.206a7.152,7.152,0,0,0,7.3-7c0-.1,0-.2,0-.3V213.14a10.952,10.952,0,1,0-7.3,0v11.624H252.631a7.152,7.152,0,0,0-7.3,7c0,.1,0,.2,0,.3v14.6h7.3v-14.6Zm32.857-32.857a3.651,3.651,0,1,1-3.651,3.651A3.651,3.651,0,0,1,285.489,199.208Z" transform="translate(-161.362 -144.447)"/>
      <path id="Path_10818" data-name="Path 10818" class="cls-3" d="M131.93,232.065h21.9v-7.3h-21.9V213.14a10.952,10.952,0,1,0-7.3,0v11.624a7.152,7.152,0,0,0,7,7.3C131.729,232.068,131.829,232.068,131.93,232.065Zm-3.651-32.857a3.651,3.651,0,1,1-3.651,3.651A3.651,3.651,0,0,1,128.279,199.208Z" transform="translate(-77.169 -144.447)"/>
      <path id="Path_10819" data-name="Path 10819" class="cls-3" d="M238.6,221.113V213.14a10.952,10.952,0,1,0-7.3,0v7.973Zm-3.651-21.9a3.651,3.651,0,1,1-3.651,3.651A3.651,3.651,0,0,1,234.946,199.208Z" transform="translate(-147.328 -144.447)"/>
    </g>
  </g>
</svg>
