<svg id="tech46" xmlns="http://www.w3.org/2000/svg" width="70" height="70" viewBox="0 0 70 70">
  <g id="组_4904" data-name="组 4904" transform="translate(1.083 1.083)">
    <rect id="矩形_3845" data-name="矩形 3845" width="25" height="3" transform="translate(21.274 42.2)" fill="#fff"/>
    <path id="路径_13723" data-name="路径 13723" d="M53.953,51.3h8.753a13.1,13.1,0,0,0,13.129-12.99c0-6.387-4.376-11.908-10.941-11.908,0-5.413-3.282-9.743-9.847-9.743H53.953a17.642,17.642,0,0,0-32.823,8.66,12.991,12.991,0,1,0,0,25.981h8.753" transform="translate(-8 -8)" fill="#fff"/>
  </g>
  <path id="路径_13724" data-name="路径 13724" d="M55.781,45.466h-8.75V43.3h8.75A11.936,11.936,0,0,0,67.813,31.394c0-6.17-4.266-10.825-9.844-10.825H56.875V19.486c0-4.222-2.3-8.66-8.75-8.66h-1.75l-.328-.541A16.087,16.087,0,0,0,31.719,2.165,16.3,16.3,0,0,0,15.313,18.4v1.083H14.219a11.909,11.909,0,1,0,0,23.816h8.75v2.165h-8.75a14.09,14.09,0,0,1-1.094-28.146A18.513,18.513,0,0,1,31.719,0,18.315,18.315,0,0,1,47.687,8.66h.438c6.234,0,10.5,3.789,10.938,9.743C65.406,18.944,70,24.357,70,31.394A14.118,14.118,0,0,1,55.781,45.466Z" fill="#4d5152"/>
  <circle id="椭圆_1199" data-name="椭圆 1199" cx="16" cy="16" r="16" transform="translate(19.366 12.519)" fill="#f86584"/>
  <path id="路径_13725" data-name="路径 13725" d="M232.66,320v20.568a4.33,4.33,0,1,1-8.66,0V320" transform="translate(-193.33 -275.981)" fill="#6c63ff"/>
  <ellipse id="椭圆_1200" data-name="椭圆 1200" cx="11.5" cy="10.5" rx="11.5" ry="10.5" transform="translate(23.357 18.554)" fill="#fff"/>
  <g id="组_4905" data-name="组 4905" transform="translate(17.679 11.543)">
    <path id="路径_13726" data-name="路径 13726" d="M145.321,114.641a17.321,17.321,0,1,1,17.321-17.321A17.371,17.371,0,0,1,145.321,114.641Zm0-32.476a15.155,15.155,0,1,0,15.155,15.155A15.2,15.2,0,0,0,145.321,82.165Z" transform="translate(-128 -80)" fill="#4d5152"/>
    <path id="路径_13727" data-name="路径 13727" d="M179.908,143.816a11.908,11.908,0,1,1,11.908-11.908A11.874,11.874,0,0,1,179.908,143.816Zm0-21.651a9.743,9.743,0,1,0,9.743,9.743A9.7,9.7,0,0,0,179.908,122.165Z" transform="translate(-162.587 -114.587)" fill="#4d5152"/>
    <path id="路径_13728" data-name="路径 13728" d="M210.165,166.5H208a6.514,6.514,0,0,1,6.5-6.5v2.165A4.343,4.343,0,0,0,210.165,166.5Z" transform="translate(-197.175 -149.175)" fill="#4d5152"/>
    <path id="路径_13729" data-name="路径 13729" d="M221.413,345.981A5.36,5.36,0,0,1,216,340.568V320h2.165v20.568a3.248,3.248,0,1,0,6.5,0V320h2.165v20.568A5.36,5.36,0,0,1,221.413,345.981Z" transform="translate(-204.092 -287.524)" fill="#4d5152"/>
    <rect id="矩形_3846" data-name="矩形 3846" width="2" height="2" transform="translate(16.679 41.457)" fill="#4d5152"/>
    <rect id="矩形_3847" data-name="矩形 3847" width="2" height="2" transform="translate(16.679 45.457)" fill="#4d5152"/>
    <rect id="矩形_3848" data-name="矩形 3848" width="2" height="1" transform="translate(16.679 50.457)" fill="#4d5152"/>
  </g>
</svg>
