<svg xmlns="http://www.w3.org/2000/svg" xmlns:xlink="http://www.w3.org/1999/xlink" width="100" height="100" viewBox="0 0 100 100">
  <defs>
    <clipPath id="clip-path">
      <rect id="矩形_3672" data-name="矩形 3672" width="100" height="100" transform="translate(790 842)" fill="none" stroke="#707070" stroke-width="1"/>
    </clipPath>
  </defs>
  <g id="蒙版组_120" data-name="蒙版组 120" transform="translate(-790 -842)" clip-path="url(#clip-path)">
    <g id="组_4306" transform="translate(-456.7 457.036)">
      <circle id="椭圆_1140" cx="21.845" cy="21.845" r="21.845" transform="translate(1275.962 416.353)" fill="#f0efff"/>
      <g id="组_4322" data-name="组 4322" transform="translate(1289.938 440.777)">
        <rect id="矩形_3439_1_" width="2.035" height="12.347" transform="translate(0.101 1.915) rotate(-65.557)" fill="#30323e"/>
        <path id="路径_13562" data-name="路径 13562" d="M1313.23,465.823h0l-11.33-5.156.882-1.967h.068l11.262,5.156v.068Zm-11.194-5.224,11.126,5.02.814-1.764-11.126-5.02Z" transform="translate(-1301.9 -458.7)" fill="#30323e"/>
      </g>
      <g id="组_4323" data-name="组 4323" transform="translate(1289.937 431.211)">
        <rect id="矩形_3514_1_" width="12.347" height="2.035" transform="translate(0.042 5.214) rotate(-24.463)" fill="#30323e"/>
        <path id="路径_13563" data-name="路径 13563" d="M1302.782,451.723h0l-.882-1.967h.068l11.262-5.156.882,1.967h-.068Zm-.746-1.9.814,1.764,11.126-5.02-.814-1.764Z" transform="translate(-1301.9 -444.6)" fill="#30323e"/>
      </g>
      <path id="路径_13384" d="M1323,445.6a5.9,5.9,0,1,1,5.9-5.9h0A5.907,5.907,0,0,1,1323,445.6Z" transform="translate(-16.851 -9.916)" fill="#6c63ff"/>
      <circle id="椭圆_1142" cx="1.696" cy="1.696" r="1.696" transform="translate(1304.456 428.158)" fill="#3f3d56"/>
      <g id="组_4324" data-name="组 4324" transform="translate(1265.771 402.964)">
        <path id="路径_13386_1_" d="M1320.559,417.439a15.327,15.327,0,0,0-16.146-14.45,15.068,15.068,0,0,0-12.483,7.8,7.145,7.145,0,0,0-9.091,2.782,13.288,13.288,0,1,0-6.174,25.848,11.9,11.9,0,0,0,3.121.339h2.035v-2.035h-2.035a11.228,11.228,0,0,1-.068-22.456,10.947,10.947,0,0,1,3.324.475l.882.271.339-.814a5.09,5.09,0,0,1,6.716-2.578,7.4,7.4,0,0,1,.746.407l1.018.678.543-1.085a13.258,13.258,0,0,1,25.237,5.631v1.018l.95.068a9.182,9.182,0,0,1-.95,18.317h-4.071v2.035h4.071a11.215,11.215,0,0,0,2.035-22.252Z" transform="translate(-1266.338 -402.964)" fill="#3f3d56"/>
        <path id="路径_13564" data-name="路径 13564" d="M1318.464,439.861h-4.138V437.69h4.138a9.127,9.127,0,0,0,9.091-8.209,8.951,8.951,0,0,0-2.035-6.716,9.2,9.2,0,0,0-6.174-3.324l-.95-.068v-1.086a13.221,13.221,0,0,0-25.17-5.563l-.543,1.153-1.018-.678a7.4,7.4,0,0,0-.746-.407,5.087,5.087,0,0,0-3.867-.136,4.853,4.853,0,0,0-2.781,2.646l-.407.882-.95-.271a10.948,10.948,0,0,0-3.324-.475h0a11.16,11.16,0,0,0,.068,22.32h2.1v2.171h-2.1a16.268,16.268,0,0,1-3.121-.339,13.346,13.346,0,0,1,6.106-25.984,7.241,7.241,0,0,1,9.091-2.782,15.4,15.4,0,0,1,23.677-3.8,15.433,15.433,0,0,1,5.088,10.583,11.335,11.335,0,0,1,9.227,11.126A11.206,11.206,0,0,1,1318.464,439.861Zm-4-.136h4a11.185,11.185,0,0,0,2.035-22.184h-.068v-.068a15.241,15.241,0,0,0-28.494-6.649v.068h-.068a7.128,7.128,0,0,0-9.023,2.714v.068h-.068a13.28,13.28,0,0,0-15.943,9.769,13.141,13.141,0,0,0,1.56,9.973,13.416,13.416,0,0,0,8.209,5.97,11.711,11.711,0,0,0,3.053.339h1.967v-1.9h-1.967a11.3,11.3,0,0,1-.068-22.592h0a10.949,10.949,0,0,1,3.324.475l.814.271.339-.746a5.2,5.2,0,0,1,6.852-2.578,7.4,7.4,0,0,1,.746.407l.95.611.475-1.018a13.392,13.392,0,0,1,17.775-6.377,13.539,13.539,0,0,1,7.666,12.008v.95l.882.068a9.349,9.349,0,0,1,6.241,3.324,9.111,9.111,0,0,1,2.035,6.784,9.224,9.224,0,0,1-9.227,8.345h-4Z" transform="translate(-1266.279 -402.998)" fill="#3f3d56"/>
      </g>
      <path id="路径_13385" d="M1293.4,458a5.9,5.9,0,1,1,5.9-5.9A6,6,0,0,1,1293.4,458Z" transform="translate(-7.332 -13.904)" fill="#6c63ff"/>
      <circle id="椭圆_1143" cx="1.696" cy="1.696" r="1.696" transform="translate(1284.374 436.503)" fill="#3f3d56"/>
      <path id="路径_13565" data-name="路径 13565" d="M1283.764,488.028h-2.1v-2.035h1.085v.068h1.018Zm-3.46,0h-2.035v-2.035h2.035Zm-3.392,0h-2.035v-2.035h2.035Zm-3.392,0h-2.035v-2.035h2.035Zm-3.392,0h-2.035v-2.035h2.035Zm-3.392,0H1264.7v-2.035h2.035Zm17.029-3.324h-2.035v-2.035h2.035Zm0-3.392h-2.035v-2.035h2.035Zm0-3.392h-2.035v-2.035h2.035Zm0-3.392h-2.035v-2.035h2.035Zm0-3.392h-2.035V469.1h2.035Z" transform="translate(0 -21.268)" fill="#3f3d56"/>
      <path id="路径_13566" data-name="路径 13566" d="M1314.035,493.119H1312v-2.035h2.035Zm0-3.392H1312v-2.035h2.035Zm0-3.392H1312V484.3h2.035Z" transform="translate(-15.211 -26.156)" fill="#3f3d56"/>
      <path id="路径_13567" data-name="路径 13567" d="M1353.332,488.028H1351.3v-2.035h2.035Zm-3.392,0H1347.9v-2.035h2.035Zm-3.392,0h-2.035v-2.035h2.035Zm-3.392,0h-2.035v-2.035h2.035Zm-3.392,0h-2.035v-2.035h2.035Zm-3.392,0h-2.1v-1.967h1.018v-.068h1.086Zm-.136-3.324H1334.2v-2.035h2.035Zm0-3.392H1334.2v-2.035h2.035Zm0-3.392H1334.2v-2.035h2.035Zm0-3.392H1334.2v-2.035h2.035Zm0-3.392H1334.2V469.1h2.035Z" transform="translate(-22.349 -21.268)" fill="#3f3d56"/>
      <path id="路径_13345" d="M1310.7,471.6a5.9,5.9,0,1,1,5.9-5.9h0A5.951,5.951,0,0,1,1310.7,471.6Z" transform="translate(-12.895 -18.277)" fill="#ff6584"/>
      <circle id="椭圆_1134" cx="1.696" cy="1.696" r="1.696" transform="translate(1296.111 445.729)" fill="#3f3d56"/>
    </g>
  </g>
</svg>
