<svg xmlns="http://www.w3.org/2000/svg" width="378.186" height="279.061" viewBox="0 0 378.186 279.061">
  <g id="组_4865" data-name="组 4865" transform="translate(-280 -3299.686)">
    <g id="undraw_design_data_khdb" transform="translate(280 3303.383)">
      <path id="路径_13658" data-name="路径 13658" d="M264.433,492.99H98.651V414.132H264.433Zm-165.016-.766h164.25V414.9H99.417Z" transform="translate(-98.651 -292.129)" fill="#3f3d56"/>
      <rect id="矩形_3711" data-name="矩形 3711" width="254.626" height="0.766" transform="translate(123.56 260.229)" fill="#3f3d56"/>
      <path id="路径_13669" data-name="路径 13669" d="M449.07,731.035c-1.636,6.046-7.238,9.791-7.238,9.791s-2.95-6.058-1.315-12.1,7.238-9.791,7.238-9.791S450.706,724.989,449.07,731.035Z" transform="translate(-309.313 -480.221)" fill="#6c63ff"/>
      <path id="路径_13670" data-name="路径 13670" d="M423.995,731.035c1.636,6.046,7.238,9.791,7.238,9.791s2.95-6.058,1.315-12.1-7.238-9.791-7.238-9.791S422.359,724.989,423.995,731.035Z" transform="translate(-299.117 -480.221)" fill="#6c63ff"/>
      <path id="路径_13671" data-name="路径 13671" d="M412.99,739.516c4.488,4.369,5.036,11.085,5.036,11.085s-6.728-.367-11.217-4.736-5.036-11.085-5.036-11.085S408.5,735.147,412.99,739.516Z" transform="translate(-285.709 -490.002)" fill="#3f3d56"/>
      <path id="路径_13672" data-name="路径 13672" d="M449.257,739.516c-4.488,4.369-5.036,11.085-5.036,11.085s6.728-.367,11.216-4.736,5.036-11.085,5.036-11.085S453.745,735.147,449.257,739.516Z" transform="translate(-311.903 -490.002)" fill="#3f3d56"/>
      <g id="组_4863" data-name="组 4863" transform="translate(38.071 0)">
        <path id="路径_13673" data-name="路径 13673" d="M233.112,132.459a32.459,32.459,0,0,1,23.749-22.151A32.48,32.48,0,1,0,240.425,164.1,32.459,32.459,0,0,1,233.112,132.459Z" transform="translate(-200.621 -99.976)" fill="#6c63ff"/>
        <path id="路径_13674" data-name="路径 13674" d="M350.436,130.038a32.317,32.317,0,0,0-16.8-.579A32.472,32.472,0,0,1,317.2,183.252a32.478,32.478,0,1,0,33.24-53.214Z" transform="translate(-272.56 -117.651)" fill="#3f3d56"/>
        <ellipse id="椭圆_1184" data-name="椭圆 1184" cx="28.124" cy="16.24" rx="28.124" ry="16.24" transform="translate(26.345 60.012) rotate(-73.01)" fill="#d0cde1"/>
      </g>
      <rect id="矩形_3712" data-name="矩形 3712" width="126.001" height="55.656" transform="translate(3.33 139.863)" fill="#f2f2f2"/>
      <rect id="矩形_3713" data-name="矩形 3713" width="119.97" height="10.645" transform="translate(9.589 136.123)" fill="#6c63ff"/>
      <rect id="矩形_3714" data-name="矩形 3714" width="104.722" height="2.877" transform="translate(17.213 140.007)" fill="#3f3d56"/>
      <circle id="椭圆_1187" data-name="椭圆 1187" cx="4.028" cy="4.028" r="4.028" transform="translate(65.403 137.274)" fill="#3f3d56"/>
      <rect id="矩形_3715" data-name="矩形 3715" width="62.718" height="29.921" transform="translate(38.071 155.111)" fill="#6c63ff"/>
      <circle id="椭圆_1188" data-name="椭圆 1188" cx="5.754" cy="5.754" r="5.754" transform="translate(63.677 164.318)" opacity="0.15"/>
      <circle id="椭圆_1189" data-name="椭圆 1189" cx="5.754" cy="5.754" r="5.754" transform="translate(83.816 164.318)" fill="#fff" opacity="0.3"/>
      <circle id="椭圆_1190" data-name="椭圆 1190" cx="5.754" cy="5.754" r="5.754" transform="translate(43.538 164.318)" opacity="0.3"/>
    </g>
    <g id="组_4862" data-name="组 4862" transform="translate(489.312 3419.7)">
      <g id="组_1275" data-name="组 1275" transform="translate(0)">
        <rect id="矩形_2036" data-name="矩形 2036" width="122.141" height="36.906" transform="translate(0 108.082)" fill="#3f3d56"/>
        <ellipse id="椭圆_223" data-name="椭圆 223" cx="61.071" cy="12.741" rx="61.071" ry="12.741" transform="translate(0 94.901)" fill="#6c63ff"/>
        <ellipse id="椭圆_224" data-name="椭圆 224" cx="61.071" cy="13.181" rx="61.071" ry="13.181" transform="translate(0 132.686)" fill="#3f3d56"/>
        <rect id="矩形_2036-2" data-name="矩形 2036" width="122.141" height="36.906" transform="translate(0 59.752)" fill="#3f3d56"/>
        <ellipse id="椭圆_223-2" data-name="椭圆 223" cx="61.071" cy="13.62" rx="61.071" ry="13.62" transform="translate(0 46.572)" fill="#6c63ff"/>
        <ellipse id="椭圆_224-2" data-name="椭圆 224" cx="61.071" cy="14.059" rx="61.071" ry="14.059" transform="translate(0 84.356)" fill="#3f3d56"/>
        <rect id="矩形_2036-3" data-name="矩形 2036" width="122.141" height="36.906" transform="translate(0 14.059)" fill="#3f3d56"/>
        <ellipse id="椭圆_223-3" data-name="椭圆 223" cx="61.071" cy="13.62" rx="61.071" ry="13.62" fill="#6c63ff"/>
        <ellipse id="椭圆_224-3" data-name="椭圆 224" cx="61.071" cy="13.62" rx="61.071" ry="13.62" transform="translate(0 37.785)" fill="#3f3d56"/>
      </g>
      <g id="组_1276" data-name="组 1276" transform="translate(48.646 49.688)">
        <rect id="矩形_2037" data-name="矩形 2037" width="6.533" height="6.533" transform="translate(9.392)" fill="#ff6584" opacity="0.8"/>
        <rect id="矩形_2038" data-name="矩形 2038" width="6.533" height="6.533" transform="translate(18.783)" fill="#ff6584"/>
        <rect id="矩形_2039" data-name="矩形 2039" width="6.533" height="6.533" fill="#ff6584" opacity="0.4"/>
      </g>
      <g id="组_1277" data-name="组 1277" transform="translate(48.646 96.557)">
        <rect id="矩形_2037-2" data-name="矩形 2037" width="6.533" height="6.533" transform="translate(9.392)" fill="#ff6584" opacity="0.8"/>
        <rect id="矩形_2038-2" data-name="矩形 2038" width="6.533" height="6.533" transform="translate(18.783)" fill="#ff6584"/>
        <rect id="矩形_2039-2" data-name="矩形 2039" width="6.533" height="6.533" fill="#ff6584" opacity="0.4"/>
      </g>
      <g id="组_1278" data-name="组 1278" transform="translate(48.646 143.815)">
        <rect id="矩形_2037-3" data-name="矩形 2037" width="6.533" height="6.533" transform="translate(9.392 0)" fill="#ff6584" opacity="0.8"/>
        <rect id="矩形_2038-3" data-name="矩形 2038" width="6.533" height="6.533" transform="translate(18.783 0)" fill="#ff6584"/>
        <rect id="矩形_2039-3" data-name="矩形 2039" width="6.533" height="6.533" transform="translate(0 0)" fill="#ff6584" opacity="0.4"/>
      </g>
    </g>
    <g id="组_4864" data-name="组 4864" transform="translate(493.714 3299.686)">
      <path id="路径_13655" data-name="路径 13655" d="M482.7,151.17v49.394h94.193" transform="translate(-482.315 -103.308)" fill="#f2f2f2"/>
      <path id="路径_13656" data-name="路径 13656" d="M590.058,123.809H481.7V26.17h.766v96.873H590.058Z" transform="translate(-481.698 -26.17)" fill="#3f3d56"/>
      <path id="路径_13657" data-name="路径 13657" d="M583.332,240.831l-.685-.343a31.634,31.634,0,0,1,25.029-17.03c1.811-.159,3.707-.175,5.542-.19,5.07-.042,10.312-.085,14.134-3.185,2.829-2.295,4.2-5.67,5.646-9.243a45.779,45.779,0,0,1,2.483-5.433,22.274,22.274,0,0,1,17.66-10.973q.42-.024.854-.029a20.983,20.983,0,0,1,2.028-2.33c3.711-3.67,8.462-6.075,13.057-8.4l1.088-.552c4.863-2.474,9.9-5.249,13.337-9.548a21.116,21.116,0,0,0,3.377-19.723l.723-.252a21.9,21.9,0,0,1-3.5,20.453c-3.534,4.418-8.65,7.24-13.588,9.752l-1.089.552c-4.542,2.3-9.24,4.678-12.865,8.263a20.213,20.213,0,0,0-1.611,1.8c4.328.17,9.362,1.84,12.19,6.167a10.742,10.742,0,0,1,1.257,8.581,8.024,8.024,0,0,1-11.581,5.406,11.08,11.08,0,0,1-6.079-7.055c-1.158-4.475.367-8.9,2.7-12.332l-.252.013a21.49,21.49,0,0,0-17.038,10.587,45.211,45.211,0,0,0-2.438,5.343c-1.421,3.506-2.89,7.131-5.873,9.55-4.03,3.269-9.409,3.313-14.61,3.356-1.82.015-3.7.031-5.481.187A30.853,30.853,0,0,0,583.332,240.831Zm71.049-45.662c-2.4,3.329-4.05,7.73-2.9,12.157a10.3,10.3,0,0,0,5.657,6.55,7.262,7.262,0,0,0,10.524-4.911A10.1,10.1,0,0,0,666.5,201C664.162,197.431,659.493,195.211,654.381,195.169Z" transform="translate(-581.767 -143.081)" fill="#3f3d56"/>
      <circle id="椭圆_1182" data-name="椭圆 1182" cx="6.892" cy="6.892" r="6.892" transform="translate(46.33 57.052)" fill="#6c63ff"/>
      <circle id="椭圆_1185" data-name="椭圆 1185" cx="6.892" cy="6.892" r="6.892" transform="translate(99.553 5.744)" fill="#6c63ff"/>
      <circle id="椭圆_1186" data-name="椭圆 1186" cx="6.892" cy="6.892" r="6.892" transform="translate(80.791 34.078)" fill="#6c63ff"/>
    </g>
  </g>
</svg>
