<svg xmlns="http://www.w3.org/2000/svg" xmlns:xlink="http://www.w3.org/1999/xlink" width="100" height="100" viewBox="0 0 100 100">
  <defs>
    <clipPath id="clip-path">
      <rect id="矩形_3671" data-name="矩形 3671" width="100" height="100" transform="translate(252 842)" fill="none" stroke="#707070" stroke-width="1"/>
    </clipPath>
  </defs>
  <g id="蒙版组_119" data-name="蒙版组 119" transform="translate(-252 -842)" clip-path="url(#clip-path)">
    <g id="组_4329" data-name="组 4329" transform="translate(-116 -961)">
      <g id="组_4326" data-name="组 4326">
        <path id="路径_13536" data-name="路径 13536" d="M104,63.407,82.667,84.741,61.333,71.7,40,93.037V48h64Z" transform="translate(345.926 1774.185)" fill="#f0efff"/>
        <path id="路径_13537" data-name="路径 13537" d="M63.268,245.926H40V229.333L63.268,208Z" transform="translate(345.926 1637.889)" fill="#6c63ff"/>
        <path id="路径_13538" data-name="路径 13538" d="M184,208v37.926h21.333V221.037Z" transform="translate(223.259 1637.889)" fill="#6c63ff"/>
        <path id="路径_13539" data-name="路径 13539" d="M349.333,152,328,173.333v24.889h21.333Z" transform="translate(100.593 1685.593)" fill="#ff6584"/>
        <rect id="矩形_3625" data-name="矩形 3625" width="2.37" height="2.37" transform="translate(401.333 1828.111)" fill="#3f3d56"/>
        <rect id="矩形_3626" data-name="矩形 3626" width="2.37" height="2.37" transform="translate(396.593 1828.111)" fill="#3f3d56"/>
        <rect id="矩形_3627" data-name="矩形 3627" width="2.37" height="2.37" transform="translate(391.852 1828.111)" fill="#3f3d56"/>
        <rect id="矩形_3668" data-name="矩形 3668" width="2.37" height="30.222" transform="translate(429.37 1859.824) rotate(-135)" fill="#3f3d56"/>
        <rect id="矩形_3669" data-name="矩形 3669" width="25.008" height="2.371" transform="translate(428.026 1859.971) rotate(-148.569)" fill="#3f3d56"/>
        <rect id="矩形_3670" data-name="矩形 3670" width="2.37" height="30.222" transform="translate(386.704 1868.12) rotate(-135)" fill="#3f3d56"/>
        <path id="路径_13557" data-name="路径 13557" d="M98.37,104H32V40H98.37Zm-64-2.37H96V42.37H34.37Z" transform="translate(352.741 1781)" fill="#3f3d56"/>
        <g id="组_4321" data-name="组 4321">
          <circle id="椭圆_1160" data-name="椭圆 1160" cx="4.741" cy="4.741" r="4.741" transform="translate(381.185 1862.481)" fill="#fff"/>
          <circle id="椭圆_1161" data-name="椭圆 1161" cx="4.741" cy="4.741" r="4.741" transform="translate(402.519 1841.148)" fill="#fff"/>
          <circle id="椭圆_1162" data-name="椭圆 1162" cx="4.741" cy="4.741" r="4.741" transform="translate(423.852 1854.185)" fill="#fff"/>
          <circle id="椭圆_1163" data-name="椭圆 1163" cx="4.741" cy="4.741" r="4.741" transform="translate(445.185 1832.852)" fill="#fff"/>
          <path id="路径_13558" data-name="路径 13558" d="M5.926,323.852a5.926,5.926,0,0,1,0-11.852,5.926,5.926,0,0,1,0,11.852Zm0-9.481a3.556,3.556,0,0,0,0,7.111,3.556,3.556,0,0,0,0-7.111Z" transform="translate(380 1549.296)" fill="#3f3d56"/>
          <path id="路径_13559" data-name="路径 13559" d="M149.926,179.852a5.926,5.926,0,1,1,5.926-5.926A5.868,5.868,0,0,1,149.926,179.852Zm0-9.481a3.556,3.556,0,1,0,3.556,3.556A3.492,3.492,0,0,0,149.926,170.37Z" transform="translate(257.333 1671.963)" fill="#3f3d56"/>
          <path id="路径_13560" data-name="路径 13560" d="M293.926,267.852a5.926,5.926,0,1,1,5.926-5.926A5.868,5.868,0,0,1,293.926,267.852Zm0-9.481a3.556,3.556,0,1,0,3.556,3.556A3.492,3.492,0,0,0,293.926,258.37Z" transform="translate(134.667 1597)" fill="#3f3d56"/>
          <path id="路径_13561" data-name="路径 13561" d="M437.926,123.852a5.926,5.926,0,1,1,5.926-5.926A5.868,5.868,0,0,1,437.926,123.852Zm0-9.481a3.556,3.556,0,1,0,3.556,3.556A3.492,3.492,0,0,0,437.926,114.37Z" transform="translate(12 1719.667)" fill="#3f3d56"/>
        </g>
      </g>
    </g>
  </g>
</svg>
