<svg xmlns="http://www.w3.org/2000/svg" width="61.954" height="70" viewBox="0 0 61.954 70">
  <g id="tech16" transform="translate(-29.425)">
    <ellipse id="椭圆_1193" data-name="椭圆 1193" cx="25.622" cy="25.589" rx="25.622" ry="25.589" transform="translate(34.764 9.411)" fill="#f0efff"/>
    <circle id="椭圆_1194" data-name="椭圆 1194" cx="10.588" cy="10.588" r="10.588" transform="translate(49.799 24.412)" fill="#fff"/>
    <g id="组_4903" data-name="组 4903" transform="translate(29.425)">
      <path id="路径_13717" data-name="路径 13717" d="M182.312,70c-7.647,0-11.764-18.083-11.764-35s4.117-35,11.764-35,11.764,18.083,11.764,35S189.958,70,182.312,70Zm0-67.667c-4.47,0-9.411,13.417-9.411,32.667s4.941,32.667,9.411,32.667S191.723,54.25,191.723,35,186.782,2.333,182.312,2.333Z" transform="translate(-151.351)" fill="#4d5152"/>
      <path id="路径_13718" data-name="路径 13718" d="M37.053,147.257c-3.5,0-5.833-.928-7-2.9-3.733-6.494,9.8-19.019,24.5-27.485,10.967-6.262,22.167-10.206,29.166-10.206,3.5,0,5.833.928,7,2.9,3.733,6.494-9.8,19.019-24.5,27.485C55.253,143.314,44.053,147.257,37.053,147.257Zm46.666-38.271c-6.65,0-17.383,3.827-28,9.858C39.036,128.47,29.936,139.371,32.153,143.2c.817,1.392,3.15,1.74,4.9,1.74,6.65,0,17.383-3.827,28-9.858,16.683-9.626,25.9-20.527,23.683-24.354C87.919,109.334,85.586,108.986,83.719,108.986Z" transform="translate(-29.425 -91.962)" fill="#4d5152"/>
      <path id="路径_13719" data-name="路径 13719" d="M83.72,147.257c-7,0-18.2-3.943-29.167-10.206-14.7-8.466-28.233-20.991-24.5-27.485,1.05-1.856,3.5-2.9,7-2.9,7,0,18.2,3.943,29.167,10.206C74.153,121.4,81.036,126.614,85.7,131.6c5.017,5.335,6.767,9.742,5.017,12.641C89.67,146.213,87.22,147.257,83.72,147.257ZM37.053,108.986c-1.75,0-4.083.348-4.9,1.74-2.217,3.827,7,14.728,23.567,24.238,10.617,6.147,21.35,9.858,28,9.858,1.75,0,4.083-.348,4.9-1.74,1.05-1.855-.7-5.567-4.667-9.974-4.433-4.755-11.2-9.858-18.9-14.265C54.436,112.813,43.7,108.986,37.053,108.986Z" transform="translate(-29.425 -91.962)" fill="#4d5152"/>
    </g>
    <circle id="椭圆_1195" data-name="椭圆 1195" cx="4.706" cy="4.706" r="4.706" transform="translate(55.681 30.294)" fill="#f86584"/>
    <circle id="椭圆_1196" data-name="椭圆 1196" cx="3.529" cy="3.529" r="3.529" transform="translate(31.235 24.477)" fill="#6c63ff"/>
    <path id="路径_13720" data-name="路径 13720" d="M38.721,180.078a4.706,4.706,0,1,1,4.706-4.706A4.719,4.719,0,0,1,38.721,180.078Zm0-7.058a2.353,2.353,0,1,0,2.353,2.353A2.36,2.36,0,0,0,38.721,173.02Z" transform="translate(-3.957 -147.364)" fill="#4d5152"/>
    <circle id="椭圆_1197" data-name="椭圆 1197" cx="3.529" cy="3.529" r="3.529" transform="translate(63.85 57.06)" fill="#6c63ff"/>
    <path id="路径_13721" data-name="路径 13721" d="M277.654,419.012a4.706,4.706,0,1,1,4.706-4.706A4.719,4.719,0,0,1,277.654,419.012Zm0-7.058a2.353,2.353,0,1,0,2.353,2.353A2.36,2.36,0,0,0,277.654,411.954Z" transform="translate(-210.278 -353.718)" fill="#4d5152"/>
    <path id="路径_13730" data-name="路径 13730" d="M3.529,0A3.529,3.529,0,1,1,0,3.529,3.529,3.529,0,0,1,3.529,0Z" transform="translate(75.421 12.821)" fill="#6c63ff"/>
    <path id="路径_13722" data-name="路径 13722" d="M362.988,94.745a4.706,4.706,0,1,1,4.706-4.706A4.719,4.719,0,0,1,362.988,94.745Zm0-7.058a2.353,2.353,0,1,0,2.353,2.353A2.36,2.36,0,0,0,362.988,87.687Z" transform="translate(-284.037 -73.682)" fill="#4d5152"/>
  </g>
</svg>
