<svg xmlns="http://www.w3.org/2000/svg" width="70" height="70" viewBox="0 0 70 70">
  <g id="组_4909" data-name="组 4909" transform="translate(-1336 -861.188)">
    <circle id="椭圆_1201" data-name="椭圆 1201" cx="24.5" cy="24.5" r="24.5" transform="translate(1346.5 871.688)" fill="#f0efff"/>
    <circle id="椭圆_1202" data-name="椭圆 1202" cx="10.5" cy="10.5" r="10.5" transform="translate(1360.5 885.688)" fill="#fff"/>
    <g id="组_4908" data-name="组 4908" transform="translate(1336 861.188)">
      <rect id="矩形_3849" data-name="矩形 3849" width="2.333" height="17.5" transform="translate(33.833 1.167)" fill="#4d5152"/>
      <path id="路径_13731" data-name="路径 13731" d="M214.5,7a1.059,1.059,0,0,1-.817-.35,1.128,1.128,0,0,1,0-1.633L218.351.35a1.128,1.128,0,0,1,1.633,0,1.128,1.128,0,0,1,0,1.633L215.317,6.65A1.059,1.059,0,0,1,214.5,7Z" transform="translate(-184.168 0)" fill="#4d5152"/>
      <path id="路径_13732" data-name="路径 13732" d="M253.3,7a1.059,1.059,0,0,1-.817-.35l-4.667-4.667a1.128,1.128,0,0,1,0-1.633,1.128,1.128,0,0,1,1.633,0l4.667,4.667a1.128,1.128,0,0,1,0,1.633A1.059,1.059,0,0,1,253.3,7Z" transform="translate(-213.634 0)" fill="#4d5152"/>
      <rect id="矩形_3850" data-name="矩形 3850" width="2.333" height="17.5" transform="translate(33.833 51.333)" fill="#4d5152"/>
      <path id="路径_13733" data-name="路径 13733" d="M248.634,467.8a1.059,1.059,0,0,1-.817-.35,1.128,1.128,0,0,1,0-1.633l4.667-4.667a1.155,1.155,0,1,1,1.633,1.633l-4.667,4.667A1.059,1.059,0,0,1,248.634,467.8Z" transform="translate(-213.634 -397.8)" fill="#4d5152"/>
      <path id="路径_13734" data-name="路径 13734" d="M219.167,467.8a1.059,1.059,0,0,1-.817-.35l-4.667-4.667a1.155,1.155,0,1,1,1.633-1.633l4.667,4.667a1.128,1.128,0,0,1,0,1.633A1.059,1.059,0,0,1,219.167,467.8Z" transform="translate(-184.168 -397.8)" fill="#4d5152"/>
      <rect id="矩形_3851" data-name="矩形 3851" width="17.5" height="2.333" transform="translate(1.167 33.833)" fill="#4d5152"/>
      <path id="路径_13735" data-name="路径 13735" d="M5.834,254.466a1.059,1.059,0,0,1-.817-.35L.35,249.449a1.128,1.128,0,0,1,0-1.633,1.128,1.128,0,0,1,1.633,0l4.667,4.667a1.128,1.128,0,0,1,0,1.633A1.059,1.059,0,0,1,5.834,254.466Z" transform="translate(0 -213.633)" fill="#4d5152"/>
      <path id="路径_13736" data-name="路径 13736" d="M1.167,220.333a1.059,1.059,0,0,1-.817-.35,1.128,1.128,0,0,1,0-1.633l4.667-4.667a1.155,1.155,0,1,1,1.633,1.633l-4.667,4.667A1.059,1.059,0,0,1,1.167,220.333Z" transform="translate(0 -184.167)" fill="#4d5152"/>
      <rect id="矩形_3852" data-name="矩形 3852" width="17.5" height="2.333" transform="translate(51.333 33.833)" fill="#4d5152"/>
      <path id="路径_13737" data-name="路径 13737" d="M466.634,220.333a1.059,1.059,0,0,1-.817-.35l-4.667-4.667a1.155,1.155,0,0,1,1.633-1.633l4.667,4.667a1.128,1.128,0,0,1,0,1.633A1.059,1.059,0,0,1,466.634,220.333Z" transform="translate(-397.8 -184.167)" fill="#4d5152"/>
      <path id="路径_13738" data-name="路径 13738" d="M461.967,254.467a1.059,1.059,0,0,1-.817-.35,1.128,1.128,0,0,1,0-1.633l4.667-4.667a1.155,1.155,0,0,1,1.633,1.633l-4.667,4.667A1.06,1.06,0,0,1,461.967,254.467Z" transform="translate(-397.8 -213.634)" fill="#4d5152"/>
      <path id="路径_13739" data-name="路径 13739" d="M75.827,76.993a1.059,1.059,0,0,1-.817-.35L62.643,64.277a1.155,1.155,0,0,1,1.633-1.633L76.643,75.01a1.128,1.128,0,0,1,0,1.633A1.059,1.059,0,0,1,75.827,76.993Z" transform="translate(-53.777 -53.777)" fill="#4d5152"/>
      <path id="路径_13740" data-name="路径 13740" d="M60.9,69.067A1.1,1.1,0,0,1,59.734,67.9v-7a1.167,1.167,0,0,1,2.333,0v7A1.1,1.1,0,0,1,60.9,69.067Z" transform="translate(-51.567 -51.567)" fill="#4d5152"/>
      <path id="路径_13741" data-name="路径 13741" d="M67.9,62.067h-7a1.167,1.167,0,1,1,0-2.333h7a1.167,1.167,0,0,1,0,2.333Z" transform="translate(-51.567 -51.567)" fill="#4d5152"/>
      <path id="路径_13742" data-name="路径 13742" d="M355.72,356.887a1.059,1.059,0,0,1-.817-.35l-12.367-12.367a1.155,1.155,0,1,1,1.633-1.633L356.537,354.9a1.128,1.128,0,0,1,0,1.633A1.261,1.261,0,0,1,355.72,356.887Z" transform="translate(-295.404 -295.404)" fill="#4d5152"/>
      <path id="路径_13743" data-name="路径 13743" d="M436.367,393.334a1.1,1.1,0,0,1-1.167-1.167v-7a1.167,1.167,0,0,1,2.333,0v7A1.1,1.1,0,0,1,436.367,393.334Z" transform="translate(-375.7 -331.501)" fill="#4d5152"/>
      <path id="路径_13744" data-name="路径 13744" d="M392.167,437.534h-7a1.167,1.167,0,0,1,0-2.333h7a1.167,1.167,0,0,1,0,2.333Z" transform="translate(-331.5 -375.701)" fill="#4d5152"/>
      <path id="路径_13745" data-name="路径 13745" d="M63.461,356.887a1.059,1.059,0,0,1-.817-.35,1.128,1.128,0,0,1,0-1.633l12.367-12.367a1.155,1.155,0,1,1,1.633,1.633L64.277,356.537A1.059,1.059,0,0,1,63.461,356.887Z" transform="translate(-53.777 -295.404)" fill="#4d5152"/>
      <path id="路径_13746" data-name="路径 13746" d="M67.9,437.534h-7a1.167,1.167,0,0,1,0-2.333h7a1.167,1.167,0,0,1,0,2.333Z" transform="translate(-51.567 -375.701)" fill="#4d5152"/>
      <path id="路径_13747" data-name="路径 13747" d="M60.9,393.334a1.1,1.1,0,0,1-1.167-1.167v-7a1.167,1.167,0,0,1,2.333,0v7A1.1,1.1,0,0,1,60.9,393.334Z" transform="translate(-51.567 -331.501)" fill="#4d5152"/>
      <path id="路径_13748" data-name="路径 13748" d="M343.354,76.993a1.059,1.059,0,0,1-.817-.35,1.128,1.128,0,0,1,0-1.633L354.9,62.643a1.155,1.155,0,1,1,1.633,1.633L344.171,76.643A1.26,1.26,0,0,1,343.354,76.993Z" transform="translate(-295.404 -53.777)" fill="#4d5152"/>
      <path id="路径_13749" data-name="路径 13749" d="M392.167,62.067h-7a1.167,1.167,0,1,1,0-2.333h7a1.167,1.167,0,1,1,0,2.333Z" transform="translate(-331.5 -51.567)" fill="#4d5152"/>
      <path id="路径_13750" data-name="路径 13750" d="M436.367,69.067A1.1,1.1,0,0,1,435.2,67.9v-7a1.167,1.167,0,0,1,2.333,0v7A1.1,1.1,0,0,1,436.367,69.067Z" transform="translate(-375.7 -51.567)" fill="#4d5152"/>
      <path id="路径_13751" data-name="路径 13751" d="M182.334,194A11.667,11.667,0,1,1,194,182.334,11.7,11.7,0,0,1,182.334,194Zm0-21a9.333,9.333,0,1,0,9.333,9.333A9.361,9.361,0,0,0,182.334,173Z" transform="translate(-147.334 -147.334)" fill="#4d5152"/>
    </g>
    <circle id="椭圆_1205" data-name="椭圆 1205" cx="4.667" cy="4.667" r="4.667" transform="translate(1366.333 891.521)" fill="#f86584"/>
  </g>
</svg>
