<svg xmlns="http://www.w3.org/2000/svg" xmlns:xlink="http://www.w3.org/1999/xlink" width="450" height="347" viewBox="0 0 450 347">
  <defs>
    <clipPath id="clip-path">
      <rect id="矩形_3680" data-name="矩形 3680" width="450" height="347" transform="translate(951 2866)" fill="none" stroke="#707070" stroke-width="1"/>
    </clipPath>
  </defs>
  <g id="蒙版组_125" data-name="蒙版组 125" transform="translate(-951 -2866)" clip-path="url(#clip-path)">
    <g id="组_1935" data-name="组 1935" transform="translate(415 -2419)">
      <g id="组_1344" data-name="组 1344" transform="translate(591 5296)">
        <g id="组_1313" data-name="组 1313" transform="translate(3.314 0)">
          <rect id="矩形_2062" data-name="矩形 2062" width="208.089" height="258.455" transform="translate(8.615 0)" fill="#f7f8f9"/>
          <rect id="矩形_2063" data-name="矩形 2063" width="208.089" height="258.455" transform="translate(0 8.615)" fill="none" stroke="#3f3d56" stroke-width="1"/>
          <rect id="矩形_2044" data-name="矩形 2044" width="9.941" height="9.278" transform="translate(98.08 116.636)" fill="#3351ff"/>
          <rect id="矩形_2045" data-name="矩形 2045" width="9.941" height="9.941" transform="translate(98.08 136.517)" fill="#ff6584"/>
          <rect id="矩形_2047" data-name="矩形 2047" width="69.737" height="13.888" transform="translate(148.528 146.046) rotate(-90)" fill="#3351ff"/>
          <rect id="矩形_2048" data-name="矩形 2048" width="42.804" height="13.888" transform="translate(169.839 146.046) rotate(-90)" fill="#ff6584"/>
          <path id="路径_5544" data-name="路径 5544" d="M419.847,154.454A36.306,36.306,0,0,0,452.3,207.025V173.661Z" transform="translate(-392.668 27.109)" fill="#6c63ff"/>
          <line id="直线_87" data-name="直线 87" x1="160.155" transform="translate(23.572 146.407)" fill="none" stroke="#d0cde1" stroke-width="1"/>
          <line id="直线_88" data-name="直线 88" x1="160.155" transform="translate(23.572 247.886)" fill="none" stroke="#d0cde1" stroke-width="1"/>
          <ellipse id="椭圆_236" data-name="椭圆 236" cx="3.645" cy="3.314" rx="3.645" ry="3.314" transform="translate(176.942 200.8)" fill="#6c63ff"/>
          <g id="组_1298" data-name="组 1298" transform="translate(115.311 178.93)">
            <rect id="矩形_2068" data-name="矩形 2068" width="3.976" height="3.976" fill="#3351ff"/>
            <rect id="矩形_2076" data-name="矩形 2076" width="3.976" height="3.976" transform="translate(0 7.29)" fill="#3351ff"/>
            <rect id="矩形_2077" data-name="矩形 2077" width="3.976" height="3.976" transform="translate(0 14.58)" fill="#3351ff"/>
          </g>
          <rect id="矩形_2078" data-name="矩形 2078" width="9.941" height="9.941" transform="translate(98.08 95.43)" fill="#6c63ff"/>
          <rect id="矩形_2079" data-name="矩形 2079" width="53.866" height="13.888" transform="translate(127.216 146.046) rotate(-90)" fill="#6c63ff"/>
          <g id="组_1295" data-name="组 1295" transform="translate(122.6 180.256)">
            <rect id="矩形_2067" data-name="矩形 2067" width="21.869" height="1.325" transform="translate(0 0)" fill="#3f3d56"/>
            <rect id="矩形_2069" data-name="矩形 2069" width="21.869" height="1.325" transform="translate(0 7.29)" fill="#3f3d56"/>
            <rect id="矩形_2071" data-name="矩形 2071" width="21.869" height="1.988" transform="translate(0 14.58)" fill="#3f3d56"/>
          </g>
          <g id="组_1296" data-name="组 1296" transform="translate(23.195 28.496)">
            <rect id="矩形_2064" data-name="矩形 2064" width="161.037" height="3.976" fill="#c9cedd"/>
            <rect id="矩形_2065" data-name="矩形 2065" width="161.037" height="4.639" transform="translate(0 15.242)" fill="#c9cedd"/>
            <rect id="矩形_2066" data-name="矩形 2066" width="79.525" height="4.639" transform="translate(0 29.822)" fill="#c9cedd"/>
            <path id="路径_5542" data-name="路径 5542" d="M591,61.441v72.985a36.493,36.493,0,1,0,0-72.985Z" transform="translate(-551.704 71.434)" fill="#dcdfe8"/>
            <path id="路径_5543" data-name="路径 5543" d="M474.288,68.694a33.344,33.344,0,0,0-29.812,18.4l29.812,17.639Z" transform="translate(-438.075 64.181)" fill="#dcdfe8"/>
            <rect id="矩形_2073" data-name="矩形 2073" width="53.016" height="1.325" transform="translate(0.663 76.874)" fill="#c9cedd"/>
            <rect id="矩形_2074" data-name="矩形 2074" width="53.016" height="1.988" transform="translate(0.663 88.802)" fill="#c9cedd"/>
            <rect id="矩形_2075" data-name="矩形 2075" width="53.016" height="1.988" transform="translate(0.663 101.394)" fill="#c9cedd"/>
          </g>
          <path id="路径_5636" data-name="路径 5636" d="M437.6,167.473l-.311-.311L460.455,144H500.8v.44H460.637Z" transform="translate(-387.5 43.718)" fill="#2f2e41"/>
        </g>
        <g id="组_1314" data-name="组 1314" transform="translate(165.564 135.711)">
          <path id="路径_5206" data-name="路径 5206" d="M256.086,594.975a87.218,87.218,0,1,0-149.737,0Z" transform="translate(-94 -463)" fill="#3f3d56"/>
          <line id="直线_81" data-name="直线 81" y1="28.165" x2="38.106" transform="translate(86.927 53.491)" fill="none" stroke="#6c63ff" stroke-linecap="round" stroke-miterlimit="10" stroke-width="4"/>
          <g id="组_1241" data-name="组 1241" transform="translate(16.017 9.7)">
            <circle id="椭圆_126" data-name="椭圆 126" cx="3.976" cy="3.976" r="3.976" transform="translate(0 81.234)" fill="#6c63ff"/>
            <circle id="椭圆_127" data-name="椭圆 127" cx="4.208" cy="4.208" r="4.208" transform="translate(2.518 44.898)" fill="#6c63ff"/>
            <circle id="椭圆_128" data-name="椭圆 128" cx="4.208" cy="4.208" r="4.208" transform="translate(23.405 14.93)" fill="#6c63ff"/>
            <circle id="椭圆_129" data-name="椭圆 129" cx="4.208" cy="4.208" r="4.208" transform="translate(56.744)" fill="#6c63ff"/>
            <circle id="椭圆_130" data-name="椭圆 130" cx="4.208" cy="4.208" r="4.208" transform="translate(93.01 4.373)" fill="#6c63ff"/>
            <circle id="椭圆_131" data-name="椭圆 131" cx="4.208" cy="4.208" r="4.208" transform="translate(121.845 26.8)" fill="#6c63ff"/>
            <circle id="椭圆_132" data-name="椭圆 132" cx="4.208" cy="4.208" r="4.208" transform="translate(135.009 60.874)" fill="#6c63ff"/>
            <circle id="椭圆_133" data-name="椭圆 133" cx="4.208" cy="4.208" r="4.208" transform="translate(128.744 96.862)" fill="#6c63ff"/>
          </g>
          <ellipse id="椭圆_151" data-name="椭圆 151" cx="8.615" cy="8.284" rx="8.615" ry="8.284" transform="translate(78.312 73.704)" fill="#6c63ff"/>
        </g>
        <ellipse id="椭圆_261" data-name="椭圆 261" cx="169.984" cy="13.254" rx="169.984" ry="13.254" transform="translate(0 298.217)" fill="#f7f8f9"/>
      </g>
    </g>
  </g>
</svg>
