<svg xmlns="http://www.w3.org/2000/svg" xmlns:xlink="http://www.w3.org/1999/xlink" width="320" height="213" viewBox="0 0 320 213">
  <defs>
    <clipPath id="clip-画板_1">
      <rect width="320" height="213"/>
    </clipPath>
  </defs>
  <g id="画板_1" data-name="画板 – 1" clip-path="url(#clip-画板_1)">
    <rect width="320" height="213" fill="#fff"/>
    <rect id="矩形_3182" data-name="矩形 3182" width="338.38" height="234.052" transform="translate(-8.416 -12.123)" fill="#241e4c"/>
    <g id="组_3352" data-name="组 3352" transform="translate(456.145 -498.779) rotate(90)">
      <path id="路径_11028" data-name="路径 11028" d="M711.964,239.837V135.96H674.841v53.924a37.123,37.123,0,0,1-37.123,37.123v12.829a37.123,37.123,0,1,0,74.246,0Z" fill="#2d4198"/>
      <path id="路径_11029" data-name="路径 11029" d="M600.595,135.96v53.924a37.123,37.123,0,0,0,37.123,37.123V135.96Z" fill="#aaddf8"/>
      <path id="路径_11030" data-name="路径 11030" d="M674.841,189.884V135.96H637.718v91.047A37.123,37.123,0,0,0,674.841,189.884Z" fill="#00b1dd"/>
    </g>
    <g id="组_3353" data-name="组 3353" transform="translate(455.223 -562.141) rotate(90)">
      <rect id="矩形_3183" data-name="矩形 3183" width="80.959" height="74.048" transform="translate(560.584 207.96)" fill="#f3815d"/>
      <rect id="矩形_3184" data-name="矩形 3184" width="80.959" height="24.582" transform="translate(560.584 171.543)" fill="#f3815d"/>
      <rect id="矩形_3185" data-name="矩形 3185" width="80.959" height="24.583" transform="translate(560.584 135.044)" fill="#f3815d"/>
    </g>
    <g id="组_3355" data-name="组 3355" transform="translate(409.196 -547.782) rotate(90)">
      <path id="路径_11032" data-name="路径 11032" d="M760.8,409.437H627.185L760.8,287.667Z" fill="#00b1dd"/>
      <g id="组_3354" data-name="组 3354" transform="translate(636.382 288.572)">
        <path id="路径_11033" data-name="路径 11033" d="M748.243,345.854a57.612,57.612,0,1,1-57.612-57.613A57.611,57.611,0,0,1,748.243,345.854Z" transform="translate(-633.02 -288.241)" fill="#2d4198"/>
        <path id="路径_11034" data-name="路径 11034" d="M684.7,396.107a57.593,57.593,0,0,0,43.73-95.094l-85.1,77.554A57.427,57.427,0,0,0,684.7,396.107Z" transform="translate(-627.084 -280.883)" fill="#fff"/>
      </g>
    </g>
    <g id="组_3364" data-name="组 3364" transform="translate(398.444 -561.159) rotate(90)">
      <g id="组_3356" data-name="组 3356" transform="translate(560.584 371.436)">
        <rect id="矩形_3186" data-name="矩形 3186" width="6.607" height="27.432" fill="#e1e7f7"/>
        <rect id="矩形_3187" data-name="矩形 3187" width="6.607" height="27.432" transform="translate(12.196)" fill="#e1e7f7"/>
        <rect id="矩形_3188" data-name="矩形 3188" width="6.607" height="27.432" transform="translate(24.392)" fill="#e1e7f7"/>
        <rect id="矩形_3189" data-name="矩形 3189" width="6.607" height="27.432" transform="translate(36.588)" fill="#e1e7f7"/>
        <rect id="矩形_3190" data-name="矩形 3190" width="6.607" height="27.432" transform="translate(48.785)" fill="#e1e7f7"/>
        <rect id="矩形_3191" data-name="矩形 3191" width="6.606" height="27.432" transform="translate(60.579)" fill="#e1e7f7"/>
        <rect id="矩形_3192" data-name="矩形 3192" width="6.606" height="27.432" transform="translate(72.371)" fill="#e1e7f7"/>
      </g>
      <g id="组_3363" data-name="组 3363" transform="translate(581.397 271.301)">
        <g id="组_3357" data-name="组 3357">
          <path id="路径_11035" data-name="路径 11035" d="M570.32,303.919A3.618,3.618,0,1,1,566.7,300.3,3.619,3.619,0,0,1,570.32,303.919Z" transform="translate(-563.085 -300.301)" fill="#6b99b0"/>
          <path id="路径_11036" data-name="路径 11036" d="M577.007,303.919a3.618,3.618,0,1,1-3.618-3.618A3.62,3.62,0,0,1,577.007,303.919Z" transform="translate(-559.578 -300.301)" fill="#6b99b0"/>
          <path id="路径_11037" data-name="路径 11037" d="M583.694,303.919a3.618,3.618,0,1,1-3.616-3.618A3.618,3.618,0,0,1,583.694,303.919Z" transform="translate(-556.07 -300.301)" fill="#6b99b0"/>
        </g>
        <g id="组_3358" data-name="组 3358" transform="translate(0 11.018)">
          <path id="路径_11038" data-name="路径 11038" d="M570.32,311.146a3.618,3.618,0,1,1-3.618-3.618A3.616,3.616,0,0,1,570.32,311.146Z" transform="translate(-563.085 -307.528)" fill="#6b99b0"/>
          <path id="路径_11039" data-name="路径 11039" d="M577.007,311.146a3.618,3.618,0,1,1-3.618-3.618A3.616,3.616,0,0,1,577.007,311.146Z" transform="translate(-559.578 -307.528)" fill="#6b99b0"/>
          <path id="路径_11040" data-name="路径 11040" d="M583.694,311.146a3.618,3.618,0,1,1-3.616-3.618A3.614,3.614,0,0,1,583.694,311.146Z" transform="translate(-556.07 -307.528)" fill="#6b99b0"/>
        </g>
        <g id="组_3359" data-name="组 3359" transform="translate(0 22.034)">
          <path id="路径_11041" data-name="路径 11041" d="M570.32,318.372a3.618,3.618,0,1,1-3.618-3.618A3.617,3.617,0,0,1,570.32,318.372Z" transform="translate(-563.085 -314.754)" fill="#6b99b0"/>
          <path id="路径_11042" data-name="路径 11042" d="M577.007,318.372a3.618,3.618,0,1,1-3.618-3.618A3.618,3.618,0,0,1,577.007,318.372Z" transform="translate(-559.578 -314.754)" fill="#6b99b0"/>
          <path id="路径_11043" data-name="路径 11043" d="M583.694,318.372a3.618,3.618,0,1,1-3.616-3.618A3.616,3.616,0,0,1,583.694,318.372Z" transform="translate(-556.07 -314.754)" fill="#6b99b0"/>
          <path id="路径_11044" data-name="路径 11044" d="M590.382,318.372a3.618,3.618,0,1,1-3.619-3.618A3.618,3.618,0,0,1,590.382,318.372Z" transform="translate(-552.562 -314.754)" fill="#6b99b0"/>
          <path id="路径_11045" data-name="路径 11045" d="M597.069,318.372a3.618,3.618,0,1,1-3.618-3.618A3.617,3.617,0,0,1,597.069,318.372Z" transform="translate(-549.055 -314.754)" fill="#6b99b0"/>
          <path id="路径_11046" data-name="路径 11046" d="M603.758,318.372a3.618,3.618,0,1,1-3.619-3.618A3.619,3.619,0,0,1,603.758,318.372Z" transform="translate(-545.547 -314.754)" fill="#6b99b0"/>
        </g>
        <g id="组_3360" data-name="组 3360" transform="translate(0 33.052)">
          <path id="路径_11047" data-name="路径 11047" d="M570.32,325.6a3.618,3.618,0,1,1-3.618-3.618A3.618,3.618,0,0,1,570.32,325.6Z" transform="translate(-563.085 -321.981)" fill="#6b99b0"/>
          <path id="路径_11048" data-name="路径 11048" d="M577.007,325.6a3.618,3.618,0,1,1-3.618-3.618A3.619,3.619,0,0,1,577.007,325.6Z" transform="translate(-559.578 -321.981)" fill="#6b99b0"/>
          <path id="路径_11049" data-name="路径 11049" d="M583.694,325.6a3.618,3.618,0,1,1-3.616-3.618A3.617,3.617,0,0,1,583.694,325.6Z" transform="translate(-556.07 -321.981)" fill="#6b99b0"/>
          <path id="路径_11050" data-name="路径 11050" d="M590.382,325.6a3.618,3.618,0,1,1-3.619-3.618A3.619,3.619,0,0,1,590.382,325.6Z" transform="translate(-552.562 -321.981)" fill="#6b99b0"/>
          <path id="路径_11051" data-name="路径 11051" d="M597.069,325.6a3.618,3.618,0,1,1-3.618-3.618A3.618,3.618,0,0,1,597.069,325.6Z" transform="translate(-549.055 -321.981)" fill="#6b99b0"/>
          <path id="路径_11052" data-name="路径 11052" d="M603.758,325.6a3.618,3.618,0,1,1-3.619-3.618A3.62,3.62,0,0,1,603.758,325.6Z" transform="translate(-545.547 -321.981)" fill="#6b99b0"/>
        </g>
        <g id="组_3361" data-name="组 3361" transform="translate(20.389 44.069)">
          <path id="路径_11053" data-name="路径 11053" d="M583.694,332.827a3.618,3.618,0,1,1-3.616-3.619A3.615,3.615,0,0,1,583.694,332.827Z" transform="translate(-576.459 -329.208)" fill="#6b99b0"/>
          <path id="路径_11054" data-name="路径 11054" d="M590.382,332.827a3.618,3.618,0,1,1-3.619-3.619A3.618,3.618,0,0,1,590.382,332.827Z" transform="translate(-572.951 -329.208)" fill="#6b99b0"/>
          <path id="路径_11055" data-name="路径 11055" d="M597.069,332.827a3.618,3.618,0,1,1-3.618-3.619A3.616,3.616,0,0,1,597.069,332.827Z" transform="translate(-569.444 -329.208)" fill="#6b99b0"/>
          <path id="路径_11056" data-name="路径 11056" d="M603.758,332.827a3.618,3.618,0,1,1-3.619-3.619A3.619,3.619,0,0,1,603.758,332.827Z" transform="translate(-565.936 -329.208)" fill="#6b99b0"/>
        </g>
        <g id="组_3362" data-name="组 3362" transform="translate(20.389 55.087)">
          <path id="路径_11057" data-name="路径 11057" d="M583.694,340.053a3.618,3.618,0,1,1-3.616-3.618A3.617,3.617,0,0,1,583.694,340.053Z" transform="translate(-576.459 -336.435)" fill="#6b99b0"/>
          <path id="路径_11058" data-name="路径 11058" d="M590.382,340.053a3.618,3.618,0,1,1-3.619-3.618A3.619,3.619,0,0,1,590.382,340.053Z" transform="translate(-572.951 -336.435)" fill="#6b99b0"/>
          <path id="路径_11059" data-name="路径 11059" d="M597.069,340.053a3.618,3.618,0,1,1-3.618-3.618A3.618,3.618,0,0,1,597.069,340.053Z" transform="translate(-569.444 -336.435)" fill="#6b99b0"/>
          <path id="路径_11060" data-name="路径 11060" d="M603.758,340.053a3.618,3.618,0,1,1-3.619-3.618A3.62,3.62,0,0,1,603.758,340.053Z" transform="translate(-565.936 -336.435)" fill="#6b99b0"/>
        </g>
      </g>
    </g>
    <g id="组_3365" data-name="组 3365" transform="translate(193.122 59.102) rotate(90)">
      <path id="路径_11033-2" data-name="路径 11033" d="M672.2,307.83a19.588,19.588,0,1,1-19.588-19.589A19.588,19.588,0,0,1,672.2,307.83Z" transform="translate(-633.02 -288.241)" fill="#8296ef"/>
      <path id="路径_11034-2" data-name="路径 11034" d="M657.39,333.345a19.582,19.582,0,0,0,14.868-32.332l-28.935,26.368A19.525,19.525,0,0,0,657.39,333.345Z" transform="translate(-637.802 -294.169)" fill="#fff"/>
    </g>
  </g>
</svg>
