<svg xmlns="http://www.w3.org/2000/svg" xmlns:xlink="http://www.w3.org/1999/xlink" width="320" height="213" viewBox="0 0 320 213">
  <defs>
    <clipPath id="clip-画板_2">
      <rect width="320" height="213"/>
    </clipPath>
  </defs>
  <g id="画板_2" data-name="画板 – 2" clip-path="url(#clip-画板_2)">
    <rect width="320" height="213" fill="#fff"/>
    <rect id="矩形_3182" data-name="矩形 3182" width="338.38" height="234.052" transform="translate(-8.416 -12.123)" fill="#ffcd6f"/>
    <path id="路径_11061" data-name="路径 11061" d="M102.19,209.65c.507,0,1.011.019,1.519.019A131.84,131.84,0,0,0,235.549,77.829c0-.563-.014-1.124-.021-1.685H102.19Z" transform="translate(-102.19 -76.144)" fill="#0c46c6"/>
    <circle id="椭圆_1086" data-name="椭圆 1086" cx="53.402" cy="53.402" r="53.402" transform="translate(-27.216 148.601)" fill="#0c46c6"/>
    <g id="组_3374" data-name="组 3374" transform="translate(-131.431 -56.374)">
      <g id="组_3373" data-name="组 3373" transform="translate(254.431 5.374)">
        <g id="组_3366" data-name="组 3366">
          <path id="路径_11062" data-name="路径 11062" d="M313.1,122.713a58.67,58.67,0,1,1,58.67-58.67A58.736,58.736,0,0,1,313.1,122.713Zm0-116.052a57.382,57.382,0,1,0,57.382,57.382A57.447,57.447,0,0,0,313.1,6.662Z" transform="translate(-254.431 -5.374)" fill="#05adee"/>
        </g>
        <g id="组_3367" data-name="组 3367" transform="translate(8.493 8.493)">
          <path id="路径_11063" data-name="路径 11063" d="M317.054,118.172A50.176,50.176,0,1,1,367.229,68,50.233,50.233,0,0,1,317.054,118.172Zm0-99.065A48.888,48.888,0,1,0,365.942,68,48.944,48.944,0,0,0,317.054,19.108Z" transform="translate(-266.877 -17.82)" fill="#05adee"/>
        </g>
        <g id="组_3368" data-name="组 3368" transform="translate(16.988 16.988)">
          <path id="路径_11064" data-name="路径 11064" d="M321.006,113.631a41.682,41.682,0,1,1,41.682-41.682A41.729,41.729,0,0,1,321.006,113.631Zm0-82.077a40.4,40.4,0,1,0,40.4,40.395A40.441,40.441,0,0,0,321.006,31.554Z" transform="translate(-279.324 -30.267)" fill="#05adee"/>
        </g>
        <g id="组_3369" data-name="组 3369" transform="translate(25.481 25.48)">
          <path id="路径_11065" data-name="路径 11065" d="M324.959,109.09A33.189,33.189,0,1,1,358.148,75.9,33.226,33.226,0,0,1,324.959,109.09Zm0-65.09a31.9,31.9,0,1,0,31.9,31.9A31.938,31.938,0,0,0,324.959,44Z" transform="translate(-291.77 -42.712)" fill="#05adee"/>
        </g>
        <g id="组_3370" data-name="组 3370" transform="translate(33.974 33.974)">
          <path id="路径_11066" data-name="路径 11066" d="M328.912,104.549a24.7,24.7,0,1,1,24.7-24.7A24.724,24.724,0,0,1,328.912,104.549Zm0-48.1a23.408,23.408,0,1,0,23.408,23.408A23.435,23.435,0,0,0,328.912,56.446Z" transform="translate(-304.216 -55.158)" fill="#05adee"/>
        </g>
        <g id="组_3371" data-name="组 3371" transform="translate(42.469 42.468)">
          <path id="路径_11067" data-name="路径 11067" d="M332.864,100.008a16.2,16.2,0,1,1,16.2-16.2A16.22,16.22,0,0,1,332.864,100.008Zm0-31.115a14.914,14.914,0,1,0,14.914,14.914A14.931,14.931,0,0,0,332.864,68.893Z" transform="translate(-316.663 -67.605)" fill="#05adee"/>
        </g>
        <g id="组_3372" data-name="组 3372" transform="translate(50.962 50.961)">
          <path id="路径_11068" data-name="路径 11068" d="M336.817,95.467a7.708,7.708,0,1,1,7.708-7.708A7.717,7.717,0,0,1,336.817,95.467Zm0-14.128a6.42,6.42,0,1,0,6.42,6.42A6.428,6.428,0,0,0,336.817,81.339Z" transform="translate(-329.109 -80.051)" fill="#05adee"/>
        </g>
      </g>
    </g>
    <g id="组_3375" data-name="组 3375" transform="translate(-13.907 128.151)">
      <g id="组_3373-2" data-name="组 3373" transform="translate(254.431 5.374)">
        <g id="组_3366-2" data-name="组 3366">
          <path id="路径_11062-2" data-name="路径 11062" d="M333.839,164.189a79.407,79.407,0,1,1,79.408-79.408A79.5,79.5,0,0,1,333.839,164.189Zm0-157.072A77.665,77.665,0,1,0,411.5,84.781,77.753,77.753,0,0,0,333.839,7.117Z" transform="translate(-254.431 -5.374)" fill="#05adee"/>
        </g>
        <g id="组_3367-2" data-name="组 3367" transform="translate(11.496 11.496)">
          <path id="路径_11063-2" data-name="路径 11063" d="M334.789,153.643A67.912,67.912,0,1,1,402.7,85.731,67.989,67.989,0,0,1,334.789,153.643Zm0-134.081a66.169,66.169,0,1,0,66.168,66.168A66.244,66.244,0,0,0,334.789,19.563Z" transform="translate(-266.877 -17.82)" fill="#05adee"/>
        </g>
        <g id="组_3368-2" data-name="组 3368" transform="translate(22.992 22.992)">
          <path id="路径_11064-2" data-name="路径 11064" d="M335.74,143.1a56.415,56.415,0,1,1,56.416-56.416A56.479,56.479,0,0,1,335.74,143.1Zm0-111.088a54.673,54.673,0,1,0,54.674,54.673A54.736,54.736,0,0,0,335.74,32.009Z" transform="translate(-279.324 -30.267)" fill="#05adee"/>
        </g>
        <g id="组_3369-2" data-name="组 3369" transform="translate(34.488 34.487)">
          <path id="路径_11065-2" data-name="路径 11065" d="M336.69,132.552a44.92,44.92,0,1,1,44.92-44.92A44.971,44.971,0,0,1,336.69,132.552Zm0-88.1a43.177,43.177,0,1,0,43.177,43.177A43.227,43.227,0,0,0,336.69,44.455Z" transform="translate(-291.77 -42.712)" fill="#05adee"/>
        </g>
        <g id="组_3370-2" data-name="组 3370" transform="translate(45.983 45.982)">
          <path id="路径_11066-2" data-name="路径 11066" d="M337.641,122.007a33.425,33.425,0,1,1,33.425-33.425A33.463,33.463,0,0,1,337.641,122.007Zm0-65.106a31.682,31.682,0,1,0,31.682,31.682A31.718,31.718,0,0,0,337.641,56.9Z" transform="translate(-304.216 -55.158)" fill="#05adee"/>
        </g>
        <g id="组_3371-2" data-name="组 3371" transform="translate(57.48 57.479)">
          <path id="路径_11067-2" data-name="路径 11067" d="M338.591,111.461a21.928,21.928,0,1,1,21.928-21.928A21.953,21.953,0,0,1,338.591,111.461Zm0-42.113a20.186,20.186,0,1,0,20.186,20.185A20.209,20.209,0,0,0,338.591,69.348Z" transform="translate(-316.663 -67.605)" fill="#05adee"/>
        </g>
        <g id="组_3372-2" data-name="组 3372" transform="translate(68.975 68.974)">
          <path id="路径_11068-2" data-name="路径 11068" d="M339.541,100.916a10.432,10.432,0,1,1,10.433-10.432A10.444,10.444,0,0,1,339.541,100.916Zm0-19.122a8.69,8.69,0,1,0,8.69,8.69A8.7,8.7,0,0,0,339.541,81.794Z" transform="translate(-329.109 -80.051)" fill="#05adee"/>
        </g>
      </g>
    </g>
    <g id="组_3377" data-name="组 3377" transform="translate(-255.058 -275.136)">
      <circle id="椭圆_1087" data-name="椭圆 1087" cx="27.749" cy="27.749" r="27.749" transform="translate(494.701 334.745) rotate(-53.698)" fill="#0c46c6"/>
      <g id="组_3376" data-name="组 3376" transform="translate(464.534 370.66)">
        <path id="路径_11069" data-name="路径 11069" d="M471.425,356.9a15.643,15.643,0,1,0,21.718,4.212A15.642,15.642,0,0,0,471.425,356.9Zm14.4,21.325a10.088,10.088,0,1,1,2.716-14A10.089,10.089,0,0,1,485.823,378.226Z" transform="translate(-464.534 -354.222)" fill="#fff"/>
      </g>
    </g>
    <g id="组_3382" data-name="组 3382" transform="translate(-221.177 -212.435)">
      <g id="组_3378" data-name="组 3378" transform="translate(372.329 372.384)">
        <path id="路径_11070" data-name="路径 11070" d="M380.334,374.633a2.249,2.249,0,1,1-2.249-2.249A2.249,2.249,0,0,1,380.334,374.633Z" transform="translate(-375.836 -372.384)" fill="#fff"/>
        <path id="路径_11071" data-name="路径 11071" d="M393.749,374.633a2.249,2.249,0,1,1-2.249-2.249A2.248,2.248,0,0,1,393.749,374.633Z" transform="translate(-376.713 -372.384)" fill="#fff"/>
      </g>
      <g id="组_3379" data-name="组 3379" transform="translate(359.791 384.941)">
        <path id="路径_11072" data-name="路径 11072" d="M366.919,388.069a2.249,2.249,0,1,1-2.249-2.25A2.249,2.249,0,0,1,366.919,388.069Z" transform="translate(-362.421 -385.819)" fill="#fff"/>
        <path id="路径_11073" data-name="路径 11073" d="M380.334,388.069a2.249,2.249,0,1,1-2.249-2.25A2.249,2.249,0,0,1,380.334,388.069Z" transform="translate(-363.298 -385.819)" fill="#fff"/>
        <path id="路径_11074" data-name="路径 11074" d="M393.749,388.069a2.249,2.249,0,1,1-2.249-2.25A2.248,2.248,0,0,1,393.749,388.069Z" transform="translate(-364.175 -385.819)" fill="#fff"/>
        <path id="路径_11075" data-name="路径 11075" d="M407.163,388.069a2.249,2.249,0,1,1-2.25-2.25A2.249,2.249,0,0,1,407.163,388.069Z" transform="translate(-365.051 -385.819)" fill="#fff"/>
      </g>
      <g id="组_3380" data-name="组 3380" transform="translate(334.715 397.499)">
        <path id="路径_11076" data-name="路径 11076" d="M340.09,401.5a2.249,2.249,0,1,1-2.249-2.249A2.249,2.249,0,0,1,340.09,401.5Z" transform="translate(-335.592 -399.255)" fill="#fff"/>
        <path id="路径_11077" data-name="路径 11077" d="M353.5,401.5a2.249,2.249,0,1,1-2.249-2.249A2.249,2.249,0,0,1,353.5,401.5Z" transform="translate(-336.469 -399.255)" fill="#fff"/>
        <path id="路径_11078" data-name="路径 11078" d="M366.919,401.5a2.249,2.249,0,1,1-2.249-2.249A2.249,2.249,0,0,1,366.919,401.5Z" transform="translate(-337.346 -399.255)" fill="#fff"/>
        <path id="路径_11079" data-name="路径 11079" d="M380.334,401.5a2.249,2.249,0,1,1-2.249-2.249A2.248,2.248,0,0,1,380.334,401.5Z" transform="translate(-338.222 -399.255)" fill="#fff"/>
        <path id="路径_11080" data-name="路径 11080" d="M393.749,401.5a2.249,2.249,0,1,1-2.249-2.249A2.248,2.248,0,0,1,393.749,401.5Z" transform="translate(-339.099 -399.255)" fill="#fff"/>
        <path id="路径_11081" data-name="路径 11081" d="M407.163,401.5a2.249,2.249,0,1,1-2.25-2.249A2.249,2.249,0,0,1,407.163,401.5Z" transform="translate(-339.976 -399.255)" fill="#fff"/>
        <path id="路径_11082" data-name="路径 11082" d="M420.577,401.5a2.249,2.249,0,1,1-2.249-2.249A2.248,2.248,0,0,1,420.577,401.5Z" transform="translate(-340.853 -399.255)" fill="#fff"/>
        <path id="路径_11083" data-name="路径 11083" d="M433.992,401.5a2.249,2.249,0,1,1-2.249-2.249A2.248,2.248,0,0,1,433.992,401.5Z" transform="translate(-341.729 -399.255)" fill="#fff"/>
      </g>
      <g id="组_3381" data-name="组 3381" transform="translate(322.177 410.056)">
        <circle id="椭圆_1088" data-name="椭圆 1088" cx="2.249" cy="2.249" r="2.249" transform="translate(0 0)" fill="#fff"/>
        <path id="路径_11084" data-name="路径 11084" d="M340.09,414.939a2.249,2.249,0,1,1-2.249-2.249A2.249,2.249,0,0,1,340.09,414.939Z" transform="translate(-323.054 -412.69)" fill="#fff"/>
        <path id="路径_11085" data-name="路径 11085" d="M353.5,414.939a2.249,2.249,0,1,1-2.249-2.249A2.25,2.25,0,0,1,353.5,414.939Z" transform="translate(-323.93 -412.69)" fill="#fff"/>
        <circle id="椭圆_1089" data-name="椭圆 1089" cx="2.249" cy="2.249" r="2.249" transform="translate(37.614 0)" fill="#fff"/>
        <circle id="椭圆_1090" data-name="椭圆 1090" cx="2.249" cy="2.249" r="2.249" transform="translate(50.152 0)" fill="#fff"/>
        <circle id="椭圆_1091" data-name="椭圆 1091" cx="2.249" cy="2.249" r="2.249" transform="translate(62.69 0)" fill="#fff"/>
        <path id="路径_11086" data-name="路径 11086" d="M407.163,414.939a2.249,2.249,0,1,1-2.25-2.249A2.25,2.25,0,0,1,407.163,414.939Z" transform="translate(-327.437 -412.69)" fill="#fff"/>
        <path id="路径_11087" data-name="路径 11087" d="M420.577,414.939a2.249,2.249,0,1,1-2.249-2.249A2.249,2.249,0,0,1,420.577,414.939Z" transform="translate(-328.314 -412.69)" fill="#fff"/>
        <path id="路径_11088" data-name="路径 11088" d="M433.992,414.939a2.249,2.249,0,1,1-2.249-2.249A2.249,2.249,0,0,1,433.992,414.939Z" transform="translate(-329.191 -412.69)" fill="#fff"/>
        <path id="路径_11089" data-name="路径 11089" d="M447.408,414.939a2.249,2.249,0,1,1-2.249-2.249A2.249,2.249,0,0,1,447.408,414.939Z" transform="translate(-330.068 -412.69)" fill="#fff"/>
      </g>
    </g>
    <g id="组_3388" data-name="组 3388" transform="translate(-108.794 -55.615)">
      <g id="组_3383" data-name="组 3383" transform="translate(140.794 105.615)">
        <path id="路径_11090" data-name="路径 11090" d="M145.027,107.732a2.116,2.116,0,1,1-2.117-2.117A2.117,2.117,0,0,1,145.027,107.732Z" transform="translate(-140.794 -105.615)" fill="#fff"/>
        <path id="路径_11091" data-name="路径 11091" d="M160.3,107.732a2.116,2.116,0,1,1-2.116-2.117A2.116,2.116,0,0,1,160.3,107.732Z" transform="translate(-138.997 -105.615)" fill="#fff"/>
        <path id="路径_11092" data-name="路径 11092" d="M175.566,107.732a2.117,2.117,0,1,1-2.117-2.117A2.117,2.117,0,0,1,175.566,107.732Z" transform="translate(-137.199 -105.615)" fill="#fff"/>
        <path id="路径_11093" data-name="路径 11093" d="M190.835,107.732a2.117,2.117,0,1,1-2.117-2.117A2.117,2.117,0,0,1,190.835,107.732Z" transform="translate(-135.402 -105.615)" fill="#fff"/>
        <path id="路径_11094" data-name="路径 11094" d="M206.1,107.732a2.116,2.116,0,1,1-2.117-2.117A2.117,2.117,0,0,1,206.1,107.732Z" transform="translate(-133.605 -105.615)" fill="#fff"/>
        <path id="路径_11095" data-name="路径 11095" d="M221.373,107.732a2.116,2.116,0,1,1-2.116-2.117A2.116,2.116,0,0,1,221.373,107.732Z" transform="translate(-131.807 -105.615)" fill="#fff"/>
        <path id="路径_11096" data-name="路径 11096" d="M236.643,107.732a2.117,2.117,0,1,1-2.117-2.117A2.117,2.117,0,0,1,236.643,107.732Z" transform="translate(-130.01 -105.615)" fill="#fff"/>
      </g>
      <g id="组_3384" data-name="组 3384" transform="translate(140.794 122.729)">
        <path id="路径_11097" data-name="路径 11097" d="M145.027,123.044a2.116,2.116,0,1,1-2.117-2.117A2.117,2.117,0,0,1,145.027,123.044Z" transform="translate(-140.794 -120.927)" fill="#fff"/>
        <path id="路径_11098" data-name="路径 11098" d="M160.3,123.044a2.116,2.116,0,1,1-2.116-2.117A2.116,2.116,0,0,1,160.3,123.044Z" transform="translate(-138.997 -120.927)" fill="#fff"/>
        <path id="路径_11099" data-name="路径 11099" d="M175.566,123.044a2.117,2.117,0,1,1-2.117-2.117A2.117,2.117,0,0,1,175.566,123.044Z" transform="translate(-137.199 -120.927)" fill="#fff"/>
        <path id="路径_11100" data-name="路径 11100" d="M190.835,123.044a2.117,2.117,0,1,1-2.117-2.117A2.117,2.117,0,0,1,190.835,123.044Z" transform="translate(-135.402 -120.927)" fill="#fff"/>
        <path id="路径_11101" data-name="路径 11101" d="M206.1,123.044a2.116,2.116,0,1,1-2.117-2.117A2.117,2.117,0,0,1,206.1,123.044Z" transform="translate(-133.605 -120.927)" fill="#fff"/>
        <path id="路径_11102" data-name="路径 11102" d="M221.373,123.044a2.116,2.116,0,1,1-2.116-2.117A2.116,2.116,0,0,1,221.373,123.044Z" transform="translate(-131.807 -120.927)" fill="#fff"/>
        <path id="路径_11103" data-name="路径 11103" d="M236.643,123.044a2.117,2.117,0,1,1-2.117-2.117A2.117,2.117,0,0,1,236.643,123.044Z" transform="translate(-130.01 -120.927)" fill="#fff"/>
      </g>
      <g id="组_3385" data-name="组 3385" transform="translate(140.794 139.844)">
        <path id="路径_11104" data-name="路径 11104" d="M145.027,138.356a2.116,2.116,0,1,1-2.117-2.117A2.117,2.117,0,0,1,145.027,138.356Z" transform="translate(-140.794 -136.239)" fill="#fff"/>
        <path id="路径_11105" data-name="路径 11105" d="M160.3,138.356a2.116,2.116,0,1,1-2.116-2.117A2.116,2.116,0,0,1,160.3,138.356Z" transform="translate(-138.997 -136.239)" fill="#fff"/>
        <path id="路径_11106" data-name="路径 11106" d="M175.566,138.356a2.117,2.117,0,1,1-2.117-2.117A2.117,2.117,0,0,1,175.566,138.356Z" transform="translate(-137.199 -136.239)" fill="#fff"/>
        <path id="路径_11107" data-name="路径 11107" d="M190.835,138.356a2.117,2.117,0,1,1-2.117-2.117A2.117,2.117,0,0,1,190.835,138.356Z" transform="translate(-135.402 -136.239)" fill="#fff"/>
        <path id="路径_11108" data-name="路径 11108" d="M206.1,138.356a2.116,2.116,0,1,1-2.117-2.117A2.117,2.117,0,0,1,206.1,138.356Z" transform="translate(-133.605 -136.239)" fill="#fff"/>
        <path id="路径_11109" data-name="路径 11109" d="M221.373,138.356a2.116,2.116,0,1,1-2.116-2.117A2.116,2.116,0,0,1,221.373,138.356Z" transform="translate(-131.807 -136.239)" fill="#fff"/>
        <path id="路径_11110" data-name="路径 11110" d="M236.643,138.356a2.117,2.117,0,1,1-2.117-2.117A2.117,2.117,0,0,1,236.643,138.356Z" transform="translate(-130.01 -136.239)" fill="#fff"/>
      </g>
      <g id="组_3386" data-name="组 3386" transform="translate(140.794 156.958)">
        <path id="路径_11111" data-name="路径 11111" d="M145.027,153.668a2.116,2.116,0,1,1-2.117-2.117A2.117,2.117,0,0,1,145.027,153.668Z" transform="translate(-140.794 -151.551)" fill="#fff"/>
        <path id="路径_11112" data-name="路径 11112" d="M160.3,153.668a2.116,2.116,0,1,1-2.116-2.117A2.116,2.116,0,0,1,160.3,153.668Z" transform="translate(-138.997 -151.551)" fill="#fff"/>
        <path id="路径_11113" data-name="路径 11113" d="M175.566,153.668a2.117,2.117,0,1,1-2.117-2.117A2.117,2.117,0,0,1,175.566,153.668Z" transform="translate(-137.199 -151.551)" fill="#fff"/>
        <path id="路径_11114" data-name="路径 11114" d="M190.835,153.668a2.117,2.117,0,1,1-2.117-2.117A2.117,2.117,0,0,1,190.835,153.668Z" transform="translate(-135.402 -151.551)" fill="#fff"/>
        <path id="路径_11115" data-name="路径 11115" d="M206.1,153.668a2.116,2.116,0,1,1-2.117-2.117A2.117,2.117,0,0,1,206.1,153.668Z" transform="translate(-133.605 -151.551)" fill="#fff"/>
        <path id="路径_11116" data-name="路径 11116" d="M221.373,153.668a2.116,2.116,0,1,1-2.116-2.117A2.116,2.116,0,0,1,221.373,153.668Z" transform="translate(-131.807 -151.551)" fill="#fff"/>
        <path id="路径_11117" data-name="路径 11117" d="M236.643,153.668a2.117,2.117,0,1,1-2.117-2.117A2.117,2.117,0,0,1,236.643,153.668Z" transform="translate(-130.01 -151.551)" fill="#fff"/>
      </g>
      <g id="组_3387" data-name="组 3387" transform="translate(140.794 174.073)">
        <circle id="椭圆_1092" data-name="椭圆 1092" cx="2.117" cy="2.117" r="2.117" fill="#fff"/>
        <path id="路径_11118" data-name="路径 11118" d="M160.3,168.98a2.116,2.116,0,1,1-2.116-2.116A2.116,2.116,0,0,1,160.3,168.98Z" transform="translate(-138.996 -166.863)" fill="#fff"/>
        <circle id="椭圆_1093" data-name="椭圆 1093" cx="2.117" cy="2.117" r="2.117" transform="translate(34.133)" fill="#fff"/>
        <path id="路径_11119" data-name="路径 11119" d="M190.835,168.98a2.117,2.117,0,1,1-2.117-2.116A2.117,2.117,0,0,1,190.835,168.98Z" transform="translate(-135.402 -166.863)" fill="#fff"/>
        <path id="路径_11120" data-name="路径 11120" d="M206.1,168.98a2.116,2.116,0,1,1-2.117-2.116A2.117,2.117,0,0,1,206.1,168.98Z" transform="translate(-133.604 -166.863)" fill="#fff"/>
        <path id="路径_11121" data-name="路径 11121" d="M221.373,168.98a2.116,2.116,0,1,1-2.116-2.116A2.116,2.116,0,0,1,221.373,168.98Z" transform="translate(-131.807 -166.863)" fill="#fff"/>
        <circle id="椭圆_1094" data-name="椭圆 1094" cx="2.117" cy="2.117" r="2.117" transform="translate(102.399)" fill="#fff"/>
      </g>
    </g>
    <path id="路径_11912" data-name="路径 11912" d="M102.19,155.82c.3,0,.6.011.907.011A78.681,78.681,0,0,0,181.778,77.15c0-.336-.008-.671-.013-1.006H102.19Z" transform="translate(-102.19 -76.144)" fill="#ffcd6f"/>
  </g>
</svg>
