<svg xmlns="http://www.w3.org/2000/svg" xmlns:xlink="http://www.w3.org/1999/xlink" width="620" height="375" viewBox="0 0 620 375">
  <defs>
    <clipPath id="clip-path">
      <rect id="矩形_3760" data-name="矩形 3760" width="620" height="375" transform="translate(901 281)"/>
    </clipPath>
  </defs>
  <g id="组_4508" data-name="组 4508" transform="translate(-901 -281)">
    <g id="蒙版组_121" data-name="蒙版组 121" clip-path="url(#clip-path)">
      <g id="组_4505" data-name="组 4505">
        <rect id="矩形_2664" data-name="矩形 2664" width="620" height="375" transform="translate(901 281)" fill="#f9746c"/>
        <g id="组_2266" data-name="组 2266" transform="translate(908.629 572.592) rotate(-60)">
          <g id="路径_11001" data-name="路径 11001" transform="translate(19.786 -0.365) rotate(45)" fill="none">
            <path d="M0,0,28.752.355l.355,27.523L.355,27.523Z" stroke="none"/>
            <path d="M 2.026266098022461 2.025157928466797 L 2.329471588134766 25.54692268371582 L 27.08019065856934 25.85232543945312 L 26.77698516845703 2.330560684204102 L 2.026266098022461 2.025157928466797 M -1.9073486328125e-06 1.9073486328125e-06 L 28.75167846679688 0.3547725677490234 L 29.10645866394043 27.87748146057129 L 0.3547782897949219 27.5227108001709 L -1.9073486328125e-06 1.9073486328125e-06 Z" stroke="none" fill="#172d72"/>
          </g>
          <g id="路径_11002" data-name="路径 11002" transform="translate(20.066 12.586) rotate(45)" fill="none">
            <path d="M0,0,28.752.355l.355,27.523L.355,27.523Z" stroke="none"/>
            <path d="M 2.026266098022461 2.025157928466797 L 2.329471588134766 25.54692268371582 L 27.08019065856934 25.85232543945312 L 26.77698516845703 2.330560684204102 L 2.026266098022461 2.025157928466797 M -1.9073486328125e-06 1.9073486328125e-06 L 28.75167846679688 0.3547725677490234 L 29.10645866394043 27.87748146057129 L 0.3547782897949219 27.5227108001709 L -1.9073486328125e-06 1.9073486328125e-06 Z" stroke="none" fill="#172d72"/>
          </g>
        </g>
        <g id="组_2323" data-name="组 2323" transform="matrix(-0.574, 0.819, -0.819, -0.574, 1223.051, 300.148)">
          <g id="组_2273" data-name="组 2273" transform="translate(0 0)">
            <g id="组_2268" data-name="组 2268" transform="translate(0 0)">
              <g id="组_2267" data-name="组 2267" transform="translate(0 0)">
                <path id="路径_10400" data-name="路径 10400" d="M1.547,3.1a1.6,1.6,0,0,1-1.1-.492,1.666,1.666,0,0,1-.473-1.12,1.521,1.521,0,0,1,.42-1.1A1.589,1.589,0,0,1,2.583.433a1.716,1.716,0,0,1,.474,1.13,1.525,1.525,0,0,1-.422,1.1A1.456,1.456,0,0,1,1.547,3.1Z" fill="#172d72"/>
              </g>
            </g>
            <g id="组_2270" data-name="组 2270" transform="translate(7.877 0.167)">
              <g id="组_2269" data-name="组 2269" transform="translate(0 0)">
                <path id="路径_10401" data-name="路径 10401" d="M70.886,3.2A1.475,1.475,0,0,1,72.4,1.667h0a1.647,1.647,0,0,1,1.585,1.612h0a1.475,1.475,0,0,1-1.511,1.538h0A1.661,1.661,0,0,1,70.886,3.2Zm-7.878-.188a1.475,1.475,0,0,1,1.511-1.538h0A1.649,1.649,0,0,1,66.1,3.091h0a1.476,1.476,0,0,1-1.511,1.538h0A1.661,1.661,0,0,1,63.008,3.017ZM55.13,2.828A1.471,1.471,0,0,1,56.641,1.29h0A1.654,1.654,0,0,1,58.226,2.9h0A1.481,1.481,0,0,1,56.715,4.44h0A1.655,1.655,0,0,1,55.13,2.828ZM47.251,2.64A1.471,1.471,0,0,1,48.763,1.1h0a1.654,1.654,0,0,1,1.585,1.612h0a1.481,1.481,0,0,1-1.511,1.538h0A1.655,1.655,0,0,1,47.251,2.64Zm-7.878-.188a1.469,1.469,0,0,1,1.5-1.538h0a1.655,1.655,0,0,1,1.593,1.612h0a1.482,1.482,0,0,1-1.519,1.538h0A1.654,1.654,0,0,1,39.373,2.452Zm-7.886-.189A1.474,1.474,0,0,1,33,.725h0a1.648,1.648,0,0,1,1.584,1.612h0a1.476,1.476,0,0,1-1.51,1.538h0A1.66,1.66,0,0,1,31.487,2.263Zm-7.878-.188A1.474,1.474,0,0,1,25.12.537h0A1.648,1.648,0,0,1,26.7,2.149h0a1.476,1.476,0,0,1-1.51,1.538h0A1.66,1.66,0,0,1,23.609,2.075ZM15.73,1.887A1.474,1.474,0,0,1,17.242.348h0a1.654,1.654,0,0,1,1.584,1.612h0A1.481,1.481,0,0,1,17.316,3.5h0A1.66,1.66,0,0,1,15.73,1.887ZM7.851,1.7A1.471,1.471,0,0,1,9.362.16h0a1.654,1.654,0,0,1,1.585,1.612h0A1.481,1.481,0,0,1,9.436,3.31h0A1.655,1.655,0,0,1,7.851,1.7ZM-.029,1.51A1.471,1.471,0,0,1,1.482-.028h0A1.653,1.653,0,0,1,3.067,1.584h0A1.48,1.48,0,0,1,1.556,3.122h0A1.655,1.655,0,0,1-.029,1.51Z" fill="#172d72"/>
              </g>
            </g>
            <g id="组_2272" data-name="组 2272" transform="translate(86.67 2.072)">
              <g id="组_2271" data-name="组 2271" transform="translate(0 0)">
                <path id="路径_10402" data-name="路径 10402" d="M1.556,3.1a1.6,1.6,0,0,1-1.1-.492,1.687,1.687,0,0,1-.484-1.12A1.537,1.537,0,0,1,.4.388a1.587,1.587,0,0,1,2.19.044,1.725,1.725,0,0,1,.482,1.13,1.532,1.532,0,0,1-.43,1.1A1.456,1.456,0,0,1,1.556,3.1Z" fill="#172d72"/>
              </g>
            </g>
          </g>
          <g id="组_2280" data-name="组 2280" transform="translate(0.204 8.668)">
            <g id="组_2275" data-name="组 2275" transform="translate(0 0)">
              <g id="组_2274" data-name="组 2274" transform="translate(0 0)">
                <path id="路径_10403" data-name="路径 10403" d="M1.547,3.1a1.636,1.636,0,0,1-1.1-.494A1.685,1.685,0,0,1-.029,1.49,1.533,1.533,0,0,1,.391.383,1.594,1.594,0,0,1,2.583.435a1.693,1.693,0,0,1,.474,1.128,1.528,1.528,0,0,1-.422,1.1A1.5,1.5,0,0,1,1.547,3.1Z" fill="#172d72"/>
              </g>
            </g>
            <g id="组_2277" data-name="组 2277" transform="translate(7.877 0.168)">
              <g id="组_2276" data-name="组 2276" transform="translate(0 0)">
                <path id="路径_10404" data-name="路径 10404" d="M70.886,3.2A1.475,1.475,0,0,1,72.4,1.667h0a1.647,1.647,0,0,1,1.585,1.612h0a1.476,1.476,0,0,1-1.511,1.54h0A1.662,1.662,0,0,1,70.886,3.2Zm-7.878-.188a1.475,1.475,0,0,1,1.511-1.538h0A1.653,1.653,0,0,1,66.1,3.091h0a1.481,1.481,0,0,1-1.511,1.54h0A1.662,1.662,0,0,1,63.008,3.017ZM55.13,2.828A1.471,1.471,0,0,1,56.641,1.29h0A1.654,1.654,0,0,1,58.226,2.9h0a1.482,1.482,0,0,1-1.511,1.54h0A1.656,1.656,0,0,1,55.13,2.828ZM47.251,2.64A1.471,1.471,0,0,1,48.763,1.1h0a1.654,1.654,0,0,1,1.585,1.612h0a1.482,1.482,0,0,1-1.511,1.54h0A1.656,1.656,0,0,1,47.251,2.64Zm-7.878-.188a1.469,1.469,0,0,1,1.5-1.538h0A1.647,1.647,0,0,1,42.46,2.525h0a1.476,1.476,0,0,1-1.511,1.54h0A1.654,1.654,0,0,1,39.373,2.452Zm-7.886-.189A1.474,1.474,0,0,1,33,.725h0a1.648,1.648,0,0,1,1.584,1.612h0a1.476,1.476,0,0,1-1.509,1.54h0A1.66,1.66,0,0,1,31.487,2.263Zm-7.878-.188A1.474,1.474,0,0,1,25.12.537h0A1.648,1.648,0,0,1,26.7,2.149h0a1.476,1.476,0,0,1-1.509,1.54h0A1.66,1.66,0,0,1,23.609,2.075ZM15.73,1.886A1.47,1.47,0,0,1,17.242.348h0A1.654,1.654,0,0,1,18.825,1.96h0A1.481,1.481,0,0,1,17.316,3.5h0A1.655,1.655,0,0,1,15.73,1.886ZM7.851,1.7A1.471,1.471,0,0,1,9.362.16h0a1.654,1.654,0,0,1,1.585,1.612h0a1.482,1.482,0,0,1-1.511,1.54h0A1.656,1.656,0,0,1,7.851,1.7ZM-.029,1.51A1.471,1.471,0,0,1,1.482-.028h0A1.653,1.653,0,0,1,3.067,1.584h0a1.481,1.481,0,0,1-1.511,1.54h0A1.656,1.656,0,0,1-.029,1.51Z" fill="#172d72"/>
              </g>
            </g>
            <g id="组_2279" data-name="组 2279" transform="translate(86.67 2.072)">
              <g id="组_2278" data-name="组 2278" transform="translate(0 0)">
                <path id="路径_10405" data-name="路径 10405" d="M1.556,3.1a1.626,1.626,0,0,1-1.1-.493,1.69,1.69,0,0,1-.484-1.12A1.549,1.549,0,0,1,.4.383a1.592,1.592,0,0,1,2.19.052,1.7,1.7,0,0,1,.482,1.128,1.535,1.535,0,0,1-.43,1.1A1.482,1.482,0,0,1,1.556,3.1Z" fill="#172d72"/>
              </g>
            </g>
          </g>
          <g id="组_2287" data-name="组 2287" transform="translate(0.391 17.069)">
            <g id="组_2282" data-name="组 2282" transform="translate(0 0)">
              <g id="组_2281" data-name="组 2281" transform="translate(0 0)">
                <path id="路径_10406" data-name="路径 10406" d="M1.564,3.095A1.649,1.649,0,0,1,.454,2.613a1.707,1.707,0,0,1-.482-1.13A1.543,1.543,0,0,1,.4.382,1.594,1.594,0,0,1,2.593.435a1.68,1.68,0,0,1,.474,1.122,1.54,1.54,0,0,1-.422,1.108A1.489,1.489,0,0,1,1.564,3.095Z" fill="#172d72"/>
              </g>
            </g>
            <g id="组_2284" data-name="组 2284" transform="translate(7.887 0.161)">
              <g id="组_2283" data-name="组 2283" transform="translate(0 0)">
                <path id="路径_10407" data-name="路径 10407" d="M70.886,3.2A1.479,1.479,0,0,1,72.4,1.667h0a1.652,1.652,0,0,1,1.585,1.612h0a1.47,1.47,0,0,1-1.511,1.538h0A1.654,1.654,0,0,1,70.886,3.2Zm-7.878-.188a1.479,1.479,0,0,1,1.511-1.538h0A1.658,1.658,0,0,1,66.1,3.091h0a1.474,1.474,0,0,1-1.511,1.538h0A1.654,1.654,0,0,1,63.008,3.017ZM55.13,2.828A1.474,1.474,0,0,1,56.641,1.29h0A1.659,1.659,0,0,1,58.226,2.9h0A1.475,1.475,0,0,1,56.715,4.44h0A1.649,1.649,0,0,1,55.13,2.828ZM47.251,2.64A1.474,1.474,0,0,1,48.763,1.1h0a1.659,1.659,0,0,1,1.585,1.612h0a1.475,1.475,0,0,1-1.511,1.538h0A1.649,1.649,0,0,1,47.251,2.64Zm-7.886-.189A1.479,1.479,0,0,1,40.875.913h0A1.652,1.652,0,0,1,42.46,2.525h0a1.47,1.47,0,0,1-1.511,1.538h0A1.654,1.654,0,0,1,39.365,2.451Zm-7.878-.188A1.478,1.478,0,0,1,33,.725h0a1.653,1.653,0,0,1,1.584,1.612h0a1.47,1.47,0,0,1-1.51,1.538h0A1.653,1.653,0,0,1,31.487,2.263Zm-7.878-.188A1.478,1.478,0,0,1,25.12.537h0A1.653,1.653,0,0,1,26.7,2.149h0a1.47,1.47,0,0,1-1.51,1.538h0A1.653,1.653,0,0,1,23.609,2.075ZM15.73,1.887A1.478,1.478,0,0,1,17.242.348h0A1.659,1.659,0,0,1,18.825,1.96h0A1.475,1.475,0,0,1,17.316,3.5h0A1.653,1.653,0,0,1,15.73,1.887ZM7.851,1.7A1.474,1.474,0,0,1,9.362.16h0a1.659,1.659,0,0,1,1.585,1.612h0A1.475,1.475,0,0,1,9.436,3.31h0A1.649,1.649,0,0,1,7.851,1.7ZM-.029,1.51A1.474,1.474,0,0,1,1.482-.028h0A1.658,1.658,0,0,1,3.067,1.584h0A1.474,1.474,0,0,1,1.556,3.122h0A1.649,1.649,0,0,1-.029,1.51Z" fill="#172d72"/>
              </g>
            </g>
            <g id="组_2286" data-name="组 2286" transform="translate(86.68 2.072)">
              <g id="组_2285" data-name="组 2285" transform="translate(0 0)">
                <path id="路径_10408" data-name="路径 10408" d="M1.556,3.095a1.62,1.62,0,0,1-1.1-.482,1.714,1.714,0,0,1-.484-1.13A1.537,1.537,0,0,1,.4.383a1.592,1.592,0,0,1,2.19.052,1.68,1.68,0,0,1,.474,1.122,1.54,1.54,0,0,1-.422,1.108A1.493,1.493,0,0,1,1.556,3.095Z" fill="#172d72"/>
              </g>
            </g>
          </g>
          <g id="组_2294" data-name="组 2294" transform="translate(0.595 25.729)">
            <g id="组_2289" data-name="组 2289" transform="translate(0 0)">
              <g id="组_2288" data-name="组 2288" transform="translate(0 0)">
                <path id="路径_10409" data-name="路径 10409" d="M1.564,3.1A1.651,1.651,0,0,1,.453,2.619,1.709,1.709,0,0,1-.029,1.492,1.562,1.562,0,0,1,.4.384,1.591,1.591,0,0,1,2.593.436a1.7,1.7,0,0,1,.474,1.13,1.508,1.508,0,0,1-.422,1.1A1.465,1.465,0,0,1,1.564,3.1Z" fill="#172d72"/>
              </g>
            </g>
            <g id="组_2291" data-name="组 2291" transform="translate(7.887 0.171)">
              <g id="组_2290" data-name="组 2290" transform="translate(0 0)">
                <path id="路径_10410" data-name="路径 10410" d="M70.886,3.2A1.474,1.474,0,0,1,72.4,1.667h0a1.646,1.646,0,0,1,1.585,1.612h0a1.474,1.474,0,0,1-1.511,1.536h0A1.66,1.66,0,0,1,70.886,3.2Zm-7.878-.188a1.471,1.471,0,0,1,1.511-1.538h0A1.652,1.652,0,0,1,66.1,3.091h0a1.479,1.479,0,0,1-1.511,1.536h0A1.655,1.655,0,0,1,63.008,3.017ZM55.13,2.828A1.47,1.47,0,0,1,56.641,1.29h0A1.653,1.653,0,0,1,58.226,2.9h0a1.48,1.48,0,0,1-1.511,1.536h0A1.654,1.654,0,0,1,55.13,2.828ZM47.251,2.64A1.47,1.47,0,0,1,48.763,1.1h0a1.653,1.653,0,0,1,1.585,1.612h0A1.48,1.48,0,0,1,48.837,4.25h0A1.654,1.654,0,0,1,47.251,2.64Zm-7.886-.189A1.474,1.474,0,0,1,40.875.913h0a1.654,1.654,0,0,1,1.593,1.612h0a1.481,1.481,0,0,1-1.519,1.536h0A1.659,1.659,0,0,1,39.365,2.451Zm-7.878-.188A1.473,1.473,0,0,1,33,.725h0a1.647,1.647,0,0,1,1.584,1.612h0a1.475,1.475,0,0,1-1.51,1.536h0A1.659,1.659,0,0,1,31.487,2.263Zm-7.878-.188A1.473,1.473,0,0,1,25.12.537h0A1.647,1.647,0,0,1,26.7,2.149h0a1.475,1.475,0,0,1-1.51,1.536h0A1.659,1.659,0,0,1,23.609,2.075Zm-7.878-.188A1.469,1.469,0,0,1,17.242.348h0A1.653,1.653,0,0,1,18.825,1.96h0A1.48,1.48,0,0,1,17.316,3.5h0A1.653,1.653,0,0,1,15.731,1.887ZM7.851,1.7A1.47,1.47,0,0,1,9.362.16h0a1.653,1.653,0,0,1,1.585,1.612h0A1.48,1.48,0,0,1,9.436,3.309h0A1.654,1.654,0,0,1,7.851,1.7ZM-.029,1.51A1.47,1.47,0,0,1,1.482-.028h0A1.652,1.652,0,0,1,3.067,1.584h0A1.479,1.479,0,0,1,1.556,3.12h0A1.654,1.654,0,0,1-.029,1.51Z" fill="#172d72"/>
              </g>
            </g>
            <g id="组_2293" data-name="组 2293" transform="translate(86.68 2.073)">
              <g id="组_2292" data-name="组 2292" transform="translate(0 0)">
                <path id="路径_10411" data-name="路径 10411" d="M1.556,3.1a1.622,1.622,0,0,1-1.1-.484A1.719,1.719,0,0,1-.029,1.491,1.529,1.529,0,0,1,.4.389a1.582,1.582,0,0,1,2.19.046,1.722,1.722,0,0,1,.482,1.13,1.528,1.528,0,0,1-.43,1.1A1.469,1.469,0,0,1,1.556,3.1Z" fill="#172d72"/>
              </g>
            </g>
          </g>
          <g id="组_2301" data-name="组 2301" transform="translate(0.789 33.602)">
            <g id="组_2296" data-name="组 2296" transform="translate(0 0)">
              <g id="组_2295" data-name="组 2295" transform="translate(0 0)">
                <path id="路径_10412" data-name="路径 10412" d="M1.547,3.1a1.639,1.639,0,0,1-1.1-.484A1.705,1.705,0,0,1-.029,1.485a1.532,1.532,0,0,1,.42-1.1A1.588,1.588,0,0,1,2.584.438a1.677,1.677,0,0,1,.474,1.122,1.547,1.547,0,0,1-.422,1.107A1.5,1.5,0,0,1,1.547,3.1Z" fill="#172d72"/>
              </g>
            </g>
            <g id="组_2298" data-name="组 2298" transform="translate(7.877 0.164)">
              <g id="组_2297" data-name="组 2297" transform="translate(0 0)">
                <path id="路径_10413" data-name="路径 10413" d="M70.886,3.205A1.479,1.479,0,0,1,72.4,1.667h0a1.652,1.652,0,0,1,1.585,1.612h0a1.471,1.471,0,0,1-1.511,1.538h0A1.655,1.655,0,0,1,70.886,3.205Zm-7.878-.188a1.475,1.475,0,0,1,1.511-1.538h0A1.653,1.653,0,0,1,66.1,3.091h0a1.472,1.472,0,0,1-1.511,1.538h0A1.651,1.651,0,0,1,63.008,3.017ZM55.13,2.829a1.474,1.474,0,0,1,1.511-1.538h0A1.659,1.659,0,0,1,58.226,2.9h0a1.476,1.476,0,0,1-1.511,1.538h0A1.65,1.65,0,0,1,55.13,2.829ZM47.251,2.64A1.475,1.475,0,0,1,48.763,1.1h0a1.659,1.659,0,0,1,1.585,1.612h0a1.476,1.476,0,0,1-1.511,1.538h0A1.65,1.65,0,0,1,47.251,2.64Zm-7.886-.189A1.481,1.481,0,0,1,40.884.914h0A1.65,1.65,0,0,1,42.46,2.526h0a1.469,1.469,0,0,1-1.5,1.538h0A1.657,1.657,0,0,1,39.365,2.452Zm-7.878-.188A1.478,1.478,0,0,1,33,.725h0a1.653,1.653,0,0,1,1.584,1.612h0a1.471,1.471,0,0,1-1.51,1.538h0A1.654,1.654,0,0,1,31.487,2.263Zm-7.878-.188A1.478,1.478,0,0,1,25.12.537h0A1.653,1.653,0,0,1,26.7,2.149h0a1.471,1.471,0,0,1-1.51,1.538h0A1.654,1.654,0,0,1,23.609,2.075ZM15.73,1.887A1.474,1.474,0,0,1,17.242.349h0a1.659,1.659,0,0,1,1.584,1.612h0A1.476,1.476,0,0,1,17.316,3.5h0A1.649,1.649,0,0,1,15.73,1.887ZM7.851,1.7A1.474,1.474,0,0,1,9.362.16h0a1.659,1.659,0,0,1,1.585,1.612h0A1.476,1.476,0,0,1,9.436,3.311h0A1.65,1.65,0,0,1,7.851,1.7ZM-.029,1.51a1.473,1.473,0,0,1,1.5-1.538h0A1.659,1.659,0,0,1,3.067,1.584h0A1.477,1.477,0,0,1,1.548,3.122h0A1.648,1.648,0,0,1-.029,1.51Z" fill="#172d72"/>
              </g>
            </g>
            <g id="组_2300" data-name="组 2300" transform="translate(86.67 2.072)">
              <g id="组_2299" data-name="组 2299" transform="translate(0 0)">
                <path id="路径_10414" data-name="路径 10414" d="M1.564,3.1A1.633,1.633,0,0,1,.455,2.613,1.71,1.71,0,0,1-.029,1.485,1.534,1.534,0,0,1,.4.385a1.586,1.586,0,0,1,2.19.052,1.676,1.676,0,0,1,.474,1.122,1.547,1.547,0,0,1-.422,1.107A1.5,1.5,0,0,1,1.564,3.1Z" fill="#172d72"/>
              </g>
            </g>
          </g>
          <g id="组_2308" data-name="组 2308" transform="translate(0.983 42.266)">
            <g id="组_2303" data-name="组 2303" transform="translate(0 0)">
              <g id="组_2302" data-name="组 2302" transform="translate(0 0)">
                <path id="路径_10415" data-name="路径 10415" d="M1.556,3.1a1.6,1.6,0,0,1-1.1-.492,1.692,1.692,0,0,1-.482-1.12A1.531,1.531,0,0,1,.4.389,1.584,1.584,0,0,1,2.593.435a1.705,1.705,0,0,1,.482,1.128,1.532,1.532,0,0,1-.43,1.1A1.469,1.469,0,0,1,1.556,3.1Z" fill="#172d72"/>
              </g>
            </g>
            <g id="组_2305" data-name="组 2305" transform="translate(7.887 0.17)">
              <g id="组_2304" data-name="组 2304" transform="translate(0 0)">
                <path id="路径_10416" data-name="路径 10416" d="M70.886,3.2A1.473,1.473,0,0,1,72.4,1.667h0a1.645,1.645,0,0,1,1.585,1.61h0a1.475,1.475,0,0,1-1.511,1.538h0A1.66,1.66,0,0,1,70.886,3.2Zm-7.878-.188a1.469,1.469,0,0,1,1.511-1.536h0A1.65,1.65,0,0,1,66.1,3.089h0a1.479,1.479,0,0,1-1.511,1.538h0A1.655,1.655,0,0,1,63.008,3.015ZM55.13,2.827A1.468,1.468,0,0,1,56.641,1.29h0A1.652,1.652,0,0,1,58.226,2.9h0a1.48,1.48,0,0,1-1.511,1.538h0A1.654,1.654,0,0,1,55.13,2.827Zm-7.878-.188A1.468,1.468,0,0,1,48.763,1.1h0a1.652,1.652,0,0,1,1.585,1.61h0A1.48,1.48,0,0,1,48.837,4.25h0A1.654,1.654,0,0,1,47.252,2.638ZM39.365,2.45A1.473,1.473,0,0,1,40.875.913h0a1.652,1.652,0,0,1,1.593,1.611h0a1.481,1.481,0,0,1-1.519,1.538h0A1.66,1.66,0,0,1,39.365,2.45Zm-7.878-.188A1.472,1.472,0,0,1,33,.725h0a1.646,1.646,0,0,1,1.583,1.61h0a1.475,1.475,0,0,1-1.51,1.538h0A1.659,1.659,0,0,1,31.487,2.261Zm-7.878-.188A1.472,1.472,0,0,1,25.12.537h0A1.646,1.646,0,0,1,26.7,2.147h0a1.475,1.475,0,0,1-1.51,1.538h0A1.659,1.659,0,0,1,23.609,2.073Zm-7.878-.188A1.467,1.467,0,0,1,17.242.348h0a1.651,1.651,0,0,1,1.584,1.61h0A1.48,1.48,0,0,1,17.316,3.5h0A1.653,1.653,0,0,1,15.731,1.885ZM7.851,1.7A1.468,1.468,0,0,1,9.362.16h0a1.652,1.652,0,0,1,1.585,1.61h0A1.48,1.48,0,0,1,9.436,3.309h0A1.654,1.654,0,0,1,7.851,1.7Zm-7.88-.188A1.468,1.468,0,0,1,1.482-.028h0a1.65,1.65,0,0,1,1.585,1.61h0A1.479,1.479,0,0,1,1.556,3.12h0A1.654,1.654,0,0,1-.029,1.508Z" fill="#172d72"/>
              </g>
            </g>
            <g id="组_2307" data-name="组 2307" transform="translate(86.688 2.073)">
              <g id="组_2306" data-name="组 2306" transform="translate(0 0)">
                <path id="路径_10417" data-name="路径 10417" d="M1.548,3.1a1.6,1.6,0,0,1-1.1-.492,1.665,1.665,0,0,1-.476-1.12A1.519,1.519,0,0,1,.395.389a1.576,1.576,0,0,1,2.19.052,1.667,1.667,0,0,1,.474,1.122,1.525,1.525,0,0,1-.422,1.1A1.456,1.456,0,0,1,1.548,3.1Z" fill="#172d72"/>
              </g>
            </g>
          </g>
          <g id="组_2315" data-name="组 2315" transform="translate(1.181 50.667)">
            <g id="组_2310" data-name="组 2310" transform="translate(0 0)">
              <g id="组_2309" data-name="组 2309" transform="translate(0 0)">
                <path id="路径_10418" data-name="路径 10418" d="M1.564,3.1a1.643,1.643,0,0,1-1.111-.49A1.693,1.693,0,0,1-.029,1.49,1.55,1.55,0,0,1,.4.381,1.6,1.6,0,0,1,2.593.434a1.688,1.688,0,0,1,.474,1.13,1.526,1.526,0,0,1-.422,1.1A1.5,1.5,0,0,1,1.564,3.1Z" fill="#172d72"/>
              </g>
            </g>
            <g id="组_2312" data-name="组 2312" transform="translate(7.887 0.168)">
              <g id="组_2311" data-name="组 2311" transform="translate(0 0)">
                <path id="路径_10419" data-name="路径 10419" d="M70.886,3.2A1.475,1.475,0,0,1,72.4,1.667h0a1.648,1.648,0,0,1,1.585,1.612h0a1.475,1.475,0,0,1-1.511,1.538h0A1.66,1.66,0,0,1,70.886,3.2Zm-7.878-.188a1.475,1.475,0,0,1,1.511-1.538h0A1.653,1.653,0,0,1,66.1,3.091h0a1.479,1.479,0,0,1-1.511,1.538h0A1.66,1.66,0,0,1,63.008,3.017ZM55.13,2.828A1.471,1.471,0,0,1,56.641,1.29h0A1.654,1.654,0,0,1,58.226,2.9h0A1.48,1.48,0,0,1,56.715,4.44h0A1.654,1.654,0,0,1,55.13,2.828ZM47.251,2.64A1.471,1.471,0,0,1,48.763,1.1h0a1.654,1.654,0,0,1,1.585,1.612h0a1.48,1.48,0,0,1-1.511,1.538h0A1.654,1.654,0,0,1,47.251,2.64Zm-7.886-.189A1.475,1.475,0,0,1,40.875.913h0A1.647,1.647,0,0,1,42.46,2.525h0a1.474,1.474,0,0,1-1.511,1.538h0A1.66,1.66,0,0,1,39.365,2.451Zm-7.878-.188A1.474,1.474,0,0,1,33,.725h0a1.648,1.648,0,0,1,1.584,1.612h0a1.475,1.475,0,0,1-1.51,1.538h0A1.659,1.659,0,0,1,31.487,2.263Zm-7.878-.188A1.474,1.474,0,0,1,25.12.537h0A1.648,1.648,0,0,1,26.7,2.149h0a1.475,1.475,0,0,1-1.51,1.538h0A1.659,1.659,0,0,1,23.609,2.075ZM15.73,1.887A1.47,1.47,0,0,1,17.242.348h0a1.654,1.654,0,0,1,1.584,1.612h0A1.48,1.48,0,0,1,17.316,3.5h0A1.653,1.653,0,0,1,15.73,1.887ZM7.851,1.7A1.471,1.471,0,0,1,9.362.16h0a1.654,1.654,0,0,1,1.585,1.612h0A1.48,1.48,0,0,1,9.436,3.31h0A1.654,1.654,0,0,1,7.851,1.7ZM-.029,1.51A1.471,1.471,0,0,1,1.482-.028h0A1.653,1.653,0,0,1,3.067,1.584h0A1.479,1.479,0,0,1,1.556,3.122h0A1.654,1.654,0,0,1-.029,1.51Z" fill="#172d72"/>
              </g>
            </g>
            <g id="组_2314" data-name="组 2314" transform="translate(86.68 2.072)">
              <g id="组_2313" data-name="组 2313" transform="translate(0 0)">
                <path id="路径_10420" data-name="路径 10420" d="M1.556,3.1a1.645,1.645,0,0,1-1.1-.49A1.687,1.687,0,0,1-.029,1.49,1.559,1.559,0,0,1,.4.381a1.6,1.6,0,0,1,2.19.052,1.7,1.7,0,0,1,.474,1.13,1.526,1.526,0,0,1-.422,1.1A1.5,1.5,0,0,1,1.556,3.1Z" fill="#172d72"/>
              </g>
            </g>
          </g>
          <g id="组_2322" data-name="组 2322" transform="translate(1.394 59.329)">
            <g id="组_2317" data-name="组 2317" transform="translate(0 0)">
              <g id="组_2316" data-name="组 2316" transform="translate(0 0)">
                <path id="路径_10421" data-name="路径 10421" d="M1.547,3.1a1.626,1.626,0,0,1-1.1-.485A1.676,1.676,0,0,1-.029,1.489a1.526,1.526,0,0,1,.42-1.1A1.578,1.578,0,0,1,2.584.441a1.683,1.683,0,0,1,.474,1.122,1.538,1.538,0,0,1-.422,1.105A1.476,1.476,0,0,1,1.547,3.1Z" fill="#172d72"/>
              </g>
            </g>
            <g id="组_2319" data-name="组 2319" transform="translate(7.877 0.169)">
              <g id="组_2318" data-name="组 2318" transform="translate(0 0)">
                <path id="路径_10422" data-name="路径 10422" d="M70.886,3.2A1.478,1.478,0,0,1,72.4,1.667h0a1.651,1.651,0,0,1,1.585,1.61h0a1.47,1.47,0,0,1-1.511,1.538h0A1.654,1.654,0,0,1,70.886,3.2Zm-7.878-.188a1.478,1.478,0,0,1,1.511-1.536h0A1.656,1.656,0,0,1,66.1,3.089h0a1.474,1.474,0,0,1-1.511,1.538h0A1.654,1.654,0,0,1,63.008,3.015ZM55.13,2.827A1.473,1.473,0,0,1,56.641,1.29h0A1.657,1.657,0,0,1,58.226,2.9h0a1.475,1.475,0,0,1-1.511,1.538h0A1.649,1.649,0,0,1,55.13,2.827Zm-7.878-.188A1.473,1.473,0,0,1,48.763,1.1h0a1.657,1.657,0,0,1,1.585,1.61h0A1.475,1.475,0,0,1,48.837,4.25h0A1.649,1.649,0,0,1,47.251,2.638ZM39.365,2.45A1.478,1.478,0,0,1,40.875.913h0a1.651,1.651,0,0,1,1.585,1.61h0a1.47,1.47,0,0,1-1.511,1.538h0A1.654,1.654,0,0,1,39.365,2.45Zm-7.878-.188A1.477,1.477,0,0,1,33,.725h0a1.651,1.651,0,0,1,1.583,1.61h0a1.47,1.47,0,0,1-1.51,1.538h0A1.653,1.653,0,0,1,31.487,2.262Zm-7.878-.188A1.477,1.477,0,0,1,25.12.537h0A1.651,1.651,0,0,1,26.7,2.147h0a1.47,1.47,0,0,1-1.51,1.538h0A1.653,1.653,0,0,1,23.609,2.073Zm-7.878-.188A1.477,1.477,0,0,1,17.242.348h0a1.657,1.657,0,0,1,1.584,1.61h0A1.475,1.475,0,0,1,17.316,3.5h0A1.653,1.653,0,0,1,15.731,1.885ZM7.851,1.7A1.473,1.473,0,0,1,9.362.16h0a1.657,1.657,0,0,1,1.585,1.61h0A1.475,1.475,0,0,1,9.436,3.309h0A1.649,1.649,0,0,1,7.851,1.7Zm-7.88-.188A1.473,1.473,0,0,1,1.482-.028h0a1.656,1.656,0,0,1,1.585,1.61h0A1.474,1.474,0,0,1,1.556,3.12h0A1.649,1.649,0,0,1-.029,1.508Z" fill="#172d72"/>
              </g>
            </g>
            <g id="组_2321" data-name="组 2321" transform="translate(86.67 2.075)">
              <g id="组_2320" data-name="组 2320" transform="translate(0 0)">
                <path id="路径_10423" data-name="路径 10423" d="M1.556,3.1a1.616,1.616,0,0,1-1.1-.485A1.7,1.7,0,0,1-.029,1.486,1.54,1.54,0,0,1,.4.386a1.584,1.584,0,0,1,2.19.052A1.692,1.692,0,0,1,3.075,1.56a1.544,1.544,0,0,1-.43,1.1A1.476,1.476,0,0,1,1.556,3.1Z" fill="#172d72"/>
              </g>
            </g>
          </g>
        </g>
        <g id="路径_11003" data-name="路径 11003" transform="translate(1354.539 302.664) rotate(-45)" fill="none" stroke-dasharray="6">
          <path d="M0,0,172.021,4.338,176.375,177,4.354,172.66Z" stroke="none"/>
          <path d="M 0 0 L 2.001907348632812 0.05047607421875 L 2.001907348632812 0.05047607421875 C 3.746109008789062 0.0944671630859375 5.99810791015625 0.1512603759765625 5.99810791015625 0.1512603759765625 L 5.947677612304688 2.150619506835938 L 2.052398681640625 2.052383422851562 L 2.140060424804688 5.528213500976562 L 0.1407012939453125 5.578628540039062 C 0.1407012939453125 5.578628540039062 0.090850830078125 3.602020263671875 0.0504913330078125 2.00189208984375 L 0.0504913330078125 2.00189208984375 L 0 0 Z M 11.99620056152344 0.302520751953125 C 11.99620056152344 0.302520751953125 13.59089660644531 0.3427276611328125 15.13577270507812 0.381683349609375 L 15.13578796386719 0.381683349609375 C 15.14712524414062 0.3819580078125 15.15829467773438 0.3822479248046875 15.16961669921875 0.382537841796875 L 15.17189025878906 0.3825836181640625 C 15.17573547363281 0.3826904296875 15.17974853515625 0.382781982421875 15.18357849121094 0.3828887939453125 L 15.19248962402344 0.3831024169921875 C 15.19285583496094 0.38311767578125 15.19288635253906 0.38311767578125 15.19325256347656 0.3831329345703125 L 17.99429321289062 0.453765869140625 L 17.94386291503906 2.453140258789062 L 11.94577026367188 2.3018798828125 L 11.99620056152344 0.302520751953125 Z M 23.99238586425781 0.6050262451171875 L 28.63548278808594 0.72210693359375 C 28.63703918457031 0.7221527099609375 28.63841247558594 0.7221832275390625 28.63998413085938 0.72222900390625 L 28.66798400878906 0.722930908203125 C 28.67448425292969 0.7230987548828125 28.68093872070312 0.7232513427734375 28.68740844726562 0.723419189453125 L 28.69102478027344 0.7235107421875 C 28.69932556152344 0.723724365234375 28.70748901367188 0.7239227294921875 28.71574401855469 0.7241363525390625 L 28.71983337402344 0.7242279052734375 C 28.73878479003906 0.7247161865234375 28.75753784179688 0.725189208984375 28.77619934082031 0.7256622314453125 L 28.77726745605469 0.725677490234375 C 28.79562377929688 0.7261505126953125 28.81349182128906 0.726593017578125 28.83157348632812 0.72705078125 L 28.83511352539062 0.727142333984375 C 29.51643371582031 0.74432373046875 29.990478515625 0.7562713623046875 29.990478515625 0.7562713623046875 L 29.94004821777344 2.755630493164062 L 23.94195556640625 2.6043701171875 L 23.99238586425781 0.605010986328125 Z M 35.98855590820312 0.9075469970703125 C 35.98855590820312 0.9075469970703125 41.98664855957031 1.058807373046875 41.98664855957031 1.058807373046875 L 41.93624877929688 3.05816650390625 L 35.93815612792969 2.906890869140625 L 35.98855590820312 0.9075469970703125 Z M 47.9847412109375 1.210052490234375 L 53.98284149169922 1.361297607421875 L 53.93243408203125 3.36065673828125 L 47.93434143066406 3.209426879882812 L 47.9847412109375 1.210037231445312 Z M 59.98093414306641 1.512557983398438 C 59.98093414306641 1.512557983398438 65.97903442382812 1.663833618164062 65.97903442382812 1.663833618164062 L 65.92860412597656 3.663177490234375 L 59.93053436279297 3.511917114257812 L 59.98093414306641 1.512557983398438 Z M 71.97712707519531 1.815078735351562 L 77.9752197265625 1.966339111328125 L 77.92478942871094 3.965713500976562 L 71.92669677734375 3.814437866210938 L 71.97712707519531 1.8150634765625 Z M 83.97332000732422 2.117584228515625 L 85.70391082763672 2.161224365234375 C 85.70407867431641 2.161239624023438 85.70419311523438 2.161239624023438 85.70436096191406 2.161239624023438 L 85.79326629638672 2.163482666015625 C 85.79326629638672 2.163482666015625 85.7933349609375 2.163482666015625 85.7933349609375 2.163482666015625 L 85.89924621582031 2.166152954101562 C 85.89976501464844 2.166168212890625 85.90013122558594 2.166183471679688 85.90065002441406 2.16619873046875 L 85.94111633300781 2.167205810546875 C 85.94180297851562 2.167236328125 85.942138671875 2.167236328125 85.94283294677734 2.167251586914062 L 85.94721984863281 2.167373657226562 C 85.9486083984375 2.167404174804688 85.94986724853516 2.167434692382812 85.95124816894531 2.167465209960938 L 85.95626831054688 2.1676025390625 C 85.96043395996094 2.167694091796875 85.96444702148438 2.167800903320312 85.96861267089844 2.16790771484375 L 85.97695922851562 2.168121337890625 C 85.98043060302734 2.168197631835938 85.98359680175781 2.168289184570312 85.98707580566406 2.168365478515625 L 85.98738098144531 2.168380737304688 C 85.989990234375 2.168441772460938 85.99245452880859 2.168502807617188 85.99506378173828 2.1685791015625 L 85.99739074707031 2.168624877929688 C 85.99843597412109 2.168655395507812 85.99955749511719 2.168685913085938 86.00060272216797 2.168716430664062 L 86.00647735595703 2.168853759765625 C 86.01101684570312 2.168975830078125 86.01582336425781 2.169097900390625 86.02036285400391 2.169204711914062 L 86.02204895019531 2.16925048828125 C 86.03811645507812 2.169662475585938 86.05381011962891 2.170059204101562 86.06995391845703 2.170455932617188 L 86.07237243652344 2.170516967773438 C 86.09413146972656 2.171066284179688 86.11592102050781 2.171615600585938 86.1378173828125 2.17218017578125 L 86.13954162597656 2.172210693359375 C 87.85752868652344 2.215545654296875 89.97141265869141 2.268844604492188 89.97141265869141 2.268844604492188 L 89.92098236083984 4.268203735351562 L 83.92288970947266 4.116943359375 L 83.97332000732422 2.117584228515625 Z M 95.96950531005859 2.42010498046875 C 95.96950531005859 2.42010498046875 97.19988250732422 2.451141357421875 98.54602813720703 2.485076904296875 L 98.55066680908203 2.485198974609375 C 98.55538177490234 2.485305786132812 98.56031799316406 2.485443115234375 98.56504058837891 2.485549926757812 L 98.56711578369141 2.485610961914062 C 98.5712890625 2.4857177734375 98.57548522949219 2.485824584960938 98.57966613769531 2.485931396484375 L 98.58553314208984 2.486068725585938 C 98.58734893798828 2.486114501953125 98.58952331542969 2.486175537109375 98.59133911132812 2.486221313476562 L 98.59278869628906 2.486251831054688 C 98.59406280517578 2.486282348632812 98.59525299072266 2.486312866210938 98.59651947021484 2.486343383789062 L 98.60261535644531 2.48651123046875 C 98.604248046875 2.486541748046875 98.60572814941406 2.486587524414062 98.60736846923828 2.486618041992188 L 101.9676055908203 2.571365356445312 L 101.9171752929688 4.570724487304688 L 95.91907501220703 4.419464111328125 L 95.96950531005859 2.42010498046875 Z M 107.9656753540039 2.722610473632812 L 113.9637680053711 2.873870849609375 L 113.9133605957031 4.87322998046875 L 107.9152679443359 4.722000122070312 L 107.9656753540039 2.722610473632812 Z M 119.9618682861328 3.025131225585938 C 119.9618682861328 3.025131225585938 125.9599609375 3.1763916015625 125.9599609375 3.1763916015625 L 125.909553527832 5.175750732421875 L 119.9114608764648 5.024490356445312 L 119.9618682861328 3.025131225585938 Z M 131.9580535888672 3.327651977539062 L 137.9561462402344 3.478897094726562 L 137.9057159423828 5.478256225585938 L 131.9076232910156 5.327011108398438 L 131.9580535888672 3.32763671875 Z M 143.9542541503906 3.630157470703125 C 143.9542541503906 3.630157470703125 149.9523468017578 3.781417846679688 149.9523468017578 3.781417846679688 L 149.9019165039062 5.780776977539062 L 143.90380859375 5.6295166015625 L 143.9542541503906 3.630157470703125 Z M 155.950439453125 3.93267822265625 C 155.950439453125 3.93267822265625 157.6369171142578 3.975204467773438 159.2212371826172 4.015151977539062 L 159.2232055664062 4.01519775390625 C 159.2243041992188 4.015228271484375 159.225341796875 4.0152587890625 159.2264251708984 4.015289306640625 L 159.2341003417969 4.015472412109375 C 159.2344665527344 4.015487670898438 159.2349700927734 4.0155029296875 159.2353210449219 4.0155029296875 L 159.2415466308594 4.015670776367188 C 159.2431945800781 4.015701293945312 159.2453155517578 4.015762329101562 159.2469482421875 4.01580810546875 L 159.2484588623047 4.015838623046875 C 159.2522888183594 4.01593017578125 159.2559814453125 4.016036987304688 159.2597961425781 4.016128540039062 L 159.3131256103516 4.017471313476562 C 159.3131256103516 4.017471313476562 159.3135528564453 4.017486572265625 159.3135528564453 4.017486572265625 L 161.9485321044922 4.08392333984375 L 161.8981018066406 6.083297729492188 L 155.9000091552734 5.932037353515625 L 155.950439453125 3.93267822265625 Z M 167.9466247558594 4.235183715820312 L 171.6811981201172 4.329360961914062 C 171.6870727539062 4.329513549804688 171.6927642822266 4.32965087890625 171.6985168457031 4.329803466796875 L 171.7025299072266 4.32989501953125 C 171.7062072753906 4.330001831054688 171.7097930908203 4.330078125 171.7134094238281 4.330169677734375 L 171.7153015136719 4.330230712890625 C 171.7188415527344 4.330307006835938 171.7224884033203 4.330398559570312 171.7259674072266 4.330490112304688 L 171.7294616699219 4.330581665039062 C 171.7329864501953 4.330673217773438 171.7363891601562 4.33074951171875 171.7398834228516 4.330841064453125 L 171.7412414550781 4.33087158203125 C 171.7447814941406 4.330963134765625 171.7483215332031 4.3310546875 171.7518005371094 4.331146240234375 L 171.7551116943359 4.331222534179688 C 171.7626953125 4.3314208984375 171.7700958251953 4.33160400390625 171.7773895263672 4.331787109375 L 171.7782440185547 4.331817626953125 C 171.7821350097656 4.3319091796875 171.7860412597656 4.332000732421875 171.7898406982422 4.332107543945312 L 171.7898559570312 4.332107543945312 C 171.7931823730469 4.332183837890625 171.7964477539062 4.332275390625 171.7996978759766 4.332351684570312 L 171.8027648925781 4.332427978515625 C 171.8060607910156 4.33251953125 171.8094177246094 4.332595825195312 171.8126525878906 4.332672119140625 L 171.8137054443359 4.33270263671875 C 171.814697265625 4.332733154296875 171.8156127929688 4.332748413085938 171.8166046142578 4.332778930664062 L 171.8266296386719 4.333038330078125 C 171.8267974853516 4.333038330078125 171.8269958496094 4.333038330078125 171.8271636962891 4.333038330078125 L 171.8303833007812 4.3331298828125 C 171.8316802978516 4.333160400390625 171.8329162597656 4.33319091796875 171.8341979980469 4.333221435546875 L 171.8354187011719 4.333251953125 C 171.8368072509766 4.333282470703125 171.8382110595703 4.333328247070312 171.839599609375 4.333358764648438 L 171.8413848876953 4.333404541015625 C 171.8421020507812 4.333419799804688 171.8428192138672 4.33343505859375 171.8435363769531 4.333450317382812 L 171.8520050048828 4.333663940429688 C 171.8531188964844 4.333694458007812 171.8541412353516 4.333724975585938 171.8552551269531 4.333755493164062 L 171.8570404052734 4.33380126953125 C 171.8578338623047 4.333816528320312 171.8586883544922 4.333847045898438 171.8594665527344 4.3338623046875 L 171.8615875244141 4.333908081054688 C 171.8628387451172 4.333938598632812 171.8640899658203 4.333969116210938 171.8653259277344 4.333999633789062 L 171.8660888671875 4.334030151367188 C 171.8856811523438 4.334518432617188 171.9035797119141 4.334976196289062 171.9196929931641 4.335372924804688 L 171.9199829101562 4.33538818359375 C 171.9848022460938 4.337020874023438 172.0205535888672 4.337921142578125 172.0205535888672 4.337921142578125 L 172.0205535888672 4.337921142578125 L 172.0205535888672 4.337921142578125 C 172.0205535888672 4.337921142578125 172.0212707519531 4.3660888671875 172.0225067138672 4.415542602539062 L 172.0225219726562 4.416030883789062 C 172.0225524902344 4.417190551757812 172.0225830078125 4.418319702148438 172.0226135253906 4.41949462890625 L 172.0226593017578 4.421188354492188 C 172.0229797363281 4.434158325195312 172.0233459472656 4.448516845703125 172.0237426757812 4.464080810546875 L 172.0237426757812 4.464248657226562 C 172.0241394042969 4.479766845703125 172.0245513916016 4.496536254882812 172.0250091552734 4.514419555664062 L 172.0250549316406 4.51629638671875 C 172.0252685546875 4.524795532226562 172.0254821777344 4.533599853515625 172.0257110595703 4.542587280273438 L 172.0257720947266 4.544631958007812 C 172.02587890625 4.549209594726562 172.0260009765625 4.553863525390625 172.026123046875 4.558547973632812 L 172.026123046875 4.558792114257812 C 172.0261840820312 4.56121826171875 172.0262451171875 4.5635986328125 172.0263061523438 4.566055297851562 L 172.0263214111328 4.566558837890625 C 172.0263366699219 4.5673828125 172.0263671875 4.568267822265625 172.0263824462891 4.569107055664062 L 172.0264282226562 4.570846557617188 C 172.0264434814453 4.571456909179688 172.0264587402344 4.572021484375 172.0264739990234 4.572616577148438 L 172.0265350341797 4.57525634765625 C 172.026611328125 4.578109741210938 172.0266876220703 4.5810546875 172.0267639160156 4.583953857421875 L 172.0269317626953 4.5906982421875 C 172.0269775390625 4.592681884765625 172.0270233154297 4.594635009765625 172.0270843505859 4.596633911132812 L 172.0271301269531 4.598770141601562 C 172.0271453857422 4.59942626953125 172.0271759033203 4.600189208984375 172.0271911621094 4.600860595703125 L 172.0272369384766 4.603012084960938 C 172.0272369384766 4.6031494140625 172.0272521972656 4.603378295898438 172.0272521972656 4.603500366210938 L 172.02734375 4.607345581054688 C 172.02734375 4.607421875 172.0273590087891 4.607589721679688 172.0273590087891 4.607681274414062 L 172.0287017822266 4.660797119140625 C 172.0287170410156 4.661483764648438 172.0287322998047 4.662124633789062 172.0287475585938 4.662811279296875 L 172.0292663574219 4.683639526367188 C 172.029296875 4.684616088867188 172.0293273925781 4.685516357421875 172.0293426513672 4.686492919921875 L 172.0295257568359 4.693466186523438 C 172.0295562744141 4.694671630859375 172.0295867919922 4.69598388671875 172.0296173095703 4.69720458984375 L 172.0297241210938 4.70159912109375 C 172.0297546386719 4.70245361328125 172.0297698974609 4.703170776367188 172.02978515625 4.704025268554688 L 172.0301818847656 4.719757080078125 C 172.0302124023438 4.72100830078125 172.0302429199219 4.72222900390625 172.0302734375 4.723480224609375 L 172.0303955078125 4.728408813476562 C 172.0304718017578 4.731063842773438 172.0305328369141 4.733779907226562 172.0306091308594 4.7364501953125 L 172.0306091308594 4.7366943359375 C 172.0306396484375 4.738052368164062 172.0306854248047 4.739547729492188 172.0307159423828 4.74090576171875 L 172.03076171875 4.742660522460938 C 172.0307769775391 4.743057250976562 172.0307769775391 4.743408203125 172.0307922363281 4.743789672851562 L 172.0311431884766 4.757583618164062 C 172.0311431884766 4.758026123046875 172.0311584472656 4.758453369140625 172.0311737060547 4.758895874023438 L 172.0690765380859 6.262069702148438 L 171.9719543457031 6.264511108398438 L 171.9701232910156 6.3372802734375 L 170.5284729003906 6.300918579101562 L 170.0697174072266 6.3125 L 170.0691375732422 6.289337158203125 L 167.8961944580078 6.234542846679688 L 167.9466247558594 4.235183715820312 Z M 172.2203369140625 12.26016235351562 L 172.3715972900391 18.25825500488281 L 170.3722229003906 18.30868530273438 L 170.2209625244141 12.31059265136719 L 172.2203369140625 12.26016235351562 Z M 172.5228424072266 24.25634765625 C 172.5228424072266 24.25634765625 172.6741027832031 30.25444030761719 172.6741027832031 30.25444030761719 L 170.6747436523438 30.30487060546875 L 170.5234832763672 24.30677795410156 L 172.5228424072266 24.25634765625 Z M 172.8253631591797 36.25253295898438 C 172.8253631591797 36.25253295898438 172.8325653076172 36.53831481933594 172.8438415527344 36.98527526855469 L 172.8439636230469 36.99003601074219 C 172.8441314697266 36.99693298339844 172.8443145751953 37.00376892089844 172.844482421875 37.01072692871094 L 172.8445434570312 37.01332092285156 C 172.8447113037109 37.0196533203125 172.8448791503906 37.02607727050781 172.8450317382812 37.03248596191406 L 172.8451995849609 37.03884887695312 C 172.8452758789062 37.04180908203125 172.8453369140625 37.04478454589844 172.8454132080078 37.04776000976562 L 172.8454895019531 37.05044555664062 C 172.8455505371094 37.05328369140625 172.8456268310547 37.05618286132812 172.845703125 37.05903625488281 L 172.8507537841797 37.25904846191406 C 172.8507843017578 37.26046752929688 172.8508148193359 37.26193237304688 172.8508605957031 37.26335144042969 L 172.9766235351562 42.25064086914062 L 170.9772644042969 42.30107116699219 L 170.8260040283203 36.30296325683594 L 172.8253631591797 36.25253295898438 Z M 173.1278839111328 48.24873352050781 L 173.1914215087891 50.76834106445312 C 173.1914672851562 50.77015686035156 173.1915130615234 50.77194213867188 173.1915588378906 50.77375030517578 L 173.1916046142578 50.77588653564453 C 173.2329406738281 52.41498565673828 173.2791290283203 54.246826171875 173.2791290283203 54.246826171875 L 171.2797698974609 54.29723358154297 L 171.1285095214844 48.29913330078125 L 173.1278839111328 48.24873352050781 Z M 173.4303894042969 60.24491882324219 C 173.4303894042969 60.24491882324219 173.5816497802734 66.24301910400391 173.5816497802734 66.24301910400391 L 171.5822906494141 66.29341888427734 L 171.4310302734375 60.29532623291016 L 173.4303894042969 60.24491882324219 Z M 173.73291015625 72.2410888671875 L 173.8841705322266 78.23918151855469 L 171.8847961425781 78.28961181640625 L 171.7335510253906 72.29151916503906 L 173.73291015625 72.2410888671875 Z M 174.0354309082031 84.23728179931641 L 174.1223449707031 87.68430328369141 C 174.1223754882812 87.68556976318359 174.1224060058594 87.68666839599609 174.1224365234375 87.68793487548828 L 174.1225891113281 87.69381713867188 C 174.1227111816406 87.69852447509766 174.1228179931641 87.70299530029297 174.1229400634766 87.70770263671875 L 174.1229858398438 87.70974731445312 C 174.1231231689453 87.71481323242188 174.1232452392578 87.71979522705078 174.1233673095703 87.72486114501953 L 174.1235046386719 87.73012542724609 C 174.15673828125 89.04814910888672 174.1866760253906 90.23537445068359 174.1866760253906 90.23537445068359 L 172.1873168945312 90.28580474853516 L 172.0360565185547 84.28770446777344 L 174.0354309082031 84.23728179931641 Z M 174.3379364013672 96.23346710205078 C 174.3379364013672 96.23346710205078 174.4229431152344 99.60462188720703 174.4655151367188 101.2922668457031 L 174.4656219482422 101.296760559082 C 174.4664306640625 101.3288497924805 174.4672241210938 101.3603210449219 174.4680023193359 101.3911514282227 L 174.468017578125 101.3914337158203 C 174.4680480957031 101.3930206298828 174.4680938720703 101.3945922851562 174.4681243896484 101.3961715698242 L 174.4682006835938 101.3989868164062 C 174.4682312011719 101.4004287719727 174.4682769775391 101.4018936157227 174.4683074951172 101.4033355712891 L 174.4683227539062 101.4040908813477 C 174.4686889648438 101.4181060791016 174.4690399169922 101.4321212768555 174.4693908691406 101.4458541870117 L 174.4694519042969 101.4484024047852 C 174.4696350097656 101.4559631347656 174.4698333740234 101.4637985229492 174.4700317382812 101.4712829589844 L 174.4700469970703 101.4724197387695 C 174.4701538085938 101.4763412475586 174.4702453613281 101.4800186157227 174.4703369140625 101.4839248657227 L 174.4703521728516 101.484260559082 C 174.4703826904297 101.4856491088867 174.4704284667969 101.4872360229492 174.470458984375 101.4886169433594 L 174.4707183837891 101.4989852905273 C 174.4707336425781 101.4991073608398 174.4707336425781 101.4991760253906 174.4707336425781 101.4992980957031 L 174.4708557128906 101.5040435791016 C 174.4709777832031 101.5090255737305 174.4710998535156 101.5140686035156 174.4712219238281 101.5190124511719 L 174.4712829589844 101.5213851928711 C 174.4713134765625 101.5222549438477 174.4713287353516 101.5232696533203 174.4713592529297 101.5241317749023 L 174.471435546875 101.5274505615234 C 174.4714660644531 101.528678894043 174.4714965820312 101.5296630859375 174.4715270996094 101.530891418457 L 174.4715576171875 101.5322418212891 C 174.4716033935547 101.5339584350586 174.4716491699219 101.5356216430664 174.4716949462891 101.5373306274414 L 174.4723205566406 101.5620727539062 C 174.4723358154297 101.5630340576172 174.4723663330078 101.5639419555664 174.4723815917969 101.5649032592773 L 174.4725036621094 101.5692901611328 C 174.4725036621094 101.5696487426758 174.4725036621094 101.5698471069336 174.4725189208984 101.5702056884766 L 174.4726409912109 101.5750885009766 C 174.4726409912109 101.5752105712891 174.47265625 101.5754013061523 174.47265625 101.5755157470703 L 174.4733581542969 101.6034240722656 C 174.4733581542969 101.6037826538086 174.4733734130859 101.6040191650391 174.4733734130859 101.6043701171875 L 174.4771270751953 101.7529602050781 C 174.4771423339844 101.7532730102539 174.4771423339844 101.753662109375 174.4771575927734 101.7539749145508 L 174.4891967773438 102.2315673828125 L 172.4898376464844 102.2819900512695 L 172.3385772705078 96.28389739990234 L 174.3379364013672 96.23346710205078 Z M 174.6404571533203 108.2296600341797 L 174.7917175292969 114.2277526855469 L 172.7923431396484 114.2781600952148 L 172.6410827636719 108.2800903320312 L 174.6404571533203 108.2296600341797 Z M 174.9429626464844 120.2258453369141 C 174.9429626464844 120.2258453369141 175.0942230224609 126.2239456176758 175.0942230224609 126.2239456176758 L 173.0948638916016 126.2743530273438 L 172.943603515625 120.2762603759766 L 174.9429626464844 120.2258453369141 Z M 175.2454833984375 132.2220458984375 C 175.2454833984375 132.2220458984375 175.2602386474609 132.8073272705078 175.2805480957031 133.6124877929688 L 175.2805786132812 133.6137084960938 C 175.2815856933594 133.6533508300781 175.2825927734375 133.6936798095703 175.2836151123047 133.7343444824219 L 175.28369140625 133.7372436523438 C 175.2841949462891 133.7572631835938 175.2846984863281 133.7772674560547 175.2852172851562 133.7975158691406 L 175.2852325439453 133.7984924316406 C 175.2857208251953 133.8177642822266 175.2862091064453 133.8370361328125 175.2866973876953 133.8565063476562 L 175.2870941162109 133.8719177246094 C 175.2875061035156 133.8884582519531 175.2879333496094 133.9051208496094 175.2883453369141 133.9218139648438 L 175.2886505126953 133.9335479736328 C 175.288818359375 133.9402465820312 175.2889709472656 133.9465637207031 175.2891387939453 133.9532623291016 L 175.289306640625 133.9596557617188 C 175.2894287109375 133.96484375 175.2895660400391 133.9700927734375 175.2897033691406 133.9753112792969 L 175.3967437744141 138.2201080322266 L 173.3973846435547 138.2705383300781 L 173.2461242675781 132.2724456787109 L 175.2454833984375 132.2220458984375 Z M 175.5480041503906 144.2182006835938 L 175.6104736328125 146.6955871582031 C 175.6105041503906 146.6968536376953 175.6105499267578 146.6985321044922 175.6105804443359 146.6997985839844 L 175.6106719970703 146.7035675048828 C 175.6107177734375 146.70556640625 175.6107635498047 146.7072143554688 175.6108093261719 146.7091979980469 L 175.6109619140625 146.7151489257812 C 175.6110534667969 146.7185668945312 175.6111450195312 146.7220611572266 175.6112213134766 146.7254943847656 L 175.6113128662109 146.7292022705078 C 175.6527557373047 148.3722839355469 175.6992492675781 150.21630859375 175.6992492675781 150.21630859375 L 173.6998901367188 150.2667236328125 L 173.5486297607422 144.2686309814453 L 175.5480041503906 144.2182006835938 Z M 175.8505096435547 156.2144012451172 C 175.8505096435547 156.2144012451172 176.0017700195312 162.2124938964844 176.0017700195312 162.2124938964844 L 174.0024108886719 162.2629241943359 L 173.8511505126953 156.2648315429688 L 175.8505096435547 156.2144012451172 Z M 176.1530303955078 168.2105865478516 L 176.3042907714844 174.2086791992188 L 174.3049163818359 174.2591094970703 L 174.1536712646484 168.2610168457031 L 176.1530303955078 168.2105865478516 Z M 167.2181701660156 174.7664489746094 L 173.2162628173828 174.9177093505859 L 173.1658477783203 176.9170684814453 C 173.1658477783203 176.9170684814453 171.2779541015625 176.8694610595703 169.6204528808594 176.8276672363281 L 169.5974426269531 176.8270874023438 C 169.5956420898438 176.8270416259766 169.5938568115234 176.8269958496094 169.5920562744141 176.8269500732422 L 169.5862579345703 176.8268127441406 C 169.5859069824219 176.8267974853516 169.5857543945312 176.8267974853516 169.5853881835938 176.8267822265625 L 169.5530548095703 176.8259735107422 C 169.5519866943359 176.8259429931641 169.5507659912109 176.8259124755859 169.5496978759766 176.8258819580078 L 167.1677398681641 176.7658233642578 L 167.2181701660156 174.7664489746094 Z M 155.2219848632812 174.4639434814453 L 161.2200775146484 174.6152038574219 L 161.1696472167969 176.6145629882812 L 158.0182952880859 176.5350952148438 C 158.0173797607422 176.5350646972656 158.0168304443359 176.5350494384766 158.0159149169922 176.5350341796875 L 158.0082244873047 176.5348358154297 C 158.0082244873047 176.5348358154297 158.0080413818359 176.5348358154297 158.0080413818359 176.5348358154297 L 157.9994506835938 176.5346221923828 C 157.9994506835938 176.5346221923828 157.9992370605469 176.5346069335938 157.9992370605469 176.5346069335938 L 157.9915466308594 176.534423828125 C 157.9908142089844 176.5343933105469 157.9899597167969 176.5343780517578 157.9892272949219 176.5343627929688 L 157.9821014404297 176.5341796875 C 157.9819183349609 176.5341796875 157.9817352294922 176.5341644287109 157.9815521240234 176.5341644287109 L 157.9736480712891 176.5339660644531 C 157.9730987548828 176.5339508056641 157.9727478027344 176.5339508056641 157.9721984863281 176.533935546875 L 157.9138031005859 176.5324554443359 C 157.9125366210938 176.5324249267578 157.9115905761719 176.5323944091797 157.9103088378906 176.5323638916016 L 157.9040069580078 176.5322113037109 C 157.9034576416016 176.5321960449219 157.9029083251953 176.5321807861328 157.9023590087891 176.5321655273438 L 157.8796844482422 176.5316009521484 C 156.4832458496094 176.4963836669922 155.1715545654297 176.4633026123047 155.1715545654297 176.4633026123047 L 155.2219848632812 174.4639434814453 Z M 143.2257995605469 174.1614227294922 L 149.2238922119141 174.3126831054688 L 149.1734619140625 176.3120422363281 C 149.1734619140625 176.3120422363281 148.0765533447266 176.2843780517578 146.8207855224609 176.2527160644531 L 146.8173980712891 176.2526397705078 C 146.8136291503906 176.2525329589844 146.8097839355469 176.25244140625 146.8060150146484 176.2523498535156 L 146.8008728027344 176.2522125244141 C 146.7967376708984 176.2521057128906 146.7923278808594 176.2519989013672 146.7881927490234 176.2518920898438 L 143.1753845214844 176.1607971191406 L 143.2257995605469 174.1614227294922 Z M 131.2295989990234 173.8589172363281 L 137.2276916503906 174.0101623535156 L 137.1772918701172 176.0095367431641 L 131.17919921875 175.8582763671875 L 131.2295989990234 173.8589172363281 Z M 119.2334365844727 173.556396484375 L 125.2315063476562 173.7076568603516 L 125.1811065673828 175.7070159912109 C 125.1811065673828 175.7070159912109 119.1830062866211 175.5557556152344 119.1830062866211 175.5557556152344 L 119.2334365844727 173.556396484375 Z M 107.2372436523438 173.2538757324219 L 113.2353363037109 173.4051361083984 L 113.1849136352539 175.4045104980469 L 107.1868133544922 175.2532501220703 L 107.2372436523438 173.2538757324219 Z M 95.24105834960938 172.9513702392578 L 101.2391510009766 173.1026306152344 L 101.188720703125 175.1019897460938 L 101.070426940918 175.0990142822266 C 101.0703201293945 175.0989990234375 101.0702209472656 175.0989990234375 101.0701065063477 175.0989990234375 L 101.0600128173828 175.0987396240234 C 101.0595474243164 175.0987396240234 101.0590515136719 175.0987243652344 101.0585861206055 175.0987091064453 L 101.0571975708008 175.0986785888672 C 101.0566101074219 175.0986633300781 101.0560607910156 175.0986480712891 101.0554656982422 175.0986328125 L 101.0501098632812 175.0984954833984 C 101.0489654541016 175.0984649658203 101.0478973388672 175.0984344482422 101.0467376708984 175.0984191894531 L 101.0458068847656 175.098388671875 C 101.0452575683594 175.0983734130859 101.0447616577148 175.0983581542969 101.0442123413086 175.0983428955078 L 101.0268325805664 175.0979156494141 C 101.0254669189453 175.0978698730469 101.0239486694336 175.0978393554688 101.022575378418 175.0978088378906 L 101.0210037231445 175.0977630615234 C 101.0196914672852 175.0977325439453 101.0184707641602 175.0977020263672 101.0171356201172 175.0976715087891 L 101.0128326416016 175.0975646972656 C 101.0118255615234 175.0975341796875 101.0109176635742 175.0975036621094 101.009895324707 175.0974884033203 L 101.0082855224609 175.0974426269531 C 101.006721496582 175.0973968505859 101.0051193237305 175.0973663330078 101.003532409668 175.0973205566406 L 101.0017242431641 175.0972747802734 C 100.9999237060547 175.0972290039062 100.9982833862305 175.0971832275391 100.9964599609375 175.0971374511719 L 100.9951553344727 175.0971069335938 C 100.9941711425781 175.0970916748047 100.9931869506836 175.0970611572266 100.9921951293945 175.0970306396484 L 100.9878387451172 175.096923828125 C 100.9874114990234 175.0969085693359 100.9869537353516 175.0969085693359 100.9865264892578 175.0968933105469 L 100.9851989746094 175.0968627929688 C 100.9844055175781 175.0968475341797 100.9836883544922 175.0968170166016 100.9828948974609 175.0968017578125 L 100.981689453125 175.0967712402344 C 100.979736328125 175.0967254638672 100.9777679443359 175.0966796875 100.9757843017578 175.0966186523438 L 100.9746398925781 175.0965881347656 C 100.9727249145508 175.0965423583984 100.9706878662109 175.0964965820312 100.96875 175.0964508056641 L 100.9677276611328 175.0964202880859 C 100.9668350219727 175.0963897705078 100.9659729003906 175.0963745117188 100.9650650024414 175.0963592529297 L 100.9635238647461 175.0963134765625 C 100.9631500244141 175.0962982177734 100.9627990722656 175.0962982177734 100.9624176025391 175.0962829589844 L 100.9570083618164 175.0961456298828 C 100.956169128418 175.0961303710938 100.9553833007812 175.0961151123047 100.9545364379883 175.0960845947266 L 100.9525909423828 175.0960388183594 C 100.9518203735352 175.0960235595703 100.951171875 175.0960083007812 100.9503936767578 175.0959777832031 L 100.9198455810547 175.09521484375 C 100.9188613891602 175.0951843261719 100.9177474975586 175.0951538085938 100.9167633056641 175.0951385498047 L 100.9115753173828 175.0950012207031 C 100.9104156494141 175.094970703125 100.9092559814453 175.0949401855469 100.908088684082 175.0949096679688 L 100.9069442749023 175.0948791503906 C 100.905029296875 175.0948333740234 100.9031143188477 175.0947875976562 100.9011764526367 175.0947418212891 L 100.8965225219727 175.0946197509766 C 100.8948287963867 175.0945739746094 100.8933563232422 175.0945434570312 100.8916473388672 175.0944976806641 L 100.8908615112305 175.094482421875 C 100.8883819580078 175.0944213867188 100.8857650756836 175.0943603515625 100.8832626342773 175.0942840576172 L 100.8825836181641 175.0942687988281 C 100.8799896240234 175.0942077636719 100.8774032592773 175.0941467285156 100.8747787475586 175.0940704345703 L 100.874626159668 175.0940704345703 C 100.8720855712891 175.0940093994141 100.8697280883789 175.0939483642578 100.8671646118164 175.0938873291016 L 100.864875793457 175.0938262939453 C 100.8540649414062 175.0935516357422 100.8429565429688 175.0932769775391 100.831672668457 175.0929870605469 L 100.8313293457031 175.0929870605469 C 100.8199462890625 175.0926971435547 100.8081588745117 175.0923919677734 100.7963027954102 175.0921020507812 L 100.7938613891602 175.092041015625 C 99.45780944824219 175.058349609375 95.19062805175781 174.9507293701172 95.19062805175781 174.9507293701172 L 95.24105834960938 172.9513702392578 Z M 83.24486541748047 172.6488494873047 L 89.24295806884766 172.8001098632812 L 89.19252777099609 174.7994689941406 C 89.19252777099609 174.7994689941406 87.69339752197266 174.7616729736328 86.19406127929688 174.7238616943359 L 86.09371185302734 174.7213287353516 C 86.09334564208984 174.7213287353516 86.09261322021484 174.7213134765625 86.09224700927734 174.7212982177734 L 83.19443511962891 174.6482238769531 L 83.24486541748047 172.6488494873047 Z M 71.24867248535156 172.3463439941406 L 77.24677276611328 172.4976196289062 L 77.19636535644531 174.4969635009766 L 72.94841003417969 174.3898468017578 C 72.94487762451172 174.3897552490234 72.94134521484375 174.3896636962891 72.93782043457031 174.3895721435547 L 72.92557525634766 174.3892669677734 C 72.92340087890625 174.3892059326172 72.92117309570312 174.38916015625 72.91899108886719 174.3890991210938 L 72.91596984863281 174.3890228271484 C 72.91445922851562 174.3889923095703 72.91310119628906 174.3889465332031 72.91159820556641 174.388916015625 L 72.89639282226562 174.3885345458984 C 72.88771820068359 174.3883056640625 72.87929534912109 174.3880920410156 72.87065124511719 174.3878784179688 L 72.86721801757812 174.3878021240234 C 72.86240386962891 174.3876800537109 72.85744476318359 174.3875427246094 72.85264587402344 174.3874206542969 L 72.82842254638672 174.3868103027344 C 72.82099914550781 174.3866271972656 72.81362152099609 174.3864440917969 72.80622863769531 174.3862609863281 L 72.80404663085938 174.3861999511719 C 72.79468536376953 174.3859710693359 72.78554534912109 174.3857421875 72.77622985839844 174.385498046875 L 72.77248382568359 174.3854064941406 C 72.76791381835938 174.3852844238281 72.76345825195312 174.3851776123047 72.75889587402344 174.3850708007812 L 72.75778961181641 174.3850402832031 C 72.75323486328125 174.3849182128906 72.74830627441406 174.3847961425781 72.74375915527344 174.3846740722656 L 72.7415771484375 174.3846282958984 C 72.73297119140625 174.3844146728516 72.72431945800781 174.3841857910156 72.71575164794922 174.3839721679688 L 72.70870971679688 174.3838043212891 C 72.70016479492188 174.3835754394531 72.69185638427734 174.3833770751953 72.683349609375 174.3831634521484 L 72.67922210693359 174.383056640625 C 72.67008209228516 174.3828277587891 72.66082000732422 174.3825836181641 72.65172576904297 174.3823547363281 L 72.64922332763672 174.3822937011719 C 72.62993621826172 174.3818054199219 72.61099243164062 174.3813323974609 72.59194183349609 174.380859375 L 72.58605194091797 174.3807067871094 C 71.7823486328125 174.3604431152344 71.19827270507812 174.345703125 71.19827270507812 174.345703125 L 71.24867248535156 172.3463439941406 Z M 59.25248718261719 172.0438232421875 L 65.25057983398438 172.1950836181641 L 65.20017242431641 174.1944427490234 C 65.20017242431641 174.1944427490234 59.20207977294922 174.0431823730469 59.20207977294922 174.0431823730469 L 59.25248718261719 172.0438232421875 Z M 47.25631713867188 171.7413330078125 L 53.25438690185547 171.8925628662109 L 53.20398712158203 173.8919525146484 L 47.20588684082031 173.7406768798828 L 47.25631713867188 171.7413330078125 Z M 35.2601318359375 171.4387969970703 L 41.25822448730469 171.5900573730469 L 41.20779418945312 173.5894165039062 C 41.20779418945312 173.5894165039062 35.20970153808594 173.4381561279297 35.20970153808594 173.4381561279297 L 35.2601318359375 171.4387969970703 Z M 23.26393127441406 171.1362762451172 L 29.26202392578125 171.2875366210938 L 29.21160888671875 173.2869262695312 L 23.2135009765625 173.1356506347656 L 23.26393127441406 171.1362762451172 Z M 11.26774597167969 170.8337860107422 L 17.26583862304688 170.9850463867188 L 17.21540832519531 172.9844055175781 L 15.17222595214844 172.9328765869141 C 15.17222595214844 172.9328765869141 15.17213439941406 172.9328765869141 15.17213439941406 172.9328765869141 L 15.14724731445312 172.9322357177734 C 15.14375305175781 172.9321594238281 15.14019775390625 172.9320678710938 15.13668823242188 172.9319763183594 L 15.13188171386719 172.9318542480469 C 15.13031005859375 172.9318084716797 15.12837219238281 172.9317626953125 15.12680053710938 172.9317321777344 L 15.10832214355469 172.9312591552734 C 15.10093688964844 172.9310760498047 15.09321594238281 172.9308776855469 15.08583068847656 172.9306945800781 L 15.08139038085938 172.9305877685547 C 15.07733154296875 172.9304809570312 15.07304382324219 172.9303741455078 15.06898498535156 172.9302673339844 L 15.06471252441406 172.9301605224609 C 15.06329345703125 172.9301300048828 15.06187438964844 172.9300842285156 15.06045532226562 172.9300537109375 L 15.04618835449219 172.9296875 C 15.045654296875 172.9296875 15.04495239257812 172.9296569824219 15.04443359375 172.9296417236328 L 15.03987121582031 172.9295349121094 C 15.03810119628906 172.9294891357422 15.03659057617188 172.929443359375 15.03482055664062 172.9294128417969 L 15.0289306640625 172.9292602539062 C 15.02522277832031 172.9291687011719 15.02114868164062 172.9290618896484 15.01742553710938 172.9289703369141 L 15.01565551757812 172.9289245605469 C 13.30390930175781 172.8857574462891 11.21731567382812 172.8331298828125 11.21731567382812 172.8331298828125 L 11.26774597167969 170.8337860107422 Z M 6.223983764648438 167.4767303466797 L 6.353408813476562 172.6096343994141 L 5.220352172851562 172.6382141113281 L 5.220352172851562 172.6382141113281 L 6.353408813476562 172.6096343994141 L 5.220352172851562 172.6382141113281 L 5.21923828125 172.6818695068359 C 5.21923828125 172.6818695068359 4.354049682617188 172.6600646972656 4.354049682617188 172.6600646972656 L 4.354049682617188 172.6600646972656 L 4.354049682617188 172.6600646972656 L 4.354049682617188 172.6600646972656 L 4.354049682617188 172.6600646972656 L 4.354049682617188 172.6600646972656 L 4.354049682617188 172.6600646972656 L 4.354049682617188 172.6600646972656 L 4.354049682617188 172.6600646972656 L 4.354049682617188 172.6600646972656 L 4.354049682617188 172.6600646972656 C 4.354049682617188 172.6600646972656 4.224624633789062 167.5271606445312 4.224624633789062 167.5271606445312 L 6.223983764648438 167.4767303466797 Z M 5.921463012695312 155.4805450439453 L 6.072723388671875 161.4786376953125 L 4.0733642578125 161.5290679931641 C 4.0733642578125 161.5290679931641 3.942626953125 156.3448333740234 3.924240112304688 155.6157989501953 L 3.924240112304688 155.61572265625 C 3.924163818359375 155.61279296875 3.924102783203125 155.6099853515625 3.924026489257812 155.6072082519531 L 3.923995971679688 155.6063385009766 C 3.923965454101562 155.6050720214844 3.923934936523438 155.6038665771484 3.923904418945312 155.6026306152344 L 3.923904418945312 155.6023559570312 C 3.923873901367188 155.6012420654297 3.923843383789062 155.6001281738281 3.923812866210938 155.5990447998047 L 3.923751831054688 155.5965576171875 C 3.9237060546875 155.594482421875 3.923660278320312 155.5924682617188 3.923599243164062 155.5904846191406 L 3.923599243164062 155.5902404785156 C 3.923538208007812 155.5878143310547 3.923477172851562 155.5854034423828 3.923416137695312 155.5831298828125 L 3.92340087890625 155.5824279785156 C 3.92327880859375 155.5777893066406 3.923171997070312 155.5735168457031 3.923080444335938 155.5694885253906 L 3.923065185546875 155.5691375732422 C 3.922866821289062 155.5610046386719 3.922683715820312 155.5541839599609 3.92254638671875 155.5485992431641 L 3.922500610351562 155.5470123291016 C 3.9224853515625 155.5460815429688 3.922454833984375 155.545166015625 3.922439575195312 155.5443267822266 L 3.922439575195312 155.5440673828125 C 3.92242431640625 155.5435028076172 3.922409057617188 155.5429534912109 3.922393798828125 155.5424194335938 L 3.922393798828125 155.5423431396484 C 3.922378540039062 155.5418090820312 3.92236328125 155.5412445068359 3.922348022460938 155.5407409667969 L 3.922348022460938 155.5406494140625 C 3.92230224609375 155.5386047363281 3.922256469726562 155.5368499755859 3.922210693359375 155.5354461669922 L 3.922210693359375 155.5352325439453 C 3.92218017578125 155.5338897705078 3.922149658203125 155.5328521728516 3.922134399414062 155.5321502685547 L 3.922134399414062 155.5319671630859 C 3.922119140625 155.5318603515625 3.922119140625 155.5317535400391 3.922119140625 155.5316619873047 L 3.922119140625 155.5315399169922 C 3.922119140625 155.5314483642578 3.922119140625 155.5313720703125 3.922103881835938 155.5313110351562 L 3.922103881835938 155.5311889648438 C 3.922103881835938 155.5311737060547 3.922103881835938 155.5311737060547 3.922103881835938 155.5311737060547 L 3.922103881835938 155.5310211181641 C 3.922103881835938 155.531005859375 3.922103881835938 155.531005859375 3.922103881835938 155.531005859375 L 3.922103881835938 155.5309753417969 L 5.921463012695312 155.4805450439453 Z M 5.61895751953125 143.4843444824219 L 5.770217895507812 149.4824523925781 L 3.770843505859375 149.5328674316406 L 3.619583129882812 143.5347747802734 L 5.61895751953125 143.4843444824219 Z M 5.316436767578125 131.4881896972656 L 5.467697143554688 137.4862823486328 L 3.468338012695312 137.5366821289062 C 3.468338012695312 137.5366821289062 3.31707763671875 131.5385894775391 3.31707763671875 131.5385894775391 L 5.316436767578125 131.4881896972656 Z M 5.013931274414062 119.4919891357422 L 5.165176391601562 125.4900894165039 L 3.165817260742188 125.5404968261719 L 3.014556884765625 119.5423965454102 L 5.013931274414062 119.4919891357422 Z M 4.711410522460938 107.4958038330078 L 4.8626708984375 113.493896484375 L 2.863311767578125 113.544303894043 C 2.863311767578125 113.544303894043 2.712051391601562 107.5462341308594 2.712051391601562 107.5462341308594 L 4.711410522460938 107.4958038330078 Z M 4.408905029296875 95.49961090087891 L 4.560150146484375 101.4977035522461 L 2.560791015625 101.5481338500977 L 2.560791015625 101.5481338500977 C 2.560791015625 101.5480422973633 2.560195922851562 101.5246658325195 2.559097290039062 101.4808197021484 L 2.559097290039062 101.4807052612305 C 2.558547973632812 101.4588088989258 2.557861328125 101.4317169189453 2.557052612304688 101.4000091552734 L 2.557052612304688 101.399772644043 C 2.556655883789062 101.384147644043 2.556228637695312 101.3673706054688 2.5557861328125 101.3495025634766 L 2.55572509765625 101.3469543457031 C 2.555511474609375 101.3388595581055 2.5552978515625 101.3303833007812 2.555084228515625 101.3218536376953 L 2.555007934570312 101.3185348510742 C 2.555007934570312 101.3185348510742 2.555007934570312 101.3184509277344 2.555007934570312 101.3184509277344 L 2.554885864257812 101.3141403198242 C 2.554855346679688 101.3126831054688 2.554824829101562 101.3112182617188 2.554779052734375 101.3097457885742 L 2.554733276367188 101.307991027832 C 2.554733276367188 101.3077621459961 2.554718017578125 101.3073654174805 2.554718017578125 101.3071365356445 L 2.554641723632812 101.304313659668 C 2.55462646484375 101.3033752441406 2.554595947265625 101.3025741577148 2.554580688476562 101.301628112793 L 2.553680419921875 101.2663497924805 C 2.553634643554688 101.2643508911133 2.5535888671875 101.2624664306641 2.553543090820312 101.2604446411133 L 2.553466796875 101.2577438354492 C 2.55340576171875 101.2554626464844 2.553359985351562 101.2533416748047 2.553298950195312 101.2510375976562 L 2.55328369140625 101.250373840332 C 2.553237915039062 101.2482376098633 2.553176879882812 101.2460327148438 2.553115844726562 101.2438812255859 L 2.552947998046875 101.2372360229492 C 2.552932739257812 101.2366256713867 2.55291748046875 101.2360076904297 2.552902221679688 101.2353973388672 L 2.552841186523438 101.2330474853516 C 2.552825927734375 101.2324371337891 2.552810668945312 101.2318801879883 2.55279541015625 101.2312622070312 L 2.552520751953125 101.2198028564453 C 2.552490234375 101.2191772460938 2.552474975585938 101.2184906005859 2.552459716796875 101.2178649902344 L 2.552444458007812 101.2168884277344 C 2.552398681640625 101.2152786254883 2.552352905273438 101.2136535644531 2.552322387695312 101.2120361328125 L 2.551971435546875 101.1983261108398 C 2.551925659179688 101.1964950561523 2.5518798828125 101.1947402954102 2.551834106445312 101.1928939819336 L 2.550247192382812 101.1300659179688 C 2.55023193359375 101.1294708251953 2.550216674804688 101.128662109375 2.550201416015625 101.1280670166016 L 2.5498046875 101.1122207641602 C 2.549774169921875 101.1110076904297 2.54974365234375 101.1097259521484 2.549713134765625 101.108512878418 L 2.409530639648438 95.55004119873047 L 4.408905029296875 95.49961090087891 Z M 4.10638427734375 83.50341796875 L 4.257644653320312 89.50151824951172 L 2.258270263671875 89.55194854736328 L 2.175933837890625 86.28668975830078 C 2.1759033203125 86.28522491455078 2.175872802734375 86.28416442871094 2.17584228515625 86.28269958496094 L 2.175384521484375 86.26500701904297 C 2.175308227539062 86.26190948486328 2.17523193359375 86.25863647460938 2.175155639648438 86.25553894042969 L 2.175064086914062 86.25220489501953 C 2.174942016601562 86.24728393554688 2.174819946289062 86.24232482910156 2.174697875976562 86.23740386962891 L 2.1746826171875 86.23689270019531 C 2.13970947265625 84.84970092773438 2.107025146484375 83.55384826660156 2.107025146484375 83.55384826660156 L 4.10638427734375 83.50341796875 Z M 3.803863525390625 71.50723266601562 L 3.955123901367188 77.50532531738281 L 1.955764770507812 77.55575561523438 C 1.955764770507812 77.55575561523438 1.907928466796875 75.65877532958984 1.866058349609375 73.99842834472656 L 1.865997314453125 73.99622344970703 C 1.86529541015625 73.96811676025391 1.864593505859375 73.94023895263672 1.8638916015625 73.91227722167969 L 1.863845825195312 73.91072845458984 C 1.863433837890625 73.89441680908203 1.863021850585938 73.87782287597656 1.86260986328125 73.86156463623047 L 1.862457275390625 73.85540771484375 C 1.862197875976562 73.84558868408203 1.861953735351562 73.83538818359375 1.8616943359375 73.82559204101562 L 1.861679077148438 73.82468414306641 C 1.861419677734375 73.81417846679688 1.86114501953125 73.80360412597656 1.860885620117188 73.79312133789062 L 1.860687255859375 73.78536987304688 C 1.860610961914062 73.7823486328125 1.86053466796875 73.77949523925781 1.860458374023438 73.77647399902344 L 1.860382080078125 73.77314758300781 C 1.860321044921875 73.77101898193359 1.860275268554688 73.76902770996094 1.860214233398438 73.76689910888672 L 1.860153198242188 73.76426696777344 C 1.860107421875 73.76267242431641 1.860076904296875 73.76106262207031 1.860031127929688 73.75946807861328 L 1.858169555664062 73.6854248046875 C 1.858154296875 73.68489837646484 1.858139038085938 73.68458557128906 1.858139038085938 73.68405914306641 L 1.858001708984375 73.67869567871094 C 1.85797119140625 73.67746734619141 1.857925415039062 73.67606353759766 1.857894897460938 73.67482757568359 L 1.80450439453125 71.55766296386719 L 3.803863525390625 71.50723266601562 Z M 3.501358032226562 59.51106262207031 L 3.652633666992188 65.50916290283203 L 1.653244018554688 65.55956268310547 L 1.594253540039062 63.22022247314453 C 1.59423828125 63.21914672851562 1.594207763671875 63.21805572509766 1.59417724609375 63.21697998046875 L 1.594100952148438 63.21405029296875 C 1.55169677734375 61.53187561035156 1.50201416015625 59.56147003173828 1.50201416015625 59.56147003173828 L 3.501358032226562 59.51106262207031 Z M 3.198837280273438 47.51487731933594 L 3.35009765625 53.51296997070312 L 1.350738525390625 53.56337738037109 C 1.350738525390625 53.56337738037109 1.199478149414062 47.56527709960938 1.199478149414062 47.56527709960938 L 3.198837280273438 47.51487731933594 Z M 2.896347045898438 35.5186767578125 L 3.047607421875 41.51678466796875 L 1.0482177734375 41.56719970703125 L 0.89697265625 35.56910705566406 L 2.896347045898438 35.5186767578125 Z M 2.59381103515625 23.52249145507812 L 2.745071411132812 29.52058410644531 L 0.7457275390625 29.57101440429688 C 0.7457275390625 29.57101440429688 0.5944671630859375 23.57292175292969 0.5944671630859375 23.57292175292969 L 2.59381103515625 23.52249145507812 Z M 2.29132080078125 11.52630615234375 L 2.442550659179688 17.52439880371094 L 0.4431915283203125 17.5748291015625 L 0.2919464111328125 11.57673645019531 L 2.29132080078125 11.52630615234375 Z" stroke="none" fill="#172d72"/>
        </g>
        <g id="组_2324" data-name="组 2324" transform="translate(1400.063 343.992)">
          <path id="路径_11004" data-name="路径 11004" d="M0,0,22.26.561l.561,22.26L.561,22.26Z" transform="translate(0 16.848) rotate(-45)" fill="#172d72"/>
        </g>
        <g id="路径_11005" data-name="路径 11005" transform="translate(1416.201 320.768) rotate(45)" fill="none">
          <path d="M2.5,2.5,54.915,1.183,53.593,53.593,1.183,54.915Z" stroke="none"/>
          <path d="M 52.86252593994141 3.235084533691406 L 4.455776214599609 4.455776214599609 L 3.235084533691406 52.86252593994141 L 51.6418342590332 51.6418342590332 L 52.86252593994141 3.235084533691406 M 54.9149169921875 1.182693481445312 L 53.59325408935547 53.59325408935547 L 1.182693481445312 54.9149169921875 L 2.504356384277344 2.504356384277344 L 54.9149169921875 1.182693481445312 Z" stroke="none" fill="#172d72"/>
        </g>
        <g id="组_2326" data-name="组 2326" transform="translate(1378.113 531.066)">
          <g id="路径_11006" data-name="路径 11006" transform="translate(130.294 82.93) rotate(45)" fill="none">
            <path d="M3.352,3.352,73.511,1.583,71.742,71.742,1.583,73.511Z" stroke="none"/>
            <path d="M 71.45860290527344 3.635589599609375 L 5.303848266601562 5.303848266601562 L 3.635589599609375 71.45860290527344 L 69.79034423828125 69.79034423828125 L 71.45860290527344 3.635589599609375 M 73.51099395751953 1.583198547363281 L 71.74177551269531 71.74177551269531 L 1.583198547363281 73.51099395751953 L 3.3524169921875 3.3524169921875 L 73.51099395751953 1.583198547363281 Z" stroke="none" fill="#172d72"/>
          </g>
          <g id="路径_11007" data-name="路径 11007" transform="translate(130.294 44.057) rotate(45)" fill="none">
            <path d="M5.807,5.807,127.327,2.742l-3.064,121.521L2.742,127.327Z" stroke="none"/>
            <path d="M 125.2747955322266 4.79461669921875 L 7.758102416992188 7.758102416992188 L 4.79461669921875 125.2747955322266 L 122.3113250732422 122.3113250732422 L 125.2747955322266 4.79461669921875 M 127.3271865844727 2.742225646972656 L 124.2627487182617 124.2627487182617 L 2.742225646972656 127.3271865844727 L 5.806678771972656 5.806678771972656 L 127.3271865844727 2.742225646972656 Z" stroke="none" fill="#172d72"/>
          </g>
          <g id="路径_11008" data-name="路径 11008" transform="translate(130.294 0) rotate(45)" fill="none">
            <path d="M8.588,8.588,188.319,4.056l-4.532,179.731L4.056,188.319Z" stroke="none"/>
            <path d="M 186.2664489746094 6.10821533203125 L 10.53959655761719 10.53959655761719 L 6.10821533203125 186.2664489746094 L 181.8350677490234 181.8350677490234 L 186.2664489746094 6.10821533203125 M 188.3188629150391 4.055801391601562 L 183.7865142822266 183.7865142822266 L 4.055801391601562 188.3188629150391 L 8.588150024414062 8.588150024414062 L 188.3188629150391 4.055801391601562 Z" stroke="none" fill="#172d72"/>
          </g>
        </g>
      </g>
    </g>
    <rect id="矩形_3763" data-name="矩形 3763" width="620" height="375" transform="translate(901 281)" opacity="0.1"/>
  </g>
</svg>
