<svg xmlns="http://www.w3.org/2000/svg" xmlns:xlink="http://www.w3.org/1999/xlink" width="705" height="689" viewBox="0 0 705 689">
  <defs>
    <clipPath id="clip-path">
      <rect id="Rectangle_2673" data-name="Rectangle 2673" width="705" height="689" rx="16" transform="translate(-2812 5825)" fill="none" stroke="#2e2fff" stroke-width="2"/>
    </clipPath>
  </defs>
  <g id="Group_2350" data-name="Group 2350" transform="translate(1502 -6591)">
    <g id="Group_2349" data-name="Group 2349">
      <g id="Group_2348" data-name="Group 2348" transform="translate(330 31)">
        <rect id="Rectangle_2664" data-name="Rectangle 2664" width="705" height="689" rx="16" transform="translate(-1832 6560)" fill="#3a3ac1"/>
        <g id="Mask_Group_25" data-name="Mask Group 25" transform="translate(980 735)" clip-path="url(#clip-path)">
          <g id="Group_2327" data-name="Group 2327" transform="translate(-4295 -431)">
            <g id="Group_2266" data-name="Group 2266" transform="translate(-4541.923 4587.148) rotate(-60)">
              <g id="Rectangle_2665" data-name="Rectangle 2665" transform="translate(1206 6292.331) rotate(45)" fill="none" stroke="#2c2c96" stroke-width="2">
                <rect width="44" height="44" stroke="none"/>
                <rect x="1" y="1" width="42" height="42" fill="none"/>
              </g>
              <g id="Rectangle_2666" data-name="Rectangle 2666" transform="translate(1206 6312.331) rotate(45)" fill="none" stroke="#2c2c96" stroke-width="2">
                <rect width="44" height="44" stroke="none"/>
                <rect x="1" y="1" width="42" height="42" fill="none"/>
              </g>
            </g>
            <g id="Group_2323" data-name="Group 2323" transform="matrix(-0.574, 0.819, -0.819, -0.574, 1775.55, 6279.59)">
              <g id="Group_2273" data-name="Group 2273" transform="translate(0.015)">
                <g id="Group_2268" data-name="Group 2268" transform="translate(0 0.033)">
                  <g id="Group_2267" data-name="Group 2267">
                    <path id="Path_10400" data-name="Path 10400" d="M103.212,297.247a2.447,2.447,0,0,1-1.722-4.164,2.429,2.429,0,0,1,4.164,1.722,2.455,2.455,0,0,1-.707,1.72A2.429,2.429,0,0,1,103.212,297.247Z" transform="translate(-100.785 -292.396)" fill="#2c2c96"/>
                  </g>
                </g>
                <g id="Group_2270" data-name="Group 2270" transform="translate(12.424)">
                  <g id="Group_2269" data-name="Group 2269">
                    <path id="Path_10401" data-name="Path 10401" d="M217.514,294.825a2.442,2.442,0,0,1,2.442-2.442h0a2.432,2.432,0,0,1,2.442,2.442h0a2.442,2.442,0,0,1-2.442,2.442h0A2.452,2.452,0,0,1,217.514,294.825Zm-12.427,0a2.442,2.442,0,0,1,2.442-2.442h0a2.434,2.434,0,0,1,2.442,2.442h0a2.444,2.444,0,0,1-2.442,2.442h0A2.452,2.452,0,0,1,205.087,294.825Zm-12.427,0a2.434,2.434,0,0,1,2.442-2.442h0a2.442,2.442,0,0,1,2.442,2.442h0a2.452,2.452,0,0,1-2.442,2.442h0A2.444,2.444,0,0,1,192.66,294.825Zm-12.427,0a2.434,2.434,0,0,1,2.442-2.442h0a2.442,2.442,0,0,1,2.442,2.442h0a2.452,2.452,0,0,1-2.442,2.442h0A2.444,2.444,0,0,1,180.233,294.825Zm-12.427,0a2.431,2.431,0,0,1,2.427-2.442h0a2.443,2.443,0,0,1,2.455,2.442h0a2.453,2.453,0,0,1-2.455,2.442h0A2.441,2.441,0,0,1,167.806,294.825Zm-12.44,0a2.44,2.44,0,0,1,2.442-2.442h0a2.433,2.433,0,0,1,2.439,2.442h0a2.443,2.443,0,0,1-2.439,2.442h0A2.45,2.45,0,0,1,155.367,294.825Zm-12.427,0a2.44,2.44,0,0,1,2.442-2.442h0a2.433,2.433,0,0,1,2.439,2.442h0a2.443,2.443,0,0,1-2.439,2.442h0A2.45,2.45,0,0,1,142.94,294.825Zm-12.427,0a2.44,2.44,0,0,1,2.442-2.442h0a2.442,2.442,0,0,1,2.439,2.442h0a2.451,2.451,0,0,1-2.439,2.442h0A2.45,2.45,0,0,1,130.513,294.825Zm-12.429,0a2.434,2.434,0,0,1,2.442-2.442h0a2.442,2.442,0,0,1,2.442,2.442h0a2.452,2.452,0,0,1-2.442,2.442h0A2.444,2.444,0,0,1,118.083,294.825Zm-12.429,0a2.434,2.434,0,0,1,2.442-2.442h0a2.44,2.44,0,0,1,2.442,2.442h0a2.45,2.45,0,0,1-2.442,2.442h0A2.444,2.444,0,0,1,105.654,294.825Z" transform="translate(-105.654 -292.383)" fill="#2c2c96"/>
                  </g>
                </g>
                <g id="Group_2272" data-name="Group 2272" transform="translate(136.711 0.033)">
                  <g id="Group_2271" data-name="Group 2271">
                    <path id="Path_10402" data-name="Path 10402" d="M156.8,297.247a2.416,2.416,0,0,1-1.72-.722,2.412,2.412,0,0,1,0-3.442,2.441,2.441,0,0,1,4.175,1.722,2.467,2.467,0,0,1-.72,1.72A2.429,2.429,0,0,1,156.8,297.247Z" transform="translate(-154.361 -292.396)" fill="#2c2c96"/>
                  </g>
                </g>
              </g>
              <g id="Group_2280" data-name="Group 2280" transform="translate(0.015 13.44)">
                <g id="Group_2275" data-name="Group 2275" transform="translate(0 0.032)">
                  <g id="Group_2274" data-name="Group 2274">
                    <path id="Path_10403" data-name="Path 10403" d="M103.212,302.517a2.456,2.456,0,0,1-1.722-4.177,2.545,2.545,0,0,1,3.458,0,2.451,2.451,0,0,1-1.735,4.177Z" transform="translate(-100.785 -297.662)" fill="#2c2c96"/>
                  </g>
                </g>
                <g id="Group_2277" data-name="Group 2277" transform="translate(12.424)">
                  <g id="Group_2276" data-name="Group 2276">
                    <path id="Path_10404" data-name="Path 10404" d="M217.514,300.092a2.442,2.442,0,0,1,2.442-2.442h0a2.432,2.432,0,0,1,2.442,2.442h0a2.443,2.443,0,0,1-2.442,2.445h0A2.453,2.453,0,0,1,217.514,300.092Zm-12.427,0a2.442,2.442,0,0,1,2.442-2.442h0a2.44,2.44,0,0,1,2.442,2.442h0a2.451,2.451,0,0,1-2.442,2.445h0A2.453,2.453,0,0,1,205.087,300.092Zm-12.427,0a2.434,2.434,0,0,1,2.442-2.442h0a2.442,2.442,0,0,1,2.442,2.442h0a2.453,2.453,0,0,1-2.442,2.445h0A2.444,2.444,0,0,1,192.66,300.092Zm-12.427,0a2.434,2.434,0,0,1,2.442-2.442h0a2.442,2.442,0,0,1,2.442,2.442h0a2.453,2.453,0,0,1-2.442,2.445h0A2.444,2.444,0,0,1,180.233,300.092Zm-12.427,0a2.431,2.431,0,0,1,2.427-2.442h0a2.432,2.432,0,0,1,2.442,2.442h0a2.443,2.443,0,0,1-2.442,2.445h0A2.441,2.441,0,0,1,167.806,300.092Zm-12.44,0a2.44,2.44,0,0,1,2.442-2.442h0a2.433,2.433,0,0,1,2.439,2.442h0a2.444,2.444,0,0,1-2.439,2.445h0A2.451,2.451,0,0,1,155.367,300.092Zm-12.427,0a2.44,2.44,0,0,1,2.442-2.442h0a2.433,2.433,0,0,1,2.439,2.442h0a2.444,2.444,0,0,1-2.439,2.445h0A2.451,2.451,0,0,1,142.94,300.092Zm-12.427,0a2.432,2.432,0,0,1,2.442-2.442h0a2.442,2.442,0,0,1,2.439,2.442h0a2.452,2.452,0,0,1-2.439,2.445h0A2.443,2.443,0,0,1,130.513,300.092Zm-12.429,0a2.434,2.434,0,0,1,2.442-2.442h0a2.442,2.442,0,0,1,2.442,2.442h0a2.453,2.453,0,0,1-2.442,2.445h0A2.444,2.444,0,0,1,118.083,300.092Zm-12.429,0a2.434,2.434,0,0,1,2.442-2.442h0a2.44,2.44,0,0,1,2.442,2.442h0a2.451,2.451,0,0,1-2.442,2.445h0A2.444,2.444,0,0,1,105.654,300.092Z" transform="translate(-105.654 -297.65)" fill="#2c2c96"/>
                  </g>
                </g>
                <g id="Group_2279" data-name="Group 2279" transform="translate(136.711 0.032)">
                  <g id="Group_2278" data-name="Group 2278">
                    <path id="Path_10405" data-name="Path 10405" d="M156.8,302.517a2.47,2.47,0,0,1-2.442-2.445,2.5,2.5,0,0,1,.722-1.733,2.541,2.541,0,0,1,3.455,0,2.451,2.451,0,0,1-1.735,4.177Z" transform="translate(-154.361 -297.662)" fill="#2c2c96"/>
                  </g>
                </g>
              </g>
              <g id="Group_2287" data-name="Group 2287" transform="translate(0 26.454)">
                <g id="Group_2282" data-name="Group 2282" transform="translate(0 0.042)">
                  <g id="Group_2281" data-name="Group 2281">
                    <path id="Path_10406" data-name="Path 10406" d="M103.234,307.608a2.436,2.436,0,0,1-1.735-4.164,2.544,2.544,0,0,1,3.458,0,2.436,2.436,0,0,1-1.722,4.164Z" transform="translate(-100.779 -302.766)" fill="#2c2c96"/>
                  </g>
                </g>
                <g id="Group_2284" data-name="Group 2284" transform="translate(12.44)">
                  <g id="Group_2283" data-name="Group 2283">
                    <path id="Path_10407" data-name="Path 10407" d="M217.514,305.192a2.449,2.449,0,0,1,2.442-2.442h0a2.439,2.439,0,0,1,2.442,2.442h0a2.432,2.432,0,0,1-2.442,2.442h0A2.442,2.442,0,0,1,217.514,305.192Zm-12.427,0a2.449,2.449,0,0,1,2.442-2.442h0a2.447,2.447,0,0,1,2.442,2.442h0a2.441,2.441,0,0,1-2.442,2.442h0A2.442,2.442,0,0,1,205.087,305.192Zm-12.427,0a2.44,2.44,0,0,1,2.442-2.442h0a2.449,2.449,0,0,1,2.442,2.442h0a2.442,2.442,0,0,1-2.442,2.442h0A2.434,2.434,0,0,1,192.66,305.192Zm-12.427,0a2.44,2.44,0,0,1,2.442-2.442h0a2.449,2.449,0,0,1,2.442,2.442h0a2.442,2.442,0,0,1-2.442,2.442h0A2.434,2.434,0,0,1,180.233,305.192Zm-12.44,0a2.448,2.448,0,0,1,2.439-2.442h0a2.439,2.439,0,0,1,2.442,2.442h0a2.432,2.432,0,0,1-2.442,2.442h0A2.442,2.442,0,0,1,167.794,305.192Zm-12.427,0a2.447,2.447,0,0,1,2.442-2.442h0a2.44,2.44,0,0,1,2.439,2.442h0a2.433,2.433,0,0,1-2.439,2.442h0A2.441,2.441,0,0,1,155.367,305.192Zm-12.427,0a2.447,2.447,0,0,1,2.442-2.442h0a2.44,2.44,0,0,1,2.439,2.442h0a2.433,2.433,0,0,1-2.439,2.442h0A2.44,2.44,0,0,1,142.94,305.192Zm-12.427,0a2.447,2.447,0,0,1,2.442-2.442h0a2.448,2.448,0,0,1,2.439,2.442h0a2.442,2.442,0,0,1-2.439,2.442h0A2.44,2.44,0,0,1,130.513,305.192Zm-12.429,0a2.44,2.44,0,0,1,2.442-2.442h0a2.449,2.449,0,0,1,2.442,2.442h0a2.442,2.442,0,0,1-2.442,2.442h0A2.434,2.434,0,0,1,118.083,305.192Zm-12.429,0a2.44,2.44,0,0,1,2.442-2.442h0a2.447,2.447,0,0,1,2.442,2.442h0a2.441,2.441,0,0,1-2.442,2.442h0A2.434,2.434,0,0,1,105.654,305.192Z" transform="translate(-105.654 -302.75)" fill="#2c2c96"/>
                  </g>
                </g>
                <g id="Group_2286" data-name="Group 2286" transform="translate(136.726 0.042)">
                  <g id="Group_2285" data-name="Group 2285">
                    <path id="Path_10408" data-name="Path 10408" d="M156.8,307.608a2.455,2.455,0,0,1-1.72-.707,2.511,2.511,0,0,1-.722-1.735,2.476,2.476,0,0,1,.722-1.722,2.541,2.541,0,0,1,3.455,0,2.468,2.468,0,0,1,0,3.458A2.491,2.491,0,0,1,156.8,307.608Z" transform="translate(-154.361 -302.766)" fill="#2c2c96"/>
                  </g>
                </g>
              </g>
              <g id="Group_2294" data-name="Group 2294" transform="translate(0 39.896)">
                <g id="Group_2289" data-name="Group 2289" transform="translate(0 0.027)">
                  <g id="Group_2288" data-name="Group 2288">
                    <path id="Path_10409" data-name="Path 10409" d="M103.234,312.883a2.443,2.443,0,0,1-1.735-4.175,2.539,2.539,0,0,1,3.458,0,2.491,2.491,0,0,1,.707,1.735,2.439,2.439,0,0,1-2.429,2.439Z" transform="translate(-100.779 -308.029)" fill="#2c2c96"/>
                  </g>
                </g>
                <g id="Group_2291" data-name="Group 2291" transform="translate(12.44)">
                  <g id="Group_2290" data-name="Group 2290">
                    <path id="Path_10410" data-name="Path 10410" d="M217.514,310.46a2.44,2.44,0,0,1,2.442-2.442h0a2.431,2.431,0,0,1,2.442,2.442h0a2.44,2.44,0,0,1-2.442,2.439h0A2.45,2.45,0,0,1,217.514,310.46Zm-12.427,0a2.434,2.434,0,0,1,2.442-2.442h0a2.439,2.439,0,0,1,2.442,2.442h0a2.448,2.448,0,0,1-2.442,2.439h0A2.443,2.443,0,0,1,205.087,310.46Zm-12.427,0a2.432,2.432,0,0,1,2.442-2.442h0a2.44,2.44,0,0,1,2.442,2.442h0A2.45,2.45,0,0,1,195.1,312.9h0A2.442,2.442,0,0,1,192.66,310.46Zm-12.427,0a2.432,2.432,0,0,1,2.442-2.442h0a2.44,2.44,0,0,1,2.442,2.442h0a2.45,2.45,0,0,1-2.442,2.439h0A2.442,2.442,0,0,1,180.233,310.46Zm-12.44,0a2.44,2.44,0,0,1,2.439-2.442h0a2.442,2.442,0,0,1,2.455,2.442h0a2.451,2.451,0,0,1-2.455,2.439h0A2.449,2.449,0,0,1,167.794,310.46Zm-12.427,0a2.439,2.439,0,0,1,2.442-2.442h0a2.432,2.432,0,0,1,2.439,2.442h0a2.441,2.441,0,0,1-2.439,2.439h0A2.448,2.448,0,0,1,155.367,310.46Zm-12.427,0a2.439,2.439,0,0,1,2.442-2.442h0a2.432,2.432,0,0,1,2.439,2.442h0a2.441,2.441,0,0,1-2.439,2.439h0A2.448,2.448,0,0,1,142.94,310.46Zm-12.427,0a2.431,2.431,0,0,1,2.442-2.442h0a2.44,2.44,0,0,1,2.439,2.442h0a2.449,2.449,0,0,1-2.439,2.439h0A2.44,2.44,0,0,1,130.513,310.46Zm-12.429,0a2.432,2.432,0,0,1,2.442-2.442h0a2.44,2.44,0,0,1,2.442,2.442h0a2.45,2.45,0,0,1-2.442,2.439h0A2.442,2.442,0,0,1,118.083,310.46Zm-12.429,0a2.432,2.432,0,0,1,2.442-2.442h0a2.439,2.439,0,0,1,2.442,2.442h0A2.448,2.448,0,0,1,108.1,312.9h0A2.442,2.442,0,0,1,105.654,310.46Z" transform="translate(-105.654 -308.018)" fill="#2c2c96"/>
                  </g>
                </g>
                <g id="Group_2293" data-name="Group 2293" transform="translate(136.726 0.029)">
                  <g id="Group_2292" data-name="Group 2292">
                    <path id="Path_10411" data-name="Path 10411" d="M156.8,312.882a2.458,2.458,0,0,1-1.72-.709,2.518,2.518,0,0,1-.722-1.73,2.464,2.464,0,0,1,.722-1.725,2.442,2.442,0,0,1,4.175,1.725,2.461,2.461,0,0,1-2.455,2.439Z" transform="translate(-154.361 -308.029)" fill="#2c2c96"/>
                  </g>
                </g>
              </g>
              <g id="Group_2301" data-name="Group 2301" transform="translate(0.015 52.091)">
                <g id="Group_2296" data-name="Group 2296" transform="translate(0 0.038)">
                  <g id="Group_2295" data-name="Group 2295">
                    <path id="Path_10412" data-name="Path 10412" d="M103.212,317.658a2.447,2.447,0,0,1-1.722-4.164,2.534,2.534,0,0,1,3.458,0,2.457,2.457,0,0,1,.707,1.722,2.418,2.418,0,0,1-2.442,2.442Z" transform="translate(-100.785 -312.812)" fill="#2c2c96"/>
                  </g>
                </g>
                <g id="Group_2298" data-name="Group 2298" transform="translate(12.424)">
                  <g id="Group_2297" data-name="Group 2297">
                    <path id="Path_10413" data-name="Path 10413" d="M217.514,315.239a2.449,2.449,0,0,1,2.442-2.442h0a2.439,2.439,0,0,1,2.442,2.442h0a2.434,2.434,0,0,1-2.442,2.442h0A2.444,2.444,0,0,1,217.514,315.239Zm-12.427,0a2.442,2.442,0,0,1,2.442-2.442h0a2.441,2.441,0,0,1,2.442,2.442h0a2.436,2.436,0,0,1-2.442,2.442h0A2.437,2.437,0,0,1,205.087,315.239Zm-12.427,0A2.44,2.44,0,0,1,195.1,312.8h0a2.449,2.449,0,0,1,2.442,2.442h0a2.444,2.444,0,0,1-2.442,2.442h0A2.436,2.436,0,0,1,192.66,315.239Zm-12.427,0a2.44,2.44,0,0,1,2.442-2.442h0a2.449,2.449,0,0,1,2.442,2.442h0a2.444,2.444,0,0,1-2.442,2.442h0A2.436,2.436,0,0,1,180.233,315.239Zm-12.44,0a2.451,2.451,0,0,1,2.455-2.442h0a2.436,2.436,0,0,1,2.427,2.442h0a2.431,2.431,0,0,1-2.427,2.442h0A2.447,2.447,0,0,1,167.794,315.239Zm-12.427,0a2.447,2.447,0,0,1,2.442-2.442h0a2.44,2.44,0,0,1,2.439,2.442h0a2.435,2.435,0,0,1-2.439,2.442h0A2.442,2.442,0,0,1,155.367,315.239Zm-12.427,0a2.447,2.447,0,0,1,2.442-2.442h0a2.44,2.44,0,0,1,2.439,2.442h0a2.435,2.435,0,0,1-2.439,2.442h0A2.442,2.442,0,0,1,142.94,315.239Zm-12.427,0a2.439,2.439,0,0,1,2.442-2.442h0a2.448,2.448,0,0,1,2.439,2.442h0a2.443,2.443,0,0,1-2.439,2.442h0A2.434,2.434,0,0,1,130.513,315.239Zm-12.429,0a2.44,2.44,0,0,1,2.442-2.442h0a2.449,2.449,0,0,1,2.442,2.442h0a2.444,2.444,0,0,1-2.442,2.442h0A2.436,2.436,0,0,1,118.083,315.239Zm-12.429,0a2.438,2.438,0,0,1,2.429-2.442h0a2.45,2.45,0,0,1,2.455,2.442h0a2.445,2.445,0,0,1-2.455,2.442h0A2.433,2.433,0,0,1,105.654,315.239Z" transform="translate(-105.654 -312.797)" fill="#2c2c96"/>
                  </g>
                </g>
                <g id="Group_2300" data-name="Group 2300" transform="translate(136.711 0.038)">
                  <g id="Group_2299" data-name="Group 2299">
                    <path id="Path_10414" data-name="Path 10414" d="M156.816,317.658a2.476,2.476,0,0,1-1.733-.709,2.505,2.505,0,0,1-.722-1.733,2.472,2.472,0,0,1,.722-1.722,2.531,2.531,0,0,1,3.455,0,2.456,2.456,0,0,1,.707,1.722,2.418,2.418,0,0,1-2.429,2.442Z" transform="translate(-154.361 -312.812)" fill="#2c2c96"/>
                  </g>
                </g>
              </g>
              <g id="Group_2308" data-name="Group 2308" transform="translate(0 65.533)">
                <g id="Group_2303" data-name="Group 2303" transform="translate(0 0.029)">
                  <g id="Group_2302" data-name="Group 2302">
                    <path id="Path_10415" data-name="Path 10415" d="M103.221,322.929a2.431,2.431,0,0,1-1.722-.722,2.418,2.418,0,0,1,0-3.442,2.529,2.529,0,0,1,3.458-.01,2.5,2.5,0,0,1,.72,1.733,2.461,2.461,0,0,1-2.455,2.442Z" transform="translate(-100.779 -318.076)" fill="#2c2c96"/>
                  </g>
                </g>
                <g id="Group_2305" data-name="Group 2305" transform="translate(12.44)">
                  <g id="Group_2304" data-name="Group 2304">
                    <path id="Path_10416" data-name="Path 10416" d="M217.514,320.5a2.438,2.438,0,0,1,2.442-2.439h0A2.429,2.429,0,0,1,222.4,320.5h0a2.441,2.441,0,0,1-2.442,2.442h0A2.45,2.45,0,0,1,217.514,320.5Zm-12.427,0a2.432,2.432,0,0,1,2.442-2.439h0a2.437,2.437,0,0,1,2.442,2.439h0a2.449,2.449,0,0,1-2.442,2.442h0A2.444,2.444,0,0,1,205.087,320.5Zm-12.427,0a2.43,2.43,0,0,1,2.442-2.439h0a2.438,2.438,0,0,1,2.442,2.439h0a2.45,2.45,0,0,1-2.442,2.442h0A2.442,2.442,0,0,1,192.66,320.5Zm-12.427,0a2.43,2.43,0,0,1,2.442-2.439h0a2.438,2.438,0,0,1,2.442,2.439h0a2.45,2.45,0,0,1-2.442,2.442h0A2.442,2.442,0,0,1,180.233,320.5Zm-12.44,0a2.438,2.438,0,0,1,2.439-2.439h0a2.439,2.439,0,0,1,2.455,2.439h0a2.451,2.451,0,0,1-2.455,2.442h0A2.45,2.45,0,0,1,167.794,320.5Zm-12.427,0a2.437,2.437,0,0,1,2.442-2.439h0a2.43,2.43,0,0,1,2.439,2.439h0a2.442,2.442,0,0,1-2.439,2.442h0A2.449,2.449,0,0,1,155.367,320.5Zm-12.427,0a2.437,2.437,0,0,1,2.442-2.439h0a2.43,2.43,0,0,1,2.439,2.439h0a2.442,2.442,0,0,1-2.439,2.442h0A2.449,2.449,0,0,1,142.94,320.5Zm-12.427,0a2.429,2.429,0,0,1,2.442-2.439h0a2.438,2.438,0,0,1,2.439,2.439h0a2.45,2.45,0,0,1-2.439,2.442h0A2.44,2.44,0,0,1,130.513,320.5Zm-12.429,0a2.43,2.43,0,0,1,2.442-2.439h0a2.438,2.438,0,0,1,2.442,2.439h0a2.45,2.45,0,0,1-2.442,2.442h0A2.442,2.442,0,0,1,118.083,320.5Zm-12.429,0a2.43,2.43,0,0,1,2.442-2.439h0a2.437,2.437,0,0,1,2.442,2.439h0a2.449,2.449,0,0,1-2.442,2.442h0A2.442,2.442,0,0,1,105.654,320.5Z" transform="translate(-105.654 -318.065)" fill="#2c2c96"/>
                  </g>
                </g>
                <g id="Group_2307" data-name="Group 2307" transform="translate(136.739 0.03)">
                  <g id="Group_2306" data-name="Group 2306">
                    <path id="Path_10417" data-name="Path 10417" d="M156.8,322.928a2.444,2.444,0,0,1-2.429-2.442,2.446,2.446,0,0,1,.709-1.722,2.515,2.515,0,0,1,3.455,0,2.443,2.443,0,0,1-1.735,4.164Z" transform="translate(-154.366 -318.077)" fill="#2c2c96"/>
                  </g>
                </g>
              </g>
              <g id="Group_2315" data-name="Group 2315" transform="translate(0 78.555)">
                <g id="Group_2310" data-name="Group 2310" transform="translate(0 0.031)">
                  <g id="Group_2309" data-name="Group 2309">
                    <path id="Path_10418" data-name="Path 10418" d="M103.234,328.033a2.445,2.445,0,0,1-1.735-4.177,2.55,2.55,0,0,1,3.458,0,2.448,2.448,0,0,1-1.722,4.177Z" transform="translate(-100.779 -323.18)" fill="#2c2c96"/>
                  </g>
                </g>
                <g id="Group_2312" data-name="Group 2312" transform="translate(12.44)">
                  <g id="Group_2311" data-name="Group 2311">
                    <path id="Path_10419" data-name="Path 10419" d="M217.514,325.61a2.442,2.442,0,0,1,2.442-2.442h0a2.432,2.432,0,0,1,2.442,2.442h0a2.44,2.44,0,0,1-2.442,2.442h0A2.45,2.45,0,0,1,217.514,325.61Zm-12.427,0a2.442,2.442,0,0,1,2.442-2.442h0a2.441,2.441,0,0,1,2.442,2.442h0a2.449,2.449,0,0,1-2.442,2.442h0A2.45,2.45,0,0,1,205.087,325.61Zm-12.427,0a2.434,2.434,0,0,1,2.442-2.442h0a2.442,2.442,0,0,1,2.442,2.442h0a2.45,2.45,0,0,1-2.442,2.442h0A2.442,2.442,0,0,1,192.66,325.61Zm-12.427,0a2.434,2.434,0,0,1,2.442-2.442h0a2.442,2.442,0,0,1,2.442,2.442h0a2.45,2.45,0,0,1-2.442,2.442h0A2.442,2.442,0,0,1,180.233,325.61Zm-12.44,0a2.442,2.442,0,0,1,2.439-2.442h0a2.432,2.432,0,0,1,2.442,2.442h0a2.44,2.44,0,0,1-2.442,2.442h0A2.45,2.45,0,0,1,167.794,325.61Zm-12.427,0a2.441,2.441,0,0,1,2.442-2.442h0a2.433,2.433,0,0,1,2.439,2.442h0a2.442,2.442,0,0,1-2.439,2.442h0A2.449,2.449,0,0,1,155.367,325.61Zm-12.427,0a2.44,2.44,0,0,1,2.442-2.442h0a2.433,2.433,0,0,1,2.439,2.442h0a2.442,2.442,0,0,1-2.439,2.442h0A2.449,2.449,0,0,1,142.94,325.61Zm-12.427,0a2.432,2.432,0,0,1,2.442-2.442h0a2.442,2.442,0,0,1,2.439,2.442h0a2.45,2.45,0,0,1-2.439,2.442h0A2.44,2.44,0,0,1,130.513,325.61Zm-12.429,0a2.434,2.434,0,0,1,2.442-2.442h0a2.442,2.442,0,0,1,2.442,2.442h0a2.45,2.45,0,0,1-2.442,2.442h0A2.442,2.442,0,0,1,118.083,325.61Zm-12.429,0a2.434,2.434,0,0,1,2.442-2.442h0a2.441,2.441,0,0,1,2.442,2.442h0a2.449,2.449,0,0,1-2.442,2.442h0A2.442,2.442,0,0,1,105.654,325.61Z" transform="translate(-105.654 -323.168)" fill="#2c2c96"/>
                  </g>
                </g>
                <g id="Group_2314" data-name="Group 2314" transform="translate(136.726 0.031)">
                  <g id="Group_2313" data-name="Group 2313">
                    <path id="Path_10420" data-name="Path 10420" d="M156.8,328.033a2.443,2.443,0,0,1-1.72-4.177,2.547,2.547,0,0,1,3.455,0,2.5,2.5,0,0,1,.707,1.735,2.456,2.456,0,0,1-.707,1.722A2.5,2.5,0,0,1,156.8,328.033Z" transform="translate(-154.361 -323.18)" fill="#2c2c96"/>
                  </g>
                </g>
              </g>
              <g id="Group_2322" data-name="Group 2322" transform="translate(0.015 91.987)">
                <g id="Group_2317" data-name="Group 2317" transform="translate(0 0.03)">
                  <g id="Group_2316" data-name="Group 2316">
                    <path id="Path_10421" data-name="Path 10421" d="M103.212,333.3a2.447,2.447,0,0,1-1.722-4.164,2.519,2.519,0,0,1,3.458,0,2.438,2.438,0,0,1-1.735,4.164Z" transform="translate(-100.785 -328.444)" fill="#2c2c96"/>
                  </g>
                </g>
                <g id="Group_2319" data-name="Group 2319" transform="translate(12.424)">
                  <g id="Group_2318" data-name="Group 2318">
                    <path id="Path_10422" data-name="Path 10422" d="M217.514,330.871a2.446,2.446,0,0,1,2.442-2.439h0a2.437,2.437,0,0,1,2.442,2.439h0a2.432,2.432,0,0,1-2.442,2.442h0A2.442,2.442,0,0,1,217.514,330.871Zm-12.427,0a2.446,2.446,0,0,1,2.442-2.439h0a2.445,2.445,0,0,1,2.442,2.439h0a2.44,2.44,0,0,1-2.442,2.442h0A2.442,2.442,0,0,1,205.087,330.871Zm-12.427,0a2.438,2.438,0,0,1,2.442-2.439h0a2.446,2.446,0,0,1,2.442,2.439h0a2.442,2.442,0,0,1-2.442,2.442h0A2.434,2.434,0,0,1,192.66,330.871Zm-12.427,0a2.438,2.438,0,0,1,2.442-2.439h0a2.446,2.446,0,0,1,2.442,2.439h0a2.442,2.442,0,0,1-2.442,2.442h0A2.434,2.434,0,0,1,180.233,330.871Zm-12.44,0a2.446,2.446,0,0,1,2.439-2.439h0a2.437,2.437,0,0,1,2.442,2.439h0a2.432,2.432,0,0,1-2.442,2.442h0A2.442,2.442,0,0,1,167.794,330.871Zm-12.427,0a2.445,2.445,0,0,1,2.442-2.439h0a2.438,2.438,0,0,1,2.439,2.439h0a2.433,2.433,0,0,1-2.439,2.442h0A2.44,2.44,0,0,1,155.367,330.871Zm-12.427,0a2.445,2.445,0,0,1,2.442-2.439h0a2.438,2.438,0,0,1,2.439,2.439h0a2.433,2.433,0,0,1-2.439,2.442h0A2.44,2.44,0,0,1,142.94,330.871Zm-12.427,0a2.445,2.445,0,0,1,2.442-2.439h0a2.446,2.446,0,0,1,2.439,2.439h0a2.442,2.442,0,0,1-2.439,2.442h0A2.44,2.44,0,0,1,130.513,330.871Zm-12.429,0a2.438,2.438,0,0,1,2.442-2.439h0a2.446,2.446,0,0,1,2.442,2.439h0a2.442,2.442,0,0,1-2.442,2.442h0A2.434,2.434,0,0,1,118.083,330.871Zm-12.429,0a2.438,2.438,0,0,1,2.442-2.439h0a2.445,2.445,0,0,1,2.442,2.439h0a2.44,2.44,0,0,1-2.442,2.442h0A2.434,2.434,0,0,1,105.654,330.871Z" transform="translate(-105.654 -328.432)" fill="#2c2c96"/>
                  </g>
                </g>
                <g id="Group_2321" data-name="Group 2321" transform="translate(136.711 0.035)">
                  <g id="Group_2320" data-name="Group 2320">
                    <path id="Path_10423" data-name="Path 10423" d="M156.8,333.292a2.449,2.449,0,0,1-1.72-.712,2.424,2.424,0,0,1,0-3.452,2.528,2.528,0,0,1,3.455,0,2.438,2.438,0,0,1-1.735,4.164Z" transform="translate(-154.361 -328.446)" fill="#2c2c96"/>
                  </g>
                </g>
              </g>
            </g>
            <g id="Rectangle_2667" data-name="Rectangle 2667" transform="translate(1975.935 6283.646) rotate(-45)" fill="none" stroke="#2c2c96" stroke-width="2" stroke-dasharray="6">
              <rect width="269" height="270" stroke="none"/>
              <rect x="1" y="1" width="267" height="268" fill="none"/>
            </g>
            <g id="Group_2325" data-name="Group 2325" transform="translate(5097.82 346.556) rotate(45)">
              <g id="Group_2324" data-name="Group 2324" transform="translate(2088.339 6405.15) rotate(-45)">
                <rect id="Rectangle_2668" data-name="Rectangle 2668" width="34.81" height="34.81" transform="translate(0 24.614) rotate(-45)" fill="#2c2c96"/>
              </g>
              <g id="Rectangle_2669" data-name="Rectangle 2669" transform="translate(2081.71 6363.71)" fill="none" stroke="#2c2c96" stroke-width="2">
                <rect width="81.958" height="81.958" stroke="none"/>
                <rect x="1" y="1" width="79.958" height="79.958" fill="none"/>
              </g>
            </g>
            <g id="Group_2326" data-name="Group 2326" transform="translate(-243 283.14)">
              <g id="Rectangle_2670" data-name="Rectangle 2670" transform="translate(2320.263 6607.02) rotate(45)" fill="none" stroke="#2c2c96" stroke-width="2">
                <rect width="109.712" height="109.712" stroke="none"/>
                <rect x="1" y="1" width="107.712" height="107.712" fill="none"/>
              </g>
              <g id="Rectangle_2671" data-name="Rectangle 2671" transform="translate(2320.263 6550.227) rotate(45)" fill="none" stroke="#2c2c96" stroke-width="2">
                <rect width="190.03" height="190.03" stroke="none"/>
                <rect x="1" y="1" width="188.03" height="188.03" fill="none"/>
              </g>
              <g id="Rectangle_2672" data-name="Rectangle 2672" transform="translate(2320.263 6485.86) rotate(45)" fill="none" stroke="#2c2c96" stroke-width="2">
                <rect width="281.057" height="281.057" stroke="none"/>
                <rect x="1" y="1" width="279.057" height="279.057" fill="none"/>
              </g>
            </g>
          </g>
        </g>
      </g>
    </g>
  </g>
</svg>
