<svg id="组_2330" data-name="组 2330" xmlns="http://www.w3.org/2000/svg" xmlns:xlink="http://www.w3.org/1999/xlink" width="620" height="410" viewBox="0 0 620 410">
  <defs>
    <clipPath id="clip-path">
      <rect id="矩形_2663" data-name="矩形 2663" width="620" height="410" rx="16" fill="#3a3ac1"/>
    </clipPath>
  </defs>
  <path id="路径_11033" data-name="路径 11033" d="M0,0H620V410H0Z" fill="#1e1f74"/>
  <g id="蒙版组_24" data-name="蒙版组 24" transform="translate(0 0)" clip-path="url(#clip-path)">
    <g id="组_2265" data-name="组 2265" transform="translate(-0.443 -44)" opacity="0.997">
      <g id="椭圆_497" data-name="椭圆 497" transform="translate(509.443)" fill="none" stroke="#2c2c96" stroke-width="2" stroke-dasharray="6">
        <ellipse cx="76.5" cy="69.5" rx="76.5" ry="69.5" stroke="none"/>
        <ellipse cx="76.5" cy="69.5" rx="75.5" ry="68.5" fill="none"/>
      </g>
      <g id="组_2251" data-name="组 2251" transform="translate(499.27 87.207)">
        <path id="路径_10392" data-name="路径 10392" d="M145.524,293.533c0,15.815-14.163,28.633-31.634,28.633s-31.633-12.819-31.633-28.633S96.422,264.9,113.89,264.9,145.524,277.721,145.524,293.533Z" transform="translate(-82.257 -264.901)" fill="none" stroke="#2c2c96" stroke-width="2"/>
      </g>
      <g id="组_2252" data-name="组 2252" transform="translate(520.891 106.38)">
        <ellipse id="椭圆_498" data-name="椭圆 498" cx="10.272" cy="9.297" rx="10.272" ry="9.297" fill="#2c2c96"/>
      </g>
      <g id="组_2259" data-name="组 2259" transform="translate(221.401 24.447)">
        <g id="组_2254" data-name="组 2254" transform="translate(0 0)">
          <g id="组_2253" data-name="组 2253">
            <path id="路径_10393" data-name="路径 10393" d="M512.935-21.238c-3.7-.327-7.515-.665-10.99,2.48s-3.1,6.6-2.74,9.949c.344,3.193.672,6.207-2.339,8.932S490.527,2.549,487,2.235c-3.7-.327-7.513-.667-10.988,2.478s-3.1,6.6-2.738,9.945c.346,3.193.672,6.209-2.337,8.93s-6.337,2.427-9.864,2.113c-3.7-.329-7.515-.667-10.986,2.476s-3.1,6.6-2.736,9.943c.328,3,.6,5.84-1.865,8.433l.987.893c2.923-3.01,2.612-6.279,2.268-9.449-.349-3.191-.676-6.207,2.331-8.927s6.339-2.427,9.864-2.111c3.7.327,7.515.667,10.988-2.478s3.1-6.6,2.738-9.945c-.344-3.193-.672-6.209,2.335-8.93s6.341-2.427,9.866-2.115c3.693.329,7.513.669,10.988-2.474s3.1-6.6,2.738-9.949c-.344-3.193-.672-6.209,2.339-8.932s6.339-2.429,9.869-2.117c3.7.329,7.515.665,10.992-2.48l-.989-.893C519.8-20.63,516.464-20.926,512.935-21.238Z" transform="translate(-445.491 23.355)" fill="#2c2c96"/>
          </g>
        </g>
        <g id="组_2256" data-name="组 2256" transform="translate(11.177 10.118)">
          <g id="组_2255" data-name="组 2255">
            <path id="路径_10394" data-name="路径 10394" d="M518.258-15.914c-3.691-.327-7.513-.665-10.99,2.48s-3.1,6.6-2.74,9.947c.344,3.195.674,6.209-2.337,8.934s-6.337,2.425-9.862,2.111c-3.7-.327-7.515-.667-10.99,2.478s-3.1,6.6-2.736,9.945c.344,3.193.67,6.209-2.339,8.93s-6.337,2.425-9.862,2.113c-3.7-.329-7.517-.667-10.986,2.476s-3.1,6.6-2.736,9.942c.325,3,.6,5.842-1.867,8.433l.989.9c2.925-3.01,2.612-6.281,2.266-9.449-.346-3.191-.674-6.207,2.333-8.927s6.339-2.427,9.864-2.113c3.7.329,7.513.667,10.988-2.476s3.1-6.6,2.736-9.947c-.344-3.191-.67-6.207,2.337-8.929s6.339-2.427,9.864-2.115c3.693.329,7.517.667,10.988-2.476s3.1-6.6,2.742-9.947c-.346-3.195-.674-6.209,2.337-8.934s6.339-2.427,9.866-2.115c3.7.329,7.517.667,10.992-2.48l-.985-.893C525.119-15.306,521.789-15.6,518.258-15.914Z" transform="translate(-450.814 18.031)" fill="#2c2c96"/>
          </g>
        </g>
        <g id="组_2258" data-name="组 2258" transform="translate(23.052 20.864)">
          <g id="组_2257" data-name="组 2257">
            <path id="路径_10395" data-name="路径 10395" d="M523.916-10.258c-3.7-.327-7.517-.665-10.992,2.48s-3.1,6.6-2.738,9.947c.342,3.195.668,6.209-2.343,8.934s-6.337,2.425-9.862,2.111c-3.7-.327-7.513-.667-10.985,2.476s-3.1,6.6-2.74,9.947c.344,3.193.672,6.209-2.333,8.93s-6.341,2.427-9.866,2.113c-3.7-.329-7.515-.667-10.988,2.476s-3.1,6.6-2.736,9.943c.33,3,.6,5.84-1.862,8.433l.985.891c2.927-3.008,2.614-6.279,2.268-9.449-.349-3.191-.674-6.205,2.335-8.927s6.335-2.425,9.862-2.111c3.7.327,7.513.667,10.985-2.476s3.1-6.6,2.74-9.947c-.346-3.193-.672-6.207,2.335-8.93s6.339-2.425,9.866-2.113c3.693.329,7.513.669,10.984-2.474s3.1-6.6,2.742-9.951c-.344-3.191-.67-6.207,2.337-8.93S520.252-9.313,523.777-9c3.7.327,7.517.665,10.994-2.482l-.987-.893C530.773-9.65,527.441-9.946,523.916-10.258Z" transform="translate(-456.47 12.377)" fill="#2c2c96"/>
          </g>
        </g>
      </g>
      <g id="组_2260" data-name="组 2260" transform="translate(28.588 279.767) rotate(39)">
        <path id="路径_11009" data-name="路径 11009" d="M14.748-.711C22.892-1.1,29.177,5.046,28.784,13.024S21.471,27.787,13.326,28.18-1.1,22.423-.711,14.445,6.6-.318,14.748-.711Z" transform="translate(-0.196 3.991)" fill="#2c2c96"/>
        <path id="路径_10396" data-name="路径 10396" d="M19.753,41.77C7.7,42.351-1.635,33.219-1.054,21.412S9.806-.473,21.86-1.054,43.247,7.5,42.666,19.3,31.806,41.189,19.753,41.77ZM21.806.057C10.378.608.632,10.164.081,21.358s8.3,19.852,19.727,19.3,21.173-10.106,21.724-21.3S33.233-.493,21.806.057Z" transform="translate(7.635 -0.368)" fill="#2c2c96"/>
      </g>
      <g id="组_2264" data-name="组 2264" transform="translate(459.625 342.259)">
        <g id="组_2261" data-name="组 2261" transform="translate(53.521 48.443)">
          <path id="路径_10397" data-name="路径 10397" d="M209.485,322.479c0,31.8-28.482,57.581-63.615,57.581s-63.613-25.778-63.613-57.581S110.742,264.9,145.87,264.9,209.485,290.681,209.485,322.479Z" transform="translate(-82.257 -264.901)" fill="none" stroke="#2c2c96" stroke-width="2"/>
        </g>
        <g id="组_2262" data-name="组 2262" transform="translate(27.37 24.774)">
          <path id="路径_10398" data-name="路径 10398" d="M261.785,346.148c0,44.876-40.19,81.251-89.766,81.251s-89.762-36.374-89.762-81.251S122.451,264.9,172.019,264.9,261.785,301.279,261.785,346.148Z" transform="translate(-82.257 -264.901)" fill="none" stroke="#2c2c96" stroke-width="2"/>
        </g>
        <g id="组_2263" data-name="组 2263">
          <path id="路径_10399" data-name="路径 10399" d="M316.526,370.922c0,58.56-52.445,106.025-117.137,106.025S82.257,429.482,82.257,370.922,134.707,264.9,199.389,264.9,316.526,312.371,316.526,370.922Z" transform="translate(-82.257 -264.901)" fill="none" stroke="#2c2c96" stroke-width="2"/>
        </g>
      </g>
    </g>
  </g>
</svg>
