<svg xmlns="http://www.w3.org/2000/svg" xmlns:xlink="http://www.w3.org/1999/xlink" width="620" height="375" viewBox="0 0 620 375">
  <defs>
    <clipPath id="clip-path">
      <rect id="矩形_3761" data-name="矩形 3761" width="620" height="375" transform="translate(172 281)"/>
    </clipPath>
  </defs>
  <g id="组_4507" data-name="组 4507" transform="translate(-172 -281)">
    <g id="蒙版组_122" data-name="蒙版组 122" clip-path="url(#clip-path)">
      <g id="组_4506" data-name="组 4506">
        <g id="椭圆_384" data-name="椭圆 384" transform="translate(681 237)" fill="none" stroke="#fff" stroke-width="2" stroke-dasharray="6">
          <ellipse cx="77" cy="69.5" rx="77" ry="69.5" stroke="none"/>
          <ellipse cx="77" cy="69.5" rx="76" ry="68.5" fill="none"/>
        </g>
        <g id="组_1563" data-name="组 1563" transform="translate(671.484 324.207)">
          <path id="路径_6133" data-name="路径 6133" d="M145.524,293.533c0,15.815-14.163,28.633-31.634,28.633s-31.633-12.819-31.633-28.633S96.422,264.9,113.89,264.9,145.524,277.721,145.524,293.533Z" transform="translate(-82.257 -264.901)" fill="none" stroke="#fff" stroke-width="2"/>
        </g>
        <g id="组_1564" data-name="组 1564" transform="translate(693.105 343.379)">
          <ellipse id="椭圆_380" data-name="椭圆 380" cx="10.272" cy="9.297" rx="10.272" ry="9.297" fill="#fff"/>
        </g>
        <g id="组_2116" data-name="组 2116" transform="translate(200.803 516.768) rotate(39)">
          <path id="路径_11010" data-name="路径 11010" d="M14.748-.711C22.892-1.1,29.177,5.046,28.784,13.024S21.471,27.787,13.326,28.18-1.1,22.423-.711,14.445,6.6-.318,14.748-.711Z" transform="translate(-0.196 3.991)" fill="#fff"/>
          <path id="路径_6189" data-name="路径 6189" d="M19.753,41.77C7.7,42.351-1.635,33.219-1.054,21.412S9.806-.473,21.86-1.054,43.247,7.5,42.666,19.3,31.806,41.189,19.753,41.77ZM21.806.057C10.378.608.632,10.164.081,21.358s8.3,19.852,19.727,19.3,21.173-10.106,21.724-21.3S33.233-.493,21.806.057Z" transform="translate(7.635 -0.368)" fill="#fff"/>
        </g>
        <rect id="矩形_2662" data-name="矩形 2662" width="620" height="375" transform="translate(172 281)" fill="#1bbbe0"/>
        <g id="椭圆_497" data-name="椭圆 497" transform="translate(681 237)" fill="none" stroke="#172d72" stroke-width="2" stroke-dasharray="6">
          <ellipse cx="76.5" cy="75" rx="76.5" ry="75" stroke="none"/>
          <ellipse cx="76.5" cy="75" rx="75.5" ry="74" fill="none"/>
        </g>
        <path id="路径_10392" data-name="路径 10392" d="M145.524,295.877c0,17.109-14.163,30.978-31.634,30.978s-31.633-13.868-31.633-30.978S96.422,264.9,113.89,264.9,145.524,278.77,145.524,295.877Z" transform="translate(588.568 66.447)" fill="none" stroke="#172d72" stroke-width="2" opacity="0.72"/>
        <ellipse id="椭圆_498" data-name="椭圆 498" cx="10.272" cy="10.058" rx="10.272" ry="10.058" transform="translate(692.447 352.09)" fill="#172d72"/>
        <g id="组_4502" data-name="组 4502">
          <g id="组_2254" data-name="组 2254" transform="translate(392.959 263.449)">
            <g id="组_2253" data-name="组 2253">
              <path id="路径_10393" data-name="路径 10393" d="M512.935-21.065c-3.7-.354-7.515-.72-10.99,2.683s-3.1,7.145-2.74,10.764c.344,3.454.672,6.715-2.339,9.664S490.527,4.67,487,4.33c-3.7-.354-7.513-.722-10.988,2.681s-3.1,7.143-2.738,10.76c.346,3.454.672,6.717-2.337,9.662s-6.337,2.626-9.864,2.286c-3.7-.356-7.515-.722-10.986,2.679s-3.1,7.139-2.736,10.758c.328,3.245.6,6.318-1.865,9.123l.987.966c2.923-3.257,2.612-6.793,2.268-10.223-.349-3.452-.676-6.715,2.331-9.658s6.339-2.626,9.864-2.284c3.7.354,7.515.722,10.988-2.681s3.1-7.143,2.738-10.76c-.344-3.454-.672-6.717,2.335-9.662s6.341-2.626,9.866-2.288c3.693.356,7.513.724,10.988-2.677s3.1-7.145,2.738-10.764c-.344-3.454-.672-6.717,2.339-9.664s6.339-2.628,9.869-2.29c3.7.356,7.515.72,10.992-2.683l-.989-.966C519.8-20.407,516.464-20.727,512.935-21.065Z" transform="translate(-445.491 23.355)" fill="#172d72"/>
            </g>
          </g>
          <g id="组_2256" data-name="组 2256" transform="translate(404.135 274.396)">
            <g id="组_2255" data-name="组 2255">
              <path id="路径_10394" data-name="路径 10394" d="M518.258-15.741c-3.691-.354-7.513-.72-10.99,2.683s-3.1,7.143-2.74,10.762c.344,3.456.674,6.717-2.337,9.666s-6.337,2.624-9.862,2.284c-3.7-.354-7.515-.722-10.99,2.681s-3.1,7.143-2.736,10.76c.344,3.454.67,6.717-2.339,9.662s-6.337,2.624-9.862,2.286c-3.7-.356-7.517-.722-10.986,2.679s-3.1,7.139-2.736,10.755c.325,3.247.6,6.32-1.867,9.123l.989.968c2.925-3.257,2.612-6.8,2.266-10.223-.346-3.452-.674-6.715,2.333-9.658s6.339-2.626,9.864-2.286c3.7.356,7.513.722,10.988-2.679s3.1-7.143,2.736-10.762c-.344-3.452-.67-6.715,2.337-9.66s6.339-2.626,9.864-2.288c3.693.356,7.517.722,10.988-2.679s3.1-7.143,2.742-10.762c-.346-3.456-.674-6.717,2.337-9.666s6.339-2.626,9.866-2.288c3.7.356,7.517.722,10.992-2.683l-.985-.966C525.119-15.083,521.789-15.4,518.258-15.741Z" transform="translate(-450.814 18.031)" fill="#2c2c96"/>
            </g>
          </g>
          <g id="组_2258" data-name="组 2258" transform="translate(416.012 286.021)">
            <g id="组_2257" data-name="组 2257">
              <path id="路径_10395" data-name="路径 10395" d="M523.916-10.084c-3.7-.354-7.517-.72-10.992,2.683s-3.1,7.145-2.738,10.762c.342,3.456.668,6.717-2.343,9.666s-6.337,2.624-9.862,2.284c-3.7-.354-7.513-.722-10.985,2.679s-3.1,7.143-2.74,10.762c.344,3.454.672,6.717-2.333,9.662s-6.341,2.626-9.866,2.286c-3.7-.356-7.515-.722-10.988,2.679s-3.1,7.139-2.736,10.758c.33,3.245.6,6.318-1.862,9.123l.985.964c2.927-3.255,2.614-6.793,2.268-10.223-.349-3.452-.674-6.713,2.335-9.658s6.335-2.624,9.862-2.284c3.7.354,7.513.722,10.985-2.679s3.1-7.143,2.74-10.762c-.346-3.454-.672-6.715,2.335-9.662s6.339-2.624,9.866-2.286c3.693.356,7.513.724,10.984-2.677s3.1-7.145,2.742-10.766c-.344-3.452-.67-6.715,2.337-9.662s6.343-2.628,9.869-2.29c3.7.354,7.517.72,10.994-2.685l-.987-.966C530.773-9.426,527.441-9.747,523.916-10.084Z" transform="translate(-456.47 12.377)" fill="#2c2c96"/>
            </g>
          </g>
        </g>
        <path id="路径_11009" data-name="路径 11009" d="M15.978.638A14.794,14.794,0,0,1,31.02,15.614,15.545,15.545,0,0,1,15.667,30.9,14.794,14.794,0,0,1,.626,15.925,15.545,15.545,0,0,1,15.978.638Z" transform="translate(197.373 541.787) rotate(39)" fill="#172d72"/>
        <path id="路径_10396" data-name="路径 10396" d="M23.224,45.8a21.953,21.953,0,0,1-22.3-22.2A23.069,23.069,0,0,1,23.685.946a21.953,21.953,0,0,1,22.3,22.2A23.068,23.068,0,0,1,23.224,45.8ZM23.673,2.11A21.872,21.872,0,0,0,2.1,23.594,20.815,20.815,0,0,0,23.236,44.639,21.872,21.872,0,0,0,44.811,23.157,20.815,20.815,0,0,0,23.673,2.11Z" transform="translate(206.15 542.92) rotate(39)" fill="#172d72"/>
        <g id="组_4501" data-name="组 4501" transform="translate(0 -46)">
          <g id="组_4498" data-name="组 4498" transform="translate(684.703 659.691)">
            <path id="路径_10397" data-name="路径 10397" d="M209.485,327.193c0,34.407-28.482,62.3-63.615,62.3s-63.613-27.888-63.613-62.3S110.742,264.9,145.87,264.9,209.485,292.792,209.485,327.193Z" transform="translate(-82.257 -264.901)" fill="none" stroke="#2c2c96" stroke-width="2"/>
          </g>
          <g id="组_4499" data-name="组 4499" transform="translate(658.553 634.084)">
            <path id="路径_10398" data-name="路径 10398" d="M261.785,352.8c0,48.551-40.19,87.9-89.766,87.9s-89.762-39.352-89.762-87.9,40.194-87.9,89.762-87.9S261.785,304.257,261.785,352.8Z" transform="translate(-82.257 -264.901)" fill="none" stroke="#2c2c96" stroke-width="2"/>
          </g>
          <g id="组_4500" data-name="组 4500" transform="translate(631.182 607.281)">
            <path id="路径_10399" data-name="路径 10399" d="M316.526,379.6c0,63.354-52.445,114.706-117.137,114.706S82.257,442.956,82.257,379.6s52.45-114.7,117.132-114.7S316.526,316.258,316.526,379.6Z" transform="translate(-82.257 -264.901)" fill="none" stroke="#172d72" stroke-width="2"/>
          </g>
        </g>
      </g>
    </g>
    <rect id="矩形_3762" data-name="矩形 3762" width="620" height="375" transform="translate(172 281)" opacity="0.1"/>
  </g>
</svg>
