<svg xmlns="http://www.w3.org/2000/svg" xmlns:xlink="http://www.w3.org/1999/xlink" width="940" height="689" viewBox="0 0 940 689">
  <defs>
    <clipPath id="clip-path">
      <rect id="Rectangle_2663" data-name="Rectangle 2663" width="940" height="689" rx="16" transform="translate(-1832 5820)" fill="#3a3ac1"/>
    </clipPath>
  </defs>
  <g id="Group_2330" data-name="Group 2330" transform="translate(1832 -5820)">
    <rect id="Rectangle_2662" data-name="Rectangle 2662" width="940" height="689" rx="16" transform="translate(-1832 5820)" fill="#3a3ac1"/>
    <g id="Mask_Group_24" data-name="Mask Group 24" clip-path="url(#clip-path)">
      <g id="Group_2265" data-name="Group 2265" transform="translate(-2290 -436)" opacity="0.997">
        <g id="Ellipse_497" data-name="Ellipse 497" transform="translate(1231 6183)" fill="none" stroke="#2c2c96" stroke-width="2" stroke-dasharray="6">
          <circle cx="116" cy="116" r="116" stroke="none"/>
          <circle cx="116" cy="116" r="115" fill="none"/>
        </g>
        <g id="Group_2251" data-name="Group 2251" transform="translate(1215.221 6329.255)">
          <path id="Path_10392" data-name="Path 10392" d="M178.3,312.92A48.02,48.02,0,1,1,130.276,264.9,48.02,48.02,0,0,1,178.3,312.92Z" transform="translate(-82.257 -264.901)" fill="none" stroke="#2c2c96" stroke-width="2"/>
        </g>
        <g id="Group_2252" data-name="Group 2252" transform="translate(1248.042 6361.409)">
          <circle id="Ellipse_498" data-name="Ellipse 498" cx="15.592" cy="15.592" r="15.592" fill="#2c2c96"/>
        </g>
        <g id="Group_2259" data-name="Group 2259" transform="translate(347.925 6247.355)">
          <g id="Group_2254" data-name="Group 2254" transform="translate(445.491 -23.355)">
            <g id="Group_2253" data-name="Group 2253">
              <path id="Path_10393" data-name="Path 10393" d="M547.871-19.8c-5.61-.548-11.407-1.116-16.682,4.159s-4.711,11.076-4.159,16.686c.523,5.355,1.02,10.41-3.551,14.98s-9.623,4.067-14.971,3.541c-5.61-.548-11.4-1.119-16.679,4.156s-4.7,11.073-4.156,16.679c.526,5.355,1.02,10.413-3.547,14.977s-9.619,4.07-14.974,3.544c-5.61-.551-11.407-1.119-16.676,4.153s-4.7,11.066-4.153,16.676c.5,5.03.912,9.795-2.83,14.142l1.5,1.5c4.437-5.049,3.965-10.531,3.442-15.847-.529-5.352-1.026-10.41,3.538-14.971s9.623-4.07,14.974-3.541c5.61.548,11.407,1.119,16.679-4.156s4.708-11.073,4.156-16.679c-.523-5.355-1.02-10.413,3.544-14.977s9.626-4.07,14.977-3.547c5.606.551,11.4,1.122,16.679-4.15s4.7-11.076,4.156-16.686c-.523-5.355-1.02-10.413,3.551-14.98s9.623-4.073,14.98-3.551c5.613.551,11.407,1.116,16.686-4.159l-1.5-1.5C558.287-18.784,553.229-19.282,547.871-19.8Z" transform="translate(-445.491 23.355)" fill="#2c2c96"/>
            </g>
          </g>
          <g id="Group_2256" data-name="Group 2256" transform="translate(462.457 -6.386)">
            <g id="Group_2255" data-name="Group 2255">
              <path id="Path_10394" data-name="Path 10394" d="M553.194-14.48c-5.6-.548-11.4-1.116-16.682,4.159s-4.7,11.073-4.159,16.682c.523,5.358,1.023,10.413-3.547,14.984s-9.619,4.067-14.971,3.541c-5.61-.548-11.407-1.119-16.682,4.156s-4.7,11.073-4.153,16.679c.523,5.355,1.017,10.413-3.551,14.977s-9.619,4.067-14.971,3.544c-5.61-.551-11.411-1.119-16.676,4.153s-4.708,11.066-4.153,16.673c.494,5.033.908,9.8-2.834,14.142l1.5,1.5c4.44-5.049,3.965-10.534,3.439-15.847-.526-5.352-1.023-10.41,3.541-14.971s9.622-4.07,14.974-3.544c5.61.551,11.4,1.119,16.679-4.153s4.708-11.073,4.153-16.682c-.523-5.352-1.017-10.41,3.547-14.974s9.623-4.07,14.974-3.547c5.606.551,11.411,1.119,16.679-4.153s4.708-11.073,4.163-16.682C533.939.8,533.442-4.255,538.013-8.826s9.623-4.07,14.977-3.547c5.613.551,11.411,1.119,16.686-4.159l-1.495-1.5C563.61-13.46,558.555-13.958,553.194-14.48Z" transform="translate(-450.814 18.031)" fill="#2c2c96"/>
            </g>
          </g>
          <g id="Group_2258" data-name="Group 2258" transform="translate(480.485 11.635)">
            <g id="Group_2257" data-name="Group 2257">
              <path id="Path_10395" data-name="Path 10395" d="M558.853-8.823c-5.61-.548-11.411-1.116-16.686,4.159s-4.708,11.076-4.156,16.682c.52,5.358,1.014,10.413-3.557,14.984s-9.619,4.067-14.971,3.541c-5.61-.548-11.4-1.119-16.676,4.153s-4.708,11.073-4.159,16.682c.523,5.355,1.02,10.413-3.541,14.977s-9.626,4.07-14.977,3.544c-5.61-.551-11.407-1.119-16.679,4.153s-4.7,11.066-4.153,16.676c.5,5.03.912,9.795-2.827,14.142l1.495,1.495c4.443-5.046,3.968-10.531,3.442-15.847-.529-5.352-1.023-10.407,3.544-14.971s9.616-4.067,14.971-3.541c5.61.548,11.4,1.119,16.676-4.153s4.708-11.073,4.159-16.682c-.526-5.355-1.02-10.41,3.544-14.977s9.623-4.067,14.977-3.544c5.606.551,11.4,1.122,16.673-4.15s4.711-11.076,4.163-16.689C539.592,6.46,539.1,1.4,543.662-3.166s9.629-4.073,14.98-3.551c5.613.548,11.411,1.116,16.689-4.163l-1.5-1.5C569.263-7.8,564.2-8.3,558.853-8.823Z" transform="translate(-456.47 12.377)" fill="#2c2c96"/>
            </g>
          </g>
        </g>
        <g id="Group_2260" data-name="Group 2260" transform="translate(4320.222 1199.795) rotate(39)">
          <circle id="Ellipse_499" data-name="Ellipse 499" cx="23.261" cy="23.261" r="23.261" transform="translate(463 6647.427)" fill="#2c2c96"/>
          <path id="Path_10396" data-name="Path 10396" d="M218.206,155.032a34.479,34.479,0,1,1,34.478-34.478A34.517,34.517,0,0,1,218.206,155.032Zm0-67.168a32.689,32.689,0,1,0,32.689,32.69A32.728,32.728,0,0,0,218.206,87.864Z" transform="translate(291.316 6554.925)" fill="#2c2c96"/>
        </g>
        <g id="Group_2264" data-name="Group 2264" transform="translate(-35.781 13.146)">
          <g id="Group_2261" data-name="Group 2261" transform="translate(1272.065 6825.099)">
            <path id="Path_10397" data-name="Path 10397" d="M275.39,361.465A96.566,96.566,0,1,1,178.821,264.9,96.567,96.567,0,0,1,275.39,361.465Z" transform="translate(-82.257 -264.901)" fill="none" stroke="#2c2c96" stroke-width="2"/>
          </g>
          <g id="Group_2262" data-name="Group 2262" transform="translate(1232.369 6785.402)">
            <path id="Path_10398" data-name="Path 10398" d="M354.781,401.16A136.262,136.262,0,1,1,218.516,264.9,136.263,136.263,0,0,1,354.781,401.16Z" transform="translate(-82.257 -264.901)" fill="none" stroke="#2c2c96" stroke-width="2"/>
          </g>
          <g id="Group_2263" data-name="Group 2263" transform="translate(1190.821 6743.854)">
            <path id="Path_10399" data-name="Path 10399" d="M437.878,442.708A177.811,177.811,0,1,1,260.064,264.9,177.812,177.812,0,0,1,437.878,442.708Z" transform="translate(-82.257 -264.901)" fill="none" stroke="#2c2c96" stroke-width="2"/>
          </g>
        </g>
      </g>
    </g>
  </g>
</svg>
