<svg id="组_2329" data-name="组 2329" xmlns="http://www.w3.org/2000/svg" xmlns:xlink="http://www.w3.org/1999/xlink" width="616" height="411" viewBox="0 0 616 411">
  <defs>
    <clipPath id="clip-path">
      <rect id="矩形_2673" data-name="矩形 2673" width="616" height="411" rx="16" transform="translate(0)" fill="none" stroke="#2e2fff" stroke-width="2"/>
    </clipPath>
  </defs>
  <rect id="矩形_2664" data-name="矩形 2664" width="616" height="411" transform="translate(0)" fill="#1e1f74"/>
  <g id="蒙版组_25" data-name="蒙版组 25" transform="translate(0 0)" clip-path="url(#clip-path)">
    <g id="组_2327" data-name="组 2327" transform="translate(7.008 -97.397)">
      <g id="组_2266" data-name="组 2266" transform="translate(0 371.615) rotate(-60)">
        <g id="路径_11001" data-name="路径 11001" transform="translate(19.032 0.789) rotate(45)" fill="none">
          <path d="M0,0,28.674.644l.644,26.444L.644,26.444Z" stroke="none"/>
          <path d="M 2.050424575805664 2.046548843383789 L 2.596847534179688 24.48702430725098 L 27.26768684387207 25.04102516174316 L 26.72126388549805 2.600549697875977 L 2.050424575805664 2.046548843383789 M -3.814697265625e-06 -3.814697265625e-06 L 28.67421531677246 0.6438961029052734 L 29.318115234375 27.08757781982422 L 0.6438961029052734 26.44367790222168 L -3.814697265625e-06 -3.814697265625e-06 Z" stroke="none" fill="#2c2c96"/>
        </g>
        <g id="路径_11002" data-name="路径 11002" transform="translate(19.539 13.608) rotate(45)" fill="none">
          <path d="M0,0,28.674.644l.644,26.444L.644,26.444Z" stroke="none"/>
          <path d="M 2.050424575805664 2.046548843383789 L 2.596847534179688 24.48702430725098 L 27.26768684387207 25.04102516174316 L 26.72126388549805 2.600549697875977 L 2.050424575805664 2.046548843383789 M -3.814697265625e-06 -3.814697265625e-06 L 28.67421531677246 0.6438961029052734 L 29.318115234375 27.08757781982422 L 0.6438961029052734 26.44367790222168 L -3.814697265625e-06 -3.814697265625e-06 Z" stroke="none" fill="#2c2c96"/>
        </g>
      </g>
      <g id="组_2323" data-name="组 2323" transform="matrix(-0.574, 0.819, -0.819, -0.574, 315.158, 111.148)">
        <g id="组_2273" data-name="组 2273" transform="translate(0.009 0)">
          <g id="组_2268" data-name="组 2268" transform="translate(0.001 0.021)">
            <g id="组_2267" data-name="组 2267" transform="translate(0 0)">
              <path id="路径_10400" data-name="路径 10400" d="M1.629,3.154A1.618,1.618,0,0,1,.548,2.647,1.725,1.725,0,0,1,.066,1.533,1.456,1.456,0,0,1,.453.456,1.531,1.531,0,0,1,2.584.543a1.777,1.777,0,0,1,.483,1.124,1.46,1.46,0,0,1-.388,1.075A1.349,1.349,0,0,1,1.629,3.154Z" fill="#2c2c96"/>
            </g>
          </g>
          <g id="组_2270" data-name="组 2270" transform="translate(7.657 0.342)">
            <g id="组_2269" data-name="组 2269" transform="translate(0 0)">
              <path id="路径_10401" data-name="路径 10401" d="M69.01,4.63a1.378,1.378,0,0,1,1.438-1.487h0A1.7,1.7,0,0,1,72.02,4.765h0a1.378,1.378,0,0,1-1.438,1.487h0A1.71,1.71,0,0,1,69.01,4.63Zm-7.659-.342A1.378,1.378,0,0,1,62.789,2.8h0a1.7,1.7,0,0,1,1.572,1.621h0A1.379,1.379,0,0,1,62.923,5.91h0A1.71,1.71,0,0,1,61.351,4.289Zm-7.659-.342A1.373,1.373,0,0,1,55.129,2.46h0A1.7,1.7,0,0,1,56.7,4.081h0a1.383,1.383,0,0,1-1.438,1.487h0A1.7,1.7,0,0,1,53.692,3.947Zm-7.659-.342A1.373,1.373,0,0,1,47.47,2.118h0a1.7,1.7,0,0,1,1.572,1.621h0A1.383,1.383,0,0,1,47.6,5.226h0A1.7,1.7,0,0,1,46.032,3.605Zm-7.659-.342A1.372,1.372,0,0,1,39.8,1.776h0A1.7,1.7,0,0,1,41.382,3.4h0a1.383,1.383,0,0,1-1.446,1.486h0A1.7,1.7,0,0,1,38.373,3.263Zm-7.667-.342a1.377,1.377,0,0,1,1.438-1.487h0a1.7,1.7,0,0,1,1.571,1.621h0a1.378,1.378,0,0,1-1.436,1.487h0A1.709,1.709,0,0,1,30.707,2.921Zm-7.659-.342a1.377,1.377,0,0,1,1.438-1.487h0a1.7,1.7,0,0,1,1.571,1.621h0A1.378,1.378,0,0,1,24.62,4.2h0A1.709,1.709,0,0,1,23.047,2.579Zm-7.659-.342A1.377,1.377,0,0,1,16.826.751h0A1.7,1.7,0,0,1,18.4,2.372h0a1.383,1.383,0,0,1-1.436,1.487h0A1.709,1.709,0,0,1,15.388,2.238ZM7.728,1.9A1.373,1.373,0,0,1,9.166.409h0A1.7,1.7,0,0,1,10.738,2.03h0A1.383,1.383,0,0,1,9.3,3.517h0A1.7,1.7,0,0,1,7.728,1.9ZM.067,1.554A1.373,1.373,0,0,1,1.505.067h0A1.7,1.7,0,0,1,3.077,1.688h0A1.382,1.382,0,0,1,1.639,3.175h0A1.7,1.7,0,0,1,.067,1.554Z" fill="#2c2c96"/>
            </g>
          </g>
          <g id="组_2272" data-name="组 2272" transform="translate(84.26 3.781)">
            <g id="组_2271" data-name="组 2271" transform="translate(0 0)">
              <path id="路径_10402" data-name="路径 10402" d="M1.638,3.154a1.608,1.608,0,0,1-1.08-.507A1.747,1.747,0,0,1,.066,1.533,1.47,1.47,0,0,1,.464.457,1.529,1.529,0,0,1,2.593.544a1.787,1.787,0,0,1,.491,1.124,1.465,1.465,0,0,1-.4,1.075A1.349,1.349,0,0,1,1.638,3.154Z" fill="#2c2c96"/>
            </g>
          </g>
        </g>
        <g id="组_2280" data-name="组 2280" transform="translate(0.379 8.553)">
          <g id="组_2275" data-name="组 2275" transform="translate(0.001 0.02)">
            <g id="组_2274" data-name="组 2274" transform="translate(0 0)">
              <path id="路径_10403" data-name="路径 10403" d="M1.629,3.156A1.649,1.649,0,0,1,.548,2.647,1.745,1.745,0,0,1,.066,1.534,1.468,1.468,0,0,1,.453.45a1.537,1.537,0,0,1,2.131.1,1.753,1.753,0,0,1,.483,1.122,1.463,1.463,0,0,1-.388,1.075A1.386,1.386,0,0,1,1.629,3.156Z" fill="#2c2c96"/>
            </g>
          </g>
          <g id="组_2277" data-name="组 2277" transform="translate(7.657 0.342)">
            <g id="组_2276" data-name="组 2276" transform="translate(0 0)">
              <path id="路径_10404" data-name="路径 10404" d="M69.01,4.63a1.378,1.378,0,0,1,1.438-1.487h0A1.7,1.7,0,0,1,72.02,4.765h0a1.378,1.378,0,0,1-1.438,1.488h0A1.711,1.711,0,0,1,69.01,4.63Zm-7.659-.342A1.378,1.378,0,0,1,62.789,2.8h0a1.7,1.7,0,0,1,1.572,1.621h0a1.382,1.382,0,0,1-1.438,1.488h0A1.711,1.711,0,0,1,61.351,4.289Zm-7.659-.342A1.373,1.373,0,0,1,55.129,2.46h0A1.7,1.7,0,0,1,56.7,4.081h0A1.383,1.383,0,0,1,55.264,5.57h0A1.7,1.7,0,0,1,53.692,3.947Zm-7.659-.342A1.373,1.373,0,0,1,47.47,2.118h0a1.7,1.7,0,0,1,1.572,1.621h0A1.383,1.383,0,0,1,47.6,5.228h0A1.7,1.7,0,0,1,46.032,3.605Zm-7.659-.342A1.372,1.372,0,0,1,39.8,1.776h0A1.7,1.7,0,0,1,41.374,3.4h0a1.378,1.378,0,0,1-1.438,1.488h0A1.7,1.7,0,0,1,38.373,3.263Zm-7.667-.342a1.377,1.377,0,0,1,1.438-1.487h0a1.7,1.7,0,0,1,1.571,1.621h0a1.379,1.379,0,0,1-1.436,1.489h0A1.709,1.709,0,0,1,30.707,2.921Zm-7.659-.342a1.377,1.377,0,0,1,1.438-1.487h0a1.7,1.7,0,0,1,1.571,1.621h0A1.379,1.379,0,0,1,24.62,4.2h0A1.709,1.709,0,0,1,23.047,2.579Zm-7.659-.342A1.372,1.372,0,0,1,16.826.751h0A1.7,1.7,0,0,1,18.4,2.372h0A1.383,1.383,0,0,1,16.961,3.86h0A1.7,1.7,0,0,1,15.388,2.238ZM7.728,1.9A1.373,1.373,0,0,1,9.166.409h0A1.7,1.7,0,0,1,10.738,2.03h0A1.383,1.383,0,0,1,9.3,3.519h0A1.7,1.7,0,0,1,7.728,1.9ZM.067,1.554A1.373,1.373,0,0,1,1.505.067h0A1.7,1.7,0,0,1,3.077,1.688h0A1.382,1.382,0,0,1,1.639,3.177h0A1.7,1.7,0,0,1,.067,1.554Z" fill="#2c2c96"/>
            </g>
          </g>
          <g id="组_2279" data-name="组 2279" transform="translate(84.26 3.78)">
            <g id="组_2278" data-name="组 2278" transform="translate(0 0)">
              <path id="路径_10405" data-name="路径 10405" d="M1.639,3.156a1.639,1.639,0,0,1-1.08-.508A1.751,1.751,0,0,1,.066,1.534,1.483,1.483,0,0,1,.464.451a1.535,1.535,0,0,1,2.129.1,1.763,1.763,0,0,1,.491,1.122,1.468,1.468,0,0,1-.4,1.075A1.374,1.374,0,0,1,1.639,3.156Z" fill="#2c2c96"/>
            </g>
          </g>
        </g>
        <g id="组_2287" data-name="组 2287" transform="translate(0.728 16.834)">
          <g id="组_2282" data-name="组 2282" transform="translate(0.001 0.027)">
            <g id="组_2281" data-name="组 2281" transform="translate(0 0)">
              <path id="路径_10406" data-name="路径 10406" d="M1.646,3.149a1.661,1.661,0,0,1-1.089-.5A1.769,1.769,0,0,1,.066,1.527,1.476,1.476,0,0,1,.462.451a1.537,1.537,0,0,1,2.131.1,1.74,1.74,0,0,1,.483,1.116,1.475,1.475,0,0,1-.388,1.085A1.38,1.38,0,0,1,1.646,3.149Z" fill="#2c2c96"/>
            </g>
          </g>
          <g id="组_2284" data-name="组 2284" transform="translate(7.667 0.342)">
            <g id="组_2283" data-name="组 2283" transform="translate(0 0)">
              <path id="路径_10407" data-name="路径 10407" d="M69.01,4.63a1.381,1.381,0,0,1,1.438-1.487h0A1.7,1.7,0,0,1,72.02,4.765h0a1.372,1.372,0,0,1-1.438,1.487h0A1.7,1.7,0,0,1,69.01,4.63Zm-7.659-.342A1.381,1.381,0,0,1,62.789,2.8h0a1.707,1.707,0,0,1,1.572,1.621h0A1.377,1.377,0,0,1,62.923,5.91h0A1.7,1.7,0,0,1,61.351,4.289Zm-7.659-.342A1.377,1.377,0,0,1,55.129,2.46h0A1.708,1.708,0,0,1,56.7,4.081h0a1.378,1.378,0,0,1-1.438,1.487h0A1.7,1.7,0,0,1,53.692,3.947Zm-7.659-.342A1.377,1.377,0,0,1,47.47,2.118h0a1.708,1.708,0,0,1,1.572,1.621h0A1.378,1.378,0,0,1,47.6,5.226h0A1.7,1.7,0,0,1,46.032,3.605Zm-7.667-.342A1.381,1.381,0,0,1,39.8,1.776h0A1.7,1.7,0,0,1,41.374,3.4h0a1.372,1.372,0,0,1-1.438,1.487h0A1.7,1.7,0,0,1,38.366,3.263Zm-7.659-.342a1.38,1.38,0,0,1,1.438-1.487h0a1.7,1.7,0,0,1,1.571,1.621h0a1.373,1.373,0,0,1-1.436,1.487h0A1.7,1.7,0,0,1,30.707,2.921Zm-7.659-.342a1.38,1.38,0,0,1,1.438-1.487h0a1.7,1.7,0,0,1,1.571,1.621h0A1.373,1.373,0,0,1,24.62,4.2h0A1.7,1.7,0,0,1,23.047,2.579Zm-7.659-.342A1.38,1.38,0,0,1,16.826.751h0A1.707,1.707,0,0,1,18.4,2.372h0a1.377,1.377,0,0,1-1.436,1.487h0A1.7,1.7,0,0,1,15.388,2.238ZM7.728,1.9A1.377,1.377,0,0,1,9.166.409h0A1.708,1.708,0,0,1,10.738,2.03h0A1.378,1.378,0,0,1,9.3,3.517h0A1.7,1.7,0,0,1,7.728,1.9ZM.067,1.554A1.377,1.377,0,0,1,1.505.067h0A1.707,1.707,0,0,1,3.077,1.688h0A1.377,1.377,0,0,1,1.639,3.175h0A1.7,1.7,0,0,1,.067,1.554Z" fill="#2c2c96"/>
            </g>
          </g>
          <g id="组_2286" data-name="组 2286" transform="translate(84.27 3.787)">
            <g id="组_2285" data-name="组 2285" transform="translate(0 0)">
              <path id="路径_10408" data-name="路径 10408" d="M1.638,3.148a1.632,1.632,0,0,1-1.079-.5A1.776,1.776,0,0,1,.066,1.527,1.47,1.47,0,0,1,.464.451a1.535,1.535,0,0,1,2.129.1,1.74,1.74,0,0,1,.483,1.116,1.475,1.475,0,0,1-.388,1.085A1.384,1.384,0,0,1,1.638,3.148Z" fill="#2c2c96"/>
            </g>
          </g>
        </g>
        <g id="组_2294" data-name="组 2294" transform="translate(1.097 25.388)">
          <g id="组_2289" data-name="组 2289" transform="translate(0.001 0.017)">
            <g id="组_2288" data-name="组 2288" transform="translate(0 0)">
              <path id="路径_10409" data-name="路径 10409" d="M1.646,3.156a1.663,1.663,0,0,1-1.089-.5A1.771,1.771,0,0,1,.066,1.536,1.494,1.494,0,0,1,.462.452a1.534,1.534,0,0,1,2.131.1,1.76,1.76,0,0,1,.483,1.124,1.443,1.443,0,0,1-.388,1.073A1.357,1.357,0,0,1,1.646,3.156Z" fill="#2c2c96"/>
            </g>
          </g>
          <g id="组_2291" data-name="组 2291" transform="translate(7.667 0.342)">
            <g id="组_2290" data-name="组 2290" transform="translate(0 0)">
              <path id="路径_10410" data-name="路径 10410" d="M69.01,4.63a1.377,1.377,0,0,1,1.438-1.487h0A1.7,1.7,0,0,1,72.02,4.765h0A1.376,1.376,0,0,1,70.582,6.25h0A1.709,1.709,0,0,1,69.01,4.63Zm-7.659-.342A1.373,1.373,0,0,1,62.789,2.8h0a1.7,1.7,0,0,1,1.572,1.621h0a1.381,1.381,0,0,1-1.438,1.485h0A1.7,1.7,0,0,1,61.351,4.289Zm-7.659-.342A1.372,1.372,0,0,1,55.129,2.46h0A1.7,1.7,0,0,1,56.7,4.081h0a1.382,1.382,0,0,1-1.438,1.485h0A1.7,1.7,0,0,1,53.692,3.947Zm-7.659-.342A1.372,1.372,0,0,1,47.47,2.118h0a1.7,1.7,0,0,1,1.572,1.621h0A1.382,1.382,0,0,1,47.6,5.225h0A1.7,1.7,0,0,1,46.032,3.605Zm-7.667-.342A1.376,1.376,0,0,1,39.8,1.776h0A1.7,1.7,0,0,1,41.382,3.4h0a1.382,1.382,0,0,1-1.446,1.485h0A1.708,1.708,0,0,1,38.366,3.263Zm-7.659-.342a1.376,1.376,0,0,1,1.438-1.487h0a1.7,1.7,0,0,1,1.571,1.621h0a1.377,1.377,0,0,1-1.436,1.485h0A1.707,1.707,0,0,1,30.707,2.921Zm-7.659-.342a1.376,1.376,0,0,1,1.438-1.487h0a1.7,1.7,0,0,1,1.571,1.621h0A1.377,1.377,0,0,1,24.62,4.2h0A1.707,1.707,0,0,1,23.047,2.579Zm-7.659-.342A1.372,1.372,0,0,1,16.826.751h0A1.7,1.7,0,0,1,18.4,2.372h0a1.381,1.381,0,0,1-1.436,1.485h0A1.7,1.7,0,0,1,15.388,2.238ZM7.728,1.9A1.372,1.372,0,0,1,9.166.409h0A1.7,1.7,0,0,1,10.738,2.03h0A1.382,1.382,0,0,1,9.3,3.515h0A1.7,1.7,0,0,1,7.728,1.9ZM.067,1.554A1.372,1.372,0,0,1,1.505.067h0A1.7,1.7,0,0,1,3.077,1.688h0A1.381,1.381,0,0,1,1.639,3.173h0A1.7,1.7,0,0,1,.067,1.554Z" fill="#2c2c96"/>
            </g>
          </g>
          <g id="组_2293" data-name="组 2293" transform="translate(84.269 3.779)">
            <g id="组_2292" data-name="组 2292" transform="translate(0 0)">
              <path id="路径_10411" data-name="路径 10411" d="M1.639,3.155a1.634,1.634,0,0,1-1.08-.5A1.781,1.781,0,0,1,.066,1.536,1.463,1.463,0,0,1,.464.458,1.525,1.525,0,0,1,2.593.546,1.784,1.784,0,0,1,3.084,1.67a1.462,1.462,0,0,1-.4,1.073A1.362,1.362,0,0,1,1.639,3.155Z" fill="#2c2c96"/>
            </g>
          </g>
        </g>
        <g id="组_2301" data-name="组 2301" transform="translate(1.442 33.148)">
          <g id="组_2296" data-name="组 2296" transform="translate(0.001 0.024)">
            <g id="组_2295" data-name="组 2295" transform="translate(0 0)">
              <path id="路径_10412" data-name="路径 10412" d="M1.629,3.15a1.651,1.651,0,0,1-1.081-.5A1.766,1.766,0,0,1,.066,1.53,1.467,1.467,0,0,1,.453.453a1.531,1.531,0,0,1,2.131.1,1.736,1.736,0,0,1,.483,1.115,1.482,1.482,0,0,1-.388,1.083A1.392,1.392,0,0,1,1.629,3.15Z" fill="#2c2c96"/>
            </g>
          </g>
          <g id="组_2298" data-name="组 2298" transform="translate(7.657 0.342)">
            <g id="组_2297" data-name="组 2297" transform="translate(0 0)">
              <path id="路径_10413" data-name="路径 10413" d="M69.01,4.63a1.381,1.381,0,0,1,1.438-1.487h0A1.7,1.7,0,0,1,72.02,4.765h0a1.373,1.373,0,0,1-1.438,1.487h0A1.7,1.7,0,0,1,69.01,4.63Zm-7.659-.342A1.378,1.378,0,0,1,62.789,2.8h0a1.7,1.7,0,0,1,1.572,1.621h0A1.374,1.374,0,0,1,62.923,5.91h0A1.7,1.7,0,0,1,61.351,4.289Zm-7.659-.342A1.377,1.377,0,0,1,55.129,2.46h0A1.708,1.708,0,0,1,56.7,4.081h0a1.378,1.378,0,0,1-1.438,1.487h0A1.7,1.7,0,0,1,53.692,3.947Zm-7.659-.342A1.377,1.377,0,0,1,47.47,2.118h0a1.708,1.708,0,0,1,1.572,1.621h0A1.378,1.378,0,0,1,47.6,5.226h0A1.7,1.7,0,0,1,46.032,3.605Zm-7.667-.342a1.383,1.383,0,0,1,1.446-1.486h0A1.7,1.7,0,0,1,41.374,3.4h0a1.372,1.372,0,0,1-1.428,1.487h0A1.706,1.706,0,0,1,38.366,3.263Zm-7.659-.342a1.38,1.38,0,0,1,1.438-1.487h0a1.7,1.7,0,0,1,1.571,1.621h0a1.374,1.374,0,0,1-1.436,1.487h0A1.7,1.7,0,0,1,30.707,2.921Zm-7.659-.342a1.38,1.38,0,0,1,1.438-1.487h0a1.7,1.7,0,0,1,1.571,1.621h0A1.374,1.374,0,0,1,24.62,4.2h0A1.7,1.7,0,0,1,23.047,2.579Zm-7.659-.342A1.376,1.376,0,0,1,16.826.751h0A1.707,1.707,0,0,1,18.4,2.372h0a1.378,1.378,0,0,1-1.436,1.487h0A1.7,1.7,0,0,1,15.388,2.238ZM7.728,1.9A1.377,1.377,0,0,1,9.166.409h0A1.708,1.708,0,0,1,10.738,2.03h0A1.378,1.378,0,0,1,9.3,3.517h0A1.7,1.7,0,0,1,7.728,1.9ZM.067,1.554A1.375,1.375,0,0,1,1.5.067h0a1.708,1.708,0,0,1,1.58,1.621h0A1.379,1.379,0,0,1,1.632,3.175h0A1.7,1.7,0,0,1,.067,1.554Z" fill="#2c2c96"/>
            </g>
          </g>
          <g id="组_2300" data-name="组 2300" transform="translate(84.26 3.784)">
            <g id="组_2299" data-name="组 2299" transform="translate(0 0)">
              <path id="路径_10414" data-name="路径 10414" d="M1.646,3.151a1.646,1.646,0,0,1-1.087-.5A1.772,1.772,0,0,1,.066,1.53,1.468,1.468,0,0,1,.464.453a1.529,1.529,0,0,1,2.129.1,1.736,1.736,0,0,1,.483,1.115,1.482,1.482,0,0,1-.388,1.083A1.387,1.387,0,0,1,1.646,3.151Z" fill="#2c2c96"/>
            </g>
          </g>
        </g>
        <g id="组_2308" data-name="组 2308" transform="translate(1.802 41.702)">
          <g id="组_2303" data-name="组 2303" transform="translate(0.001 0.018)">
            <g id="组_2302" data-name="组 2302" transform="translate(0 0)">
              <path id="路径_10415" data-name="路径 10415" d="M1.639,3.155A1.618,1.618,0,0,1,.557,2.648,1.753,1.753,0,0,1,.066,1.534,1.465,1.465,0,0,1,.462.458,1.527,1.527,0,0,1,2.593.546a1.766,1.766,0,0,1,.491,1.122,1.466,1.466,0,0,1-.4,1.075A1.362,1.362,0,0,1,1.639,3.155Z" fill="#2c2c96"/>
            </g>
          </g>
          <g id="组_2305" data-name="组 2305" transform="translate(7.667 0.342)">
            <g id="组_2304" data-name="组 2304" transform="translate(0 0)">
              <path id="路径_10416" data-name="路径 10416" d="M69.01,4.629a1.375,1.375,0,0,1,1.438-1.485h0A1.693,1.693,0,0,1,72.02,4.763h0A1.377,1.377,0,0,1,70.582,6.25h0A1.709,1.709,0,0,1,69.01,4.629Zm-7.659-.342A1.372,1.372,0,0,1,62.789,2.8h0a1.7,1.7,0,0,1,1.572,1.619h0a1.381,1.381,0,0,1-1.438,1.487h0A1.7,1.7,0,0,1,61.351,4.287Zm-7.659-.342A1.371,1.371,0,0,1,55.129,2.46h0A1.7,1.7,0,0,1,56.7,4.08h0a1.382,1.382,0,0,1-1.438,1.487h0A1.7,1.7,0,0,1,53.692,3.945ZM46.032,3.6A1.371,1.371,0,0,1,47.47,2.118h0a1.7,1.7,0,0,1,1.572,1.619h0A1.382,1.382,0,0,1,47.6,5.225h0A1.7,1.7,0,0,1,46.032,3.6Zm-7.667-.342A1.375,1.375,0,0,1,39.8,1.776h0a1.7,1.7,0,0,1,1.58,1.62h0a1.383,1.383,0,0,1-1.446,1.486h0A1.709,1.709,0,0,1,38.366,3.261ZM30.706,2.92a1.375,1.375,0,0,1,1.438-1.485h0a1.694,1.694,0,0,1,1.571,1.619h0a1.377,1.377,0,0,1-1.436,1.487h0A1.708,1.708,0,0,1,30.706,2.92Zm-7.659-.342a1.375,1.375,0,0,1,1.438-1.485h0a1.694,1.694,0,0,1,1.571,1.619h0A1.377,1.377,0,0,1,24.62,4.2h0A1.708,1.708,0,0,1,23.047,2.578Zm-7.659-.342A1.37,1.37,0,0,1,16.826.751h0A1.7,1.7,0,0,1,18.4,2.37h0a1.382,1.382,0,0,1-1.436,1.487h0A1.7,1.7,0,0,1,15.388,2.236ZM7.728,1.894A1.371,1.371,0,0,1,9.166.409h0a1.7,1.7,0,0,1,1.572,1.619h0A1.382,1.382,0,0,1,9.3,3.515h0A1.7,1.7,0,0,1,7.728,1.894ZM.067,1.552A1.371,1.371,0,0,1,1.505.067h0A1.7,1.7,0,0,1,3.077,1.687h0A1.381,1.381,0,0,1,1.639,3.173h0A1.7,1.7,0,0,1,.067,1.552Z" fill="#2c2c96"/>
            </g>
          </g>
          <g id="组_2307" data-name="组 2307" transform="translate(84.277 3.78)">
            <g id="组_2306" data-name="组 2306" transform="translate(0 0)">
              <path id="路径_10417" data-name="路径 10417" d="M1.631,3.154a1.609,1.609,0,0,1-1.08-.507A1.725,1.725,0,0,1,.066,1.533,1.454,1.454,0,0,1,.456.457a1.52,1.52,0,0,1,2.129.1,1.727,1.727,0,0,1,.483,1.115A1.46,1.46,0,0,1,2.68,2.742,1.349,1.349,0,0,1,1.631,3.154Z" fill="#2c2c96"/>
            </g>
          </g>
        </g>
        <g id="组_2315" data-name="组 2315" transform="translate(2.161 49.988)">
          <g id="组_2310" data-name="组 2310" transform="translate(0.001 0.02)">
            <g id="组_2309" data-name="组 2309" transform="translate(0 0)">
              <path id="路径_10418" data-name="路径 10418" d="M1.646,3.156A1.657,1.657,0,0,1,.557,2.65,1.754,1.754,0,0,1,.066,1.534,1.483,1.483,0,0,1,.462.45a1.54,1.54,0,0,1,2.131.1,1.748,1.748,0,0,1,.483,1.124,1.461,1.461,0,0,1-.388,1.077A1.386,1.386,0,0,1,1.646,3.156Z" fill="#2c2c96"/>
            </g>
          </g>
          <g id="组_2312" data-name="组 2312" transform="translate(7.667 0.342)">
            <g id="组_2311" data-name="组 2311" transform="translate(0 0)">
              <path id="路径_10419" data-name="路径 10419" d="M69.01,4.63a1.378,1.378,0,0,1,1.438-1.487h0A1.7,1.7,0,0,1,72.02,4.765h0a1.377,1.377,0,0,1-1.438,1.487h0A1.709,1.709,0,0,1,69.01,4.63Zm-7.659-.342A1.378,1.378,0,0,1,62.789,2.8h0a1.7,1.7,0,0,1,1.572,1.621h0A1.381,1.381,0,0,1,62.923,5.91h0A1.709,1.709,0,0,1,61.351,4.289Zm-7.659-.342A1.373,1.373,0,0,1,55.129,2.46h0A1.7,1.7,0,0,1,56.7,4.081h0a1.382,1.382,0,0,1-1.438,1.487h0A1.7,1.7,0,0,1,53.692,3.947Zm-7.659-.342A1.373,1.373,0,0,1,47.47,2.118h0a1.7,1.7,0,0,1,1.572,1.621h0A1.382,1.382,0,0,1,47.6,5.226h0A1.7,1.7,0,0,1,46.032,3.605Zm-7.667-.342A1.377,1.377,0,0,1,39.8,1.776h0A1.7,1.7,0,0,1,41.374,3.4h0a1.377,1.377,0,0,1-1.438,1.487h0A1.709,1.709,0,0,1,38.366,3.263Zm-7.659-.342a1.377,1.377,0,0,1,1.438-1.487h0a1.7,1.7,0,0,1,1.571,1.621h0a1.377,1.377,0,0,1-1.436,1.487h0A1.708,1.708,0,0,1,30.707,2.921Zm-7.659-.342a1.377,1.377,0,0,1,1.438-1.487h0a1.7,1.7,0,0,1,1.571,1.621h0A1.377,1.377,0,0,1,24.62,4.2h0A1.708,1.708,0,0,1,23.047,2.579Zm-7.659-.342A1.372,1.372,0,0,1,16.826.751h0A1.7,1.7,0,0,1,18.4,2.372h0a1.382,1.382,0,0,1-1.436,1.487h0A1.7,1.7,0,0,1,15.388,2.238ZM7.728,1.9A1.373,1.373,0,0,1,9.166.409h0A1.7,1.7,0,0,1,10.738,2.03h0A1.382,1.382,0,0,1,9.3,3.517h0A1.7,1.7,0,0,1,7.728,1.9ZM.067,1.554A1.373,1.373,0,0,1,1.505.067h0A1.7,1.7,0,0,1,3.077,1.688h0A1.381,1.381,0,0,1,1.639,3.175h0A1.7,1.7,0,0,1,.067,1.554Z" fill="#2c2c96"/>
            </g>
          </g>
          <g id="组_2314" data-name="组 2314" transform="translate(84.269 3.78)">
            <g id="组_2313" data-name="组 2313" transform="translate(0 0)">
              <path id="路径_10420" data-name="路径 10420" d="M1.639,3.155A1.658,1.658,0,0,1,.559,2.65,1.748,1.748,0,0,1,.066,1.534,1.492,1.492,0,0,1,.464.45a1.538,1.538,0,0,1,2.129.1,1.764,1.764,0,0,1,.483,1.124,1.461,1.461,0,0,1-.388,1.077A1.39,1.39,0,0,1,1.639,3.155Z" fill="#2c2c96"/>
            </g>
          </g>
        </g>
        <g id="组_2322" data-name="组 2322" transform="translate(2.539 58.536)">
          <g id="组_2317" data-name="组 2317" transform="translate(0.001 0.019)">
            <g id="组_2316" data-name="组 2316" transform="translate(0 0)">
              <path id="路径_10421" data-name="路径 10421" d="M1.629,3.154a1.639,1.639,0,0,1-1.081-.5,1.736,1.736,0,0,1-.482-1.12A1.461,1.461,0,0,1,.453.457a1.522,1.522,0,0,1,2.131.1,1.743,1.743,0,0,1,.483,1.115,1.473,1.473,0,0,1-.388,1.082A1.368,1.368,0,0,1,1.629,3.154Z" fill="#2c2c96"/>
            </g>
          </g>
          <g id="组_2319" data-name="组 2319" transform="translate(7.657 0.342)">
            <g id="组_2318" data-name="组 2318" transform="translate(0 0)">
              <path id="路径_10422" data-name="路径 10422" d="M69.01,4.629a1.38,1.38,0,0,1,1.438-1.485h0a1.7,1.7,0,0,1,1.572,1.62h0A1.372,1.372,0,0,1,70.582,6.25h0A1.7,1.7,0,0,1,69.01,4.629Zm-7.659-.342A1.38,1.38,0,0,1,62.789,2.8h0a1.7,1.7,0,0,1,1.572,1.62h0a1.377,1.377,0,0,1-1.438,1.487h0A1.7,1.7,0,0,1,61.351,4.287Zm-7.659-.342A1.376,1.376,0,0,1,55.129,2.46h0A1.706,1.706,0,0,1,56.7,4.08h0a1.378,1.378,0,0,1-1.438,1.487h0A1.7,1.7,0,0,1,53.692,3.945ZM46.032,3.6A1.376,1.376,0,0,1,47.47,2.118h0a1.706,1.706,0,0,1,1.572,1.62h0A1.378,1.378,0,0,1,47.6,5.225h0A1.7,1.7,0,0,1,46.032,3.6Zm-7.667-.342A1.38,1.38,0,0,1,39.8,1.776h0A1.7,1.7,0,0,1,41.374,3.4h0a1.372,1.372,0,0,1-1.438,1.487h0A1.7,1.7,0,0,1,38.366,3.261ZM30.706,2.92a1.379,1.379,0,0,1,1.438-1.485h0a1.7,1.7,0,0,1,1.571,1.619h0a1.373,1.373,0,0,1-1.436,1.487h0A1.7,1.7,0,0,1,30.706,2.92Zm-7.659-.342a1.379,1.379,0,0,1,1.438-1.485h0a1.7,1.7,0,0,1,1.571,1.619h0A1.373,1.373,0,0,1,24.62,4.2h0A1.7,1.7,0,0,1,23.047,2.578Zm-7.659-.342A1.379,1.379,0,0,1,16.826.751h0A1.706,1.706,0,0,1,18.4,2.37h0a1.377,1.377,0,0,1-1.436,1.487h0A1.7,1.7,0,0,1,15.388,2.236ZM7.728,1.894A1.376,1.376,0,0,1,9.166.409h0a1.706,1.706,0,0,1,1.572,1.62h0A1.378,1.378,0,0,1,9.3,3.515h0A1.7,1.7,0,0,1,7.728,1.894ZM.067,1.552A1.376,1.376,0,0,1,1.505.067h0a1.7,1.7,0,0,1,1.572,1.62h0A1.377,1.377,0,0,1,1.639,3.173h0A1.7,1.7,0,0,1,.067,1.552Z" fill="#2c2c96"/>
            </g>
          </g>
          <g id="组_2321" data-name="组 2321" transform="translate(84.26 3.782)">
            <g id="组_2320" data-name="组 2320" transform="translate(0 0)">
              <path id="路径_10423" data-name="路径 10423" d="M1.638,3.151a1.629,1.629,0,0,1-1.08-.5A1.761,1.761,0,0,1,.066,1.53,1.473,1.473,0,0,1,.464.454a1.527,1.527,0,0,1,2.129.1,1.753,1.753,0,0,1,.491,1.116,1.478,1.478,0,0,1-.4,1.081A1.368,1.368,0,0,1,1.638,3.151Z" fill="#2c2c96"/>
            </g>
          </g>
        </g>
      </g>
      <g id="路径_11003" data-name="路径 11003" transform="translate(446.532 113.57) rotate(-45)" fill="none" stroke-dasharray="6">
        <path d="M0,0,168.485,7.873l7.9,169.112L7.9,169.112Z" stroke="none"/>
        <path d="M 0 0 L 2.006561279296875 0.0937652587890625 L 2.006561279296875 0.0937652587890625 C 3.74853515625 0.1751556396484375 5.993453979492188 0.280059814453125 5.993453979492188 0.280059814453125 L 5.900100708007812 2.277877807617188 L 2.100326538085938 2.100311279296875 L 2.181320190429688 3.833206176757812 L 0.1834869384765625 3.926559448242188 L 0 0 Z M 11.9869384765625 0.5601348876953125 C 11.9869384765625 0.5601348876953125 17.98039245605469 0.8402099609375 17.98039245605469 0.8402099609375 L 17.88702392578125 2.8380126953125 L 11.89356994628906 2.557952880859375 L 11.9869384765625 0.5601348876953125 Z M 23.97383117675781 1.120285034179688 C 23.97383117675781 1.120285034179688 25.35667419433594 1.184890747070312 26.79391479492188 1.252044677734375 L 26.79644775390625 1.252166748046875 C 26.80082702636719 1.25238037109375 26.80482482910156 1.2525634765625 26.80921936035156 1.252761840820312 L 26.81492614746094 1.253036499023438 C 26.81639099121094 1.253097534179688 26.81771850585938 1.253158569335938 26.81918334960938 1.25323486328125 L 26.8426513671875 1.25433349609375 C 26.843017578125 1.254348754882812 26.8433837890625 1.254364013671875 26.84375 1.254379272460938 L 29.96731567382812 1.400344848632812 L 29.87396240234375 3.398162841796875 L 23.88047790527344 3.118087768554688 L 23.97383117675781 1.120285034179688 Z M 35.96076965332031 1.680404663085938 L 41.9542236328125 1.960479736328125 L 41.86085510253906 3.958297729492188 L 35.86741638183594 3.678237915039062 L 35.96076965332031 1.680404663085938 Z M 47.94769287109375 2.240554809570312 L 53.94114685058594 2.520614624023438 L 53.84779357910156 4.518417358398438 L 47.85433959960938 4.238372802734375 L 47.94769287109375 2.24053955078125 Z M 59.93460083007812 2.800689697265625 C 59.93460083007812 2.800689697265625 65.92805480957031 3.080764770507812 65.92805480957031 3.080764770507812 L 65.834716796875 5.078567504882812 L 59.84123992919922 4.798492431640625 L 59.93460083007812 2.800689697265625 Z M 71.92153167724609 3.360824584960938 C 71.92153167724609 3.360824584960938 77.91497802734375 3.640899658203125 77.91497802734375 3.640899658203125 L 77.82162475585938 5.638702392578125 L 71.82817077636719 5.358642578125 L 71.92153167724609 3.360824584960938 Z M 83.90843200683594 3.920974731445312 C 83.90843200683594 3.920974731445312 85.52303314208984 3.996414184570312 87.07621765136719 4.068984985351562 L 89.90190887451172 4.201034545898438 L 89.80855560302734 6.1988525390625 L 83.81507873535156 5.918777465820312 L 83.90843200683594 3.920974731445312 Z M 95.89536285400391 4.481094360351562 L 101.8888168334961 4.76116943359375 L 101.7954559326172 6.759002685546875 L 95.802001953125 6.478927612304688 L 95.89536285400391 4.481094360351562 Z M 107.8822937011719 5.041229248046875 L 113.6709594726562 5.311737060546875 C 113.6710357666016 5.311737060546875 113.6711959838867 5.311752319335938 113.6712646484375 5.311752319335938 L 113.7841796875 5.317031860351562 C 113.7847747802734 5.317047119140625 113.7853546142578 5.31707763671875 113.7859497070312 5.317108154296875 L 113.7965698242188 5.317611694335938 C 113.7967071533203 5.317611694335938 113.7968444824219 5.317611694335938 113.7969818115234 5.317626953125 L 113.7982788085938 5.31768798828125 C 113.7985076904297 5.317703247070312 113.7987899780273 5.317703247070312 113.7990188598633 5.317718505859375 L 113.8114776611328 5.31829833984375 C 113.8114776611328 5.31829833984375 113.8114929199219 5.31829833984375 113.8114929199219 5.31829833984375 L 113.8186187744141 5.318634033203125 C 113.8190155029297 5.318649291992188 113.8193588256836 5.31866455078125 113.8197479248047 5.318695068359375 L 113.8283233642578 5.319091796875 C 113.8289413452148 5.319122314453125 113.8295822143555 5.31915283203125 113.8301849365234 5.319183349609375 L 113.8314895629883 5.319244384765625 C 113.8322601318359 5.31927490234375 113.8329925537109 5.319305419921875 113.833740234375 5.3193359375 L 113.8349990844727 5.31939697265625 C 113.8350677490234 5.31939697265625 113.8351211547852 5.319412231445312 113.8351898193359 5.319412231445312 L 113.8365249633789 5.319473266601562 C 113.8366241455078 5.319473266601562 113.8366546630859 5.319473266601562 113.8367538452148 5.319488525390625 L 113.8395233154297 5.319610595703125 C 113.8396453857422 5.319625854492188 113.8397674560547 5.319625854492188 113.8398971557617 5.319625854492188 L 113.8411865234375 5.319686889648438 C 113.8413162231445 5.3197021484375 113.8414154052734 5.3197021484375 113.8415374755859 5.3197021484375 L 113.8439788818359 5.31982421875 C 113.8446960449219 5.319854736328125 113.845329284668 5.31988525390625 113.8460235595703 5.319915771484375 L 113.8466339111328 5.3199462890625 C 113.8468627929688 5.319961547851562 113.8471221923828 5.319961547851562 113.8473510742188 5.319976806640625 L 113.8480682373047 5.32000732421875 C 113.8481750488281 5.320022583007812 113.8483734130859 5.320022583007812 113.8484802246094 5.320037841796875 L 113.8496551513672 5.320083618164062 C 113.8497085571289 5.320083618164062 113.8498077392578 5.320098876953125 113.8498687744141 5.320098876953125 L 113.8504486083984 5.32012939453125 C 113.8507232666016 5.32012939453125 113.8510360717773 5.320144653320312 113.8513031005859 5.320159912109375 L 113.8520355224609 5.3201904296875 C 113.852294921875 5.320205688476562 113.8525543212891 5.320220947265625 113.8528060913086 5.320236206054688 L 113.8545684814453 5.3203125 C 113.854736328125 5.320327758789062 113.8548965454102 5.320327758789062 113.8550643920898 5.320343017578125 L 113.8552703857422 5.320343017578125 C 113.8555603027344 5.320358276367188 113.855842590332 5.32037353515625 113.8561248779297 5.320388793945312 L 113.856689453125 5.320419311523438 C 113.8567962646484 5.320419311523438 113.8569641113281 5.3204345703125 113.8570861816406 5.3204345703125 L 113.8596878051758 5.320556640625 C 113.8600158691406 5.320571899414062 113.8602676391602 5.320587158203125 113.8605804443359 5.320602416992188 L 113.8606338500977 5.320602416992188 C 113.861198425293 5.320632934570312 113.8617095947266 5.320648193359375 113.8622360229492 5.3206787109375 L 113.8628997802734 5.320709228515625 C 113.863037109375 5.320709228515625 113.8631591796875 5.320724487304688 113.8632888793945 5.320724487304688 L 113.8636169433594 5.32073974609375 C 113.8637466430664 5.32073974609375 113.8639068603516 5.320755004882812 113.8640289306641 5.320755004882812 L 113.8646011352539 5.320785522460938 C 113.86474609375 5.320785522460938 113.8648834228516 5.32080078125 113.8650283813477 5.32080078125 L 113.8654174804688 5.320816040039062 C 113.8655242919922 5.320831298828125 113.8656005859375 5.320831298828125 113.8656997680664 5.320831298828125 L 113.8663101196289 5.32086181640625 C 113.86669921875 5.320877075195312 113.8671112060547 5.320907592773438 113.8674774169922 5.3209228515625 L 113.8676452636719 5.3209228515625 C 113.8678588867188 5.320938110351562 113.8680725097656 5.320953369140625 113.868278503418 5.320953369140625 L 113.868293762207 5.320953369140625 C 113.8684539794922 5.320968627929688 113.8686141967773 5.320968627929688 113.8687744140625 5.32098388671875 L 113.8757476806641 5.321304321289062 L 113.7823867797852 7.319107055664062 L 107.788932800293 7.0390625 L 107.8822937011719 5.041229248046875 Z M 119.8691940307617 5.60137939453125 C 119.8691940307617 5.60137939453125 125.8626708984375 5.881454467773438 125.8626708984375 5.881454467773438 L 125.7693176269531 7.879257202148438 L 119.7758331298828 7.59918212890625 L 119.8691940307617 5.60137939453125 Z M 131.8561248779297 6.161514282226562 C 131.8561248779297 6.161514282226562 137.8495788574219 6.44158935546875 137.8495788574219 6.44158935546875 L 137.7562255859375 8.439407348632812 L 131.7627716064453 8.159332275390625 L 131.8561248779297 6.161514282226562 Z M 143.8430480957031 6.721649169921875 L 149.8365020751953 7.001724243164062 L 149.7431488037109 8.999542236328125 L 143.7496948242188 8.719467163085938 L 143.8430480957031 6.721633911132812 Z M 155.8299560546875 7.281784057617188 L 161.8234252929688 7.561859130859375 L 161.7300720214844 9.5596923828125 L 155.7366027832031 9.279617309570312 L 155.8299560546875 7.281784057617188 Z M 167.8168792724609 7.8419189453125 L 168.3990325927734 7.869125366210938 C 168.3992309570312 7.869140625 168.3994293212891 7.869140625 168.3996276855469 7.869155883789062 L 168.4091949462891 7.869598388671875 C 168.4104614257812 7.869659423828125 168.4117126464844 7.869720458984375 168.4129333496094 7.869781494140625 L 168.4147033691406 7.869857788085938 C 168.4157867431641 7.869918823242188 168.4169006347656 7.869964599609375 168.41796875 7.870010375976562 L 168.4196929931641 7.870101928710938 C 168.4199371337891 7.870101928710938 168.420166015625 7.8701171875 168.42041015625 7.870132446289062 L 168.4222106933594 7.870208740234375 C 168.4223327636719 7.870223999023438 168.4224700927734 7.870223999023438 168.4225921630859 7.870223999023438 L 168.4248199462891 7.870330810546875 C 168.4248657226562 7.870330810546875 168.4249114990234 7.870346069335938 168.4249572753906 7.870346069335938 L 168.4267272949219 7.87042236328125 C 168.4270172119141 7.870437622070312 168.4272918701172 7.870452880859375 168.4275817871094 7.870468139648438 L 168.4287109375 7.870513916015625 C 168.42919921875 7.87054443359375 168.4296417236328 7.870559692382812 168.4301300048828 7.870574951171875 L 168.4313354492188 7.870635986328125 C 168.4315795898438 7.870651245117188 168.4318237304688 7.87066650390625 168.4320678710938 7.87066650390625 L 168.4338836669922 7.870758056640625 C 168.4339904785156 7.870758056640625 168.4341278076172 7.870773315429688 168.4342498779297 7.870773315429688 L 168.4354248046875 7.870834350585938 C 168.4359588623047 7.870849609375 168.4365081787109 7.870880126953125 168.4370422363281 7.87091064453125 L 168.4376373291016 7.870925903320312 C 168.4380645751953 7.870956420898438 168.4384918212891 7.8709716796875 168.4389190673828 7.870986938476562 L 168.4397888183594 7.87103271484375 C 168.4401702880859 7.871047973632812 168.4405670166016 7.871063232421875 168.4409637451172 7.87109375 L 168.4419097900391 7.871139526367188 C 168.4444885253906 7.871246337890625 168.4469757080078 7.871368408203125 168.4493408203125 7.871475219726562 L 168.449462890625 7.871490478515625 C 168.45068359375 7.871536254882812 168.4518432617188 7.871597290039062 168.4530029296875 7.871658325195312 L 168.4531707763672 7.871658325195312 C 168.4541473388672 7.8717041015625 168.4551239013672 7.871749877929688 168.4560699462891 7.871795654296875 L 168.4571228027344 7.871841430664062 C 168.4659576416016 7.87225341796875 168.4729309082031 7.872589111328125 168.4777374267578 7.872802734375 L 168.4779510498047 7.872817993164062 C 168.4827575683594 7.873046875 168.4853363037109 7.8731689453125 168.4853363037109 7.8731689453125 L 168.4853363037109 7.8731689453125 L 168.4853363037109 7.8731689453125 L 168.4853363037109 7.8731689453125 C 168.4853363037109 7.8731689453125 168.4892120361328 7.956146240234375 168.4960021972656 8.101226806640625 L 168.4960479736328 8.10247802734375 C 168.4994506835938 8.175125122070312 168.5035705566406 8.263259887695312 168.5082855224609 8.364334106445312 L 168.5083160400391 8.364974975585938 C 168.5106811523438 8.41558837890625 168.5131988525391 8.469253540039062 168.5158386230469 8.526016235351562 L 168.5158538818359 8.526321411132812 C 168.5171508789062 8.554107666015625 168.5184936523438 8.582717895507812 168.5198516845703 8.611862182617188 L 168.52001953125 8.615264892578125 C 168.5203399658203 8.622146606445312 168.5206604003906 8.629074096679688 168.5209808349609 8.636032104492188 L 168.52099609375 8.636245727539062 C 168.5213470458984 8.643798828125 168.5216979980469 8.651153564453125 168.5220489501953 8.658798217773438 L 168.5220642089844 8.658966064453125 C 168.5225830078125 8.670181274414062 168.5231170654297 8.681549072265625 168.5236511230469 8.692947387695312 L 168.5245513916016 8.71246337890625 C 168.5247802734375 8.71722412109375 168.5250091552734 8.722244262695312 168.5252380371094 8.72705078125 L 168.5253601074219 8.729736328125 C 168.5255126953125 8.733062744140625 168.5256805419922 8.736557006835938 168.5258331298828 8.739883422851562 L 168.5259246826172 8.7418212890625 C 168.5260620117188 8.744674682617188 168.5261993408203 8.74749755859375 168.5263366699219 8.7503662109375 L 168.5264892578125 8.75384521484375 C 168.5268249511719 8.761077880859375 168.5271759033203 8.768508911132812 168.5275115966797 8.775787353515625 L 168.527587890625 8.77716064453125 C 168.5278015136719 8.78192138671875 168.5280303955078 8.786849975585938 168.5282592773438 8.791641235351562 L 168.5288848876953 8.804901123046875 C 168.5291748046875 8.811386108398438 168.5294799804688 8.81781005859375 168.52978515625 8.824325561523438 L 168.5298461914062 8.825714111328125 C 168.5302276611328 8.833648681640625 168.5305786132812 8.841278076171875 168.5309448242188 8.849288940429688 L 168.5310211181641 8.850677490234375 C 168.5313720703125 8.858306884765625 168.5317230224609 8.865768432617188 168.5320739746094 8.873443603515625 L 168.5322113037109 8.876113891601562 C 168.532470703125 8.8818359375 168.5327301025391 8.887496948242188 168.5330047607422 8.893280029296875 L 168.5336456298828 8.906951904296875 C 168.5337219238281 8.908523559570312 168.5337982177734 8.91009521484375 168.5338745117188 8.91168212890625 L 168.5345764160156 8.92694091796875 C 168.5347442626953 8.930526733398438 168.534912109375 8.934036254882812 168.5350799560547 8.937637329101562 L 168.5351104736328 8.938400268554688 C 168.5352020263672 8.94012451171875 168.5352783203125 8.942001342773438 168.5353698730469 8.9437255859375 L 168.5354919433594 8.9464111328125 C 168.5355224609375 8.946945190429688 168.5355377197266 8.947402954101562 168.5355682373047 8.94793701171875 L 168.5357818603516 8.95263671875 C 168.5358428955078 8.9539794921875 168.5359191894531 8.9554443359375 168.5359802246094 8.956771850585938 L 168.5360107421875 8.957534790039062 C 168.5363006591797 8.96368408203125 168.5365753173828 8.969711303710938 168.536865234375 8.975906372070312 L 168.5369262695312 8.977020263671875 C 168.537109375 8.980926513671875 168.5372772216797 8.984817504882812 168.5374603271484 8.988739013671875 L 168.5375518798828 8.99041748046875 C 168.5376129150391 8.991912841796875 168.5376892089844 8.99334716796875 168.5377502441406 8.994842529296875 L 168.5381927490234 9.004302978515625 C 168.5383605957031 9.007843017578125 168.5385284423828 9.011428833007812 168.5386962890625 9.014968872070312 L 168.5387878417969 9.016860961914062 C 168.5388336181641 9.017807006835938 168.5388641357422 9.018753051757812 168.5389099121094 9.01971435546875 L 168.5403900146484 9.051239013671875 C 168.5404052734375 9.051513671875 168.5404205322266 9.051849365234375 168.5404357910156 9.0521240234375 L 168.5406646728516 9.057144165039062 C 168.5407104492188 9.058258056640625 168.5407562255859 9.0592041015625 168.5408172607422 9.060317993164062 L 168.5409088134766 9.0623779296875 C 168.5409851074219 9.06402587890625 168.5410614013672 9.065780639648438 168.5411376953125 9.06744384765625 L 168.5412139892578 9.0689697265625 C 168.5412902832031 9.070480346679688 168.5413665771484 9.072113037109375 168.5414276123047 9.073638916015625 L 168.5415954589844 9.077072143554688 C 168.5416259765625 9.07763671875 168.5416412353516 9.078109741210938 168.5416717529297 9.078659057617188 L 168.5420074462891 9.085845947265625 C 168.5421295166016 9.088623046875 168.5422668457031 9.091339111328125 168.5423889160156 9.0941162109375 L 168.5431976318359 9.111465454101562 C 168.5432739257812 9.113006591796875 168.5433502197266 9.114761352539062 168.5434265136719 9.116302490234375 L 168.543701171875 9.12225341796875 C 168.5438995361328 9.126312255859375 168.5440673828125 9.130035400390625 168.5442657470703 9.134109497070312 L 168.5443267822266 9.135482788085938 C 168.5447082519531 9.143783569335938 168.5451049804688 9.152145385742188 168.5455017089844 9.160491943359375 L 168.545654296875 9.163970947265625 C 168.5460510253906 9.172317504882812 168.5464477539062 9.180831909179688 168.5468444824219 9.189239501953125 L 168.5468597412109 9.189727783203125 C 168.5472412109375 9.197845458984375 168.5476226806641 9.2061767578125 168.5480041503906 9.214340209960938 L 168.5482482910156 9.219482421875 C 168.5490417480469 9.23638916015625 168.5498352050781 9.253250122070312 168.5506286621094 9.270355224609375 L 168.5507965087891 9.273910522460938 C 168.5509643554688 9.277679443359375 168.5511474609375 9.281494140625 168.5513305664062 9.2852783203125 L 168.5514068603516 9.2869873046875 C 168.5516052246094 9.29119873046875 168.5518035888672 9.295578002929688 168.552001953125 9.2998046875 L 168.5520324707031 9.300521850585938 C 168.5522308349609 9.30474853515625 168.5524291992188 9.309066772460938 168.5526275634766 9.313308715820312 L 168.5542297363281 9.347305297851562 C 168.5543365478516 9.349655151367188 168.5544281005859 9.351791381835938 168.5545501708984 9.354141235351562 L 168.5547332763672 9.3582763671875 C 168.5550994873047 9.3660888671875 168.5554656982422 9.373931884765625 168.5558319091797 9.38177490234375 L 168.55615234375 9.388519287109375 C 168.5563049316406 9.391921997070312 168.5564575195312 9.395187377929688 168.5566253662109 9.398590087890625 L 168.5566558837891 9.399215698242188 C 168.5567474365234 9.401443481445312 168.5568542480469 9.403732299804688 168.5569610595703 9.405960083007812 L 168.5570831298828 9.4085693359375 C 168.5571136474609 9.409011840820312 168.55712890625 9.409439086914062 168.5571441650391 9.409881591796875 L 168.5575866699219 9.419326782226562 C 168.5576324462891 9.42022705078125 168.5576782226562 9.421066284179688 168.5577087402344 9.421966552734375 L 168.55810546875 9.430419921875 C 168.5581359863281 9.430877685546875 168.5581512451172 9.431396484375 168.5581665039062 9.431854248046875 L 168.5590972900391 9.451522827148438 C 168.5591430664062 9.452728271484375 168.5592041015625 9.453842163085938 168.5592651367188 9.455047607421875 L 168.5594329833984 9.458938598632812 C 168.5595550537109 9.46148681640625 168.5596923828125 9.464324951171875 168.559814453125 9.466888427734375 L 168.5601654052734 9.474380493164062 C 168.5601654052734 9.474533081054688 168.5601654052734 9.47454833984375 168.5601806640625 9.474685668945312 L 168.5604248046875 9.480056762695312 C 168.5604705810547 9.48095703125 168.5605010986328 9.481597900390625 168.560546875 9.482513427734375 L 168.7341766357422 13.19816589355469 L 166.7363586425781 13.29151916503906 L 166.4875335693359 7.966522216796875 L 166.4875335693359 7.966522216796875 L 166.4875335693359 7.966522216796875 L 166.4875335693359 7.966522216796875 L 167.81396484375 7.904541015625 L 167.8168792724609 7.8419189453125 Z M 169.0142364501953 19.19161987304688 L 169.2943115234375 25.18508911132812 L 167.2964782714844 25.2784423828125 L 167.0164031982422 19.28497314453125 L 169.0142364501953 19.19161987304688 Z M 169.5743713378906 31.17854309082031 L 169.6972808837891 33.80865478515625 C 169.6973876953125 33.81083679199219 169.6974792480469 33.81301879882812 169.6975860595703 33.81520080566406 L 169.6976928710938 33.81741333007812 C 169.6977691650391 33.81906127929688 169.6978149414062 33.82020568847656 169.6978912353516 33.82185363769531 L 169.6981048583984 33.8262939453125 C 169.7731018066406 35.431396484375 169.8544311523438 37.1719970703125 169.8544311523438 37.1719970703125 L 167.8566284179688 37.26535034179688 L 167.5765533447266 31.27189636230469 L 169.5743865966797 31.17854309082031 Z M 170.1345062255859 43.16546630859375 C 170.1345062255859 43.16546630859375 170.4145812988281 49.15892028808594 170.4145812988281 49.15892028808594 L 168.4167633056641 49.25228118896484 L 168.1366882324219 43.25883483886719 L 170.1345062255859 43.16546630859375 Z M 170.6946411132812 55.15237426757812 C 170.6946411132812 55.15237426757812 170.9747161865234 61.14585113525391 170.9747161865234 61.14585113525391 L 168.9769134521484 61.23921203613281 L 168.6968383789062 55.24573516845703 L 170.6946411132812 55.15237426757812 Z M 171.2547912597656 67.13930511474609 L 171.5348510742188 73.13275909423828 L 169.5370330810547 73.22611236572266 L 169.2569580078125 67.23265838623047 L 171.2547912597656 67.13930511474609 Z M 171.8149261474609 79.12623596191406 L 172.0950012207031 85.11968994140625 L 170.09716796875 85.21304321289062 L 169.8170928955078 79.21958923339844 L 171.8149261474609 79.12623596191406 Z M 172.3750457763672 91.11313629150391 C 172.3750457763672 91.11313629150391 172.6551208496094 97.10661315917969 172.6551208496094 97.10661315917969 L 170.6573181152344 97.19997406005859 L 170.3772430419922 91.20649719238281 L 172.3750457763672 91.11313629150391 Z M 172.9351959228516 103.1000671386719 C 172.9351959228516 103.1000671386719 173.2152709960938 109.0935211181641 173.2152709960938 109.0935211181641 L 171.2174530029297 109.1868743896484 L 170.9373931884766 103.1934204101562 L 172.9351959228516 103.1000671386719 Z M 173.4953308105469 115.0869903564453 C 173.4953308105469 115.0869903564453 173.5221405029297 115.6605377197266 173.5591735839844 116.4529418945312 L 173.5592803955078 116.4552154541016 C 173.5595703125 116.4616241455078 173.5598754882812 116.4682159423828 173.5601806640625 116.4746551513672 L 173.5604400634766 116.4801635742188 C 173.5622253417969 116.5183868408203 173.5640563964844 116.5575408935547 173.5658874511719 116.5967102050781 L 173.5660705566406 116.6006393432617 C 173.5662841796875 116.6051559448242 173.5665130615234 116.6101226806641 173.5667266845703 116.6146545410156 L 173.5667419433594 116.6150512695312 C 173.5669708251953 116.6200561523438 173.5671997070312 116.6249313354492 173.5674438476562 116.6299591064453 L 173.5674896240234 116.6308670043945 C 173.5679473876953 116.6409301757812 173.5684204101562 116.651008605957 173.5688934326172 116.6611251831055 L 173.5689392089844 116.6621856689453 C 173.56982421875 116.6811218261719 173.5707244873047 116.7003479003906 173.5716247558594 116.7194747924805 L 173.5720520019531 116.7286834716797 C 173.5721435546875 116.7305068969727 173.5722198486328 116.7323303222656 173.5723114013672 116.7341461181641 L 173.5726928710938 116.7422714233398 C 173.5728302001953 116.7452545166016 173.5729522705078 116.7480316162109 173.5730895996094 116.7510223388672 L 173.5736694335938 116.7631149291992 C 173.5737609863281 116.7652740478516 173.5738525390625 116.7670593261719 173.5739440917969 116.7692184448242 L 173.5760650634766 116.8145751953125 C 173.5761108398438 116.8154144287109 173.5761413574219 116.8162155151367 173.5761871337891 116.8170547485352 L 173.7754058837891 121.0804443359375 L 171.7775726318359 121.1738052368164 L 171.4975280761719 115.1803283691406 L 173.4953308105469 115.0869903564453 Z M 174.0554809570312 127.0738983154297 L 174.3355407714844 133.0673522949219 L 172.3377227783203 133.1607055664062 L 172.0576477050781 127.1672592163086 L 174.0554809570312 127.0738983154297 Z M 174.6156158447266 139.0608215332031 L 174.7590179443359 142.1297760009766 C 174.827880859375 143.6036071777344 174.8956756591797 145.0542755126953 174.8956756591797 145.0542755126953 L 172.8978576660156 145.1476440429688 L 172.6177978515625 139.1541900634766 L 174.6156311035156 139.0608215332031 Z M 175.1757354736328 151.0477294921875 C 175.1757354736328 151.0477294921875 175.455810546875 157.0412139892578 175.455810546875 157.0412139892578 L 173.4580078125 157.1345672607422 L 173.1779327392578 151.1410827636719 L 175.1757354736328 151.0477294921875 Z M 175.7358856201172 163.03466796875 C 175.7358856201172 163.03466796875 175.8345794677734 165.1466979980469 175.914794921875 166.8632659912109 L 175.9149017333984 166.8654327392578 C 175.9169464111328 166.9093627929688 175.9189910888672 166.953125 175.9210205078125 166.9965057373047 L 175.9212646484375 167.0015716552734 C 175.9214477539062 167.0057525634766 175.9216461181641 167.009765625 175.9218292236328 167.0139465332031 L 175.9219818115234 167.0170593261719 C 175.9220733642578 167.0191497802734 175.9221954345703 167.0215911865234 175.9222869873047 167.023681640625 L 175.9223327636719 167.024658203125 C 175.9224395751953 167.0267486572266 175.9225158691406 167.0285339355469 175.922607421875 167.0306091308594 L 175.9228210449219 167.0348663330078 C 175.9230346679688 167.03955078125 175.9232482910156 167.0441589355469 175.9234619140625 167.048828125 L 175.9234924316406 167.0492706298828 C 175.9235992431641 167.0516967773438 175.9237060546875 167.0538482666016 175.9238128662109 167.0562744140625 L 175.9239196777344 167.0586242675781 C 175.9239807128906 167.0600128173828 175.9240570068359 167.0613403320312 175.9241180419922 167.0627288818359 L 175.9244079589844 167.0688629150391 C 175.9244384765625 167.0697326660156 175.9244689941406 167.0703887939453 175.9245147705078 167.0712432861328 L 175.9294281005859 167.1764831542969 C 175.929443359375 167.1768188476562 175.9294586181641 167.1770324707031 175.9294738769531 167.1773681640625 L 175.9298248291016 167.1848602294922 C 175.9298248291016 167.1848602294922 175.9298400878906 167.1852111816406 175.9298400878906 167.1852111816406 L 176.0159606933594 169.0281066894531 L 174.0181427001953 169.1214752197266 L 173.7380828857422 163.1280212402344 L 175.7358856201172 163.03466796875 Z M 172.450927734375 174.7987060546875 L 176.2940063476562 174.9783020019531 L 176.3877716064453 176.9848480224609 C 176.3877716064453 176.9848480224609 176.3877716064453 176.9848480224609 176.3877716064453 176.9848480224609 C 176.3877716064453 176.9848480224609 176.3877716064453 176.9848480224609 176.3877716064453 176.9848480224609 L 176.3877716064453 176.9848480224609 L 176.3877716064453 176.9848480224609 L 176.3877716064453 176.9848480224609 C 176.3877716064453 176.9848480224609 176.3877716064453 176.9848480224609 176.3877716064453 176.9848480224609 L 176.3877716064453 176.9848480224609 L 176.3877716064453 176.9848480224609 L 174.3812103271484 176.8910827636719 L 174.3812103271484 176.8910827636719 C 173.370849609375 176.8438720703125 172.3575744628906 176.7965240478516 172.3575744628906 176.7965240478516 L 172.450927734375 174.7987060546875 Z M 160.4640045166016 174.2385711669922 L 166.4574890136719 174.5186309814453 L 166.3641204833984 176.5164489746094 C 166.3641204833984 176.5164489746094 160.3706512451172 176.2363739013672 160.3706512451172 176.2363739013672 L 160.4640045166016 174.2385711669922 Z M 148.4770965576172 173.6784210205078 L 154.4705505371094 173.95849609375 L 154.377197265625 175.9563293457031 L 148.3837432861328 175.6762542724609 L 148.4770965576172 173.6784210205078 Z M 136.4901733398438 173.1182861328125 L 142.4836273193359 173.3983459472656 L 142.3902587890625 175.3961791992188 L 136.3968200683594 175.1161193847656 L 136.4901733398438 173.1182861328125 Z M 124.5032424926758 172.5581665039062 L 130.4967193603516 172.8382263183594 L 130.4033660888672 174.8360443115234 C 130.4033660888672 174.8360443115234 124.409912109375 174.5559692382812 124.409912109375 174.5559692382812 L 124.5032424926758 172.5581665039062 Z M 112.5163421630859 171.9980163574219 L 118.5097961425781 172.2780914306641 L 118.4164352416992 174.2758941650391 C 118.4164352416992 174.2758941650391 112.422981262207 173.9958343505859 112.422981262207 173.9958343505859 L 112.5163421630859 171.9980163574219 Z M 100.529411315918 171.4378814697266 L 106.5228881835938 171.7179412841797 L 106.4295272827148 173.7157592773438 C 106.4295272827148 173.7157592773438 104.9777450561523 173.6479187011719 103.5031433105469 173.5790252685547 L 103.5026168823242 173.5789947509766 C 103.4953002929688 173.5786590576172 103.4876327514648 173.5782928466797 103.4803161621094 173.5779571533203 L 103.4650955200195 173.5772399902344 C 103.4627227783203 173.5771331787109 103.4606781005859 173.5770416259766 103.4583053588867 173.5769195556641 L 100.4360504150391 173.4356994628906 L 100.529411315918 171.4378814697266 Z M 88.54250335693359 170.8777313232422 L 94.53595733642578 171.1578063964844 L 94.44259643554688 173.1556396484375 L 88.44915008544922 172.8755645751953 L 88.54250335693359 170.8777313232422 Z M 76.55557250976562 170.3176116943359 L 82.54902648925781 170.59765625 L 82.45567321777344 172.5954895019531 L 76.46221923828125 172.3154296875 L 76.55557250976562 170.3176116943359 Z M 64.56864929199219 169.7574768066406 L 70.56212615966797 170.0375366210938 L 70.46876525878906 172.0353546142578 C 70.46876525878906 172.0353546142578 64.47528839111328 171.7552795410156 64.47528839111328 171.7552795410156 L 64.56864929199219 169.7574768066406 Z M 52.58174133300781 169.1973266601562 L 58.5751953125 169.4774017333984 L 58.48183441162109 171.4752044677734 C 58.48183441162109 171.4752044677734 52.48838806152344 171.1951446533203 52.48838806152344 171.1951446533203 L 52.58174133300781 169.1973266601562 Z M 40.59481811523438 168.6371917724609 L 46.58827209472656 168.9172515869141 L 46.49490356445312 170.9150695800781 C 46.49490356445312 170.9150695800781 44.80599975585938 170.8361511230469 43.22116088867188 170.7621002197266 L 43.21437072753906 170.7617797851562 C 43.21290588378906 170.76171875 43.21153259277344 170.7616424560547 43.2100830078125 170.7615814208984 L 43.19636535644531 170.7609405517578 C 43.19599914550781 170.7609252929688 43.195556640625 170.7608947753906 43.1951904296875 170.7608795166016 L 43.18966674804688 170.7606201171875 C 43.18840026855469 170.7605743408203 43.18693542480469 170.760498046875 43.1856689453125 170.7604370117188 L 43.17912292480469 170.7601318359375 C 43.17840576171875 170.7601013183594 43.17787170410156 170.7600708007812 43.17713928222656 170.7600402832031 L 40.50146484375 170.635009765625 L 40.59481811523438 168.6371917724609 Z M 28.60787963867188 168.0770416259766 L 34.60136413574219 168.3571166992188 L 34.50801086425781 170.3549499511719 L 28.5145263671875 170.0748748779297 L 28.60787963867188 168.0770416259766 Z M 16.62098693847656 167.5169219970703 L 22.61444091796875 167.7969665527344 L 22.52107238769531 169.7947998046875 L 18.90988159179688 169.6260528564453 C 18.90934753417969 169.6260375976562 18.90864562988281 169.6259918212891 18.90811157226562 169.6259765625 L 18.87825012207031 169.6245727539062 C 18.87539672851562 169.6244506835938 18.87265014648438 169.6243133544922 18.86979675292969 169.6241760253906 L 18.84950256347656 169.6232299804688 C 18.84913635253906 169.6232147216797 18.84913635253906 169.6232147216797 18.84878540039062 169.6231994628906 L 18.81582641601562 169.6216583251953 C 18.8145751953125 169.6215972900391 18.81327819824219 169.6215362548828 18.81202697753906 169.6214752197266 L 18.8094482421875 169.6213684082031 C 18.80445861816406 169.6211242675781 18.79960632324219 169.6208953857422 18.79461669921875 169.6206665039062 L 18.79205322265625 169.6205444335938 C 18.78190612792969 169.6200714111328 18.77153015136719 169.6195831298828 18.76141357421875 169.6191101074219 L 18.75582885742188 169.6188507080078 C 18.75459289550781 169.6188049316406 18.75338745117188 169.6187438964844 18.75215148925781 169.6186828613281 L 18.75016784667969 169.6185913085938 C 18.74821472167969 169.6184997558594 18.74624633789062 169.618408203125 18.74429321289062 169.6183166503906 L 18.74089050292969 169.6181640625 C 18.725830078125 169.6174468994141 18.71060180664062 169.6167449951172 18.69560241699219 169.6160430908203 L 18.68722534179688 169.6156463623047 C 18.67770385742188 169.6152038574219 18.66804504394531 169.6147613525391 18.65853881835938 169.6143035888672 L 18.65679931640625 169.6142272949219 C 18.65151977539062 169.6139831542969 18.64640808105469 169.6137390136719 18.64114379882812 169.6134948730469 L 18.64019775390625 169.6134490966797 C 18.63511657714844 169.6132202148438 18.62979125976562 169.6129608154297 18.62471008300781 169.6127319335938 L 18.62290954589844 169.6126403808594 C 18.61221313476562 169.6121520996094 18.60157775878906 169.6116485595703 18.59091186523438 169.6111450195312 L 18.58966064453125 169.611083984375 C 18.58476257324219 169.6108703613281 18.57984924316406 169.6106262207031 18.574951171875 169.6103973388672 L 18.57095336914062 169.6102142333984 C 18.56938171386719 169.6101379394531 18.56753540039062 169.6100616455078 18.56597900390625 169.6099853515625 L 18.54783630371094 169.609130859375 C 18.54592895507812 169.6090545654297 18.54400634765625 169.6089630126953 18.54209899902344 169.6088714599609 L 18.53889465332031 169.6087188720703 C 18.53437805175781 169.6085052490234 18.5299072265625 169.6083068847656 18.525390625 169.6080932617188 L 18.5218505859375 169.6079254150391 C 18.511962890625 169.6074676513672 18.50209045410156 169.6069946289062 18.49223327636719 169.6065368652344 L 18.48835754394531 169.6063537597656 C 18.46847534179688 169.6054229736328 18.44888305664062 169.6045074462891 18.42915344238281 169.6035919189453 L 18.41645812988281 169.6029968261719 C 18.40841674804688 169.6026153564453 18.40007019042969 169.6022338867188 18.39204406738281 169.6018524169922 L 18.38897705078125 169.6017150878906 C 17.35179138183594 169.5532531738281 16.52761840820312 169.5147399902344 16.52761840820312 169.5147399902344 L 16.62098693847656 167.5169219970703 Z M 9.743148803710938 165.6566162109375 L 9.815216064453125 167.1988983154297 L 10.62750244140625 167.2368469238281 L 10.53416442871094 169.2346649169922 C 10.53416442871094 169.2346649169922 7.90240478515625 169.1116790771484 7.90240478515625 169.1116790771484 L 7.90240478515625 169.1116790771484 L 7.90240478515625 169.1116790771484 L 7.90240478515625 169.1116790771484 L 7.90240478515625 169.1116790771484 L 7.90240478515625 169.1116790771484 L 7.90240478515625 169.1116790771484 L 7.90240478515625 169.1116790771484 L 7.90240478515625 169.1116790771484 L 7.90240478515625 169.1116790771484 L 7.90240478515625 169.1116790771484 C 7.90240478515625 169.1116790771484 7.901809692382812 169.0986938476562 7.900665283203125 169.0743103027344 L 7.900619506835938 169.0734558105469 C 7.900054931640625 169.0614318847656 7.899368286132812 169.0466613769531 7.8985595703125 169.0294189453125 L 7.898468017578125 169.0272521972656 C 7.898452758789062 169.0269012451172 7.8984375 169.0265655517578 7.898422241210938 169.0262145996094 L 7.898330688476562 169.0242767333984 C 7.898193359375 169.0213623046875 7.898040771484375 169.0182952880859 7.897903442382812 169.0152282714844 L 7.897857666015625 169.0142059326172 C 7.897689819335938 169.0107574462891 7.897537231445312 169.0072784423828 7.897354125976562 169.003662109375 L 7.897125244140625 168.9986724853516 C 7.896926879882812 168.9944152832031 7.896728515625 168.9900360107422 7.896514892578125 168.9855651855469 L 7.896408081054688 168.9831237792969 C 7.896316528320312 168.9813385009766 7.896224975585938 168.9794769287109 7.896148681640625 168.9776611328125 L 7.893798828125 168.9273681640625 C 7.893722534179688 168.9256591796875 7.893630981445312 168.9238739013672 7.8935546875 168.9221496582031 L 7.8909912109375 168.8673706054688 C 7.8909912109375 168.8672637939453 7.890975952148438 168.8670806884766 7.890975952148438 168.8669586181641 L 7.745315551757812 165.7499694824219 L 9.743148803710938 165.6566162109375 Z M 9.182998657226562 153.6697082519531 L 9.46307373046875 159.6631622314453 L 7.465240478515625 159.7565155029297 L 7.329971313476562 156.8614807128906 C 7.329910278320312 156.8601989746094 7.329849243164062 156.8588256835938 7.329788208007812 156.8575439453125 L 7.32647705078125 156.7867584228516 C 7.326065063476562 156.7778015136719 7.325637817382812 156.7687835693359 7.325225830078125 156.7598114013672 L 7.325210571289062 156.7596740722656 C 7.255203247070312 155.2613220214844 7.185195922851562 153.7630615234375 7.185195922851562 153.7630615234375 L 9.182998657226562 153.6697082519531 Z M 8.62286376953125 141.6827850341797 L 8.902938842773438 147.6762390136719 L 6.905120849609375 147.7695922851562 C 6.905120849609375 147.7695922851562 6.625045776367188 141.7761383056641 6.625045776367188 141.7761383056641 L 8.62286376953125 141.6827850341797 Z M 8.062744140625 129.6958618164062 L 8.342788696289062 135.6893310546875 L 6.344985961914062 135.7826843261719 L 6.064910888671875 129.7892150878906 L 8.062744140625 129.6958618164062 Z M 7.502593994140625 117.7089462280273 L 7.782669067382812 123.7024002075195 L 5.784835815429688 123.7957611083984 L 5.504776000976562 117.8023071289062 L 7.502593994140625 117.7089462280273 Z M 6.942459106445312 105.7220230102539 L 7.2225341796875 111.7154693603516 L 5.224716186523438 111.8088302612305 C 5.224716186523438 111.8088302612305 4.94464111328125 105.8153762817383 4.94464111328125 105.8153762817383 L 6.942459106445312 105.7220230102539 Z M 6.382339477539062 93.73509216308594 L 6.662384033203125 99.72856903076172 L 4.664581298828125 99.82192230224609 C 4.664581298828125 99.82192230224609 4.565872192382812 97.70967102050781 4.48565673828125 95.99310302734375 L 4.485580444335938 95.99137115478516 C 4.4835205078125 95.94725799560547 4.481460571289062 95.90312957763672 4.479415893554688 95.85958862304688 L 4.479232788085938 95.85553741455078 C 4.479019165039062 95.85101318359375 4.478790283203125 95.84629821777344 4.478591918945312 95.84177398681641 L 4.478515625 95.84014892578125 C 4.478271484375 95.83510589599609 4.478042602539062 95.83007049560547 4.477798461914062 95.82504272460938 L 4.477706909179688 95.82302856445312 C 4.477340698242188 95.81504821777344 4.476974487304688 95.80722808837891 4.476593017578125 95.79927062988281 L 4.476593017578125 95.7991943359375 C 4.47650146484375 95.79729461669922 4.476409912109375 95.79524230957031 4.476318359375 95.7933349609375 L 4.476089477539062 95.78826904296875 C 4.476028442382812 95.78688049316406 4.475967407226562 95.78564453125 4.475906372070312 95.78426361083984 L 4.471786499023438 95.6962890625 C 4.471786499023438 95.6962890625 4.471771240234375 95.69582366943359 4.471771240234375 95.69582366943359 L 4.471405029296875 95.68807220458984 C 4.471389770507812 95.68789672851562 4.471389770507812 95.68764495849609 4.47137451171875 95.68747711181641 L 4.471084594726562 95.68126678466797 C 4.471038818359375 95.68024444580078 4.470977783203125 95.67893981933594 4.470932006835938 95.67791748046875 L 4.470703125 95.67318725585938 C 4.470657348632812 95.67216491699219 4.470611572265625 95.67121887207031 4.470565795898438 95.67019653320312 L 4.467605590820312 95.60671997070312 C 4.46759033203125 95.60655212402344 4.46759033203125 95.60636138916016 4.467575073242188 95.60619354248047 L 4.384506225585938 93.82844543457031 L 6.382339477539062 93.73509216308594 Z M 5.822189331054688 81.74818420410156 L 6.102264404296875 87.74163818359375 L 4.10443115234375 87.83499908447266 L 3.824371337890625 81.84154510498047 L 5.822189331054688 81.74818420410156 Z M 5.262054443359375 69.76126098632812 L 5.542129516601562 75.75470733642578 L 3.5443115234375 75.84806823730469 C 3.5443115234375 75.84806823730469 3.264236450195312 69.8546142578125 3.264236450195312 69.8546142578125 L 5.262054443359375 69.76126098632812 Z M 4.701904296875 57.77435302734375 L 4.981979370117188 63.76780700683594 L 2.984176635742188 63.86116027832031 C 2.984176635742188 63.86116027832031 2.7041015625 57.86768341064453 2.7041015625 57.86768341064453 L 4.701904296875 57.77435302734375 Z M 4.14178466796875 45.78742980957031 L 4.421859741210938 51.78087615966797 L 2.424026489257812 51.87423706054688 L 2.143966674804688 45.88078308105469 L 4.14178466796875 45.78742980957031 Z M 3.581649780273438 33.80049133300781 L 3.861724853515625 39.79397583007812 L 1.8638916015625 39.8873291015625 L 1.724502563476562 36.90428161621094 C 1.724319458007812 36.90043640136719 1.724151611328125 36.89671325683594 1.723968505859375 36.89286804199219 L 1.72332763671875 36.87931823730469 C 1.65350341796875 35.38479614257812 1.583831787109375 33.89385986328125 1.583831787109375 33.89385986328125 L 3.581649780273438 33.80049133300781 Z M 3.021499633789062 21.81358337402344 L 3.30157470703125 27.80703735351562 L 1.30377197265625 27.90040588378906 C 1.30377197265625 27.90040588378906 1.023696899414062 21.90695190429688 1.023696899414062 21.90695190429688 L 3.021499633789062 21.81358337402344 Z M 2.461380004882812 9.82666015625 L 2.741439819335938 15.82011413574219 L 0.743621826171875 15.91346740722656 L 0.7433013916015625 15.90646362304688 C 0.7432861328125 15.90635681152344 0.7432861328125 15.90621948242188 0.7432861328125 15.90611267089844 L 0.7432708740234375 15.90594482421875 C 0.7432708740234375 15.90577697753906 0.743255615234375 15.90559387207031 0.7432403564453125 15.90541076660156 L 0.7432403564453125 15.90516662597656 C 0.74322509765625 15.90481567382812 0.7432098388671875 15.90443420410156 0.7431793212890625 15.90408325195312 L 0.7431488037109375 15.90338134765625 C 0.7431488037109375 15.90333557128906 0.7431488037109375 15.90330505371094 0.7431488037109375 15.90325927734375 L 0.7431182861328125 15.90267944335938 C 0.7431182861328125 15.902587890625 0.74310302734375 15.90248107910156 0.74310302734375 15.90238952636719 L 0.743072509765625 15.90165710449219 C 0.743072509765625 15.90164184570312 0.743072509765625 15.901611328125 0.743072509765625 15.90159606933594 L 0.7429962158203125 15.89987182617188 C 0.74298095703125 15.89970397949219 0.7429656982421875 15.89952087402344 0.7429656982421875 15.89933776855469 L 0.7429656982421875 15.89932250976562 C 0.742950439453125 15.89903259277344 0.7429351806640625 15.89875793457031 0.742919921875 15.89846801757812 L 0.7429046630859375 15.89817810058594 C 0.7429046630859375 15.89796447753906 0.742889404296875 15.89775085449219 0.7428741455078125 15.89753723144531 L 0.7427520751953125 15.89466857910156 C 0.7427520751953125 15.8946533203125 0.74273681640625 15.89463806152344 0.74273681640625 15.89460754394531 L 0.742706298828125 15.89372253417969 C 0.7426910400390625 15.8935546875 0.7426910400390625 15.89337158203125 0.74267578125 15.89320373535156 L 0.7424774169921875 15.88885498046875 C 0.742462158203125 15.88871765136719 0.742462158203125 15.88858032226562 0.742462158203125 15.88845825195312 L 0.742340087890625 15.88609313964844 C 0.742340087890625 15.88609313964844 0.742340087890625 15.88606262207031 0.742340087890625 15.88606262207031 L 0.7422943115234375 15.88487243652344 C 0.742279052734375 15.88475036621094 0.742279052734375 15.88470458984375 0.742279052734375 15.88458251953125 L 0.742218017578125 15.88348388671875 C 0.7422027587890625 15.88296508789062 0.7421722412109375 15.88246154785156 0.742156982421875 15.88192749023438 L 0.7416534423828125 15.87129211425781 C 0.74163818359375 15.87110900878906 0.74163818359375 15.87091064453125 0.7416229248046875 15.87074279785156 L 0.7415924072265625 15.8699951171875 C 0.7415771484375 15.86979675292969 0.7415771484375 15.86959838867188 0.7415618896484375 15.869384765625 L 0.740997314453125 15.85725402832031 C 0.7409820556640625 15.8570556640625 0.7409820556640625 15.85688781738281 0.740966796875 15.856689453125 L 0.739410400390625 15.82331848144531 C 0.7393951416015625 15.82301330566406 0.7393798828125 15.82269287109375 0.7393646240234375 15.82240295410156 L 0.46356201171875 9.920013427734375 L 2.461380004882812 9.82666015625 Z" stroke="none" fill="#2c2c96"/>
      </g>
      <g id="组_2325" data-name="组 2325" transform="translate(508.194 134.303) rotate(45)">
        <g id="组_2324" data-name="组 2324" transform="translate(2.939 25.761) rotate(-45)">
          <path id="路径_11004" data-name="路径 11004" d="M0,0,21.8,1.019l1.019,21.8L1.019,21.8Z" transform="translate(0 14.697) rotate(-45)" fill="#2c2c96"/>
        </g>
        <g id="路径_11005" data-name="路径 11005" transform="translate(0 0)" fill="none">
          <path d="M0,0,51.333-2.4l-2.4,51.333L-2.4,51.333Z" stroke="none"/>
          <path d="M 49.23313140869141 -0.298431396484375 L 1.912799835205078 1.912799835205078 L -0.298431396484375 49.23313140869141 L 47.02190017700195 47.02190017700195 L 49.23313140869141 -0.298431396484375 M 51.33346176147461 -2.398761749267578 L 48.93470001220703 48.93470001220703 L -2.398761749267578 51.33346176147461 L 0 0 L 51.33346176147461 -2.398761749267578 Z" stroke="none" fill="#2c2c96"/>
        </g>
      </g>
      <g id="组_2326" data-name="组 2326" transform="translate(416.106 403.36)">
        <g id="路径_11006" data-name="路径 11006" transform="translate(130.294 72.341) rotate(45)" fill="none">
          <path d="M0,0,68.717-3.211,65.506,65.506-3.211,68.717Z" stroke="none"/>
          <path d="M 66.61640930175781 -1.110733032226562 L 1.912796020507812 1.912796020507812 L -1.110733032226562 66.61640930175781 L 63.59286880493164 63.59286880493164 L 66.61640930175781 -1.110733032226562 M 68.71673583984375 -3.2110595703125 L 65.50566864013672 65.50566864013672 L -3.2110595703125 68.71673583984375 L -7.62939453125e-06 -7.62939453125e-06 L 68.71673583984375 -3.2110595703125 Z" stroke="none" fill="#2c2c96"/>
        </g>
        <g id="路径_11007" data-name="路径 11007" transform="translate(130.294 38.432) rotate(45)" fill="none">
          <path d="M0,0,119.023-5.562l-5.562,119.023L-5.562,119.023Z" stroke="none"/>
          <path d="M 116.9227981567383 -3.461509704589844 L 1.912796020507812 1.912796020507812 L -3.461509704589844 116.9227981567383 L 111.5485076904297 111.5485076904297 L 116.9227981567383 -3.461509704589844 M 119.0231246948242 -5.561836242675781 L 113.4613037109375 113.4613037109375 L -5.561836242675781 119.0231246948242 L 0 0 L 119.0231246948242 -5.561836242675781 Z" stroke="none" fill="#2c2c96"/>
        </g>
        <g id="路径_11008" data-name="路径 11008" transform="translate(130.294 0) rotate(45)" fill="none">
          <path d="M0,0,176.037-8.226l-8.226,176.037L-8.226,176.037Z" stroke="none"/>
          <path d="M 173.9366912841797 -6.125686645507812 L 1.912811279296875 1.912811279296875 L -6.125686645507812 173.9366912841797 L 165.898193359375 165.898193359375 L 173.9366912841797 -6.125686645507812 M 176.0370330810547 -8.226028442382812 L 167.8110046386719 167.8110046386719 L -8.226028442382812 176.0370330810547 L 0 0 L 176.0370330810547 -8.226028442382812 Z" stroke="none" fill="#2c2c96"/>
        </g>
      </g>
    </g>
  </g>
</svg>
