<svg xmlns="http://www.w3.org/2000/svg" width="414" height="180" viewBox="0 0 414 180">
  <g id="组_3737" data-name="组 3737" transform="translate(0 -4028)">
    <rect id="矩形_3298" data-name="矩形 3298" width="414" height="180" transform="translate(0 4028)" fill="#1f2169"/>
    <g id="组_3733" data-name="组 3733">
      <rect id="矩形_3298-2" data-name="矩形 3298" width="8" height="8" transform="translate(23 4051)" fill="#3131a1"/>
      <rect id="矩形_3299" data-name="矩形 3299" width="8" height="8" transform="translate(41 4051)" fill="#3131a1"/>
      <rect id="矩形_3300" data-name="矩形 3300" width="8" height="8" transform="translate(59 4051)" fill="#3131a1"/>
      <rect id="矩形_3301" data-name="矩形 3301" width="8" height="8" transform="translate(77 4051)" fill="#3131a1"/>
      <rect id="矩形_3302" data-name="矩形 3302" width="8" height="8" transform="translate(95 4051)" fill="#3131a1"/>
      <rect id="矩形_3298-3" data-name="矩形 3298" width="8" height="8" transform="translate(23 4071)" fill="#3131a1"/>
      <rect id="矩形_3299-2" data-name="矩形 3299" width="8" height="8" transform="translate(41 4071)" fill="#3131a1"/>
      <rect id="矩形_3300-2" data-name="矩形 3300" width="8" height="8" transform="translate(59 4071)" fill="#3131a1"/>
      <rect id="矩形_3301-2" data-name="矩形 3301" width="8" height="8" transform="translate(77 4071)" fill="#3131a1"/>
      <rect id="矩形_3302-2" data-name="矩形 3302" width="8" height="8" transform="translate(95 4071)" fill="#3131a1"/>
      <rect id="矩形_3298-4" data-name="矩形 3298" width="8" height="8" transform="translate(23 4091)" fill="#3131a1"/>
      <rect id="矩形_3299-3" data-name="矩形 3299" width="8" height="8" transform="translate(41 4091)" fill="#3131a1"/>
      <rect id="矩形_3300-3" data-name="矩形 3300" width="8" height="8" transform="translate(59 4091)" fill="#3131a1"/>
      <rect id="矩形_3301-3" data-name="矩形 3301" width="8" height="8" transform="translate(77 4091)" fill="#3131a1"/>
      <rect id="矩形_3302-3" data-name="矩形 3302" width="8" height="8" transform="translate(95 4091)" fill="#3131a1"/>
      <rect id="矩形_3298-5" data-name="矩形 3298" width="8" height="8" transform="translate(23 4111)" fill="#3131a1"/>
      <rect id="矩形_3299-4" data-name="矩形 3299" width="8" height="8" transform="translate(41 4111)" fill="#3131a1"/>
      <rect id="矩形_3300-4" data-name="矩形 3300" width="8" height="8" transform="translate(59 4111)" fill="#3131a1"/>
      <rect id="矩形_3301-4" data-name="矩形 3301" width="8" height="8" transform="translate(77 4111)" fill="#3131a1"/>
      <rect id="矩形_3302-4" data-name="矩形 3302" width="8" height="8" transform="translate(95 4111)" fill="#3131a1"/>
      <g id="组_3731" data-name="组 3731" transform="translate(-123 61)">
        <circle id="椭圆_1070" data-name="椭圆 1070" cx="4.5" cy="4.5" r="4.5" transform="translate(146 4121)" fill="#3131a2"/>
        <circle id="椭圆_1071" data-name="椭圆 1071" cx="4.5" cy="4.5" r="4.5" transform="translate(170 4121)" fill="#3131a2"/>
        <circle id="椭圆_1072" data-name="椭圆 1072" cx="4.5" cy="4.5" r="4.5" transform="translate(194 4121)" fill="#3131a2"/>
        <circle id="椭圆_1073" data-name="椭圆 1073" cx="4.5" cy="4.5" r="4.5" transform="translate(218 4121)" fill="#3131a2"/>
        <circle id="椭圆_1074" data-name="椭圆 1074" cx="4.5" cy="4.5" r="4.5" transform="translate(242 4121)" fill="#3131a2"/>
        <circle id="椭圆_1075" data-name="椭圆 1075" cx="4.5" cy="4.5" r="4.5" transform="translate(266 4121)" fill="#3131a2"/>
      </g>
      <g id="组_3732" data-name="组 3732" transform="translate(-10 -6)">
        <path id="路径_11981" data-name="路径 11981" d="M8364.5,4725.24H8310.16l-27.17,47.059,27.17,47.059H8364.5l27.17-47.059Z" transform="translate(-7984.881 -670.24)" fill="#2c2c91"/>
        <path id="路径_11982" data-name="路径 11982" d="M8387.076,4725.239h-69.391l-34.7,60.095,34.7,60.1h69.391l34.7-60.1Z" transform="translate(-8019.984 -648.879)" fill="none" stroke="#2c2c91" stroke-width="2"/>
      </g>
    </g>
  </g>
</svg>
