<svg xmlns="http://www.w3.org/2000/svg" viewBox="0 0 411 383"><defs><style>.cls-1{fill:#fff;}.cls-1,.cls-13,.cls-14{stroke:#3f3d56;}.cls-2{fill:#f7f8f9;}.cls-3{fill:#6c63ff;}.cls-4{fill:#c9cedd;}.cls-5{opacity:0.5;}.cls-13,.cls-14,.cls-16,.cls-17,.cls-6,.cls-7,.cls-8{fill:none;}.cls-6{stroke:#fff;}.cls-7,.cls-8{stroke:#c9cedd;}.cls-9{fill:#3f3d56;}.cls-10,.cls-11,.cls-12{fill:#ff6584;}.cls-10{opacity:0.8;}.cls-10,.cls-12,.cls-18{isolation:isolate;}.cls-12{opacity:0.4;}.cls-13{stroke-dasharray:6;}.cls-15{opacity:0;}.cls-17{stroke:#707070;}</style></defs><g id="Layer_2" data-name="Layer 2"><g id="Layer_1-2" data-name="Layer 1"><rect id="Rectangle_2085" data-name="Rectangle 2085" class="cls-1" x="37.23" y="125.12" width="126.19" height="151.97"/><rect id="Rectangle_2000" data-name="Rectangle 2000" class="cls-2" x="29.73" y="132.35" width="126.19" height="151.97"/><path id="Rectangle_2135" data-name="Rectangle 2135" class="cls-3" d="M56.11,154h73.33a4,4,0,0,1,4,4v42.58a2,2,0,0,1-2,2H54.11a2,2,0,0,1-2-2V158A4,4,0,0,1,56.11,154Z"/><g id="Group_1363" data-name="Group 1363"><path id="Rectangle_1979" data-name="Rectangle 1979" class="cls-4" d="M54.11,154h77.33a2,2,0,0,1,2,2v5.1H52.11V156A2,2,0,0,1,54.11,154Z"/></g><circle id="Ellipse_284" data-name="Ellipse 284" class="cls-2" cx="57.23" cy="158.03" r="1.27"/><circle id="Ellipse_285" data-name="Ellipse 285" class="cls-2" cx="61.03" cy="158.03" r="1.27"/><circle id="Ellipse_286" data-name="Ellipse 286" class="cls-2" cx="64.83" cy="158.03" r="1.27"/><g id="Group_1365" data-name="Group 1365" class="cls-5"><line id="Line_99" data-name="Line 99" class="cls-6" x1="57.14" y1="170.69" x2="127.03" y2="170.69"/><line id="Line_100" data-name="Line 100" class="cls-6" x1="57.14" y1="178.52" x2="127.03" y2="178.52"/><line id="Line_101" data-name="Line 101" class="cls-6" x1="57.14" y1="186.36" x2="127.03" y2="186.36"/><line id="Line_102" data-name="Line 102" class="cls-6" x1="57.14" y1="194.19" x2="127.03" y2="194.19"/><g id="Group_1364" data-name="Group 1364"><line id="Line_103" data-name="Line 103" class="cls-6" x1="69.49" y1="164.67" x2="69.49" y2="198.41"/><line id="Line_104" data-name="Line 104" class="cls-6" x1="84.56" y1="164.67" x2="84.56" y2="198.41"/><line id="Line_105" data-name="Line 105" class="cls-6" x1="99.62" y1="164.67" x2="99.62" y2="198.41"/><line id="Line_106" data-name="Line 106" class="cls-6" x1="114.68" y1="164.67" x2="114.68" y2="198.41"/></g></g><g id="Group_1367" data-name="Group 1367"><path id="Path_5627" data-name="Path 5627" class="cls-3" d="M54.43,215.58h77.12A2.41,2.41,0,0,1,134,218h0v43.38a2.41,2.41,0,0,1-2.41,2.41H54.43A2.41,2.41,0,0,1,52,261.37V218a2.41,2.41,0,0,1,2.41-2.41Z"/><g id="Group_1365-2" data-name="Group 1365-2" class="cls-5"><line id="Line_99-2" data-name="Line 99-2" class="cls-6" x1="57.14" y1="232.15" x2="127.03" y2="232.15"/><line id="Line_100-2" data-name="Line 100-2" class="cls-6" x1="57.14" y1="239.98" x2="127.03" y2="239.98"/><line id="Line_101-2" data-name="Line 101-2" class="cls-6" x1="57.14" y1="247.81" x2="127.03" y2="247.81"/><line id="Line_102-2" data-name="Line 102-2" class="cls-6" x1="57.14" y1="255.64" x2="127.03" y2="255.64"/><g id="Group_1364-2" data-name="Group 1364-2"><line id="Line_103-2" data-name="Line 103-2" class="cls-6" x1="69.49" y1="226.12" x2="69.49" y2="259.86"/><line id="Line_104-2" data-name="Line 104-2" class="cls-6" x1="84.56" y1="226.12" x2="84.56" y2="259.86"/><line id="Line_105-2" data-name="Line 105-2" class="cls-6" x1="99.62" y1="226.12" x2="99.62" y2="259.86"/><line id="Line_106-2" data-name="Line 106-2" class="cls-6" x1="114.68" y1="226.12" x2="114.68" y2="259.86"/></g></g></g><g id="Group_1368" data-name="Group 1368"><path id="Path_5628" data-name="Path 5628" class="cls-7" d="M138,172.82h7v51.81h-7"/><path id="Path_5630" data-name="Path 5630" class="cls-8" d="M140,222.75l-1.89,1.89,1.88,1.88"/><path id="Path_5631" data-name="Path 5631" class="cls-8" d="M140,170.94l-1.89,1.88L140,174.7"/></g><g id="Group_1369" data-name="Group 1369"><path id="Path_5628-2" data-name="Path 5628-2" class="cls-7" d="M48,245.72H41V193.91h7"/><path id="Path_5630-2" data-name="Path 5630-2" class="cls-8" d="M46,195.79l1.89-1.88L46,192"/><path id="Path_5631-2" data-name="Path 5631-2" class="cls-8" d="M46,247.61l1.89-1.89L46,243.84"/></g><g id="Group_1549" data-name="Group 1549"><g id="Group_1535" data-name="Group 1535"><g id="Group_1275" data-name="Group 1275"><rect id="Rectangle_2036" data-name="Rectangle 2036" class="cls-9" x="260.62" y="186.17" width="46.94" height="14.19"/><ellipse id="Ellipse_223" data-name="Ellipse 223" class="cls-3" cx="284.09" cy="185.9" rx="23.47" ry="5.19"/><ellipse id="Ellipse_224" data-name="Ellipse 224" class="cls-9" cx="284.09" cy="200.36" rx="23.47" ry="4.91"/><rect id="Rectangle_2036-2" data-name="Rectangle 2036-2" class="cls-9" x="260.62" y="167.61" width="46.94" height="13.65"/><ellipse id="Ellipse_223-2" data-name="Ellipse 223-2" class="cls-3" cx="284.09" cy="167.88" rx="23.47" ry="5.19"/><ellipse id="Ellipse_224-2" data-name="Ellipse 224-2" class="cls-9" cx="284.09" cy="181.8" rx="23.47" ry="5.46"/><rect id="Rectangle_2036-3" data-name="Rectangle 2036-3" class="cls-9" x="260.62" y="150.14" width="46.94" height="14.19"/><ellipse id="Ellipse_223-3" data-name="Ellipse 223-3" class="cls-3" cx="284.09" cy="150.14" rx="23.47" ry="4.91"/><ellipse id="Ellipse_224-3" data-name="Ellipse 224-3" class="cls-9" cx="284.09" cy="164.61" rx="23.47" ry="5.19"/></g><g id="Group_1276" data-name="Group 1276"><rect id="Rectangle_2037" data-name="Rectangle 2037" class="cls-10" x="283.05" y="163.83" width="2.5" height="2.5"/><rect id="Rectangle_2038" data-name="Rectangle 2038" class="cls-11" x="286.64" y="163.83" width="2.5" height="2.5"/><rect id="Rectangle_2039" data-name="Rectangle 2039" class="cls-12" x="279.46" y="163.83" width="2.5" height="2.5"/></g><g id="Group_1277" data-name="Group 1277"><rect id="Rectangle_2037-2" data-name="Rectangle 2037-2" class="cls-10" x="283.05" y="181.75" width="2.5" height="2.5"/><rect id="Rectangle_2038-2" data-name="Rectangle 2038-2" class="cls-11" x="286.64" y="181.75" width="2.5" height="2.5"/><rect id="Rectangle_2039-2" data-name="Rectangle 2039-2" class="cls-12" x="279.46" y="181.75" width="2.5" height="2.5"/></g><g id="Group_1278" data-name="Group 1278"><rect id="Rectangle_2037-3" data-name="Rectangle 2037-3" class="cls-10" x="283.05" y="199.81" width="2.5" height="2.5"/><rect id="Rectangle_2038-3" data-name="Rectangle 2038-3" class="cls-11" x="286.64" y="199.81" width="2.5" height="2.5"/><rect id="Rectangle_2039-3" data-name="Rectangle 2039-3" class="cls-12" x="279.46" y="199.81" width="2.5" height="2.5"/></g></g><g id="Group_1536" data-name="Group 1536"><g id="Group_1275-2" data-name="Group 1275-2"><rect id="Rectangle_2036-4" data-name="Rectangle 2036-4" class="cls-9" x="228.96" y="205.28" width="46.4" height="14.19"/><ellipse id="Ellipse_223-4" data-name="Ellipse 223-4" class="cls-3" cx="252.16" cy="205" rx="23.2" ry="4.64"/><ellipse id="Ellipse_224-4" data-name="Ellipse 224-4" class="cls-9" cx="252.16" cy="219.74" rx="23.2" ry="5.19"/><rect id="Rectangle_2036-5" data-name="Rectangle 2036-5" class="cls-9" x="228.96" y="186.17" width="46.4" height="14.74"/><ellipse id="Ellipse_223-5" data-name="Ellipse 223-5" class="cls-3" cx="252.16" cy="186.72" rx="23.2" ry="5.46"/><ellipse id="Ellipse_224-5" data-name="Ellipse 224-5" class="cls-9" cx="252.16" cy="201.18" rx="23.2" ry="5.19"/><rect id="Rectangle_2036-6" data-name="Rectangle 2036-6" class="cls-9" x="228.96" y="169.79" width="46.4" height="13.65"/><ellipse id="Ellipse_223-6" data-name="Ellipse 223-6" class="cls-3" cx="252.16" cy="169.52" rx="23.2" ry="5.19"/><ellipse id="Ellipse_224-6" data-name="Ellipse 224-6" class="cls-9" cx="252.16" cy="183.17" rx="23.2" ry="5.73"/></g><g id="Group_1276-2" data-name="Group 1276-2"><rect id="Rectangle_2037-4" data-name="Rectangle 2037-4" class="cls-10" x="251.22" y="182.93" width="2.5" height="2.5"/><rect id="Rectangle_2038-4" data-name="Rectangle 2038-4" class="cls-11" x="254.81" y="182.93" width="2.5" height="2.5"/><rect id="Rectangle_2039-4" data-name="Rectangle 2039-4" class="cls-12" x="247.63" y="182.93" width="2.5" height="2.5"/></g><g id="Group_1277-2" data-name="Group 1277-2"><rect id="Rectangle_2037-5" data-name="Rectangle 2037-5" class="cls-10" x="251.22" y="200.85" width="2.5" height="2.5"/><rect id="Rectangle_2038-5" data-name="Rectangle 2038-5" class="cls-11" x="254.81" y="200.85" width="2.5" height="2.5"/><rect id="Rectangle_2039-5" data-name="Rectangle 2039-5" class="cls-12" x="247.63" y="200.85" width="2.5" height="2.5"/></g><g id="Group_1278-2" data-name="Group 1278-2"><rect id="Rectangle_2037-6" data-name="Rectangle 2037-6" class="cls-10" x="251.22" y="218.91" width="2.5" height="2.5"/><rect id="Rectangle_2038-6" data-name="Rectangle 2038-6" class="cls-11" x="254.81" y="218.91" width="2.5" height="2.5"/><rect id="Rectangle_2039-6" data-name="Rectangle 2039-6" class="cls-12" x="247.63" y="218.91" width="2.5" height="2.5"/></g></g><g id="Group_1537" data-name="Group 1537"><g id="Group_1275-3" data-name="Group 1275-3"><rect id="Rectangle_2036-7" data-name="Rectangle 2036-7" class="cls-9" x="295.01" y="205.28" width="46.94" height="14.19"/><ellipse id="Ellipse_223-7" data-name="Ellipse 223-7" class="cls-3" cx="318.48" cy="205" rx="23.47" ry="4.64"/><ellipse id="Ellipse_224-7" data-name="Ellipse 224-7" class="cls-9" cx="318.48" cy="219.74" rx="23.47" ry="5.19"/><rect id="Rectangle_2036-8" data-name="Rectangle 2036-8" class="cls-9" x="295.01" y="186.17" width="46.94" height="14.74"/><ellipse id="Ellipse_223-8" data-name="Ellipse 223-8" class="cls-3" cx="318.48" cy="186.72" rx="23.47" ry="5.46"/><ellipse id="Ellipse_224-8" data-name="Ellipse 224-8" class="cls-9" cx="318.48" cy="201.18" rx="23.47" ry="5.19"/><rect id="Rectangle_2036-9" data-name="Rectangle 2036-9" class="cls-9" x="295.01" y="169.79" width="46.94" height="13.65"/><ellipse id="Ellipse_223-9" data-name="Ellipse 223-9" class="cls-3" cx="318.48" cy="169.52" rx="23.47" ry="5.19"/><ellipse id="Ellipse_224-9" data-name="Ellipse 224-9" class="cls-9" cx="318.48" cy="183.17" rx="23.47" ry="5.73"/></g><g id="Group_1276-3" data-name="Group 1276-3"><rect id="Rectangle_2037-7" data-name="Rectangle 2037-7" class="cls-10" x="317.54" y="182.93" width="2.5" height="2.5"/><rect id="Rectangle_2038-7" data-name="Rectangle 2038-7" class="cls-11" x="321.13" y="182.93" width="2.5" height="2.5"/><rect id="Rectangle_2039-7" data-name="Rectangle 2039-7" class="cls-12" x="313.95" y="182.93" width="2.5" height="2.5"/></g><g id="Group_1277-3" data-name="Group 1277-3"><rect id="Rectangle_2037-8" data-name="Rectangle 2037-8" class="cls-10" x="317.54" y="200.85" width="2.5" height="2.5"/><rect id="Rectangle_2038-8" data-name="Rectangle 2038-8" class="cls-11" x="321.13" y="200.85" width="2.5" height="2.5"/><rect id="Rectangle_2039-8" data-name="Rectangle 2039-8" class="cls-12" x="313.95" y="200.85" width="2.5" height="2.5"/></g><g id="Group_1278-3" data-name="Group 1278-3"><rect id="Rectangle_2037-9" data-name="Rectangle 2037-9" class="cls-10" x="317.54" y="218.91" width="2.5" height="2.5"/><rect id="Rectangle_2038-9" data-name="Rectangle 2038-9" class="cls-11" x="321.13" y="218.91" width="2.5" height="2.5"/><rect id="Rectangle_2039-9" data-name="Rectangle 2039-9" class="cls-12" x="313.95" y="218.91" width="2.5" height="2.5"/></g></g><g id="Group_1538" data-name="Group 1538"><g id="Group_1275-4" data-name="Group 1275-4"><rect id="Rectangle_2036-10" data-name="Rectangle 2036-10" class="cls-9" x="260.62" y="240.76" width="55.68" height="17.47"/><ellipse id="Ellipse_223-10" data-name="Ellipse 223-10" class="cls-3" cx="288.46" cy="241.3" rx="27.84" ry="6"/><ellipse id="Ellipse_224-10" data-name="Ellipse 224-10" class="cls-9" cx="288.46" cy="258.49" rx="27.84" ry="5.73"/><rect id="Rectangle_2036-11" data-name="Rectangle 2036-11" class="cls-9" x="260.62" y="219.47" width="55.68" height="16.38"/><ellipse id="Ellipse_223-11" data-name="Ellipse 223-11" class="cls-3" cx="288.46" cy="219.74" rx="27.84" ry="6.28"/><ellipse id="Ellipse_224-11" data-name="Ellipse 224-11" class="cls-9" cx="288.46" cy="237.21" rx="27.84" ry="6.28"/><rect id="Rectangle_2036-12" data-name="Rectangle 2036-12" class="cls-9" x="260.62" y="199.27" width="55.68" height="16.38"/><ellipse id="Ellipse_223-12" data-name="Ellipse 223-12" class="cls-3" cx="288.46" cy="198.72" rx="27.84" ry="6.55"/><ellipse id="Ellipse_224-12" data-name="Ellipse 224-12" class="cls-9" cx="288.46" cy="215.92" rx="27.84" ry="6.28"/></g><g id="Group_1276-4" data-name="Group 1276-4"><rect id="Rectangle_2037-10" data-name="Rectangle 2037-10" class="cls-10" x="287.15" y="215.09" width="2.96" height="2.96"/><rect id="Rectangle_2038-10" data-name="Rectangle 2038-10" class="cls-11" x="291.4" y="215.09" width="2.96" height="2.96"/><rect id="Rectangle_2039-10" data-name="Rectangle 2039-10" class="cls-12" x="282.9" y="215.09" width="2.96" height="2.96"/></g><g id="Group_1277-4" data-name="Group 1277-4"><rect id="Rectangle_2037-11" data-name="Rectangle 2037-11" class="cls-10" x="287.15" y="236.31" width="2.96" height="2.96"/><rect id="Rectangle_2038-11" data-name="Rectangle 2038-11" class="cls-11" x="291.4" y="236.31" width="2.96" height="2.96"/><rect id="Rectangle_2039-11" data-name="Rectangle 2039-11" class="cls-12" x="282.9" y="236.31" width="2.96" height="2.96"/></g><g id="Group_1278-4" data-name="Group 1278-4"><rect id="Rectangle_2037-12" data-name="Rectangle 2037-12" class="cls-10" x="287.15" y="257.71" width="2.96" height="2.96"/><rect id="Rectangle_2038-12" data-name="Rectangle 2038-12" class="cls-11" x="291.4" y="257.71" width="2.96" height="2.96"/><rect id="Rectangle_2039-12" data-name="Rectangle 2039-12" class="cls-12" x="282.9" y="257.71" width="2.96" height="2.96"/></g></g><g id="Group_1540" data-name="Group 1540"><g id="Group_1275-5" data-name="Group 1275-5"><rect id="Rectangle_2036-13" data-name="Rectangle 2036-13" class="cls-9" x="195.12" y="240.76" width="55.13" height="17.47"/><ellipse id="Ellipse_223-13" data-name="Ellipse 223-13" class="cls-3" cx="222.69" cy="241.3" rx="27.57" ry="6"/><ellipse id="Ellipse_224-13" data-name="Ellipse 224-13" class="cls-9" cx="222.69" cy="258.49" rx="27.57" ry="5.73"/><rect id="Rectangle_2036-14" data-name="Rectangle 2036-14" class="cls-9" x="195.12" y="219.47" width="55.13" height="16.38"/><ellipse id="Ellipse_223-14" data-name="Ellipse 223-14" class="cls-3" cx="222.69" cy="219.74" rx="27.57" ry="6.28"/><ellipse id="Ellipse_224-14" data-name="Ellipse 224-14" class="cls-9" cx="222.69" cy="237.21" rx="27.57" ry="6.28"/><rect id="Rectangle_2036-15" data-name="Rectangle 2036-15" class="cls-9" x="195.12" y="199.27" width="55.13" height="16.38"/><ellipse id="Ellipse_223-15" data-name="Ellipse 223-15" class="cls-3" cx="222.69" cy="198.72" rx="27.57" ry="6.55"/><ellipse id="Ellipse_224-15" data-name="Ellipse 224-15" class="cls-9" cx="222.69" cy="215.92" rx="27.57" ry="6.28"/></g><g id="Group_1276-5" data-name="Group 1276-5"><rect id="Rectangle_2037-13" data-name="Rectangle 2037-13" class="cls-10" x="221.49" y="215.09" width="2.96" height="2.96"/><rect id="Rectangle_2038-13" data-name="Rectangle 2038-13" class="cls-11" x="225.75" y="215.09" width="2.96" height="2.96"/><rect id="Rectangle_2039-13" data-name="Rectangle 2039-13" class="cls-12" x="217.24" y="215.09" width="2.96" height="2.96"/></g><g id="Group_1277-5" data-name="Group 1277-5"><rect id="Rectangle_2037-14" data-name="Rectangle 2037-14" class="cls-10" x="221.49" y="236.31" width="2.96" height="2.96"/><rect id="Rectangle_2038-14" data-name="Rectangle 2038-14" class="cls-11" x="225.75" y="236.31" width="2.96" height="2.96"/><rect id="Rectangle_2039-14" data-name="Rectangle 2039-14" class="cls-12" x="217.24" y="236.31" width="2.96" height="2.96"/></g><g id="Group_1278-5" data-name="Group 1278-5"><rect id="Rectangle_2037-15" data-name="Rectangle 2037-15" class="cls-10" x="221.49" y="257.71" width="2.96" height="2.96"/><rect id="Rectangle_2038-15" data-name="Rectangle 2038-15" class="cls-11" x="225.75" y="257.71" width="2.96" height="2.96"/><rect id="Rectangle_2039-15" data-name="Rectangle 2039-15" class="cls-12" x="217.24" y="257.71" width="2.96" height="2.96"/></g></g><g id="Group_1548" data-name="Group 1548"><g id="Group_1275-6" data-name="Group 1275-6"><rect id="Rectangle_2036-16" data-name="Rectangle 2036-16" class="cls-9" x="327.22" y="240.76" width="54.58" height="17.47"/><ellipse id="Ellipse_223-16" data-name="Ellipse 223-16" class="cls-3" cx="354.51" cy="241.3" rx="27.29" ry="6"/><ellipse id="Ellipse_224-16" data-name="Ellipse 224-16" class="cls-9" cx="354.51" cy="258.49" rx="27.29" ry="5.73"/><rect id="Rectangle_2036-17" data-name="Rectangle 2036-17" class="cls-9" x="327.22" y="219.47" width="54.58" height="16.38"/><ellipse id="Ellipse_223-17" data-name="Ellipse 223-17" class="cls-3" cx="354.51" cy="219.74" rx="27.29" ry="6.28"/><ellipse id="Ellipse_224-17" data-name="Ellipse 224-17" class="cls-9" cx="354.51" cy="237.21" rx="27.29" ry="6.28"/><rect id="Rectangle_2036-18" data-name="Rectangle 2036-18" class="cls-9" x="327.22" y="199.27" width="54.58" height="16.38"/><ellipse id="Ellipse_223-18" data-name="Ellipse 223-18" class="cls-3" cx="354.51" cy="198.72" rx="27.29" ry="6.55"/><ellipse id="Ellipse_224-18" data-name="Ellipse 224-18" class="cls-9" cx="354.51" cy="215.92" rx="27.29" ry="6.28"/></g><g id="Group_1276-6" data-name="Group 1276-6"><rect id="Rectangle_2037-16" data-name="Rectangle 2037-16" class="cls-10" x="353.21" y="215.09" width="2.96" height="2.96"/><rect id="Rectangle_2038-16" data-name="Rectangle 2038-16" class="cls-11" x="357.46" y="215.09" width="2.96" height="2.96"/><rect id="Rectangle_2039-16" data-name="Rectangle 2039-16" class="cls-12" x="348.95" y="215.09" width="2.96" height="2.96"/></g><g id="Group_1277-6" data-name="Group 1277-6"><rect id="Rectangle_2037-17" data-name="Rectangle 2037-17" class="cls-10" x="353.21" y="236.31" width="2.96" height="2.96"/><rect id="Rectangle_2038-17" data-name="Rectangle 2038-17" class="cls-11" x="357.46" y="236.31" width="2.96" height="2.96"/><rect id="Rectangle_2039-17" data-name="Rectangle 2039-17" class="cls-12" x="348.95" y="236.31" width="2.96" height="2.96"/></g><g id="Group_1278-6" data-name="Group 1278-6"><rect id="Rectangle_2037-18" data-name="Rectangle 2037-18" class="cls-10" x="353.21" y="257.71" width="2.96" height="2.96"/><rect id="Rectangle_2038-18" data-name="Rectangle 2038-18" class="cls-11" x="357.46" y="257.71" width="2.96" height="2.96"/><rect id="Rectangle_2039-18" data-name="Rectangle 2039-18" class="cls-12" x="348.95" y="257.71" width="2.96" height="2.96"/></g></g></g><path id="Path_6164" data-name="Path 6164" class="cls-13" d="M93.22,290.94v17.52H288.56v-37"/><path id="Path_6165" data-name="Path 6165" class="cls-13" d="M171.43,100.52H284.55V138"/><path id="Path_6166" data-name="Path 6166" class="cls-14" d="M281.49,134.21l3,3,3-3"/><path id="Path_6167" data-name="Path 6167" class="cls-14" d="M96.25,293.36l-3-3-3,3"/><g id="Rectangle_2600" data-name="Rectangle 2600" class="cls-15"><rect class="cls-16" width="411" height="383"/><rect class="cls-17" x="0.5" y="0.5" width="410" height="382"/></g><g id="Single-Server_Database" data-name="Single-Server Database"><g class="cls-18"><path class="cls-9" d="M33.74,97.45c-1,0-1.44.32-1.44,1a.74.74,0,0,0,.35.65,9.54,9.54,0,0,0,1.67.64,4.62,4.62,0,0,1,1.84,1,2.22,2.22,0,0,1,.53,1.64,2.61,2.61,0,0,1-.86,2.14,3.32,3.32,0,0,1-2.24.73,12.53,12.53,0,0,1-2.52-.32l-.48-.09.19-1.41a21.35,21.35,0,0,0,2.7.23c.94,0,1.4-.38,1.4-1.16a.76.76,0,0,0-.32-.66,4.4,4.4,0,0,0-1.29-.51,5.16,5.16,0,0,1-2.15-1,2.19,2.19,0,0,1-.63-1.67,2.4,2.4,0,0,1,.82-2,3.46,3.46,0,0,1,2.24-.66,14.39,14.39,0,0,1,2.48.26l.48.09-.15,1.44C35.12,97.52,34.25,97.45,33.74,97.45Z"/><path class="cls-9" d="M38,97.56v-1.8h1.77v1.8ZM38,105V98.4h1.77V105Z"/><path class="cls-9" d="M43.17,105H41.4V98.4h1.76v.37a3.34,3.34,0,0,1,1.65-.53,2,2,0,0,1,1.82.78,4.47,4.47,0,0,1,.5,2.4V105H45.36v-3.52a3,3,0,0,0-.19-1.25.8.8,0,0,0-.79-.4,3.09,3.09,0,0,0-1.05.18l-.16,0Z"/><path class="cls-9" d="M54.68,105.83a1.84,1.84,0,0,1-.87,1.67,4.42,4.42,0,0,1-2.35.54,5.38,5.38,0,0,1-2.29-.4,1.46,1.46,0,0,1-.8-1.44,2.05,2.05,0,0,1,1-1.57,1.13,1.13,0,0,1-.48-1,2,2,0,0,1,.39-.87l.12-.19a2.2,2.2,0,0,1-.9-1.91,2.12,2.12,0,0,1,.76-1.82,3.29,3.29,0,0,1,2-.57,4.76,4.76,0,0,1,1.12.13l.21,0,2.12-.07v1.42l-1-.08a1.59,1.59,0,0,1,.29.89,2.16,2.16,0,0,1-.67,1.83,3.58,3.58,0,0,1-2.11.5,2.92,2.92,0,0,1-.54-.05,1.53,1.53,0,0,0-.13.56.29.29,0,0,0,.22.29,4,4,0,0,0,1.06.1,4.17,4.17,0,0,1,2.27.44A1.78,1.78,0,0,1,54.68,105.83Zm-4.56.19c0,.37.46.56,1.39.56s1.39-.22,1.39-.66a.43.43,0,0,0-.24-.45,3.2,3.2,0,0,0-1-.11l-1.19-.1A1.09,1.09,0,0,0,50.12,106Zm.1-5.41c0,.65.34,1,1,1s1-.32,1-1-.33-1-1-1S50.22,100,50.22,100.61Z"/><path class="cls-9" d="M55.83,105V95.76H57.6V105Z"/><path class="cls-9" d="M61.09,103.33a1.33,1.33,0,0,0,.89.27c.82,0,1.55,0,2.19-.08l.37,0,0,1.31a11.54,11.54,0,0,1-2.75.37,2.72,2.72,0,0,1-2.16-.79,4,4,0,0,1-.67-2.58q0-3.56,2.91-3.55c1.92,0,2.88,1,2.88,3l-.13,1.23H60.77A1.17,1.17,0,0,0,61.09,103.33ZM63,101.11a1.81,1.81,0,0,0-.25-1.11,1.1,1.1,0,0,0-.88-.31A1,1,0,0,0,61,100a1.7,1.7,0,0,0-.27,1.09Z"/><path class="cls-9" d="M66,102.29v-1.61h3.91v1.61Z"/><path class="cls-9" d="M74.11,97.45c-1,0-1.43.32-1.43,1a.72.72,0,0,0,.35.65,9.54,9.54,0,0,0,1.67.64,4.62,4.62,0,0,1,1.84,1,2.26,2.26,0,0,1,.53,1.64,2.64,2.64,0,0,1-.86,2.14,3.32,3.32,0,0,1-2.24.73,12.53,12.53,0,0,1-2.52-.32l-.48-.09.19-1.41a21.35,21.35,0,0,0,2.7.23c.94,0,1.4-.38,1.4-1.16a.79.79,0,0,0-.32-.66,4.53,4.53,0,0,0-1.29-.51,5.27,5.27,0,0,1-2.16-1,2.22,2.22,0,0,1-.62-1.67,2.4,2.4,0,0,1,.82-2,3.46,3.46,0,0,1,2.24-.66,14.39,14.39,0,0,1,2.48.26l.48.09-.15,1.44C75.5,97.52,74.62,97.45,74.11,97.45Z"/><path class="cls-9" d="M80.15,103.33a1.33,1.33,0,0,0,.89.27c.82,0,1.55,0,2.19-.08l.37,0,0,1.31a11.53,11.53,0,0,1-2.74.37,2.72,2.72,0,0,1-2.17-.79,4,4,0,0,1-.67-2.58q0-3.56,2.91-3.55c1.92,0,2.88,1,2.88,3l-.13,1.23H79.83A1.17,1.17,0,0,0,80.15,103.33Zm1.95-2.22a1.81,1.81,0,0,0-.25-1.11,1.1,1.1,0,0,0-.88-.31,1,1,0,0,0-.88.33,1.77,1.77,0,0,0-.27,1.09Z"/><path class="cls-9" d="M85.11,105V98.4h1.76v.7A6.57,6.57,0,0,1,89,98.24V100c-.72.15-1.33.31-1.84.47l-.26.09V105Z"/><path class="cls-9" d="M89.4,98.4h1.85l1,5.1h.37l1.11-5.1h1.8L94,105H91Z"/><path class="cls-9" d="M98.28,103.33a1.3,1.3,0,0,0,.89.27c.82,0,1.55,0,2.19-.08l.37,0,0,1.31a11.46,11.46,0,0,1-2.74.37,2.72,2.72,0,0,1-2.17-.79,4,4,0,0,1-.67-2.58q0-3.56,2.92-3.55c1.92,0,2.88,1,2.88,3l-.14,1.23H98A1.14,1.14,0,0,0,98.28,103.33Zm1.94-2.22A1.81,1.81,0,0,0,100,100a1.1,1.1,0,0,0-.88-.31,1.06,1.06,0,0,0-.88.33,1.84,1.84,0,0,0-.27,1.09Z"/><path class="cls-9" d="M103.23,105V98.4H105v.7a6.66,6.66,0,0,1,2.11-.86V100c-.71.15-1.32.31-1.83.47l-.27.09V105Z"/><path class="cls-9" d="M114.23,105h-3V96h3a6.36,6.36,0,0,1,1.91.25,2.3,2.3,0,0,1,1.17.8,3.28,3.28,0,0,1,.57,1.32,9.74,9.74,0,0,1,.16,2,12.28,12.28,0,0,1-.14,2,4,4,0,0,1-.55,1.43,2.34,2.34,0,0,1-1.17.91A5.67,5.67,0,0,1,114.23,105Zm1.91-3.56q0-.43,0-1.17c0-.5,0-.9,0-1.2a2.25,2.25,0,0,0-.26-.82,1,1,0,0,0-.58-.5,3,3,0,0,0-1-.14H113v5.81h1.2a1.83,1.83,0,0,0,1.44-.51A2.51,2.51,0,0,0,116.14,101.44Z"/><path class="cls-9" d="M124.52,100.46v2.75a1.15,1.15,0,0,0,.11.44.51.51,0,0,0,.33.18l0,1.33a5.18,5.18,0,0,1-1.08-.09,2.66,2.66,0,0,1-.81-.37,4.49,4.49,0,0,1-1.94.46c-1.37,0-2-.72-2-2.17a1.77,1.77,0,0,1,.57-1.49,3.2,3.2,0,0,1,1.74-.53l1.41-.1v-.41a.71.71,0,0,0-.18-.56.93.93,0,0,0-.59-.15l-2.49.1,0-1.23a10.5,10.5,0,0,1,2.69-.38,2.61,2.61,0,0,1,1.83.53A2.19,2.19,0,0,1,124.52,100.46Zm-3,1.74a.72.72,0,0,0-.74.79c0,.49.22.73.65.73a4.12,4.12,0,0,0,1.1-.16l.19,0V102.1Z"/><path class="cls-9" d="M129.87,99.91h-1.62v2.7a3.89,3.89,0,0,0,0,.56.47.47,0,0,0,.14.29.54.54,0,0,0,.39.11l1,0,.08,1.41a7,7,0,0,1-1.34.2,2,2,0,0,1-1.63-.54,3.23,3.23,0,0,1-.43-2V99.91h-.78V98.4h.78V96.57h1.77V98.4h1.62Z"/><path class="cls-9" d="M136.07,100.46v2.75a1.15,1.15,0,0,0,.11.44.51.51,0,0,0,.33.18l0,1.33a5.18,5.18,0,0,1-1.08-.09,2.66,2.66,0,0,1-.81-.37,4.49,4.49,0,0,1-1.94.46c-1.37,0-2-.72-2-2.17a1.77,1.77,0,0,1,.57-1.49,3.2,3.2,0,0,1,1.74-.53l1.41-.1v-.41a.71.71,0,0,0-.18-.56.93.93,0,0,0-.59-.15l-2.49.1,0-1.23a10.5,10.5,0,0,1,2.69-.38,2.61,2.61,0,0,1,1.83.53A2.19,2.19,0,0,1,136.07,100.46Zm-3,1.74a.72.72,0,0,0-.74.79c0,.49.22.73.65.73a4.12,4.12,0,0,0,1.1-.16l.19,0V102.1Z"/><path class="cls-9" d="M141,98.24a2.51,2.51,0,0,1,2,.76,4.29,4.29,0,0,1,.64,2.71,3.76,3.76,0,0,1-.74,2.7,3.49,3.49,0,0,1-2.54.75c-.38,0-1.07,0-2.08-.13l-.5-.06V95.76h1.77V98.6A3.78,3.78,0,0,1,141,98.24Zm-.62,5.33a1.37,1.37,0,0,0,1.18-.42,2.75,2.75,0,0,0,.31-1.54c0-1.19-.37-1.78-1.11-1.78a3.61,3.61,0,0,0-1,.13l-.19,0v3.52C139.94,103.56,140.2,103.57,140.34,103.57Z"/><path class="cls-9" d="M150,100.46v2.75a1.19,1.19,0,0,0,.1.44.57.57,0,0,0,.33.18l-.05,1.33a5,5,0,0,1-1.07-.09,2.82,2.82,0,0,1-.82-.37,4.49,4.49,0,0,1-1.94.46c-1.36,0-2-.72-2-2.17a1.77,1.77,0,0,1,.57-1.49,3.14,3.14,0,0,1,1.74-.53l1.41-.1v-.41a.71.71,0,0,0-.18-.56,1,1,0,0,0-.6-.15l-2.48.1-.05-1.23a10.43,10.43,0,0,1,2.68-.38,2.66,2.66,0,0,1,1.84.53A2.23,2.23,0,0,1,150,100.46Zm-3,1.74a.72.72,0,0,0-.74.79c0,.49.22.73.65.73a4,4,0,0,0,1.09-.16l.2,0V102.1Z"/><path class="cls-9" d="M156.43,100.05a21.23,21.23,0,0,0-2.29-.21,1.9,1.9,0,0,0-.85.12.4.4,0,0,0-.19.37.36.36,0,0,0,.26.36,9.69,9.69,0,0,0,1.32.29,2.92,2.92,0,0,1,1.51.63,1.89,1.89,0,0,1,.45,1.41c0,1.43-.89,2.14-2.65,2.14a11.43,11.43,0,0,1-2.12-.24l-.42-.08.05-1.48a21.1,21.1,0,0,0,2.28.21,2.1,2.1,0,0,0,.87-.12.39.39,0,0,0,.23-.38.4.4,0,0,0-.24-.37,6.74,6.74,0,0,0-1.27-.29,3.22,3.22,0,0,1-1.52-.58,1.78,1.78,0,0,1-.5-1.46,1.84,1.84,0,0,1,.71-1.58,3,3,0,0,1,1.83-.54,12.29,12.29,0,0,1,2.13.26l.43.07Z"/><path class="cls-9" d="M159.69,103.33a1.34,1.34,0,0,0,.9.27c.81,0,1.54,0,2.19-.08l.37,0,0,1.31a11.46,11.46,0,0,1-2.74.37,2.72,2.72,0,0,1-2.17-.79,4,4,0,0,1-.67-2.58q0-3.56,2.92-3.55c1.91,0,2.87,1,2.87,3l-.13,1.23h-3.88A1.17,1.17,0,0,0,159.69,103.33Zm1.95-2.22a1.81,1.81,0,0,0-.25-1.11,1.1,1.1,0,0,0-.88-.31,1,1,0,0,0-.88.33,1.84,1.84,0,0,0-.27,1.09Z"/></g></g><g id="Group_2498" data-name="Group 2498"><g id="Group_2497" data-name="Group 2497"><path id="Rectangle_1979-2" data-name="Rectangle 1979-2" class="cls-4" d="M54,215.58H132a2,2,0,0,1,2,2v5.14H52v-5.14A2,2,0,0,1,54,215.58Z"/></g><circle id="Ellipse_1071" data-name="Ellipse 1071" class="cls-2" cx="57.19" cy="219.67" r="1.28"/><circle id="Ellipse_1072" data-name="Ellipse 1072" class="cls-2" cx="61.01" cy="219.67" r="1.28"/><circle id="Ellipse_1073" data-name="Ellipse 1073" class="cls-2" cx="64.84" cy="219.67" r="1.28"/></g></g></g></svg>