<svg xmlns="http://www.w3.org/2000/svg" viewBox="0 0 713.42 98.18"><defs><style>.cls-1{isolation:isolate;}.cls-2{fill:#172d72;}.cls-3{fill:#e30c34;}.cls-4{fill:#fff;}.cls-5{fill:none;stroke:#172d72;stroke-width:2px;}</style></defs><g id="Layer_2" data-name="Layer 2"><g id="Layer_1-2" data-name="Layer 1"><g id="Group_2501" data-name="Group 2501"><g id="SQL_at_SCALE" data-name="SQL at SCALE" class="cls-1"><g class="cls-1"><path class="cls-2" d="M358.68,35.28q-7.2,0-7.2,4.75a3.61,3.61,0,0,0,1.79,3.24,46.88,46.88,0,0,0,8.35,3.23q6.56,2.11,9.2,4.78t2.64,8.22q0,7.06-4.29,10.69T358,73.82a62.78,62.78,0,0,1-12.6-1.58L343,71.78l.92-7.07a108.5,108.5,0,0,0,13.53,1.19q7,0,7-5.8a3.89,3.89,0,0,0-1.62-3.31,23.16,23.16,0,0,0-6.43-2.57Q348.71,52,345.58,49c-2.09-2-3.14-4.79-3.14-8.35q0-6.73,4.09-10t11.22-3.3a74.46,74.46,0,0,1,12.41,1.32l2.38.46-.73,7.19Q362.51,35.28,358.68,35.28Z"/><path class="cls-2" d="M397.42,73.82q-10.31,0-14.46-5.54t-4.15-17.46q0-11.91,4.19-17.69t14.42-5.77q10.23,0,14.42,5.77T416,50.86q0,14.64-6.93,19.73l5.48,8.84-8.32,3.9-5.94-9.71A12.38,12.38,0,0,1,397.42,73.82Zm-7.29-11.35c1.29,2.29,3.73,3.43,7.29,3.43s6-1.14,7.29-3.43,2-6.16,2-11.61-.66-9.42-2-11.88-3.74-3.7-7.26-3.7-5.94,1.23-7.26,3.7-2,6.42-2,11.88S388.83,60.18,390.13,62.47Z"/><path class="cls-2" d="M449.36,73H423.82V28.15h9.11V65h16.43Z"/><path class="cls-2" d="M494,50.33V64.06a5.38,5.38,0,0,0,.53,2.21,2.53,2.53,0,0,0,1.65.89l-.26,6.66a24.85,24.85,0,0,1-5.38-.46,12,12,0,0,1-4.06-1.85,22,22,0,0,1-9.7,2.31q-10.23,0-10.23-10.82c0-3.52.94-6,2.84-7.49s4.79-2.35,8.71-2.61l7.06-.53v-2a3.52,3.52,0,0,0-.92-2.81,4.72,4.72,0,0,0-3-.76l-12.41.53-.27-6.14A51.67,51.67,0,0,1,482,39.24q6.36,0,9.17,2.64T494,50.33ZM479.12,59q-3.69.33-3.69,4t3.23,3.63a21.75,21.75,0,0,0,5.48-.79l1-.27V58.51Z"/><path class="cls-2" d="M520.7,47.56h-8.11V61.08a25.84,25.84,0,0,0,.1,2.81,2.25,2.25,0,0,0,.72,1.42,2.79,2.79,0,0,0,2,.59l5-.13.4,7.06a33.6,33.6,0,0,1-6.73,1q-5.94,0-8.12-2.67t-2.18-9.87V47.56h-3.89V40h3.89V30.86h8.85V40h8.11Z"/><path class="cls-2" d="M555.55,35.28c-4.8,0-7.19,1.58-7.19,4.75a3.6,3.6,0,0,0,1.78,3.24,47.22,47.22,0,0,0,8.35,3.23c4.38,1.41,7.44,3,9.21,4.78s2.63,4.53,2.63,8.22q0,7.06-4.29,10.69t-11.21,3.63a62.78,62.78,0,0,1-12.61-1.58l-2.38-.46.93-7.07A108.2,108.2,0,0,0,554.3,65.9q7,0,7-5.8a3.9,3.9,0,0,0-1.61-3.31,23.27,23.27,0,0,0-6.44-2.57Q545.59,52,542.45,49c-2.09-2-3.14-4.79-3.14-8.35q0-6.73,4.1-10c2.72-2.2,6.47-3.3,11.22-3.3A74.67,74.67,0,0,1,567,28.68l2.37.46-.72,7.19Q559.38,35.28,555.55,35.28Z"/><path class="cls-2" d="M606.11,72.31a60.2,60.2,0,0,1-12.61,1.51,24.15,24.15,0,0,1-9-1.38A11.16,11.16,0,0,1,579.24,68a19.93,19.93,0,0,1-2.64-7.13,61.07,61.07,0,0,1-.72-10.3q0-13,3.66-18.12T593,27.36a57.27,57.27,0,0,1,13.13,1.78l-.26,7.26a75.06,75.06,0,0,0-10.86-1q-4.32,0-6.17,1.16A7.17,7.17,0,0,0,586.14,41q-.89,3.24-.89,11t1.82,10.79q1.81,3,7.26,3a78.71,78.71,0,0,0,11.58-.92Z"/><path class="cls-2" d="M609.74,73l10.09-44.88h17.3L647.22,73h-9.1l-1.79-8.12h-15.7L618.84,73ZM626.9,35.67,622.34,57h12.28l-4.56-21.32Z"/><path class="cls-2" d="M678.77,73H653.23V28.15h9.11V65h16.43Z"/><path class="cls-2" d="M684.38,73V28.15h29v7.92H693.49v10.5h16v7.78h-16V65.11h19.93V73Z"/></g></g><g id="Group_41" data-name="Group 41"><path id="Path_235" data-name="Path 235" class="cls-3" d="M0,24.54V73.63L42.51,98.18,85,73.63V24.54L42.51,0Z"/><path id="Path_236" data-name="Path 236" class="cls-4" d="M42.49,16.39,14.25,32.69V49l14.12-8.16V73.65l14.12,8.14h0V32.68L56.6,24.54Z"/><path id="Path_237" data-name="Path 237" class="cls-4" d="M56.68,40.92V73.63l14.17-8.18V32.73Z"/><g id="Group_40" data-name="Group 40"><path id="Path_238" data-name="Path 238" class="cls-2" d="M124.11,73.53H114V33H99.19V24.58h39.22V33h-14.3Z"/><path id="Path_239" data-name="Path 239" class="cls-2" d="M152.31,33h-9.4V24.58h9.4Zm0,40.56h-9.4V37.27h9.4Z"/><path id="Path_240" data-name="Path 240" class="cls-2" d="M162.65,24.58h19.14c7.52,0,12.15,1.68,15.44,5.64,3.9,4.63,6,11.28,6,18.8s-2.08,14.23-6,18.8c-3.29,4-8,5.71-15.44,5.71H162.65Zm19.14,40.56c7.59,0,11.35-5.31,11.35-16S189.38,33,181.79,33h-9.07V65.14Z"/><path id="Path_241" data-name="Path 241" class="cls-2" d="M234,73.53H212V24.58h21.83c12.89,0,16,8.39,16,12.89,0,4.16-1.88,7-6.71,10.07,5.5,3.23,8.12,7.05,8.12,11.89C251.2,65.27,247.78,73.53,234,73.53ZM222.06,44.05H233c4.63,0,7.11-1.95,7.11-5.51S237.64,33,233,33H222.06Zm0,21.08h12c4.9,0,7.45-2.21,7.45-6.31s-2.55-6.38-7.45-6.38h-12Z"/></g></g><line id="Line_31" data-name="Line 31" class="cls-5" x1="297.07" y1="5.4" x2="297.07" y2="92.66"/></g></g></g></svg>