<svg xmlns="http://www.w3.org/2000/svg" viewBox="0 0 1782.06 245.24"><defs><style>.cls-1{isolation:isolate;}.cls-2{fill:#172d72;}.cls-3{fill:#e30c34;}.cls-4{fill:#fff;}.cls-5{fill:none;stroke:#172d72;stroke-width:5px;}</style></defs><g id="Layer_2" data-name="Layer 2"><g id="Layer_2-2" data-name="Layer 2"><g id="Group_2134" data-name="Group 2134"><g id="SQL_at_SCALE" data-name="SQL at SCALE" class="cls-1"><g class="cls-1"><path class="cls-2" d="M896,88.12q-18,0-18,11.87a9,9,0,0,0,4.45,8.08q4.46,2.81,20.85,8.08t23,11.95q6.6,6.68,6.6,20.53,0,17.64-10.72,26.71t-28,9.06q-12.87,0-31.49-4l-5.94-1.16L859,161.65q22.1,3,33.79,3,17.48,0,17.48-14.51a9.67,9.67,0,0,0-4-8.24q-4-3-16.07-6.43-19.12-5.44-27-12.94t-7.83-20.86q0-16.81,10.22-25.06t28-8.24q12.2,0,31,3.3l5.94,1.15-1.81,18Q905.51,88.12,896,88.12Z"/><path class="cls-2" d="M992.72,184.4q-25.72,0-36.1-13.84T946.23,127q0-29.76,10.47-44.19t36-14.42q25.54,0,36,14.42T1039.21,127q0,36.6-17.31,49.29l13.69,22.1-20.78,9.72L1000,183.91A32.46,32.46,0,0,1,992.72,184.4ZM974.5,156.05q4.86,8.56,18.22,8.57t18.22-8.57q4.86-8.58,4.86-29t-4.94-29.67q-5-9.24-18.14-9.24t-18.13,9.24q-5,9.23-5,29.67T974.5,156.05Z"/><path class="cls-2" d="M1122.47,182.43h-63.81V70.32h22.76v92h41Z"/><path class="cls-2" d="M1233.91,125.71V160a13.19,13.19,0,0,0,1.32,5.53c.66,1,2,1.79,4.12,2.22l-.66,16.65a62.44,62.44,0,0,1-13.44-1.15,30.26,30.26,0,0,1-10.14-4.62,54.81,54.81,0,0,1-24.23,5.77q-25.56,0-25.55-27,0-13.2,7.08-18.72t21.77-6.51l17.64-1.32v-5.11c0-3.4-.77-5.74-2.31-7s-4-1.9-7.42-1.9l-31,1.32-.66-15.33A128.17,128.17,0,0,1,1204,98q15.91,0,22.92,6.59T1233.91,125.71Zm-37.1,21.76q-9.22.84-9.23,9.9t8.08,9.06a53.27,53.27,0,0,0,13.68-2l2.48-.65V146.16Z"/><path class="cls-2" d="M1300.68,118.79H1280.4v33.79a69.56,69.56,0,0,0,.24,7,5.7,5.7,0,0,0,1.82,3.55q1.56,1.49,4.86,1.48l12.53-.33,1,17.64q-11,2.48-16.81,2.47-14.85,0-20.29-6.67t-5.44-24.65V118.79h-9.72V100h9.72V77.08h22.1V100h20.28Z"/><path class="cls-2" d="M1387.72,88.12q-18,0-18,11.87a9,9,0,0,0,4.45,8.08q4.46,2.81,20.86,8.08t23,11.95q6.6,6.68,6.6,20.53,0,17.64-10.72,26.71t-28,9.06q-12.87,0-31.49-4l-5.94-1.16,2.31-17.64q22.1,3,33.8,3,17.48,0,17.47-14.51a9.64,9.64,0,0,0-4-8.24q-4-3-16.07-6.43-19.12-5.44-27-12.94t-7.84-20.86q0-16.81,10.23-25.06t28-8.24q12.19,0,31,3.3l5.93,1.15-1.81,18Q1397.28,88.12,1387.72,88.12Z"/><path class="cls-2" d="M1514,180.61a149.76,149.76,0,0,1-31.49,3.79q-14,0-22.42-3.46a27.72,27.72,0,0,1-13.19-11,49.29,49.29,0,0,1-6.59-17.81,151.16,151.16,0,0,1-1.81-25.72q0-32.48,9.15-45.25t33.71-12.78q14.17,0,32.81,4.45l-.66,18.14a187.16,187.16,0,0,0-27.12-2.48q-10.8,0-15.42,2.89t-6.84,11q-2.22,8.08-2.22,27.53t4.53,27q4.53,7.5,18.14,7.5a194.65,194.65,0,0,0,28.93-2.31Z"/><path class="cls-2" d="M1523.07,182.43l25.22-112.11h43.2l25.22,112.11H1594l-4.45-20.28h-39.24l-4.45,20.28Zm42.86-93.32-11.37,53.25h30.66l-11.37-53.25Z"/><path class="cls-2" d="M1695.51,182.43h-63.8V70.32h22.75v92h41Z"/><path class="cls-2" d="M1709.53,182.43V70.32h72.53V90.1h-49.78v26.22h39.89v19.45h-39.89v26.87h49.78v19.79Z"/></g></g><g id="Group_41" data-name="Group 41"><path id="Path_235" data-name="Path 235" class="cls-3" d="M0,61.31V183.93l106.2,61.31,106.19-61.31V61.31L106.2,0Z"/><path id="Path_236" data-name="Path 236" class="cls-4" d="M106.13,40.93,35.6,81.65v40.72L70.87,102v82l35.26,20.33h0V81.64l35.25-20.35Z"/><path id="Path_237" data-name="Path 237" class="cls-4" d="M141.58,102.2v81.73L177,163.49V81.75Z"/><g id="Group_40" data-name="Group 40"><path id="Path_238" data-name="Path 238" class="cls-2" d="M310,183.68H284.85V82.36H247.78v-21h98v21H310Z"/><path id="Path_239" data-name="Path 239" class="cls-2" d="M380.46,82.36H357v-21h23.49Zm0,101.31H357V93.09h23.49Z"/><path id="Path_240" data-name="Path 240" class="cls-2" d="M406.29,61.39h47.8c18.79,0,30.37,4.2,38.58,14.09,9.73,11.58,14.93,28.18,14.93,47,0,19-5.2,35.56-14.93,47-8.22,9.9-20,14.26-38.58,14.26h-47.8Zm47.8,101.32c19,0,28.35-13.25,28.35-40.09,0-27-9.39-40.26-28.35-40.26H431.45v80.35Z"/><path id="Path_241" data-name="Path 241" class="cls-2" d="M584.54,183.68h-55V61.39H584c32.21,0,39.92,21,39.92,32.21,0,10.4-4.69,17.44-16.77,25.16,13.75,8,20.3,17.61,20.3,29.69C627.48,163,618.92,183.68,584.54,183.68ZM554.68,110H582c11.57,0,17.78-4.87,17.78-13.76,0-9-6.21-13.92-17.78-13.92H554.68Zm0,52.67h30c12.24,0,18.62-5.54,18.62-15.77,0-10.4-6.37-15.93-18.62-15.93h-30Z"/></g></g><line id="Line_31" data-name="Line 31" class="cls-5" x1="742.07" y1="13.49" x2="742.07" y2="231.44"/></g></g></g></svg>