<svg xmlns="http://www.w3.org/2000/svg" viewBox="0 0 782 664.27"><defs><style>.cls-1,.cls-15{fill:#f7f8f9;}.cls-2{fill:#2e2fff;}.cls-10,.cls-11,.cls-12,.cls-13,.cls-16,.cls-17,.cls-20,.cls-21,.cls-27,.cls-3{fill:none;}.cls-13,.cls-15,.cls-17,.cls-18,.cls-27,.cls-3{stroke:#3f3d56;}.cls-17,.cls-3{stroke-dasharray:6;}.cls-4{fill:#3f3d56;}.cls-5{fill:#6c63ff;}.cls-6,.cls-7,.cls-8{fill:#ff6584;}.cls-6{opacity:0.8;}.cls-14,.cls-6,.cls-8{isolation:isolate;}.cls-8{opacity:0.4;}.cls-9{fill:#ff4f5e;}.cls-10{stroke:#ff4f5e;stroke-width:1.5px;}.cls-12{stroke:#2e2fff;stroke-width:2px;stroke-dasharray:3;}.cls-16{stroke:#707070;}.cls-18{fill:#fff;}.cls-19{fill:#3351ff;}.cls-20{stroke:#e1dfff;}.cls-21{stroke:#d0cde1;}.cls-22{opacity:0.2;}.cls-23{fill:#2f2e41;}.cls-24{fill:#c9cedd;}.cls-25{fill:#f2f2f2;}.cls-26{fill:#f4f4f7;}</style></defs><g id="Layer_2" data-name="Layer 2"><g id="Layer_1-2" data-name="Layer 1"><g id="Group_2360" data-name="Group 2360"><g id="Group_1930" data-name="Group 1930"><path id="Path_94" data-name="Path 94" class="cls-1" d="M680.72,170.69C589.11,31.06,416.6-33.11,257.23,16.81,173,43.2,94.7,101.11,64.12,220,9.44,432.44,171.94,510.31,276.09,538a559.88,559.88,0,0,1,143.23,60.65c80.47,48.12,219.37,94.52,304.8-82.54C786.05,387.82,741.74,263.7,680.72,170.69Z"/><path id="Path_5552" data-name="Path 5552" class="cls-2" d="M316.94,454.9l-12.14-13,13-12.14,12.14,13ZM306.74,442,317,453l11-10.27-10.28-11Z"/><path id="Path_5605" data-name="Path 5605" class="cls-3" d="M20.77,285.61s-10,12.94-6.2,54.77,22.92,57.06,22.92,57.06"/><g id="Group_1332" data-name="Group 1332"><g id="Group_1275" data-name="Group 1275"><rect id="Rectangle_2036" data-name="Rectangle 2036" class="cls-4" x="57" y="520.51" width="216" height="65"/><ellipse id="Ellipse_223" data-name="Ellipse 223" class="cls-5" cx="165" cy="518.51" rx="108" ry="23"/><ellipse id="Ellipse_224" data-name="Ellipse 224" class="cls-4" cx="165" cy="586.51" rx="108" ry="24"/><rect id="Rectangle_2036-2" data-name="Rectangle 2036-2" class="cls-4" x="57" y="432.51" width="216" height="67"/><ellipse id="Ellipse_223-2" data-name="Ellipse 223-2" class="cls-5" cx="165" cy="434.51" rx="108" ry="24"/><ellipse id="Ellipse_224-2" data-name="Ellipse 224-2" class="cls-4" cx="165" cy="502.01" rx="108" ry="24.5"/><rect id="Rectangle_2036-3" data-name="Rectangle 2036-3" class="cls-4" x="57" y="352.51" width="216" height="66"/><ellipse id="Ellipse_223-3" data-name="Ellipse 223-3" class="cls-5" cx="165" cy="351.01" rx="108" ry="23.5"/><ellipse id="Ellipse_224-3" data-name="Ellipse 224-3" class="cls-4" cx="165" cy="419.01" rx="108" ry="24.5"/></g><g id="Group_1276" data-name="Group 1276"><rect id="Rectangle_2037" data-name="Rectangle 2037" class="cls-6" x="159.47" y="415.87" width="11.62" height="11.62"/><rect id="Rectangle_2038" data-name="Rectangle 2038" class="cls-7" x="176.17" y="415.87" width="11.62" height="11.62"/><rect id="Rectangle_2039" data-name="Rectangle 2039" class="cls-8" x="142.77" y="415.87" width="11.62" height="11.62"/></g><g id="Group_1277" data-name="Group 1277"><rect id="Rectangle_2037-2" data-name="Rectangle 2037-2" class="cls-6" x="159.47" y="499.22" width="11.62" height="11.62"/><rect id="Rectangle_2038-2" data-name="Rectangle 2038-2" class="cls-7" x="176.17" y="499.22" width="11.62" height="11.62"/><rect id="Rectangle_2039-2" data-name="Rectangle 2039-2" class="cls-8" x="142.77" y="499.22" width="11.62" height="11.62"/></g><g id="Group_1278" data-name="Group 1278"><rect id="Rectangle_2037-3" data-name="Rectangle 2037-3" class="cls-6" x="159.47" y="583.27" width="11.62" height="11.62"/><rect id="Rectangle_2038-3" data-name="Rectangle 2038-3" class="cls-7" x="176.17" y="583.27" width="11.62" height="11.62"/><rect id="Rectangle_2039-3" data-name="Rectangle 2039-3" class="cls-8" x="142.77" y="583.27" width="11.62" height="11.62"/></g></g><g id="Group_1396" data-name="Group 1396"><g id="Ellipse_259" data-name="Ellipse 259"><circle class="cls-9" cx="761" cy="387.51" r="11"/><circle class="cls-10" cx="761" cy="387.51" r="10.25"/></g><g id="Ellipse_260" data-name="Ellipse 260"><circle class="cls-11" cx="761" cy="387.51" r="21"/><circle class="cls-12" cx="761" cy="387.51" r="20"/></g></g><g id="Group_1333" data-name="Group 1333"><path id="Polygon_6" data-name="Polygon 6" class="cls-2" d="M556.73,632l23.51,24-33,8.23Z"/><g id="Polygon_7" data-name="Polygon 7"><path class="cls-11" d="M559.4,622.07l30.54,31.55-42.69,10.65Z"/><path class="cls-2" d="M559.89,624l-11.2,38.87L588,653.07,559.89,624m-.49-1.94,30.54,31.55-42.69,10.65Z"/></g></g><g id="Group_1353" data-name="Group 1353"><path id="Path_5615" data-name="Path 5615" class="cls-13" d="M199,148H47.16"/><path id="Path_5616" data-name="Path 5616" class="cls-13" d="M199,86.92H47.16"/><rect id="Rectangle_2101" data-name="Rectangle 2101" class="cls-7" x="190.23" y="78.75" width="15.94" height="15.94"/><g id="O_L_A_P" data-name="O L A P" class="cls-14"><g class="cls-14"><path class="cls-4" d="M272.2,55.23a7.47,7.47,0,0,1-9.44,0,7.78,7.78,0,0,1-2.18-5.94q0-3.94,2.18-5.93a7.47,7.47,0,0,1,9.44,0q2.18,2,2.18,5.93A7.78,7.78,0,0,1,272.2,55.23ZM270.32,53a5.86,5.86,0,0,0,1.05-3.75,5.88,5.88,0,0,0-1.05-3.74,3.44,3.44,0,0,0-2.84-1.32,3.49,3.49,0,0,0-2.85,1.31,5.84,5.84,0,0,0-1.07,3.75A5.8,5.8,0,0,0,264.63,53a3.73,3.73,0,0,0,5.69,0Z"/><path class="cls-4" d="M282.23,42.12h3v11.8h7.19v2.59H282.23Z"/><path class="cls-4" d="M303,42.12h3.41l5.09,14.39h-3.26l-.95-3H302l-1,3h-3.15Zm-.2,9h3.69l-1.82-5.66Z"/><path class="cls-4" d="M327.85,50.28a5.51,5.51,0,0,1-3.61,1.06h-3v5.17h-3V42.12h6.18a5,5,0,0,1,3.41,1.11,4.33,4.33,0,0,1,1.27,3.45A4.46,4.46,0,0,1,327.85,50.28Zm-2.3-5.18a2.41,2.41,0,0,0-1.6-.48h-2.71v4.23H324a2.31,2.31,0,0,0,1.6-.51,2.12,2.12,0,0,0,.57-1.64A2,2,0,0,0,325.55,45.1Z"/></g></g><g id="O_L_T_P" data-name="O L T P" class="cls-14"><g class="cls-14"><path class="cls-4" d="M108,55.23a7.46,7.46,0,0,1-9.43,0,7.75,7.75,0,0,1-2.19-5.94q0-3.94,2.19-5.93a7.46,7.46,0,0,1,9.43,0q2.17,2,2.18,5.93A7.78,7.78,0,0,1,108,55.23ZM106.08,53a5.86,5.86,0,0,0,1-3.75,5.88,5.88,0,0,0-1-3.74,3.44,3.44,0,0,0-2.84-1.32,3.49,3.49,0,0,0-2.85,1.31,5.83,5.83,0,0,0-1.06,3.75A5.8,5.8,0,0,0,100.39,53a3.73,3.73,0,0,0,5.69,0Z"/><path class="cls-4" d="M118,42.12h3v11.8h7.18v2.59H118Z"/><path class="cls-4" d="M145.87,42.12v2.55h-4.31V56.51h-3V44.67h-4.33V42.12Z"/><path class="cls-4" d="M162.85,50.28a5.51,5.51,0,0,1-3.61,1.06h-3v5.17h-3V42.12h6.18a5,5,0,0,1,3.41,1.11,4.33,4.33,0,0,1,1.27,3.45A4.46,4.46,0,0,1,162.85,50.28Zm-2.3-5.18a2.41,2.41,0,0,0-1.6-.48h-2.71v4.23H159a2.31,2.31,0,0,0,1.6-.51,2.12,2.12,0,0,0,.57-1.64A2,2,0,0,0,160.55,45.1Z"/></g></g><path id="Path_5620" data-name="Path 5620" class="cls-13" d="M199,198.75H47.16"/><path id="Path_5621" data-name="Path 5621" class="cls-13" d="M199,259H47.16"/><rect id="Rectangle_2106" data-name="Rectangle 2106" class="cls-7" x="42.42" y="78.75" width="15.94" height="15.94"/><rect id="Rectangle_2107" data-name="Rectangle 2107" class="cls-7" x="42.42" y="139.82" width="15.94" height="15.94"/><rect id="Rectangle_2109" data-name="Rectangle 2109" class="cls-7" x="139.62" y="78.75" width="15.94" height="15.94"/><rect id="Rectangle_2110" data-name="Rectangle 2110" class="cls-7" x="190.38" y="139.82" width="15.94" height="15.94"/><rect id="Rectangle_2111" data-name="Rectangle 2111" class="cls-15" x="96.18" y="139.39" width="15.94" height="15.94"/><rect id="Rectangle_2105" data-name="Rectangle 2105" class="cls-7" x="114.68" y="250.79" width="15.94" height="15.94"/><rect id="Rectangle_2112" data-name="Rectangle 2112" class="cls-15" x="189.95" y="250.36" width="15.94" height="15.94"/><rect id="Rectangle_2113" data-name="Rectangle 2113" class="cls-15" x="42.85" y="250.36" width="15.94" height="15.94"/><rect id="Rectangle_2103" data-name="Rectangle 2103" class="cls-15" x="42.42" y="191.01" width="15.94" height="15.94"/><rect id="Rectangle_2104" data-name="Rectangle 2104" class="cls-15" x="190.38" y="191.01" width="15.94" height="15.94"/><rect id="Rectangle_2114" data-name="Rectangle 2114" class="cls-7" x="139.62" y="190.58" width="15.94" height="15.94"/><g id="Group_1350" data-name="Group 1350"><path id="Path_5623" data-name="Path 5623" class="cls-13" d="M337.91,86.51V257.93"/><circle id="Ellipse_272" data-name="Ellipse 272" class="cls-2" cx="337.48" cy="159.64" r="9.46"/><circle id="Ellipse_273" data-name="Ellipse 273" class="cls-2" cx="337.5" cy="257.01" r="9.5"/><circle id="Ellipse_274" data-name="Ellipse 274" class="cls-15" cx="337.62" cy="86.62" r="9.17"/></g><g id="Group_1352" data-name="Group 1352"><path id="Path_5619" data-name="Path 5619" class="cls-13" d="M250.16,86.51V257.93"/><ellipse id="Ellipse_267" data-name="Ellipse 267" class="cls-2" cx="249.5" cy="257.01" rx="10.5" ry="9.5"/><circle id="Ellipse_268" data-name="Ellipse 268" class="cls-15" cx="249.87" cy="147.7" r="9.17"/><circle id="Ellipse_275" data-name="Ellipse 275" class="cls-2" cx="249.73" cy="86.52" r="9.46"/></g><g id="Group_1351" data-name="Group 1351"><path id="Path_5622" data-name="Path 5622" class="cls-13" d="M294,86.51V257.93"/><circle id="Ellipse_269" data-name="Ellipse 269" class="cls-2" cx="293.6" cy="216.41" r="9.46"/><circle id="Ellipse_271" data-name="Ellipse 271" class="cls-15" cx="293.75" cy="86.62" r="9.17"/><circle id="Ellipse_276" data-name="Ellipse 276" class="cls-15" cx="293.75" cy="256.96" r="9.17"/></g><g id="Rectangle_2115" data-name="Rectangle 2115"><rect class="cls-11" y="12.51" width="389" height="284"/><rect class="cls-16" x="0.5" y="13.01" width="388" height="283"/></g></g><g id="Group_1354" data-name="Group 1354"><rect id="Rectangle_2063" data-name="Rectangle 2063" class="cls-17" x="382" y="172.51" width="314" height="390"/><g id="Group_1320" data-name="Group 1320"><rect id="Rectangle_2063-2" data-name="Rectangle 2063-2" class="cls-18" x="361" y="191.51" width="314" height="390"/><rect id="Rectangle_2044" data-name="Rectangle 2044" class="cls-19" x="509" y="354.51" width="15" height="14"/><rect id="Rectangle_2045" data-name="Rectangle 2045" class="cls-7" x="509" y="384.51" width="15" height="15"/><rect id="Rectangle_2047" data-name="Rectangle 2047" class="cls-2" x="584.97" y="293.5" width="20.94" height="105.16"/><rect id="Rectangle_2048" data-name="Rectangle 2048" class="cls-7" x="617.1" y="334.11" width="20.94" height="64.54"/><path id="Path_5544" data-name="Path 5544" class="cls-2" d="M402,452.21a54.74,54.74,0,0,0,48.93,79.27V481.17Z"/><line id="Line_87" data-name="Line 87" class="cls-20" x1="638.04" y1="399.2" x2="396.54" y2="399.2"/><line id="Line_88" data-name="Line 88" class="cls-20" x1="638.04" y1="552.22" x2="396.54" y2="552.22"/><path id="Path_5546" data-name="Path 5546" class="cls-21" d="M540.14,502.18l26.16,17.46,28.77-22.92,38-10.52"/><circle id="Ellipse_236" data-name="Ellipse 236" class="cls-2" cx="633.5" cy="487.01" r="5.5"/><circle id="Ellipse_234" data-name="Ellipse 234" class="cls-2" cx="540.5" cy="503.01" r="5.5"/><circle id="Ellipse_235" data-name="Ellipse 235" class="cls-2" cx="566.5" cy="520.01" r="5.5"/><circle id="Ellipse_237" data-name="Ellipse 237" class="cls-2" cx="595.5" cy="497.01" r="5.5"/><g id="Group_1298" data-name="Group 1298"><rect id="Rectangle_2068" data-name="Rectangle 2068" class="cls-19" x="535" y="448.51" width="6" height="6"/><rect id="Rectangle_2076" data-name="Rectangle 2076" class="cls-19" x="535" y="459.51" width="6" height="6"/><rect id="Rectangle_2077" data-name="Rectangle 2077" class="cls-19" x="535" y="470.51" width="6" height="6"/></g><rect id="Rectangle_2078" data-name="Rectangle 2078" class="cls-5" x="509" y="322.51" width="15" height="15"/><rect id="Rectangle_2079" data-name="Rectangle 2079" class="cls-5" x="552.83" y="317.43" width="20.94" height="81.22"/><g id="Group_1295" data-name="Group 1295"><rect id="Rectangle_2067" data-name="Rectangle 2067" class="cls-4" x="546" y="450.51" width="33" height="2"/><rect id="Rectangle_2069" data-name="Rectangle 2069" class="cls-4" x="546" y="461.51" width="33" height="2"/><rect id="Rectangle_2071" data-name="Rectangle 2071" class="cls-4" x="546" y="472.51" width="33" height="3"/></g><g id="Group_1296" data-name="Group 1296" class="cls-22"><rect id="Rectangle_2064" data-name="Rectangle 2064" class="cls-5" x="396" y="221.51" width="243" height="6"/><rect id="Rectangle_2065" data-name="Rectangle 2065" class="cls-5" x="396" y="247.51" width="243" height="7"/><rect id="Rectangle_2066" data-name="Rectangle 2066" class="cls-5" x="396" y="274.51" width="178" height="7"/><path id="Path_5542" data-name="Path 5542" class="cls-5" d="M454.23,420.35V529.81a54.73,54.73,0,1,0,0-109.46Z"/><path id="Path_5543" data-name="Path 5543" class="cls-5" d="M451.58,423.76a50.29,50.29,0,0,0-44.95,27.74l44.95,26.6Z"/><rect id="Rectangle_2073" data-name="Rectangle 2073" class="cls-5" x="397" y="337.51" width="80" height="2"/><rect id="Rectangle_2074" data-name="Rectangle 2074" class="cls-5" x="397" y="355.51" width="80" height="3"/><rect id="Rectangle_2075" data-name="Rectangle 2075" class="cls-5" x="397" y="374.51" width="80" height="3"/></g><path id="Path_5603" data-name="Path 5603" class="cls-23" d="M436.55,496.89l-.47-.47L471,461.49h60.84v.66H471.29Z"/></g></g><g id="Group_1355" data-name="Group 1355"><g id="Group_1260" data-name="Group 1260"><rect id="Rectangle_1981" data-name="Rectangle 1981" class="cls-4" x="433.78" y="53.63" width="347.62" height="202.93" rx="6"/><g id="Group_1259" data-name="Group 1259"><path id="Rectangle_1979" data-name="Rectangle 1979" class="cls-24" d="M440,52.51H776a6,6,0,0,1,6,6v11H434v-11A6,6,0,0,1,440,52.51Z"/></g><circle id="Ellipse_207" data-name="Ellipse 207" class="cls-5" cx="445.81" cy="61.3" r="2.92"/><circle id="Ellipse_208" data-name="Ellipse 208" class="cls-5" cx="454.58" cy="61.3" r="2.92"/><circle id="Ellipse_209" data-name="Ellipse 209" class="cls-5" cx="463.35" cy="61.3" r="2.92"/></g><path id="Path_5390" data-name="Path 5390" class="cls-25" d="M547.52,92.54H460.86a1.07,1.07,0,0,1-1-1.12,1.06,1.06,0,0,1,1-1h86.66a1,1,0,0,1,1.11,1,1.05,1.05,0,0,1-1,1.12Z"/><path id="Path_5391" data-name="Path 5391" class="cls-25" d="M642.38,104.11H506.08A1.05,1.05,0,0,1,506,102H642.38a1.05,1.05,0,1,1,.13,2.1Z"/><path id="Path_5392" data-name="Path 5392" class="cls-25" d="M547.94,115.67H461.28a1.05,1.05,0,0,1-1.12-1,1.07,1.07,0,0,1,1-1.12h86.79a1.05,1.05,0,0,1,1.11,1,1,1,0,0,1-1,1.11A.29.29,0,0,1,547.94,115.67Z"/><path id="Path_5393" data-name="Path 5393" class="cls-25" d="M642.38,115.88H555.72a1.05,1.05,0,0,1-1-1.11,1.07,1.07,0,0,1,1-1h86.66a1.05,1.05,0,0,1,1,1.12,1,1,0,0,1-1,1Z"/><path id="Path_5394" data-name="Path 5394" class="cls-9" d="M548.15,127.24H461.49a1,1,0,0,1-1.11-1,1.05,1.05,0,0,1,1-1.12h86.79a1.07,1.07,0,0,1,1.12,1,1.05,1.05,0,0,1-1,1.11A.29.29,0,0,1,548.15,127.24Z"/><path id="Path_5395" data-name="Path 5395" class="cls-25" d="M548.36,138.81H461.7a1.05,1.05,0,0,1,0-2.1h86.66a1.07,1.07,0,0,1,1.12,1,1.05,1.05,0,0,1-1,1.11Z"/><path id="Path_5396" data-name="Path 5396" class="cls-9" d="M587.69,92.75H562.87a1.05,1.05,0,0,1-1.11-1,1,1,0,0,1,1-1.11.28.28,0,0,1,.13,0h24.82a1.05,1.05,0,0,1,1.12,1,1.07,1.07,0,0,1-1,1.12Z"/><path id="Path_5397" data-name="Path 5397" class="cls-9" d="M587.69,127.24H562.87a1,1,0,0,1-1.11-1,1.05,1.05,0,0,1,1-1.12h25a1.07,1.07,0,0,1,1.12,1,1.05,1.05,0,0,1-1,1.11A.28.28,0,0,1,587.69,127.24Z"/><path id="Path_5398" data-name="Path 5398" class="cls-25" d="M587.69,138.6H562.87a1.05,1.05,0,0,1,0-2.1h24.82a1.05,1.05,0,0,1,0,2.1Z"/><path id="Path_5399" data-name="Path 5399" class="cls-25" d="M629.34,138.6H604.52a1.05,1.05,0,0,1,0-2.1h24.82a1.05,1.05,0,1,1,.13,2.1Z"/><path id="Path_5400" data-name="Path 5400" class="cls-9" d="M485.47,104.11H460.65a1.05,1.05,0,1,1-.13-2.1h25a1.05,1.05,0,0,1,.13,2.1Z"/><path id="Path_5401" data-name="Path 5401" class="cls-25" d="M548.31,178.71H462.37a1,1,0,0,1,0-2.08h85.94a1,1,0,1,1,0,2.08Z"/><path id="Path_5402" data-name="Path 5402" class="cls-26" d="M547.9,201.66H462a1,1,0,1,1,0-2.09H547.9a1,1,0,0,1,0,2.09Z"/><path id="Path_5403" data-name="Path 5403" class="cls-25" d="M548.11,213.13H462.16a1,1,0,0,1,0-2.08h85.95a1,1,0,0,1,0,2.08Z"/><path id="Path_5404" data-name="Path 5404" class="cls-9" d="M584.82,201.87H560.2a1,1,0,0,1,0-2.09h24.62a1,1,0,0,1,0,2.09Z"/><path id="Path_5405" data-name="Path 5405" class="cls-25" d="M584.82,213.13H560.2a1,1,0,1,1,0-2.08h24.62a1,1,0,0,1,0,2.08Z"/><path id="Path_5406" data-name="Path 5406" class="cls-9" d="M626.13,201.87H601.51a1,1,0,1,1,0-2.09h24.63a1,1,0,0,1,0,2.09Z"/><path id="Path_5407" data-name="Path 5407" class="cls-9" d="M642.39,190.19H507.22a1,1,0,0,1,0-2.09H642.39a1,1,0,0,1,0,2.09Z"/><path id="Path_5408" data-name="Path 5408" class="cls-9" d="M486.77,190.19H462.16a1,1,0,0,1,0-2.09h24.61a1,1,0,1,1,0,2.09Z"/><path id="Path_5409" data-name="Path 5409" class="cls-25" d="M642.39,224.81H507.22a1,1,0,0,1,0-2.08H642.39a1,1,0,1,1,0,2.08Z"/><path id="Path_5410" data-name="Path 5410" class="cls-9" d="M486.77,224.81H462.16a1,1,0,0,1,0-2.08h24.61a1,1,0,1,1,0,2.08Z"/></g><g id="SQL" class="cls-14"><g class="cls-14"><path class="cls-5" d="M685.32,154.63q-4.37,0-4.36,2.88a2.18,2.18,0,0,0,1.08,2,27.39,27.39,0,0,0,5.06,2,14,14,0,0,1,5.58,2.9,6.82,6.82,0,0,1,1.6,5,8,8,0,0,1-2.6,6.48,10.14,10.14,0,0,1-6.8,2.2,37.81,37.81,0,0,1-7.64-1l-1.44-.28.56-4.28a66.59,66.59,0,0,0,8.2.72q4.25,0,4.24-3.52a2.35,2.35,0,0,0-1-2,13.78,13.78,0,0,0-3.9-1.56q-4.63-1.32-6.54-3.14a6.66,6.66,0,0,1-1.9-5.06q0-4.08,2.48-6.08a10.55,10.55,0,0,1,6.8-2,45.58,45.58,0,0,1,7.52.8l1.44.28-.44,4.36C689.52,154.85,686.87,154.63,685.32,154.63Z"/><path class="cls-5" d="M712.92,178q-6.24,0-8.76-3.36t-2.52-10.58q0-7.22,2.54-10.72t8.74-3.5q6.2,0,8.74,3.5t2.54,10.74q0,8.88-4.2,12l3.32,5.36-5,2.36-3.6-5.88A7.83,7.83,0,0,1,712.92,178Zm-4.42-6.88q1.18,2.08,4.42,2.08t4.42-2.08c.79-1.39,1.18-3.73,1.18-7s-.4-5.71-1.2-7.2-2.27-2.24-4.4-2.24-3.6.75-4.4,2.24-1.2,3.9-1.2,7.2S707.71,169.72,708.5,171.11Z"/><path class="cls-5" d="M748.52,177.51H733v-27.2h5.52v22.32h10Z"/></g></g><path id="Path_5624" data-name="Path 5624" class="cls-27" d="M289.4,306.71c7.72,22.16,33.44,24.36,47,28.23s44.23,21,39.93,52.29"/></g><g id="_" data-name=" " class="cls-14"><g class="cls-14"><path class="cls-5" d="M692.7,211.27,682.91,215l9.79,4v5.1l-15.23-7V213l15.23-6.87Z"/><path class="cls-5" d="M705.41,224.21l10.8-26.62,4.43,1.57-10.8,26.63Z"/><path class="cls-5" d="M743.06,215l-9.79-3.72v-5.1L748.5,213v4.12l-15.23,7V219Z"/></g></g></g></g></g></svg>