<svg xmlns="http://www.w3.org/2000/svg" width="716" height="99.146" viewBox="0 0 716 99.146">
  <g id="Group_2134" data-name="Group 2134" transform="translate(-484 -430)">
    <text id="SQL_at_SCALE" data-name="SQL at SCALE" transform="translate(824 504)" fill="#172d72" font-size="66" font-family="TitilliumWeb-Bold, Titillium Web" font-weight="700"><tspan x="0" y="0">SQL at SCALE</tspan></text>
    <g id="Group_41" data-name="Group 41" transform="translate(484 430.969)">
      <path id="Path_235" data-name="Path 235" d="M634.986,176.836v49.088L677.5,250.469l42.512-24.544V176.836L677.5,152.292Z" transform="translate(-634.986 -152.292)" fill="#e30c34"/>
      <path id="Path_236" data-name="Path 236" d="M699.427,193.923l-28.234,16.3v16.3l14.121-8.153v32.819l14.114,8.138h0V210.22l14.113-8.148Z" transform="translate(-656.941 -177.536)" fill="#fff"/>
      <path id="Path_237" data-name="Path 237" d="M778.983,243.623v32.716l14.173-8.182V235.434Z" transform="translate(-722.302 -202.707)" fill="#fff"/>
      <g id="Group_40" data-name="Group 40" transform="translate(99.193 24.577)">
        <path id="Path_238" data-name="Path 238" d="M911.9,263.684H901.824v-40.56H886.983v-8.394H926.2v8.394H911.9Z" transform="translate(-886.983 -214.729)" fill="#172d72"/>
        <path id="Path_239" data-name="Path 239" d="M1007.441,223.123h-9.4v-8.394h9.4Zm0,40.56h-9.4V227.421h9.4Z" transform="translate(-954.325 -214.729)" fill="#172d72"/>
        <path id="Path_240" data-name="Path 240" d="M1048.195,214.729h19.139c7.521,0,12.155,1.679,15.445,5.641,3.895,4.634,5.977,11.282,5.977,18.8,0,7.588-2.082,14.236-5.977,18.8-3.291,3.962-7.991,5.708-15.445,5.708h-19.139Zm19.139,40.561c7.588,0,11.349-5.305,11.349-16.05,0-10.811-3.761-16.117-11.349-16.117h-9.066V255.29Z" transform="translate(-984.738 -214.729)" fill="#172d72"/>
        <path id="Path_241" data-name="Path 241" d="M1195.55,263.684h-22.026V214.729h21.824c12.894,0,15.983,8.394,15.983,12.893,0,4.164-1.88,6.984-6.715,10.073,5.506,3.223,8.126,7.051,8.126,11.886C1212.741,255.424,1209.317,263.684,1195.55,263.684ZM1183.6,234.2h10.946c4.634,0,7.118-1.947,7.118-5.506,0-3.626-2.485-5.574-7.118-5.574H1183.6Zm0,21.086h12.021c4.9,0,7.454-2.216,7.454-6.313,0-4.163-2.552-6.379-7.454-6.379H1183.6Z" transform="translate(-1060.734 -214.729)" fill="#172d72"/>
      </g>
    </g>
    <line id="Line_31" data-name="Line 31" y2="87.253" transform="translate(781.074 436.371)" fill="none" stroke="#172d72" stroke-width="2"/>
  </g>
</svg>
