<svg xmlns="http://www.w3.org/2000/svg" width="46.922" height="70.383" viewBox="0 0 46.922 70.383">
  <g id="组_3947" data-name="组 3947" transform="translate(-1211 -1088.609)">
    <path id="路径_12440" data-name="路径 12440" d="M88.268,70.383H85.335v-13.2A23.459,23.459,0,0,1,108.8,33.725,20.527,20.527,0,0,0,129.324,13.2V0h2.933V13.2A23.46,23.46,0,0,1,108.8,36.658,20.527,20.527,0,0,0,88.268,57.186v13.2Z" transform="translate(1125.666 1088.609)" fill="#7684d8"/>
    <path id="路径_12441" data-name="路径 12441" d="M132.254,70.383h-2.933v-13.2a20.528,20.528,0,0,0-20.528-20.528A23.458,23.458,0,0,1,85.332,13.2V0h2.933V13.2a20.526,20.526,0,0,0,20.528,20.528,23.46,23.46,0,0,1,23.461,23.461v13.2Z" transform="translate(1125.668 1088.609)" fill="#172d72"/>
    <rect id="矩形_3360" data-name="矩形 3360" width="17.304" height="2.932" transform="translate(1234.461 1094.183)" fill="#7684d8"/>
    <rect id="矩形_3361" data-name="矩形 3361" width="17.304" height="2.932" transform="translate(1217.159 1094.183)" fill="#172d72"/>
    <rect id="矩形_3362" data-name="矩形 3362" width="17.304" height="2.932" transform="translate(1234.461 1101.223)" fill="#7684d8"/>
    <rect id="矩形_3363" data-name="矩形 3363" width="17.304" height="2.932" transform="translate(1217.159 1101.223)" fill="#172d72"/>
    <rect id="矩形_3364" data-name="矩形 3364" width="15.391" height="2.932" transform="translate(1234.461 1108.262)" fill="#7684d8"/>
    <rect id="矩形_3365" data-name="矩形 3365" width="15.392" height="2.932" transform="translate(1219.068 1108.262)" fill="#172d72"/>
    <rect id="矩形_3366" data-name="矩形 3366" width="8.651" height="2.932" transform="translate(1234.461 1115.302)" fill="#7684d8"/>
    <rect id="矩形_3367" data-name="矩形 3367" width="8.703" height="2.932" transform="translate(1225.758 1115.302)" fill="#172d72"/>
    <rect id="矩形_3368" data-name="矩形 3368" width="17.304" height="2.932" transform="translate(1217.159 1150.486)" fill="#7684d8"/>
    <rect id="矩形_3369" data-name="矩形 3369" width="17.304" height="2.932" transform="translate(1234.461 1150.486)" fill="#172d72"/>
    <rect id="矩形_3370" data-name="矩形 3370" width="17.304" height="2.932" transform="translate(1217.159 1143.448)" fill="#7684d8"/>
    <rect id="矩形_3371" data-name="矩形 3371" width="17.304" height="2.932" transform="translate(1234.461 1143.448)" fill="#172d72"/>
    <rect id="矩形_3372" data-name="矩形 3372" width="15.391" height="2.933" transform="translate(1219.072 1136.406)" fill="#7684d8"/>
    <rect id="矩形_3373" data-name="矩形 3373" width="15.392" height="2.933" transform="translate(1234.461 1136.406)" fill="#172d72"/>
    <rect id="矩形_3374" data-name="矩形 3374" width="8.651" height="2.932" transform="translate(1225.811 1129.368)" fill="#7684d8"/>
    <rect id="矩形_3375" data-name="矩形 3375" width="8.703" height="2.932" transform="translate(1234.461 1129.368)" fill="#172d72"/>
  </g>
</svg>
