<svg xmlns="http://www.w3.org/2000/svg" width="78.218" height="62" viewBox="0 0 78.218 62">
  <g id="组_3943" data-name="组 3943" transform="translate(-510 -1097)">
    <g id="组_3943-2" data-name="组 3943" transform="translate(-245 719)">
      <path id="路径_12477" data-name="路径 12477" d="M5.729,0A5.729,5.729,0,1,1,0,5.729,5.729,5.729,0,0,1,5.729,0Z" transform="translate(761.111 417.466)" fill="#7684d8"/>
      <circle id="椭圆_1093" data-name="椭圆 1093" cx="5.729" cy="5.729" r="5.729" transform="translate(788.167 409.012)" fill="#7684d8"/>
      <circle id="椭圆_1094" data-name="椭圆 1094" cx="5.729" cy="5.729" r="5.729" transform="translate(815.41 393.527)" fill="#7684d8"/>
      <path id="路径_12466" data-name="路径 12466" d="M1095.979,498.313a1.268,1.268,0,0,0-1.267,1.267v2.7a1.267,1.267,0,0,0,2.534,0v-2.7a1.267,1.267,0,0,0-1.266-1.267Zm0,0" transform="translate(-274.839 -97.338)" fill="#172d72"/>
      <g id="组_3940" data-name="组 3940">
        <path id="路径_12456" data-name="路径 12456" d="M1025.205,625.707a1.267,1.267,0,0,0-1.267,1.267v2.7a1.267,1.267,0,1,0,2.534,0v-2.7a1.267,1.267,0,0,0-1.267-1.267Zm0,0" transform="translate(-217.581 -200.404)" fill="#172d72"/>
        <path id="路径_12457" data-name="路径 12457" d="M1025.205,540.777a1.268,1.268,0,0,0-1.267,1.267v2.7a1.267,1.267,0,1,0,2.534,0v-2.7a1.267,1.267,0,0,0-1.267-1.267Zm0,0" transform="translate(-217.581 -131.692)" fill="#172d72"/>
        <path id="路径_12458" data-name="路径 12458" d="M1025.205,583.242a1.267,1.267,0,0,0-1.267,1.267v2.7a1.267,1.267,0,1,0,2.534,0v-2.7a1.267,1.267,0,0,0-1.267-1.267Zm0,0" transform="translate(-217.581 -166.049)" fill="#172d72"/>
        <path id="路径_12459" data-name="路径 12459" d="M953.318,582.166a1.268,1.268,0,0,0-1.267,1.267v2.7a1.267,1.267,0,1,0,2.534,0v-2.7a1.267,1.267,0,0,0-1.267-1.267Zm0,0" transform="translate(-159.422 -165.178)" fill="#172d72"/>
        <path id="路径_12460" data-name="路径 12460" d="M953.318,624.631a1.267,1.267,0,0,0-1.267,1.267v2.7a1.267,1.267,0,1,0,2.534,0v-2.7a1.267,1.267,0,0,0-1.267-1.267Zm0,0" transform="translate(-159.422 -199.533)" fill="#172d72"/>
        <path id="路径_12461" data-name="路径 12461" d="M883.658,625.707a1.267,1.267,0,0,0-1.267,1.267v2.7a1.267,1.267,0,1,0,2.534,0v-2.7a1.266,1.266,0,0,0-1.267-1.267Zm0,0" transform="translate(-103.064 -200.404)" fill="#172d72"/>
        <path id="路径_12462" data-name="路径 12462" d="M812,625.707a1.267,1.267,0,0,0-1.267,1.267v2.7a1.267,1.267,0,1,0,2.534,0v-2.7A1.266,1.266,0,0,0,812,625.707Zm0,0" transform="translate(-45.089 -200.404)" fill="#172d72"/>
        <path id="路径_12463" data-name="路径 12463" d="M883.658,583.211a1.267,1.267,0,0,0-1.267,1.267v2.7a1.267,1.267,0,1,0,2.534,0v-2.7a1.266,1.266,0,0,0-1.267-1.267Zm0,0" transform="translate(-103.064 -166.023)" fill="#172d72"/>
        <path id="路径_12464" data-name="路径 12464" d="M1095.979,625.707a1.267,1.267,0,0,0-1.267,1.267v2.7a1.267,1.267,0,1,0,2.534,0v-2.7a1.266,1.266,0,0,0-1.266-1.267Zm0,0" transform="translate(-274.839 -200.404)" fill="#172d72"/>
        <path id="路径_12465" data-name="路径 12465" d="M1095.979,540.777a1.268,1.268,0,0,0-1.267,1.267v2.7a1.267,1.267,0,1,0,2.534,0v-2.7a1.267,1.267,0,0,0-1.266-1.267Zm0,0" transform="translate(-274.839 -131.692)" fill="#172d72"/>
        <path id="路径_12467" data-name="路径 12467" d="M1095.979,583.242a1.267,1.267,0,0,0-1.267,1.267v2.7a1.267,1.267,0,1,0,2.534,0v-2.7a1.266,1.266,0,0,0-1.266-1.267Zm0,0" transform="translate(-274.839 -166.049)" fill="#172d72"/>
      </g>
      <path id="路径_12468" data-name="路径 12468" d="M815.325,510.059l-1.035-2.045,13.939-7.055L841.5,499.47l13.524-7.642,13.51-7.724,1.138,1.989-13.515,7.727L842.225,501.7,828.9,503.19Z" transform="translate(-47.968 -85.842)" fill="#172d72"/>
      <g id="组_3934" data-name="组 3934" transform="translate(763.02 419.375)">
        <circle id="椭圆_1095" data-name="椭圆 1095" cx="2.673" cy="2.673" r="2.673" transform="translate(1.146 1.146)" fill="#7684d8"/>
        <path id="路径_12469" data-name="路径 12469" d="M800.819,602.307a3.819,3.819,0,1,1,3.819-3.819A3.824,3.824,0,0,1,800.819,602.307Zm0-5.347a1.528,1.528,0,1,0,1.528,1.528A1.529,1.529,0,0,0,800.819,596.96Z" transform="translate(-797 -594.668)" fill="#172d72"/>
      </g>
      <g id="组_3935" data-name="组 3935" transform="translate(776.775 412.413)">
        <path id="路径_12476" data-name="路径 12476" d="M2.673,0A2.673,2.673,0,1,1,0,2.673,2.673,2.673,0,0,1,2.673,0Z" transform="translate(1.146 1.146)" fill="#7684d8"/>
        <path id="路径_12470" data-name="路径 12470" d="M872.846,565.849a3.819,3.819,0,1,1,3.819-3.819A3.824,3.824,0,0,1,872.846,565.849Zm0-5.347a1.528,1.528,0,1,0,1.528,1.528A1.529,1.529,0,0,0,872.846,560.5Z" transform="translate(-869.027 -558.211)" fill="#172d72"/>
      </g>
      <g id="组_3936" data-name="组 3936" transform="translate(790.077 410.922)">
        <path id="路径_12475" data-name="路径 12475" d="M2.673,0A2.673,2.673,0,1,1,0,2.673,2.673,2.673,0,0,1,2.673,0Z" transform="translate(1.146 1.146)" fill="#7684d8"/>
        <path id="路径_12471" data-name="路径 12471" d="M942.505,558.039a3.819,3.819,0,1,1,3.819-3.819A3.823,3.823,0,0,1,942.505,558.039Zm0-5.347a1.528,1.528,0,1,0,1.528,1.528A1.529,1.529,0,0,0,942.505,552.692Z" transform="translate(-938.686 -550.4)" fill="#172d72"/>
      </g>
      <g id="组_3937" data-name="组 3937" transform="translate(803.805 403.164)">
        <circle id="椭圆_1098" data-name="椭圆 1098" cx="2.673" cy="2.673" r="2.673" transform="translate(1.146 1.146)" fill="#7684d8"/>
        <path id="路径_12472" data-name="路径 12472" d="M1014.391,517.415a3.819,3.819,0,1,1,3.819-3.819A3.824,3.824,0,0,1,1014.391,517.415Zm0-5.347a1.528,1.528,0,1,0,1.528,1.528A1.529,1.529,0,0,0,1014.391,512.069Z" transform="translate(-1010.572 -509.777)" fill="#172d72"/>
      </g>
      <path id="路径_12474" data-name="路径 12474" d="M826.545,378H761.673A6.681,6.681,0,0,0,755,384.673v48.654A6.681,6.681,0,0,0,761.673,440h64.872a6.681,6.681,0,0,0,6.673-6.673V384.673A6.681,6.681,0,0,0,826.545,378Zm4.139,55.327a4.144,4.144,0,0,1-4.139,4.139h-4.139v-2.787a1.267,1.267,0,0,0-2.534,0v2.787H808.891v-2.787a1.267,1.267,0,0,0-2.534,0v2.787H795.376v-2.787a1.267,1.267,0,0,0-2.534,0v2.787H781.861v-2.787a1.267,1.267,0,0,0-2.534,0v2.787h-10.98v-2.787a1.267,1.267,0,0,0-2.535,0v2.787h-4.139a4.143,4.143,0,0,1-4.139-4.139V384.673a4.143,4.143,0,0,1,4.139-4.139h64.872a4.144,4.144,0,0,1,4.139,4.139Zm0,0" fill="#172d72"/>
    </g>
    <g id="组_3944" data-name="组 3944" transform="translate(572.319 1114.438)">
      <circle id="椭圆_1099" data-name="椭圆 1099" cx="2.673" cy="2.673" r="2.673" transform="translate(1.146 1.146)" fill="#7684d8"/>
      <path id="路径_12473" data-name="路径 12473" d="M1085.165,476.951a3.819,3.819,0,1,1,3.819-3.819A3.823,3.823,0,0,1,1085.165,476.951Zm0-5.347a1.528,1.528,0,1,0,1.528,1.528A1.53,1.53,0,0,0,1085.165,471.6Z" transform="translate(-1081.346 -469.312)" fill="#172d72"/>
    </g>
  </g>
</svg>
