<svg xmlns="http://www.w3.org/2000/svg" width="70.607" height="70.807" viewBox="0 0 70.607 70.807">
  <g id="组_3948" data-name="组 3948" transform="translate(-413.639 -1341)">
    <rect id="矩形_3376" data-name="矩形 3376" width="14" height="15" rx="6" transform="translate(442 1362)" fill="#7684d8"/>
    <path id="路径_12445" data-name="路径 12445" d="M-8872-15575.116l-6.5,18.586h12.875Z" transform="translate(9293.063 16953.148)" fill="#7684d8"/>
    <circle id="椭圆_1085" data-name="椭圆 1085" cx="6" cy="6" r="6" transform="translate(415 1391)" fill="#7684d8"/>
    <g id="home" transform="translate(411.763 1339.416)">
      <path id="路径_12442" data-name="路径 12442" d="M66.48,29.719l1.541,1.047a1.171,1.171,0,0,0,1.628-.312l2.632-3.88a1.171,1.171,0,0,0-.312-1.628L37.839,1.786a1.172,1.172,0,0,0-1.316,0L2.39,24.946a1.172,1.172,0,0,0-.312,1.628l2.632,3.88a1.171,1.171,0,0,0,1.628.312l1.542-1.048V41.444a2.914,2.914,0,0,0-1.542,1.583C4.369,47.9,2.021,54.3,2.021,57.154c0,4.207,2.449,7.475,5.86,8.09v4.8H2.021V72.39H72.34V70.046H66.48ZM5.993,28.168,4.677,26.226l32.5-22.055,32.5,22.055-1.316,1.941L37.839,7.451a1.171,1.171,0,0,0-1.317,0ZM4.365,57.154c0-1.9,1.511-6.733,4.145-13.248a.585.585,0,0,1,1.085,0c2.635,6.515,4.145,11.344,4.145,13.248,0,3.4-1.972,5.86-4.688,5.86s-4.688-2.465-4.688-5.86Zm5.86,8.09c3.41-.615,5.86-3.883,5.86-8.09,0-2.855-2.347-9.256-4.318-14.127a2.914,2.914,0,0,0-1.542-1.583V28.128L37.181,9.837,64.136,28.128V50.941l-.2-.3a1.216,1.216,0,0,0-1.95,0l-2.344,3.516a1.172,1.172,0,0,0-.2.649v2.344H57.1V54.811a1.178,1.178,0,0,0-.2-.65l-2.344-3.516a1.216,1.216,0,0,0-1.95,0L50.269,54.16a1.178,1.178,0,0,0-.2.65v2.344H47.728V54.811a1.178,1.178,0,0,0-.2-.65l-2.344-3.516a1.216,1.216,0,0,0-1.95,0L40.893,54.16a1.178,1.178,0,0,0-.2.65V70.046H33.665V47.779a1.171,1.171,0,0,0-1.172-1.172H19.6a1.171,1.171,0,0,0-1.172,1.172V70.046h-8.2Zm35.159,4.8H43.04V55.166l1.172-1.758,1.172,1.758ZM47.728,59.5h2.344v2.344H47.728Zm0,4.688h2.344v5.86H47.728Zm7.032,5.86H52.416V55.166l1.172-1.758,1.172,1.758ZM57.1,59.5h2.344v2.344H57.1Zm0,4.688h2.344v5.86H57.1Zm-25.783,5.86H20.773v-21.1H31.321Zm30.471,0V55.166l1.172-1.758,1.172,1.758V70.046Z" transform="translate(0 0)" fill="#172d72"/>
      <path id="路径_12443" data-name="路径 12443" d="M29.688,35.408H36.72a4.693,4.693,0,0,0,4.688-4.688V23.688A4.693,4.693,0,0,0,36.72,19H29.688A4.693,4.693,0,0,0,25,23.688V30.72A4.693,4.693,0,0,0,29.688,35.408ZM27.344,30.72V28.376h4.688v4.688H29.688A2.346,2.346,0,0,1,27.344,30.72Zm9.376,2.344H34.376V28.376h4.688V30.72A2.346,2.346,0,0,1,36.72,33.064Zm2.344-9.376v2.344H34.376V21.344H36.72A2.346,2.346,0,0,1,39.064,23.688Zm-9.376-2.344h2.344v4.688H27.344V23.688A2.346,2.346,0,0,1,29.688,21.344Z" transform="translate(3.977 2.995)" fill="#172d72"/>
      <path id="路径_12444" data-name="路径 12444" d="M23,50h2.344v2.344H23Z" transform="translate(3.633 8.326)" fill="#172d72"/>
    </g>
  </g>
</svg>
