<svg id="组_3416" data-name="组 3416" xmlns="http://www.w3.org/2000/svg" xmlns:xlink="http://www.w3.org/1999/xlink" width="63.717" height="68.563" viewBox="0 0 63.717 68.563">
  <defs>
    <clipPath id="clip-path">
      <rect id="矩形_2770" data-name="矩形 2770" width="63.717" height="68.563" fill="none"/>
    </clipPath>
  </defs>
  <rect id="矩形_2765" data-name="矩形 2765" width="17.548" height="36.956" transform="translate(8.183 28.624)" fill="#7684d8"/>
  <rect id="矩形_2766" data-name="矩形 2766" width="22.908" height="12.252" transform="translate(2.822 13.55)" fill="#7684d8"/>
  <rect id="矩形_2767" data-name="矩形 2767" width="17.548" height="36.956" transform="translate(37.98 28.624)" fill="#7684d8"/>
  <rect id="矩形_2768" data-name="矩形 2768" width="22.908" height="12.252" transform="translate(37.98 13.55)" fill="#7684d8"/>
  <g id="组_2457" data-name="组 2457" transform="translate(0)" clip-path="url(#clip-path)">
    <path id="路径_10573" data-name="路径 10573" d="M0,0H6.608V52.03H0Z" transform="translate(28.551 13.55)" fill="#dbdeef"/>
    <path id="路径_10565" data-name="路径 10565" d="M831.3,346h-16.53a8.818,8.818,0,0,0,2.38-6.031,4.547,4.547,0,0,0-1.222-3.467c-1.364-1.309-3.363-1.225-5.677-1.129-.632.027-1.285.054-1.954.054a8.851,8.851,0,0,0-7.442,4.067,8.852,8.852,0,0,0-7.442-4.067c-.668,0-1.321-.027-1.953-.054-2.315-.1-4.313-.18-5.677,1.129a4.547,4.547,0,0,0-1.222,3.467A8.811,8.811,0,0,0,786.945,346H770.41a1.411,1.411,0,0,0-1.41,1.41v15.074a1.41,1.41,0,0,0,1.41,1.41h3.951v38.367a1.411,1.411,0,0,0,1.411,1.411h50.166a1.411,1.411,0,0,0,1.41-1.411V363.891H831.3a1.41,1.41,0,0,0,1.411-1.41V347.406A1.411,1.411,0,0,0,831.3,346Zm-29.034-1.721a6.038,6.038,0,0,1,6.031-6.031c.727,0,1.41-.029,2.071-.056,1.529-.064,3.111-.13,3.607.346a2.2,2.2,0,0,1,.354,1.431A6.038,6.038,0,0,1,808.3,346h-6.031Zm-14.53-5.741a3.394,3.394,0,0,1,2.045-.39c.5,0,1.032.023,1.562.044.661.028,1.344.056,2.071.056a6.038,6.038,0,0,1,6.031,6.031V346h-6.031a6.038,6.038,0,0,1-6.031-6.031,2.2,2.2,0,0,1,.354-1.431Zm6.994,62.314H777.183V363.891H794.73Zm0-39.778H771.822V348.817H794.73Zm9.429,39.778h-6.607v-52.03h6.607Zm20.369,0H806.981V363.891h17.547Zm5.361-39.778H806.981V348.817h22.909Zm0,0" transform="translate(-769 -335.267)" fill="#172d72"/>
  </g>
</svg>
