<svg xmlns="http://www.w3.org/2000/svg" width="64" height="70.621" viewBox="0 0 64 70.621">
  <g id="组_3946" data-name="组 3946" transform="translate(-809 -1075)">
    <g id="组_3945" data-name="组 3945" transform="translate(809 1075)">
      <path id="路径_12478" data-name="路径 12478" d="M1079.546,432.325a4.484,4.484,0,0,0,2.98,1.1,4.414,4.414,0,1,0-4.414-4.414,5.586,5.586,0,0,0,.221,1.435l-3.531,2.1a16.68,16.68,0,0,1,.993,1.986Zm2.98-5.517a2.207,2.207,0,1,1-2.207,2.207,2.213,2.213,0,0,1,2.207-2.207Zm0,0" transform="translate(-1022.939 -409.153)" fill="#172d72"/>
      <path id="路径_12479" data-name="路径 12479" d="M782.607,430.45a5.614,5.614,0,0,0,.22-1.435,4.414,4.414,0,1,0-4.413,4.414,4.709,4.709,0,0,0,2.979-1.1l3.752,2.207.993-1.986Zm-4.193.772a2.207,2.207,0,1,1,2.206-2.207,2.213,2.213,0,0,1-2.206,2.207Zm0,0" transform="translate(-774 -409.153)" fill="#172d72"/>
      <path id="路径_12480" data-name="路径 12480" d="M937.31,673.559v3.531a4.427,4.427,0,1,0,5.517,4.3,4.5,4.5,0,0,0-3.31-4.3v-3.531c-.331,0-.772.11-1.1.11a3.757,3.757,0,0,1-1.1-.11Zm3.31,7.835a2.207,2.207,0,1,1-2.206-2.207,2.213,2.213,0,0,1,2.206,2.207Zm0,0" transform="translate(-906.414 -615.187)" fill="#172d72"/>
      <rect id="矩形_3377" data-name="矩形 3377" width="2.207" height="2.207" rx="1.104" transform="translate(3.31 27.586)" fill="#172d72"/>
      <rect id="矩形_3378" data-name="矩形 3378" width="2.207" height="2.206" rx="1.103" transform="translate(3.31 32)" fill="#172d72"/>
      <rect id="矩形_3379" data-name="矩形 3379" width="2.207" height="2.207" rx="1.104" transform="translate(3.31 36.414)" fill="#172d72"/>
      <rect id="矩形_3380" data-name="矩形 3380" width="2.207" height="2.207" rx="1.104" transform="translate(3.31 40.828)" fill="#172d72"/>
      <path id="路径_12484" data-name="路径 12484" d="M841.779,650.7h0a1.1,1.1,0,0,1,.4,1.507h0a1.1,1.1,0,0,1-1.507.4h0a1.1,1.1,0,0,1-.4-1.507h0A1.1,1.1,0,0,1,841.779,650.7Zm-.955-.552" transform="translate(-828.723 -595.815)" fill="#172d72"/>
      <path id="路径_12485" data-name="路径 12485" d="M863.733,663.391h0a1.1,1.1,0,0,1,.4,1.507h0a1.1,1.1,0,0,1-1.507.4h0a1.1,1.1,0,0,1-.4-1.507h0A1.1,1.1,0,0,1,863.733,663.391Zm-.955-.551" transform="translate(-846.892 -606.316)" fill="#172d72"/>
      <path id="路径_12486" data-name="路径 12486" d="M886.266,676.379h0a1.1,1.1,0,0,1,.4,1.507h0a1.1,1.1,0,0,1-1.507.4h0a1.1,1.1,0,0,1-.4-1.507h0A1.1,1.1,0,0,1,886.266,676.379Zm-.956-.551" transform="translate(-865.541 -617.064)" fill="#172d72"/>
      <path id="路径_12487" data-name="路径 12487" d="M908.273,689.074h0a1.1,1.1,0,0,1,.4,1.507h0a1.1,1.1,0,0,1-1.507.4h0a1.1,1.1,0,0,1-.4-1.507h0A1.1,1.1,0,0,1,908.273,689.074Zm-.955-.551" transform="translate(-883.753 -627.571)" fill="#172d72"/>
      <path id="路径_12488" data-name="路径 12488" d="M1002.3,689.639h0a1.1,1.1,0,0,1-.4,1.507h0a1.1,1.1,0,0,1-1.507-.4h0a1.1,1.1,0,0,1,.4-1.507h0A1.1,1.1,0,0,1,1002.3,689.639Zm-.552-.955" transform="translate(-961.233 -627.704)" fill="#172d72"/>
      <path id="路径_12489" data-name="路径 12489" d="M1024.338,676.635h0a1.1,1.1,0,0,1-.4,1.507h0a1.1,1.1,0,0,1-1.507-.4h0a1.1,1.1,0,0,1,.4-1.507h0A1.1,1.1,0,0,1,1024.338,676.635Zm-.551-.955" transform="translate(-979.472 -616.942)" fill="#172d72"/>
      <path id="路径_12490" data-name="路径 12490" d="M1046.712,664.177h0a1.1,1.1,0,0,1-.4,1.507h0a1.1,1.1,0,0,1-1.507-.4h0a1.1,1.1,0,0,1,.4-1.507h0A1.1,1.1,0,0,1,1046.712,664.177Zm-.553-.954" transform="translate(-997.989 -606.633)" fill="#172d72"/>
      <path id="路径_12491" data-name="路径 12491" d="M1068.806,651.185h0a1.1,1.1,0,0,1-.4,1.507h0a1.1,1.1,0,0,1-1.507-.4h0a1.1,1.1,0,0,1,.4-1.507h0A1.1,1.1,0,0,1,1068.806,651.185Zm-.551-.955" transform="translate(-1016.273 -595.88)" fill="#172d72"/>
      <rect id="矩形_3381" data-name="矩形 3381" width="2.207" height="2.207" rx="1.104" transform="translate(58.483 40.828)" fill="#172d72"/>
      <rect id="矩形_3382" data-name="矩形 3382" width="2.207" height="2.207" rx="1.104" transform="translate(58.483 36.414)" fill="#172d72"/>
      <rect id="矩形_3383" data-name="矩形 3383" width="2.207" height="2.206" rx="1.103" transform="translate(58.483 32)" fill="#172d72"/>
      <rect id="矩形_3384" data-name="矩形 3384" width="2.207" height="2.207" rx="1.104" transform="translate(58.483 27.586)" fill="#172d72"/>
      <path id="路径_12492" data-name="路径 12492" d="M1067.191,415.813h0a1.1,1.1,0,0,1-.4-1.507h0a1.1,1.1,0,0,1,1.507-.4h0a1.1,1.1,0,0,1,.4,1.507h0A1.1,1.1,0,0,1,1067.191,415.813Zm.956.551" transform="translate(-1016.183 -400.175)" fill="#172d72"/>
      <path id="路径_12493" data-name="路径 12493" d="M1044.5,403.479h0a1.1,1.1,0,0,1-.4-1.507h0a1.1,1.1,0,0,1,1.507-.4h0a1.1,1.1,0,0,1,.4,1.507h0A1.1,1.1,0,0,1,1044.5,403.479Zm.955.552" transform="translate(-997.407 -389.968)" fill="#172d72"/>
      <path id="路径_12494" data-name="路径 12494" d="M1022.68,390.9h0a1.1,1.1,0,0,1-.405-1.506h0a1.1,1.1,0,0,1,1.506-.405h0a1.1,1.1,0,0,1,.406,1.506h0A1.1,1.1,0,0,1,1022.68,390.9Zm.956.551" transform="translate(-979.346 -379.56)" fill="#172d72"/>
      <path id="路径_12495" data-name="路径 12495" d="M1000.315,377.97h0a1.1,1.1,0,0,1-.4-1.507h0a1.1,1.1,0,0,1,1.507-.4h0a1.1,1.1,0,0,1,.4,1.507h0A1.1,1.1,0,0,1,1000.315,377.97Zm.956.552" transform="translate(-960.838 -368.857)" fill="#172d72"/>
      <path id="路径_12496" data-name="路径 12496" d="M906.9,377.138h0a1.1,1.1,0,0,1,.4-1.507h0a1.1,1.1,0,0,1,1.507.4h0a1.1,1.1,0,0,1-.4,1.507h0A1.1,1.1,0,0,1,906.9,377.138Zm.552.955" transform="translate(-883.862 -368.502)" fill="#172d72"/>
      <path id="路径_12497" data-name="路径 12497" d="M884.066,390.067h0a1.1,1.1,0,0,1,.4-1.507h0a1.1,1.1,0,0,1,1.507.4h0a1.1,1.1,0,0,1-.4,1.507h0A1.1,1.1,0,0,1,884.066,390.067Zm.551.955" transform="translate(-864.966 -379.202)" fill="#172d72"/>
      <path id="路径_12498" data-name="路径 12498" d="M862.1,403.238h0a1.1,1.1,0,0,1,.4-1.507h0a1.1,1.1,0,0,1,1.507.4h0a1.1,1.1,0,0,1-.4,1.508h0A1.1,1.1,0,0,1,862.1,403.238Zm.553.954" transform="translate(-846.783 -390.101)" fill="#172d72"/>
      <path id="路径_12499" data-name="路径 12499" d="M839.815,415.848h0a1.1,1.1,0,0,1,.4-1.507h0a1.1,1.1,0,0,1,1.507.4h0a1.1,1.1,0,0,1-.4,1.507h0A1.1,1.1,0,0,1,839.815,415.848Zm.552.955" transform="translate(-828.345 -400.538)" fill="#172d72"/>
      <path id="路径_12500" data-name="路径 12500" d="M833.587,381.345a4.709,4.709,0,0,0-2.98,1.1l-3.752-2.1L822,377.7l-2.868-1.545a14.6,14.6,0,0,0,1.214-5.848A14.319,14.319,0,0,0,807.1,356.076V343.717a4.427,4.427,0,1,0-5.517-4.3,4.5,4.5,0,0,0,3.31,4.3v12.358a14.319,14.319,0,0,0-13.242,14.235,14.586,14.586,0,0,0,1.214,5.848L790,377.7l-4.855,2.648-3.752,2.1a4.708,4.708,0,0,0-2.979-1.1,4.414,4.414,0,1,0,4.413,4.413,5.618,5.618,0,0,0-.22-1.435l3.641-1.986,4.855-2.648,2.869-1.545a14.365,14.365,0,0,0,24.055,0l2.869,1.545,4.855,2.648,3.641,1.986a5.6,5.6,0,0,0-.221,1.435,4.414,4.414,0,1,0,4.414-4.413Zm-55.173,6.62a2.207,2.207,0,1,1,2.206-2.207,2.213,2.213,0,0,1-2.206,2.207Zm32.993-14.786a37.29,37.29,0,0,0,0-5.738c4.413.662,6.731,2.1,6.731,2.869,0,.883-2.317,2.207-6.731,2.869ZM806,382.448c-.883,0-2.207-2.317-2.869-6.731a37.281,37.281,0,0,0,5.737,0c-.662,4.414-1.986,6.731-2.868,6.731Zm0-8.827a29.923,29.923,0,0,1-3.2-.111,46.379,46.379,0,0,1,0-6.4,46.765,46.765,0,0,1,6.4,0,46.4,46.4,0,0,1,0,6.4,29.917,29.917,0,0,1-3.2.111Zm-12.138-3.31c0-.883,2.318-2.207,6.731-2.869a37.579,37.579,0,0,0,0,5.738c-4.413-.662-6.731-1.986-6.731-2.869ZM806,358.172c.882,0,2.206,2.318,2.868,6.732a37.343,37.343,0,0,0-5.737,0c.662-4.414,1.986-6.732,2.869-6.732ZM817.7,367a22.872,22.872,0,0,0-6.511-1.876,19.769,19.769,0,0,0-1.876-6.51A12.318,12.318,0,0,1,817.7,367Zm-13.9-27.586A2.207,2.207,0,1,1,806,341.62a2.213,2.213,0,0,1-2.207-2.206Zm-1.1,19.2a22.868,22.868,0,0,0-1.875,6.51A19.779,19.779,0,0,0,794.3,367a12.315,12.315,0,0,1,8.385-8.386ZM794.3,373.621a22.849,22.849,0,0,0,6.51,1.876,19.8,19.8,0,0,0,1.875,6.511,12.315,12.315,0,0,1-8.385-8.386Zm15.007,8.386a22.855,22.855,0,0,0,1.876-6.511,19.777,19.777,0,0,0,6.511-1.876,12.318,12.318,0,0,1-8.386,8.386Zm24.276,5.958a2.207,2.207,0,1,1,2.206-2.207,2.213,2.213,0,0,1-2.206,2.207Zm0,0" transform="translate(-774 -335)" fill="#172d72"/>
    </g>
    <path id="路径_12501" data-name="路径 12501" d="M864.791,602.475a17.523,17.523,0,0,1-14.9-8.276l-4.855,2.648a22.8,22.8,0,0,0,18.648,11.035c.331,0,.773.11,1.1.11a3.753,3.753,0,0,0,1.1-.11,23.06,23.06,0,0,0,18.648-11.035l-4.855-2.648a17.523,17.523,0,0,1-14.9,8.276Zm0,0" transform="translate(-23.791 525.49)" fill="#7684d8"/>
    <path id="路径_12502" data-name="路径 12502" d="M983.082,428.571a16.516,16.516,0,0,1-1.656,7.393l4.855,2.648a23.924,23.924,0,0,0,2.317-10.041,22.975,22.975,0,0,0-2.207-9.931l-.993-1.986A23.208,23.208,0,0,0,966.641,405.4v5.517a17.715,17.715,0,0,1,16.441,17.656Zm0,0" transform="translate(-124.427 681.74)" fill="#7684d8"/>
    <path id="路径_12503" data-name="路径 12503" d="M831.247,429.1A17.551,17.551,0,0,1,847.8,411.556v-5.517a22.946,22.946,0,0,0-18.759,11.255,16.739,16.739,0,0,0-.993,1.986,23.175,23.175,0,0,0,.11,19.973l4.855-2.648a15.982,15.982,0,0,1-1.766-7.5Zm0,0" transform="translate(-7.902 681.209)" fill="#7684d8"/>
  </g>
</svg>
