<svg xmlns="http://www.w3.org/2000/svg" viewBox="0 0 164.43 83.6"><defs><style>.cls-1{fill:#373535;}.cls-2{fill:#326de6;}.cls-3{fill:#fff;}</style></defs><g id="Layer_2" data-name="Layer 2"><g id="Layer_1-2" data-name="Layer 1"><path class="cls-1" d="M33.7,82.74V60.49l4-.68v7.76c.89-.19,1.68-.41,2.48-.51a5.67,5.67,0,0,1,6.42,3.88,11.82,11.82,0,0,1,.16,7.83,6.37,6.37,0,0,1-5.29,4.58A19,19,0,0,1,33.7,82.74Zm4-3c2.52.81,4.61,0,5.15-2.1a9.28,9.28,0,0,0,0-5,2.65,2.65,0,0,0-2.92-2.11c-1.89.11-2.21.45-2.21,2.33Z"/><path class="cls-1" d="M4.31,73.42C4.88,72.69,5.48,72,6,71.22c.78-1.1,1.51-2.23,2.3-3.32a1.16,1.16,0,0,1,.73-.5c1.41-.05,2.82,0,4.57,0l-6.1,6.94a43.56,43.56,0,0,1,6.64,8.82c-1.56,0-3,0-4.35,0-.23,0-.49-.34-.66-.58C7.86,80.67,6.59,78.8,5.29,77A14.77,14.77,0,0,0,4.1,75.66v7.42H0V60.49l4-.68V73.32Z"/><path class="cls-1" d="M62.54,79.22c.16,1,.35,1.92.43,2.85a1,1,0,0,1-.46.77,13.3,13.3,0,0,1-7.47.32,6.87,6.87,0,0,1-5.48-6.22,9.26,9.26,0,0,1,1.75-7.35,7.55,7.55,0,0,1,8.13-2.32c2.73.87,4.31,3.11,4.53,6.5.06.88,0,1.77,0,2.78H53.87a2.52,2.52,0,0,0,1.58,2.81,7.75,7.75,0,0,0,5.2.35C61.26,79.58,61.85,79.4,62.54,79.22ZM60,73.73c-.18-2.29-1.4-3.51-3.26-3.37a3.06,3.06,0,0,0-2.94,3.37Z"/><path class="cls-1" d="M114.48,76.59H104.33c0,1.69,1.14,2.87,3,3.24a11.9,11.9,0,0,0,5.75-.62c.19,1.14.38,2.25.59,3.47-3.62,1.1-7.15,1.45-10.49-.58-2.22-1.34-3-3.54-3.16-6-.15-3.43.77-6.41,3.94-8.23a6.84,6.84,0,0,1,10.49,5.5C114.55,74.39,114.48,75.44,114.48,76.59Zm-10.19-2.87h6.2a2.87,2.87,0,0,0-2.69-3.35C105.93,70.17,104.64,71.37,104.29,73.72Z"/><path class="cls-1" d="M148.21,76.61H138.06c-.07,1.63,1.07,2.83,2.92,3.21a11.8,11.8,0,0,0,5.82-.61l.59,3.52a16.16,16.16,0,0,1-7.92.44c-3.52-.74-5.35-3.1-5.71-7-.38-4,1.52-7.53,4.77-8.78,4.8-1.85,9.22.87,9.67,6C148.29,74.43,148.21,75.45,148.21,76.61Zm-4-2.89a3,3,0,0,0-3-3.37,3.16,3.16,0,0,0-3.23,3.37Z"/><path class="cls-1" d="M16.7,67.43h4.08v7.93c0,.36,0,.72,0,1.08.1,3.11,1.22,4,4.41,3.31V67.45h4.13a6.77,6.77,0,0,1,.08.8c0,4.51,0,9,0,13.51,0,.33-.26.89-.5,1a18.06,18.06,0,0,1-7.3.7c-2.82-.38-4.41-1.91-4.69-4.74-.24-2.38-.16-4.79-.2-7.18C16.68,70.16,16.7,68.82,16.7,67.43Z"/><path class="cls-1" d="M96.93,83.1H92.82c0-1.09,0-2.13,0-3.17,0-2.4,0-4.81-.17-7.2a2.77,2.77,0,0,0-4.07-2c-.21.11-.27.61-.28.94q0,5.13,0,10.26v1.14H84.34c0-.31-.09-.59-.09-.87q0-6.72,0-13.43c0-.57.05-1,.75-1.14a21.76,21.76,0,0,1,7.24-.49,4.78,4.78,0,0,1,4.31,4,31.89,31.89,0,0,1,.37,4.69C97,78.24,96.93,80.63,96.93,83.1Z"/><path class="cls-1" d="M124.78,70.67c0,2.59-.09,5,0,7.44.06,1.3.79,1.89,2.11,1.84s2.71-.32,4.21-.51c.15.85.35,1.89.48,3,0,.14-.29.41-.49.48a13.93,13.93,0,0,1-7.3.35,3.8,3.8,0,0,1-3-3.63c-.18-1.72-.15-3.47-.19-5.21,0-1.18,0-2.36,0-3.66h-3.54V67.38h3.51v-4l4.06-.64v4.61h6.62v3.33Z"/><path class="cls-1" d="M152,78.9a25.55,25.55,0,0,0,3.49,1,18.66,18.66,0,0,0,3.81,0c.36,0,1-.48,1-.74a1.63,1.63,0,0,0-.63-1.28c-1-.51-2.13-.83-3.2-1.24-.68-.25-1.37-.48-2-.79a4.1,4.1,0,0,1-2.62-4.13,4.27,4.27,0,0,1,2.92-4.06,12.86,12.86,0,0,1,8.42,0,.87.87,0,0,1,.45.7c-.12,1-.34,1.93-.52,2.86-1.33-.28-2.57-.61-3.82-.76a6.37,6.37,0,0,0-2.34.17,1.55,1.55,0,0,0-.94,1,1.34,1.34,0,0,0,.61,1.08c.92.49,1.92.83,2.88,1.25a19.86,19.86,0,0,1,3,1.37,4.18,4.18,0,0,1-.54,7.38,12.41,12.41,0,0,1-10.14-.25.73.73,0,0,1-.34-.58C151.58,80.83,151.79,79.87,152,78.9Z"/><path class="cls-1" d="M80.56,67.71a3.07,3.07,0,0,1,0,.61c-.19,1-.41,2.05-.59,3L74.49,71c-.17,0-.33,0-.49,0-1.57.15-1.57.15-1.57,1.69V83.07H68.26c0-.27-.05-.56-.05-.84,0-4.31,0-8.62,0-12.93A1,1,0,0,1,69,68.11a20.67,20.67,0,0,1,11.08-.56A3.16,3.16,0,0,1,80.56,67.71Z"/><path class="cls-2" d="M69.66,55.84a4.46,4.46,0,0,1-3.51-1.69L53,37.76a4.46,4.46,0,0,1-.86-3.85l4.71-20.46a4.44,4.44,0,0,1,2.45-3L78.32,1.28a4.47,4.47,0,0,1,2-.45,4.4,4.4,0,0,1,2,.45l19.07,9.08a4.49,4.49,0,0,1,2.45,3.05l4.71,20.47a4.54,4.54,0,0,1-.87,3.84L94.41,54.11a4.53,4.53,0,0,1-3.5,1.7l-21.25,0Z"/><path class="cls-3" d="M80.25,1.77a3.63,3.63,0,0,1,1.54.34l19.07,9.08a3.68,3.68,0,0,1,2,2.45l4.71,20.46a3.52,3.52,0,0,1-.72,3.09L93.62,53.58a3.58,3.58,0,0,1-2.82,1.36H69.66a3.58,3.58,0,0,1-2.83-1.36L53.64,37.19a3.75,3.75,0,0,1-.71-3.09l4.71-20.46a3.59,3.59,0,0,1,2-2.45L78.66,2.07a4.53,4.53,0,0,1,1.59-.3Zm0-1.77a5.66,5.66,0,0,0-2.34.53L58.84,9.65A5.34,5.34,0,0,0,55.9,13.3L51.19,33.76a5.36,5.36,0,0,0,1.06,4.6L65.44,54.75a5.31,5.31,0,0,0,4.18,2H90.76a5.33,5.33,0,0,0,4.18-2l13.19-16.39a5.33,5.33,0,0,0,1.06-4.6L104.48,13.3a5.34,5.34,0,0,0-2.94-3.65L82.54.53A5.34,5.34,0,0,0,80.25,0Z"/><path class="cls-3" d="M99.35,32.48h0s-.07,0-.07,0-.15,0-.23,0a4.82,4.82,0,0,0-.71-.08,1.33,1.33,0,0,1-.38,0h0a9.42,9.42,0,0,1-2-.34.73.73,0,0,1-.42-.41s0,0,0-.08l-.49-.15A14.6,14.6,0,0,0,94.64,26a15.57,15.57,0,0,0-2.11-4.94l.38-.33v-.08a.82.82,0,0,1,.19-.57,10.73,10.73,0,0,1,1.69-1.16c.11-.08.23-.12.34-.19a7.16,7.16,0,0,0,.64-.38s.11-.07.19-.15.07,0,.07-.07a1.26,1.26,0,0,0,.27-1.7,1.1,1.1,0,0,0-.87-.42,1.42,1.42,0,0,0-.83.31l-.07.07c-.08,0-.12.11-.19.15a5.91,5.91,0,0,0-.49.53,1.6,1.6,0,0,1-.26.26,9.53,9.53,0,0,1-1.51,1.36.59.59,0,0,1-.34.11.61.61,0,0,1-.23,0h-.07l-.45.3a17.27,17.27,0,0,0-1.55-1.43,14.94,14.94,0,0,0-7.88-3.13l0-.49-.08-.08a.78.78,0,0,1-.3-.49,13.52,13.52,0,0,1,.11-2v0a1.36,1.36,0,0,1,.08-.38c0-.22.07-.45.11-.71V10A1.22,1.22,0,0,0,80.28,8.7a1.25,1.25,0,0,0-.83.38,1.22,1.22,0,0,0-.33.87v.3a2.13,2.13,0,0,0,.11.72,2.73,2.73,0,0,1,.07.37v0a9.78,9.78,0,0,1,.12,2,.78.78,0,0,1-.3.49L79,14l0,.49a20.28,20.28,0,0,0-2,.3A14.5,14.5,0,0,0,69.51,19l-.38-.26h-.08c-.07,0-.15,0-.22,0a.59.59,0,0,1-.34-.12A10.4,10.4,0,0,1,67,17.26a1.63,1.63,0,0,0-.26-.27c-.15-.18-.3-.33-.49-.52L66,16.32s-.08,0-.08-.08a1.29,1.29,0,0,0-.82-.3,1.09,1.09,0,0,0-.87.41,1.26,1.26,0,0,0,.26,1.7s0,0,.08,0,.11.11.19.15a4.6,4.6,0,0,0,.64.37,2.37,2.37,0,0,1,.34.19A12,12,0,0,1,67.47,20a.7.7,0,0,1,.19.57v.07L68,21a1.25,1.25,0,0,0-.19.3,14.65,14.65,0,0,0-2.11,10l-.49.15s0,0,0,.08a.85.85,0,0,1-.41.41,9.21,9.21,0,0,1-2,.34h0a1.17,1.17,0,0,0-.37,0,6.47,6.47,0,0,0-.72.07c-.07,0-.15,0-.23,0a.14.14,0,0,0-.11,0,1.23,1.23,0,0,0-1,1.39,1.17,1.17,0,0,0,1.21.87.78.78,0,0,0,.3,0s.07,0,.07,0,.16,0,.23,0a3.71,3.71,0,0,0,.68-.27c.11,0,.23-.11.34-.15h0a8.93,8.93,0,0,1,2-.56h.07a.79.79,0,0,1,.49.19s0,0,.08,0l.52-.07a14.93,14.93,0,0,0,4.94,7.08,13.12,13.12,0,0,0,1.62,1.09l-.23.49s0,0,0,.08a.77.77,0,0,1,.08.6,11,11,0,0,1-1,1.77v0l-.23.3c-.15.19-.26.38-.41.61a.7.7,0,0,0-.12.18A.16.16,0,0,1,71,46a1.18,1.18,0,0,0,.49,1.62.93.93,0,0,0,.45.11A1.37,1.37,0,0,0,73.05,47a.14.14,0,0,1,0-.08.68.68,0,0,1,.11-.19c.11-.26.15-.45.23-.68l.11-.33a8.6,8.6,0,0,1,.79-1.89,1,1,0,0,1,.49-.34s0,0,.07,0l.27-.49a14.53,14.53,0,0,0,5.27,1,13.81,13.81,0,0,0,3.28-.37,16.32,16.32,0,0,0,2-.57l.23.42s0,0,.07,0a.72.72,0,0,1,.49.34,12.67,12.67,0,0,1,.79,1.89v0l.12.33a4.15,4.15,0,0,0,.22.68c0,.08.08.12.12.19a.16.16,0,0,0,0,.08,1.28,1.28,0,0,0,1.13.71,1,1,0,0,0,.46-.11,1.11,1.11,0,0,0,.56-.68,1.33,1.33,0,0,0-.07-.94s0,0,0-.08a1.18,1.18,0,0,0-.11-.18,3.87,3.87,0,0,0-.42-.61c-.07-.11-.15-.19-.22-.3v0a7.75,7.75,0,0,1-1-1.77,1.08,1.08,0,0,1,0-.6s0,0,0-.08l-.19-.45a14.9,14.9,0,0,0,6.56-8.25l.45.08s0,0,.08,0a.91.91,0,0,1,.49-.19h.07a8.93,8.93,0,0,1,2,.56h0c.11,0,.23.12.34.16a3.85,3.85,0,0,0,.68.26c.07,0,.15,0,.22,0a.18.18,0,0,1,.12,0,.75.75,0,0,0,.3,0,1.26,1.26,0,0,0,1.2-.86,1.45,1.45,0,0,0-1.09-1.25ZM81.9,30.64l-1.65.79-1.66-.79-.42-1.78,1.13-1.43h1.85l1.13,1.43-.38,1.78Zm9.84-3.92a11.84,11.84,0,0,1,.26,3.8l-5.76-1.66a1,1,0,0,1-.72-1.2.92.92,0,0,1,.23-.42l4.56-4.1a12,12,0,0,1,1.43,3.58ZM88.5,20.88l-4.94,3.5a1,1,0,0,1-1.32-.23.86.86,0,0,1-.19-.41l-.33-6.14a11.41,11.41,0,0,1,6.78,3.28ZM77.57,17.79l1.21-.23-.34,6a1,1,0,0,1-1,1,.94.94,0,0,1-.45-.11l-5-3.58a11.41,11.41,0,0,1,5.61-3.09Zm-7.42,5.35,4.48,4a1,1,0,0,1,.11,1.39.72.72,0,0,1-.45.31l-5.84,1.69a12.13,12.13,0,0,1,1.7-7.38Zm-1,10.21,6-1a1,1,0,0,1,1.06.79,1.23,1.23,0,0,1,0,.61l-2.3,5.53a11.8,11.8,0,0,1-4.71-5.91Zm13.75,7.5a12.12,12.12,0,0,1-2.63.3,13,13,0,0,1-3.81-.6l3-5.39a1,1,0,0,1,1.2-.27,1.51,1.51,0,0,1,.45.42L84,40.55c-.34.11-.72.18-1.1.3Zm7.35-5.24a11.79,11.79,0,0,1-3.62,3.65l-2.37-5.69a1,1,0,0,1,.53-1.16,1.15,1.15,0,0,1,.53-.12l6,1a7.47,7.47,0,0,1-1.09,2.3Z"/></g></g></svg>