<svg xmlns="http://www.w3.org/2000/svg" xmlns:xlink="http://www.w3.org/1999/xlink" viewBox="0 0 1032.18 178.66"><defs><style>.cls-1{fill:#172d72;}.cls-2{fill:url(#linear-gradient);}.cls-3{fill:#fff;}</style><linearGradient id="linear-gradient" x1="-1083.66" y1="-4131.16" x2="-1078.08" y2="-4136.84" gradientTransform="matrix(30.52, 0, 0, -21.8, 33113.03, -90018.64)" gradientUnits="userSpaceOnUse"><stop offset="0" stop-color="#e30c34"/><stop offset="1" stop-color="#b7062c"/></linearGradient></defs><g id="Layer_2" data-name="Layer 2"><g id="Layer_1-2" data-name="Layer 1"><g id="Group_1791" data-name="Group 1791"><path id="Path_4360" data-name="Path 4360" class="cls-1" d="M352.62,138.33H332.24v-82H302.19v-17h79.32v17H352.58Z"/><path id="Path_4361" data-name="Path 4361" class="cls-1" d="M414.15,56.29h-19v-17h19Zm0,82h-19V65h19Z"/><path id="Path_4362" data-name="Path 4362" class="cls-1" d="M434.53,39.32h38.72c15.21,0,24.58,3.39,31.23,11.4a65.82,65.82,0,0,1,0,76.06c-6.65,8-16.15,11.55-31.23,11.55H434.53Zm38.72,82c15.35,0,22.94-10.73,22.94-32.46s-7.6-32.59-22.94-32.59H455v65.05Z"/><path id="Path_4363" data-name="Path 4363" class="cls-1" d="M577.42,138.33H532.86v-99H577c26.08,0,32.33,17,32.33,26.07a22.92,22.92,0,0,1-13.58,20.38,27.51,27.51,0,0,1,16.43,24C612.18,121.62,605.26,138.33,577.42,138.33ZM553.23,78.71h22.13c9.37,0,14.39-3.94,14.39-11.14,0-7.37-5-11.27-14.39-11.27H553.23Zm0,42.61h24.32c9.91,0,15.08-4.48,15.08-12.77s-5.17-12.9-15.08-12.9H553.23Z"/><path id="Path_4364" data-name="Path 4364" class="cls-1" d="M706.87,55.07c-16,0-25.67,13-25.67,34.91,0,21.6,9.23,34.36,25,34.36A20.24,20.24,0,0,0,728,105.78c0-.42.06-.85.06-1.27h19.84c-1.23,22.68-17.66,36.94-42.24,36.94-27.58,0-44.82-20-44.82-51.75,0-32.05,17.38-52,45.36-52,23.09,0,39.52,12.91,41.29,35.18H728.06A20,20,0,0,0,706.87,55.07Z"/><path id="Path_4365" data-name="Path 4365" class="cls-1" d="M781.16,138.33h-19v-99h19Z"/><path id="Path_4366" data-name="Path 4366" class="cls-1" d="M868,103.15c0,23.5-14,38.3-36.27,38.3-22.55,0-36.27-14.67-36.27-38.85,0-24,13.72-38.84,36.13-38.84C854.51,63.76,868,78.3,868,103.15Zm-53.51-.55c0,14,6.93,23.5,17.21,23.5s17.21-9.51,17.21-23.23c0-14.39-6.78-23.76-17.21-23.76-10.28,0-17.21,9.5-17.21,23.49Z"/><path id="Path_4367" data-name="Path 4367" class="cls-1" d="M928.82,138.33v-8.69a24.11,24.11,0,0,1-22,11.81,22.74,22.74,0,0,1-24.58-25.4V65h19v47.13c0,8.82,4.1,13.18,12.22,13.18a14,14,0,0,0,15.3-12.64,14.72,14.72,0,0,0,.05-1.76V65h19v73.34Z"/><path id="Path_4368" data-name="Path 4368" class="cls-1" d="M962.1,102.74c0-22.12,13.32-39,30.84-39a22.13,22.13,0,0,1,20.23,10.74V39.32h19v99h-19v-7.47a22.29,22.29,0,0,1-20.23,10.59C974.46,141.45,962.1,124.2,962.1,102.74Zm19,0c0,13.45,6.56,22.82,16,22.82s16-9.23,16-22.54c0-14-6.38-23.36-16-23.36s-16,9.5-16,23.08Z"/></g><g id="Group_1794" data-name="Group 1794"><path id="Path_4369" data-name="Path 4369" class="cls-2" d="M197.24,41.81A83.25,83.25,0,0,0,43,69,55.56,55.56,0,0,0,61.21,178.38H175c1.86.15,3.73.28,5.63.28A69.43,69.43,0,0,0,197.24,41.82Z"/><g id="Group_1793" data-name="Group 1793"><path id="Path_4370" data-name="Path 4370" class="cls-3" d="M125,43.45,82,68.29V93.12L103.46,80.7v50L125,143.08h0V68.28l21.5-12.42Z"/><path id="Path_4371" data-name="Path 4371" class="cls-3" d="M146.58,80.83v49.84l21.6-12.46V68.35Z"/></g></g></g></g></svg>