<svg xmlns="http://www.w3.org/2000/svg" width="295.235" height="115.358" viewBox="0 0 295.235 115.358"><defs><style>.a{fill:#e30c34;}.b{fill:#fff;}.c{fill:#172d72;}</style></defs><path class="a" d="M0,28.854V86.563l49.943,28.795,50-28.795V28.854L49.943,0Z"/><path class="b" d="M61.215,32.2,28,51.377V70.553l16.608-9.618V99.527l16.608,9.558h0V51.377l16.548-9.558Z" transform="translate(-11.273 -12.964)"/><path class="b" d="M111.5,74.018v38.473l16.667-9.618V64.4Z" transform="translate(-44.89 -25.927)"/><g transform="translate(116.553 28.854)"><path class="c" d="M224.373,105.889H212.544V58.217H195.1V48.3h46.119v9.857H224.432v47.732Z" transform="translate(-195.1 -48.3)"/><path class="c" d="M292.152,58.217H281.1V48.3h11.052Zm0,47.673H281.1V63.235h11.052Z" transform="translate(-229.724 -48.3)"/><path class="c" d="M320,48.3h22.522c8.842,0,14.278,1.971,18.161,6.631,4.6,5.436,7.049,13.262,7.049,22.1,0,8.9-2.449,16.727-7.049,22.1-3.883,4.66-9.379,6.691-18.161,6.691H320Zm22.462,47.673c8.9,0,13.322-6.213,13.322-18.878,0-12.725-4.421-18.938-13.322-18.938H331.829V95.973Z" transform="translate(-245.385 -48.3)"/><path class="c" d="M442.927,105.889H417V48.3h25.688c15.174,0,18.758,9.857,18.758,15.174,0,4.9-2.21,8.184-7.886,11.829,6.452,3.764,9.558,8.3,9.558,13.979C463.119,96.152,459.057,105.889,442.927,105.889Zm-14.1-34.649h12.844c5.436,0,8.364-2.27,8.364-6.452,0-4.242-2.927-6.571-8.364-6.571H428.828Zm0,24.732h14.1c5.735,0,8.782-2.629,8.782-7.408,0-4.9-2.987-7.467-8.782-7.467h-14.1Z" transform="translate(-284.437 -48.3)"/></g></svg>