<svg xmlns="http://www.w3.org/2000/svg" width="256.118" height="99.512" viewBox="0 0 256.118 99.512">
  <g id="Group_2377" data-name="Group 2377" transform="translate(-7805.007 -6001.126)">
    <g id="Group_2375" data-name="Group 2375" transform="translate(7805.007 6001.126)">
      <path id="Path_10425" data-name="Path 10425" d="M7805.007,6026v49.756l43.089,24.878,43.089-24.878V6026l-43.089-24.878Z" transform="translate(-7805.007 -6001.126)" fill="#e30c34"/>
      <path id="Path_10426" data-name="Path 10426" d="M7870.66,6043.709l-28.619,16.522v16.52l14.314-8.265v33.266l14.306,8.249h0v-49.774l14.305-8.258Z" transform="translate(-7827.595 -6027.099)" fill="#fff"/>
      <path id="Path_10427" data-name="Path 10427" d="M7952.3,6094.47v33.161l14.366-8.293v-33.169Z" transform="translate(-7894.845 -6052.997)" fill="#fff"/>
    </g>
    <g id="Group_2376" data-name="Group 2376" transform="translate(7905.553 6025.911)">
      <path id="Path_10428" data-name="Path 10428" d="M8088.216,6114.651h-10.285v-41.414h-15.152v-8.571h40.042v8.571h-14.6Z" transform="translate(-8062.778 -6064.667)" fill="#172d72"/>
      <path id="Path_10429" data-name="Path 10429" d="M8192.608,6073.238h-9.6v-8.571h9.6Zm0,41.414h-9.6v-37.025h9.6Z" transform="translate(-8136.112 -6064.667)" fill="#172d72"/>
      <path id="Path_10430" data-name="Path 10430" d="M8233.984,6098.539v-33.872h10.285v33.872c0,6.034,3.085,8.914,9.529,8.914s9.531-2.88,9.531-8.914v-33.872h10.285v33.872c0,14.124-11.382,17.69-19.816,17.69S8233.984,6112.663,8233.984,6098.539Z" transform="translate(-8167.204 -6064.667)" fill="#172d72"/>
      <path id="Path_10431" data-name="Path 10431" d="M8373.99,6114.651h-10.285v-49.984h22.078c10.422,0,16.113,5.485,16.113,15.5,0,10.147-5.9,16.661-15.084,16.661H8373.99Zm9.6-26.4c5.484,0,8.021-2.4,8.021-7.474,0-5.143-2.537-7.542-8.021-7.542h-9.6v15.016Z" transform="translate(-8246.325 -6064.667)" fill="#172d72"/>
    </g>
  </g>
</svg>
