<svg xmlns="http://www.w3.org/2000/svg" width="152.933" height="86.416" viewBox="0 0 152.933 86.416">
  <g id="组_1006" data-name="组 1006" transform="translate(-1591 -7227)">
    <g id="矩形_25" data-name="矩形 25" transform="translate(1614.47 7227)" fill="#7684d8" stroke="#172d72" stroke-width="4">
      <rect width="26.498" height="86.309" rx="10" stroke="none"/>
      <rect x="2" y="2" width="22.498" height="82.309" rx="8" fill="none"/>
    </g>
    <path id="矩形_28" data-name="矩形 28" d="M0,0H3.6a6,6,0,0,1,6,6V72.252a6,6,0,0,1-6,6H0a0,0,0,0,1,0,0V0A0,0,0,0,1,0,0Z" transform="translate(1627.341 7231.028)" fill="#3e50ba"/>
    <line id="直线_7" data-name="直线 7" y2="18.927" transform="translate(1627.719 7292.488)" fill="none" stroke="#172d72" stroke-linecap="round" stroke-width="4"/>
    <path id="路径_45" data-name="路径 45" d="M-441,2189.9h37.075" transform="translate(2081.211 5074.196)" fill="none" stroke="#172d72" stroke-linecap="round" stroke-width="4"/>
    <path id="路径_46" data-name="路径 46" d="M-372.923,2189.9h9.193" transform="translate(2057.695 5074.196)" fill="none" stroke="#172d72" stroke-linecap="round" stroke-width="4"/>
    <path id="路径_47" data-name="路径 47" d="M-443.322,2208.5h54.764" transform="translate(2083.533 5068.164)" fill="none" stroke="#172d72" stroke-linecap="round" stroke-width="4"/>
    <g id="矩形_30" data-name="矩形 30" transform="translate(1591 7239.871)" fill="#7684d8" stroke="#172d72" stroke-width="4">
      <rect width="26.498" height="60.642" rx="10" stroke="none"/>
      <rect x="2" y="2" width="22.498" height="56.642" rx="8" fill="none"/>
    </g>
    <path id="矩形_31" data-name="矩形 31" d="M0,0H3.6a6,6,0,0,1,6,6V46.585a6,6,0,0,1-6,6H0a0,0,0,0,1,0,0V0A0,0,0,0,1,0,0Z" transform="translate(1603.871 7243.899)" fill="#3e50ba"/>
    <line id="直线_9" data-name="直线 9" y2="18.245" transform="translate(1604.249 7280.375)" fill="none" stroke="#172d72" stroke-linecap="round" stroke-width="4"/>
    <g id="矩形_25-2" data-name="矩形 25" transform="translate(1693.965 7227)" fill="#7684d8" stroke="#172d72" stroke-width="4">
      <rect width="26.498" height="86.309" rx="10" stroke="none"/>
      <rect x="2" y="2" width="22.498" height="82.309" rx="8" fill="none"/>
    </g>
    <path id="矩形_28-2" data-name="矩形 28" d="M0,0H3.6a6,6,0,0,1,6,6V72.252a6,6,0,0,1-6,6H0a0,0,0,0,1,0,0V0A0,0,0,0,1,0,0Z" transform="translate(1706.835 7231.028)" fill="#3e50ba"/>
    <line id="直线_7-2" data-name="直线 7" y2="18.927" transform="translate(1707.214 7292.488)" fill="none" stroke="#172d72" stroke-linecap="round" stroke-width="4"/>
    <g id="矩形_30-2" data-name="矩形 30" transform="translate(1717.435 7239.871)" fill="#7684d8" stroke="#172d72" stroke-width="4">
      <rect width="26.498" height="60.642" rx="10" stroke="none"/>
      <rect x="2" y="2" width="22.498" height="56.642" rx="8" fill="none"/>
    </g>
    <path id="矩形_31-2" data-name="矩形 31" d="M0,0H3.6a6,6,0,0,1,6,6V46.585a6,6,0,0,1-6,6H0a0,0,0,0,1,0,0V0A0,0,0,0,1,0,0Z" transform="translate(1730.305 7243.899)" fill="#3e50ba"/>
    <line id="直线_9-2" data-name="直线 9" y2="18.245" transform="translate(1730.684 7280.375)" fill="none" stroke="#172d72" stroke-linecap="round" stroke-width="4"/>
  </g>
</svg>
