<svg xmlns="http://www.w3.org/2000/svg" width="88.95" height="50.199" viewBox="0 0 88.95 50.199">
  <g id="组_3330" data-name="组 3330" transform="translate(-1591 -7227)">
    <g id="矩形_25" data-name="矩形 25" transform="translate(1604.651 7227)" fill="#6c63ff" stroke="#3f3d56" stroke-width="2">
      <rect width="15.412" height="50.199" rx="7.706" stroke="none"/>
      <rect x="1" y="1" width="13.412" height="48.199" rx="6.706" fill="none"/>
    </g>
    <line id="直线_7" data-name="直线 7" y2="11.009" transform="translate(1612.357 7265.09)" fill="none" stroke="#3f3d56" stroke-linecap="round" stroke-width="2"/>
    <path id="路径_45" data-name="路径 45" d="M-441,2189.9h21.564" transform="translate(2060.622 5058.676)" fill="none" stroke="#3f3d56" stroke-linecap="round" stroke-width="2"/>
    <path id="路径_46" data-name="路径 46" d="M-372.923,2189.9h5.347" transform="translate(2018.463 5058.676)" fill="none" stroke="#3f3d56" stroke-linecap="round" stroke-width="2"/>
    <path id="路径_47" data-name="路径 47" d="M-443.322,2208.5h31.852" transform="translate(2062.944 5047.384)" fill="none" stroke="#3f3d56" stroke-linecap="round" stroke-width="2"/>
    <g id="矩形_30" data-name="矩形 30" transform="translate(1591 7234.486)" fill="#ff6584" stroke="#3f3d56" stroke-width="2">
      <rect width="15.412" height="35.271" rx="7.706" stroke="none"/>
      <rect x="1" y="1" width="13.412" height="33.271" rx="6.706" fill="none"/>
    </g>
    <line id="直线_9" data-name="直线 9" y2="10.612" transform="translate(1598.706 7258.044)" fill="none" stroke="#3f3d56" stroke-linecap="round" stroke-width="2"/>
    <g id="矩形_25-2" data-name="矩形 25" transform="translate(1650.887 7227)" fill="#6c63ff" stroke="#3f3d56" stroke-width="2">
      <rect width="15.412" height="50.199" rx="7.706" stroke="none"/>
      <rect x="1" y="1" width="13.412" height="48.199" rx="6.706" fill="none"/>
    </g>
    <line id="直线_7-2" data-name="直线 7" y2="11.009" transform="translate(1658.593 7265.09)" fill="none" stroke="#3f3d56" stroke-linecap="round" stroke-width="2"/>
    <g id="矩形_30-2" data-name="矩形 30" transform="translate(1664.537 7234.486)" fill="#ff6584" stroke="#3f3d56" stroke-width="2">
      <rect width="15.412" height="35.271" rx="7.706" stroke="none"/>
      <rect x="1" y="1" width="13.412" height="33.271" rx="6.706" fill="none"/>
    </g>
    <line id="直线_9-2" data-name="直线 9" y2="10.612" transform="translate(1672.243 7258.044)" fill="none" stroke="#3f3d56" stroke-linecap="round" stroke-width="2"/>
  </g>
</svg>
