<svg xmlns="http://www.w3.org/2000/svg" width="74.681" height="64.358" viewBox="0 0 74.681 64.358">
  <g id="组_998" data-name="组 998" transform="translate(-732.124 -7204.661)">
    <g id="组_993" data-name="组 993" transform="translate(732.124 7204.661)">
      <path id="路径_91" data-name="路径 91" d="M0,0H20.057V9.986H0Z" transform="translate(27.232 52.964)" fill="#6c63ff"/>
      <path id="路径_63" data-name="路径 63" d="M561.1,461.625v2.662a2.664,2.664,0,0,1-2.661,2.662H493.916a2.664,2.664,0,0,1-2.662-2.662v-2.662Zm0,0" transform="translate(-488.835 -415.332)" fill="#ff6584"/>
      <path id="路径_64" data-name="路径 64" d="M552.681,213.081v43.873a5.086,5.086,0,0,1-5.081,5.081H526.873v7.9h5.242a1.21,1.21,0,1,1,0,2.42h-33.55a1.21,1.21,0,1,1,0-2.42h5.243v-7.9H483.081A5.087,5.087,0,0,1,478,256.954V213.081A5.087,5.087,0,0,1,483.081,208H547.6a5.087,5.087,0,0,1,5.081,5.081Zm-2.42,43.873v-2.661H480.42v2.661a2.664,2.664,0,0,0,2.661,2.662H547.6a2.664,2.664,0,0,0,2.661-2.662Zm0-5.081V213.081a2.664,2.664,0,0,0-2.661-2.662H483.081a2.664,2.664,0,0,0-2.662,2.662v38.792Zm-25.808,18.066v-7.9H506.227v7.9Zm0,0" transform="translate(-478 -208)" fill="#3f3d56"/>
    </g>
    <g id="组_997" data-name="组 997" transform="translate(755.997 7213.563)">
      <rect id="矩形_37" data-name="矩形 37" width="26.143" height="2.614" rx="1.307" transform="translate(3.375 13.071) rotate(-30)" fill="#3f3d56"/>
      <rect id="矩形_38" data-name="矩形 38" width="27.712" height="2.614" rx="1.307" transform="translate(0 25.359) rotate(-30)" fill="#3f3d56"/>
    </g>
  </g>
</svg>
