<svg xmlns="http://www.w3.org/2000/svg" width="123.619" height="121.376" viewBox="0 0 123.619 121.376">
  <g id="组_995" data-name="组 995" transform="translate(-2713.86 -3556.587)">
    <circle id="椭圆_12" data-name="椭圆 12" cx="7.803" cy="7.803" r="7.803" transform="translate(2758.137 3598.681)" fill="#7684d8"/>
    <circle id="椭圆_13" data-name="椭圆 13" cx="12.651" cy="12.651" r="12.651" transform="translate(2776.316 3615.238)" fill="#7684d8"/>
    <path id="路径_75" data-name="路径 75" d="M289.5,282.278c-17.218,11.939-36.528,19.1-59.068,19.1s-42.271-5.941-59.493-17.886l8.12-14.812a90.025,90.025,0,0,0,102.458.2Z" transform="translate(2545.247 3375.783)" fill="#3e50ba"/>
    <path id="路径_76" data-name="路径 76" d="M290.559,343.407l-57.713-99.964a2.487,2.487,0,0,0-4.31,0l-57.716,99.964" transform="translate(2544.986 3316.389)" fill="none" stroke="#121a50" stroke-miterlimit="10" stroke-width="4"/>
    <path id="路径_77" data-name="路径 77" d="M275.9,268.82a90.032,90.032,0,0,1-102.458-.2" transform="translate(2550.862 3375.642)" fill="none" stroke="#121a50" stroke-miterlimit="10" stroke-width="4"/>
    <path id="路径_78" data-name="路径 78" d="M291.912,272.871a106.632,106.632,0,0,1-121.34-.01" transform="translate(2544.428 3384.155)" fill="none" stroke="#121a50" stroke-miterlimit="10" stroke-width="4"/>
    <line id="直线_10" data-name="直线 10" y1="2" x2="10" transform="translate(2748.5 3627.5)" fill="none" stroke="#7684d8" stroke-linecap="round" stroke-width="4"/>
    <line id="直线_11" data-name="直线 11" y2="9" transform="translate(2782.5 3595.5)" fill="none" stroke="#7684d8" stroke-linecap="round" stroke-width="4"/>
    <line id="直线_12" data-name="直线 12" x2="10" y2="4" transform="translate(2769.5 3642.5)" fill="none" stroke="#7684d8" stroke-linecap="round" stroke-width="4"/>
  </g>
</svg>
