<svg xmlns="http://www.w3.org/2000/svg" width="75.143" height="73.482" viewBox="0 0 75.143 73.482">
  <g id="组_995" data-name="组 995" transform="translate(-2713.86 -3557.587)">
    <circle id="椭圆_12" data-name="椭圆 12" cx="4.685" cy="4.685" r="4.685" transform="translate(2740.903 3582.663)" fill="#ff6584"/>
    <circle id="椭圆_13" data-name="椭圆 13" cx="7.597" cy="7.597" r="7.597" transform="translate(2751.82 3592.605)" fill="#ff6584"/>
    <path id="路径_75" data-name="路径 75" d="M242.132,276.846c-10.339,7.169-21.935,11.471-35.47,11.471s-25.383-3.567-35.725-10.741l4.876-8.895a54.059,54.059,0,0,0,61.525.119Z" transform="translate(2544.774 3341.474)" fill="#6c63ff"/>
    <path id="路径_76" data-name="路径 76" d="M242.722,302.973l-34.656-60.027a1.493,1.493,0,0,0-2.588,0l-34.658,60.027" transform="translate(2544.664 3316.389)" fill="none" stroke="#3f3d56" stroke-miterlimit="10" stroke-width="2"/>
    <path id="路径_77" data-name="路径 77" d="M234.966,268.74a54.063,54.063,0,0,1-61.525-.121" transform="translate(2547.145 3341.414)" fill="none" stroke="#3f3d56" stroke-miterlimit="10" stroke-width="2"/>
    <path id="路径_78" data-name="路径 78" d="M243.435,272.867a64.031,64.031,0,0,1-72.863-.006" transform="translate(2544.428 3344.832)" fill="none" stroke="#3f3d56" stroke-miterlimit="10" stroke-width="4"/>
    <line id="直线_10" data-name="直线 10" y1="1.201" x2="6.005" transform="translate(2735.116 3599.969)" fill="none" stroke="#3f3d56" stroke-linecap="round" stroke-width="2"/>
    <line id="直线_11" data-name="直线 11" y2="5.404" transform="translate(2755.533 3580.753)" fill="none" stroke="#3f3d56" stroke-linecap="round" stroke-width="2"/>
    <line id="直线_12" data-name="直线 12" x2="6.005" y2="2.402" transform="translate(2747.727 3608.976)" fill="none" stroke="#3f3d56" stroke-linecap="round" stroke-width="2"/>
  </g>
</svg>
