<svg xmlns="http://www.w3.org/2000/svg" width="78.847" height="78.847" viewBox="0 0 78.847 78.847">
  <g id="组_1004" data-name="组 1004" transform="translate(-2462 -7197)">
    <path id="路径_92" data-name="路径 92" d="M30.861,0A30.861,30.861,0,1,1,0,30.861,30.861,30.861,0,0,1,30.861,0Z" transform="translate(2463.155 7212.97)" fill="#6c63ff"/>
    <g id="组_982" data-name="组 982" transform="translate(2494.017 7198.155)">
      <path id="路径_37" data-name="路径 37" d="M207.9,298.55h30.831c.016-.41.031-.82.031-1.234s-.015-.825-.031-1.234H207.9Z" transform="translate(-207.903 -251.64)" fill="#3f3d56" opacity="0.3"/>
      <path id="路径_38" data-name="路径 38" d="M376.242,27.252h7.407l12.345-12.345h-7.407V7.5L376.242,19.845Z" transform="translate(-350.318 -7.5)" fill="#6c63ff"/>
    </g>
    <path id="路径_39" data-name="路径 39" d="M388.587,14.908V7.5L376.242,19.846v7.407Z" transform="translate(2143.699 7190.654)" fill="#6c63ff"/>
    <circle id="椭圆_8" data-name="椭圆 8" cx="23.455" cy="23.455" r="23.455" transform="translate(2470.561 7220.375)" fill="#fff"/>
    <path id="路径_40" data-name="路径 40" d="M207.9,298.55H231.3c.022-.411.062-.818.062-1.234s-.041-.823-.062-1.234H207.9Z" transform="translate(2286.114 6946.516)" fill="#3f3d56" opacity="0.1"/>
    <circle id="椭圆_9" data-name="椭圆 9" cx="16.016" cy="16.016" r="16.016" transform="translate(2478 7227.815)" fill="#ff6584"/>
    <path id="路径_41" data-name="路径 41" d="M207.9,298.55h15.969q.047-.611.047-1.234t-.047-1.234H207.9Z" transform="translate(2286.114 6946.516)" fill="#3f3d56" opacity="0.1"/>
    <circle id="椭圆_10" data-name="椭圆 10" cx="8.716" cy="8.716" r="8.716" transform="translate(2485.3 7235.115)" fill="#fff"/>
    <path id="路径_42" data-name="路径 42" d="M207.9,298.55h8.627a8.649,8.649,0,0,0,0-2.469H207.9v2.469Z" transform="translate(2286.114 6946.516)" fill="#3f3d56" opacity="0.1"/>
    <circle id="椭圆_11" data-name="椭圆 11" cx="3.704" cy="3.704" r="3.704" transform="translate(2490.313 7240.128)" fill="#6c63ff"/>
    <path id="路径_43" data-name="路径 43" d="M207.9,298.55h3.477a3.472,3.472,0,0,0,0-2.469H207.9Z" transform="translate(2286.114 6946.516)" fill="#3f3d56" opacity="0.5"/>
    <path id="路径_44" data-name="路径 44" d="M78.759,8.12a1.155,1.155,0,0,0-1.067-.713H71.44V1.155A1.155,1.155,0,0,0,69.469.338L57.124,12.683a1.155,1.155,0,0,0-.338.817v6.928L53.812,23.4a32.062,32.062,0,1,0,1.633,1.634l2.973-2.973h6.929a1.155,1.155,0,0,0,.817-.338L78.509,9.378A1.155,1.155,0,0,0,78.759,8.12ZM61.724,46.83a29.745,29.745,0,1,1-9.545-21.8L31.2,46.014a1.155,1.155,0,0,0,1.634,1.633l5.231-5.231a7.487,7.487,0,1,1-6.048-3.072,7.557,7.557,0,0,1,1.394.129,1.155,1.155,0,1,0,.427-2.27,9.8,9.8,0,1,0,7.976,9.627,9.732,9.732,0,0,0-2.1-6.061l3.62-3.62A14.854,14.854,0,1,1,39.1,33.723a1.155,1.155,0,0,0,1.1-2.032A17.222,17.222,0,1,0,44.97,35.51l3.61-3.61a22.263,22.263,0,1,1-4.535-3.85,1.155,1.155,0,1,0,1.248-1.944,24.643,24.643,0,1,0,4.921,4.159l3.6-3.6A29.6,29.6,0,0,1,61.724,46.83Zm3.146-27.079h-4.14l6.67-6.67a1.155,1.155,0,0,0-1.633-1.633l-6.67,6.67v-4.14L69.13,3.943V8.562a1.155,1.155,0,0,0,1.155,1.155H74.9Z" transform="translate(2462 7197)" fill="#3f3d56"/>
  </g>
</svg>
