<svg xmlns="http://www.w3.org/2000/svg" width="145.5" height="145.5" viewBox="0 0 145.5 145.5">
  <g id="组_1004" data-name="组 1004" transform="translate(-2462 -7197)">
    <path id="路径_92" data-name="路径 92" d="M56.95,0A56.95,56.95,0,1,1,0,56.95,56.95,56.95,0,0,1,56.95,0Z" transform="translate(2464.131 7226.47)" fill="#7684d8"/>
    <g id="组_982" data-name="组 982" transform="translate(2521.082 7199.132)">
      <path id="路径_37" data-name="路径 37" d="M207.9,300.637H264.8c.03-.757.058-1.514.058-2.278s-.028-1.521-.058-2.278H207.9Z" transform="translate(-207.903 -214.072)" fill="#3e50ba"/>
      <path id="路径_38" data-name="路径 38" d="M376.242,43.948H389.91l22.78-22.78H399.022V7.5l-22.78,22.78Z" transform="translate(-328.404 -7.5)" fill="#3e50ba"/>
    </g>
    <path id="路径_39" data-name="路径 39" d="M399.022,21.169V7.5l-22.78,22.78V43.949Z" transform="translate(2192.678 7191.631)" fill="#7684d8"/>
    <circle id="椭圆_8" data-name="椭圆 8" cx="43.283" cy="43.283" r="43.283" transform="translate(2477.798 7240.136)" fill="#fff"/>
    <path id="路径_40" data-name="路径 40" d="M207.9,300.637H251.07c.04-.759.115-1.509.115-2.278s-.075-1.519-.115-2.278H207.9Z" transform="translate(2313.179 6985.06)" fill="#e2e7f2"/>
    <circle id="椭圆_9" data-name="椭圆 9" cx="29.555" cy="29.555" r="29.555" transform="translate(2491.526 7253.865)" fill="#7684d8"/>
    <path id="路径_41" data-name="路径 41" d="M207.9,300.637h29.468q.086-1.128.087-2.278t-.087-2.278H207.9Z" transform="translate(2313.179 6985.06)" fill="#3e50ba"/>
    <circle id="椭圆_10" data-name="椭圆 10" cx="16.085" cy="16.085" r="16.085" transform="translate(2504.996 7267.335)" fill="#fff"/>
    <path id="路径_42" data-name="路径 42" d="M207.9,300.637h15.92a15.96,15.96,0,0,0,0-4.556H207.9v4.556Z" transform="translate(2313.179 6985.06)" fill="#e2e7f2"/>
    <circle id="椭圆_11" data-name="椭圆 11" cx="6.835" cy="6.835" r="6.835" transform="translate(2514.246 7276.585)" fill="#3e50ba"/>
    <path id="路径_43" data-name="路径 43" d="M207.9,300.637h6.416a6.407,6.407,0,0,0,0-4.556H207.9Z" transform="translate(2313.179 6985.06)" fill="#1f3ad5"/>
    <path id="路径_44" data-name="路径 44" d="M145.337,14.984a2.131,2.131,0,0,0-1.969-1.316H131.832V2.131A2.131,2.131,0,0,0,128.193.624L105.413,23.4a2.131,2.131,0,0,0-.624,1.507V37.7L99.3,43.183a59.165,59.165,0,1,0,3.014,3.015l5.486-5.486h12.786a2.132,2.132,0,0,0,1.507-.624l22.78-22.78A2.131,2.131,0,0,0,145.337,14.984ZM113.9,86.418A54.89,54.89,0,1,1,96.288,46.2L57.575,84.911a2.131,2.131,0,0,0,3.015,3.014l9.653-9.653A13.816,13.816,0,1,1,59.082,72.6a13.944,13.944,0,0,1,2.572.238,2.131,2.131,0,1,0,.788-4.189A18.079,18.079,0,1,0,77.16,86.418a17.959,17.959,0,0,0-3.878-11.185l6.68-6.68a27.411,27.411,0,1,1-7.818-6.321,2.131,2.131,0,0,0,2.029-3.749,31.78,31.78,0,1,0,8.812,7.046l6.662-6.662a41.084,41.084,0,1,1-8.368-7.105,2.131,2.131,0,1,0,2.3-3.587,45.476,45.476,0,1,0,9.082,7.676L99.3,49.212A54.612,54.612,0,0,1,113.9,86.418Zm5.8-49.97h-7.64l12.308-12.308a2.131,2.131,0,0,0-3.014-3.014L109.052,33.434v-7.64L127.569,7.277V15.8a2.131,2.131,0,0,0,2.131,2.131h8.523Z" transform="translate(2462 7197)" fill="#172d72"/>
  </g>
</svg>
