<svg xmlns="http://www.w3.org/2000/svg" xmlns:xlink="http://www.w3.org/1999/xlink" width="138" height="160" viewBox="0 0 138 160">
  <defs>
    <clipPath id="clip-path">
      <rect id="矩形_3055" data-name="矩形 3055" width="138" height="160" transform="translate(1375 8234)" fill="none" stroke="#707070" stroke-width="1"/>
    </clipPath>
  </defs>
  <g id="蒙版组_53" data-name="蒙版组 53" transform="translate(-1375 -8234)" clip-path="url(#clip-path)">
    <g id="组_1005" data-name="组 1005" transform="translate(-222.714 606.699)">
      <g id="组_1001" data-name="组 1001" transform="translate(29 295.649)">
        <path id="路径_89" data-name="路径 89" d="M1128.307,292.628s18.854,18.04,18.854,33.855-18.854,33.855-18.854,33.855-18.854-18.04-18.854-33.855S1128.307,292.628,1128.307,292.628Z" transform="translate(549.546 7097.372)" fill="#7684d8" stroke="#707070" stroke-linecap="round" stroke-width="1"/>
        <path id="路径_90" data-name="路径 90" d="M1128.307,292.628s18.854,18.04,18.854,33.855-18.854,33.855-18.854,33.855-18.854-18.04-18.854-33.855S1128.307,292.628,1128.307,292.628Z" transform="translate(549.546 7097.372)" fill="none" stroke="#172d72" stroke-linecap="round" stroke-miterlimit="10" stroke-width="4"/>
        <line id="直线_15" data-name="直线 15" y1="89.235" transform="translate(1677.854 7390)" fill="none" stroke="#172d72" stroke-linecap="round" stroke-miterlimit="10" stroke-width="4"/>
        <line id="直线_16" data-name="直线 16" x1="13.078" y1="13.15" transform="translate(1664.775 7408.096)" fill="none" stroke="#172d72" stroke-linecap="round" stroke-miterlimit="10" stroke-width="4"/>
        <line id="直线_17" data-name="直线 17" x1="16.497" y1="18.928" transform="translate(1660.925 7422.727)" fill="none" stroke="#172d72" stroke-linecap="round" stroke-miterlimit="10" stroke-width="4"/>
        <line id="直线_18" data-name="直线 18" y1="12.321" x2="12.321" transform="translate(1677.866 7408.096)" fill="none" stroke="#172d72" stroke-linecap="round" stroke-miterlimit="10" stroke-width="4"/>
        <line id="直线_19" data-name="直线 19" y1="18.928" x2="17.873" transform="translate(1677.704 7422.727)" fill="none" stroke="#172d72" stroke-linecap="round" stroke-miterlimit="10" stroke-width="4"/>
      </g>
      <g id="组_1002" data-name="组 1002" transform="translate(3952.79 464.846) rotate(30)">
        <path id="路径_89-2" data-name="路径 89" d="M1133.938,292.628s24.484,23.428,24.484,43.966-24.484,43.966-24.484,43.966-24.484-23.428-24.484-43.966S1133.938,292.628,1133.938,292.628Z" transform="translate(450.18 7683.309) rotate(-30)" fill="#7684d8" stroke="#707070" stroke-linecap="round" stroke-width="1"/>
        <path id="路径_90-2" data-name="路径 90" d="M1133.938,292.628s24.484,23.428,24.484,43.966-24.484,43.966-24.484,43.966-24.484-23.428-24.484-43.966S1133.938,292.628,1133.938,292.628Z" transform="translate(450.18 7683.309) rotate(-30)" fill="none" stroke="#172d72" stroke-linecap="round" stroke-miterlimit="10" stroke-width="4"/>
        <line id="直线_15-2" data-name="直线 15" x1="68.616" y1="119.728" transform="translate(1578.514 7369.763)" fill="none" stroke="#172d72" stroke-linecap="round" stroke-miterlimit="10" stroke-width="4"/>
        <line id="直线_16-2" data-name="直线 16" x1="16.984" y1="17.077" transform="translate(1575.554 7398.606) rotate(-30)" fill="none" stroke="#172d72" stroke-linecap="round" stroke-miterlimit="10" stroke-width="4"/>
        <line id="直线_17-2" data-name="直线 17" x1="21.424" y1="24.581" transform="translate(1580.724 7417.561) rotate(-30)" fill="none" stroke="#172d72" stroke-linecap="round" stroke-miterlimit="10" stroke-width="4"/>
        <line id="直线_18-2" data-name="直线 18" y1="16" x2="16" transform="translate(1590.277 7390.106) rotate(-30)" fill="none" stroke="#172d72" stroke-linecap="round" stroke-miterlimit="10" stroke-width="4"/>
        <line id="直线_19-2" data-name="直线 19" y1="24.581" x2="23.211" transform="translate(1599.594 7406.667) rotate(-30)" fill="none" stroke="#172d72" stroke-linecap="round" stroke-miterlimit="10" stroke-width="4"/>
      </g>
    </g>
  </g>
</svg>
